<svg width="28" height="29" viewBox="0 0 28 29" fill="none" xmlns="http://www.w3.org/2000/svg">
<path d="M2.33325 12.3162C2.33325 14.7916 3.31658 17.1656 5.06692 18.9159C6.81726 20.6662 9.19123 21.6496 11.6666 21.6496C13.7393 21.6522 15.7528 20.9577 17.3832 19.6779L22.5049 24.8112C22.6134 24.9206 22.7424 25.0074 22.8846 25.0666C23.0267 25.1258 23.1792 25.1563 23.3332 25.1563C23.4873 25.1563 23.6398 25.1258 23.7819 25.0666C23.9241 25.0074 24.0531 24.9206 24.1616 24.8112C24.2709 24.7028 24.3577 24.5737 24.417 24.4316C24.4762 24.2894 24.5067 24.1369 24.5067 23.9829C24.5067 23.8289 24.4762 23.6764 24.417 23.5342C24.3577 23.3921 24.2709 23.263 24.1616 23.1546L19.0282 18.0329C20.3081 16.4024 21.0025 14.389 20.9999 12.3162C20.9999 9.84089 20.0166 7.46692 18.2662 5.71658C16.5159 3.96624 14.1419 2.98291 11.6666 2.98291C9.19123 2.98291 6.81726 3.96624 5.06692 5.71658C3.31658 7.46692 2.33325 9.84089 2.33325 12.3162ZM11.6666 5.31624C13.0511 5.31624 14.4044 5.72679 15.5556 6.49596C16.7067 7.26513 17.6039 8.35838 18.1337 9.63746C18.6636 10.9165 18.8022 12.324 18.5321 13.6819C18.262 15.0397 17.5953 16.287 16.6163 17.266C15.6374 18.245 14.3901 18.9116 13.0322 19.1817C11.6743 19.4518 10.2669 19.3132 8.9878 18.7834C7.70872 18.2536 6.61547 17.3564 5.8463 16.2052C5.07713 15.0541 4.66658 13.7007 4.66658 12.3162C4.66658 10.4597 5.40408 8.67925 6.71684 7.3665C8.02959 6.05374 9.81007 5.31624 11.6666 5.31624Z" fill="#9BB7C2"/>
</svg>
