<svg width="24" height="24" viewBox="0 0 24 24" fill="none" xmlns="http://www.w3.org/2000/svg">
<path d="M12.0001 1C9.82453 1 7.6978 1.64514 5.88885 2.85383C4.07991 4.06253 2.67002 5.78049 1.83745 7.79048C1.00489 9.80047 0.787051 12.0122 1.21149 14.146C1.63593 16.2798 2.68358 18.2398 4.22195 19.7782C5.76033 21.3166 7.72034 22.3642 9.85413 22.7886C11.9879 23.2131 14.1997 22.9952 16.2096 22.1627C18.2196 21.3301 19.9376 19.9202 21.1463 18.1113C22.355 16.3023 23.0001 14.1756 23.0001 12C22.9967 9.08367 21.8367 6.28778 19.7745 4.22563C17.7123 2.16347 14.9165 1.00344 12.0001 1ZM12.0001 21C10.2201 21 8.48004 20.4722 7 19.4832C5.51995 18.4943 4.3664 17.0887 3.68521 15.4441C3.00402 13.7996 2.82579 11.99 3.17306 10.2442C3.52033 8.49836 4.37749 6.89471 5.63617 5.63604C6.89484 4.37737 8.49849 3.5202 10.2443 3.17293C11.9901 2.82567 13.7997 3.0039 15.4443 3.68508C17.0888 4.36627 18.4944 5.51983 19.4834 6.99987C20.4723 8.47991 21.0001 10.22 21.0001 12C20.9972 14.3861 20.0481 16.6735 18.3609 18.3607C16.6737 20.0479 14.3862 20.9971 12.0001 21Z" fill="white"/>
<path d="M16.0001 11H13.0001V8C13.0001 7.73478 12.8948 7.48043 12.7072 7.29289C12.5197 7.10536 12.2653 7 12.0001 7C11.7349 7 11.4806 7.10536 11.293 7.29289C11.1055 7.48043 11.0001 7.73478 11.0001 8V11H8.00012C7.73491 11 7.48055 11.1054 7.29302 11.2929C7.10548 11.4804 7.00012 11.7348 7.00012 12C7.00012 12.2652 7.10548 12.5196 7.29302 12.7071C7.48055 12.8946 7.73491 13 8.00012 13H11.0001V16C11.0001 16.2652 11.1055 16.5196 11.293 16.7071C11.4806 16.8946 11.7349 17 12.0001 17C12.2653 17 12.5197 16.8946 12.7072 16.7071C12.8948 16.5196 13.0001 16.2652 13.0001 16V13H16.0001C16.2653 13 16.5197 12.8946 16.7072 12.7071C16.8948 12.5196 17.0001 12.2652 17.0001 12C17.0001 11.7348 16.8948 11.4804 16.7072 11.2929C16.5197 11.1054 16.2653 11 16.0001 11Z" fill="white"/>
</svg>
