<svg width="17" height="17" viewBox="0 0 17 17" fill="none" xmlns="http://www.w3.org/2000/svg">
<path d="M11.5003 2.50015C9.01525 0.015097 4.98515 0.015096 2.5001 2.50014C0.0150506 4.98519 0.0150506 9.01529 2.5001 11.5003C4.70153 13.7018 8.11577 13.9503 10.5927 12.2513L13.6909 15.7168C14.2176 16.3084 15.1333 16.3327 15.6925 15.7735L15.7735 15.6925C16.3326 15.1334 16.3083 14.2177 15.7168 13.691L12.2512 10.5928C13.9529 8.11311 13.7017 4.70157 11.5003 2.50015ZM9.95525 9.95529C8.32376 11.5868 5.67664 11.5868 4.04515 9.95529C2.41366 8.3238 2.41366 5.67669 4.04515 4.0452C5.67664 2.41371 8.32376 2.41371 9.95525 4.0452C11.5894 5.67939 11.5867 8.3238 9.95525 9.95529Z" fill="#FEFDFE"/>
</svg>
