<svg width="30" height="30" viewBox="0 0 30 30" fill="none" xmlns="http://www.w3.org/2000/svg">
<path d="M8.75 12.5809V11.3713C8.75 8.03083 11.5482 5.32288 15 5.32288C18.4518 5.32288 21.25 8.03083 21.25 11.3713V12.5809C24.0114 12.5809 26.25 14.7473 26.25 17.4197C26.25 19.2107 25.2445 20.8169 23.75 21.6535M8.75 12.5809C5.98858 12.5809 3.75 14.7473 3.75 17.4197C3.75 19.2107 4.7555 20.8169 6.25 21.6535M8.75 12.5809C9.29107 12.5809 9.81206 12.6641 10.3001 12.818M15 15.0003V25.8874M15 15.0003L18.75 18.6293M15 15.0003L11.25 18.6293" stroke="white" stroke-width="1.5" stroke-linecap="round" stroke-linejoin="round"/>
</svg>
