<svg width="626" height="376" viewBox="0 0 626 376" fill="none" xmlns="http://www.w3.org/2000/svg">
<g clip-path="url(#clip0_76_582)">
<rect width="626" height="376" rx="20" fill="white"/>
<path d="M0 20C0 8.95431 8.95431 0 20 0H251V54H0V20Z" fill="#90A0B8" fill-opacity="0.08"/>
<path d="M23.8182 31H20.8608V22.2727H23.8778C24.7443 22.2727 25.4886 22.4474 26.1108 22.7969C26.7358 23.1435 27.2159 23.642 27.5511 24.2926C27.8864 24.9432 28.054 25.7216 28.054 26.6278C28.054 27.5369 27.8849 28.3182 27.5469 28.9716C27.2116 29.625 26.7273 30.1264 26.0938 30.4759C25.4631 30.8253 24.7045 31 23.8182 31ZM22.4418 29.6321H23.7415C24.3494 29.6321 24.8565 29.5213 25.2628 29.2997C25.669 29.0753 25.9744 28.7415 26.179 28.2983C26.3835 27.8523 26.4858 27.2955 26.4858 26.6278C26.4858 25.9602 26.3835 25.4062 26.179 24.9659C25.9744 24.5227 25.6719 24.1918 25.2713 23.973C24.8736 23.7514 24.3793 23.6406 23.7884 23.6406H22.4418V29.6321ZM29.7261 31V22.2727H32.9988C33.6693 22.2727 34.2318 22.3977 34.6863 22.6477C35.1437 22.8977 35.4889 23.2415 35.7218 23.679C35.9576 24.1136 36.0755 24.608 36.0755 25.1619C36.0755 25.7216 35.9576 26.2187 35.7218 26.6534C35.4861 27.0881 35.138 27.4304 34.6778 27.6804C34.2176 27.9276 33.6508 28.0511 32.9775 28.0511H30.8085V26.7514H32.7645C33.1565 26.7514 33.4775 26.6832 33.7275 26.5469C33.9775 26.4105 34.1622 26.223 34.2815 25.9844C34.4037 25.7457 34.4647 25.4716 34.4647 25.1619C34.4647 24.8523 34.4037 24.5795 34.2815 24.3438C34.1622 24.108 33.9761 23.9247 33.7233 23.794C33.4733 23.6605 33.1508 23.5938 32.7559 23.5938H31.3071V31H29.7261ZM37.7668 31H36.0793L39.1518 22.2727H41.1035L44.1802 31H42.4927L40.1617 24.0625H40.0936L37.7668 31ZM37.8222 27.5781H42.4245V28.848H37.8222V27.5781Z" fill="#3A3541" fill-opacity="0.87"/>
<path d="M63 29L66 32L69 29M69 25L66 22L63 25" stroke="#524E59" stroke-width="1.5" stroke-linecap="round" stroke-linejoin="round"/>
<path d="M251 0H608C617.941 0 626 8.05888 626 18V54H251V0Z" fill="#90A0B8" fill-opacity="0.08"/>
<path d="M421.362 22.2727H422.943V27.9744C422.943 28.5994 422.795 29.1491 422.5 29.6236C422.207 30.098 421.795 30.4687 421.264 30.7358C420.733 31 420.112 31.1321 419.402 31.1321C418.689 31.1321 418.067 31 417.536 30.7358C417.004 30.4687 416.592 30.098 416.3 29.6236C416.007 29.1491 415.861 28.5994 415.861 27.9744V22.2727H417.442V27.8423C417.442 28.206 417.521 28.5298 417.68 28.8139C417.842 29.098 418.07 29.321 418.362 29.483C418.655 29.642 419.001 29.7216 419.402 29.7216C419.803 29.7216 420.149 29.642 420.442 29.483C420.737 29.321 420.964 29.098 421.124 28.8139C421.283 28.5298 421.362 28.206 421.362 27.8423V22.2727ZM429.574 24.6719C429.535 24.2997 429.367 24.0099 429.072 23.8026C428.779 23.5952 428.398 23.4915 427.93 23.4915C427.6 23.4915 427.317 23.5412 427.082 23.6406C426.846 23.7401 426.665 23.875 426.54 24.0455C426.415 24.2159 426.351 24.4105 426.349 24.6293C426.349 24.8111 426.39 24.9687 426.472 25.1023C426.557 25.2358 426.672 25.3494 426.817 25.4432C426.962 25.5341 427.123 25.6108 427.299 25.6733C427.475 25.7358 427.653 25.7884 427.832 25.831L428.65 26.0355C428.979 26.1122 429.296 26.2159 429.6 26.3466C429.907 26.4773 430.181 26.642 430.422 26.8409C430.667 27.0398 430.86 27.2798 431.002 27.5611C431.144 27.8423 431.215 28.1719 431.215 28.5497C431.215 29.0611 431.084 29.5114 430.823 29.9006C430.562 30.2869 430.184 30.5895 429.69 30.8082C429.198 31.0241 428.603 31.1321 427.904 31.1321C427.225 31.1321 426.636 31.027 426.136 30.8168C425.638 30.6065 425.249 30.2997 424.968 29.8963C424.69 29.4929 424.539 29.0014 424.516 28.4219H426.072C426.094 28.7259 426.188 28.9787 426.353 29.1804C426.518 29.3821 426.732 29.5327 426.996 29.6321C427.263 29.7315 427.562 29.7812 427.891 29.7812C428.235 29.7812 428.536 29.7301 428.795 29.6278C429.056 29.5227 429.261 29.3778 429.408 29.1932C429.556 29.0057 429.631 28.7869 429.634 28.5369C429.631 28.3097 429.565 28.1222 429.434 27.9744C429.303 27.8239 429.12 27.6989 428.884 27.5994C428.651 27.4972 428.378 27.4062 428.066 27.3267L427.073 27.071C426.354 26.8864 425.786 26.6065 425.369 26.2315C424.954 25.8537 424.746 25.3523 424.746 24.7273C424.746 24.2131 424.886 23.7628 425.164 23.3764C425.445 22.9901 425.827 22.6903 426.31 22.4773C426.793 22.2614 427.34 22.1534 427.951 22.1534C428.57 22.1534 429.113 22.2614 429.579 22.4773C430.047 22.6903 430.415 22.9872 430.682 23.3679C430.949 23.7457 431.087 24.1804 431.096 24.6719H429.574ZM433.775 31H432.087L435.16 22.2727H437.111L440.188 31H438.501L436.17 24.0625H436.101L433.775 31ZM433.83 27.5781H438.432V28.848H433.83V27.5781ZM446.944 25.0597C446.873 24.8295 446.775 24.6236 446.65 24.4418C446.528 24.2571 446.38 24.0994 446.207 23.9688C446.036 23.8381 445.84 23.7401 445.619 23.6747C445.397 23.6065 445.156 23.5724 444.894 23.5724C444.425 23.5724 444.008 23.6903 443.641 23.9261C443.275 24.1619 442.987 24.5085 442.776 24.9659C442.569 25.4205 442.465 25.9744 442.465 26.6278C442.465 27.2869 442.569 27.8452 442.776 28.3026C442.984 28.7599 443.272 29.108 443.641 29.3466C444.011 29.5824 444.44 29.7003 444.928 29.7003C445.372 29.7003 445.755 29.6151 446.079 29.4446C446.406 29.2741 446.657 29.0327 446.833 28.7202C447.009 28.4048 447.097 28.0355 447.097 27.6122L447.455 27.6676H445.086V26.4318H448.627V27.4801C448.627 28.2273 448.468 28.8736 448.15 29.419C447.832 29.9645 447.394 30.3849 446.837 30.6804C446.281 30.973 445.641 31.1193 444.92 31.1193C444.116 31.1193 443.41 30.9389 442.802 30.5781C442.197 30.2145 441.724 29.6989 441.383 29.0312C441.045 28.3608 440.876 27.5653 440.876 26.6449C440.876 25.9403 440.975 25.3111 441.174 24.7571C441.376 24.2031 441.657 23.733 442.018 23.3466C442.379 22.9574 442.802 22.6619 443.288 22.4602C443.773 22.2557 444.302 22.1534 444.873 22.1534C445.356 22.1534 445.806 22.2244 446.224 22.3665C446.641 22.5057 447.012 22.7045 447.336 22.9631C447.663 23.2216 447.931 23.5284 448.141 23.8835C448.352 24.2386 448.489 24.6307 448.555 25.0597H446.944ZM450.326 31V22.2727H456.002V23.598H451.907V25.9673H455.708V27.2926H451.907V29.6747H456.036V31H450.326Z" fill="#3A3541" fill-opacity="0.87"/>
<path d="M470 29L473 32L476 29M476 25L473 22L470 25" stroke="#524E59" stroke-width="1.5" stroke-linecap="round" stroke-linejoin="round"/>
<rect x="21.5" y="70" width="34" height="34" rx="17" fill="#E7EBB8"/>
<path d="M78.936 83.136L76.512 91.5H75.288L73.344 84.768L71.328 91.5L70.116 91.512L67.776 83.136H68.94L70.764 90.228L72.78 83.136H74.004L75.924 90.204L77.76 83.136H78.936ZM83.099 91.608C82.483 91.608 81.923 91.468 81.419 91.188C80.923 90.908 80.531 90.512 80.243 90C79.963 89.48 79.823 88.88 79.823 88.2C79.823 87.528 79.967 86.936 80.255 86.424C80.551 85.904 80.951 85.508 81.455 85.236C81.959 84.956 82.523 84.816 83.147 84.816C83.771 84.816 84.335 84.956 84.839 85.236C85.343 85.508 85.739 85.9 86.027 86.412C86.323 86.924 86.471 87.52 86.471 88.2C86.471 88.88 86.319 89.48 86.015 90C85.719 90.512 85.315 90.908 84.803 91.188C84.291 91.468 83.723 91.608 83.099 91.608ZM83.099 90.648C83.491 90.648 83.859 90.556 84.203 90.372C84.547 90.188 84.823 89.912 85.031 89.544C85.247 89.176 85.355 88.728 85.355 88.2C85.355 87.672 85.251 87.224 85.043 86.856C84.835 86.488 84.563 86.216 84.227 86.04C83.891 85.856 83.527 85.764 83.135 85.764C82.735 85.764 82.367 85.856 82.031 86.04C81.703 86.216 81.439 86.488 81.239 86.856C81.039 87.224 80.939 87.672 80.939 88.2C80.939 88.736 81.035 89.188 81.227 89.556C81.427 89.924 81.691 90.2 82.019 90.384C82.347 90.56 82.707 90.648 83.099 90.648ZM89.0988 85.992C89.2908 85.616 89.5628 85.324 89.9148 85.116C90.2748 84.908 90.7108 84.804 91.2228 84.804V85.932H90.9348C89.7108 85.932 89.0988 86.596 89.0988 87.924V91.5H88.0068V84.924H89.0988V85.992ZM96.2554 91.5L93.6754 88.596V91.5H92.5834V82.62H93.6754V87.84L96.2074 84.924H97.7314L94.6354 88.2L97.7434 91.5H96.2554ZM99.9512 86.136C100.167 85.76 100.487 85.448 100.911 85.2C101.343 84.944 101.843 84.816 102.411 84.816C102.995 84.816 103.523 84.956 103.995 85.236C104.475 85.516 104.851 85.912 105.123 86.424C105.395 86.928 105.531 87.516 105.531 88.188C105.531 88.852 105.395 89.444 105.123 89.964C104.851 90.484 104.475 90.888 103.995 91.176C103.523 91.464 102.995 91.608 102.411 91.608C101.851 91.608 101.355 91.484 100.923 91.236C100.499 90.98 100.175 90.664 99.9512 90.288V94.62H98.8592V84.924H99.9512V86.136ZM104.415 88.188C104.415 87.692 104.315 87.26 104.115 86.892C103.915 86.524 103.643 86.244 103.299 86.052C102.963 85.86 102.591 85.764 102.183 85.764C101.783 85.764 101.411 85.864 101.067 86.064C100.731 86.256 100.459 86.54 100.251 86.916C100.051 87.284 99.9512 87.712 99.9512 88.2C99.9512 88.696 100.051 89.132 100.251 89.508C100.459 89.876 100.731 90.16 101.067 90.36C101.411 90.552 101.783 90.648 102.183 90.648C102.591 90.648 102.963 90.552 103.299 90.36C103.643 90.16 103.915 89.876 104.115 89.508C104.315 89.132 104.415 88.692 104.415 88.188ZM108.161 82.62V91.5H107.069V82.62H108.161ZM109.714 88.188C109.714 87.516 109.85 86.928 110.122 86.424C110.394 85.912 110.766 85.516 111.238 85.236C111.718 84.956 112.25 84.816 112.834 84.816C113.41 84.816 113.91 84.94 114.334 85.188C114.758 85.436 115.074 85.748 115.282 86.124V84.924H116.386V91.5H115.282V90.276C115.066 90.66 114.742 90.98 114.31 91.236C113.886 91.484 113.39 91.608 112.822 91.608C112.238 91.608 111.71 91.464 111.238 91.176C110.766 90.888 110.394 90.484 110.122 89.964C109.85 89.444 109.714 88.852 109.714 88.188ZM115.282 88.2C115.282 87.704 115.182 87.272 114.982 86.904C114.782 86.536 114.51 86.256 114.166 86.064C113.83 85.864 113.458 85.764 113.05 85.764C112.642 85.764 112.27 85.86 111.934 86.052C111.598 86.244 111.33 86.524 111.13 86.892C110.93 87.26 110.83 87.692 110.83 88.188C110.83 88.692 110.93 89.132 111.13 89.508C111.33 89.876 111.598 90.16 111.934 90.36C112.27 90.552 112.642 90.648 113.05 90.648C113.458 90.648 113.83 90.552 114.166 90.36C114.51 90.16 114.782 89.876 114.982 89.508C115.182 89.132 115.282 88.696 115.282 88.2ZM117.923 88.2C117.923 87.52 118.059 86.928 118.331 86.424C118.603 85.912 118.979 85.516 119.459 85.236C119.947 84.956 120.503 84.816 121.127 84.816C121.935 84.816 122.599 85.012 123.119 85.404C123.647 85.796 123.995 86.34 124.163 87.036H122.987C122.875 86.636 122.655 86.32 122.327 86.088C122.007 85.856 121.607 85.74 121.127 85.74C120.503 85.74 119.999 85.956 119.615 86.388C119.231 86.812 119.039 87.416 119.039 88.2C119.039 88.992 119.231 89.604 119.615 90.036C119.999 90.468 120.503 90.684 121.127 90.684C121.607 90.684 122.007 90.572 122.327 90.348C122.647 90.124 122.867 89.804 122.987 89.388H124.163C123.987 90.06 123.635 90.6 123.107 91.008C122.579 91.408 121.919 91.608 121.127 91.608C120.503 91.608 119.947 91.468 119.459 91.188C118.979 90.908 118.603 90.512 118.331 90C118.059 89.488 117.923 88.888 117.923 88.2ZM131.72 87.96C131.72 88.168 131.708 88.388 131.684 88.62H126.428C126.468 89.268 126.688 89.776 127.088 90.144C127.496 90.504 127.988 90.684 128.564 90.684C129.036 90.684 129.428 90.576 129.74 90.36C130.06 90.136 130.284 89.84 130.412 89.472H131.588C131.412 90.104 131.06 90.62 130.532 91.02C130.004 91.412 129.348 91.608 128.564 91.608C127.94 91.608 127.38 91.468 126.884 91.188C126.396 90.908 126.012 90.512 125.732 90C125.452 89.48 125.312 88.88 125.312 88.2C125.312 87.52 125.448 86.924 125.72 86.412C125.992 85.9 126.372 85.508 126.86 85.236C127.356 84.956 127.924 84.816 128.564 84.816C129.188 84.816 129.74 84.952 130.22 85.224C130.7 85.496 131.068 85.872 131.324 86.352C131.588 86.824 131.72 87.36 131.72 87.96ZM130.592 87.732C130.592 87.316 130.5 86.96 130.316 86.664C130.132 86.36 129.88 86.132 129.56 85.98C129.248 85.82 128.9 85.74 128.516 85.74C127.964 85.74 127.492 85.916 127.1 86.268C126.716 86.62 126.496 87.108 126.44 87.732H130.592ZM140.965 91.5L138.973 88.08H137.653V91.5H136.561V83.136H139.261C139.893 83.136 140.425 83.244 140.857 83.46C141.297 83.676 141.625 83.968 141.841 84.336C142.057 84.704 142.165 85.124 142.165 85.596C142.165 86.172 141.997 86.68 141.661 87.12C141.333 87.56 140.837 87.852 140.173 87.996L142.273 91.5H140.965ZM137.653 87.204H139.261C139.853 87.204 140.297 87.06 140.593 86.772C140.889 86.476 141.037 86.084 141.037 85.596C141.037 85.1 140.889 84.716 140.593 84.444C140.305 84.172 139.861 84.036 139.261 84.036H137.653V87.204ZM149.961 87.96C149.961 88.168 149.949 88.388 149.925 88.62H144.669C144.709 89.268 144.929 89.776 145.329 90.144C145.737 90.504 146.229 90.684 146.805 90.684C147.277 90.684 147.669 90.576 147.981 90.36C148.301 90.136 148.525 89.84 148.653 89.472H149.829C149.653 90.104 149.301 90.62 148.773 91.02C148.245 91.412 147.589 91.608 146.805 91.608C146.181 91.608 145.621 91.468 145.125 91.188C144.637 90.908 144.253 90.512 143.973 90C143.693 89.48 143.553 88.88 143.553 88.2C143.553 87.52 143.689 86.924 143.961 86.412C144.233 85.9 144.613 85.508 145.101 85.236C145.597 84.956 146.165 84.816 146.805 84.816C147.429 84.816 147.981 84.952 148.461 85.224C148.941 85.496 149.309 85.872 149.565 86.352C149.829 86.824 149.961 87.36 149.961 87.96ZM148.833 87.732C148.833 87.316 148.741 86.96 148.557 86.664C148.373 86.36 148.121 86.132 147.801 85.98C147.489 85.82 147.141 85.74 146.757 85.74C146.205 85.74 145.733 85.916 145.341 86.268C144.957 86.62 144.737 87.108 144.681 87.732H148.833ZM152.595 82.62V91.5H151.503V82.62H152.595ZM154.148 88.188C154.148 87.516 154.284 86.928 154.556 86.424C154.828 85.912 155.2 85.516 155.672 85.236C156.152 84.956 156.684 84.816 157.268 84.816C157.844 84.816 158.344 84.94 158.768 85.188C159.192 85.436 159.508 85.748 159.716 86.124V84.924H160.82V91.5H159.716V90.276C159.5 90.66 159.176 90.98 158.744 91.236C158.32 91.484 157.824 91.608 157.256 91.608C156.672 91.608 156.144 91.464 155.672 91.176C155.2 90.888 154.828 90.484 154.556 89.964C154.284 89.444 154.148 88.852 154.148 88.188ZM159.716 88.2C159.716 87.704 159.616 87.272 159.416 86.904C159.216 86.536 158.944 86.256 158.6 86.064C158.264 85.864 157.892 85.764 157.484 85.764C157.076 85.764 156.704 85.86 156.368 86.052C156.032 86.244 155.764 86.524 155.564 86.892C155.364 87.26 155.264 87.692 155.264 88.188C155.264 88.692 155.364 89.132 155.564 89.508C155.764 89.876 156.032 90.16 156.368 90.36C156.704 90.552 157.076 90.648 157.484 90.648C157.892 90.648 158.264 90.552 158.6 90.36C158.944 90.16 159.216 89.876 159.416 89.508C159.616 89.132 159.716 88.696 159.716 88.2ZM164.097 85.824V89.7C164.097 90.02 164.165 90.248 164.301 90.384C164.437 90.512 164.673 90.576 165.009 90.576H165.813V91.5H164.829C164.221 91.5 163.765 91.36 163.461 91.08C163.157 90.8 163.005 90.34 163.005 89.7V85.824H162.153V84.924H163.005V83.268H164.097V84.924H165.813V85.824H164.097ZM167.801 83.856C167.593 83.856 167.417 83.784 167.273 83.64C167.129 83.496 167.057 83.32 167.057 83.112C167.057 82.904 167.129 82.728 167.273 82.584C167.417 82.44 167.593 82.368 167.801 82.368C168.001 82.368 168.169 82.44 168.305 82.584C168.449 82.728 168.521 82.904 168.521 83.112C168.521 83.32 168.449 83.496 168.305 83.64C168.169 83.784 168.001 83.856 167.801 83.856ZM168.329 84.924V91.5H167.237V84.924H168.329ZM173.158 91.608C172.542 91.608 171.982 91.468 171.478 91.188C170.982 90.908 170.59 90.512 170.302 90C170.022 89.48 169.882 88.88 169.882 88.2C169.882 87.528 170.026 86.936 170.314 86.424C170.61 85.904 171.01 85.508 171.514 85.236C172.018 84.956 172.582 84.816 173.206 84.816C173.83 84.816 174.394 84.956 174.898 85.236C175.402 85.508 175.798 85.9 176.086 86.412C176.382 86.924 176.53 87.52 176.53 88.2C176.53 88.88 176.378 89.48 176.074 90C175.778 90.512 175.374 90.908 174.862 91.188C174.35 91.468 173.782 91.608 173.158 91.608ZM173.158 90.648C173.55 90.648 173.918 90.556 174.262 90.372C174.606 90.188 174.882 89.912 175.09 89.544C175.306 89.176 175.414 88.728 175.414 88.2C175.414 87.672 175.31 87.224 175.102 86.856C174.894 86.488 174.622 86.216 174.286 86.04C173.95 85.856 173.586 85.764 173.194 85.764C172.794 85.764 172.426 85.856 172.09 86.04C171.762 86.216 171.498 86.488 171.298 86.856C171.098 87.224 170.998 87.672 170.998 88.2C170.998 88.736 171.094 89.188 171.286 89.556C171.486 89.924 171.75 90.2 172.078 90.384C172.406 90.56 172.766 90.648 173.158 90.648ZM181.269 84.804C182.069 84.804 182.717 85.048 183.213 85.536C183.709 86.016 183.957 86.712 183.957 87.624V91.5H182.877V87.78C182.877 87.124 182.713 86.624 182.385 86.28C182.057 85.928 181.609 85.752 181.041 85.752C180.465 85.752 180.005 85.932 179.661 86.292C179.325 86.652 179.157 87.176 179.157 87.864V91.5H178.065V84.924H179.157V85.86C179.373 85.524 179.665 85.264 180.033 85.08C180.409 84.896 180.821 84.804 181.269 84.804ZM188.169 91.608C187.665 91.608 187.213 91.524 186.813 91.356C186.413 91.18 186.097 90.94 185.865 90.636C185.633 90.324 185.505 89.968 185.481 89.568H186.609C186.641 89.896 186.793 90.164 187.065 90.372C187.345 90.58 187.709 90.684 188.157 90.684C188.573 90.684 188.901 90.592 189.141 90.408C189.381 90.224 189.501 89.992 189.501 89.712C189.501 89.424 189.373 89.212 189.117 89.076C188.861 88.932 188.465 88.792 187.929 88.656C187.441 88.528 187.041 88.4 186.729 88.272C186.425 88.136 186.161 87.94 185.937 87.684C185.721 87.42 185.613 87.076 185.613 86.652C185.613 86.316 185.713 86.008 185.913 85.728C186.113 85.448 186.397 85.228 186.765 85.068C187.133 84.9 187.553 84.816 188.025 84.816C188.753 84.816 189.341 85 189.789 85.368C190.237 85.736 190.477 86.24 190.509 86.88H189.417C189.393 86.536 189.253 86.26 188.997 86.052C188.749 85.844 188.413 85.74 187.989 85.74C187.597 85.74 187.285 85.824 187.053 85.992C186.821 86.16 186.705 86.38 186.705 86.652C186.705 86.868 186.773 87.048 186.909 87.192C187.053 87.328 187.229 87.44 187.437 87.528C187.653 87.608 187.949 87.7 188.325 87.804C188.797 87.932 189.181 88.06 189.477 88.188C189.773 88.308 190.025 88.492 190.233 88.74C190.449 88.988 190.561 89.312 190.569 89.712C190.569 90.072 190.469 90.396 190.269 90.684C190.069 90.972 189.785 91.2 189.417 91.368C189.057 91.528 188.641 91.608 188.169 91.608Z" fill="#3A3541" fill-opacity="0.87"/>
<rect x="374.744" y="84.5" width="98.2556" height="5" fill="#E0E0E8" stroke="#F5F6FA"/>
<rect x="373.5" y="84" width="88.3375" height="6" fill="#F04343"/>
<path d="M495.828 86.488C495.38 86.312 495.036 86.056 494.796 85.72C494.556 85.384 494.436 84.976 494.436 84.496C494.436 84.064 494.544 83.676 494.76 83.332C494.976 82.98 495.296 82.704 495.72 82.504C496.152 82.296 496.672 82.192 497.28 82.192C497.888 82.192 498.404 82.296 498.828 82.504C499.26 82.704 499.584 82.98 499.8 83.332C500.024 83.676 500.136 84.064 500.136 84.496C500.136 84.96 500.012 85.368 499.764 85.72C499.516 86.064 499.176 86.32 498.744 86.488C499.24 86.64 499.632 86.908 499.92 87.292C500.216 87.668 500.364 88.124 500.364 88.66C500.364 89.18 500.236 89.636 499.98 90.028C499.724 90.412 499.36 90.712 498.888 90.928C498.424 91.136 497.888 91.24 497.28 91.24C496.672 91.24 496.136 91.136 495.672 90.928C495.216 90.712 494.86 90.412 494.604 90.028C494.348 89.636 494.22 89.18 494.22 88.66C494.22 88.124 494.364 87.664 494.652 87.28C494.94 86.896 495.332 86.632 495.828 86.488ZM499.08 84.628C499.08 84.14 498.92 83.764 498.6 83.5C498.28 83.236 497.84 83.104 497.28 83.104C496.728 83.104 496.292 83.236 495.972 83.5C495.652 83.764 495.492 84.144 495.492 84.64C495.492 85.088 495.656 85.448 495.984 85.72C496.32 85.992 496.752 86.128 497.28 86.128C497.816 86.128 498.248 85.992 498.576 85.72C498.912 85.44 499.08 85.076 499.08 84.628ZM497.28 86.968C496.688 86.968 496.204 87.108 495.828 87.388C495.452 87.66 495.264 88.072 495.264 88.624C495.264 89.136 495.444 89.548 495.804 89.86C496.172 90.172 496.664 90.328 497.28 90.328C497.896 90.328 498.384 90.172 498.744 89.86C499.104 89.548 499.284 89.136 499.284 88.624C499.284 88.088 499.1 87.68 498.732 87.4C498.364 87.112 497.88 86.968 497.28 86.968ZM505.816 91L503.236 88.096V91H502.144V82.12H503.236V87.34L505.768 84.424H507.292L504.196 87.7L507.304 91H505.816ZM516.967 82.636V83.524H514.687V91H513.595V83.524H511.303V82.636H516.967ZM521.33 91.108C520.714 91.108 520.154 90.968 519.65 90.688C519.154 90.408 518.762 90.012 518.474 89.5C518.194 88.98 518.054 88.38 518.054 87.7C518.054 87.028 518.198 86.436 518.486 85.924C518.782 85.404 519.182 85.008 519.686 84.736C520.19 84.456 520.754 84.316 521.378 84.316C522.002 84.316 522.566 84.456 523.07 84.736C523.574 85.008 523.97 85.4 524.258 85.912C524.554 86.424 524.702 87.02 524.702 87.7C524.702 88.38 524.55 88.98 524.246 89.5C523.95 90.012 523.546 90.408 523.034 90.688C522.522 90.968 521.954 91.108 521.33 91.108ZM521.33 90.148C521.722 90.148 522.09 90.056 522.434 89.872C522.778 89.688 523.054 89.412 523.262 89.044C523.478 88.676 523.586 88.228 523.586 87.7C523.586 87.172 523.482 86.724 523.274 86.356C523.066 85.988 522.794 85.716 522.458 85.54C522.122 85.356 521.758 85.264 521.366 85.264C520.966 85.264 520.598 85.356 520.262 85.54C519.934 85.716 519.67 85.988 519.47 86.356C519.27 86.724 519.17 87.172 519.17 87.7C519.17 88.236 519.266 88.688 519.458 89.056C519.658 89.424 519.922 89.7 520.25 89.884C520.578 90.06 520.938 90.148 521.33 90.148ZM529.959 91L527.379 88.096V91H526.287V82.12H527.379V87.34L529.911 84.424H531.435L528.339 87.7L531.447 91H529.959ZM538.613 87.46C538.613 87.668 538.601 87.888 538.577 88.12H533.321C533.361 88.768 533.581 89.276 533.981 89.644C534.389 90.004 534.881 90.184 535.457 90.184C535.929 90.184 536.321 90.076 536.633 89.86C536.953 89.636 537.177 89.34 537.305 88.972H538.481C538.305 89.604 537.953 90.12 537.425 90.52C536.897 90.912 536.241 91.108 535.457 91.108C534.833 91.108 534.273 90.968 533.777 90.688C533.289 90.408 532.905 90.012 532.625 89.5C532.345 88.98 532.205 88.38 532.205 87.7C532.205 87.02 532.341 86.424 532.613 85.912C532.885 85.4 533.265 85.008 533.753 84.736C534.249 84.456 534.817 84.316 535.457 84.316C536.081 84.316 536.633 84.452 537.113 84.724C537.593 84.996 537.961 85.372 538.217 85.852C538.481 86.324 538.613 86.86 538.613 87.46ZM537.485 87.232C537.485 86.816 537.393 86.46 537.209 86.164C537.025 85.86 536.773 85.632 536.453 85.48C536.141 85.32 535.793 85.24 535.409 85.24C534.857 85.24 534.385 85.416 533.993 85.768C533.609 86.12 533.389 86.608 533.333 87.232H537.485ZM543.408 84.304C544.208 84.304 544.856 84.548 545.352 85.036C545.848 85.516 546.096 86.212 546.096 87.124V91H545.016V87.28C545.016 86.624 544.852 86.124 544.524 85.78C544.196 85.428 543.748 85.252 543.18 85.252C542.604 85.252 542.144 85.432 541.8 85.792C541.464 86.152 541.296 86.676 541.296 87.364V91H540.204V84.424H541.296V85.36C541.512 85.024 541.804 84.764 542.172 84.58C542.548 84.396 542.96 84.304 543.408 84.304ZM550.358 91.108C549.854 91.108 549.402 91.024 549.002 90.856C548.602 90.68 548.286 90.44 548.054 90.136C547.822 89.824 547.694 89.468 547.67 89.068H548.798C548.83 89.396 548.982 89.664 549.254 89.872C549.534 90.08 549.898 90.184 550.346 90.184C550.762 90.184 551.09 90.092 551.33 89.908C551.57 89.724 551.69 89.492 551.69 89.212C551.69 88.924 551.562 88.712 551.306 88.576C551.05 88.432 550.654 88.292 550.118 88.156C549.63 88.028 549.23 87.9 548.918 87.772C548.614 87.636 548.35 87.44 548.126 87.184C547.91 86.92 547.802 86.576 547.802 86.152C547.802 85.816 547.902 85.508 548.102 85.228C548.302 84.948 548.586 84.728 548.954 84.568C549.322 84.4 549.742 84.316 550.214 84.316C550.942 84.316 551.53 84.5 551.978 84.868C552.426 85.236 552.666 85.74 552.698 86.38H551.606C551.582 86.036 551.442 85.76 551.186 85.552C550.938 85.344 550.602 85.24 550.178 85.24C549.786 85.24 549.474 85.324 549.242 85.492C549.01 85.66 548.894 85.88 548.894 86.152C548.894 86.368 548.962 86.548 549.098 86.692C549.242 86.828 549.418 86.94 549.626 87.028C549.842 87.108 550.138 87.2 550.514 87.304C550.986 87.432 551.37 87.56 551.666 87.688C551.962 87.808 552.214 87.992 552.422 88.24C552.638 88.488 552.75 88.812 552.758 89.212C552.758 89.572 552.658 89.896 552.458 90.184C552.258 90.472 551.974 90.7 551.606 90.868C551.246 91.028 550.83 91.108 550.358 91.108Z" fill="#3A3541" fill-opacity="0.68"/>
<path d="M0 56H626V54H0V56Z" fill="#3A3541" fill-opacity="0.12" mask="url(#path-8-outside-1_76_582)"/>
<rect x="21.5" y="135" width="34" height="34" rx="17" fill="#B3C6E5"/>
<path d="M74.868 148.136V156.5H73.776V152.708H69.516V156.5H68.424V148.136H69.516V151.808H73.776V148.136H74.868ZM81.2366 156.5L79.2446 153.08H77.9246V156.5H76.8326V148.136H79.5326C80.1646 148.136 80.6966 148.244 81.1286 148.46C81.5686 148.676 81.8966 148.968 82.1126 149.336C82.3286 149.704 82.4366 150.124 82.4366 150.596C82.4366 151.172 82.2686 151.68 81.9326 152.12C81.6046 152.56 81.1086 152.852 80.4446 152.996L82.5446 156.5H81.2366ZM77.9246 152.204H79.5326C80.1246 152.204 80.5686 152.06 80.8646 151.772C81.1606 151.476 81.3086 151.084 81.3086 150.596C81.3086 150.1 81.1606 149.716 80.8646 149.444C80.5766 149.172 80.1326 149.036 79.5326 149.036H77.9246V152.204Z" fill="#3A3541" fill-opacity="0.87"/>
<rect x="374.498" y="149.5" width="98.5025" height="5" fill="#E0E0E8" stroke="#F5F6FA"/>
<rect x="373.5" y="149" width="19.9005" height="6" fill="#5BCD97"/>
<path d="M493.956 148.32V147.324H496.212V156H495.108V148.32H493.956ZM502.09 156L499.51 153.096V156H498.418V147.12H499.51V152.34L502.042 149.424H503.566L500.47 152.7L503.578 156H502.09ZM513.241 147.636V148.524H510.961V156H509.869V148.524H507.577V147.636H513.241ZM517.603 156.108C516.987 156.108 516.427 155.968 515.923 155.688C515.427 155.408 515.035 155.012 514.747 154.5C514.467 153.98 514.327 153.38 514.327 152.7C514.327 152.028 514.471 151.436 514.759 150.924C515.055 150.404 515.455 150.008 515.959 149.736C516.463 149.456 517.027 149.316 517.651 149.316C518.275 149.316 518.839 149.456 519.343 149.736C519.847 150.008 520.243 150.4 520.531 150.912C520.827 151.424 520.975 152.02 520.975 152.7C520.975 153.38 520.823 153.98 520.519 154.5C520.223 155.012 519.819 155.408 519.307 155.688C518.795 155.968 518.227 156.108 517.603 156.108ZM517.603 155.148C517.995 155.148 518.363 155.056 518.707 154.872C519.051 154.688 519.327 154.412 519.535 154.044C519.751 153.676 519.859 153.228 519.859 152.7C519.859 152.172 519.755 151.724 519.547 151.356C519.339 150.988 519.067 150.716 518.731 150.54C518.395 150.356 518.031 150.264 517.639 150.264C517.239 150.264 516.871 150.356 516.535 150.54C516.207 150.716 515.943 150.988 515.743 151.356C515.543 151.724 515.443 152.172 515.443 152.7C515.443 153.236 515.539 153.688 515.731 154.056C515.931 154.424 516.195 154.7 516.523 154.884C516.851 155.06 517.211 155.148 517.603 155.148ZM526.233 156L523.653 153.096V156H522.561V147.12H523.653V152.34L526.185 149.424H527.709L524.613 152.7L527.721 156H526.233ZM534.887 152.46C534.887 152.668 534.875 152.888 534.851 153.12H529.595C529.635 153.768 529.855 154.276 530.255 154.644C530.663 155.004 531.155 155.184 531.731 155.184C532.203 155.184 532.595 155.076 532.907 154.86C533.227 154.636 533.451 154.34 533.579 153.972H534.755C534.579 154.604 534.227 155.12 533.699 155.52C533.171 155.912 532.515 156.108 531.731 156.108C531.107 156.108 530.547 155.968 530.051 155.688C529.563 155.408 529.179 155.012 528.899 154.5C528.619 153.98 528.479 153.38 528.479 152.7C528.479 152.02 528.615 151.424 528.887 150.912C529.159 150.4 529.539 150.008 530.027 149.736C530.523 149.456 531.091 149.316 531.731 149.316C532.355 149.316 532.907 149.452 533.387 149.724C533.867 149.996 534.235 150.372 534.491 150.852C534.755 151.324 534.887 151.86 534.887 152.46ZM533.759 152.232C533.759 151.816 533.667 151.46 533.483 151.164C533.299 150.86 533.047 150.632 532.727 150.48C532.415 150.32 532.067 150.24 531.683 150.24C531.131 150.24 530.659 150.416 530.267 150.768C529.883 151.12 529.663 151.608 529.607 152.232H533.759ZM539.682 149.304C540.482 149.304 541.13 149.548 541.626 150.036C542.122 150.516 542.37 151.212 542.37 152.124V156H541.29V152.28C541.29 151.624 541.126 151.124 540.798 150.78C540.47 150.428 540.022 150.252 539.454 150.252C538.878 150.252 538.418 150.432 538.074 150.792C537.738 151.152 537.57 151.676 537.57 152.364V156H536.478V149.424H537.57V150.36C537.786 150.024 538.078 149.764 538.446 149.58C538.822 149.396 539.234 149.304 539.682 149.304ZM546.632 156.108C546.128 156.108 545.676 156.024 545.276 155.856C544.876 155.68 544.56 155.44 544.328 155.136C544.096 154.824 543.968 154.468 543.944 154.068H545.072C545.104 154.396 545.256 154.664 545.528 154.872C545.808 155.08 546.172 155.184 546.62 155.184C547.036 155.184 547.364 155.092 547.604 154.908C547.844 154.724 547.964 154.492 547.964 154.212C547.964 153.924 547.836 153.712 547.58 153.576C547.324 153.432 546.928 153.292 546.392 153.156C545.904 153.028 545.504 152.9 545.192 152.772C544.888 152.636 544.624 152.44 544.4 152.184C544.184 151.92 544.076 151.576 544.076 151.152C544.076 150.816 544.176 150.508 544.376 150.228C544.576 149.948 544.86 149.728 545.228 149.568C545.596 149.4 546.016 149.316 546.488 149.316C547.216 149.316 547.804 149.5 548.252 149.868C548.7 150.236 548.94 150.74 548.972 151.38H547.88C547.856 151.036 547.716 150.76 547.46 150.552C547.212 150.344 546.876 150.24 546.452 150.24C546.06 150.24 545.748 150.324 545.516 150.492C545.284 150.66 545.168 150.88 545.168 151.152C545.168 151.368 545.236 151.548 545.372 151.692C545.516 151.828 545.692 151.94 545.9 152.028C546.116 152.108 546.412 152.2 546.788 152.304C547.26 152.432 547.644 152.56 547.94 152.688C548.236 152.808 548.488 152.992 548.696 153.24C548.912 153.488 549.024 153.812 549.032 154.212C549.032 154.572 548.932 154.896 548.732 155.184C548.532 155.472 548.248 155.7 547.88 155.868C547.52 156.028 547.104 156.108 546.632 156.108Z" fill="#3A3541" fill-opacity="0.68"/>
<path d="M0 121H626V119H0V121Z" fill="#3A3541" fill-opacity="0.12" mask="url(#path-15-outside-2_76_582)"/>
<rect x="21.5" y="200" width="34" height="34" rx="17" fill="#FFBB78"/>
<path d="M73.368 219.64H69.72L69.048 221.5H67.896L70.92 213.184H72.18L75.192 221.5H74.04L73.368 219.64ZM73.056 218.752L71.544 214.528L70.032 218.752H73.056ZM76.2019 218.2C76.2019 217.52 76.3379 216.928 76.6099 216.424C76.8819 215.912 77.2579 215.516 77.7379 215.236C78.2259 214.956 78.7819 214.816 79.4059 214.816C80.2139 214.816 80.8779 215.012 81.3979 215.404C81.9259 215.796 82.2739 216.34 82.4419 217.036H81.2659C81.1539 216.636 80.9339 216.32 80.6059 216.088C80.2859 215.856 79.8859 215.74 79.4059 215.74C78.7819 215.74 78.2779 215.956 77.8939 216.388C77.5099 216.812 77.3179 217.416 77.3179 218.2C77.3179 218.992 77.5099 219.604 77.8939 220.036C78.2779 220.468 78.7819 220.684 79.4059 220.684C79.8859 220.684 80.2859 220.572 80.6059 220.348C80.9259 220.124 81.1459 219.804 81.2659 219.388H82.4419C82.2659 220.06 81.9139 220.6 81.3859 221.008C80.8579 221.408 80.1979 221.608 79.4059 221.608C78.7819 221.608 78.2259 221.468 77.7379 221.188C77.2579 220.908 76.8819 220.512 76.6099 220C76.3379 219.488 76.2019 218.888 76.2019 218.2ZM83.591 218.2C83.591 217.52 83.727 216.928 83.999 216.424C84.271 215.912 84.647 215.516 85.127 215.236C85.615 214.956 86.171 214.816 86.795 214.816C87.603 214.816 88.267 215.012 88.787 215.404C89.315 215.796 89.663 216.34 89.831 217.036H88.655C88.543 216.636 88.323 216.32 87.995 216.088C87.675 215.856 87.275 215.74 86.795 215.74C86.171 215.74 85.667 215.956 85.283 216.388C84.899 216.812 84.707 217.416 84.707 218.2C84.707 218.992 84.899 219.604 85.283 220.036C85.667 220.468 86.171 220.684 86.795 220.684C87.275 220.684 87.675 220.572 87.995 220.348C88.315 220.124 88.535 219.804 88.655 219.388H89.831C89.655 220.06 89.303 220.6 88.775 221.008C88.247 221.408 87.587 221.608 86.795 221.608C86.171 221.608 85.615 221.468 85.127 221.188C84.647 220.908 84.271 220.512 83.999 220C83.727 219.488 83.591 218.888 83.591 218.2ZM94.2561 221.608C93.6401 221.608 93.0801 221.468 92.5761 221.188C92.0801 220.908 91.6881 220.512 91.4001 220C91.1201 219.48 90.9801 218.88 90.9801 218.2C90.9801 217.528 91.1241 216.936 91.4121 216.424C91.7081 215.904 92.1081 215.508 92.6121 215.236C93.1161 214.956 93.6801 214.816 94.3041 214.816C94.9281 214.816 95.4921 214.956 95.9961 215.236C96.5001 215.508 96.8961 215.9 97.1841 216.412C97.4801 216.924 97.6281 217.52 97.6281 218.2C97.6281 218.88 97.4761 219.48 97.1721 220C96.8761 220.512 96.4721 220.908 95.9601 221.188C95.4481 221.468 94.8801 221.608 94.2561 221.608ZM94.2561 220.648C94.6481 220.648 95.0161 220.556 95.3601 220.372C95.7041 220.188 95.9801 219.912 96.1881 219.544C96.4041 219.176 96.5121 218.728 96.5121 218.2C96.5121 217.672 96.4081 217.224 96.2001 216.856C95.9921 216.488 95.7201 216.216 95.3841 216.04C95.0481 215.856 94.6841 215.764 94.2921 215.764C93.8921 215.764 93.5241 215.856 93.1881 216.04C92.8601 216.216 92.5961 216.488 92.3961 216.856C92.1961 217.224 92.0961 217.672 92.0961 218.2C92.0961 218.736 92.1921 219.188 92.3841 219.556C92.5841 219.924 92.8481 220.2 93.1761 220.384C93.5041 220.56 93.8641 220.648 94.2561 220.648ZM104.996 214.924V221.5H103.904V220.528C103.696 220.864 103.404 221.128 103.028 221.32C102.66 221.504 102.252 221.596 101.804 221.596C101.292 221.596 100.832 221.492 100.424 221.284C100.016 221.068 99.6918 220.748 99.4518 220.324C99.2198 219.9 99.1038 219.384 99.1038 218.776V214.924H100.184V218.632C100.184 219.28 100.348 219.78 100.676 220.132C101.004 220.476 101.452 220.648 102.02 220.648C102.604 220.648 103.064 220.468 103.4 220.108C103.736 219.748 103.904 219.224 103.904 218.536V214.924H104.996ZM110.144 214.804C110.944 214.804 111.592 215.048 112.088 215.536C112.584 216.016 112.832 216.712 112.832 217.624V221.5H111.752V217.78C111.752 217.124 111.588 216.624 111.26 216.28C110.932 215.928 110.484 215.752 109.916 215.752C109.34 215.752 108.88 215.932 108.536 216.292C108.2 216.652 108.032 217.176 108.032 217.864V221.5H106.94V214.924H108.032V215.86C108.248 215.524 108.54 215.264 108.908 215.08C109.284 214.896 109.696 214.804 110.144 214.804ZM116.047 215.824V219.7C116.047 220.02 116.115 220.248 116.251 220.384C116.387 220.512 116.623 220.576 116.959 220.576H117.763V221.5H116.779C116.171 221.5 115.715 221.36 115.411 221.08C115.107 220.8 114.955 220.34 114.955 219.7V215.824H114.103V214.924H114.955V213.268H116.047V214.924H117.763V215.824H116.047ZM119.751 213.856C119.543 213.856 119.367 213.784 119.223 213.64C119.079 213.496 119.007 213.32 119.007 213.112C119.007 212.904 119.079 212.728 119.223 212.584C119.367 212.44 119.543 212.368 119.751 212.368C119.951 212.368 120.119 212.44 120.255 212.584C120.399 212.728 120.471 212.904 120.471 213.112C120.471 213.32 120.399 213.496 120.255 213.64C120.119 213.784 119.951 213.856 119.751 213.856ZM120.279 214.924V221.5H119.187V214.924H120.279ZM125.444 214.804C126.244 214.804 126.892 215.048 127.388 215.536C127.884 216.016 128.132 216.712 128.132 217.624V221.5H127.052V217.78C127.052 217.124 126.888 216.624 126.56 216.28C126.232 215.928 125.784 215.752 125.216 215.752C124.64 215.752 124.18 215.932 123.836 216.292C123.5 216.652 123.332 217.176 123.332 217.864V221.5H122.24V214.924H123.332V215.86C123.548 215.524 123.84 215.264 124.208 215.08C124.584 214.896 124.996 214.804 125.444 214.804ZM132.727 214.816C133.295 214.816 133.791 214.94 134.215 215.188C134.647 215.436 134.967 215.748 135.175 216.124V214.924H136.279V221.644C136.279 222.244 136.151 222.776 135.895 223.24C135.639 223.712 135.271 224.08 134.791 224.344C134.319 224.608 133.767 224.74 133.135 224.74C132.271 224.74 131.551 224.536 130.975 224.128C130.399 223.72 130.059 223.164 129.955 222.46H131.035C131.155 222.86 131.403 223.18 131.779 223.42C132.155 223.668 132.607 223.792 133.135 223.792C133.735 223.792 134.223 223.604 134.599 223.228C134.983 222.852 135.175 222.324 135.175 221.644V220.264C134.959 220.648 134.639 220.968 134.215 221.224C133.791 221.48 133.295 221.608 132.727 221.608C132.143 221.608 131.611 221.464 131.131 221.176C130.659 220.888 130.287 220.484 130.015 219.964C129.743 219.444 129.607 218.852 129.607 218.188C129.607 217.516 129.743 216.928 130.015 216.424C130.287 215.912 130.659 215.516 131.131 215.236C131.611 214.956 132.143 214.816 132.727 214.816ZM135.175 218.2C135.175 217.704 135.075 217.272 134.875 216.904C134.675 216.536 134.403 216.256 134.059 216.064C133.723 215.864 133.351 215.764 132.943 215.764C132.535 215.764 132.163 215.86 131.827 216.052C131.491 216.244 131.223 216.524 131.023 216.892C130.823 217.26 130.723 217.692 130.723 218.188C130.723 218.692 130.823 219.132 131.023 219.508C131.223 219.876 131.491 220.16 131.827 220.36C132.163 220.552 132.535 220.648 132.943 220.648C133.351 220.648 133.723 220.552 134.059 220.36C134.403 220.16 134.675 219.876 134.875 219.508C135.075 219.132 135.175 218.696 135.175 218.2Z" fill="#3A3541" fill-opacity="0.87"/>
<rect x="374.929" y="214.5" width="98.0712" height="5" fill="#E0E0E8" stroke="#F5F6FA"/>
<path d="M373.5 214H439.878V220H373.5V214Z" fill="#FFCD93"/>
<path d="M499.776 213.272H495.564V216.008C495.748 215.752 496.02 215.544 496.38 215.384C496.74 215.216 497.128 215.132 497.544 215.132C498.208 215.132 498.748 215.272 499.164 215.552C499.58 215.824 499.876 216.18 500.052 216.62C500.236 217.052 500.328 217.512 500.328 218C500.328 218.576 500.22 219.092 500.004 219.548C499.788 220.004 499.456 220.364 499.008 220.628C498.568 220.892 498.02 221.024 497.364 221.024C496.524 221.024 495.844 220.808 495.324 220.376C494.804 219.944 494.488 219.368 494.376 218.648H495.444C495.548 219.104 495.768 219.46 496.104 219.716C496.44 219.972 496.864 220.1 497.376 220.1C498.008 220.1 498.484 219.912 498.804 219.536C499.124 219.152 499.284 218.648 499.284 218.024C499.284 217.4 499.124 216.92 498.804 216.584C498.484 216.24 498.012 216.068 497.388 216.068C496.964 216.068 496.592 216.172 496.272 216.38C495.96 216.58 495.732 216.856 495.588 217.208H494.556V212.312H499.776V213.272ZM505.781 221L503.201 218.096V221H502.109V212.12H503.201V217.34L505.733 214.424H507.257L504.161 217.7L507.269 221H505.781ZM516.932 212.636V213.524H514.652V221H513.56V213.524H511.268V212.636H516.932ZM521.294 221.108C520.678 221.108 520.118 220.968 519.614 220.688C519.118 220.408 518.726 220.012 518.438 219.5C518.158 218.98 518.018 218.38 518.018 217.7C518.018 217.028 518.162 216.436 518.45 215.924C518.746 215.404 519.146 215.008 519.65 214.736C520.154 214.456 520.718 214.316 521.342 214.316C521.966 214.316 522.53 214.456 523.034 214.736C523.538 215.008 523.934 215.4 524.222 215.912C524.518 216.424 524.666 217.02 524.666 217.7C524.666 218.38 524.514 218.98 524.21 219.5C523.914 220.012 523.51 220.408 522.998 220.688C522.486 220.968 521.918 221.108 521.294 221.108ZM521.294 220.148C521.686 220.148 522.054 220.056 522.398 219.872C522.742 219.688 523.018 219.412 523.226 219.044C523.442 218.676 523.55 218.228 523.55 217.7C523.55 217.172 523.446 216.724 523.238 216.356C523.03 215.988 522.758 215.716 522.422 215.54C522.086 215.356 521.722 215.264 521.33 215.264C520.93 215.264 520.562 215.356 520.226 215.54C519.898 215.716 519.634 215.988 519.434 216.356C519.234 216.724 519.134 217.172 519.134 217.7C519.134 218.236 519.23 218.688 519.422 219.056C519.622 219.424 519.886 219.7 520.214 219.884C520.542 220.06 520.902 220.148 521.294 220.148ZM529.924 221L527.344 218.096V221H526.252V212.12H527.344V217.34L529.876 214.424H531.4L528.304 217.7L531.412 221H529.924ZM538.578 217.46C538.578 217.668 538.566 217.888 538.542 218.12H533.286C533.326 218.768 533.546 219.276 533.946 219.644C534.354 220.004 534.846 220.184 535.422 220.184C535.894 220.184 536.286 220.076 536.598 219.86C536.918 219.636 537.142 219.34 537.27 218.972H538.446C538.27 219.604 537.918 220.12 537.39 220.52C536.862 220.912 536.206 221.108 535.422 221.108C534.798 221.108 534.238 220.968 533.742 220.688C533.254 220.408 532.87 220.012 532.59 219.5C532.31 218.98 532.17 218.38 532.17 217.7C532.17 217.02 532.306 216.424 532.578 215.912C532.85 215.4 533.23 215.008 533.718 214.736C534.214 214.456 534.782 214.316 535.422 214.316C536.046 214.316 536.598 214.452 537.078 214.724C537.558 214.996 537.926 215.372 538.182 215.852C538.446 216.324 538.578 216.86 538.578 217.46ZM537.45 217.232C537.45 216.816 537.358 216.46 537.174 216.164C536.99 215.86 536.738 215.632 536.418 215.48C536.106 215.32 535.758 215.24 535.374 215.24C534.822 215.24 534.35 215.416 533.958 215.768C533.574 216.12 533.354 216.608 533.298 217.232H537.45ZM543.373 214.304C544.173 214.304 544.821 214.548 545.317 215.036C545.813 215.516 546.061 216.212 546.061 217.124V221H544.981V217.28C544.981 216.624 544.817 216.124 544.489 215.78C544.161 215.428 543.713 215.252 543.145 215.252C542.569 215.252 542.109 215.432 541.765 215.792C541.429 216.152 541.261 216.676 541.261 217.364V221H540.169V214.424H541.261V215.36C541.477 215.024 541.769 214.764 542.137 214.58C542.513 214.396 542.925 214.304 543.373 214.304ZM550.323 221.108C549.819 221.108 549.367 221.024 548.967 220.856C548.567 220.68 548.251 220.44 548.019 220.136C547.787 219.824 547.659 219.468 547.635 219.068H548.763C548.795 219.396 548.947 219.664 549.219 219.872C549.499 220.08 549.863 220.184 550.311 220.184C550.727 220.184 551.055 220.092 551.295 219.908C551.535 219.724 551.655 219.492 551.655 219.212C551.655 218.924 551.527 218.712 551.271 218.576C551.015 218.432 550.619 218.292 550.083 218.156C549.595 218.028 549.195 217.9 548.883 217.772C548.579 217.636 548.315 217.44 548.091 217.184C547.875 216.92 547.767 216.576 547.767 216.152C547.767 215.816 547.867 215.508 548.067 215.228C548.267 214.948 548.551 214.728 548.919 214.568C549.287 214.4 549.707 214.316 550.179 214.316C550.907 214.316 551.495 214.5 551.943 214.868C552.391 215.236 552.631 215.74 552.663 216.38H551.571C551.547 216.036 551.407 215.76 551.151 215.552C550.903 215.344 550.567 215.24 550.143 215.24C549.751 215.24 549.439 215.324 549.207 215.492C548.975 215.66 548.859 215.88 548.859 216.152C548.859 216.368 548.927 216.548 549.063 216.692C549.207 216.828 549.383 216.94 549.591 217.028C549.807 217.108 550.103 217.2 550.479 217.304C550.951 217.432 551.335 217.56 551.631 217.688C551.927 217.808 552.179 217.992 552.387 218.24C552.603 218.488 552.715 218.812 552.723 219.212C552.723 219.572 552.623 219.896 552.423 220.184C552.223 220.472 551.939 220.7 551.571 220.868C551.211 221.028 550.795 221.108 550.323 221.108Z" fill="#3A3541" fill-opacity="0.68"/>
<path d="M0 186H626V184H0V186Z" fill="#3A3541" fill-opacity="0.12" mask="url(#path-22-outside-3_76_582)"/>
<rect x="21.5" y="265" width="34" height="34" rx="17" fill="#62C0BB"/>
<path d="M69.516 278.136V286.5H68.424V278.136H69.516ZM76.6251 278.136V279.024H74.3451V286.5H73.2531V279.024H70.9611V278.136H76.6251Z" fill="#3A3541" fill-opacity="0.87"/>
<rect x="374.929" y="279.5" width="98.0712" height="5" fill="#E0E0E8" stroke="#F5F6FA"/>
<rect x="373.5" y="279" width="50" height="6" fill="#FFCD93"/>
<path d="M493.98 284.068V283.24L498.192 277.408H499.5V283.12H500.7V284.068H499.5V286H498.42V284.068H493.98ZM498.468 278.548L495.24 283.12H498.468V278.548ZM505.793 286L503.213 283.096V286H502.121V277.12H503.213V282.34L505.745 279.424H507.269L504.173 282.7L507.281 286H505.793ZM516.944 277.636V278.524H514.664V286H513.572V278.524H511.28V277.636H516.944ZM521.306 286.108C520.69 286.108 520.13 285.968 519.626 285.688C519.13 285.408 518.738 285.012 518.45 284.5C518.17 283.98 518.03 283.38 518.03 282.7C518.03 282.028 518.174 281.436 518.462 280.924C518.758 280.404 519.158 280.008 519.662 279.736C520.166 279.456 520.73 279.316 521.354 279.316C521.978 279.316 522.542 279.456 523.046 279.736C523.55 280.008 523.946 280.4 524.234 280.912C524.53 281.424 524.678 282.02 524.678 282.7C524.678 283.38 524.526 283.98 524.222 284.5C523.926 285.012 523.522 285.408 523.01 285.688C522.498 285.968 521.93 286.108 521.306 286.108ZM521.306 285.148C521.698 285.148 522.066 285.056 522.41 284.872C522.754 284.688 523.03 284.412 523.238 284.044C523.454 283.676 523.562 283.228 523.562 282.7C523.562 282.172 523.458 281.724 523.25 281.356C523.042 280.988 522.77 280.716 522.434 280.54C522.098 280.356 521.734 280.264 521.342 280.264C520.942 280.264 520.574 280.356 520.238 280.54C519.91 280.716 519.646 280.988 519.446 281.356C519.246 281.724 519.146 282.172 519.146 282.7C519.146 283.236 519.242 283.688 519.434 284.056C519.634 284.424 519.898 284.7 520.226 284.884C520.554 285.06 520.914 285.148 521.306 285.148ZM529.936 286L527.356 283.096V286H526.264V277.12H527.356V282.34L529.888 279.424H531.412L528.316 282.7L531.424 286H529.936ZM538.59 282.46C538.59 282.668 538.578 282.888 538.554 283.12H533.298C533.338 283.768 533.558 284.276 533.958 284.644C534.366 285.004 534.858 285.184 535.434 285.184C535.906 285.184 536.298 285.076 536.61 284.86C536.93 284.636 537.154 284.34 537.282 283.972H538.458C538.282 284.604 537.93 285.12 537.402 285.52C536.874 285.912 536.218 286.108 535.434 286.108C534.81 286.108 534.25 285.968 533.754 285.688C533.266 285.408 532.882 285.012 532.602 284.5C532.322 283.98 532.182 283.38 532.182 282.7C532.182 282.02 532.318 281.424 532.59 280.912C532.862 280.4 533.242 280.008 533.73 279.736C534.226 279.456 534.794 279.316 535.434 279.316C536.058 279.316 536.61 279.452 537.09 279.724C537.57 279.996 537.938 280.372 538.194 280.852C538.458 281.324 538.59 281.86 538.59 282.46ZM537.462 282.232C537.462 281.816 537.37 281.46 537.186 281.164C537.002 280.86 536.75 280.632 536.43 280.48C536.118 280.32 535.77 280.24 535.386 280.24C534.834 280.24 534.362 280.416 533.97 280.768C533.586 281.12 533.366 281.608 533.31 282.232H537.462ZM543.385 279.304C544.185 279.304 544.833 279.548 545.329 280.036C545.825 280.516 546.073 281.212 546.073 282.124V286H544.993V282.28C544.993 281.624 544.829 281.124 544.501 280.78C544.173 280.428 543.725 280.252 543.157 280.252C542.581 280.252 542.121 280.432 541.777 280.792C541.441 281.152 541.273 281.676 541.273 282.364V286H540.181V279.424H541.273V280.36C541.489 280.024 541.781 279.764 542.149 279.58C542.525 279.396 542.937 279.304 543.385 279.304ZM550.335 286.108C549.831 286.108 549.379 286.024 548.979 285.856C548.579 285.68 548.263 285.44 548.031 285.136C547.799 284.824 547.671 284.468 547.647 284.068H548.775C548.807 284.396 548.959 284.664 549.231 284.872C549.511 285.08 549.875 285.184 550.323 285.184C550.739 285.184 551.067 285.092 551.307 284.908C551.547 284.724 551.667 284.492 551.667 284.212C551.667 283.924 551.539 283.712 551.283 283.576C551.027 283.432 550.631 283.292 550.095 283.156C549.607 283.028 549.207 282.9 548.895 282.772C548.591 282.636 548.327 282.44 548.103 282.184C547.887 281.92 547.779 281.576 547.779 281.152C547.779 280.816 547.879 280.508 548.079 280.228C548.279 279.948 548.563 279.728 548.931 279.568C549.299 279.4 549.719 279.316 550.191 279.316C550.919 279.316 551.507 279.5 551.955 279.868C552.403 280.236 552.643 280.74 552.675 281.38H551.583C551.559 281.036 551.419 280.76 551.163 280.552C550.915 280.344 550.579 280.24 550.155 280.24C549.763 280.24 549.451 280.324 549.219 280.492C548.987 280.66 548.871 280.88 548.871 281.152C548.871 281.368 548.939 281.548 549.075 281.692C549.219 281.828 549.395 281.94 549.603 282.028C549.819 282.108 550.115 282.2 550.491 282.304C550.963 282.432 551.347 282.56 551.643 282.688C551.939 282.808 552.191 282.992 552.399 283.24C552.615 283.488 552.727 283.812 552.735 284.212C552.735 284.572 552.635 284.896 552.435 285.184C552.235 285.472 551.951 285.7 551.583 285.868C551.223 286.028 550.807 286.108 550.335 286.108Z" fill="#3A3541" fill-opacity="0.68"/>
<path d="M0 251H626V249H0V251Z" fill="#3A3541" fill-opacity="0.12" mask="url(#path-29-outside-4_76_582)"/>
<rect x="21.5" y="330" width="34" height="34" rx="17" fill="#F0CECE"/>
<path d="M76.908 343.196V351.5H75.816V345.308L73.056 351.5H72.288L69.516 345.296V351.5H68.424V343.196H69.6L72.672 350.06L75.744 343.196H76.908ZM78.4519 348.188C78.4519 347.516 78.5879 346.928 78.8599 346.424C79.1319 345.912 79.5039 345.516 79.9759 345.236C80.4559 344.956 80.9879 344.816 81.5719 344.816C82.1479 344.816 82.6479 344.94 83.0719 345.188C83.4959 345.436 83.8119 345.748 84.0199 346.124V344.924H85.1239V351.5H84.0199V350.276C83.8039 350.66 83.4799 350.98 83.0479 351.236C82.6239 351.484 82.1279 351.608 81.5599 351.608C80.9759 351.608 80.4479 351.464 79.9759 351.176C79.5039 350.888 79.1319 350.484 78.8599 349.964C78.5879 349.444 78.4519 348.852 78.4519 348.188ZM84.0199 348.2C84.0199 347.704 83.9199 347.272 83.7199 346.904C83.5199 346.536 83.2479 346.256 82.9039 346.064C82.5679 345.864 82.1959 345.764 81.7879 345.764C81.3799 345.764 81.0079 345.86 80.6719 346.052C80.3359 346.244 80.0679 346.524 79.8679 346.892C79.6679 347.26 79.5679 347.692 79.5679 348.188C79.5679 348.692 79.6679 349.132 79.8679 349.508C80.0679 349.876 80.3359 350.16 80.6719 350.36C81.0079 350.552 81.3799 350.648 81.7879 350.648C82.1959 350.648 82.5679 350.552 82.9039 350.36C83.2479 350.16 83.5199 349.876 83.7199 349.508C83.9199 349.132 84.0199 348.696 84.0199 348.2ZM88.1613 345.992C88.3533 345.616 88.6253 345.324 88.9773 345.116C89.3373 344.908 89.7733 344.804 90.2853 344.804V345.932H89.9973C88.7733 345.932 88.1613 346.596 88.1613 347.924V351.5H87.0693V344.924H88.1613V345.992ZM95.3179 351.5L92.7379 348.596V351.5H91.6459V342.62H92.7379V347.84L95.2699 344.924H96.7939L93.6979 348.2L96.8059 351.5H95.3179ZM103.922 347.96C103.922 348.168 103.91 348.388 103.886 348.62H98.6297C98.6697 349.268 98.8897 349.776 99.2897 350.144C99.6977 350.504 100.19 350.684 100.766 350.684C101.238 350.684 101.63 350.576 101.942 350.36C102.262 350.136 102.486 349.84 102.614 349.472H103.79C103.614 350.104 103.262 350.62 102.734 351.02C102.206 351.412 101.55 351.608 100.766 351.608C100.142 351.608 99.5817 351.468 99.0857 351.188C98.5977 350.908 98.2137 350.512 97.9337 350C97.6537 349.48 97.5137 348.88 97.5137 348.2C97.5137 347.52 97.6497 346.924 97.9217 346.412C98.1937 345.9 98.5737 345.508 99.0617 345.236C99.5577 344.956 100.126 344.816 100.766 344.816C101.39 344.816 101.942 344.952 102.422 345.224C102.902 345.496 103.27 345.872 103.526 346.352C103.79 346.824 103.922 347.36 103.922 347.96ZM102.794 347.732C102.794 347.316 102.702 346.96 102.518 346.664C102.334 346.36 102.082 346.132 101.762 345.98C101.45 345.82 101.102 345.74 100.718 345.74C100.166 345.74 99.6937 345.916 99.3017 346.268C98.9177 346.62 98.6977 347.108 98.6417 347.732H102.794ZM106.795 345.824V349.7C106.795 350.02 106.863 350.248 106.999 350.384C107.135 350.512 107.371 350.576 107.707 350.576H108.511V351.5H107.527C106.919 351.5 106.463 351.36 106.159 351.08C105.855 350.8 105.703 350.34 105.703 349.7V345.824H104.851V344.924H105.703V343.268H106.795V344.924H108.511V345.824H106.795ZM110.498 343.856C110.29 343.856 110.114 343.784 109.97 343.64C109.826 343.496 109.754 343.32 109.754 343.112C109.754 342.904 109.826 342.728 109.97 342.584C110.114 342.44 110.29 342.368 110.498 342.368C110.698 342.368 110.866 342.44 111.002 342.584C111.146 342.728 111.218 342.904 111.218 343.112C111.218 343.32 111.146 343.496 111.002 343.64C110.866 343.784 110.698 343.856 110.498 343.856ZM111.026 344.924V351.5H109.934V344.924H111.026ZM116.191 344.804C116.991 344.804 117.639 345.048 118.135 345.536C118.631 346.016 118.879 346.712 118.879 347.624V351.5H117.799V347.78C117.799 347.124 117.635 346.624 117.307 346.28C116.979 345.928 116.531 345.752 115.963 345.752C115.387 345.752 114.927 345.932 114.583 346.292C114.247 346.652 114.079 347.176 114.079 347.864V351.5H112.987V344.924H114.079V345.86C114.295 345.524 114.587 345.264 114.955 345.08C115.331 344.896 115.743 344.804 116.191 344.804ZM123.475 344.816C124.043 344.816 124.539 344.94 124.963 345.188C125.395 345.436 125.715 345.748 125.923 346.124V344.924H127.027V351.644C127.027 352.244 126.899 352.776 126.643 353.24C126.387 353.712 126.019 354.08 125.539 354.344C125.067 354.608 124.515 354.74 123.883 354.74C123.019 354.74 122.299 354.536 121.723 354.128C121.147 353.72 120.807 353.164 120.703 352.46H121.783C121.903 352.86 122.151 353.18 122.527 353.42C122.903 353.668 123.355 353.792 123.883 353.792C124.483 353.792 124.971 353.604 125.347 353.228C125.731 352.852 125.923 352.324 125.923 351.644V350.264C125.707 350.648 125.387 350.968 124.963 351.224C124.539 351.48 124.043 351.608 123.475 351.608C122.891 351.608 122.359 351.464 121.879 351.176C121.407 350.888 121.035 350.484 120.763 349.964C120.491 349.444 120.355 348.852 120.355 348.188C120.355 347.516 120.491 346.928 120.763 346.424C121.035 345.912 121.407 345.516 121.879 345.236C122.359 344.956 122.891 344.816 123.475 344.816ZM125.923 348.2C125.923 347.704 125.823 347.272 125.623 346.904C125.423 346.536 125.151 346.256 124.807 346.064C124.471 345.864 124.099 345.764 123.691 345.764C123.283 345.764 122.911 345.86 122.575 346.052C122.239 346.244 121.971 346.524 121.771 346.892C121.571 347.26 121.471 347.692 121.471 348.188C121.471 348.692 121.571 349.132 121.771 349.508C121.971 349.876 122.239 350.16 122.575 350.36C122.911 350.552 123.283 350.648 123.691 350.648C124.099 350.648 124.471 350.552 124.807 350.36C125.151 350.16 125.423 349.876 125.623 349.508C125.823 349.132 125.923 348.696 125.923 348.2Z" fill="#3A3541" fill-opacity="0.87"/>
<rect x="375.744" y="344.5" width="98.2556" height="5" fill="#E0E0E8" stroke="#F5F6FA"/>
<rect x="374.5" y="344" width="29" height="6" fill="#5BCD97"/>
<path d="M495.112 350.124C496.128 349.308 496.924 348.64 497.5 348.12C498.076 347.592 498.56 347.044 498.952 346.476C499.352 345.9 499.552 345.336 499.552 344.784C499.552 344.264 499.424 343.856 499.168 343.56C498.92 343.256 498.516 343.104 497.956 343.104C497.412 343.104 496.988 343.276 496.684 343.62C496.388 343.956 496.228 344.408 496.204 344.976H495.148C495.18 344.08 495.452 343.388 495.964 342.9C496.476 342.412 497.136 342.168 497.944 342.168C498.768 342.168 499.42 342.396 499.9 342.852C500.388 343.308 500.632 343.936 500.632 344.736C500.632 345.4 500.432 346.048 500.032 346.68C499.64 347.304 499.192 347.856 498.688 348.336C498.184 348.808 497.54 349.36 496.756 349.992H500.884V350.904H495.112V350.124ZM506.148 351L503.568 348.096V351H502.476V342.12H503.568V347.34L506.1 344.424H507.624L504.528 347.7L507.636 351H506.148ZM517.299 342.636V343.524H515.019V351H513.927V343.524H511.635V342.636H517.299ZM521.662 351.108C521.046 351.108 520.486 350.968 519.982 350.688C519.486 350.408 519.094 350.012 518.806 349.5C518.526 348.98 518.386 348.38 518.386 347.7C518.386 347.028 518.53 346.436 518.818 345.924C519.114 345.404 519.514 345.008 520.018 344.736C520.522 344.456 521.086 344.316 521.71 344.316C522.334 344.316 522.898 344.456 523.402 344.736C523.906 345.008 524.302 345.4 524.59 345.912C524.886 346.424 525.034 347.02 525.034 347.7C525.034 348.38 524.882 348.98 524.578 349.5C524.282 350.012 523.878 350.408 523.366 350.688C522.854 350.968 522.286 351.108 521.662 351.108ZM521.662 350.148C522.054 350.148 522.422 350.056 522.766 349.872C523.11 349.688 523.386 349.412 523.594 349.044C523.81 348.676 523.918 348.228 523.918 347.7C523.918 347.172 523.814 346.724 523.606 346.356C523.398 345.988 523.126 345.716 522.79 345.54C522.454 345.356 522.09 345.264 521.698 345.264C521.298 345.264 520.93 345.356 520.594 345.54C520.266 345.716 520.002 345.988 519.802 346.356C519.602 346.724 519.502 347.172 519.502 347.7C519.502 348.236 519.598 348.688 519.79 349.056C519.99 349.424 520.254 349.7 520.582 349.884C520.91 350.06 521.27 350.148 521.662 350.148ZM530.291 351L527.711 348.096V351H526.619V342.12H527.711V347.34L530.243 344.424H531.767L528.671 347.7L531.779 351H530.291ZM538.945 347.46C538.945 347.668 538.933 347.888 538.909 348.12H533.653C533.693 348.768 533.913 349.276 534.313 349.644C534.721 350.004 535.213 350.184 535.789 350.184C536.261 350.184 536.653 350.076 536.965 349.86C537.285 349.636 537.509 349.34 537.637 348.972H538.813C538.637 349.604 538.285 350.12 537.757 350.52C537.229 350.912 536.573 351.108 535.789 351.108C535.165 351.108 534.605 350.968 534.109 350.688C533.621 350.408 533.237 350.012 532.957 349.5C532.677 348.98 532.537 348.38 532.537 347.7C532.537 347.02 532.673 346.424 532.945 345.912C533.217 345.4 533.597 345.008 534.085 344.736C534.581 344.456 535.149 344.316 535.789 344.316C536.413 344.316 536.965 344.452 537.445 344.724C537.925 344.996 538.293 345.372 538.549 345.852C538.813 346.324 538.945 346.86 538.945 347.46ZM537.817 347.232C537.817 346.816 537.725 346.46 537.541 346.164C537.357 345.86 537.105 345.632 536.785 345.48C536.473 345.32 536.125 345.24 535.741 345.24C535.189 345.24 534.717 345.416 534.325 345.768C533.941 346.12 533.721 346.608 533.665 347.232H537.817ZM543.74 344.304C544.54 344.304 545.188 344.548 545.684 345.036C546.18 345.516 546.428 346.212 546.428 347.124V351H545.348V347.28C545.348 346.624 545.184 346.124 544.856 345.78C544.528 345.428 544.08 345.252 543.512 345.252C542.936 345.252 542.476 345.432 542.132 345.792C541.796 346.152 541.628 346.676 541.628 347.364V351H540.536V344.424H541.628V345.36C541.844 345.024 542.136 344.764 542.504 344.58C542.88 344.396 543.292 344.304 543.74 344.304ZM550.69 351.108C550.186 351.108 549.734 351.024 549.334 350.856C548.934 350.68 548.618 350.44 548.386 350.136C548.154 349.824 548.026 349.468 548.002 349.068H549.13C549.162 349.396 549.314 349.664 549.586 349.872C549.866 350.08 550.23 350.184 550.678 350.184C551.094 350.184 551.422 350.092 551.662 349.908C551.902 349.724 552.022 349.492 552.022 349.212C552.022 348.924 551.894 348.712 551.638 348.576C551.382 348.432 550.986 348.292 550.45 348.156C549.962 348.028 549.562 347.9 549.25 347.772C548.946 347.636 548.682 347.44 548.458 347.184C548.242 346.92 548.134 346.576 548.134 346.152C548.134 345.816 548.234 345.508 548.434 345.228C548.634 344.948 548.918 344.728 549.286 344.568C549.654 344.4 550.074 344.316 550.546 344.316C551.274 344.316 551.862 344.5 552.31 344.868C552.758 345.236 552.998 345.74 553.03 346.38H551.938C551.914 346.036 551.774 345.76 551.518 345.552C551.27 345.344 550.934 345.24 550.51 345.24C550.118 345.24 549.806 345.324 549.574 345.492C549.342 345.66 549.226 345.88 549.226 346.152C549.226 346.368 549.294 346.548 549.43 346.692C549.574 346.828 549.75 346.94 549.958 347.028C550.174 347.108 550.47 347.2 550.846 347.304C551.318 347.432 551.702 347.56 551.998 347.688C552.294 347.808 552.546 347.992 552.754 348.24C552.97 348.488 553.082 348.812 553.09 349.212C553.09 349.572 552.99 349.896 552.79 350.184C552.59 350.472 552.306 350.7 551.938 350.868C551.578 351.028 551.162 351.108 550.69 351.108Z" fill="#3A3541" fill-opacity="0.68"/>
<path d="M0 316H626V314H0V316Z" fill="#3A3541" fill-opacity="0.12" mask="url(#path-36-outside-5_76_582)"/>
</g>
<defs>
<clipPath id="clip0_76_582">
<rect width="626" height="376" fill="white"/>
</clipPath>
</defs>
</svg>
