<svg width="819" height="284" viewBox="0 0 819 284" fill="none" xmlns="http://www.w3.org/2000/svg">
<path d="M70.0864 80.3567V79.3607H72.3424V88.0367H71.2384V80.3567H70.0864ZM79.7502 80.3087H75.5382V83.0447C75.7222 82.7887 75.9942 82.5807 76.3542 82.4207C76.7142 82.2527 77.1022 82.1687 77.5182 82.1687C78.1822 82.1687 78.7222 82.3087 79.1382 82.5887C79.5542 82.8607 79.8502 83.2167 80.0262 83.6567C80.2102 84.0887 80.3022 84.5487 80.3022 85.0367C80.3022 85.6127 80.1942 86.1287 79.9782 86.5847C79.7622 87.0407 79.4302 87.4007 78.9822 87.6647C78.5422 87.9287 77.9942 88.0607 77.3382 88.0607C76.4982 88.0607 75.8182 87.8447 75.2982 87.4127C74.7782 86.9807 74.4622 86.4047 74.3502 85.6847H75.4182C75.5222 86.1407 75.7422 86.4967 76.0782 86.7527C76.4142 87.0087 76.8382 87.1367 77.3502 87.1367C77.9822 87.1367 78.4582 86.9487 78.7782 86.5727C79.0982 86.1887 79.2582 85.6847 79.2582 85.0607C79.2582 84.4367 79.0982 83.9567 78.7782 83.6207C78.4582 83.2767 77.9862 83.1047 77.3622 83.1047C76.9382 83.1047 76.5662 83.2087 76.2462 83.4167C75.9342 83.6167 75.7062 83.8927 75.5622 84.2447H74.5302V79.3487H79.7502V80.3087ZM85.6053 88.0367L83.0253 85.1327V88.0367H81.9333V79.1567H83.0253V84.3767L85.5573 81.4607H87.0813L83.9853 84.7367L87.0933 88.0367H85.6053Z" fill="#A3A3A3"/>
<path d="M70.0864 134.82V133.824H72.3424V142.5H71.2384V134.82H70.0864ZM74.2182 138.072C74.2182 136.696 74.4422 135.624 74.8902 134.856C75.3382 134.08 76.1222 133.692 77.2422 133.692C78.3542 133.692 79.1342 134.08 79.5822 134.856C80.0302 135.624 80.2542 136.696 80.2542 138.072C80.2542 139.472 80.0302 140.56 79.5822 141.336C79.1342 142.112 78.3542 142.5 77.2422 142.5C76.1222 142.5 75.3382 142.112 74.8902 141.336C74.4422 140.56 74.2182 139.472 74.2182 138.072ZM79.1742 138.072C79.1742 137.376 79.1262 136.788 79.0302 136.308C78.9422 135.82 78.7542 135.428 78.4662 135.132C78.1862 134.836 77.7782 134.688 77.2422 134.688C76.6982 134.688 76.2822 134.836 75.9942 135.132C75.7142 135.428 75.5262 135.82 75.4302 136.308C75.3422 136.788 75.2982 137.376 75.2982 138.072C75.2982 138.792 75.3422 139.396 75.4302 139.884C75.5262 140.372 75.7142 140.764 75.9942 141.06C76.2822 141.356 76.6982 141.504 77.2422 141.504C77.7782 141.504 78.1862 141.356 78.4662 141.06C78.7542 140.764 78.9422 140.372 79.0302 139.884C79.1262 139.396 79.1742 138.792 79.1742 138.072ZM85.6053 142.5L83.0253 139.596V142.5H81.9333V133.62H83.0253V138.84L85.5573 135.924H87.0813L83.9853 139.2L87.0933 142.5H85.6053Z" fill="#A3A3A3"/>
<path d="M79.7502 190.191H75.5382V192.927C75.7222 192.671 75.9942 192.463 76.3542 192.303C76.7142 192.135 77.1022 192.051 77.5182 192.051C78.1822 192.051 78.7222 192.191 79.1382 192.471C79.5542 192.743 79.8502 193.099 80.0262 193.539C80.2102 193.971 80.3022 194.431 80.3022 194.919C80.3022 195.495 80.1942 196.011 79.9782 196.467C79.7622 196.923 79.4302 197.283 78.9822 197.547C78.5422 197.811 77.9942 197.943 77.3382 197.943C76.4982 197.943 75.8182 197.727 75.2982 197.295C74.7782 196.863 74.4622 196.287 74.3502 195.567H75.4182C75.5222 196.023 75.7422 196.379 76.0782 196.635C76.4142 196.891 76.8382 197.019 77.3502 197.019C77.9822 197.019 78.4582 196.831 78.7782 196.455C79.0982 196.071 79.2582 195.567 79.2582 194.943C79.2582 194.319 79.0982 193.839 78.7782 193.503C78.4582 193.159 77.9862 192.987 77.3622 192.987C76.9382 192.987 76.5662 193.091 76.2462 193.299C75.9342 193.499 75.7062 193.775 75.5622 194.127H74.5302V189.231H79.7502V190.191ZM85.6053 197.919L83.0253 195.015V197.919H81.9333V189.039H83.0253V194.259L85.5573 191.343H87.0813L83.9853 194.619L87.0933 197.919H85.6053Z" fill="#A3A3A3"/>
<path d="M718.576 279.015C718.024 279.015 717.528 278.919 717.088 278.727C716.656 278.527 716.316 278.255 716.068 277.911C715.82 277.559 715.692 277.155 715.684 276.699H716.848C716.888 277.091 717.048 277.423 717.328 277.695C717.616 277.959 718.032 278.091 718.576 278.091C719.096 278.091 719.504 277.963 719.8 277.707C720.104 277.443 720.256 277.107 720.256 276.699C720.256 276.379 720.168 276.119 719.992 275.919C719.816 275.719 719.596 275.567 719.332 275.463C719.068 275.359 718.712 275.247 718.264 275.127C717.712 274.983 717.268 274.839 716.932 274.695C716.604 274.551 716.32 274.327 716.08 274.023C715.848 273.711 715.732 273.295 715.732 272.775C715.732 272.319 715.848 271.915 716.08 271.563C716.312 271.211 716.636 270.939 717.052 270.747C717.476 270.555 717.96 270.459 718.504 270.459C719.288 270.459 719.928 270.655 720.424 271.047C720.928 271.439 721.212 271.959 721.276 272.607H720.076C720.036 272.287 719.868 272.007 719.572 271.767C719.276 271.519 718.884 271.395 718.396 271.395C717.94 271.395 717.568 271.515 717.28 271.755C716.992 271.987 716.848 272.315 716.848 272.739C716.848 273.043 716.932 273.291 717.1 273.483C717.276 273.675 717.488 273.823 717.736 273.927C717.992 274.023 718.348 274.135 718.804 274.263C719.356 274.415 719.8 274.567 720.136 274.719C720.472 274.863 720.76 275.091 721 275.403C721.24 275.707 721.36 276.123 721.36 276.651C721.36 277.059 721.252 277.443 721.036 277.803C720.82 278.163 720.5 278.455 720.076 278.679C719.652 278.903 719.152 279.015 718.576 279.015ZM728.799 272.355V278.931H727.707V277.959C727.499 278.295 727.207 278.559 726.831 278.751C726.463 278.935 726.055 279.027 725.607 279.027C725.095 279.027 724.635 278.923 724.227 278.715C723.819 278.499 723.495 278.179 723.255 277.755C723.023 277.331 722.907 276.815 722.907 276.207V272.355H723.987V276.063C723.987 276.711 724.151 277.211 724.479 277.563C724.807 277.907 725.255 278.079 725.823 278.079C726.407 278.079 726.867 277.899 727.203 277.539C727.539 277.179 727.707 276.655 727.707 275.967V272.355H728.799ZM733.847 272.235C734.647 272.235 735.295 272.479 735.791 272.967C736.287 273.447 736.535 274.143 736.535 275.055V278.931H735.455V275.211C735.455 274.555 735.291 274.055 734.963 273.711C734.635 273.359 734.187 273.183 733.619 273.183C733.043 273.183 732.583 273.363 732.239 273.723C731.903 274.083 731.735 274.607 731.735 275.295V278.931H730.643V272.355H731.735V273.291C731.951 272.955 732.243 272.695 732.611 272.511C732.987 272.327 733.399 272.235 733.847 272.235Z" fill="#A3A3A3"/>
<path d="M125.408 270.627V278.931H124.316V272.739L121.556 278.931H120.788L118.016 272.727V278.931H116.924V270.627H118.1L121.172 277.491L124.244 270.627H125.408ZM130.128 279.039C129.512 279.039 128.952 278.899 128.448 278.619C127.952 278.339 127.56 277.943 127.272 277.431C126.992 276.911 126.852 276.311 126.852 275.631C126.852 274.959 126.996 274.367 127.284 273.855C127.58 273.335 127.98 272.939 128.484 272.667C128.988 272.387 129.552 272.247 130.176 272.247C130.8 272.247 131.364 272.387 131.868 272.667C132.372 272.939 132.768 273.331 133.056 273.843C133.352 274.355 133.5 274.951 133.5 275.631C133.5 276.311 133.348 276.911 133.044 277.431C132.748 277.943 132.344 278.339 131.832 278.619C131.32 278.899 130.752 279.039 130.128 279.039ZM130.128 278.079C130.52 278.079 130.888 277.987 131.232 277.803C131.576 277.619 131.852 277.343 132.06 276.975C132.276 276.607 132.384 276.159 132.384 275.631C132.384 275.103 132.28 274.655 132.072 274.287C131.864 273.919 131.592 273.647 131.256 273.471C130.92 273.287 130.556 273.195 130.164 273.195C129.764 273.195 129.396 273.287 129.06 273.471C128.732 273.647 128.468 273.919 128.268 274.287C128.068 274.655 127.968 275.103 127.968 275.631C127.968 276.167 128.064 276.619 128.256 276.987C128.456 277.355 128.72 277.631 129.048 277.815C129.376 277.991 129.736 278.079 130.128 278.079ZM138.14 272.235C138.94 272.235 139.588 272.479 140.084 272.967C140.58 273.447 140.828 274.143 140.828 275.055V278.931H139.748V275.211C139.748 274.555 139.584 274.055 139.256 273.711C138.928 273.359 138.48 273.183 137.912 273.183C137.336 273.183 136.876 273.363 136.532 273.723C136.196 274.083 136.028 274.607 136.028 275.295V278.931H134.936V272.355H136.028V273.291C136.244 272.955 136.536 272.695 136.904 272.511C137.28 272.327 137.692 272.235 138.14 272.235Z" fill="#A3A3A3"/>
<path d="M224.072 270.567V271.455H221.792V278.931H220.7V271.455H218.408V270.567H224.072ZM231.248 272.355V278.931H230.156V277.959C229.948 278.295 229.656 278.559 229.28 278.751C228.912 278.935 228.504 279.027 228.056 279.027C227.544 279.027 227.084 278.923 226.676 278.715C226.268 278.499 225.944 278.179 225.704 277.755C225.472 277.331 225.356 276.815 225.356 276.207V272.355H226.436V276.063C226.436 276.711 226.6 277.211 226.928 277.563C227.256 277.907 227.704 278.079 228.272 278.079C228.856 278.079 229.316 277.899 229.652 277.539C229.988 277.179 230.156 276.655 230.156 275.967V272.355H231.248ZM239.092 275.391C239.092 275.599 239.08 275.819 239.056 276.051H233.8C233.84 276.699 234.06 277.207 234.46 277.575C234.868 277.935 235.36 278.115 235.936 278.115C236.408 278.115 236.8 278.007 237.112 277.791C237.432 277.567 237.656 277.271 237.784 276.903H238.96C238.784 277.535 238.432 278.051 237.904 278.451C237.376 278.843 236.72 279.039 235.936 279.039C235.312 279.039 234.752 278.899 234.256 278.619C233.768 278.339 233.384 277.943 233.104 277.431C232.824 276.911 232.684 276.311 232.684 275.631C232.684 274.951 232.82 274.355 233.092 273.843C233.364 273.331 233.744 272.939 234.232 272.667C234.728 272.387 235.296 272.247 235.936 272.247C236.56 272.247 237.112 272.383 237.592 272.655C238.072 272.927 238.44 273.303 238.696 273.783C238.96 274.255 239.092 274.791 239.092 275.391ZM237.964 275.163C237.964 274.747 237.872 274.391 237.688 274.095C237.504 273.791 237.252 273.563 236.932 273.411C236.62 273.251 236.272 273.171 235.888 273.171C235.336 273.171 234.864 273.347 234.472 273.699C234.088 274.051 233.868 274.539 233.812 275.163H237.964Z" fill="#A3A3A3"/>
<path d="M327.436 270.567L325.012 278.931H323.788L321.844 272.199L319.828 278.931L318.616 278.943L316.276 270.567H317.44L319.264 277.659L321.28 270.567H322.504L324.424 277.635L326.26 270.567H327.436ZM334.631 275.391C334.631 275.599 334.619 275.819 334.595 276.051H329.339C329.379 276.699 329.599 277.207 329.999 277.575C330.407 277.935 330.899 278.115 331.475 278.115C331.947 278.115 332.339 278.007 332.651 277.791C332.971 277.567 333.195 277.271 333.323 276.903H334.499C334.323 277.535 333.971 278.051 333.443 278.451C332.915 278.843 332.259 279.039 331.475 279.039C330.851 279.039 330.291 278.899 329.795 278.619C329.307 278.339 328.923 277.943 328.643 277.431C328.363 276.911 328.223 276.311 328.223 275.631C328.223 274.951 328.359 274.355 328.631 273.843C328.903 273.331 329.283 272.939 329.771 272.667C330.267 272.387 330.835 272.247 331.475 272.247C332.099 272.247 332.651 272.383 333.131 272.655C333.611 272.927 333.979 273.303 334.235 273.783C334.499 274.255 334.631 274.791 334.631 275.391ZM333.503 275.163C333.503 274.747 333.411 274.391 333.227 274.095C333.043 273.791 332.791 273.563 332.471 273.411C332.159 273.251 331.811 273.171 331.427 273.171C330.875 273.171 330.403 273.347 330.011 273.699C329.627 274.051 329.407 274.539 329.351 275.163H333.503ZM335.664 275.619C335.664 274.947 335.8 274.359 336.072 273.855C336.344 273.343 336.716 272.947 337.188 272.667C337.668 272.387 338.204 272.247 338.796 272.247C339.308 272.247 339.784 272.367 340.224 272.607C340.664 272.839 341 273.147 341.232 273.531V270.051H342.336V278.931H341.232V277.695C341.016 278.087 340.696 278.411 340.272 278.667C339.848 278.915 339.352 279.039 338.784 279.039C338.2 279.039 337.668 278.895 337.188 278.607C336.716 278.319 336.344 277.915 336.072 277.395C335.8 276.875 335.664 276.283 335.664 275.619ZM341.232 275.631C341.232 275.135 341.132 274.703 340.932 274.335C340.732 273.967 340.46 273.687 340.116 273.495C339.78 273.295 339.408 273.195 339 273.195C338.592 273.195 338.22 273.291 337.884 273.483C337.548 273.675 337.28 273.955 337.08 274.323C336.88 274.691 336.78 275.123 336.78 275.619C336.78 276.123 336.88 276.563 337.08 276.939C337.28 277.307 337.548 277.591 337.884 277.791C338.22 277.983 338.592 278.079 339 278.079C339.408 278.079 339.78 277.983 340.116 277.791C340.46 277.591 340.732 277.307 340.932 276.939C341.132 276.563 341.232 276.127 341.232 275.631Z" fill="#A3A3A3"/>
<path d="M423.072 270.567V271.455H420.792V278.931H419.7V271.455H417.408V270.567H423.072ZM427.68 272.235C428.176 272.235 428.624 272.343 429.024 272.559C429.424 272.767 429.736 273.083 429.96 273.507C430.192 273.931 430.308 274.447 430.308 275.055V278.931H429.228V275.211C429.228 274.555 429.064 274.055 428.736 273.711C428.408 273.359 427.96 273.183 427.392 273.183C426.816 273.183 426.356 273.363 426.012 273.723C425.676 274.083 425.508 274.607 425.508 275.295V278.931H424.416V270.051H425.508V273.291C425.724 272.955 426.02 272.695 426.396 272.511C426.78 272.327 427.208 272.235 427.68 272.235ZM437.924 272.355V278.931H436.832V277.959C436.624 278.295 436.332 278.559 435.956 278.751C435.588 278.935 435.18 279.027 434.732 279.027C434.22 279.027 433.76 278.923 433.352 278.715C432.944 278.499 432.62 278.179 432.38 277.755C432.148 277.331 432.032 276.815 432.032 276.207V272.355H433.112V276.063C433.112 276.711 433.276 277.211 433.604 277.563C433.932 277.907 434.38 278.079 434.948 278.079C435.532 278.079 435.992 277.899 436.328 277.539C436.664 277.179 436.832 276.655 436.832 275.967V272.355H437.924Z" fill="#A3A3A3"/>
<path d="M527.652 270.567V271.455H524.016V274.275H526.968V275.163H524.016V278.931H522.924V270.567H527.652ZM530.063 273.423C530.255 273.047 530.527 272.755 530.879 272.547C531.239 272.339 531.675 272.235 532.187 272.235V273.363H531.899C530.675 273.363 530.063 274.027 530.063 275.355V278.931H528.971V272.355H530.063V273.423ZM534.011 271.287C533.803 271.287 533.627 271.215 533.483 271.071C533.339 270.927 533.267 270.751 533.267 270.543C533.267 270.335 533.339 270.159 533.483 270.015C533.627 269.871 533.803 269.799 534.011 269.799C534.211 269.799 534.379 269.871 534.515 270.015C534.659 270.159 534.731 270.335 534.731 270.543C534.731 270.751 534.659 270.927 534.515 271.071C534.379 271.215 534.211 271.287 534.011 271.287ZM534.539 272.355V278.931H533.447V272.355H534.539Z" fill="#A3A3A3"/>
<path d="M620.576 279.015C620.024 279.015 619.528 278.919 619.088 278.727C618.656 278.527 618.316 278.255 618.068 277.911C617.82 277.559 617.692 277.155 617.684 276.699H618.848C618.888 277.091 619.048 277.423 619.328 277.695C619.616 277.959 620.032 278.091 620.576 278.091C621.096 278.091 621.504 277.963 621.8 277.707C622.104 277.443 622.256 277.107 622.256 276.699C622.256 276.379 622.168 276.119 621.992 275.919C621.816 275.719 621.596 275.567 621.332 275.463C621.068 275.359 620.712 275.247 620.264 275.127C619.712 274.983 619.268 274.839 618.932 274.695C618.604 274.551 618.32 274.327 618.08 274.023C617.848 273.711 617.732 273.295 617.732 272.775C617.732 272.319 617.848 271.915 618.08 271.563C618.312 271.211 618.636 270.939 619.052 270.747C619.476 270.555 619.96 270.459 620.504 270.459C621.288 270.459 621.928 270.655 622.424 271.047C622.928 271.439 623.212 271.959 623.276 272.607H622.076C622.036 272.287 621.868 272.007 621.572 271.767C621.276 271.519 620.884 271.395 620.396 271.395C619.94 271.395 619.568 271.515 619.28 271.755C618.992 271.987 618.848 272.315 618.848 272.739C618.848 273.043 618.932 273.291 619.1 273.483C619.276 273.675 619.488 273.823 619.736 273.927C619.992 274.023 620.348 274.135 620.804 274.263C621.356 274.415 621.8 274.567 622.136 274.719C622.472 274.863 622.76 275.091 623 275.403C623.24 275.707 623.36 276.123 623.36 276.651C623.36 277.059 623.252 277.443 623.036 277.803C622.82 278.163 622.5 278.455 622.076 278.679C621.652 278.903 621.152 279.015 620.576 279.015ZM624.559 275.619C624.559 274.947 624.695 274.359 624.967 273.855C625.239 273.343 625.611 272.947 626.083 272.667C626.563 272.387 627.095 272.247 627.679 272.247C628.255 272.247 628.755 272.371 629.179 272.619C629.603 272.867 629.919 273.179 630.127 273.555V272.355H631.231V278.931H630.127V277.707C629.911 278.091 629.587 278.411 629.155 278.667C628.731 278.915 628.235 279.039 627.667 279.039C627.083 279.039 626.555 278.895 626.083 278.607C625.611 278.319 625.239 277.915 624.967 277.395C624.695 276.875 624.559 276.283 624.559 275.619ZM630.127 275.631C630.127 275.135 630.027 274.703 629.827 274.335C629.627 273.967 629.355 273.687 629.011 273.495C628.675 273.295 628.303 273.195 627.895 273.195C627.487 273.195 627.115 273.291 626.779 273.483C626.443 273.675 626.175 273.955 625.975 274.323C625.775 274.691 625.675 275.123 625.675 275.619C625.675 276.123 625.775 276.563 625.975 276.939C626.175 277.307 626.443 277.591 626.779 277.791C627.115 277.983 627.487 278.079 627.895 278.079C628.303 278.079 628.675 277.983 629.011 277.791C629.355 277.591 629.627 277.307 629.827 276.939C630.027 276.563 630.127 276.127 630.127 275.631ZM634.408 273.255V277.131C634.408 277.451 634.476 277.679 634.612 277.815C634.748 277.943 634.984 278.007 635.32 278.007H636.124V278.931H635.14C634.532 278.931 634.076 278.791 633.772 278.511C633.468 278.231 633.316 277.771 633.316 277.131V273.255H632.464V272.355H633.316V270.699H634.408V272.355H636.124V273.255H634.408Z" fill="#A3A3A3"/>
<rect x="104.364" y="246.818" width="656.216" height="1.16409" fill="#ECEAF3"/>
<rect x="104.364" y="192.105" width="656.216" height="1.16409" fill="#ECEAF3"/>
<rect x="104.364" y="137.393" width="656.216" height="1.16409" fill="#ECEAF3"/>
<rect x="104.364" y="82.6807" width="656.216" height="1.16409" fill="#ECEAF3"/>
<path d="M118.106 121.648C118.106 119.439 119.897 117.648 122.106 117.648H134.72C136.93 117.648 138.72 119.439 138.72 121.648V247.026H118.106V121.648Z" fill="url(#paint0_linear_22_1992)"/>
<path d="M217.741 196.244C217.741 194.035 219.532 192.244 221.741 192.244H234.355C236.564 192.244 238.355 194.035 238.355 196.244V247.026H217.741V196.244Z" fill="url(#paint1_linear_22_1992)"/>
<path d="M317.376 158.946C317.376 156.737 319.167 154.946 321.376 154.946H333.99C336.199 154.946 337.99 156.737 337.99 158.946V247.026H317.376V158.946Z" fill="url(#paint2_linear_22_1992)"/>
<path d="M417.011 226.549C417.011 224.34 418.802 222.549 421.011 222.549H433.625C435.834 222.549 437.625 224.34 437.625 226.549V247.026H417.011V226.549Z" fill="url(#paint3_linear_22_1992)"/>
<path d="M516.646 174.099C516.646 171.889 518.437 170.099 520.646 170.099H533.26C535.469 170.099 537.26 171.889 537.26 174.099V247.026H516.646V174.099Z" fill="url(#paint4_linear_22_1992)"/>
<path d="M616.281 197.41C616.281 195.201 618.071 193.41 620.281 193.41H632.895C635.104 193.41 636.895 195.201 636.895 197.41V247.026H616.281V197.41Z" fill="url(#paint5_linear_22_1992)"/>
<path d="M715.916 86.6807C715.916 84.4715 717.706 82.6807 719.916 82.6807H732.53C734.739 82.6807 736.53 84.4715 736.53 86.6807V247.026H715.916V86.6807Z" fill="url(#paint6_linear_22_1992)"/>
<path d="M64.4096 20.7893H60.7616L60.0896 22.6493H58.9376L61.9616 14.3333H63.2216L66.2336 22.6493H65.0816L64.4096 20.7893ZM64.0976 19.9013L62.5856 15.6773L61.0736 19.9013H64.0976ZM68.6435 13.7693V22.6493H67.5515V13.7693H68.6435ZM71.5966 13.7693V22.6493H70.5046V13.7693H71.5966ZM84.565 15.9533C85.077 15.9533 85.533 16.0613 85.933 16.2773C86.333 16.4853 86.649 16.8013 86.881 17.2253C87.113 17.6493 87.229 18.1653 87.229 18.7733V22.6493H86.149V18.9293C86.149 18.2733 85.985 17.7733 85.657 17.4293C85.337 17.0773 84.901 16.9013 84.349 16.9013C83.781 16.9013 83.329 17.0853 82.993 17.4533C82.657 17.8133 82.489 18.3373 82.489 19.0253V22.6493H81.409V18.9293C81.409 18.2733 81.245 17.7733 80.917 17.4293C80.597 17.0773 80.161 16.9013 79.609 16.9013C79.041 16.9013 78.589 17.0853 78.253 17.4533C77.917 17.8133 77.749 18.3373 77.749 19.0253V22.6493H76.657V16.0733H77.749V17.0213C77.965 16.6773 78.253 16.4133 78.613 16.2293C78.981 16.0453 79.385 15.9533 79.825 15.9533C80.377 15.9533 80.865 16.0773 81.289 16.3253C81.713 16.5733 82.029 16.9373 82.237 17.4173C82.421 16.9533 82.725 16.5933 83.149 16.3373C83.573 16.0813 84.045 15.9533 84.565 15.9533ZM91.8883 22.7573C91.2723 22.7573 90.7123 22.6173 90.2083 22.3373C89.7123 22.0573 89.3203 21.6613 89.0323 21.1493C88.7523 20.6293 88.6123 20.0293 88.6123 19.3493C88.6123 18.6773 88.7563 18.0853 89.0443 17.5733C89.3403 17.0533 89.7403 16.6573 90.2443 16.3853C90.7483 16.1053 91.3123 15.9653 91.9363 15.9653C92.5603 15.9653 93.1243 16.1053 93.6283 16.3853C94.1323 16.6573 94.5283 17.0493 94.8163 17.5613C95.1123 18.0733 95.2603 18.6693 95.2603 19.3493C95.2603 20.0293 95.1083 20.6293 94.8043 21.1493C94.5083 21.6613 94.1043 22.0573 93.5923 22.3373C93.0803 22.6173 92.5123 22.7573 91.8883 22.7573ZM91.8883 21.7973C92.2803 21.7973 92.6483 21.7053 92.9923 21.5213C93.3363 21.3373 93.6123 21.0613 93.8203 20.6933C94.0363 20.3253 94.1443 19.8773 94.1443 19.3493C94.1443 18.8213 94.0403 18.3733 93.8323 18.0053C93.6243 17.6373 93.3523 17.3653 93.0163 17.1893C92.6803 17.0053 92.3163 16.9133 91.9243 16.9133C91.5243 16.9133 91.1563 17.0053 90.8203 17.1893C90.4923 17.3653 90.2283 17.6373 90.0283 18.0053C89.8283 18.3733 89.7283 18.8213 89.7283 19.3493C89.7283 19.8853 89.8243 20.3373 90.0163 20.7053C90.2163 21.0733 90.4803 21.3493 90.8083 21.5333C91.1363 21.7093 91.4963 21.7973 91.8883 21.7973ZM96.288 19.3373C96.288 18.6653 96.424 18.0773 96.696 17.5733C96.968 17.0613 97.34 16.6653 97.812 16.3853C98.292 16.1053 98.828 15.9653 99.42 15.9653C99.932 15.9653 100.408 16.0853 100.848 16.3253C101.288 16.5573 101.624 16.8653 101.856 17.2493V13.7693H102.96V22.6493H101.856V21.4133C101.64 21.8053 101.32 22.1293 100.896 22.3853C100.472 22.6333 99.976 22.7573 99.408 22.7573C98.824 22.7573 98.292 22.6133 97.812 22.3253C97.34 22.0373 96.968 21.6333 96.696 21.1133C96.424 20.5933 96.288 20.0013 96.288 19.3373ZM101.856 19.3493C101.856 18.8533 101.756 18.4213 101.556 18.0533C101.356 17.6853 101.084 17.4053 100.74 17.2133C100.404 17.0133 100.032 16.9133 99.624 16.9133C99.216 16.9133 98.844 17.0093 98.508 17.2013C98.172 17.3933 97.904 17.6733 97.704 18.0413C97.504 18.4093 97.404 18.8413 97.404 19.3373C97.404 19.8413 97.504 20.2813 97.704 20.6573C97.904 21.0253 98.172 21.3093 98.508 21.5093C98.844 21.7013 99.216 21.7973 99.624 21.7973C100.032 21.7973 100.404 21.7013 100.74 21.5093C101.084 21.3093 101.356 21.0253 101.556 20.6573C101.756 20.2813 101.856 19.8453 101.856 19.3493ZM110.805 19.1093C110.805 19.3173 110.793 19.5373 110.769 19.7693H105.513C105.553 20.4173 105.773 20.9253 106.173 21.2933C106.581 21.6533 107.073 21.8333 107.649 21.8333C108.121 21.8333 108.513 21.7253 108.825 21.5093C109.145 21.2853 109.369 20.9893 109.497 20.6213H110.673C110.497 21.2533 110.145 21.7693 109.617 22.1693C109.089 22.5613 108.433 22.7573 107.649 22.7573C107.025 22.7573 106.465 22.6173 105.969 22.3373C105.481 22.0573 105.097 21.6613 104.817 21.1493C104.537 20.6293 104.397 20.0293 104.397 19.3493C104.397 18.6693 104.533 18.0733 104.805 17.5613C105.077 17.0493 105.457 16.6573 105.945 16.3853C106.441 16.1053 107.009 15.9653 107.649 15.9653C108.273 15.9653 108.825 16.1013 109.305 16.3733C109.785 16.6453 110.153 17.0213 110.409 17.5013C110.673 17.9733 110.805 18.5093 110.805 19.1093ZM109.677 18.8813C109.677 18.4653 109.585 18.1093 109.401 17.8133C109.217 17.5093 108.965 17.2813 108.645 17.1293C108.333 16.9693 107.985 16.8893 107.601 16.8893C107.049 16.8893 106.577 17.0653 106.185 17.4173C105.801 17.7693 105.581 18.2573 105.525 18.8813H109.677ZM113.339 13.7693V22.6493H112.247V13.7693H113.339ZM124.231 16.0733V22.6493H123.139V21.6773C122.931 22.0133 122.639 22.2773 122.263 22.4693C121.895 22.6533 121.487 22.7453 121.039 22.7453C120.527 22.7453 120.067 22.6413 119.659 22.4333C119.251 22.2173 118.927 21.8973 118.687 21.4733C118.455 21.0493 118.339 20.5333 118.339 19.9253V16.0733H119.419V19.7813C119.419 20.4293 119.583 20.9293 119.911 21.2813C120.239 21.6253 120.687 21.7973 121.255 21.7973C121.839 21.7973 122.299 21.6173 122.635 21.2573C122.971 20.8973 123.139 20.3733 123.139 19.6853V16.0733H124.231ZM128.403 22.7573C127.899 22.7573 127.447 22.6733 127.047 22.5053C126.647 22.3293 126.331 22.0893 126.099 21.7853C125.867 21.4733 125.739 21.1173 125.715 20.7173H126.843C126.875 21.0453 127.027 21.3133 127.299 21.5213C127.579 21.7293 127.943 21.8333 128.391 21.8333C128.807 21.8333 129.135 21.7413 129.375 21.5573C129.615 21.3733 129.735 21.1413 129.735 20.8613C129.735 20.5733 129.607 20.3613 129.351 20.2253C129.095 20.0813 128.699 19.9413 128.163 19.8053C127.675 19.6773 127.275 19.5493 126.963 19.4213C126.659 19.2853 126.395 19.0893 126.171 18.8333C125.955 18.5693 125.847 18.2253 125.847 17.8013C125.847 17.4653 125.947 17.1573 126.147 16.8773C126.347 16.5973 126.631 16.3773 126.999 16.2173C127.367 16.0493 127.787 15.9653 128.259 15.9653C128.987 15.9653 129.575 16.1493 130.023 16.5173C130.471 16.8853 130.711 17.3893 130.743 18.0293H129.651C129.627 17.6853 129.487 17.4093 129.231 17.2013C128.983 16.9933 128.647 16.8893 128.223 16.8893C127.831 16.8893 127.519 16.9733 127.287 17.1413C127.055 17.3093 126.939 17.5293 126.939 17.8013C126.939 18.0173 127.007 18.1973 127.143 18.3413C127.287 18.4773 127.463 18.5893 127.671 18.6773C127.887 18.7573 128.183 18.8493 128.559 18.9533C129.031 19.0813 129.415 19.2093 129.711 19.3373C130.007 19.4573 130.259 19.6413 130.467 19.8893C130.683 20.1373 130.795 20.4613 130.803 20.8613C130.803 21.2213 130.703 21.5453 130.503 21.8333C130.303 22.1213 130.019 22.3493 129.651 22.5173C129.291 22.6773 128.875 22.7573 128.403 22.7573ZM131.936 19.3373C131.936 18.6653 132.072 18.0773 132.344 17.5733C132.616 17.0613 132.988 16.6653 133.46 16.3853C133.94 16.1053 134.472 15.9653 135.056 15.9653C135.632 15.9653 136.132 16.0893 136.556 16.3373C136.98 16.5853 137.296 16.8973 137.504 17.2733V16.0733H138.608V22.6493H137.504V21.4253C137.288 21.8093 136.964 22.1293 136.532 22.3853C136.108 22.6333 135.612 22.7573 135.044 22.7573C134.46 22.7573 133.932 22.6133 133.46 22.3253C132.988 22.0373 132.616 21.6333 132.344 21.1133C132.072 20.5933 131.936 20.0013 131.936 19.3373ZM137.504 19.3493C137.504 18.8533 137.404 18.4213 137.204 18.0533C137.004 17.6853 136.732 17.4053 136.388 17.2133C136.052 17.0133 135.68 16.9133 135.272 16.9133C134.864 16.9133 134.492 17.0093 134.156 17.2013C133.82 17.3933 133.552 17.6733 133.352 18.0413C133.152 18.4093 133.052 18.8413 133.052 19.3373C133.052 19.8413 133.152 20.2813 133.352 20.6573C133.552 21.0253 133.82 21.3093 134.156 21.5093C134.492 21.7013 134.864 21.7973 135.272 21.7973C135.68 21.7973 136.052 21.7013 136.388 21.5093C136.732 21.3093 137.004 21.0253 137.204 20.6573C137.404 20.2813 137.504 19.8453 137.504 19.3493ZM143.166 15.9653C143.734 15.9653 144.23 16.0893 144.654 16.3373C145.086 16.5853 145.406 16.8973 145.614 17.2733V16.0733H146.718V22.7933C146.718 23.3933 146.59 23.9253 146.334 24.3893C146.078 24.8613 145.71 25.2293 145.23 25.4933C144.758 25.7573 144.206 25.8893 143.574 25.8893C142.71 25.8893 141.99 25.6853 141.414 25.2773C140.838 24.8693 140.498 24.3133 140.394 23.6093H141.474C141.594 24.0093 141.842 24.3293 142.218 24.5693C142.594 24.8173 143.046 24.9413 143.574 24.9413C144.174 24.9413 144.662 24.7533 145.038 24.3773C145.422 24.0013 145.614 23.4733 145.614 22.7933V21.4133C145.398 21.7973 145.078 22.1173 144.654 22.3733C144.23 22.6293 143.734 22.7573 143.166 22.7573C142.582 22.7573 142.05 22.6133 141.57 22.3253C141.098 22.0373 140.726 21.6333 140.454 21.1133C140.182 20.5933 140.046 20.0013 140.046 19.3373C140.046 18.6653 140.182 18.0773 140.454 17.5733C140.726 17.0613 141.098 16.6653 141.57 16.3853C142.05 16.1053 142.582 15.9653 143.166 15.9653ZM145.614 19.3493C145.614 18.8533 145.514 18.4213 145.314 18.0533C145.114 17.6853 144.842 17.4053 144.498 17.2133C144.162 17.0133 143.79 16.9133 143.382 16.9133C142.974 16.9133 142.602 17.0093 142.266 17.2013C141.93 17.3933 141.662 17.6733 141.462 18.0413C141.262 18.4093 141.162 18.8413 141.162 19.3373C141.162 19.8413 141.262 20.2813 141.462 20.6573C141.662 21.0253 141.93 21.3093 142.266 21.5093C142.602 21.7013 142.974 21.7973 143.382 21.7973C143.79 21.7973 144.162 21.7013 144.498 21.5093C144.842 21.3093 145.114 21.0253 145.314 20.6573C145.514 20.2813 145.614 19.8453 145.614 19.3493ZM154.563 19.1093C154.563 19.3173 154.551 19.5373 154.527 19.7693H149.271C149.311 20.4173 149.531 20.9253 149.931 21.2933C150.339 21.6533 150.831 21.8333 151.407 21.8333C151.879 21.8333 152.271 21.7253 152.583 21.5093C152.903 21.2853 153.127 20.9893 153.255 20.6213H154.431C154.255 21.2533 153.903 21.7693 153.375 22.1693C152.847 22.5613 152.191 22.7573 151.407 22.7573C150.783 22.7573 150.223 22.6173 149.727 22.3373C149.239 22.0573 148.855 21.6613 148.575 21.1493C148.295 20.6293 148.155 20.0293 148.155 19.3493C148.155 18.6693 148.291 18.0733 148.563 17.5613C148.835 17.0493 149.215 16.6573 149.703 16.3853C150.199 16.1053 150.767 15.9653 151.407 15.9653C152.031 15.9653 152.583 16.1013 153.063 16.3733C153.543 16.6453 153.911 17.0213 154.167 17.5013C154.431 17.9733 154.563 18.5093 154.563 19.1093ZM153.435 18.8813C153.435 18.4653 153.343 18.1093 153.159 17.8133C152.975 17.5093 152.723 17.2813 152.403 17.1293C152.091 16.9693 151.743 16.8893 151.359 16.8893C150.807 16.8893 150.335 17.0653 149.943 17.4173C149.559 17.7693 149.339 18.2573 149.283 18.8813H153.435ZM162.072 22.7573C161.456 22.7573 160.896 22.6173 160.392 22.3373C159.896 22.0573 159.504 21.6613 159.216 21.1493C158.936 20.6293 158.796 20.0293 158.796 19.3493C158.796 18.6773 158.94 18.0853 159.228 17.5733C159.524 17.0533 159.924 16.6573 160.428 16.3853C160.932 16.1053 161.496 15.9653 162.12 15.9653C162.744 15.9653 163.308 16.1053 163.812 16.3853C164.316 16.6573 164.712 17.0493 165 17.5613C165.296 18.0733 165.444 18.6693 165.444 19.3493C165.444 20.0293 165.292 20.6293 164.988 21.1493C164.692 21.6613 164.288 22.0573 163.776 22.3373C163.264 22.6173 162.696 22.7573 162.072 22.7573ZM162.072 21.7973C162.464 21.7973 162.832 21.7053 163.176 21.5213C163.52 21.3373 163.796 21.0613 164.004 20.6933C164.22 20.3253 164.328 19.8773 164.328 19.3493C164.328 18.8213 164.224 18.3733 164.016 18.0053C163.808 17.6373 163.536 17.3653 163.2 17.1893C162.864 17.0053 162.5 16.9133 162.108 16.9133C161.708 16.9133 161.34 17.0053 161.004 17.1893C160.676 17.3653 160.412 17.6373 160.212 18.0053C160.012 18.3733 159.912 18.8213 159.912 19.3493C159.912 19.8853 160.008 20.3373 160.2 20.7053C160.4 21.0733 160.664 21.3493 160.992 21.5333C161.32 21.7093 161.68 21.7973 162.072 21.7973ZM169.556 16.9733H168.176V22.6493H167.084V16.9733H166.232V16.0733H167.084V15.6053C167.084 14.8693 167.272 14.3333 167.648 13.9973C168.032 13.6533 168.644 13.4813 169.484 13.4813V14.3933C169.004 14.3933 168.664 14.4893 168.464 14.6813C168.272 14.8653 168.176 15.1733 168.176 15.6053V16.0733H169.556V16.9733ZM173.62 19.3373C173.62 18.6653 173.756 18.0773 174.028 17.5733C174.3 17.0613 174.672 16.6653 175.144 16.3853C175.624 16.1053 176.156 15.9653 176.74 15.9653C177.316 15.9653 177.816 16.0893 178.24 16.3373C178.664 16.5853 178.98 16.8973 179.188 17.2733V16.0733H180.292V22.6493H179.188V21.4253C178.972 21.8093 178.648 22.1293 178.216 22.3853C177.792 22.6333 177.296 22.7573 176.728 22.7573C176.144 22.7573 175.616 22.6133 175.144 22.3253C174.672 22.0373 174.3 21.6333 174.028 21.1133C173.756 20.5933 173.62 20.0013 173.62 19.3373ZM179.188 19.3493C179.188 18.8533 179.088 18.4213 178.888 18.0533C178.688 17.6853 178.416 17.4053 178.072 17.2133C177.736 17.0133 177.364 16.9133 176.956 16.9133C176.548 16.9133 176.176 17.0093 175.84 17.2013C175.504 17.3933 175.236 17.6733 175.036 18.0413C174.836 18.4093 174.736 18.8413 174.736 19.3373C174.736 19.8413 174.836 20.2813 175.036 20.6573C175.236 21.0253 175.504 21.3093 175.84 21.5093C176.176 21.7013 176.548 21.7973 176.956 21.7973C177.364 21.7973 177.736 21.7013 178.072 21.5093C178.416 21.3093 178.688 21.0253 178.888 20.6573C179.088 20.2813 179.188 19.8453 179.188 19.3493ZM183.229 13.7693V22.6493H182.137V13.7693H183.229ZM186.183 13.7693V22.6493H185.091V13.7693H186.183ZM190.835 19.3493C190.835 18.6693 190.971 18.0773 191.243 17.5733C191.515 17.0613 191.891 16.6653 192.371 16.3853C192.859 16.1053 193.415 15.9653 194.039 15.9653C194.847 15.9653 195.511 16.1613 196.031 16.5533C196.559 16.9453 196.907 17.4893 197.075 18.1853H195.899C195.787 17.7853 195.567 17.4693 195.239 17.2373C194.919 17.0053 194.519 16.8893 194.039 16.8893C193.415 16.8893 192.911 17.1053 192.527 17.5373C192.143 17.9613 191.951 18.5653 191.951 19.3493C191.951 20.1413 192.143 20.7533 192.527 21.1853C192.911 21.6173 193.415 21.8333 194.039 21.8333C194.519 21.8333 194.919 21.7213 195.239 21.4973C195.559 21.2733 195.779 20.9533 195.899 20.5373H197.075C196.899 21.2093 196.547 21.7493 196.019 22.1573C195.491 22.5573 194.831 22.7573 194.039 22.7573C193.415 22.7573 192.859 22.6173 192.371 22.3373C191.891 22.0573 191.515 21.6613 191.243 21.1493C190.971 20.6373 190.835 20.0373 190.835 19.3493ZM199.624 13.7693V22.6493H198.532V13.7693H199.624ZM202.049 15.0053C201.841 15.0053 201.665 14.9333 201.521 14.7893C201.377 14.6453 201.305 14.4693 201.305 14.2613C201.305 14.0533 201.377 13.8773 201.521 13.7333C201.665 13.5893 201.841 13.5173 202.049 13.5173C202.249 13.5173 202.417 13.5893 202.553 13.7333C202.697 13.8773 202.769 14.0533 202.769 14.2613C202.769 14.4693 202.697 14.6453 202.553 14.7893C202.417 14.9333 202.249 15.0053 202.049 15.0053ZM202.577 16.0733V22.6493H201.485V16.0733H202.577ZM210.438 19.1093C210.438 19.3173 210.426 19.5373 210.402 19.7693H205.146C205.186 20.4173 205.406 20.9253 205.806 21.2933C206.214 21.6533 206.706 21.8333 207.282 21.8333C207.754 21.8333 208.146 21.7253 208.458 21.5093C208.778 21.2853 209.002 20.9893 209.13 20.6213H210.306C210.13 21.2533 209.778 21.7693 209.25 22.1693C208.722 22.5613 208.066 22.7573 207.282 22.7573C206.658 22.7573 206.098 22.6173 205.602 22.3373C205.114 22.0573 204.73 21.6613 204.45 21.1493C204.17 20.6293 204.03 20.0293 204.03 19.3493C204.03 18.6693 204.166 18.0733 204.438 17.5613C204.71 17.0493 205.09 16.6573 205.578 16.3853C206.074 16.1053 206.642 15.9653 207.282 15.9653C207.906 15.9653 208.458 16.1013 208.938 16.3733C209.418 16.6453 209.786 17.0213 210.042 17.5013C210.306 17.9733 210.438 18.5093 210.438 19.1093ZM209.31 18.8813C209.31 18.4653 209.218 18.1093 209.034 17.8133C208.85 17.5093 208.598 17.2813 208.278 17.1293C207.966 16.9693 207.618 16.8893 207.234 16.8893C206.682 16.8893 206.21 17.0653 205.818 17.4173C205.434 17.7693 205.214 18.2573 205.158 18.8813H209.31ZM215.084 15.9533C215.884 15.9533 216.532 16.1973 217.028 16.6853C217.524 17.1653 217.772 17.8613 217.772 18.7733V22.6493H216.692V18.9293C216.692 18.2733 216.528 17.7733 216.2 17.4293C215.872 17.0773 215.424 16.9013 214.856 16.9013C214.28 16.9013 213.82 17.0813 213.476 17.4413C213.14 17.8013 212.972 18.3253 212.972 19.0133V22.6493H211.88V16.0733H212.972V17.0093C213.188 16.6733 213.48 16.4133 213.848 16.2293C214.224 16.0453 214.636 15.9533 215.084 15.9533ZM220.887 16.9733V20.8493C220.887 21.1693 220.955 21.3973 221.091 21.5333C221.227 21.6613 221.463 21.7253 221.799 21.7253H222.603V22.6493H221.619C221.011 22.6493 220.555 22.5093 220.251 22.2293C219.947 21.9493 219.795 21.4893 219.795 20.8493V16.9733H218.943V16.0733H219.795V14.4173H220.887V16.0733H222.603V16.9733H220.887ZM226.255 22.7573C225.751 22.7573 225.299 22.6733 224.899 22.5053C224.499 22.3293 224.183 22.0893 223.951 21.7853C223.719 21.4733 223.591 21.1173 223.567 20.7173H224.695C224.727 21.0453 224.879 21.3133 225.151 21.5213C225.431 21.7293 225.795 21.8333 226.243 21.8333C226.659 21.8333 226.987 21.7413 227.227 21.5573C227.467 21.3733 227.587 21.1413 227.587 20.8613C227.587 20.5733 227.459 20.3613 227.203 20.2253C226.947 20.0813 226.551 19.9413 226.015 19.8053C225.527 19.6773 225.127 19.5493 224.815 19.4213C224.511 19.2853 224.247 19.0893 224.023 18.8333C223.807 18.5693 223.699 18.2253 223.699 17.8013C223.699 17.4653 223.799 17.1573 223.999 16.8773C224.199 16.5973 224.483 16.3773 224.851 16.2173C225.219 16.0493 225.639 15.9653 226.111 15.9653C226.839 15.9653 227.427 16.1493 227.875 16.5173C228.323 16.8853 228.563 17.3893 228.595 18.0293H227.503C227.479 17.6853 227.339 17.4093 227.083 17.2013C226.835 16.9933 226.499 16.8893 226.075 16.8893C225.683 16.8893 225.371 16.9733 225.139 17.1413C224.907 17.3093 224.791 17.5293 224.791 17.8013C224.791 18.0173 224.859 18.1973 224.995 18.3413C225.139 18.4773 225.315 18.5893 225.523 18.6773C225.739 18.7573 226.035 18.8493 226.411 18.9533C226.883 19.0813 227.267 19.2093 227.563 19.3373C227.859 19.4573 228.111 19.6413 228.319 19.8893C228.535 20.1373 228.647 20.4613 228.655 20.8613C228.655 21.2213 228.555 21.5453 228.355 21.8333C228.155 22.1213 227.871 22.3493 227.503 22.5173C227.143 22.6773 226.727 22.7573 226.255 22.7573Z" fill="#464255"/>
<path d="M696.016 42.6443H698.944V43.5323H694.924V35.1683H696.016V42.6443ZM699.696 40.2203C699.696 39.5483 699.832 38.9603 700.104 38.4563C700.376 37.9443 700.748 37.5483 701.22 37.2683C701.7 36.9883 702.232 36.8483 702.816 36.8483C703.392 36.8483 703.892 36.9723 704.316 37.2203C704.74 37.4683 705.056 37.7803 705.264 38.1563V36.9563H706.368V43.5323H705.264V42.3083C705.048 42.6923 704.724 43.0123 704.292 43.2683C703.868 43.5163 703.372 43.6403 702.804 43.6403C702.22 43.6403 701.692 43.4963 701.22 43.2083C700.748 42.9203 700.376 42.5163 700.104 41.9963C699.832 41.4763 699.696 40.8843 699.696 40.2203ZM705.264 40.2323C705.264 39.7363 705.164 39.3043 704.964 38.9363C704.764 38.5683 704.492 38.2883 704.148 38.0963C703.812 37.8963 703.44 37.7963 703.032 37.7963C702.624 37.7963 702.252 37.8923 701.916 38.0843C701.58 38.2763 701.312 38.5563 701.112 38.9243C700.912 39.2923 700.812 39.7243 700.812 40.2203C700.812 40.7243 700.912 41.1643 701.112 41.5403C701.312 41.9083 701.58 42.1923 701.916 42.3923C702.252 42.5843 702.624 42.6803 703.032 42.6803C703.44 42.6803 703.812 42.5843 704.148 42.3923C704.492 42.1923 704.764 41.9083 704.964 41.5403C705.164 41.1643 705.264 40.7283 705.264 40.2323ZM710.541 43.6403C710.037 43.6403 709.585 43.5563 709.185 43.3883C708.785 43.2123 708.469 42.9723 708.237 42.6683C708.005 42.3563 707.877 42.0003 707.853 41.6003H708.981C709.013 41.9283 709.165 42.1963 709.437 42.4043C709.717 42.6123 710.081 42.7163 710.529 42.7163C710.945 42.7163 711.273 42.6243 711.513 42.4403C711.753 42.2563 711.873 42.0243 711.873 41.7443C711.873 41.4563 711.745 41.2443 711.489 41.1083C711.233 40.9643 710.837 40.8243 710.301 40.6883C709.813 40.5603 709.413 40.4323 709.101 40.3043C708.797 40.1683 708.533 39.9723 708.309 39.7163C708.093 39.4523 707.985 39.1083 707.985 38.6843C707.985 38.3483 708.085 38.0403 708.285 37.7603C708.485 37.4803 708.769 37.2603 709.137 37.1003C709.505 36.9323 709.925 36.8483 710.397 36.8483C711.125 36.8483 711.713 37.0323 712.161 37.4003C712.609 37.7683 712.849 38.2723 712.881 38.9123H711.789C711.765 38.5683 711.625 38.2923 711.369 38.0843C711.121 37.8763 710.785 37.7723 710.361 37.7723C709.969 37.7723 709.657 37.8563 709.425 38.0243C709.193 38.1923 709.077 38.4123 709.077 38.6843C709.077 38.9003 709.145 39.0803 709.281 39.2243C709.425 39.3603 709.601 39.4723 709.809 39.5603C710.025 39.6403 710.321 39.7323 710.697 39.8363C711.169 39.9643 711.553 40.0923 711.849 40.2203C712.145 40.3403 712.397 40.5243 712.605 40.7723C712.821 41.0203 712.933 41.3443 712.941 41.7443C712.941 42.1043 712.841 42.4283 712.641 42.7163C712.441 43.0043 712.157 43.2323 711.789 43.4003C711.429 43.5603 711.013 43.6403 710.541 43.6403ZM715.815 37.8563V41.7323C715.815 42.0523 715.883 42.2803 716.019 42.4163C716.155 42.5443 716.391 42.6083 716.727 42.6083H717.531V43.5323H716.547C715.939 43.5323 715.483 43.3923 715.179 43.1123C714.875 42.8323 714.723 42.3723 714.723 41.7323V37.8563H713.871V36.9563H714.723V35.3003H715.815V36.9563H717.531V37.8563H715.815ZM727.213 35.7083L723.877 43.5323H722.773L726.157 35.8163H721.525V34.8803H727.213V35.7083ZM731.395 40.2203C731.395 39.5483 731.531 38.9603 731.803 38.4563C732.075 37.9443 732.447 37.5483 732.919 37.2683C733.399 36.9883 733.935 36.8483 734.527 36.8483C735.039 36.8483 735.515 36.9683 735.955 37.2083C736.395 37.4403 736.731 37.7483 736.963 38.1323V34.6523H738.067V43.5323H736.963V42.2963C736.747 42.6883 736.427 43.0123 736.003 43.2683C735.579 43.5163 735.083 43.6403 734.515 43.6403C733.931 43.6403 733.399 43.4963 732.919 43.2083C732.447 42.9203 732.075 42.5163 731.803 41.9963C731.531 41.4763 731.395 40.8843 731.395 40.2203ZM736.963 40.2323C736.963 39.7363 736.863 39.3043 736.663 38.9363C736.463 38.5683 736.191 38.2883 735.847 38.0963C735.511 37.8963 735.139 37.7963 734.731 37.7963C734.323 37.7963 733.951 37.8923 733.615 38.0843C733.279 38.2763 733.011 38.5563 732.811 38.9243C732.611 39.2923 732.511 39.7243 732.511 40.2203C732.511 40.7243 732.611 41.1643 732.811 41.5403C733.011 41.9083 733.279 42.1923 733.615 42.3923C733.951 42.5843 734.323 42.6803 734.731 42.6803C735.139 42.6803 735.511 42.5843 735.847 42.3923C736.191 42.1923 736.463 41.9083 736.663 41.5403C736.863 41.1643 736.963 40.7283 736.963 40.2323ZM739.504 40.2203C739.504 39.5483 739.64 38.9603 739.912 38.4563C740.184 37.9443 740.556 37.5483 741.028 37.2683C741.508 36.9883 742.04 36.8483 742.624 36.8483C743.2 36.8483 743.7 36.9723 744.124 37.2203C744.548 37.4683 744.864 37.7803 745.072 38.1563V36.9563H746.176V43.5323H745.072V42.3083C744.856 42.6923 744.532 43.0123 744.1 43.2683C743.676 43.5163 743.18 43.6403 742.612 43.6403C742.028 43.6403 741.5 43.4963 741.028 43.2083C740.556 42.9203 740.184 42.5163 739.912 41.9963C739.64 41.4763 739.504 40.8843 739.504 40.2203ZM745.072 40.2323C745.072 39.7363 744.972 39.3043 744.772 38.9363C744.572 38.5683 744.3 38.2883 743.956 38.0963C743.62 37.8963 743.248 37.7963 742.84 37.7963C742.432 37.7963 742.06 37.8923 741.724 38.0843C741.388 38.2763 741.12 38.5563 740.92 38.9243C740.72 39.2923 740.62 39.7243 740.62 40.2203C740.62 40.7243 740.72 41.1643 740.92 41.5403C741.12 41.9083 741.388 42.1923 741.724 42.3923C742.06 42.5843 742.432 42.6803 742.84 42.6803C743.248 42.6803 743.62 42.5843 743.956 42.3923C744.3 42.1923 744.572 41.9083 744.772 41.5403C744.972 41.1643 745.072 40.7283 745.072 40.2323ZM753.686 36.9563L749.726 46.6283H748.598L749.894 43.4603L747.242 36.9563H748.454L750.518 42.2843L752.558 36.9563H753.686ZM757.111 43.6403C756.607 43.6403 756.155 43.5563 755.755 43.3883C755.355 43.2123 755.039 42.9723 754.807 42.6683C754.575 42.3563 754.447 42.0003 754.423 41.6003H755.551C755.583 41.9283 755.735 42.1963 756.007 42.4043C756.287 42.6123 756.651 42.7163 757.099 42.7163C757.515 42.7163 757.843 42.6243 758.083 42.4403C758.323 42.2563 758.443 42.0243 758.443 41.7443C758.443 41.4563 758.315 41.2443 758.059 41.1083C757.803 40.9643 757.407 40.8243 756.871 40.6883C756.383 40.5603 755.983 40.4323 755.671 40.3043C755.367 40.1683 755.103 39.9723 754.879 39.7163C754.663 39.4523 754.555 39.1083 754.555 38.6843C754.555 38.3483 754.655 38.0403 754.855 37.7603C755.055 37.4803 755.339 37.2603 755.707 37.1003C756.075 36.9323 756.495 36.8483 756.967 36.8483C757.695 36.8483 758.283 37.0323 758.731 37.4003C759.179 37.7683 759.419 38.2723 759.451 38.9123H758.359C758.335 38.5683 758.195 38.2923 757.939 38.0843C757.691 37.8763 757.355 37.7723 756.931 37.7723C756.539 37.7723 756.227 37.8563 755.995 38.0243C755.763 38.1923 755.647 38.4123 755.647 38.6843C755.647 38.9003 755.715 39.0803 755.851 39.2243C755.995 39.3603 756.171 39.4723 756.379 39.5603C756.595 39.6403 756.891 39.7323 757.267 39.8363C757.739 39.9643 758.123 40.0923 758.419 40.2203C758.715 40.3403 758.967 40.5243 759.175 40.7723C759.391 41.0203 759.503 41.3443 759.511 41.7443C759.511 42.1043 759.411 42.4283 759.211 42.7163C759.011 43.0043 758.727 43.2323 758.359 43.4003C757.999 43.5603 757.583 43.6403 757.111 43.6403Z" fill="#464255"/>
<path d="M611.471 22.9217V20.8577L619.535 9.2897H622.847V20.5457H625.079V22.9217H622.847V26.5697H620.159V22.9217H611.471ZM620.279 12.0737L614.615 20.5457H620.279V12.0737ZM628.858 22.8497C630.394 21.5217 631.602 20.4337 632.482 19.5857C633.378 18.7217 634.122 17.8257 634.714 16.8977C635.306 15.9697 635.602 15.0417 635.602 14.1137C635.602 13.1537 635.37 12.4017 634.906 11.8577C634.458 11.3137 633.746 11.0417 632.77 11.0417C631.826 11.0417 631.09 11.3457 630.562 11.9537C630.05 12.5457 629.778 13.3457 629.746 14.3537H627.106C627.154 12.5297 627.698 11.1377 628.738 10.1777C629.794 9.2017 631.13 8.7137 632.746 8.7137C634.49 8.7137 635.85 9.1937 636.826 10.1537C637.818 11.1137 638.314 12.3937 638.314 13.9937C638.314 15.1457 638.018 16.2577 637.426 17.3297C636.85 18.3857 636.154 19.3377 635.338 20.1857C634.538 21.0177 633.514 21.9857 632.266 23.0897L631.186 24.0497H638.794V26.3297H627.13V24.3377L628.858 22.8497ZM641.198 17.5937C641.198 14.8257 641.662 12.6657 642.59 11.1137C643.534 9.5457 645.15 8.7617 647.438 8.7617C649.726 8.7617 651.334 9.5457 652.262 11.1137C653.206 12.6657 653.678 14.8257 653.678 17.5937C653.678 20.3937 653.206 22.5857 652.262 24.1697C651.334 25.7377 649.726 26.5217 647.438 26.5217C645.15 26.5217 643.534 25.7377 642.59 24.1697C641.662 22.5857 641.198 20.3937 641.198 17.5937ZM650.99 17.5937C650.99 16.2977 650.902 15.2017 650.726 14.3057C650.566 13.4097 650.23 12.6817 649.718 12.1217C649.206 11.5457 648.446 11.2577 647.438 11.2577C646.43 11.2577 645.67 11.5457 645.158 12.1217C644.646 12.6817 644.302 13.4097 644.126 14.3057C643.966 15.2017 643.886 16.2977 643.886 17.5937C643.886 18.9377 643.966 20.0657 644.126 20.9777C644.286 21.8897 644.622 22.6257 645.134 23.1857C645.662 23.7457 646.43 24.0257 647.438 24.0257C648.446 24.0257 649.206 23.7457 649.718 23.1857C650.246 22.6257 650.59 21.8897 650.75 20.9777C650.91 20.0657 650.99 18.9377 650.99 17.5937ZM662.165 19.9697L668.261 26.5697H664.565L659.669 20.8817V26.5697H656.933V8.8097H659.669V19.1297L664.469 13.3457H668.261L662.165 19.9697ZM687.232 9.8897V12.1217H682.792V26.5697H680.056V12.1217H675.592V9.8897H687.232ZM695.739 26.7857C694.491 26.7857 693.363 26.5057 692.355 25.9457C691.347 25.3697 690.555 24.5697 689.979 23.5457C689.403 22.5057 689.115 21.3057 689.115 19.9457C689.115 18.6017 689.411 17.4097 690.003 16.3697C690.595 15.3297 691.403 14.5297 692.427 13.9697C693.451 13.4097 694.595 13.1297 695.859 13.1297C697.123 13.1297 698.267 13.4097 699.291 13.9697C700.315 14.5297 701.123 15.3297 701.715 16.3697C702.307 17.4097 702.603 18.6017 702.603 19.9457C702.603 21.2897 702.299 22.4817 701.691 23.5217C701.083 24.5617 700.251 25.3697 699.195 25.9457C698.155 26.5057 697.003 26.7857 695.739 26.7857ZM695.739 24.4097C696.443 24.4097 697.099 24.2417 697.707 23.9057C698.331 23.5697 698.835 23.0657 699.219 22.3937C699.603 21.7217 699.795 20.9057 699.795 19.9457C699.795 18.9857 699.611 18.1777 699.243 17.5217C698.875 16.8497 698.387 16.3457 697.779 16.0097C697.171 15.6737 696.515 15.5057 695.811 15.5057C695.107 15.5057 694.451 15.6737 693.843 16.0097C693.251 16.3457 692.779 16.8497 692.427 17.5217C692.075 18.1777 691.899 18.9857 691.899 19.9457C691.899 21.3697 692.259 22.4737 692.979 23.2577C693.715 24.0257 694.635 24.4097 695.739 24.4097ZM710.54 19.9697L716.636 26.5697H712.94L708.044 20.8817V26.5697H705.308V8.8097H708.044V19.1297L712.844 13.3457H716.636L710.54 19.9697ZM730.717 19.6337C730.717 20.1297 730.685 20.5777 730.621 20.9777H720.517C720.597 22.0337 720.989 22.8817 721.693 23.5217C722.397 24.1617 723.261 24.4817 724.285 24.4817C725.757 24.4817 726.797 23.8657 727.405 22.6337H730.357C729.957 23.8497 729.229 24.8497 728.173 25.6337C727.133 26.4017 725.837 26.7857 724.285 26.7857C723.021 26.7857 721.885 26.5057 720.877 25.9457C719.885 25.3697 719.101 24.5697 718.525 23.5457C717.965 22.5057 717.685 21.3057 717.685 19.9457C717.685 18.5857 717.957 17.3937 718.501 16.3697C719.061 15.3297 719.837 14.5297 720.829 13.9697C721.837 13.4097 722.989 13.1297 724.285 13.1297C725.533 13.1297 726.645 13.4017 727.621 13.9457C728.597 14.4897 729.357 15.2577 729.901 16.2497C730.445 17.2257 730.717 18.3537 730.717 19.6337ZM727.861 18.7697C727.845 17.7617 727.485 16.9537 726.781 16.3457C726.077 15.7377 725.205 15.4337 724.165 15.4337C723.221 15.4337 722.413 15.7377 721.741 16.3457C721.069 16.9377 720.669 17.7457 720.541 18.7697H727.861ZM740.081 13.1297C741.121 13.1297 742.049 13.3457 742.865 13.7777C743.697 14.2097 744.345 14.8497 744.809 15.6977C745.273 16.5457 745.505 17.5697 745.505 18.7697V26.5697H742.793V19.1777C742.793 17.9937 742.497 17.0897 741.905 16.4657C741.313 15.8257 740.505 15.5057 739.481 15.5057C738.457 15.5057 737.641 15.8257 737.033 16.4657C736.441 17.0897 736.145 17.9937 736.145 19.1777V26.5697H733.409V13.3457H736.145V14.8577C736.593 14.3137 737.161 13.8897 737.849 13.5857C738.553 13.2817 739.297 13.1297 740.081 13.1297ZM753.795 26.7857C752.755 26.7857 751.819 26.6017 750.987 26.2337C750.171 25.8497 749.523 25.3377 749.043 24.6977C748.563 24.0417 748.307 23.3137 748.275 22.5137H751.107C751.155 23.0737 751.419 23.5457 751.899 23.9297C752.395 24.2977 753.011 24.4817 753.747 24.4817C754.515 24.4817 755.107 24.3377 755.523 24.0497C755.955 23.7457 756.171 23.3617 756.171 22.8977C756.171 22.4017 755.931 22.0337 755.451 21.7937C754.987 21.5537 754.243 21.2897 753.219 21.0017C752.227 20.7297 751.419 20.4657 750.795 20.2097C750.171 19.9537 749.627 19.5617 749.163 19.0337C748.715 18.5057 748.491 17.8097 748.491 16.9457C748.491 16.2417 748.699 15.6017 749.115 15.0257C749.531 14.4337 750.123 13.9697 750.891 13.6337C751.675 13.2977 752.571 13.1297 753.579 13.1297C755.083 13.1297 756.291 13.5137 757.203 14.2817C758.131 15.0337 758.627 16.0657 758.691 17.3777H755.955C755.907 16.7857 755.667 16.3137 755.235 15.9617C754.803 15.6097 754.219 15.4337 753.483 15.4337C752.763 15.4337 752.211 15.5697 751.827 15.8417C751.443 16.1137 751.251 16.4737 751.251 16.9217C751.251 17.2737 751.379 17.5697 751.635 17.8097C751.891 18.0497 752.203 18.2417 752.571 18.3857C752.939 18.5137 753.483 18.6817 754.203 18.8897C755.163 19.1457 755.947 19.4097 756.555 19.6817C757.179 19.9377 757.715 20.3217 758.163 20.8337C758.611 21.3457 758.843 22.0257 758.859 22.8737C758.859 23.6257 758.651 24.2977 758.235 24.8897C757.819 25.4817 757.227 25.9457 756.459 26.2817C755.707 26.6177 754.819 26.7857 753.795 26.7857Z" fill="#464255"/>
<defs>
<linearGradient id="paint0_linear_22_1992" x1="128.413" y1="117.648" x2="128.413" y2="247.026" gradientUnits="userSpaceOnUse">
<stop stop-color="#4A5C77"/>
<stop offset="1" stop-color="#9BB7C2"/>
</linearGradient>
<linearGradient id="paint1_linear_22_1992" x1="228.048" y1="192.244" x2="228.048" y2="247.026" gradientUnits="userSpaceOnUse">
<stop stop-color="#4A5C77"/>
<stop offset="1" stop-color="#9BB7C2"/>
</linearGradient>
<linearGradient id="paint2_linear_22_1992" x1="327.683" y1="154.946" x2="327.683" y2="247.026" gradientUnits="userSpaceOnUse">
<stop stop-color="#4A5C77"/>
<stop offset="1" stop-color="#9BB7C2"/>
</linearGradient>
<linearGradient id="paint3_linear_22_1992" x1="427.318" y1="222.549" x2="427.318" y2="247.026" gradientUnits="userSpaceOnUse">
<stop stop-color="#4A5C77"/>
<stop offset="1" stop-color="#9BB7C2"/>
</linearGradient>
<linearGradient id="paint4_linear_22_1992" x1="526.953" y1="170.099" x2="526.953" y2="247.026" gradientUnits="userSpaceOnUse">
<stop stop-color="#4A5C77"/>
<stop offset="1" stop-color="#9BB7C2"/>
</linearGradient>
<linearGradient id="paint5_linear_22_1992" x1="626.588" y1="193.41" x2="626.588" y2="247.026" gradientUnits="userSpaceOnUse">
<stop stop-color="#4A5C77"/>
<stop offset="1" stop-color="#9BB7C2"/>
</linearGradient>
<linearGradient id="paint6_linear_22_1992" x1="726.223" y1="82.6807" x2="726.223" y2="247.026" gradientUnits="userSpaceOnUse">
<stop stop-color="#4A5C77"/>
<stop offset="1" stop-color="#9BB7C2"/>
</linearGradient>
</defs>
</svg>
