<svg width="84" height="23" viewBox="0 0 84 23" fill="none" xmlns="http://www.w3.org/2000/svg">
<rect width="84" height="23" rx="11.5" fill="#FFBB54" fill-opacity="0.15"/>
<path d="M11.125 12.75C11.8154 12.75 12.375 12.1904 12.375 11.5C12.375 10.8096 11.8154 10.25 11.125 10.25C10.4346 10.25 9.875 10.8096 9.875 11.5C9.875 12.1904 10.4346 12.75 11.125 12.75Z" fill="#FFBB54"/>
<path d="M15.5 12.75C16.1904 12.75 16.75 12.1904 16.75 11.5C16.75 10.8096 16.1904 10.25 15.5 10.25C14.8096 10.25 14.25 10.8096 14.25 11.5C14.25 12.1904 14.8096 12.75 15.5 12.75Z" fill="#FFBB54"/>
<path d="M19.875 12.75C20.5654 12.75 21.125 12.1904 21.125 11.5C21.125 10.8096 20.5654 10.25 19.875 10.25C19.1846 10.25 18.625 10.8096 18.625 11.5C18.625 12.1904 19.1846 12.75 19.875 12.75Z" fill="#FFBB54"/>
<path d="M34.776 6.27V7.572H30.646V10.442H33.866V11.744H30.646V16H29.05V6.27H34.776ZM36.1231 12.108C36.1231 11.3333 36.2817 10.6473 36.5991 10.05C36.9257 9.45267 37.3644 8.99067 37.9151 8.664C38.4751 8.328 39.0911 8.16 39.7631 8.16C40.3697 8.16 40.8971 8.28133 41.3451 8.524C41.8024 8.75733 42.1664 9.05133 42.4371 9.406V8.286H44.0471V16H42.4371V14.852C42.1664 15.216 41.7977 15.5193 41.3311 15.762C40.8644 16.0047 40.3324 16.126 39.7351 16.126C39.0724 16.126 38.4657 15.958 37.9151 15.622C37.3644 15.2767 36.9257 14.8007 36.5991 14.194C36.2817 13.578 36.1231 12.8827 36.1231 12.108ZM42.4371 12.136C42.4371 11.604 42.3251 11.142 42.1011 10.75C41.8864 10.358 41.6017 10.0593 41.2471 9.854C40.8924 9.64867 40.5097 9.546 40.0991 9.546C39.6884 9.546 39.3057 9.64867 38.9511 9.854C38.5964 10.05 38.3071 10.344 38.0831 10.736C37.8684 11.1187 37.7611 11.576 37.7611 12.108C37.7611 12.64 37.8684 13.1067 38.0831 13.508C38.3071 13.9093 38.5964 14.2173 38.9511 14.432C39.3151 14.6373 39.6977 14.74 40.0991 14.74C40.5097 14.74 40.8924 14.6373 41.2471 14.432C41.6017 14.2267 41.8864 13.928 42.1011 13.536C42.3251 13.1347 42.4371 12.668 42.4371 12.136ZM47.3554 7.264C47.066 7.264 46.8234 7.166 46.6274 6.97C46.4314 6.774 46.3334 6.53133 46.3334 6.242C46.3334 5.95267 46.4314 5.71 46.6274 5.514C46.8234 5.318 47.066 5.22 47.3554 5.22C47.6354 5.22 47.8734 5.318 48.0694 5.514C48.2654 5.71 48.3634 5.95267 48.3634 6.242C48.3634 6.53133 48.2654 6.774 48.0694 6.97C47.8734 7.166 47.6354 7.264 47.3554 7.264ZM48.1394 8.286V16H46.5434V8.286H48.1394ZM52.2308 5.64V16H50.6348V5.64H52.2308ZM61.7962 11.954C61.7962 12.2433 61.7775 12.5047 61.7402 12.738H55.8462C55.8928 13.354 56.1215 13.8487 56.5322 14.222C56.9428 14.5953 57.4468 14.782 58.0442 14.782C58.9028 14.782 59.5095 14.4227 59.8642 13.704H61.5862C61.3528 14.4133 60.9282 14.9967 60.3122 15.454C59.7055 15.902 58.9495 16.126 58.0442 16.126C57.3068 16.126 56.6442 15.9627 56.0562 15.636C55.4775 15.3 55.0202 14.8333 54.6842 14.236C54.3575 13.6293 54.1942 12.9293 54.1942 12.136C54.1942 11.3427 54.3528 10.6473 54.6702 10.05C54.9968 9.44333 55.4495 8.97667 56.0282 8.65C56.6162 8.32333 57.2882 8.16 58.0442 8.16C58.7722 8.16 59.4208 8.31867 59.9902 8.636C60.5595 8.95333 61.0028 9.40133 61.3202 9.98C61.6375 10.5493 61.7962 11.2073 61.7962 11.954ZM60.1302 11.45C60.1208 10.862 59.9108 10.3907 59.5002 10.036C59.0895 9.68133 58.5808 9.504 57.9742 9.504C57.4235 9.504 56.9522 9.68133 56.5602 10.036C56.1682 10.3813 55.9348 10.8527 55.8602 11.45H60.1302ZM63.2348 12.108C63.2348 11.3333 63.3935 10.6473 63.7108 10.05C64.0375 9.45267 64.4761 8.99067 65.0268 8.664C65.5868 8.328 66.2075 8.16 66.8888 8.16C67.3928 8.16 67.8875 8.272 68.3728 8.496C68.8675 8.71067 69.2595 9 69.5488 9.364V5.64H71.1588V16H69.5488V14.838C69.2875 15.2113 68.9235 15.5193 68.4568 15.762C67.9995 16.0047 67.4721 16.126 66.8748 16.126C66.2028 16.126 65.5868 15.958 65.0268 15.622C64.4761 15.2767 64.0375 14.8007 63.7108 14.194C63.3935 13.578 63.2348 12.8827 63.2348 12.108ZM69.5488 12.136C69.5488 11.604 69.4368 11.142 69.2128 10.75C68.9981 10.358 68.7135 10.0593 68.3588 9.854C68.0041 9.64867 67.6215 9.546 67.2108 9.546C66.8001 9.546 66.4175 9.64867 66.0628 9.854C65.7081 10.05 65.4188 10.344 65.1948 10.736C64.9801 11.1187 64.8728 11.576 64.8728 12.108C64.8728 12.64 64.9801 13.1067 65.1948 13.508C65.4188 13.9093 65.7081 14.2173 66.0628 14.432C66.4268 14.6373 66.8095 14.74 67.2108 14.74C67.6215 14.74 68.0041 14.6373 68.3588 14.432C68.7135 14.2267 68.9981 13.928 69.2128 13.536C69.4368 13.1347 69.5488 12.668 69.5488 12.136Z" fill="#FFBB54"/>
</svg>
