<svg width="19" height="16" viewBox="0 0 19 16" fill="none" xmlns="http://www.w3.org/2000/svg">
<path d="M0.875 3.66663H14.925C16.0451 3.66663 16.6052 3.66663 17.033 3.88461C17.4093 4.07636 17.7153 4.38232 17.907 4.75864C18.125 5.18647 18.125 5.74652 18.125 6.86663V11.9666C18.125 13.0867 18.125 13.6468 17.907 14.0746C17.7153 14.4509 17.4093 14.7569 17.033 14.9486C16.6052 15.1666 16.0451 15.1666 14.925 15.1666H4.075C2.95489 15.1666 2.39484 15.1666 1.96702 14.9486C1.59069 14.7569 1.28473 14.4509 1.09299 14.0746C0.875 13.6468 0.875 13.0867 0.875 11.9666V3.66663Z" fill="#99BFE9"/>
<path d="M0.875 3.66663C0.875 2.85194 0.875 2.44459 0.991912 2.11785C1.19365 1.55403 1.6374 1.11027 2.20122 0.908538C2.52797 0.791626 2.93531 0.791626 3.75 0.791626H5.92648C6.74398 0.791626 7.15273 0.791626 7.52027 0.943867C7.88782 1.09611 8.17685 1.38514 8.75491 1.9632L10.4583 3.66663H0.875V3.66663Z" fill="white" fill-opacity="0.56"/>
<path d="M6.625 8.93754L8.4356 10.7481C8.49418 10.8067 8.58915 10.8067 8.64773 10.7481L12.375 7.02087" stroke="white"/>
</svg>
