<svg width="422" height="562" viewBox="0 0 422 562" fill="none" xmlns="http://www.w3.org/2000/svg">
<mask id="path-2-outside-1_21_1514" maskUnits="userSpaceOnUse" x="49" y="19" width="319" height="319" fill="black">
<rect fill="white" x="49" y="19" width="319" height="319"/>
<path d="M363 178.5C363 263.828 293.828 333 208.5 333C123.172 333 54 263.828 54 178.5C54 93.172 123.172 24 208.5 24C293.828 24 363 93.172 363 178.5ZM127.388 178.5C127.388 223.297 163.703 259.612 208.5 259.612C253.297 259.612 289.612 223.297 289.612 178.5C289.612 133.703 253.297 97.3875 208.5 97.3875C163.703 97.3875 127.388 133.703 127.388 178.5Z"/>
</mask>
<path d="M363 178.5C363 263.828 293.828 333 208.5 333C123.172 333 54 263.828 54 178.5C54 93.172 123.172 24 208.5 24C293.828 24 363 93.172 363 178.5ZM127.388 178.5C127.388 223.297 163.703 259.612 208.5 259.612C253.297 259.612 289.612 223.297 289.612 178.5C289.612 133.703 253.297 97.3875 208.5 97.3875C163.703 97.3875 127.388 133.703 127.388 178.5Z" fill="#F0CECE"/>
<path d="M363 178.5C363 263.828 293.828 333 208.5 333C123.172 333 54 263.828 54 178.5C54 93.172 123.172 24 208.5 24C293.828 24 363 93.172 363 178.5ZM127.388 178.5C127.388 223.297 163.703 259.612 208.5 259.612C253.297 259.612 289.612 223.297 289.612 178.5C289.612 133.703 253.297 97.3875 208.5 97.3875C163.703 97.3875 127.388 133.703 127.388 178.5Z" stroke="white" stroke-width="10" mask="url(#path-2-outside-1_21_1514)"/>
<mask id="path-3-outside-2_21_1514" maskUnits="userSpaceOnUse" x="48" y="19" width="321" height="319" fill="black">
<rect fill="white" x="48" y="19" width="321" height="319"/>
<path d="M208.5 24C245.287 24 280.867 37.1261 308.84 61.0173C336.813 84.9085 355.343 117.997 361.098 154.331C366.853 190.665 359.454 227.86 340.233 259.226C321.012 290.592 291.23 314.07 256.243 325.438C221.257 336.806 183.362 335.317 149.375 321.239C115.389 307.162 87.5404 281.419 70.8395 248.641C54.1386 215.864 49.6811 178.203 58.2689 142.433C66.8566 106.662 87.926 75.1296 117.687 53.5068L160.823 112.879C145.199 124.231 134.137 140.785 129.629 159.565C125.12 178.344 127.46 198.116 136.228 215.324C144.996 232.532 159.617 246.047 177.46 253.438C195.303 260.829 215.197 261.611 233.565 255.643C251.933 249.674 267.569 237.348 277.66 220.881C287.751 204.414 291.635 184.887 288.614 165.811C285.593 146.736 275.864 129.364 261.178 116.822C246.493 104.279 227.813 97.3875 208.5 97.3875L208.5 24Z"/>
</mask>
<path d="M208.5 24C245.287 24 280.867 37.1261 308.84 61.0173C336.813 84.9085 355.343 117.997 361.098 154.331C366.853 190.665 359.454 227.86 340.233 259.226C321.012 290.592 291.23 314.07 256.243 325.438C221.257 336.806 183.362 335.317 149.375 321.239C115.389 307.162 87.5404 281.419 70.8395 248.641C54.1386 215.864 49.6811 178.203 58.2689 142.433C66.8566 106.662 87.926 75.1296 117.687 53.5068L160.823 112.879C145.199 124.231 134.137 140.785 129.629 159.565C125.12 178.344 127.46 198.116 136.228 215.324C144.996 232.532 159.617 246.047 177.46 253.438C195.303 260.829 215.197 261.611 233.565 255.643C251.933 249.674 267.569 237.348 277.66 220.881C287.751 204.414 291.635 184.887 288.614 165.811C285.593 146.736 275.864 129.364 261.178 116.822C246.493 104.279 227.813 97.3875 208.5 97.3875L208.5 24Z" fill="#62C0BB"/>
<path d="M208.5 24C245.287 24 280.867 37.1261 308.84 61.0173C336.813 84.9085 355.343 117.997 361.098 154.331C366.853 190.665 359.454 227.86 340.233 259.226C321.012 290.592 291.23 314.07 256.243 325.438C221.257 336.806 183.362 335.317 149.375 321.239C115.389 307.162 87.5404 281.419 70.8395 248.641C54.1386 215.864 49.6811 178.203 58.2689 142.433C66.8566 106.662 87.926 75.1296 117.687 53.5068L160.823 112.879C145.199 124.231 134.137 140.785 129.629 159.565C125.12 178.344 127.46 198.116 136.228 215.324C144.996 232.532 159.617 246.047 177.46 253.438C195.303 260.829 215.197 261.611 233.565 255.643C251.933 249.674 267.569 237.348 277.66 220.881C287.751 204.414 291.635 184.887 288.614 165.811C285.593 146.736 275.864 129.364 261.178 116.822C246.493 104.279 227.813 97.3875 208.5 97.3875L208.5 24Z" stroke="white" stroke-width="10" mask="url(#path-3-outside-2_21_1514)"/>
<mask id="path-4-outside-3_21_1514" maskUnits="userSpaceOnUse" x="55" y="19" width="313" height="319" fill="black">
<rect fill="white" x="55" y="19" width="313" height="319"/>
<path d="M208.5 24C236.993 24 264.932 31.8794 289.226 46.7671C313.521 61.6548 333.225 82.9708 346.161 108.358C359.096 133.746 364.759 162.217 362.524 190.622C360.288 219.027 350.241 246.261 333.493 269.313C316.745 292.364 293.949 310.335 267.625 321.239C241.3 332.143 212.473 335.555 184.331 331.098C156.188 326.641 129.827 314.488 108.16 295.983C86.4938 277.478 70.3667 253.342 61.5618 226.243L131.357 203.565C135.98 217.792 144.447 230.463 155.822 240.178C167.197 249.893 181.036 256.274 195.811 258.614C210.586 260.954 225.72 259.163 239.54 253.438C253.361 247.714 265.329 238.279 274.121 226.177C282.914 214.075 288.189 199.777 289.362 184.864C290.536 169.951 287.563 155.004 280.772 141.676C273.981 128.347 263.636 117.156 250.881 109.34C238.127 101.524 223.459 97.3875 208.5 97.3875L208.5 24Z"/>
</mask>
<path d="M208.5 24C236.993 24 264.932 31.8794 289.226 46.7671C313.521 61.6548 333.225 82.9708 346.161 108.358C359.096 133.746 364.759 162.217 362.524 190.622C360.288 219.027 350.241 246.261 333.493 269.313C316.745 292.364 293.949 310.335 267.625 321.239C241.3 332.143 212.473 335.555 184.331 331.098C156.188 326.641 129.827 314.488 108.16 295.983C86.4938 277.478 70.3667 253.342 61.5618 226.243L131.357 203.565C135.98 217.792 144.447 230.463 155.822 240.178C167.197 249.893 181.036 256.274 195.811 258.614C210.586 260.954 225.72 259.163 239.54 253.438C253.361 247.714 265.329 238.279 274.121 226.177C282.914 214.075 288.189 199.777 289.362 184.864C290.536 169.951 287.563 155.004 280.772 141.676C273.981 128.347 263.636 117.156 250.881 109.34C238.127 101.524 223.459 97.3875 208.5 97.3875L208.5 24Z" fill="#FFBB78"/>
<path d="M208.5 24C236.993 24 264.932 31.8794 289.226 46.7671C313.521 61.6548 333.225 82.9708 346.161 108.358C359.096 133.746 364.759 162.217 362.524 190.622C360.288 219.027 350.241 246.261 333.493 269.313C316.745 292.364 293.949 310.335 267.625 321.239C241.3 332.143 212.473 335.555 184.331 331.098C156.188 326.641 129.827 314.488 108.16 295.983C86.4938 277.478 70.3667 253.342 61.5618 226.243L131.357 203.565C135.98 217.792 144.447 230.463 155.822 240.178C167.197 249.893 181.036 256.274 195.811 258.614C210.586 260.954 225.72 259.163 239.54 253.438C253.361 247.714 265.329 238.279 274.121 226.177C282.914 214.075 288.189 199.777 289.362 184.864C290.536 169.951 287.563 155.004 280.772 141.676C273.981 128.347 263.636 117.156 250.881 109.34C238.127 101.524 223.459 97.3875 208.5 97.3875L208.5 24Z" stroke="white" stroke-width="10" mask="url(#path-4-outside-3_21_1514)"/>
<mask id="path-5-outside-4_21_1514" maskUnits="userSpaceOnUse" x="203" y="19" width="166" height="313" fill="black">
<rect fill="white" x="203" y="19" width="166" height="313"/>
<path d="M208.5 24C245.361 24 281.008 37.1791 309.004 61.1577C337 85.1363 355.5 118.334 361.165 154.758C366.829 191.181 359.285 228.43 339.893 259.778C320.502 291.126 290.541 314.508 255.421 325.703L233.133 255.782C251.571 249.904 267.301 237.629 277.481 221.171C287.662 204.713 291.623 185.158 288.649 166.035C285.675 146.913 275.962 129.484 261.265 116.895C246.567 104.307 227.852 97.3875 208.5 97.3875L208.5 24Z"/>
</mask>
<path d="M208.5 24C245.361 24 281.008 37.1791 309.004 61.1577C337 85.1363 355.5 118.334 361.165 154.758C366.829 191.181 359.285 228.43 339.893 259.778C320.502 291.126 290.541 314.508 255.421 325.703L233.133 255.782C251.571 249.904 267.301 237.629 277.481 221.171C287.662 204.713 291.623 185.158 288.649 166.035C285.675 146.913 275.962 129.484 261.265 116.895C246.567 104.307 227.852 97.3875 208.5 97.3875L208.5 24Z" fill="#AEC7E8"/>
<path d="M208.5 24C245.361 24 281.008 37.1791 309.004 61.1577C337 85.1363 355.5 118.334 361.165 154.758C366.829 191.181 359.285 228.43 339.893 259.778C320.502 291.126 290.541 314.508 255.421 325.703L233.133 255.782C251.571 249.904 267.301 237.629 277.481 221.171C287.662 204.713 291.623 185.158 288.649 166.035C285.675 146.913 275.962 129.484 261.265 116.895C246.567 104.307 227.852 97.3875 208.5 97.3875L208.5 24Z" stroke="white" stroke-width="10" mask="url(#path-5-outside-4_21_1514)"/>
<mask id="path-6-outside-5_21_1514" maskUnits="userSpaceOnUse" x="203" y="19" width="165" height="292" fill="black">
<rect fill="white" x="203" y="19" width="165" height="292"/>
<path d="M208.5 24C241.122 24 272.907 34.3257 299.3 53.4978C325.694 72.6698 345.342 99.7041 355.429 130.727C365.516 161.751 365.524 195.171 355.453 226.199C345.381 257.227 325.747 284.271 299.363 303.457L256.203 244.102C270.055 234.03 280.363 219.832 285.65 203.542C290.938 187.252 290.933 169.707 285.638 153.419C280.342 137.132 270.027 122.939 256.17 112.874C242.314 102.809 225.626 97.3875 208.5 97.3875L208.5 24Z"/>
</mask>
<path d="M208.5 24C241.122 24 272.907 34.3257 299.3 53.4978C325.694 72.6698 345.342 99.7041 355.429 130.727C365.516 161.751 365.524 195.171 355.453 226.199C345.381 257.227 325.747 284.271 299.363 303.457L256.203 244.102C270.055 234.03 280.363 219.832 285.65 203.542C290.938 187.252 290.933 169.707 285.638 153.419C280.342 137.132 270.027 122.939 256.17 112.874C242.314 102.809 225.626 97.3875 208.5 97.3875L208.5 24Z" fill="#E7EBB8"/>
<path d="M208.5 24C241.122 24 272.907 34.3257 299.3 53.4978C325.694 72.6698 345.342 99.7041 355.429 130.727C365.516 161.751 365.524 195.171 355.453 226.199C345.381 257.227 325.747 284.271 299.363 303.457L256.203 244.102C270.055 234.03 280.363 219.832 285.65 203.542C290.938 187.252 290.933 169.707 285.638 153.419C280.342 137.132 270.027 122.939 256.17 112.874C242.314 102.809 225.626 97.3875 208.5 97.3875L208.5 24Z" stroke="white" stroke-width="10" mask="url(#path-6-outside-5_21_1514)"/>
<path d="M180.572 191.636V192.524H178.292V200H177.2V192.524H174.908V191.636H180.572ZM184.784 200.108C184.168 200.108 183.608 199.968 183.104 199.688C182.608 199.408 182.216 199.012 181.928 198.5C181.648 197.98 181.508 197.38 181.508 196.7C181.508 196.028 181.652 195.436 181.94 194.924C182.236 194.404 182.636 194.008 183.14 193.736C183.644 193.456 184.208 193.316 184.832 193.316C185.456 193.316 186.02 193.456 186.524 193.736C187.028 194.008 187.424 194.4 187.712 194.912C188.008 195.424 188.156 196.02 188.156 196.7C188.156 197.38 188.004 197.98 187.7 198.5C187.404 199.012 187 199.408 186.488 199.688C185.976 199.968 185.408 200.108 184.784 200.108ZM184.784 199.148C185.176 199.148 185.544 199.056 185.888 198.872C186.232 198.688 186.508 198.412 186.716 198.044C186.932 197.676 187.04 197.228 187.04 196.7C187.04 196.172 186.936 195.724 186.728 195.356C186.52 194.988 186.248 194.716 185.912 194.54C185.576 194.356 185.212 194.264 184.82 194.264C184.42 194.264 184.052 194.356 183.716 194.54C183.388 194.716 183.124 194.988 182.924 195.356C182.724 195.724 182.624 196.172 182.624 196.7C182.624 197.236 182.72 197.688 182.912 198.056C183.112 198.424 183.376 198.7 183.704 198.884C184.032 199.06 184.392 199.148 184.784 199.148ZM193.264 200L190.684 197.096V200H189.592V191.12H190.684V196.34L193.216 193.424H194.74L191.644 196.7L194.752 200H193.264ZM201.768 196.46C201.768 196.668 201.756 196.888 201.732 197.12H196.476C196.516 197.768 196.736 198.276 197.136 198.644C197.544 199.004 198.036 199.184 198.612 199.184C199.084 199.184 199.476 199.076 199.788 198.86C200.108 198.636 200.332 198.34 200.46 197.972H201.636C201.46 198.604 201.108 199.12 200.58 199.52C200.052 199.912 199.396 200.108 198.612 200.108C197.988 200.108 197.428 199.968 196.932 199.688C196.444 199.408 196.06 199.012 195.78 198.5C195.5 197.98 195.36 197.38 195.36 196.7C195.36 196.02 195.496 195.424 195.768 194.912C196.04 194.4 196.42 194.008 196.908 193.736C197.404 193.456 197.972 193.316 198.612 193.316C199.236 193.316 199.788 193.452 200.268 193.724C200.748 193.996 201.116 194.372 201.372 194.852C201.636 195.324 201.768 195.86 201.768 196.46ZM200.64 196.232C200.64 195.816 200.548 195.46 200.364 195.164C200.18 194.86 199.928 194.632 199.608 194.48C199.296 194.32 198.948 194.24 198.564 194.24C198.012 194.24 197.54 194.416 197.148 194.768C196.764 195.12 196.544 195.608 196.488 196.232H200.64ZM206.413 193.304C207.213 193.304 207.861 193.548 208.357 194.036C208.853 194.516 209.101 195.212 209.101 196.124V200H208.021V196.28C208.021 195.624 207.857 195.124 207.529 194.78C207.201 194.428 206.753 194.252 206.185 194.252C205.609 194.252 205.149 194.432 204.805 194.792C204.469 195.152 204.301 195.676 204.301 196.364V200H203.209V193.424H204.301V194.36C204.517 194.024 204.809 193.764 205.177 193.58C205.553 193.396 205.965 193.304 206.413 193.304ZM213.213 200.108C212.709 200.108 212.257 200.024 211.857 199.856C211.457 199.68 211.141 199.44 210.909 199.136C210.677 198.824 210.549 198.468 210.525 198.068H211.653C211.685 198.396 211.837 198.664 212.109 198.872C212.389 199.08 212.753 199.184 213.201 199.184C213.617 199.184 213.945 199.092 214.185 198.908C214.425 198.724 214.545 198.492 214.545 198.212C214.545 197.924 214.417 197.712 214.161 197.576C213.905 197.432 213.509 197.292 212.973 197.156C212.485 197.028 212.085 196.9 211.773 196.772C211.469 196.636 211.205 196.44 210.981 196.184C210.765 195.92 210.657 195.576 210.657 195.152C210.657 194.816 210.757 194.508 210.957 194.228C211.157 193.948 211.441 193.728 211.809 193.568C212.177 193.4 212.597 193.316 213.069 193.316C213.797 193.316 214.385 193.5 214.833 193.868C215.281 194.236 215.521 194.74 215.553 195.38H214.461C214.437 195.036 214.297 194.76 214.041 194.552C213.793 194.344 213.457 194.24 213.033 194.24C212.641 194.24 212.329 194.324 212.097 194.492C211.865 194.66 211.749 194.88 211.749 195.152C211.749 195.368 211.817 195.548 211.953 195.692C212.097 195.828 212.273 195.94 212.481 196.028C212.697 196.108 212.993 196.2 213.369 196.304C213.841 196.432 214.225 196.56 214.521 196.688C214.817 196.808 215.069 196.992 215.277 197.24C215.493 197.488 215.605 197.812 215.613 198.212C215.613 198.572 215.513 198.896 215.313 199.184C215.113 199.472 214.829 199.7 214.461 199.868C214.101 200.028 213.685 200.108 213.213 200.108ZM226.186 193.424V200H225.094V199.028C224.886 199.364 224.594 199.628 224.218 199.82C223.85 200.004 223.442 200.096 222.994 200.096C222.482 200.096 222.022 199.992 221.614 199.784C221.206 199.568 220.882 199.248 220.642 198.824C220.41 198.4 220.294 197.884 220.294 197.276V193.424H221.374V197.132C221.374 197.78 221.538 198.28 221.866 198.632C222.194 198.976 222.642 199.148 223.21 199.148C223.794 199.148 224.254 198.968 224.59 198.608C224.926 198.248 225.094 197.724 225.094 197.036V193.424H226.186ZM230.357 200.108C229.853 200.108 229.401 200.024 229.001 199.856C228.601 199.68 228.285 199.44 228.053 199.136C227.821 198.824 227.693 198.468 227.669 198.068H228.797C228.829 198.396 228.981 198.664 229.253 198.872C229.533 199.08 229.897 199.184 230.345 199.184C230.761 199.184 231.089 199.092 231.329 198.908C231.569 198.724 231.689 198.492 231.689 198.212C231.689 197.924 231.561 197.712 231.305 197.576C231.049 197.432 230.653 197.292 230.117 197.156C229.629 197.028 229.229 196.9 228.917 196.772C228.613 196.636 228.349 196.44 228.125 196.184C227.909 195.92 227.801 195.576 227.801 195.152C227.801 194.816 227.901 194.508 228.101 194.228C228.301 193.948 228.585 193.728 228.953 193.568C229.321 193.4 229.741 193.316 230.213 193.316C230.941 193.316 231.529 193.5 231.977 193.868C232.425 194.236 232.665 194.74 232.697 195.38H231.605C231.581 195.036 231.441 194.76 231.185 194.552C230.937 194.344 230.601 194.24 230.177 194.24C229.785 194.24 229.473 194.324 229.241 194.492C229.009 194.66 228.893 194.88 228.893 195.152C228.893 195.368 228.961 195.548 229.097 195.692C229.241 195.828 229.417 195.94 229.625 196.028C229.841 196.108 230.137 196.2 230.513 196.304C230.985 196.432 231.369 196.56 231.665 196.688C231.961 196.808 232.213 196.992 232.421 197.24C232.637 197.488 232.749 197.812 232.757 198.212C232.757 198.572 232.657 198.896 232.457 199.184C232.257 199.472 231.973 199.7 231.605 199.868C231.245 200.028 230.829 200.108 230.357 200.108ZM240.299 196.46C240.299 196.668 240.287 196.888 240.263 197.12H235.007C235.047 197.768 235.267 198.276 235.667 198.644C236.075 199.004 236.567 199.184 237.143 199.184C237.615 199.184 238.007 199.076 238.319 198.86C238.639 198.636 238.863 198.34 238.991 197.972H240.167C239.991 198.604 239.639 199.12 239.111 199.52C238.583 199.912 237.927 200.108 237.143 200.108C236.519 200.108 235.959 199.968 235.463 199.688C234.975 199.408 234.591 199.012 234.311 198.5C234.031 197.98 233.891 197.38 233.891 196.7C233.891 196.02 234.027 195.424 234.299 194.912C234.571 194.4 234.951 194.008 235.439 193.736C235.935 193.456 236.503 193.316 237.143 193.316C237.767 193.316 238.319 193.452 238.799 193.724C239.279 193.996 239.647 194.372 239.903 194.852C240.167 195.324 240.299 195.86 240.299 196.46ZM239.171 196.232C239.171 195.816 239.079 195.46 238.895 195.164C238.711 194.86 238.459 194.632 238.139 194.48C237.827 194.32 237.479 194.24 237.095 194.24C236.543 194.24 236.071 194.416 235.679 194.768C235.295 195.12 235.075 195.608 235.019 196.232H239.171ZM241.332 196.688C241.332 196.016 241.468 195.428 241.74 194.924C242.012 194.412 242.384 194.016 242.856 193.736C243.336 193.456 243.872 193.316 244.464 193.316C244.976 193.316 245.452 193.436 245.892 193.676C246.332 193.908 246.668 194.216 246.9 194.6V191.12H248.004V200H246.9V198.764C246.684 199.156 246.364 199.48 245.94 199.736C245.516 199.984 245.02 200.108 244.452 200.108C243.868 200.108 243.336 199.964 242.856 199.676C242.384 199.388 242.012 198.984 241.74 198.464C241.468 197.944 241.332 197.352 241.332 196.688ZM246.9 196.7C246.9 196.204 246.8 195.772 246.6 195.404C246.4 195.036 246.128 194.756 245.784 194.564C245.448 194.364 245.076 194.264 244.668 194.264C244.26 194.264 243.888 194.36 243.552 194.552C243.216 194.744 242.948 195.024 242.748 195.392C242.548 195.76 242.448 196.192 242.448 196.688C242.448 197.192 242.548 197.632 242.748 198.008C242.948 198.376 243.216 198.66 243.552 198.86C243.888 199.052 244.26 199.148 244.668 199.148C245.076 199.148 245.448 199.052 245.784 198.86C246.128 198.66 246.4 198.376 246.6 198.008C246.8 197.632 246.9 197.196 246.9 196.7Z" fill="#464255"/>
<path d="M187.522 177.892C189.186 176.505 190.512 175.353 191.5 174.434C192.488 173.498 193.311 172.527 193.97 171.522C194.629 170.517 194.958 169.529 194.958 168.558C194.958 167.674 194.75 166.981 194.334 166.478C193.918 165.975 193.277 165.724 192.41 165.724C191.543 165.724 190.876 166.019 190.408 166.608C189.94 167.18 189.697 167.969 189.68 168.974H186.144C186.213 166.894 186.829 165.317 187.99 164.242C189.169 163.167 190.659 162.63 192.462 162.63C194.438 162.63 195.955 163.159 197.012 164.216C198.069 165.256 198.598 166.634 198.598 168.35C198.598 169.702 198.234 170.993 197.506 172.224C196.778 173.455 195.946 174.529 195.01 175.448C194.074 176.349 192.852 177.441 191.344 178.724H199.014V181.74H186.17V179.036L187.522 177.892ZM201.308 172.276C201.308 169.277 201.845 166.929 202.92 165.23C204.012 163.531 205.814 162.682 208.328 162.682C210.841 162.682 212.635 163.531 213.71 165.23C214.802 166.929 215.348 169.277 215.348 172.276C215.348 175.292 214.802 177.658 213.71 179.374C212.635 181.09 210.841 181.948 208.328 181.948C205.814 181.948 204.012 181.09 202.92 179.374C201.845 177.658 201.308 175.292 201.308 172.276ZM211.76 172.276C211.76 170.993 211.673 169.919 211.5 169.052C211.344 168.168 211.014 167.449 210.512 166.894C210.026 166.339 209.298 166.062 208.328 166.062C207.357 166.062 206.62 166.339 206.118 166.894C205.632 167.449 205.303 168.168 205.13 169.052C204.974 169.919 204.896 170.993 204.896 172.276C204.896 173.593 204.974 174.703 205.13 175.604C205.286 176.488 205.615 177.207 206.118 177.762C206.62 178.299 207.357 178.568 208.328 178.568C209.298 178.568 210.035 178.299 210.538 177.762C211.04 177.207 211.37 176.488 211.526 175.604C211.682 174.703 211.76 173.593 211.76 172.276ZM227.06 182L222.172 175.864V182H218.532V162.76H222.172V173.706L227.008 167.596H231.74L225.396 174.824L231.792 182H227.06Z" fill="#464255"/>
<path d="M75.436 353.636L73.012 362H71.788L69.844 355.268L67.828 362L66.616 362.012L64.276 353.636H65.44L67.264 360.728L69.28 353.636H70.504L72.424 360.704L74.26 353.636H75.436ZM79.499 362.108C78.883 362.108 78.323 361.968 77.819 361.688C77.323 361.408 76.931 361.012 76.643 360.5C76.363 359.98 76.223 359.38 76.223 358.7C76.223 358.028 76.367 357.436 76.655 356.924C76.951 356.404 77.351 356.008 77.855 355.736C78.359 355.456 78.923 355.316 79.547 355.316C80.171 355.316 80.735 355.456 81.239 355.736C81.743 356.008 82.139 356.4 82.427 356.912C82.723 357.424 82.871 358.02 82.871 358.7C82.871 359.38 82.719 359.98 82.415 360.5C82.119 361.012 81.715 361.408 81.203 361.688C80.691 361.968 80.123 362.108 79.499 362.108ZM79.499 361.148C79.891 361.148 80.259 361.056 80.603 360.872C80.947 360.688 81.223 360.412 81.431 360.044C81.647 359.676 81.755 359.228 81.755 358.7C81.755 358.172 81.651 357.724 81.443 357.356C81.235 356.988 80.963 356.716 80.627 356.54C80.291 356.356 79.927 356.264 79.535 356.264C79.135 356.264 78.767 356.356 78.431 356.54C78.103 356.716 77.839 356.988 77.639 357.356C77.439 357.724 77.339 358.172 77.339 358.7C77.339 359.236 77.435 359.688 77.627 360.056C77.827 360.424 78.091 360.7 78.419 360.884C78.747 361.06 79.107 361.148 79.499 361.148ZM85.3988 356.492C85.5908 356.116 85.8628 355.824 86.2148 355.616C86.5748 355.408 87.0108 355.304 87.5228 355.304V356.432H87.2348C86.0108 356.432 85.3988 357.096 85.3988 358.424V362H84.3068V355.424H85.3988V356.492ZM92.4554 362L89.8754 359.096V362H88.7834V353.12H89.8754V358.34L92.4074 355.424H93.9314L90.8354 358.7L93.9434 362H92.4554ZM96.0512 356.636C96.2672 356.26 96.5872 355.948 97.0112 355.7C97.4432 355.444 97.9432 355.316 98.5112 355.316C99.0952 355.316 99.6232 355.456 100.095 355.736C100.575 356.016 100.951 356.412 101.223 356.924C101.495 357.428 101.631 358.016 101.631 358.688C101.631 359.352 101.495 359.944 101.223 360.464C100.951 360.984 100.575 361.388 100.095 361.676C99.6232 361.964 99.0952 362.108 98.5112 362.108C97.9512 362.108 97.4552 361.984 97.0232 361.736C96.5992 361.48 96.2752 361.164 96.0512 360.788V365.12H94.9592V355.424H96.0512V356.636ZM100.515 358.688C100.515 358.192 100.415 357.76 100.215 357.392C100.015 357.024 99.7432 356.744 99.3992 356.552C99.0632 356.36 98.6912 356.264 98.2832 356.264C97.8832 356.264 97.5112 356.364 97.1672 356.564C96.8312 356.756 96.5592 357.04 96.3512 357.416C96.1512 357.784 96.0512 358.212 96.0512 358.7C96.0512 359.196 96.1512 359.632 96.3512 360.008C96.5592 360.376 96.8312 360.66 97.1672 360.86C97.5112 361.052 97.8832 361.148 98.2832 361.148C98.6912 361.148 99.0632 361.052 99.3992 360.86C99.7432 360.66 100.015 360.376 100.215 360.008C100.415 359.632 100.515 359.192 100.515 358.688ZM104.161 353.12V362H103.069V353.12H104.161ZM105.614 358.688C105.614 358.016 105.75 357.428 106.022 356.924C106.294 356.412 106.666 356.016 107.138 355.736C107.618 355.456 108.15 355.316 108.734 355.316C109.31 355.316 109.81 355.44 110.234 355.688C110.658 355.936 110.974 356.248 111.182 356.624V355.424H112.286V362H111.182V360.776C110.966 361.16 110.642 361.48 110.21 361.736C109.786 361.984 109.29 362.108 108.722 362.108C108.138 362.108 107.61 361.964 107.138 361.676C106.666 361.388 106.294 360.984 106.022 360.464C105.75 359.944 105.614 359.352 105.614 358.688ZM111.182 358.7C111.182 358.204 111.082 357.772 110.882 357.404C110.682 357.036 110.41 356.756 110.066 356.564C109.73 356.364 109.358 356.264 108.95 356.264C108.542 356.264 108.17 356.36 107.834 356.552C107.498 356.744 107.23 357.024 107.03 357.392C106.83 357.76 106.73 358.192 106.73 358.688C106.73 359.192 106.83 359.632 107.03 360.008C107.23 360.376 107.498 360.66 107.834 360.86C108.17 361.052 108.542 361.148 108.95 361.148C109.358 361.148 109.73 361.052 110.066 360.86C110.41 360.66 110.682 360.376 110.882 360.008C111.082 359.632 111.182 359.196 111.182 358.7ZM113.723 358.7C113.723 358.02 113.859 357.428 114.131 356.924C114.403 356.412 114.779 356.016 115.259 355.736C115.747 355.456 116.303 355.316 116.927 355.316C117.735 355.316 118.399 355.512 118.919 355.904C119.447 356.296 119.795 356.84 119.963 357.536H118.787C118.675 357.136 118.455 356.82 118.127 356.588C117.807 356.356 117.407 356.24 116.927 356.24C116.303 356.24 115.799 356.456 115.415 356.888C115.031 357.312 114.839 357.916 114.839 358.7C114.839 359.492 115.031 360.104 115.415 360.536C115.799 360.968 116.303 361.184 116.927 361.184C117.407 361.184 117.807 361.072 118.127 360.848C118.447 360.624 118.667 360.304 118.787 359.888H119.963C119.787 360.56 119.435 361.1 118.907 361.508C118.379 361.908 117.719 362.108 116.927 362.108C116.303 362.108 115.747 361.968 115.259 361.688C114.779 361.408 114.403 361.012 114.131 360.5C113.859 359.988 113.723 359.388 113.723 358.7ZM127.42 358.46C127.42 358.668 127.408 358.888 127.384 359.12H122.128C122.168 359.768 122.388 360.276 122.788 360.644C123.196 361.004 123.688 361.184 124.264 361.184C124.736 361.184 125.128 361.076 125.44 360.86C125.76 360.636 125.984 360.34 126.112 359.972H127.288C127.112 360.604 126.76 361.12 126.232 361.52C125.704 361.912 125.048 362.108 124.264 362.108C123.64 362.108 123.08 361.968 122.584 361.688C122.096 361.408 121.712 361.012 121.432 360.5C121.152 359.98 121.012 359.38 121.012 358.7C121.012 358.02 121.148 357.424 121.42 356.912C121.692 356.4 122.072 356.008 122.56 355.736C123.056 355.456 123.624 355.316 124.264 355.316C124.888 355.316 125.44 355.452 125.92 355.724C126.4 355.996 126.768 356.372 127.024 356.852C127.288 357.324 127.42 357.86 127.42 358.46ZM126.292 358.232C126.292 357.816 126.2 357.46 126.016 357.164C125.832 356.86 125.58 356.632 125.26 356.48C124.948 356.32 124.6 356.24 124.216 356.24C123.664 356.24 123.192 356.416 122.8 356.768C122.416 357.12 122.196 357.608 122.14 358.232H126.292ZM136.465 362L134.473 358.58H133.153V362H132.061V353.636H134.761C135.393 353.636 135.925 353.744 136.357 353.96C136.797 354.176 137.125 354.468 137.341 354.836C137.557 355.204 137.665 355.624 137.665 356.096C137.665 356.672 137.497 357.18 137.161 357.62C136.833 358.06 136.337 358.352 135.673 358.496L137.773 362H136.465ZM133.153 357.704H134.761C135.353 357.704 135.797 357.56 136.093 357.272C136.389 356.976 136.537 356.584 136.537 356.096C136.537 355.6 136.389 355.216 136.093 354.944C135.805 354.672 135.361 354.536 134.761 354.536H133.153V357.704ZM145.362 358.46C145.362 358.668 145.35 358.888 145.326 359.12H140.07C140.11 359.768 140.33 360.276 140.73 360.644C141.138 361.004 141.63 361.184 142.206 361.184C142.678 361.184 143.07 361.076 143.382 360.86C143.702 360.636 143.926 360.34 144.054 359.972H145.23C145.054 360.604 144.702 361.12 144.174 361.52C143.646 361.912 142.99 362.108 142.206 362.108C141.582 362.108 141.022 361.968 140.526 361.688C140.038 361.408 139.654 361.012 139.374 360.5C139.094 359.98 138.954 359.38 138.954 358.7C138.954 358.02 139.09 357.424 139.362 356.912C139.634 356.4 140.014 356.008 140.502 355.736C140.998 355.456 141.566 355.316 142.206 355.316C142.83 355.316 143.382 355.452 143.862 355.724C144.342 355.996 144.71 356.372 144.966 356.852C145.23 357.324 145.362 357.86 145.362 358.46ZM144.234 358.232C144.234 357.816 144.142 357.46 143.958 357.164C143.774 356.86 143.522 356.632 143.202 356.48C142.89 356.32 142.542 356.24 142.158 356.24C141.606 356.24 141.134 356.416 140.742 356.768C140.358 357.12 140.138 357.608 140.082 358.232H144.234ZM147.895 353.12V362H146.803V353.12H147.895ZM149.348 358.688C149.348 358.016 149.484 357.428 149.756 356.924C150.028 356.412 150.4 356.016 150.872 355.736C151.352 355.456 151.884 355.316 152.468 355.316C153.044 355.316 153.544 355.44 153.968 355.688C154.392 355.936 154.708 356.248 154.916 356.624V355.424H156.02V362H154.916V360.776C154.7 361.16 154.376 361.48 153.944 361.736C153.52 361.984 153.024 362.108 152.456 362.108C151.872 362.108 151.344 361.964 150.872 361.676C150.4 361.388 150.028 360.984 149.756 360.464C149.484 359.944 149.348 359.352 149.348 358.688ZM154.916 358.7C154.916 358.204 154.816 357.772 154.616 357.404C154.416 357.036 154.144 356.756 153.8 356.564C153.464 356.364 153.092 356.264 152.684 356.264C152.276 356.264 151.904 356.36 151.568 356.552C151.232 356.744 150.964 357.024 150.764 357.392C150.564 357.76 150.464 358.192 150.464 358.688C150.464 359.192 150.564 359.632 150.764 360.008C150.964 360.376 151.232 360.66 151.568 360.86C151.904 361.052 152.276 361.148 152.684 361.148C153.092 361.148 153.464 361.052 153.8 360.86C154.144 360.66 154.416 360.376 154.616 360.008C154.816 359.632 154.916 359.196 154.916 358.7ZM159.197 356.324V360.2C159.197 360.52 159.265 360.748 159.401 360.884C159.537 361.012 159.773 361.076 160.109 361.076H160.913V362H159.929C159.321 362 158.865 361.86 158.561 361.58C158.257 361.3 158.105 360.84 158.105 360.2V356.324H157.253V355.424H158.105V353.768H159.197V355.424H160.913V356.324H159.197ZM162.801 354.356C162.593 354.356 162.417 354.284 162.273 354.14C162.129 353.996 162.057 353.82 162.057 353.612C162.057 353.404 162.129 353.228 162.273 353.084C162.417 352.94 162.593 352.868 162.801 352.868C163.001 352.868 163.169 352.94 163.305 353.084C163.449 353.228 163.521 353.404 163.521 353.612C163.521 353.82 163.449 353.996 163.305 354.14C163.169 354.284 163.001 354.356 162.801 354.356ZM163.329 355.424V362H162.237V355.424H163.329ZM168.058 362.108C167.442 362.108 166.882 361.968 166.378 361.688C165.882 361.408 165.49 361.012 165.202 360.5C164.922 359.98 164.782 359.38 164.782 358.7C164.782 358.028 164.926 357.436 165.214 356.924C165.51 356.404 165.91 356.008 166.414 355.736C166.918 355.456 167.482 355.316 168.106 355.316C168.73 355.316 169.294 355.456 169.798 355.736C170.302 356.008 170.698 356.4 170.986 356.912C171.282 357.424 171.43 358.02 171.43 358.7C171.43 359.38 171.278 359.98 170.974 360.5C170.678 361.012 170.274 361.408 169.762 361.688C169.25 361.968 168.682 362.108 168.058 362.108ZM168.058 361.148C168.45 361.148 168.818 361.056 169.162 360.872C169.506 360.688 169.782 360.412 169.99 360.044C170.206 359.676 170.314 359.228 170.314 358.7C170.314 358.172 170.21 357.724 170.002 357.356C169.794 356.988 169.522 356.716 169.186 356.54C168.85 356.356 168.486 356.264 168.094 356.264C167.694 356.264 167.326 356.356 166.99 356.54C166.662 356.716 166.398 356.988 166.198 357.356C165.998 357.724 165.898 358.172 165.898 358.7C165.898 359.236 165.994 359.688 166.186 360.056C166.386 360.424 166.65 360.7 166.978 360.884C167.306 361.06 167.666 361.148 168.058 361.148ZM176.069 355.304C176.869 355.304 177.517 355.548 178.013 356.036C178.509 356.516 178.757 357.212 178.757 358.124V362H177.677V358.28C177.677 357.624 177.513 357.124 177.185 356.78C176.857 356.428 176.409 356.252 175.841 356.252C175.265 356.252 174.805 356.432 174.461 356.792C174.125 357.152 173.957 357.676 173.957 358.364V362H172.865V355.424H173.957V356.36C174.173 356.024 174.465 355.764 174.833 355.58C175.209 355.396 175.621 355.304 176.069 355.304ZM182.869 362.108C182.365 362.108 181.913 362.024 181.513 361.856C181.113 361.68 180.797 361.44 180.565 361.136C180.333 360.824 180.205 360.468 180.181 360.068H181.309C181.341 360.396 181.493 360.664 181.765 360.872C182.045 361.08 182.409 361.184 182.857 361.184C183.273 361.184 183.601 361.092 183.841 360.908C184.081 360.724 184.201 360.492 184.201 360.212C184.201 359.924 184.073 359.712 183.817 359.576C183.561 359.432 183.165 359.292 182.629 359.156C182.141 359.028 181.741 358.9 181.429 358.772C181.125 358.636 180.861 358.44 180.637 358.184C180.421 357.92 180.313 357.576 180.313 357.152C180.313 356.816 180.413 356.508 180.613 356.228C180.813 355.948 181.097 355.728 181.465 355.568C181.833 355.4 182.253 355.316 182.725 355.316C183.453 355.316 184.041 355.5 184.489 355.868C184.937 356.236 185.177 356.74 185.209 357.38H184.117C184.093 357.036 183.953 356.76 183.697 356.552C183.449 356.344 183.113 356.24 182.689 356.24C182.297 356.24 181.985 356.324 181.753 356.492C181.521 356.66 181.405 356.88 181.405 357.152C181.405 357.368 181.473 357.548 181.609 357.692C181.753 357.828 181.929 357.94 182.137 358.028C182.353 358.108 182.649 358.2 183.025 358.304C183.497 358.432 183.881 358.56 184.177 358.688C184.473 358.808 184.725 358.992 184.933 359.24C185.149 359.488 185.261 359.812 185.269 360.212C185.269 360.572 185.169 360.896 184.969 361.184C184.769 361.472 184.485 361.7 184.117 361.868C183.757 362.028 183.341 362.108 182.869 362.108Z" fill="black"/>
<circle cx="46.6286" cy="356.629" r="8.62857" fill="#E7EBB8"/>
<path d="M71.368 394.636V403H70.276V399.208H66.016V403H64.924V394.636H66.016V398.308H70.276V394.636H71.368ZM77.6366 403L75.6446 399.58H74.3246V403H73.2326V394.636H75.9326C76.5646 394.636 77.0966 394.744 77.5286 394.96C77.9686 395.176 78.2966 395.468 78.5126 395.836C78.7286 396.204 78.8366 396.624 78.8366 397.096C78.8366 397.672 78.6686 398.18 78.3326 398.62C78.0046 399.06 77.5086 399.352 76.8446 399.496L78.9446 403H77.6366ZM74.3246 398.704H75.9326C76.5246 398.704 76.9686 398.56 77.2646 398.272C77.5606 397.976 77.7086 397.584 77.7086 397.096C77.7086 396.6 77.5606 396.216 77.2646 395.944C76.9766 395.672 76.5326 395.536 75.9326 395.536H74.3246V398.704Z" fill="black"/>
<circle cx="46.6286" cy="397.615" r="8.62857" fill="#AEC7E8"/>
<path d="M69.868 442.183H66.22L65.548 444.043H64.396L67.42 435.727H68.68L71.692 444.043H70.54L69.868 442.183ZM69.556 441.295L68.044 437.071L66.532 441.295H69.556ZM72.6019 440.743C72.6019 440.063 72.7379 439.471 73.0099 438.967C73.2819 438.455 73.6579 438.059 74.1379 437.779C74.6259 437.499 75.1819 437.359 75.8059 437.359C76.6139 437.359 77.2779 437.555 77.7979 437.947C78.3259 438.339 78.6739 438.883 78.8419 439.579H77.6659C77.5539 439.179 77.3339 438.863 77.0059 438.631C76.6859 438.399 76.2859 438.283 75.8059 438.283C75.1819 438.283 74.6779 438.499 74.2939 438.931C73.9099 439.355 73.7179 439.959 73.7179 440.743C73.7179 441.535 73.9099 442.147 74.2939 442.579C74.6779 443.011 75.1819 443.227 75.8059 443.227C76.2859 443.227 76.6859 443.115 77.0059 442.891C77.3259 442.667 77.5459 442.347 77.6659 441.931H78.8419C78.6659 442.603 78.3139 443.143 77.7859 443.551C77.2579 443.951 76.5979 444.151 75.8059 444.151C75.1819 444.151 74.6259 444.011 74.1379 443.731C73.6579 443.451 73.2819 443.055 73.0099 442.543C72.7379 442.031 72.6019 441.431 72.6019 440.743ZM79.891 440.743C79.891 440.063 80.027 439.471 80.299 438.967C80.571 438.455 80.947 438.059 81.427 437.779C81.915 437.499 82.471 437.359 83.095 437.359C83.903 437.359 84.567 437.555 85.087 437.947C85.615 438.339 85.963 438.883 86.131 439.579H84.955C84.843 439.179 84.623 438.863 84.295 438.631C83.975 438.399 83.575 438.283 83.095 438.283C82.471 438.283 81.967 438.499 81.583 438.931C81.199 439.355 81.007 439.959 81.007 440.743C81.007 441.535 81.199 442.147 81.583 442.579C81.967 443.011 82.471 443.227 83.095 443.227C83.575 443.227 83.975 443.115 84.295 442.891C84.615 442.667 84.835 442.347 84.955 441.931H86.131C85.955 442.603 85.603 443.143 85.075 443.551C84.547 443.951 83.887 444.151 83.095 444.151C82.471 444.151 81.915 444.011 81.427 443.731C80.947 443.451 80.571 443.055 80.299 442.543C80.027 442.031 79.891 441.431 79.891 440.743ZM90.4561 444.151C89.8401 444.151 89.2801 444.011 88.7761 443.731C88.2801 443.451 87.8881 443.055 87.6001 442.543C87.3201 442.023 87.1801 441.423 87.1801 440.743C87.1801 440.071 87.3241 439.479 87.6121 438.967C87.9081 438.447 88.3081 438.051 88.8121 437.779C89.3161 437.499 89.8801 437.359 90.5041 437.359C91.1281 437.359 91.6921 437.499 92.1961 437.779C92.7001 438.051 93.0961 438.443 93.3841 438.955C93.6801 439.467 93.8281 440.063 93.8281 440.743C93.8281 441.423 93.6761 442.023 93.3721 442.543C93.0761 443.055 92.6721 443.451 92.1601 443.731C91.6481 444.011 91.0801 444.151 90.4561 444.151ZM90.4561 443.191C90.8481 443.191 91.2161 443.099 91.5601 442.915C91.9041 442.731 92.1801 442.455 92.3881 442.087C92.6041 441.719 92.7121 441.271 92.7121 440.743C92.7121 440.215 92.6081 439.767 92.4001 439.399C92.1921 439.031 91.9201 438.759 91.5841 438.583C91.2481 438.399 90.8841 438.307 90.4921 438.307C90.0921 438.307 89.7241 438.399 89.3881 438.583C89.0601 438.759 88.7961 439.031 88.5961 439.399C88.3961 439.767 88.2961 440.215 88.2961 440.743C88.2961 441.279 88.3921 441.731 88.5841 442.099C88.7841 442.467 89.0481 442.743 89.3761 442.927C89.7041 443.103 90.0641 443.191 90.4561 443.191ZM101.096 437.467V444.043H100.004V443.071C99.7958 443.407 99.5038 443.671 99.1278 443.863C98.7598 444.047 98.3518 444.139 97.9038 444.139C97.3918 444.139 96.9318 444.035 96.5238 443.827C96.1158 443.611 95.7918 443.291 95.5518 442.867C95.3198 442.443 95.2038 441.927 95.2038 441.319V437.467H96.2838V441.175C96.2838 441.823 96.4478 442.323 96.7758 442.675C97.1038 443.019 97.5518 443.191 98.1198 443.191C98.7038 443.191 99.1638 443.011 99.4998 442.651C99.8358 442.291 100.004 441.767 100.004 441.079V437.467H101.096ZM106.144 437.347C106.944 437.347 107.592 437.591 108.088 438.079C108.584 438.559 108.832 439.255 108.832 440.167V444.043H107.752V440.323C107.752 439.667 107.588 439.167 107.26 438.823C106.932 438.471 106.484 438.295 105.916 438.295C105.34 438.295 104.88 438.475 104.536 438.835C104.2 439.195 104.032 439.719 104.032 440.407V444.043H102.94V437.467H104.032V438.403C104.248 438.067 104.54 437.807 104.908 437.623C105.284 437.439 105.696 437.347 106.144 437.347ZM111.947 438.367V442.243C111.947 442.563 112.015 442.791 112.151 442.927C112.287 443.055 112.523 443.119 112.859 443.119H113.663V444.043H112.679C112.071 444.043 111.615 443.903 111.311 443.623C111.007 443.343 110.855 442.883 110.855 442.243V438.367H110.003V437.467H110.855V435.811H111.947V437.467H113.663V438.367H111.947ZM115.551 436.399C115.343 436.399 115.167 436.327 115.023 436.183C114.879 436.039 114.807 435.863 114.807 435.655C114.807 435.447 114.879 435.271 115.023 435.127C115.167 434.983 115.343 434.911 115.551 434.911C115.751 434.911 115.919 434.983 116.055 435.127C116.199 435.271 116.271 435.447 116.271 435.655C116.271 435.863 116.199 436.039 116.055 436.183C115.919 436.327 115.751 436.399 115.551 436.399ZM116.079 437.467V444.043H114.987V437.467H116.079ZM121.144 437.347C121.944 437.347 122.592 437.591 123.088 438.079C123.584 438.559 123.832 439.255 123.832 440.167V444.043H122.752V440.323C122.752 439.667 122.588 439.167 122.26 438.823C121.932 438.471 121.484 438.295 120.916 438.295C120.34 438.295 119.88 438.475 119.536 438.835C119.2 439.195 119.032 439.719 119.032 440.407V444.043H117.94V437.467H119.032V438.403C119.248 438.067 119.54 437.807 119.908 437.623C120.284 437.439 120.696 437.347 121.144 437.347ZM128.327 437.359C128.895 437.359 129.391 437.483 129.815 437.731C130.247 437.979 130.567 438.291 130.775 438.667V437.467H131.879V444.187C131.879 444.787 131.751 445.319 131.495 445.783C131.239 446.255 130.871 446.623 130.391 446.887C129.919 447.151 129.367 447.283 128.735 447.283C127.871 447.283 127.151 447.079 126.575 446.671C125.999 446.263 125.659 445.707 125.555 445.003H126.635C126.755 445.403 127.003 445.723 127.379 445.963C127.755 446.211 128.207 446.335 128.735 446.335C129.335 446.335 129.823 446.147 130.199 445.771C130.583 445.395 130.775 444.867 130.775 444.187V442.807C130.559 443.191 130.239 443.511 129.815 443.767C129.391 444.023 128.895 444.151 128.327 444.151C127.743 444.151 127.211 444.007 126.731 443.719C126.259 443.431 125.887 443.027 125.615 442.507C125.343 441.987 125.207 441.395 125.207 440.731C125.207 440.059 125.343 439.471 125.615 438.967C125.887 438.455 126.259 438.059 126.731 437.779C127.211 437.499 127.743 437.359 128.327 437.359ZM130.775 440.743C130.775 440.247 130.675 439.815 130.475 439.447C130.275 439.079 130.003 438.799 129.659 438.607C129.323 438.407 128.951 438.307 128.543 438.307C128.135 438.307 127.763 438.403 127.427 438.595C127.091 438.787 126.823 439.067 126.623 439.435C126.423 439.803 126.323 440.235 126.323 440.731C126.323 441.235 126.423 441.675 126.623 442.051C126.823 442.419 127.091 442.703 127.427 442.903C127.763 443.095 128.135 443.191 128.543 443.191C128.951 443.191 129.323 443.095 129.659 442.903C130.003 442.703 130.275 442.419 130.475 442.051C130.675 441.675 130.775 441.239 130.775 440.743Z" fill="black"/>
<circle cx="46.6286" cy="439.629" r="8.62857" fill="#FFBB78"/>
<path d="M66.016 477.679V486.043H64.924V477.679H66.016ZM73.0251 477.679V478.567H70.7451V486.043H69.6531V478.567H67.3611V477.679H73.0251Z" fill="black"/>
<circle cx="46.6286" cy="480.615" r="8.62857" fill="#62C0BB"/>
<path d="M73.408 516.739V525.043H72.316V518.851L69.556 525.043H68.788L66.016 518.839V525.043H64.924V516.739H66.1L69.172 523.603L72.244 516.739H73.408ZM74.8519 521.731C74.8519 521.059 74.9879 520.471 75.2599 519.967C75.5319 519.455 75.9039 519.059 76.3759 518.779C76.8559 518.499 77.3879 518.359 77.9719 518.359C78.5479 518.359 79.0479 518.483 79.4719 518.731C79.8959 518.979 80.2119 519.291 80.4199 519.667V518.467H81.5239V525.043H80.4199V523.819C80.2039 524.203 79.8799 524.523 79.4479 524.779C79.0239 525.027 78.5279 525.151 77.9599 525.151C77.3759 525.151 76.8479 525.007 76.3759 524.719C75.9039 524.431 75.5319 524.027 75.2599 523.507C74.9879 522.987 74.8519 522.395 74.8519 521.731ZM80.4199 521.743C80.4199 521.247 80.3199 520.815 80.1199 520.447C79.9199 520.079 79.6479 519.799 79.3039 519.607C78.9679 519.407 78.5959 519.307 78.1879 519.307C77.7799 519.307 77.4079 519.403 77.0719 519.595C76.7359 519.787 76.4679 520.067 76.2679 520.435C76.0679 520.803 75.9679 521.235 75.9679 521.731C75.9679 522.235 76.0679 522.675 76.2679 523.051C76.4679 523.419 76.7359 523.703 77.0719 523.903C77.4079 524.095 77.7799 524.191 78.1879 524.191C78.5959 524.191 78.9679 524.095 79.3039 523.903C79.6479 523.703 79.9199 523.419 80.1199 523.051C80.3199 522.675 80.4199 522.239 80.4199 521.743ZM84.4613 519.535C84.6533 519.159 84.9253 518.867 85.2773 518.659C85.6373 518.451 86.0733 518.347 86.5853 518.347V519.475H86.2973C85.0733 519.475 84.4613 520.139 84.4613 521.467V525.043H83.3693V518.467H84.4613V519.535ZM91.5179 525.043L88.9379 522.139V525.043H87.8459V516.163H88.9379V521.383L91.4699 518.467H92.9939L89.8979 521.743L93.0059 525.043H91.5179ZM100.022 521.503C100.022 521.711 100.01 521.931 99.9857 522.163H94.7297C94.7697 522.811 94.9897 523.319 95.3897 523.687C95.7977 524.047 96.2897 524.227 96.8657 524.227C97.3377 524.227 97.7297 524.119 98.0417 523.903C98.3617 523.679 98.5857 523.383 98.7137 523.015H99.8897C99.7137 523.647 99.3617 524.163 98.8337 524.563C98.3057 524.955 97.6497 525.151 96.8657 525.151C96.2417 525.151 95.6817 525.011 95.1857 524.731C94.6977 524.451 94.3137 524.055 94.0337 523.543C93.7537 523.023 93.6137 522.423 93.6137 521.743C93.6137 521.063 93.7497 520.467 94.0217 519.955C94.2937 519.443 94.6737 519.051 95.1617 518.779C95.6577 518.499 96.2257 518.359 96.8657 518.359C97.4897 518.359 98.0417 518.495 98.5217 518.767C99.0017 519.039 99.3697 519.415 99.6257 519.895C99.8897 520.367 100.022 520.903 100.022 521.503ZM98.8937 521.275C98.8937 520.859 98.8017 520.503 98.6177 520.207C98.4337 519.903 98.1817 519.675 97.8617 519.523C97.5497 519.363 97.2017 519.283 96.8177 519.283C96.2657 519.283 95.7937 519.459 95.4017 519.811C95.0177 520.163 94.7977 520.651 94.7417 521.275H98.8937ZM102.795 519.367V523.243C102.795 523.563 102.863 523.791 102.999 523.927C103.135 524.055 103.371 524.119 103.707 524.119H104.511V525.043H103.527C102.919 525.043 102.463 524.903 102.159 524.623C101.855 524.343 101.703 523.883 101.703 523.243V519.367H100.851V518.467H101.703V516.811H102.795V518.467H104.511V519.367H102.795ZM106.398 517.399C106.19 517.399 106.014 517.327 105.87 517.183C105.726 517.039 105.654 516.863 105.654 516.655C105.654 516.447 105.726 516.271 105.87 516.127C106.014 515.983 106.19 515.911 106.398 515.911C106.598 515.911 106.766 515.983 106.902 516.127C107.046 516.271 107.118 516.447 107.118 516.655C107.118 516.863 107.046 517.039 106.902 517.183C106.766 517.327 106.598 517.399 106.398 517.399ZM106.926 518.467V525.043H105.834V518.467H106.926ZM111.991 518.347C112.791 518.347 113.439 518.591 113.935 519.079C114.431 519.559 114.679 520.255 114.679 521.167V525.043H113.599V521.323C113.599 520.667 113.435 520.167 113.107 519.823C112.779 519.471 112.331 519.295 111.763 519.295C111.187 519.295 110.727 519.475 110.383 519.835C110.047 520.195 109.879 520.719 109.879 521.407V525.043H108.787V518.467H109.879V519.403C110.095 519.067 110.387 518.807 110.755 518.623C111.131 518.439 111.543 518.347 111.991 518.347ZM119.175 518.359C119.743 518.359 120.239 518.483 120.663 518.731C121.095 518.979 121.415 519.291 121.623 519.667V518.467H122.727V525.187C122.727 525.787 122.599 526.319 122.343 526.783C122.087 527.255 121.719 527.623 121.239 527.887C120.767 528.151 120.215 528.283 119.583 528.283C118.719 528.283 117.999 528.079 117.423 527.671C116.847 527.263 116.507 526.707 116.403 526.003H117.483C117.603 526.403 117.851 526.723 118.227 526.963C118.603 527.211 119.055 527.335 119.583 527.335C120.183 527.335 120.671 527.147 121.047 526.771C121.431 526.395 121.623 525.867 121.623 525.187V523.807C121.407 524.191 121.087 524.511 120.663 524.767C120.239 525.023 119.743 525.151 119.175 525.151C118.591 525.151 118.059 525.007 117.579 524.719C117.107 524.431 116.735 524.027 116.463 523.507C116.191 522.987 116.055 522.395 116.055 521.731C116.055 521.059 116.191 520.471 116.463 519.967C116.735 519.455 117.107 519.059 117.579 518.779C118.059 518.499 118.591 518.359 119.175 518.359ZM121.623 521.743C121.623 521.247 121.523 520.815 121.323 520.447C121.123 520.079 120.851 519.799 120.507 519.607C120.171 519.407 119.799 519.307 119.391 519.307C118.983 519.307 118.611 519.403 118.275 519.595C117.939 519.787 117.671 520.067 117.471 520.435C117.271 520.803 117.171 521.235 117.171 521.731C117.171 522.235 117.271 522.675 117.471 523.051C117.671 523.419 117.939 523.703 118.275 523.903C118.611 524.095 118.983 524.191 119.391 524.191C119.799 524.191 120.171 524.095 120.507 523.903C120.851 523.703 121.123 523.419 121.323 523.051C121.523 522.675 121.623 522.239 121.623 521.743Z" fill="black"/>
<circle cx="46.6286" cy="521.599" r="8.62857" fill="#F0CECE"/>
<path d="M283.909 358.368C283.109 357.952 282.709 357.308 282.709 356.436C282.709 356.004 282.817 355.612 283.033 355.26C283.257 354.9 283.589 354.616 284.029 354.408C284.477 354.192 285.021 354.084 285.661 354.084C286.301 354.084 286.841 354.192 287.281 354.408C287.729 354.616 288.061 354.9 288.277 355.26C288.501 355.612 288.613 356.004 288.613 356.436C288.613 356.876 288.505 357.264 288.289 357.6C288.073 357.928 287.785 358.184 287.425 358.368C287.865 358.56 288.209 358.84 288.457 359.208C288.705 359.576 288.829 360.012 288.829 360.516C288.829 361.06 288.689 361.536 288.409 361.944C288.137 362.344 287.761 362.652 287.281 362.868C286.801 363.084 286.261 363.192 285.661 363.192C285.061 363.192 284.521 363.084 284.041 362.868C283.569 362.652 283.193 362.344 282.913 361.944C282.641 361.536 282.505 361.06 282.505 360.516C282.505 360.012 282.629 359.576 282.877 359.208C283.125 358.832 283.469 358.552 283.909 358.368ZM286.981 356.676C286.981 356.284 286.861 355.98 286.621 355.764C286.389 355.548 286.069 355.44 285.661 355.44C285.261 355.44 284.941 355.548 284.701 355.764C284.469 355.98 284.353 356.288 284.353 356.688C284.353 357.048 284.473 357.336 284.713 357.552C284.961 357.768 285.277 357.876 285.661 357.876C286.045 357.876 286.361 357.768 286.609 357.552C286.857 357.328 286.981 357.036 286.981 356.676ZM285.661 359.1C285.205 359.1 284.833 359.216 284.545 359.448C284.265 359.68 284.125 360.012 284.125 360.444C284.125 360.844 284.261 361.172 284.533 361.428C284.813 361.676 285.189 361.8 285.661 361.8C286.133 361.8 286.505 361.672 286.777 361.416C287.049 361.16 287.185 360.836 287.185 360.444C287.185 360.02 287.045 359.692 286.765 359.46C286.485 359.22 286.117 359.1 285.661 359.1ZM294.284 363L292.028 360.168V363H290.348V354.12H292.028V359.172L294.26 356.352H296.444L293.516 359.688L296.468 363H294.284ZM305.915 354.624V355.98H303.683V363H302.003V355.98H299.771V354.624H305.915ZM310.093 363.108C309.453 363.108 308.877 362.968 308.365 362.688C307.853 362.4 307.449 361.996 307.153 361.476C306.865 360.956 306.721 360.356 306.721 359.676C306.721 358.996 306.869 358.396 307.165 357.876C307.469 357.356 307.881 356.956 308.401 356.676C308.921 356.388 309.501 356.244 310.141 356.244C310.781 356.244 311.361 356.388 311.881 356.676C312.401 356.956 312.809 357.356 313.105 357.876C313.409 358.396 313.561 358.996 313.561 359.676C313.561 360.356 313.405 360.956 313.092 361.476C312.789 361.996 312.373 362.4 311.845 362.688C311.325 362.968 310.741 363.108 310.093 363.108ZM310.093 361.644C310.397 361.644 310.681 361.572 310.945 361.428C311.217 361.276 311.433 361.052 311.593 360.756C311.753 360.46 311.833 360.1 311.833 359.676C311.833 359.044 311.665 358.56 311.329 358.224C311.001 357.88 310.597 357.708 310.117 357.708C309.637 357.708 309.233 357.88 308.905 358.224C308.585 358.56 308.425 359.044 308.425 359.676C308.425 360.308 308.581 360.796 308.893 361.14C309.213 361.476 309.613 361.644 310.093 361.644ZM318.729 363L316.473 360.168V363H314.793V354.12H316.473V359.172L318.705 356.352H320.889L317.961 359.688L320.913 363H318.729ZM327.981 359.532C327.981 359.772 327.965 359.988 327.933 360.18H323.073C323.113 360.66 323.281 361.036 323.577 361.308C323.873 361.58 324.237 361.716 324.669 361.716C325.293 361.716 325.737 361.448 326.001 360.912H327.813C327.621 361.552 327.253 362.08 326.709 362.496C326.165 362.904 325.497 363.108 324.705 363.108C324.065 363.108 323.489 362.968 322.977 362.688C322.473 362.4 322.077 361.996 321.789 361.476C321.509 360.956 321.369 360.356 321.369 359.676C321.369 358.988 321.509 358.384 321.789 357.864C322.069 357.344 322.461 356.944 322.965 356.664C323.469 356.384 324.049 356.244 324.705 356.244C325.337 356.244 325.901 356.38 326.397 356.652C326.901 356.924 327.289 357.312 327.561 357.816C327.841 358.312 327.981 358.884 327.981 359.532ZM326.241 359.052C326.233 358.62 326.077 358.276 325.773 358.02C325.469 357.756 325.097 357.624 324.657 357.624C324.241 357.624 323.889 357.752 323.601 358.008C323.321 358.256 323.149 358.604 323.085 359.052H326.241ZM332.891 356.256C333.683 356.256 334.323 356.508 334.811 357.012C335.299 357.508 335.543 358.204 335.543 359.1V363H333.863V359.328C333.863 358.8 333.731 358.396 333.467 358.116C333.203 357.828 332.843 357.684 332.387 357.684C331.923 357.684 331.555 357.828 331.283 358.116C331.019 358.396 330.887 358.8 330.887 359.328V363H329.207V356.352H330.887V357.18C331.111 356.892 331.395 356.668 331.739 356.508C332.091 356.34 332.475 356.256 332.891 356.256ZM339.685 363.108C339.141 363.108 338.653 363.012 338.221 362.82C337.789 362.62 337.445 362.352 337.189 362.016C336.941 361.68 336.805 361.308 336.781 360.9H338.473C338.505 361.156 338.629 361.368 338.845 361.536C339.069 361.704 339.345 361.788 339.673 361.788C339.993 361.788 340.241 361.724 340.417 361.596C340.601 361.468 340.693 361.304 340.693 361.104C340.693 360.888 340.581 360.728 340.357 360.624C340.141 360.512 339.793 360.392 339.312 360.264C338.817 360.144 338.409 360.02 338.089 359.892C337.777 359.764 337.505 359.568 337.273 359.304C337.049 359.04 336.937 358.684 336.937 358.236C336.937 357.868 337.041 357.532 337.249 357.228C337.465 356.924 337.769 356.684 338.161 356.508C338.561 356.332 339.029 356.244 339.565 356.244C340.357 356.244 340.989 356.444 341.461 356.844C341.933 357.236 342.193 357.768 342.241 358.44H340.633C340.609 358.176 340.497 357.968 340.297 357.816C340.105 357.656 339.845 357.576 339.517 357.576C339.213 357.576 338.977 357.632 338.809 357.744C338.649 357.856 338.569 358.012 338.569 358.212C338.569 358.436 338.681 358.608 338.905 358.728C339.129 358.84 339.477 358.956 339.949 359.076C340.429 359.196 340.825 359.32 341.137 359.448C341.449 359.576 341.717 359.776 341.941 360.048C342.173 360.312 342.293 360.664 342.301 361.104C342.301 361.488 342.193 361.832 341.977 362.136C341.769 362.44 341.465 362.68 341.065 362.856C340.673 363.024 340.213 363.108 339.685 363.108ZM349.443 365.364C348.667 364.612 348.063 363.652 347.631 362.484C347.207 361.316 346.995 360.064 346.995 358.728C346.995 357.36 347.219 356.076 347.667 354.876C348.115 353.668 348.767 352.68 349.623 351.912H351.315V352.068C350.435 352.908 349.763 353.916 349.299 355.092C348.843 356.268 348.615 357.48 348.615 358.728C348.615 359.944 348.831 361.12 349.263 362.256C349.703 363.384 350.327 364.364 351.135 365.196V365.364H349.443ZM352.099 361.296V359.976L356.023 354.36H357.979V359.832H359.035V361.296H357.979V363H356.299V361.296H352.099ZM356.407 356.16L353.947 359.832H356.407V356.16ZM360.105 358.512C360.105 357.128 360.353 356.044 360.849 355.26C361.353 354.476 362.185 354.084 363.345 354.084C364.505 354.084 365.333 354.476 365.829 355.26C366.333 356.044 366.585 357.128 366.585 358.512C366.585 359.904 366.333 360.996 365.829 361.788C365.333 362.58 364.505 362.976 363.345 362.976C362.185 362.976 361.353 362.58 360.849 361.788C360.353 360.996 360.105 359.904 360.105 358.512ZM364.929 358.512C364.929 357.92 364.889 357.424 364.809 357.024C364.737 356.616 364.585 356.284 364.353 356.028C364.129 355.772 363.793 355.644 363.345 355.644C362.897 355.644 362.557 355.772 362.325 356.028C362.101 356.284 361.949 356.616 361.869 357.024C361.797 357.424 361.761 357.92 361.761 358.512C361.761 359.12 361.797 359.632 361.869 360.048C361.941 360.456 362.093 360.788 362.325 361.044C362.557 361.292 362.897 361.416 363.345 361.416C363.793 361.416 364.133 361.292 364.365 361.044C364.597 360.788 364.749 360.456 364.821 360.048C364.893 359.632 364.929 359.12 364.929 358.512ZM367.671 356.4C367.671 355.792 367.847 355.316 368.199 354.972C368.559 354.628 369.019 354.456 369.579 354.456C370.139 354.456 370.595 354.628 370.947 354.972C371.307 355.316 371.487 355.792 371.487 356.4C371.487 357.016 371.307 357.496 370.947 357.84C370.595 358.184 370.139 358.356 369.579 358.356C369.019 358.356 368.559 358.184 368.199 357.84C367.847 357.496 367.671 357.016 367.671 356.4ZM375.375 354.6L370.659 363H369.027L373.731 354.6H375.375ZM369.567 355.464C369.127 355.464 368.907 355.776 368.907 356.4C368.907 357.032 369.127 357.348 369.567 357.348C369.783 357.348 369.951 357.272 370.071 357.12C370.191 356.96 370.251 356.72 370.251 356.4C370.251 355.776 370.023 355.464 369.567 355.464ZM372.939 361.188C372.939 360.572 373.115 360.096 373.467 359.76C373.827 359.416 374.287 359.244 374.847 359.244C375.407 359.244 375.859 359.416 376.203 359.76C376.555 360.096 376.731 360.572 376.731 361.188C376.731 361.804 376.555 362.284 376.203 362.628C375.859 362.972 375.407 363.144 374.847 363.144C374.279 363.144 373.819 362.972 373.467 362.628C373.115 362.284 372.939 361.804 372.939 361.188ZM374.835 360.252C374.379 360.252 374.151 360.564 374.151 361.188C374.151 361.82 374.379 362.136 374.835 362.136C375.283 362.136 375.507 361.82 375.507 361.188C375.507 360.564 375.283 360.252 374.835 360.252ZM377.572 365.364V365.196C378.38 364.364 379 363.384 379.432 362.256C379.872 361.12 380.092 359.944 380.092 358.728C380.092 357.48 379.86 356.268 379.396 355.092C378.94 353.916 378.272 352.908 377.392 352.068V351.912H379.084C379.94 352.68 380.592 353.668 381.04 354.876C381.488 356.076 381.712 357.36 381.712 358.728C381.712 360.064 381.496 361.316 381.064 362.484C380.64 363.652 380.04 364.612 379.264 365.364H377.572Z" fill="black"/>
<path d="M293.573 393.8V392.252H296.465V401H294.737V393.8H293.573ZM302.252 401L299.996 398.168V401H298.316V392.12H299.996V397.172L302.228 394.352H304.412L301.484 397.688L304.436 401H302.252ZM313.883 392.624V393.98H311.651V401H309.971V393.98H307.739V392.624H313.883ZM318.061 401.108C317.421 401.108 316.845 400.968 316.333 400.688C315.821 400.4 315.417 399.996 315.121 399.476C314.833 398.956 314.689 398.356 314.689 397.676C314.689 396.996 314.837 396.396 315.133 395.876C315.437 395.356 315.849 394.956 316.369 394.676C316.889 394.388 317.469 394.244 318.109 394.244C318.749 394.244 319.329 394.388 319.849 394.676C320.369 394.956 320.777 395.356 321.073 395.876C321.377 396.396 321.529 396.996 321.529 397.676C321.529 398.356 321.373 398.956 321.061 399.476C320.757 399.996 320.341 400.4 319.813 400.688C319.293 400.968 318.709 401.108 318.061 401.108ZM318.061 399.644C318.365 399.644 318.649 399.572 318.913 399.428C319.185 399.276 319.401 399.052 319.561 398.756C319.721 398.46 319.801 398.1 319.801 397.676C319.801 397.044 319.633 396.56 319.297 396.224C318.969 395.88 318.565 395.708 318.085 395.708C317.605 395.708 317.201 395.88 316.873 396.224C316.553 396.56 316.393 397.044 316.393 397.676C316.393 398.308 316.549 398.796 316.861 399.14C317.181 399.476 317.581 399.644 318.061 399.644ZM326.698 401L324.442 398.168V401H322.762V392.12H324.442V397.172L326.674 394.352H328.858L325.93 397.688L328.882 401H326.698ZM335.949 397.532C335.949 397.772 335.933 397.988 335.901 398.18H331.041C331.081 398.66 331.249 399.036 331.545 399.308C331.841 399.58 332.205 399.716 332.637 399.716C333.261 399.716 333.705 399.448 333.969 398.912H335.781C335.589 399.552 335.221 400.08 334.677 400.496C334.133 400.904 333.465 401.108 332.673 401.108C332.033 401.108 331.457 400.968 330.945 400.688C330.441 400.4 330.045 399.996 329.757 399.476C329.477 398.956 329.337 398.356 329.337 397.676C329.337 396.988 329.477 396.384 329.757 395.864C330.037 395.344 330.429 394.944 330.933 394.664C331.437 394.384 332.017 394.244 332.673 394.244C333.305 394.244 333.869 394.38 334.365 394.652C334.869 394.924 335.257 395.312 335.529 395.816C335.809 396.312 335.949 396.884 335.949 397.532ZM334.209 397.052C334.201 396.62 334.045 396.276 333.741 396.02C333.437 395.756 333.065 395.624 332.625 395.624C332.209 395.624 331.857 395.752 331.569 396.008C331.289 396.256 331.117 396.604 331.053 397.052H334.209ZM340.86 394.256C341.652 394.256 342.292 394.508 342.78 395.012C343.268 395.508 343.512 396.204 343.512 397.1V401H341.832V397.328C341.832 396.8 341.7 396.396 341.436 396.116C341.172 395.828 340.812 395.684 340.356 395.684C339.892 395.684 339.524 395.828 339.252 396.116C338.988 396.396 338.856 396.8 338.856 397.328V401H337.176V394.352H338.856V395.18C339.08 394.892 339.364 394.668 339.708 394.508C340.06 394.34 340.444 394.256 340.86 394.256ZM347.653 401.108C347.109 401.108 346.621 401.012 346.189 400.82C345.757 400.62 345.413 400.352 345.157 400.016C344.909 399.68 344.773 399.308 344.749 398.9H346.441C346.473 399.156 346.597 399.368 346.813 399.536C347.037 399.704 347.313 399.788 347.641 399.788C347.961 399.788 348.209 399.724 348.385 399.596C348.569 399.468 348.661 399.304 348.661 399.104C348.661 398.888 348.549 398.728 348.325 398.624C348.109 398.512 347.761 398.392 347.281 398.264C346.785 398.144 346.377 398.02 346.057 397.892C345.745 397.764 345.473 397.568 345.241 397.304C345.017 397.04 344.905 396.684 344.905 396.236C344.905 395.868 345.009 395.532 345.217 395.228C345.433 394.924 345.737 394.684 346.129 394.508C346.529 394.332 346.997 394.244 347.533 394.244C348.325 394.244 348.957 394.444 349.429 394.844C349.901 395.236 350.161 395.768 350.209 396.44H348.601C348.577 396.176 348.465 395.968 348.265 395.816C348.073 395.656 347.813 395.576 347.485 395.576C347.181 395.576 346.945 395.632 346.777 395.744C346.617 395.856 346.537 396.012 346.537 396.212C346.537 396.436 346.649 396.608 346.873 396.728C347.097 396.84 347.445 396.956 347.917 397.076C348.397 397.196 348.793 397.32 349.105 397.448C349.417 397.576 349.685 397.776 349.909 398.048C350.141 398.312 350.261 398.664 350.269 399.104C350.269 399.488 350.161 399.832 349.945 400.136C349.737 400.44 349.433 400.68 349.033 400.856C348.641 401.024 348.181 401.108 347.653 401.108ZM357.412 403.364C356.636 402.612 356.032 401.652 355.6 400.484C355.176 399.316 354.964 398.064 354.964 396.728C354.964 395.36 355.188 394.076 355.636 392.876C356.084 391.668 356.736 390.68 357.592 389.912H359.284V390.068C358.404 390.908 357.732 391.916 357.268 393.092C356.812 394.268 356.584 395.48 356.584 396.728C356.584 397.944 356.8 399.12 357.232 400.256C357.672 401.384 358.296 402.364 359.104 403.196V403.364H357.412ZM366.02 393.704H362.132V395.756C362.3 395.548 362.54 395.38 362.852 395.252C363.164 395.116 363.496 395.048 363.848 395.048C364.488 395.048 365.012 395.188 365.42 395.468C365.828 395.748 366.124 396.108 366.308 396.548C366.492 396.98 366.584 397.444 366.584 397.94C366.584 398.86 366.32 399.6 365.792 400.16C365.272 400.72 364.528 401 363.56 401C362.648 401 361.92 400.772 361.376 400.316C360.832 399.86 360.524 399.264 360.452 398.528H362.084C362.156 398.848 362.316 399.104 362.564 399.296C362.82 399.488 363.144 399.584 363.536 399.584C364.008 399.584 364.364 399.436 364.604 399.14C364.844 398.844 364.964 398.452 364.964 397.964C364.964 397.468 364.84 397.092 364.592 396.836C364.352 396.572 363.996 396.44 363.524 396.44C363.188 396.44 362.908 396.524 362.684 396.692C362.46 396.86 362.3 397.084 362.204 397.364H360.596V392.228H366.02V393.704ZM367.671 394.4C367.671 393.792 367.847 393.316 368.199 392.972C368.559 392.628 369.019 392.456 369.579 392.456C370.139 392.456 370.595 392.628 370.947 392.972C371.307 393.316 371.487 393.792 371.487 394.4C371.487 395.016 371.307 395.496 370.947 395.84C370.595 396.184 370.139 396.356 369.579 396.356C369.019 396.356 368.559 396.184 368.199 395.84C367.847 395.496 367.671 395.016 367.671 394.4ZM375.375 392.6L370.659 401H369.027L373.731 392.6H375.375ZM369.567 393.464C369.127 393.464 368.907 393.776 368.907 394.4C368.907 395.032 369.127 395.348 369.567 395.348C369.783 395.348 369.951 395.272 370.071 395.12C370.191 394.96 370.251 394.72 370.251 394.4C370.251 393.776 370.023 393.464 369.567 393.464ZM372.939 399.188C372.939 398.572 373.115 398.096 373.467 397.76C373.827 397.416 374.287 397.244 374.847 397.244C375.407 397.244 375.859 397.416 376.203 397.76C376.555 398.096 376.731 398.572 376.731 399.188C376.731 399.804 376.555 400.284 376.203 400.628C375.859 400.972 375.407 401.144 374.847 401.144C374.279 401.144 373.819 400.972 373.467 400.628C373.115 400.284 372.939 399.804 372.939 399.188ZM374.835 398.252C374.379 398.252 374.151 398.564 374.151 399.188C374.151 399.82 374.379 400.136 374.835 400.136C375.283 400.136 375.507 399.82 375.507 399.188C375.507 398.564 375.283 398.252 374.835 398.252ZM377.572 403.364V403.196C378.38 402.364 379 401.384 379.432 400.256C379.872 399.12 380.092 397.944 380.092 396.728C380.092 395.48 379.86 394.268 379.396 393.092C378.94 391.916 378.272 390.908 377.392 390.068V389.912H379.084C379.94 390.68 380.592 391.668 381.04 392.876C381.488 394.076 381.712 395.36 381.712 396.728C381.712 398.064 381.496 399.316 381.064 400.484C380.64 401.652 380.04 402.612 379.264 403.364H377.572Z" fill="black"/>
<path d="M289.391 436.704H285.503V438.756C285.671 438.548 285.911 438.38 286.223 438.252C286.535 438.116 286.867 438.048 287.219 438.048C287.859 438.048 288.383 438.188 288.791 438.468C289.199 438.748 289.495 439.108 289.679 439.548C289.863 439.98 289.955 440.444 289.955 440.94C289.955 441.86 289.691 442.6 289.163 443.16C288.643 443.72 287.899 444 286.931 444C286.019 444 285.291 443.772 284.747 443.316C284.203 442.86 283.895 442.264 283.823 441.528H285.455C285.527 441.848 285.687 442.104 285.935 442.296C286.191 442.488 286.515 442.584 286.907 442.584C287.379 442.584 287.735 442.436 287.975 442.14C288.215 441.844 288.335 441.452 288.335 440.964C288.335 440.468 288.211 440.092 287.963 439.836C287.723 439.572 287.367 439.44 286.895 439.44C286.559 439.44 286.279 439.524 286.055 439.692C285.831 439.86 285.671 440.084 285.575 440.364H283.967V435.228H289.391V436.704ZM295.362 444L293.106 441.168V444H291.426V435.12H293.106V440.172L295.338 437.352H297.522L294.594 440.688L297.546 444H295.362ZM306.993 435.624V436.98H304.761V444H303.081V436.98H300.849V435.624H306.993ZM311.171 444.108C310.531 444.108 309.955 443.968 309.443 443.688C308.931 443.4 308.527 442.996 308.231 442.476C307.943 441.956 307.799 441.356 307.799 440.676C307.799 439.996 307.947 439.396 308.243 438.876C308.547 438.356 308.959 437.956 309.479 437.676C309.999 437.388 310.579 437.244 311.219 437.244C311.859 437.244 312.439 437.388 312.959 437.676C313.479 437.956 313.887 438.356 314.183 438.876C314.487 439.396 314.639 439.996 314.639 440.676C314.639 441.356 314.483 441.956 314.171 442.476C313.867 442.996 313.451 443.4 312.923 443.688C312.403 443.968 311.819 444.108 311.171 444.108ZM311.171 442.644C311.475 442.644 311.759 442.572 312.023 442.428C312.295 442.276 312.511 442.052 312.671 441.756C312.831 441.46 312.911 441.1 312.911 440.676C312.911 440.044 312.743 439.56 312.407 439.224C312.079 438.88 311.675 438.708 311.195 438.708C310.715 438.708 310.311 438.88 309.983 439.224C309.663 439.56 309.503 440.044 309.503 440.676C309.503 441.308 309.659 441.796 309.971 442.14C310.291 442.476 310.691 442.644 311.171 442.644ZM319.807 444L317.551 441.168V444H315.871V435.12H317.551V440.172L319.783 437.352H321.967L319.039 440.688L321.991 444H319.807ZM329.059 440.532C329.059 440.772 329.043 440.988 329.011 441.18H324.151C324.191 441.66 324.359 442.036 324.655 442.308C324.951 442.58 325.315 442.716 325.747 442.716C326.371 442.716 326.815 442.448 327.079 441.912H328.891C328.699 442.552 328.331 443.08 327.787 443.496C327.243 443.904 326.575 444.108 325.783 444.108C325.143 444.108 324.567 443.968 324.055 443.688C323.551 443.4 323.155 442.996 322.867 442.476C322.587 441.956 322.447 441.356 322.447 440.676C322.447 439.988 322.587 439.384 322.867 438.864C323.147 438.344 323.539 437.944 324.043 437.664C324.547 437.384 325.127 437.244 325.783 437.244C326.415 437.244 326.979 437.38 327.475 437.652C327.979 437.924 328.367 438.312 328.639 438.816C328.919 439.312 329.059 439.884 329.059 440.532ZM327.319 440.052C327.311 439.62 327.155 439.276 326.851 439.02C326.547 438.756 326.175 438.624 325.735 438.624C325.319 438.624 324.967 438.752 324.679 439.008C324.399 439.256 324.227 439.604 324.163 440.052H327.319ZM333.969 437.256C334.761 437.256 335.401 437.508 335.889 438.012C336.377 438.508 336.621 439.204 336.621 440.1V444H334.941V440.328C334.941 439.8 334.809 439.396 334.545 439.116C334.281 438.828 333.921 438.684 333.465 438.684C333.001 438.684 332.633 438.828 332.361 439.116C332.097 439.396 331.965 439.8 331.965 440.328V444H330.285V437.352H331.965V438.18C332.189 437.892 332.473 437.668 332.817 437.508C333.169 437.34 333.553 437.256 333.969 437.256ZM340.763 444.108C340.219 444.108 339.731 444.012 339.299 443.82C338.867 443.62 338.523 443.352 338.267 443.016C338.019 442.68 337.883 442.308 337.859 441.9H339.551C339.583 442.156 339.707 442.368 339.923 442.536C340.147 442.704 340.423 442.788 340.751 442.788C341.071 442.788 341.319 442.724 341.495 442.596C341.679 442.468 341.771 442.304 341.771 442.104C341.771 441.888 341.659 441.728 341.435 441.624C341.219 441.512 340.871 441.392 340.391 441.264C339.895 441.144 339.487 441.02 339.167 440.892C338.855 440.764 338.583 440.568 338.351 440.304C338.127 440.04 338.015 439.684 338.015 439.236C338.015 438.868 338.119 438.532 338.327 438.228C338.543 437.924 338.847 437.684 339.239 437.508C339.639 437.332 340.107 437.244 340.643 437.244C341.435 437.244 342.067 437.444 342.539 437.844C343.011 438.236 343.271 438.768 343.319 439.44H341.711C341.687 439.176 341.575 438.968 341.375 438.816C341.183 438.656 340.923 438.576 340.595 438.576C340.291 438.576 340.055 438.632 339.887 438.744C339.727 438.856 339.647 439.012 339.647 439.212C339.647 439.436 339.759 439.608 339.983 439.728C340.207 439.84 340.555 439.956 341.027 440.076C341.507 440.196 341.903 440.32 342.215 440.448C342.527 440.576 342.795 440.776 343.019 441.048C343.251 441.312 343.371 441.664 343.379 442.104C343.379 442.488 343.271 442.832 343.055 443.136C342.847 443.44 342.543 443.68 342.143 443.856C341.751 444.024 341.291 444.108 340.763 444.108ZM350.521 446.364C349.745 445.612 349.141 444.652 348.709 443.484C348.285 442.316 348.073 441.064 348.073 439.728C348.073 438.36 348.297 437.076 348.745 435.876C349.193 434.668 349.845 433.68 350.701 432.912H352.393V433.068C351.513 433.908 350.841 434.916 350.377 436.092C349.921 437.268 349.693 438.48 349.693 439.728C349.693 440.944 349.909 442.12 350.341 443.256C350.781 444.384 351.405 445.364 352.213 446.196V446.364H350.521ZM353.777 442.104C354.545 441.464 355.157 440.932 355.613 440.508C356.069 440.076 356.449 439.628 356.753 439.164C357.057 438.7 357.209 438.244 357.209 437.796C357.209 437.388 357.113 437.068 356.921 436.836C356.729 436.604 356.433 436.488 356.033 436.488C355.633 436.488 355.325 436.624 355.109 436.896C354.893 437.16 354.781 437.524 354.773 437.988H353.141C353.173 437.028 353.457 436.3 353.993 435.804C354.537 435.308 355.225 435.06 356.057 435.06C356.969 435.06 357.669 435.304 358.157 435.792C358.645 436.272 358.889 436.908 358.889 437.7C358.889 438.324 358.721 438.92 358.385 439.488C358.049 440.056 357.665 440.552 357.233 440.976C356.801 441.392 356.237 441.896 355.541 442.488H359.081V443.88H353.153V442.632L353.777 442.104ZM366.02 436.704H362.132V438.756C362.3 438.548 362.54 438.38 362.852 438.252C363.164 438.116 363.496 438.048 363.848 438.048C364.488 438.048 365.012 438.188 365.42 438.468C365.828 438.748 366.124 439.108 366.308 439.548C366.492 439.98 366.584 440.444 366.584 440.94C366.584 441.86 366.32 442.6 365.792 443.16C365.272 443.72 364.528 444 363.56 444C362.648 444 361.92 443.772 361.376 443.316C360.832 442.86 360.524 442.264 360.452 441.528H362.084C362.156 441.848 362.316 442.104 362.564 442.296C362.82 442.488 363.144 442.584 363.536 442.584C364.008 442.584 364.364 442.436 364.604 442.14C364.844 441.844 364.964 441.452 364.964 440.964C364.964 440.468 364.84 440.092 364.592 439.836C364.352 439.572 363.996 439.44 363.524 439.44C363.188 439.44 362.908 439.524 362.684 439.692C362.46 439.86 362.3 440.084 362.204 440.364H360.596V435.228H366.02V436.704ZM367.671 437.4C367.671 436.792 367.847 436.316 368.199 435.972C368.559 435.628 369.019 435.456 369.579 435.456C370.139 435.456 370.595 435.628 370.947 435.972C371.307 436.316 371.487 436.792 371.487 437.4C371.487 438.016 371.307 438.496 370.947 438.84C370.595 439.184 370.139 439.356 369.579 439.356C369.019 439.356 368.559 439.184 368.199 438.84C367.847 438.496 367.671 438.016 367.671 437.4ZM375.375 435.6L370.659 444H369.027L373.731 435.6H375.375ZM369.567 436.464C369.127 436.464 368.907 436.776 368.907 437.4C368.907 438.032 369.127 438.348 369.567 438.348C369.783 438.348 369.951 438.272 370.071 438.12C370.191 437.96 370.251 437.72 370.251 437.4C370.251 436.776 370.023 436.464 369.567 436.464ZM372.939 442.188C372.939 441.572 373.115 441.096 373.467 440.76C373.827 440.416 374.287 440.244 374.847 440.244C375.407 440.244 375.859 440.416 376.203 440.76C376.555 441.096 376.731 441.572 376.731 442.188C376.731 442.804 376.555 443.284 376.203 443.628C375.859 443.972 375.407 444.144 374.847 444.144C374.279 444.144 373.819 443.972 373.467 443.628C373.115 443.284 372.939 442.804 372.939 442.188ZM374.835 441.252C374.379 441.252 374.151 441.564 374.151 442.188C374.151 442.82 374.379 443.136 374.835 443.136C375.283 443.136 375.507 442.82 375.507 442.188C375.507 441.564 375.283 441.252 374.835 441.252ZM377.572 446.364V446.196C378.38 445.364 379 444.384 379.432 443.256C379.872 442.12 380.092 440.944 380.092 439.728C380.092 438.48 379.86 437.268 379.396 436.092C378.94 434.916 378.272 433.908 377.392 433.068V432.912H379.084C379.94 433.68 380.592 434.668 381.04 435.876C381.488 437.076 381.712 438.36 381.712 439.728C381.712 441.064 381.496 442.316 381.064 443.484C380.64 444.652 380.04 445.612 379.264 446.364H377.572Z" fill="black"/>
<path d="M283.193 482.296V480.976L287.117 475.36H289.073V480.832H290.129V482.296H289.073V484H287.393V482.296H283.193ZM287.501 477.16L285.041 480.832H287.501V477.16ZM295.327 484L293.071 481.168V484H291.391V475.12H293.071V480.172L295.303 477.352H297.487L294.559 480.688L297.511 484H295.327ZM306.958 475.624V476.98H304.726V484H303.046V476.98H300.814V475.624H306.958ZM311.135 484.108C310.495 484.108 309.919 483.968 309.407 483.688C308.895 483.4 308.491 482.996 308.195 482.476C307.907 481.956 307.763 481.356 307.763 480.676C307.763 479.996 307.911 479.396 308.207 478.876C308.511 478.356 308.923 477.956 309.443 477.676C309.963 477.388 310.543 477.244 311.183 477.244C311.823 477.244 312.403 477.388 312.923 477.676C313.443 477.956 313.851 478.356 314.147 478.876C314.451 479.396 314.603 479.996 314.603 480.676C314.603 481.356 314.447 481.956 314.135 482.476C313.831 482.996 313.415 483.4 312.887 483.688C312.367 483.968 311.783 484.108 311.135 484.108ZM311.135 482.644C311.439 482.644 311.723 482.572 311.987 482.428C312.259 482.276 312.475 482.052 312.635 481.756C312.795 481.46 312.875 481.1 312.875 480.676C312.875 480.044 312.707 479.56 312.371 479.224C312.043 478.88 311.639 478.708 311.159 478.708C310.679 478.708 310.275 478.88 309.947 479.224C309.627 479.56 309.467 480.044 309.467 480.676C309.467 481.308 309.623 481.796 309.935 482.14C310.255 482.476 310.655 482.644 311.135 482.644ZM319.772 484L317.516 481.168V484H315.836V475.12H317.516V480.172L319.748 477.352H321.932L319.004 480.688L321.956 484H319.772ZM329.024 480.532C329.024 480.772 329.008 480.988 328.976 481.18H324.116C324.156 481.66 324.324 482.036 324.62 482.308C324.916 482.58 325.28 482.716 325.712 482.716C326.336 482.716 326.78 482.448 327.044 481.912H328.856C328.664 482.552 328.296 483.08 327.752 483.496C327.208 483.904 326.54 484.108 325.748 484.108C325.108 484.108 324.532 483.968 324.02 483.688C323.516 483.4 323.12 482.996 322.832 482.476C322.552 481.956 322.412 481.356 322.412 480.676C322.412 479.988 322.552 479.384 322.832 478.864C323.112 478.344 323.504 477.944 324.008 477.664C324.512 477.384 325.092 477.244 325.748 477.244C326.38 477.244 326.944 477.38 327.44 477.652C327.944 477.924 328.332 478.312 328.604 478.816C328.884 479.312 329.024 479.884 329.024 480.532ZM327.284 480.052C327.276 479.62 327.12 479.276 326.816 479.02C326.512 478.756 326.14 478.624 325.7 478.624C325.284 478.624 324.932 478.752 324.644 479.008C324.364 479.256 324.192 479.604 324.128 480.052H327.284ZM333.934 477.256C334.726 477.256 335.366 477.508 335.854 478.012C336.342 478.508 336.586 479.204 336.586 480.1V484H334.906V480.328C334.906 479.8 334.774 479.396 334.51 479.116C334.246 478.828 333.886 478.684 333.43 478.684C332.966 478.684 332.598 478.828 332.326 479.116C332.062 479.396 331.93 479.8 331.93 480.328V484H330.25V477.352H331.93V478.18C332.154 477.892 332.438 477.668 332.782 477.508C333.134 477.34 333.518 477.256 333.934 477.256ZM340.727 484.108C340.183 484.108 339.695 484.012 339.263 483.82C338.831 483.62 338.487 483.352 338.231 483.016C337.983 482.68 337.847 482.308 337.823 481.9H339.515C339.547 482.156 339.671 482.368 339.887 482.536C340.111 482.704 340.387 482.788 340.715 482.788C341.035 482.788 341.283 482.724 341.459 482.596C341.643 482.468 341.735 482.304 341.735 482.104C341.735 481.888 341.623 481.728 341.399 481.624C341.183 481.512 340.835 481.392 340.355 481.264C339.859 481.144 339.451 481.02 339.131 480.892C338.819 480.764 338.547 480.568 338.315 480.304C338.091 480.04 337.979 479.684 337.979 479.236C337.979 478.868 338.083 478.532 338.291 478.228C338.507 477.924 338.811 477.684 339.203 477.508C339.603 477.332 340.071 477.244 340.607 477.244C341.399 477.244 342.031 477.444 342.503 477.844C342.975 478.236 343.235 478.768 343.283 479.44H341.675C341.651 479.176 341.539 478.968 341.339 478.816C341.147 478.656 340.887 478.576 340.559 478.576C340.255 478.576 340.019 478.632 339.851 478.744C339.691 478.856 339.611 479.012 339.611 479.212C339.611 479.436 339.723 479.608 339.947 479.728C340.171 479.84 340.519 479.956 340.991 480.076C341.471 480.196 341.867 480.32 342.179 480.448C342.491 480.576 342.759 480.776 342.983 481.048C343.215 481.312 343.335 481.664 343.343 482.104C343.343 482.488 343.235 482.832 343.019 483.136C342.811 483.44 342.507 483.68 342.107 483.856C341.715 484.024 341.255 484.108 340.727 484.108ZM350.486 486.364C349.71 485.612 349.106 484.652 348.674 483.484C348.25 482.316 348.038 481.064 348.038 479.728C348.038 478.36 348.262 477.076 348.71 475.876C349.158 474.668 349.81 473.68 350.666 472.912H352.358V473.068C351.478 473.908 350.806 474.916 350.342 476.092C349.886 477.268 349.658 478.48 349.658 479.728C349.658 480.944 349.874 482.12 350.306 483.256C350.746 484.384 351.37 485.364 352.178 486.196V486.364H350.486ZM353.742 482.104C354.51 481.464 355.122 480.932 355.578 480.508C356.034 480.076 356.414 479.628 356.718 479.164C357.022 478.7 357.174 478.244 357.174 477.796C357.174 477.388 357.078 477.068 356.886 476.836C356.694 476.604 356.398 476.488 355.998 476.488C355.598 476.488 355.29 476.624 355.074 476.896C354.858 477.16 354.746 477.524 354.738 477.988H353.106C353.138 477.028 353.422 476.3 353.958 475.804C354.502 475.308 355.19 475.06 356.022 475.06C356.934 475.06 357.634 475.304 358.122 475.792C358.61 476.272 358.854 476.908 358.854 477.7C358.854 478.324 358.686 478.92 358.35 479.488C358.014 480.056 357.63 480.552 357.198 480.976C356.766 481.392 356.202 481.896 355.506 482.488H359.046V483.88H353.118V482.632L353.742 482.104ZM360.105 479.512C360.105 478.128 360.353 477.044 360.849 476.26C361.353 475.476 362.185 475.084 363.345 475.084C364.505 475.084 365.333 475.476 365.829 476.26C366.333 477.044 366.585 478.128 366.585 479.512C366.585 480.904 366.333 481.996 365.829 482.788C365.333 483.58 364.505 483.976 363.345 483.976C362.185 483.976 361.353 483.58 360.849 482.788C360.353 481.996 360.105 480.904 360.105 479.512ZM364.929 479.512C364.929 478.92 364.889 478.424 364.809 478.024C364.737 477.616 364.585 477.284 364.353 477.028C364.129 476.772 363.793 476.644 363.345 476.644C362.897 476.644 362.557 476.772 362.325 477.028C362.101 477.284 361.949 477.616 361.869 478.024C361.797 478.424 361.761 478.92 361.761 479.512C361.761 480.12 361.797 480.632 361.869 481.048C361.941 481.456 362.093 481.788 362.325 482.044C362.557 482.292 362.897 482.416 363.345 482.416C363.793 482.416 364.133 482.292 364.365 482.044C364.597 481.788 364.749 481.456 364.821 481.048C364.893 480.632 364.929 480.12 364.929 479.512ZM367.671 477.4C367.671 476.792 367.847 476.316 368.199 475.972C368.559 475.628 369.019 475.456 369.579 475.456C370.139 475.456 370.595 475.628 370.947 475.972C371.307 476.316 371.487 476.792 371.487 477.4C371.487 478.016 371.307 478.496 370.947 478.84C370.595 479.184 370.139 479.356 369.579 479.356C369.019 479.356 368.559 479.184 368.199 478.84C367.847 478.496 367.671 478.016 367.671 477.4ZM375.375 475.6L370.659 484H369.027L373.731 475.6H375.375ZM369.567 476.464C369.127 476.464 368.907 476.776 368.907 477.4C368.907 478.032 369.127 478.348 369.567 478.348C369.783 478.348 369.951 478.272 370.071 478.12C370.191 477.96 370.251 477.72 370.251 477.4C370.251 476.776 370.023 476.464 369.567 476.464ZM372.939 482.188C372.939 481.572 373.115 481.096 373.467 480.76C373.827 480.416 374.287 480.244 374.847 480.244C375.407 480.244 375.859 480.416 376.203 480.76C376.555 481.096 376.731 481.572 376.731 482.188C376.731 482.804 376.555 483.284 376.203 483.628C375.859 483.972 375.407 484.144 374.847 484.144C374.279 484.144 373.819 483.972 373.467 483.628C373.115 483.284 372.939 482.804 372.939 482.188ZM374.835 481.252C374.379 481.252 374.151 481.564 374.151 482.188C374.151 482.82 374.379 483.136 374.835 483.136C375.283 483.136 375.507 482.82 375.507 482.188C375.507 481.564 375.283 481.252 374.835 481.252ZM377.572 486.364V486.196C378.38 485.364 379 484.384 379.432 483.256C379.872 482.12 380.092 480.944 380.092 479.728C380.092 478.48 379.86 477.268 379.396 476.092C378.94 474.916 378.272 473.908 377.392 473.068V472.912H379.084C379.94 473.68 380.592 474.668 381.04 475.876C381.488 477.076 381.712 478.36 381.712 479.728C381.712 481.064 381.496 482.316 381.064 483.484C380.64 484.652 380.04 485.612 379.264 486.364H377.572Z" fill="black"/>
<path d="M287.379 524.104C288.147 523.464 288.759 522.932 289.215 522.508C289.671 522.076 290.051 521.628 290.355 521.164C290.659 520.7 290.811 520.244 290.811 519.796C290.811 519.388 290.715 519.068 290.523 518.836C290.331 518.604 290.035 518.488 289.635 518.488C289.235 518.488 288.927 518.624 288.711 518.896C288.495 519.16 288.383 519.524 288.375 519.988H286.743C286.775 519.028 287.059 518.3 287.595 517.804C288.139 517.308 288.827 517.06 289.659 517.06C290.571 517.06 291.271 517.304 291.759 517.792C292.247 518.272 292.491 518.908 292.491 519.7C292.491 520.324 292.323 520.92 291.987 521.488C291.651 522.056 291.267 522.552 290.835 522.976C290.403 523.392 289.839 523.896 289.143 524.488H292.683V525.88H286.755V524.632L287.379 524.104ZM297.869 526L295.613 523.168V526H293.933V517.12H295.613V522.172L297.845 519.352H300.029L297.101 522.688L300.053 526H297.869ZM309.501 517.624V518.98H307.269V526H305.589V518.98H303.357V517.624H309.501ZM313.678 526.108C313.038 526.108 312.462 525.968 311.95 525.688C311.438 525.4 311.034 524.996 310.738 524.476C310.45 523.956 310.306 523.356 310.306 522.676C310.306 521.996 310.454 521.396 310.75 520.876C311.054 520.356 311.466 519.956 311.986 519.676C312.506 519.388 313.086 519.244 313.726 519.244C314.366 519.244 314.946 519.388 315.466 519.676C315.986 519.956 316.394 520.356 316.69 520.876C316.994 521.396 317.146 521.996 317.146 522.676C317.146 523.356 316.99 523.956 316.678 524.476C316.374 524.996 315.958 525.4 315.43 525.688C314.91 525.968 314.326 526.108 313.678 526.108ZM313.678 524.644C313.982 524.644 314.266 524.572 314.53 524.428C314.802 524.276 315.018 524.052 315.178 523.756C315.338 523.46 315.418 523.1 315.418 522.676C315.418 522.044 315.25 521.56 314.914 521.224C314.586 520.88 314.182 520.708 313.702 520.708C313.222 520.708 312.818 520.88 312.49 521.224C312.17 521.56 312.01 522.044 312.01 522.676C312.01 523.308 312.166 523.796 312.478 524.14C312.798 524.476 313.198 524.644 313.678 524.644ZM322.315 526L320.059 523.168V526H318.379V517.12H320.059V522.172L322.291 519.352H324.475L321.547 522.688L324.499 526H322.315ZM331.567 522.532C331.567 522.772 331.551 522.988 331.519 523.18H326.659C326.699 523.66 326.867 524.036 327.163 524.308C327.459 524.58 327.823 524.716 328.255 524.716C328.879 524.716 329.323 524.448 329.587 523.912H331.399C331.207 524.552 330.839 525.08 330.295 525.496C329.751 525.904 329.083 526.108 328.291 526.108C327.651 526.108 327.075 525.968 326.563 525.688C326.059 525.4 325.663 524.996 325.375 524.476C325.095 523.956 324.955 523.356 324.955 522.676C324.955 521.988 325.095 521.384 325.375 520.864C325.655 520.344 326.047 519.944 326.551 519.664C327.055 519.384 327.635 519.244 328.291 519.244C328.923 519.244 329.487 519.38 329.983 519.652C330.487 519.924 330.875 520.312 331.147 520.816C331.427 521.312 331.567 521.884 331.567 522.532ZM329.827 522.052C329.819 521.62 329.663 521.276 329.359 521.02C329.055 520.756 328.683 520.624 328.243 520.624C327.827 520.624 327.475 520.752 327.187 521.008C326.907 521.256 326.735 521.604 326.671 522.052H329.827ZM336.477 519.256C337.269 519.256 337.909 519.508 338.397 520.012C338.885 520.508 339.129 521.204 339.129 522.1V526H337.449V522.328C337.449 521.8 337.317 521.396 337.053 521.116C336.789 520.828 336.429 520.684 335.973 520.684C335.509 520.684 335.141 520.828 334.869 521.116C334.605 521.396 334.473 521.8 334.473 522.328V526H332.793V519.352H334.473V520.18C334.697 519.892 334.981 519.668 335.325 519.508C335.677 519.34 336.061 519.256 336.477 519.256ZM343.27 526.108C342.726 526.108 342.238 526.012 341.806 525.82C341.374 525.62 341.03 525.352 340.774 525.016C340.526 524.68 340.39 524.308 340.366 523.9H342.058C342.09 524.156 342.214 524.368 342.43 524.536C342.654 524.704 342.93 524.788 343.258 524.788C343.578 524.788 343.826 524.724 344.002 524.596C344.186 524.468 344.278 524.304 344.278 524.104C344.278 523.888 344.166 523.728 343.942 523.624C343.726 523.512 343.378 523.392 342.898 523.264C342.402 523.144 341.994 523.02 341.674 522.892C341.362 522.764 341.09 522.568 340.858 522.304C340.634 522.04 340.522 521.684 340.522 521.236C340.522 520.868 340.626 520.532 340.834 520.228C341.05 519.924 341.354 519.684 341.746 519.508C342.146 519.332 342.614 519.244 343.15 519.244C343.942 519.244 344.574 519.444 345.046 519.844C345.518 520.236 345.778 520.768 345.826 521.44H344.218C344.194 521.176 344.082 520.968 343.882 520.816C343.69 520.656 343.43 520.576 343.102 520.576C342.798 520.576 342.562 520.632 342.394 520.744C342.234 520.856 342.154 521.012 342.154 521.212C342.154 521.436 342.266 521.608 342.49 521.728C342.714 521.84 343.062 521.956 343.534 522.076C344.014 522.196 344.41 522.32 344.722 522.448C345.034 522.576 345.302 522.776 345.526 523.048C345.758 523.312 345.878 523.664 345.886 524.104C345.886 524.488 345.778 524.832 345.562 525.136C345.354 525.44 345.05 525.68 344.65 525.856C344.258 526.024 343.798 526.108 343.27 526.108ZM353.029 528.364C352.253 527.612 351.649 526.652 351.217 525.484C350.793 524.316 350.581 523.064 350.581 521.728C350.581 520.36 350.805 519.076 351.253 517.876C351.701 516.668 352.353 515.68 353.209 514.912H354.901V515.068C354.021 515.908 353.349 516.916 352.885 518.092C352.429 519.268 352.201 520.48 352.201 521.728C352.201 522.944 352.417 524.12 352.849 525.256C353.289 526.384 353.913 527.364 354.721 528.196V528.364H353.029ZM355.553 518.8V517.252H358.445V526H356.717V518.8H355.553ZM360.105 521.512C360.105 520.128 360.353 519.044 360.849 518.26C361.353 517.476 362.185 517.084 363.345 517.084C364.505 517.084 365.333 517.476 365.829 518.26C366.333 519.044 366.585 520.128 366.585 521.512C366.585 522.904 366.333 523.996 365.829 524.788C365.333 525.58 364.505 525.976 363.345 525.976C362.185 525.976 361.353 525.58 360.849 524.788C360.353 523.996 360.105 522.904 360.105 521.512ZM364.929 521.512C364.929 520.92 364.889 520.424 364.809 520.024C364.737 519.616 364.585 519.284 364.353 519.028C364.129 518.772 363.793 518.644 363.345 518.644C362.897 518.644 362.557 518.772 362.325 519.028C362.101 519.284 361.949 519.616 361.869 520.024C361.797 520.424 361.761 520.92 361.761 521.512C361.761 522.12 361.797 522.632 361.869 523.048C361.941 523.456 362.093 523.788 362.325 524.044C362.557 524.292 362.897 524.416 363.345 524.416C363.793 524.416 364.133 524.292 364.365 524.044C364.597 523.788 364.749 523.456 364.821 523.048C364.893 522.632 364.929 522.12 364.929 521.512ZM367.671 519.4C367.671 518.792 367.847 518.316 368.199 517.972C368.559 517.628 369.019 517.456 369.579 517.456C370.139 517.456 370.595 517.628 370.947 517.972C371.307 518.316 371.487 518.792 371.487 519.4C371.487 520.016 371.307 520.496 370.947 520.84C370.595 521.184 370.139 521.356 369.579 521.356C369.019 521.356 368.559 521.184 368.199 520.84C367.847 520.496 367.671 520.016 367.671 519.4ZM375.375 517.6L370.659 526H369.027L373.731 517.6H375.375ZM369.567 518.464C369.127 518.464 368.907 518.776 368.907 519.4C368.907 520.032 369.127 520.348 369.567 520.348C369.783 520.348 369.951 520.272 370.071 520.12C370.191 519.96 370.251 519.72 370.251 519.4C370.251 518.776 370.023 518.464 369.567 518.464ZM372.939 524.188C372.939 523.572 373.115 523.096 373.467 522.76C373.827 522.416 374.287 522.244 374.847 522.244C375.407 522.244 375.859 522.416 376.203 522.76C376.555 523.096 376.731 523.572 376.731 524.188C376.731 524.804 376.555 525.284 376.203 525.628C375.859 525.972 375.407 526.144 374.847 526.144C374.279 526.144 373.819 525.972 373.467 525.628C373.115 525.284 372.939 524.804 372.939 524.188ZM374.835 523.252C374.379 523.252 374.151 523.564 374.151 524.188C374.151 524.82 374.379 525.136 374.835 525.136C375.283 525.136 375.507 524.82 375.507 524.188C375.507 523.564 375.283 523.252 374.835 523.252ZM377.572 528.364V528.196C378.38 527.364 379 526.384 379.432 525.256C379.872 524.12 380.092 522.944 380.092 521.728C380.092 520.48 379.86 519.268 379.396 518.092C378.94 516.916 378.272 515.908 377.392 515.068V514.912H379.084C379.94 515.68 380.592 516.668 381.04 517.876C381.488 519.076 381.712 520.36 381.712 521.728C381.712 523.064 381.496 524.316 381.064 525.484C380.64 526.652 380.04 527.612 379.264 528.364H377.572Z" fill="black"/>
</svg>
