<svg width="28" height="28" viewBox="0 0 28 28" fill="none" xmlns="http://www.w3.org/2000/svg">
<path d="M3.5 9.33293V23.3329C3.5 23.6424 3.62292 23.9391 3.84171 24.1579C4.0605 24.3767 4.35725 24.4996 4.66667 24.4996H10.5C10.8094 24.4996 11.1062 24.3767 11.325 24.1579C11.5437 23.9391 11.6667 23.6424 11.6667 23.3329V15.1663H16.3333V23.3329C16.3333 23.6424 16.4562 23.9391 16.675 24.1579C16.8938 24.3767 17.1906 24.4996 17.5 24.4996H23.3333C23.6428 24.4996 23.9395 24.3767 24.1583 24.1579C24.3771 23.9391 24.5 23.6424 24.5 23.3329V9.33293C24.5 9.15181 24.4578 8.97318 24.3768 8.81118C24.2958 8.64918 24.1782 8.50827 24.0333 8.39959L14.7 1.39959C14.4981 1.24813 14.2524 1.16626 14 1.16626C13.7476 1.16626 13.5019 1.24813 13.3 1.39959L3.96667 8.39959C3.82177 8.50827 3.70417 8.64918 3.62317 8.81118C3.54217 8.97318 3.5 9.15181 3.5 9.33293V9.33293ZM5.83333 9.91626L14 3.79126L22.1667 9.91626V22.1663H18.6667V13.9996C18.6667 13.6902 18.5437 13.3934 18.325 13.1746C18.1062 12.9558 17.8094 12.8329 17.5 12.8329H10.5C10.1906 12.8329 9.89383 12.9558 9.67504 13.1746C9.45625 13.3934 9.33333 13.6902 9.33333 13.9996V22.1663H5.83333V9.91626Z" fill="#737373"/>
</svg>
