<svg width="18" height="10" viewBox="0 0 18 10" fill="none" xmlns="http://www.w3.org/2000/svg">
<path d="M5.25 9.5C4 9.5 2.9375 9.0625 2.0625 8.1875C1.1875 7.3125 0.75 6.25 0.75 5C0.75 3.75 1.1875 2.6875 2.0625 1.8125C2.9375 0.9375 4 0.5 5.25 0.5C6.2625 0.5 7.147 0.78425 7.9035 1.35275C8.6595 1.92175 9.1875 2.6375 9.4875 3.5H17.25V6.5H15.75V9.5H12.75V6.5H9.4875C9.1875 7.3625 8.6595 8.07825 7.9035 8.64725C7.147 9.21575 6.2625 9.5 5.25 9.5ZM5.25 6.5C5.6625 6.5 6.0155 6.353 6.309 6.059C6.603 5.7655 6.75 5.4125 6.75 5C6.75 4.5875 6.603 4.23425 6.309 3.94025C6.0155 3.64675 5.6625 3.5 5.25 3.5C4.8375 3.5 4.4845 3.64675 4.191 3.94025C3.897 4.23425 3.75 4.5875 3.75 5C3.75 5.4125 3.897 5.7655 4.191 6.059C4.4845 6.353 4.8375 6.5 5.25 6.5Z" fill="#727272"/>
</svg>
