<svg width="18" height="14" viewBox="0 0 18 14" fill="none" xmlns="http://www.w3.org/2000/svg">
<path d="M1.6875 0.25C0.755859 0.25 0 1.00586 0 1.9375C0 2.46836 0.249609 2.96758 0.675 3.2875L8.325 9.025C8.72578 9.32383 9.27422 9.32383 9.675 9.025L17.325 3.2875C17.7504 2.96758 18 2.46836 18 1.9375C18 1.00586 17.2441 0.25 16.3125 0.25H1.6875ZM0 4.1875V11.5C0 12.741 1.00898 13.75 2.25 13.75H15.75C16.991 13.75 18 12.741 18 11.5V4.1875L10.35 9.925C9.54844 10.5262 8.45156 10.5262 7.65 9.925L0 4.1875Z" fill="#727272"/>
</svg>
