<svg width="84" height="23" viewBox="0 0 84 23" fill="none" xmlns="http://www.w3.org/2000/svg">
<rect width="84" height="23" rx="11.5" fill="#2ED6A3" fill-opacity="0.15"/>
<path d="M23.8948 4.625C22.4635 4.625 21.0643 5.02821 19.8742 5.78365C18.6841 6.53908 17.7566 7.61281 17.2088 8.86905C16.6611 10.1253 16.5178 11.5076 16.797 12.8412C17.0763 14.1749 17.7655 15.3999 18.7776 16.3614C19.7897 17.3228 21.0792 17.9776 22.483 18.2429C23.8868 18.5082 25.3419 18.372 26.6642 17.8517C27.9866 17.3313 29.1168 16.4501 29.912 15.3195C30.7072 14.189 31.1316 12.8597 31.1316 11.5C31.1294 9.6773 30.3662 7.92986 29.0095 6.64102C27.6528 5.35217 25.8134 4.62715 23.8948 4.625ZM23.8948 17.125C22.7237 17.125 21.579 16.7951 20.6052 16.177C19.6315 15.5589 18.8726 14.6804 18.4245 13.6526C17.9763 12.6248 17.8591 11.4938 18.0875 10.4026C18.316 9.31147 18.8799 8.30919 19.708 7.52252C20.5361 6.73585 21.5911 6.20012 22.7397 5.98308C23.8882 5.76604 25.0788 5.87743 26.1607 6.30318C27.2426 6.72892 28.1674 7.44989 28.818 8.37492C29.4686 9.29994 29.8159 10.3875 29.8159 11.5C29.8141 12.9913 29.1897 14.4211 28.0797 15.4756C26.9697 16.5302 25.4646 17.1233 23.8948 17.125Z" fill="#00A389"/>
<path d="M26.7395 9.47692L23.2566 12.51L21.7283 11.0582C21.6676 10.9985 21.595 10.9509 21.5147 10.9181C21.4345 10.8854 21.3481 10.8681 21.2608 10.8674C21.1734 10.8667 21.0868 10.8825 21.0059 10.9139C20.9251 10.9453 20.8516 10.9917 20.7899 11.0504C20.7281 11.1091 20.6792 11.1789 20.6462 11.2557C20.6131 11.3325 20.5964 11.4148 20.5972 11.4978C20.598 11.5808 20.6161 11.6628 20.6506 11.739C20.6851 11.8153 20.7352 11.8843 20.798 11.9419L22.7717 13.8169C22.8916 13.9308 23.0531 13.9964 23.2227 13.9999C23.3922 14.0034 23.5566 13.9445 23.6816 13.8357L27.6289 10.3982C27.7575 10.2861 27.834 10.1301 27.8415 9.9645C27.8491 9.79889 27.787 9.63721 27.6691 9.51505C27.5511 9.39288 27.3869 9.32023 27.2126 9.31308C27.0382 9.30593 26.8681 9.36487 26.7395 9.47692Z" fill="#00A389"/>
<path d="M43.6436 9.168C43.6436 9.66267 43.5269 10.1293 43.2936 10.568C43.0602 11.0067 42.6869 11.366 42.1736 11.646C41.6602 11.9167 41.0022 12.052 40.1996 12.052H38.4356V16H36.8396V6.27H40.1996C40.9462 6.27 41.5762 6.40067 42.0896 6.662C42.6122 6.914 42.9996 7.25933 43.2516 7.698C43.5129 8.13667 43.6436 8.62667 43.6436 9.168ZM40.1996 10.75C40.8062 10.75 41.2589 10.6147 41.5576 10.344C41.8562 10.064 42.0056 9.672 42.0056 9.168C42.0056 8.104 41.4036 7.572 40.1996 7.572H38.4356V10.75H40.1996ZM45.0337 12.108C45.0337 11.3333 45.1924 10.6473 45.5097 10.05C45.8364 9.45267 46.2751 8.99067 46.8257 8.664C47.3857 8.328 48.0017 8.16 48.6737 8.16C49.2804 8.16 49.8077 8.28133 50.2557 8.524C50.7131 8.75733 51.0771 9.05133 51.3477 9.406V8.286H52.9577V16H51.3477V14.852C51.0771 15.216 50.7084 15.5193 50.2417 15.762C49.7751 16.0047 49.2431 16.126 48.6457 16.126C47.9831 16.126 47.3764 15.958 46.8257 15.622C46.2751 15.2767 45.8364 14.8007 45.5097 14.194C45.1924 13.578 45.0337 12.8827 45.0337 12.108ZM51.3477 12.136C51.3477 11.604 51.2357 11.142 51.0117 10.75C50.7971 10.358 50.5124 10.0593 50.1577 9.854C49.8031 9.64867 49.4204 9.546 49.0097 9.546C48.5991 9.546 48.2164 9.64867 47.8617 9.854C47.5071 10.05 47.2177 10.344 46.9937 10.736C46.7791 11.1187 46.6717 11.576 46.6717 12.108C46.6717 12.64 46.7791 13.1067 46.9937 13.508C47.2177 13.9093 47.5071 14.2173 47.8617 14.432C48.2257 14.6373 48.6084 14.74 49.0097 14.74C49.4204 14.74 49.8031 14.6373 50.1577 14.432C50.5124 14.2267 50.7971 13.928 51.0117 13.536C51.2357 13.1347 51.3477 12.668 51.3477 12.136ZM56.266 7.264C55.9767 7.264 55.734 7.166 55.538 6.97C55.342 6.774 55.244 6.53133 55.244 6.242C55.244 5.95267 55.342 5.71 55.538 5.514C55.734 5.318 55.9767 5.22 56.266 5.22C56.546 5.22 56.784 5.318 56.98 5.514C57.176 5.71 57.274 5.95267 57.274 6.242C57.274 6.53133 57.176 6.774 56.98 6.97C56.784 7.166 56.546 7.264 56.266 7.264ZM57.05 8.286V16H55.454V8.286H57.05ZM59.0134 12.108C59.0134 11.3333 59.1721 10.6473 59.4894 10.05C59.8161 9.45267 60.2547 8.99067 60.8054 8.664C61.3654 8.328 61.9861 8.16 62.6674 8.16C63.1714 8.16 63.6661 8.272 64.1514 8.496C64.6461 8.71067 65.0381 9 65.3274 9.364V5.64H66.9374V16H65.3274V14.838C65.0661 15.2113 64.7021 15.5193 64.2354 15.762C63.7781 16.0047 63.2507 16.126 62.6534 16.126C61.9814 16.126 61.3654 15.958 60.8054 15.622C60.2547 15.2767 59.8161 14.8007 59.4894 14.194C59.1721 13.578 59.0134 12.8827 59.0134 12.108ZM65.3274 12.136C65.3274 11.604 65.2154 11.142 64.9914 10.75C64.7767 10.358 64.4921 10.0593 64.1374 9.854C63.7827 9.64867 63.4001 9.546 62.9894 9.546C62.5787 9.546 62.1961 9.64867 61.8414 9.854C61.4867 10.05 61.1974 10.344 60.9734 10.736C60.7587 11.1187 60.6514 11.576 60.6514 12.108C60.6514 12.64 60.7587 13.1067 60.9734 13.508C61.1974 13.9093 61.4867 14.2173 61.8414 14.432C62.2054 14.6373 62.5881 14.74 62.9894 14.74C63.4001 14.74 63.7827 14.6373 64.1374 14.432C64.4921 14.2267 64.7767 13.928 64.9914 13.536C65.2154 13.1347 65.3274 12.668 65.3274 12.136Z" fill="#00A389"/>
</svg>
