<svg width="202" height="202" viewBox="0 0 202 202" fill="none" xmlns="http://www.w3.org/2000/svg">
<mask id="path-1-outside-1_1_3913" maskUnits="userSpaceOnUse" x="0" y="0" width="202" height="202" fill="black">
<rect fill="white" width="202" height="202"/>
<path d="M197 101C197 154.019 154.019 197 101 197C47.9807 197 5 154.019 5 101C5 47.9807 47.9807 5 101 5C154.019 5 197 47.9807 197 101ZM50.6 101C50.6 128.835 73.1648 151.4 101 151.4C128.835 151.4 151.4 128.835 151.4 101C151.4 73.1648 128.835 50.6 101 50.6C73.1648 50.6 50.6 73.1648 50.6 101Z"/>
</mask>
<path d="M197 101C197 154.019 154.019 197 101 197C47.9807 197 5 154.019 5 101C5 47.9807 47.9807 5 101 5C154.019 5 197 47.9807 197 101ZM50.6 101C50.6 128.835 73.1648 151.4 101 151.4C128.835 151.4 151.4 128.835 151.4 101C151.4 73.1648 128.835 50.6 101 50.6C73.1648 50.6 50.6 73.1648 50.6 101Z" fill="#F0CECE"/>
<path d="M197 101C197 154.019 154.019 197 101 197C47.9807 197 5 154.019 5 101C5 47.9807 47.9807 5 101 5C154.019 5 197 47.9807 197 101ZM50.6 101C50.6 128.835 73.1648 151.4 101 151.4C128.835 151.4 151.4 128.835 151.4 101C151.4 73.1648 128.835 50.6 101 50.6C73.1648 50.6 50.6 73.1648 50.6 101Z" stroke="white" stroke-width="10" mask="url(#path-1-outside-1_1_3913)"/>
<mask id="path-2-outside-2_1_3913" maskUnits="userSpaceOnUse" x="-1" y="0" width="204" height="202" fill="black">
<rect fill="white" x="-1" width="204" height="202"/>
<path d="M101 5C123.469 5 145.227 12.8816 162.483 27.2722C179.74 41.6628 191.402 61.6505 195.438 83.7543C199.475 105.858 195.63 128.678 184.573 148.239C173.517 167.799 155.949 182.862 134.93 190.804C113.911 198.745 90.7721 199.063 69.5433 191.7C48.3144 184.337 30.3407 169.761 18.7523 150.511C7.16402 131.26 2.69537 108.555 6.12463 86.3485C9.5539 64.1424 20.6638 43.8426 37.5194 28.9846L67.6727 63.1919C58.8235 70.9924 52.9908 81.6497 51.1904 93.308C49.3901 104.966 51.7361 116.887 57.82 126.993C63.9039 137.1 73.3401 144.752 84.4852 148.617C95.6304 152.483 107.778 152.316 118.813 148.147C129.848 143.978 139.071 136.07 144.876 125.8C150.681 115.531 152.699 103.551 150.58 91.946C148.461 80.3415 142.338 69.8479 133.279 62.2929C124.219 54.7378 112.796 50.6 101 50.6V5Z"/>
</mask>
<path d="M101 5C123.469 5 145.227 12.8816 162.483 27.2722C179.74 41.6628 191.402 61.6505 195.438 83.7543C199.475 105.858 195.63 128.678 184.573 148.239C173.517 167.799 155.949 182.862 134.93 190.804C113.911 198.745 90.7721 199.063 69.5433 191.7C48.3144 184.337 30.3407 169.761 18.7523 150.511C7.16402 131.26 2.69537 108.555 6.12463 86.3485C9.5539 64.1424 20.6638 43.8426 37.5194 28.9846L67.6727 63.1919C58.8235 70.9924 52.9908 81.6497 51.1904 93.308C49.3901 104.966 51.7361 116.887 57.82 126.993C63.9039 137.1 73.3401 144.752 84.4852 148.617C95.6304 152.483 107.778 152.316 118.813 148.147C129.848 143.978 139.071 136.07 144.876 125.8C150.681 115.531 152.699 103.551 150.58 91.946C148.461 80.3415 142.338 69.8479 133.279 62.2929C124.219 54.7378 112.796 50.6 101 50.6V5Z" fill="#62C0BB"/>
<path d="M101 5C123.469 5 145.227 12.8816 162.483 27.2722C179.74 41.6628 191.402 61.6505 195.438 83.7543C199.475 105.858 195.63 128.678 184.573 148.239C173.517 167.799 155.949 182.862 134.93 190.804C113.911 198.745 90.7721 199.063 69.5433 191.7C48.3144 184.337 30.3407 169.761 18.7523 150.511C7.16402 131.26 2.69537 108.555 6.12463 86.3485C9.5539 64.1424 20.6638 43.8426 37.5194 28.9846L67.6727 63.1919C58.8235 70.9924 52.9908 81.6497 51.1904 93.308C49.3901 104.966 51.7361 116.887 57.82 126.993C63.9039 137.1 73.3401 144.752 84.4852 148.617C95.6304 152.483 107.778 152.316 118.813 148.147C129.848 143.978 139.071 136.07 144.876 125.8C150.681 115.531 152.699 103.551 150.58 91.946C148.461 80.3415 142.338 69.8479 133.279 62.2929C124.219 54.7378 112.796 50.6 101 50.6V5Z" stroke="white" stroke-width="10" mask="url(#path-2-outside-2_1_3913)"/>
<mask id="path-3-outside-3_1_3913" maskUnits="userSpaceOnUse" x="0" y="0" width="202" height="202" fill="black">
<rect fill="white" width="202" height="202"/>
<path d="M101 5C120.653 5 139.832 11.0317 155.947 22.2804C172.063 33.529 184.337 49.4527 191.113 67.9004C197.889 86.3481 198.84 106.431 193.838 125.437C188.835 144.442 178.12 161.454 163.14 174.175C148.16 186.896 129.636 194.713 110.071 196.57C90.5064 198.428 70.8429 194.235 53.7369 184.56C36.6308 174.884 22.9064 160.191 14.4175 142.467C5.92862 124.742 3.08422 104.838 6.26853 85.4453L51.266 92.8338C49.5942 103.015 51.0875 113.464 55.5442 122.77C60.0009 132.076 67.2062 139.789 76.1869 144.869C85.1675 149.948 95.4909 152.149 105.762 151.174C116.034 150.2 125.759 146.096 133.623 139.417C141.488 132.738 147.113 123.807 149.74 113.829C152.366 103.851 151.867 93.3077 148.31 83.6227C144.752 73.9376 138.308 65.5777 129.847 59.6722C121.387 53.7666 111.318 50.6 101 50.6V5Z"/>
</mask>
<path d="M101 5C120.653 5 139.832 11.0317 155.947 22.2804C172.063 33.529 184.337 49.4527 191.113 67.9004C197.889 86.3481 198.84 106.431 193.838 125.437C188.835 144.442 178.12 161.454 163.14 174.175C148.16 186.896 129.636 194.713 110.071 196.57C90.5064 198.428 70.8429 194.235 53.7369 184.56C36.6308 174.884 22.9064 160.191 14.4175 142.467C5.92862 124.742 3.08422 104.838 6.26853 85.4453L51.266 92.8338C49.5942 103.015 51.0875 113.464 55.5442 122.77C60.0009 132.076 67.2062 139.789 76.1869 144.869C85.1675 149.948 95.4909 152.149 105.762 151.174C116.034 150.2 125.759 146.096 133.623 139.417C141.488 132.738 147.113 123.807 149.74 113.829C152.366 103.851 151.867 93.3077 148.31 83.6227C144.752 73.9376 138.308 65.5777 129.847 59.6722C121.387 53.7666 111.318 50.6 101 50.6V5Z" fill="#FFBB78"/>
<path d="M101 5C120.653 5 139.832 11.0317 155.947 22.2804C172.063 33.529 184.337 49.4527 191.113 67.9004C197.889 86.3481 198.84 106.431 193.838 125.437C188.835 144.442 178.12 161.454 163.14 174.175C148.16 186.896 129.636 194.713 110.071 196.57C90.5064 198.428 70.8429 194.235 53.7369 184.56C36.6308 174.884 22.9064 160.191 14.4175 142.467C5.92862 124.742 3.08422 104.838 6.26853 85.4453L51.266 92.8338C49.5942 103.015 51.0875 113.464 55.5442 122.77C60.0009 132.076 67.2062 139.789 76.1869 144.869C85.1675 149.948 95.4909 152.149 105.762 151.174C116.034 150.2 125.759 146.096 133.623 139.417C141.488 132.738 147.113 123.807 149.74 113.829C152.366 103.851 151.867 93.3077 148.31 83.6227C144.752 73.9376 138.308 65.5777 129.847 59.6722C121.387 53.7666 111.318 50.6 101 50.6V5Z" stroke="white" stroke-width="10" mask="url(#path-3-outside-3_1_3913)"/>
<path d="M101 2.5H98.5001V5V50.6V53.1H101C109.223 53.1 117.307 55.2168 124.475 59.2467C131.643 63.2765 137.652 69.0837 141.925 76.1092C146.198 83.1346 148.59 91.1418 148.872 99.3598C149.154 107.578 147.315 115.73 143.533 123.031C139.751 130.333 134.153 136.538 127.278 141.049C120.403 145.56 112.482 148.225 104.279 148.788C96.075 149.35 87.8647 147.792 80.4381 144.262C73.0114 140.732 66.6185 135.35 61.8747 128.634L60.4325 126.592L58.3904 128.034L21.1437 154.34L19.1016 155.783L20.5439 157.825C30.2988 171.636 43.445 182.704 58.717 189.963C73.989 197.221 90.8724 200.426 107.742 199.269C124.611 198.112 140.899 192.631 155.036 183.355C169.174 174.079 180.686 161.319 188.463 146.305C196.24 131.29 200.021 114.526 199.442 97.6271C198.863 80.7279 193.944 64.2622 185.157 49.8153C176.37 35.3684 164.012 23.4267 149.273 15.1398C134.534 6.85296 117.909 2.5 101 2.5Z" fill="#CEC0EC" stroke="white" stroke-width="5"/>
<mask id="path-5-outside-4_1_3913" maskUnits="userSpaceOnUse" x="88" y="0" width="114" height="202" fill="black">
<rect fill="white" x="88" width="114" height="202"/>
<path d="M101 5C113.913 5 126.694 7.60531 138.577 12.66C150.46 17.7147 161.201 25.1149 170.158 34.4176C179.114 43.7203 186.101 54.7344 190.702 66.8006C195.302 78.8668 197.421 91.7372 196.931 104.641C196.441 117.545 193.353 130.218 187.851 141.901C182.349 153.584 174.547 164.036 164.911 172.633C155.276 181.23 144.004 187.795 131.772 191.934C119.54 196.074 106.599 197.703 93.7227 196.724L97.1794 151.255C103.939 151.769 110.734 150.914 117.155 148.741C123.577 146.567 129.495 143.121 134.553 138.608C139.612 134.094 143.708 128.606 146.597 122.473C149.485 116.34 151.107 109.686 151.364 102.912C151.621 96.137 150.509 89.3801 148.093 83.0453C145.678 76.7106 142.01 70.9282 137.308 66.0442C132.606 61.1603 126.967 57.2752 120.728 54.6215C114.489 51.9678 107.78 50.6 101 50.6V5Z"/>
</mask>
<path d="M101 5C113.913 5 126.694 7.60531 138.577 12.66C150.46 17.7147 161.201 25.1149 170.158 34.4176C179.114 43.7203 186.101 54.7344 190.702 66.8006C195.302 78.8668 197.421 91.7372 196.931 104.641C196.441 117.545 193.353 130.218 187.851 141.901C182.349 153.584 174.547 164.036 164.911 172.633C155.276 181.23 144.004 187.795 131.772 191.934C119.54 196.074 106.599 197.703 93.7227 196.724L97.1794 151.255C103.939 151.769 110.734 150.914 117.155 148.741C123.577 146.567 129.495 143.121 134.553 138.608C139.612 134.094 143.708 128.606 146.597 122.473C149.485 116.34 151.107 109.686 151.364 102.912C151.621 96.137 150.509 89.3801 148.093 83.0453C145.678 76.7106 142.01 70.9282 137.308 66.0442C132.606 61.1603 126.967 57.2752 120.728 54.6215C114.489 51.9678 107.78 50.6 101 50.6V5Z" fill="#AEC7E8"/>
<path d="M101 5C113.913 5 126.694 7.60531 138.577 12.66C150.46 17.7147 161.201 25.1149 170.158 34.4176C179.114 43.7203 186.101 54.7344 190.702 66.8006C195.302 78.8668 197.421 91.7372 196.931 104.641C196.441 117.545 193.353 130.218 187.851 141.901C182.349 153.584 174.547 164.036 164.911 172.633C155.276 181.23 144.004 187.795 131.772 191.934C119.54 196.074 106.599 197.703 93.7227 196.724L97.1794 151.255C103.939 151.769 110.734 150.914 117.155 148.741C123.577 146.567 129.495 143.121 134.553 138.608C139.612 134.094 143.708 128.606 146.597 122.473C149.485 116.34 151.107 109.686 151.364 102.912C151.621 96.137 150.509 89.3801 148.093 83.0453C145.678 76.7106 142.01 70.9282 137.308 66.0442C132.606 61.1603 126.967 57.2752 120.728 54.6215C114.489 51.9678 107.78 50.6 101 50.6V5Z" stroke="white" stroke-width="10" mask="url(#path-5-outside-4_1_3913)"/>
<mask id="path-6-outside-5_1_3913" maskUnits="userSpaceOnUse" x="96" y="0" width="106" height="151" fill="black">
<rect fill="white" x="96" width="106" height="151"/>
<path d="M101 5C117.378 5 133.485 9.19037 147.786 17.1725C162.088 25.1547 174.11 36.6631 182.708 50.6032C191.306 64.5433 196.195 80.4513 196.909 96.8142C197.623 113.177 194.139 129.451 186.788 144.087L146.039 123.621C149.898 115.937 151.727 107.393 151.352 98.8025C150.977 90.212 148.411 81.8602 143.897 74.5417C139.383 67.2231 133.071 61.1812 125.563 56.9906C118.054 52.7999 109.599 50.6 101 50.6V5Z"/>
</mask>
<path d="M101 5C117.378 5 133.485 9.19037 147.786 17.1725C162.088 25.1547 174.11 36.6631 182.708 50.6032C191.306 64.5433 196.195 80.4513 196.909 96.8142C197.623 113.177 194.139 129.451 186.788 144.087L146.039 123.621C149.898 115.937 151.727 107.393 151.352 98.8025C150.977 90.212 148.411 81.8602 143.897 74.5417C139.383 67.2231 133.071 61.1812 125.563 56.9906C118.054 52.7999 109.599 50.6 101 50.6V5Z" fill="#E7EBB8"/>
<path d="M101 5C117.378 5 133.485 9.19037 147.786 17.1725C162.088 25.1547 174.11 36.6631 182.708 50.6032C191.306 64.5433 196.195 80.4513 196.909 96.8142C197.623 113.177 194.139 129.451 186.788 144.087L146.039 123.621C149.898 115.937 151.727 107.393 151.352 98.8025C150.977 90.212 148.411 81.8602 143.897 74.5417C139.383 67.2231 133.071 61.1812 125.563 56.9906C118.054 52.7999 109.599 50.6 101 50.6V5Z" stroke="white" stroke-width="10" mask="url(#path-6-outside-5_1_3913)"/>
</svg>
