<svg width="28" height="17" viewBox="0 0 28 17" fill="none" xmlns="http://www.w3.org/2000/svg">
<path d="M17.7859 1.95142H10.2146V15.0713H17.7859V1.95142Z" fill="#FF5F00"/>
<path d="M10.6953 8.51185C10.6941 7.24831 10.991 6.00107 11.5636 4.86454C12.1362 3.72802 12.9694 2.732 14.0002 1.95189C12.7237 0.984382 11.1907 0.382702 9.57634 0.215622C7.962 0.0485423 6.33148 0.322806 4.87115 1.00706C3.41082 1.69132 2.17959 2.75796 1.3182 4.08508C0.456803 5.41219 0 6.94623 0 8.51185C0 10.0775 0.456803 11.6115 1.3182 12.9386C2.17959 14.2657 3.41082 15.3324 4.87115 16.0166C6.33148 16.7009 7.962 16.9752 9.57634 16.8081C11.1907 16.641 12.7237 16.0393 14.0002 15.0718C12.9694 14.2917 12.1362 13.2957 11.5636 12.1592C10.991 11.0226 10.6941 9.77539 10.6953 8.51185V8.51185Z" fill="#EB001B"/>
<path d="M28 8.51185C28 10.0774 27.5433 11.6115 26.682 12.9386C25.8206 14.2657 24.5894 15.3324 23.1291 16.0166C21.6688 16.7009 20.0383 16.9752 18.424 16.8081C16.8097 16.641 15.2767 16.0393 14.0002 15.0718C15.0301 14.2909 15.8627 13.2947 16.4352 12.1584C17.0077 11.022 17.3051 9.77519 17.3051 8.51185C17.3051 7.24851 17.0077 6.00166 16.4352 4.86531C15.8627 3.72897 15.0301 2.73278 14.0002 1.95189C15.2767 0.984379 16.8097 0.382699 18.424 0.215621C20.0383 0.0485429 21.6688 0.322811 23.1291 1.00708C24.5894 1.69134 25.8206 2.75799 26.682 4.0851C27.5433 5.41222 28 6.94625 28 8.51185V8.51185Z" fill="#F79E1B"/>
<path d="M27.1745 13.682V13.4134H27.2868V13.3587H27.0007V13.4134H27.1131V13.682H27.1745ZM27.7298 13.682V13.3582H27.6421L27.5413 13.5809L27.4404 13.3582H27.3527V13.682H27.4146V13.4377L27.5092 13.6483H27.5734L27.6679 13.4372V13.682H27.7298Z" fill="#F79E1B"/>
</svg>
