<svg width="29" height="12" viewBox="0 0 29 12" fill="none" xmlns="http://www.w3.org/2000/svg">
<path fill-rule="evenodd" clip-rule="evenodd" d="M28.9998 6.50711H27.4913C27.036 6.50711 26.7054 6.61206 26.4712 6.77523V6.50711H24.2399C23.8831 6.50711 23.4642 6.59226 23.2661 6.77523V6.50711H19.2817V6.77523C18.9646 6.55503 18.4295 6.50711 18.1826 6.50711H15.5544V6.77523C15.3035 6.54137 14.7456 6.50711 14.4056 6.50711H11.4642L10.7911 7.20831L10.1607 6.50711H5.76685V11.0886H10.078L10.7715 10.3763L11.4249 11.0886L14.0823 11.0908V10.0131H14.3435C14.6961 10.0183 15.112 10.0047 15.4789 9.85201V11.0885H17.6707V9.89438H17.7765C17.9114 9.89438 17.9247 9.89973 17.9247 10.0295V11.0884H24.5832C25.006 11.0884 25.4478 10.9842 25.6925 10.7952V11.0884H27.8046C28.2441 11.0884 28.6733 11.029 28.9999 10.8772C28.9999 -14.1893 28.9998 17.0023 28.9998 6.50711Z" fill="#006FCF"/>
<path fill-rule="evenodd" clip-rule="evenodd" d="M1.39278 5.43765L1.7068 4.70853H2.40983L2.72302 5.43765H5.46323V4.88022L5.70782 5.44003H7.13033L7.37492 4.8719V5.43765H14.1848L14.1817 4.2408H14.3134C14.4057 4.24387 14.4326 4.25209 14.4326 4.39873V5.43765H17.9547V5.15903C18.2388 5.30557 18.6807 5.43765 19.2622 5.43765H20.7439L21.061 4.70853H21.764L22.0742 5.43765H24.9296V4.74507L25.362 5.43765H27.6501V0.859375H25.3856V1.40007L25.0685 0.859375H22.7449V1.40007L22.4537 0.859375H19.315C18.7896 0.859375 18.3278 0.92997 17.9547 1.12671V0.859375H15.7888V1.12671C15.5514 0.92393 15.2279 0.859375 14.8682 0.859375H6.95516L6.42422 2.04186L5.87897 0.859375H3.38655V1.40007L3.11275 0.859375H0.987114L0 3.03613V5.43765H1.39278Z" fill="#006FCF"/>
<path fill-rule="evenodd" clip-rule="evenodd" d="M14.3797 9.33738C15.0922 9.33738 15.7991 9.14906 15.7991 8.23697C15.7991 7.32765 15.0723 7.15527 14.4255 7.15527H11.8209L10.7841 8.23152L9.78128 7.15527H6.50293V10.4387H9.7316L10.7747 9.35174L11.7783 10.4387H13.3626V9.33738H14.3797ZM13.3626 8.67056H14.416C14.7292 8.67056 14.924 8.52095 14.924 8.23699C14.924 7.94986 14.7197 7.83441 14.4255 7.83441H13.3626V8.67056ZM9.31894 9.75444H7.31488V9.10116H9.10438V8.43125H7.31488V7.83431H9.35843L10.25 8.79116L9.31894 9.75444ZM12.5508 10.1401L11.2993 8.80264L12.5508 7.50768V10.1401Z" fill="white"/>
<path fill-rule="evenodd" clip-rule="evenodd" d="M19.285 9.18847C19.2155 9.09282 19.0672 8.97728 18.8857 8.91282C19.1003 8.83084 19.4634 8.56341 19.4635 8.03934C19.4635 7.66478 19.3017 7.45983 19.0444 7.31023C18.7769 7.1728 18.4764 7.15527 18.0637 7.15527H16.1818V10.4387H17.0009V9.23946H17.872C18.1693 9.23946 18.3509 9.26758 18.47 9.3852C18.6064 9.52264 18.604 9.77336 18.6021 9.96612C18.6019 9.9875 18.6017 10.0082 18.6017 10.0279V10.4387H19.4201V9.78778C19.4168 9.49837 19.4001 9.34877 19.285 9.18847ZM18.3935 8.50422C18.2844 8.5665 18.1496 8.57185 17.991 8.57185H17.0008V7.83441H18.0045C18.1496 7.83441 18.2948 7.83738 18.3935 7.89372C18.4991 7.94689 18.5622 8.04857 18.5622 8.18907C18.5622 8.32957 18.4991 8.44274 18.3935 8.50422Z" fill="white"/>
<path d="M25.7485 8.70698C25.9072 8.8651 25.9923 9.0647 25.9923 9.40263C25.9923 10.109 25.5339 10.4387 24.7118 10.4387H23.1242V9.73461H24.7055C24.8601 9.73461 24.9697 9.71491 25.0384 9.65332C25.0945 9.60253 25.1347 9.52877 25.1347 9.43916C25.1347 9.34352 25.0912 9.26758 25.0352 9.22203C24.9729 9.17193 24.8869 9.14916 24.745 9.14916C24.695 9.14752 24.6443 9.14619 24.5931 9.14485C23.8618 9.12571 23.0281 9.1039 23.0281 8.13291C23.0281 7.65667 23.3389 7.15537 24.1934 7.15537H25.8275V7.85419H24.3323C24.1841 7.85419 24.0877 7.85954 24.0057 7.9135C23.9165 7.96667 23.8833 8.04558 23.8833 8.14974C23.8833 8.2736 23.9591 8.35786 24.0617 8.3943C24.1477 8.42311 24.24 8.43153 24.3789 8.43153L24.8177 8.44291C25.2602 8.45331 25.5639 8.52697 25.7485 8.70698Z" fill="white"/>
<path d="M28.9999 7.85399H27.5144C27.3661 7.85399 27.2675 7.85933 27.1845 7.91329C27.0985 7.96646 27.0654 8.04538 27.0654 8.14954C27.0654 8.2734 27.138 8.35766 27.2437 8.39409C27.3296 8.4229 27.422 8.43132 27.5578 8.43132L27.9995 8.44271C28.4453 8.4533 28.7429 8.52706 28.9243 8.70697C28.9522 8.72811 28.9707 8.75144 28.9894 8.77511L28.9945 8.78151L28.9978 8.78557L28.9999 8.78826V10.0187C28.8019 10.2974 28.4161 10.4387 27.8938 10.4387H26.3197V9.73462H27.8874C28.043 9.73462 28.1518 9.71492 28.2173 9.65333C28.2741 9.60254 28.3137 9.52878 28.3137 9.43917C28.3137 9.34353 28.2741 9.26758 28.2141 9.22204C28.155 9.17194 28.0689 9.14917 27.9269 9.14917C27.8769 9.14753 27.826 9.1462 27.7746 9.14486C27.0407 9.12572 26.2068 9.10397 26.2068 8.13292C26.2068 7.65667 26.5209 7.15538 27.3762 7.15538H28.9998L28.9999 7.85399Z" fill="white"/>
<path d="M19.9154 7.15527H22.6359V7.83429H20.7272V8.43123H22.5893V9.10114H20.7272V9.75441L22.6359 9.75739V10.4387H19.9154V7.15527Z" fill="white"/>
<path fill-rule="evenodd" clip-rule="evenodd" d="M2.61406 3.37152L2.05617 2.06289L1.50146 3.37152H2.61406ZM14.9044 2.85046C14.7924 2.91591 14.6599 2.91809 14.5012 2.91809H13.511V2.18897H14.5147C14.6567 2.18897 14.8049 2.19511 14.9012 2.24818C15.0069 2.296 15.0724 2.39778 15.0724 2.53838C15.0724 2.68185 15.0101 2.79729 14.9044 2.85046ZM21.9684 3.37152L21.4043 2.06289L20.8433 3.37152H21.9684ZM8.80067 4.78798H7.96507L7.96198 2.21706L6.78006 4.78798H6.06438L4.87937 2.21479V4.78798H3.22153L2.90833 4.0558H1.21119L0.894808 4.78798H0.00952148L1.46916 1.50537H2.68019L4.06649 4.61333V1.50537H5.39684L6.46357 3.73223L7.44348 1.50537H8.80057V4.78798H8.80067ZM12.1311 4.78798H9.40816V1.50537H12.1311V2.18894H10.2233V2.78063H12.0853V3.45351H10.2233V4.10907H12.1311V4.78798ZM15.9703 2.38944C15.9703 2.91281 15.6074 3.18321 15.3959 3.2644C15.5743 3.32975 15.7266 3.4452 15.7991 3.54084C15.9142 3.70411 15.9341 3.84995 15.9341 4.14313V4.78798H15.112L15.1089 4.37402C15.1089 4.17649 15.1285 3.89243 14.9802 3.73451C14.8611 3.61906 14.6795 3.59401 14.3861 3.59401H13.5111V4.78798H12.6961V1.50537H14.5708C14.9874 1.50537 15.2943 1.51597 15.5578 1.6626C15.8157 1.80924 15.9703 2.0233 15.9703 2.38944ZM17.2747 4.78798H16.443V1.50537H17.2747V4.78798ZM26.9235 4.78798H25.7684L24.2234 2.32419V4.78798H22.5634L22.2462 4.0558H20.553L20.2452 4.78798H19.2914C18.8952 4.78798 18.3936 4.70363 18.1095 4.42491C17.8231 4.14619 17.674 3.76867 17.674 3.17173C17.674 2.68489 17.7631 2.23984 18.1134 1.88815C18.3769 1.62616 18.7896 1.50537 19.3513 1.50537H20.1404V2.20875H19.3679C19.0704 2.20875 18.9024 2.25132 18.7406 2.4032C18.6017 2.54142 18.5063 2.80271 18.5063 3.14678C18.5063 3.49846 18.5789 3.75203 18.7305 3.91768C18.8559 4.04758 19.084 4.08699 19.2985 4.08699H19.6646L20.8134 1.50547H22.0347L23.4147 4.61036V1.50547H24.6558L26.0886 3.79164V1.50547H26.9235V4.78798Z" fill="white"/>
</svg>
