<svg width="722" height="58" viewBox="0 0 722 58" fill="none" xmlns="http://www.w3.org/2000/svg">
<path d="M0.532 41.04V39.878H3.164V50H1.876V41.04H0.532ZM5.35238 44.834C5.35238 43.2287 5.61371 41.978 6.13638 41.082C6.65904 40.1767 7.57371 39.724 8.88038 39.724C10.1777 39.724 11.0877 40.1767 11.6104 41.082C12.133 41.978 12.3944 43.2287 12.3944 44.834C12.3944 46.4673 12.133 47.7367 11.6104 48.642C11.0877 49.5473 10.1777 50 8.88038 50C7.57371 50 6.65904 49.5473 6.13638 48.642C5.61371 47.7367 5.35238 46.4673 5.35238 44.834ZM11.1344 44.834C11.1344 44.022 11.0784 43.336 10.9664 42.776C10.8637 42.2067 10.6444 41.7493 10.3084 41.404C9.98171 41.0587 9.50571 40.886 8.88038 40.886C8.24571 40.886 7.76038 41.0587 7.42438 41.404C7.09771 41.7493 6.87838 42.2067 6.76638 42.776C6.66371 43.336 6.61238 44.022 6.61238 44.834C6.61238 45.674 6.66371 46.3787 6.76638 46.948C6.87838 47.5173 7.09771 47.9747 7.42438 48.32C7.76038 48.6653 8.24571 48.838 8.88038 48.838C9.50571 48.838 9.98171 48.6653 10.3084 48.32C10.6444 47.9747 10.8637 47.5173 10.9664 46.948C11.0784 46.3787 11.1344 45.674 11.1344 44.834ZM18.6374 50L15.6274 46.612V50H14.3534V39.64H15.6274V45.73L18.5814 42.328H20.3594L16.7474 46.15L20.3734 50H18.6374ZM31.2969 40.242V41.278H28.6369V50H27.3629V41.278H24.6889V40.242H31.2969ZM36.2111 50.126C35.4924 50.126 34.8391 49.9627 34.2511 49.636C33.6724 49.3093 33.2151 48.8473 32.8791 48.25C32.5524 47.6433 32.3891 46.9433 32.3891 46.15C32.3891 45.366 32.5571 44.6753 32.8931 44.078C33.2384 43.4713 33.7051 43.0093 34.2931 42.692C34.8811 42.3653 35.5391 42.202 36.2671 42.202C36.9951 42.202 37.6531 42.3653 38.2411 42.692C38.8291 43.0093 39.2911 43.4667 39.6271 44.064C39.9724 44.6613 40.1451 45.3567 40.1451 46.15C40.1451 46.9433 39.9678 47.6433 39.6131 48.25C39.2678 48.8473 38.7964 49.3093 38.1991 49.636C37.6018 49.9627 36.9391 50.126 36.2111 50.126ZM36.2111 49.006C36.6684 49.006 37.0978 48.8987 37.4991 48.684C37.9004 48.4693 38.2224 48.1473 38.4651 47.718C38.7171 47.2887 38.8431 46.766 38.8431 46.15C38.8431 45.534 38.7218 45.0113 38.4791 44.582C38.2364 44.1527 37.9191 43.8353 37.5271 43.63C37.1351 43.4153 36.7104 43.308 36.2531 43.308C35.7864 43.308 35.3571 43.4153 34.9651 43.63C34.5824 43.8353 34.2744 44.1527 34.0411 44.582C33.8078 45.0113 33.6911 45.534 33.6911 46.15C33.6911 46.7753 33.8031 47.3027 34.0271 47.732C34.2604 48.1613 34.5684 48.4833 34.9511 48.698C35.3338 48.9033 35.7538 49.006 36.2111 49.006ZM46.1042 50L43.0942 46.612V50H41.8202V39.64H43.0942V45.73L46.0482 42.328H47.8262L44.2142 46.15L47.8402 50H46.1042ZM56.0253 45.87C56.0253 46.1127 56.0113 46.3693 55.9833 46.64H49.8513C49.8979 47.396 50.1546 47.9887 50.6213 48.418C51.0973 48.838 51.6713 49.048 52.3433 49.048C52.8939 49.048 53.3513 48.922 53.7153 48.67C54.0886 48.4087 54.3499 48.0633 54.4993 47.634H55.8713C55.6659 48.3713 55.2553 48.9733 54.6393 49.44C54.0233 49.8973 53.2579 50.126 52.3433 50.126C51.6153 50.126 50.9619 49.9627 50.3833 49.636C49.8139 49.3093 49.3659 48.8473 49.0393 48.25C48.7126 47.6433 48.5493 46.9433 48.5493 46.15C48.5493 45.3567 48.7079 44.6613 49.0253 44.064C49.3426 43.4667 49.7859 43.0093 50.3553 42.692C50.9339 42.3653 51.5966 42.202 52.3433 42.202C53.0713 42.202 53.7153 42.3607 54.2753 42.678C54.8353 42.9953 55.2646 43.434 55.5633 43.994C55.8713 44.5447 56.0253 45.17 56.0253 45.87ZM54.7093 45.604C54.7093 45.1187 54.6019 44.7033 54.3873 44.358C54.1726 44.0033 53.8786 43.7373 53.5053 43.56C53.1413 43.3733 52.7353 43.28 52.2873 43.28C51.6433 43.28 51.0926 43.4853 50.6353 43.896C50.1873 44.3067 49.9306 44.876 49.8653 45.604H54.7093ZM61.4449 42.188C62.3782 42.188 63.1342 42.4727 63.7129 43.042C64.2916 43.602 64.5809 44.414 64.5809 45.478V50H63.3209V45.66C63.3209 44.8947 63.1296 44.3113 62.7469 43.91C62.3642 43.4993 61.8416 43.294 61.1789 43.294C60.5069 43.294 59.9702 43.504 59.5689 43.924C59.1769 44.344 58.9809 44.9553 58.9809 45.758V50H57.7069V42.328H58.9809V43.42C59.2329 43.028 59.5736 42.7247 60.0029 42.51C60.4416 42.2953 60.9222 42.188 61.4449 42.188ZM69.378 50.126C68.79 50.126 68.2627 50.028 67.796 49.832C67.3293 49.6267 66.9607 49.3467 66.69 48.992C66.4193 48.628 66.27 48.2127 66.242 47.746H67.558C67.5953 48.1287 67.7727 48.4413 68.09 48.684C68.4167 48.9267 68.8413 49.048 69.364 49.048C69.8493 49.048 70.232 48.9407 70.512 48.726C70.792 48.5113 70.932 48.2407 70.932 47.914C70.932 47.578 70.7827 47.3307 70.484 47.172C70.1853 47.004 69.7233 46.8407 69.098 46.682C68.5287 46.5327 68.062 46.3833 67.698 46.234C67.3433 46.0753 67.0353 45.8467 66.774 45.548C66.522 45.24 66.396 44.8387 66.396 44.344C66.396 43.952 66.5127 43.5927 66.746 43.266C66.9793 42.9393 67.3107 42.6827 67.74 42.496C68.1693 42.3 68.6593 42.202 69.21 42.202C70.0593 42.202 70.7453 42.4167 71.268 42.846C71.7907 43.2753 72.0707 43.8633 72.108 44.61H70.834C70.806 44.2087 70.6427 43.8867 70.344 43.644C70.0547 43.4013 69.6627 43.28 69.168 43.28C68.7107 43.28 68.3467 43.378 68.076 43.574C67.8053 43.77 67.67 44.0267 67.67 44.344C67.67 44.596 67.7493 44.806 67.908 44.974C68.076 45.1327 68.2813 45.2633 68.524 45.366C68.776 45.4593 69.1213 45.5667 69.56 45.688C70.1107 45.8373 70.5587 45.9867 70.904 46.136C71.2493 46.276 71.5433 46.4907 71.786 46.78C72.038 47.0693 72.1687 47.4473 72.178 47.914C72.178 48.334 72.0613 48.712 71.828 49.048C71.5947 49.384 71.2633 49.65 70.834 49.846C70.414 50.0327 69.9287 50.126 69.378 50.126Z" fill="#4A5C77"/>
<path d="M465.322 41.04V39.878H467.954V50H466.666V41.04H465.322ZM480.251 40.312V50H478.977V42.776L475.757 50H474.861L471.627 42.762V50H470.353V40.312H471.725L475.309 48.32L478.893 40.312H480.251Z" fill="#4A5C77"/>
<path d="M214.753 41.04V39.878H217.385V50H216.097V41.04H214.753ZM219.573 44.834C219.573 43.2287 219.834 41.978 220.357 41.082C220.88 40.1767 221.794 39.724 223.101 39.724C224.398 39.724 225.308 40.1767 225.831 41.082C226.354 41.978 226.615 43.2287 226.615 44.834C226.615 46.4673 226.354 47.7367 225.831 48.642C225.308 49.5473 224.398 50 223.101 50C221.794 50 220.88 49.5473 220.357 48.642C219.834 47.7367 219.573 46.4673 219.573 44.834ZM225.355 44.834C225.355 44.022 225.299 43.336 225.187 42.776C225.084 42.2067 224.865 41.7493 224.529 41.404C224.202 41.0587 223.726 40.886 223.101 40.886C222.466 40.886 221.981 41.0587 221.645 41.404C221.318 41.7493 221.099 42.2067 220.987 42.776C220.884 43.336 220.833 44.022 220.833 44.834C220.833 45.674 220.884 46.3787 220.987 46.948C221.099 47.5173 221.318 47.9747 221.645 48.32C221.981 48.6653 222.466 48.838 223.101 48.838C223.726 48.838 224.202 48.6653 224.529 48.32C224.865 47.9747 225.084 47.5173 225.187 46.948C225.299 46.3787 225.355 45.674 225.355 44.834ZM228.364 44.834C228.364 43.2287 228.626 41.978 229.148 41.082C229.671 40.1767 230.586 39.724 231.892 39.724C233.19 39.724 234.1 40.1767 234.622 41.082C235.145 41.978 235.406 43.2287 235.406 44.834C235.406 46.4673 235.145 47.7367 234.622 48.642C234.1 49.5473 233.19 50 231.892 50C230.586 50 229.671 49.5473 229.148 48.642C228.626 47.7367 228.364 46.4673 228.364 44.834ZM234.146 44.834C234.146 44.022 234.09 43.336 233.978 42.776C233.876 42.2067 233.656 41.7493 233.32 41.404C232.994 41.0587 232.518 40.886 231.892 40.886C231.258 40.886 230.772 41.0587 230.436 41.404C230.11 41.7493 229.89 42.2067 229.778 42.776C229.676 43.336 229.624 44.022 229.624 44.834C229.624 45.674 229.676 46.3787 229.778 46.948C229.89 47.5173 230.11 47.9747 230.436 48.32C230.772 48.6653 231.258 48.838 231.892 48.838C232.518 48.838 232.994 48.6653 233.32 48.32C233.656 47.9747 233.876 47.5173 233.978 46.948C234.09 46.3787 234.146 45.674 234.146 44.834ZM241.649 50L238.639 46.612V50H237.365V39.64H238.639V45.73L241.593 42.328H243.371L239.759 46.15L243.385 50H241.649Z" fill="#4A5C77"/>
<path d="M298.819 48.978C300.005 48.026 300.933 47.2467 301.605 46.64C302.277 46.024 302.842 45.3847 303.299 44.722C303.766 44.05 303.999 43.392 303.999 42.748C303.999 42.1413 303.85 41.6653 303.551 41.32C303.262 40.9653 302.791 40.788 302.137 40.788C301.503 40.788 301.008 40.9887 300.653 41.39C300.308 41.782 300.121 42.3093 300.093 42.972H298.861C298.899 41.9267 299.216 41.1193 299.813 40.55C300.411 39.9807 301.181 39.696 302.123 39.696C303.085 39.696 303.845 39.962 304.405 40.494C304.975 41.026 305.259 41.7587 305.259 42.692C305.259 43.4667 305.026 44.2227 304.559 44.96C304.102 45.688 303.579 46.332 302.991 46.892C302.403 47.4427 301.652 48.0867 300.737 48.824H305.553V49.888H298.819V48.978ZM313.48 40.984H308.566V44.176C308.781 43.8773 309.098 43.6347 309.518 43.448C309.938 43.252 310.391 43.154 310.876 43.154C311.651 43.154 312.281 43.3173 312.766 43.644C313.251 43.9613 313.597 44.3767 313.802 44.89C314.017 45.394 314.124 45.9307 314.124 46.5C314.124 47.172 313.998 47.774 313.746 48.306C313.494 48.838 313.107 49.258 312.584 49.566C312.071 49.874 311.431 50.028 310.666 50.028C309.686 50.028 308.893 49.776 308.286 49.272C307.679 48.768 307.311 48.096 307.18 47.256H308.426C308.547 47.788 308.804 48.2033 309.196 48.502C309.588 48.8007 310.083 48.95 310.68 48.95C311.417 48.95 311.973 48.7307 312.346 48.292C312.719 47.844 312.906 47.256 312.906 46.528C312.906 45.8 312.719 45.24 312.346 44.848C311.973 44.4467 311.422 44.246 310.694 44.246C310.199 44.246 309.765 44.3673 309.392 44.61C309.028 44.8433 308.762 45.1653 308.594 45.576H307.39V39.864H313.48V40.984ZM315.817 44.834C315.817 43.2287 316.078 41.978 316.601 41.082C317.124 40.1767 318.038 39.724 319.345 39.724C320.642 39.724 321.552 40.1767 322.075 41.082C322.598 41.978 322.859 43.2287 322.859 44.834C322.859 46.4673 322.598 47.7367 322.075 48.642C321.552 49.5473 320.642 50 319.345 50C318.038 50 317.124 49.5473 316.601 48.642C316.078 47.7367 315.817 46.4673 315.817 44.834ZM321.599 44.834C321.599 44.022 321.543 43.336 321.431 42.776C321.328 42.2067 321.109 41.7493 320.773 41.404C320.446 41.0587 319.97 40.886 319.345 40.886C318.71 40.886 318.225 41.0587 317.889 41.404C317.562 41.7493 317.343 42.2067 317.231 42.776C317.128 43.336 317.077 44.022 317.077 44.834C317.077 45.674 317.128 46.3787 317.231 46.948C317.343 47.5173 317.562 47.9747 317.889 48.32C318.225 48.6653 318.71 48.838 319.345 48.838C319.97 48.838 320.446 48.6653 320.773 48.32C321.109 47.9747 321.328 47.5173 321.431 46.948C321.543 46.3787 321.599 45.674 321.599 44.834ZM329.102 50L326.092 46.612V50H324.818V39.64H326.092V45.73L329.046 42.328H330.824L327.212 46.15L330.838 50H329.102Z" fill="#4A5C77"/>
<path d="M388.353 40.984H383.439V44.176C383.654 43.8773 383.971 43.6347 384.391 43.448C384.811 43.252 385.264 43.154 385.749 43.154C386.524 43.154 387.154 43.3173 387.639 43.644C388.125 43.9613 388.47 44.3767 388.675 44.89C388.89 45.394 388.997 45.9307 388.997 46.5C388.997 47.172 388.871 47.774 388.619 48.306C388.367 48.838 387.98 49.258 387.457 49.566C386.944 49.874 386.305 50.028 385.539 50.028C384.559 50.028 383.766 49.776 383.159 49.272C382.553 48.768 382.184 48.096 382.053 47.256H383.299C383.421 47.788 383.677 48.2033 384.069 48.502C384.461 48.8007 384.956 48.95 385.553 48.95C386.291 48.95 386.846 48.7307 387.219 48.292C387.593 47.844 387.779 47.256 387.779 46.528C387.779 45.8 387.593 45.24 387.219 44.848C386.846 44.4467 386.295 44.246 385.567 44.246C385.073 44.246 384.639 44.3673 384.265 44.61C383.901 44.8433 383.635 45.1653 383.467 45.576H382.263V39.864H388.353V40.984ZM390.69 44.834C390.69 43.2287 390.952 41.978 391.474 41.082C391.997 40.1767 392.912 39.724 394.218 39.724C395.516 39.724 396.426 40.1767 396.948 41.082C397.471 41.978 397.732 43.2287 397.732 44.834C397.732 46.4673 397.471 47.7367 396.948 48.642C396.426 49.5473 395.516 50 394.218 50C392.912 50 391.997 49.5473 391.474 48.642C390.952 47.7367 390.69 46.4673 390.69 44.834ZM396.472 44.834C396.472 44.022 396.416 43.336 396.304 42.776C396.202 42.2067 395.982 41.7493 395.646 41.404C395.32 41.0587 394.844 40.886 394.218 40.886C393.584 40.886 393.098 41.0587 392.762 41.404C392.436 41.7493 392.216 42.2067 392.104 42.776C392.002 43.336 391.95 44.022 391.95 44.834C391.95 45.674 392.002 46.3787 392.104 46.948C392.216 47.5173 392.436 47.9747 392.762 48.32C393.098 48.6653 393.584 48.838 394.218 48.838C394.844 48.838 395.32 48.6653 395.646 48.32C395.982 47.9747 396.202 47.5173 396.304 46.948C396.416 46.3787 396.472 45.674 396.472 44.834ZM399.481 44.834C399.481 43.2287 399.743 41.978 400.265 41.082C400.788 40.1767 401.703 39.724 403.009 39.724C404.307 39.724 405.217 40.1767 405.739 41.082C406.262 41.978 406.523 43.2287 406.523 44.834C406.523 46.4673 406.262 47.7367 405.739 48.642C405.217 49.5473 404.307 50 403.009 50C401.703 50 400.788 49.5473 400.265 48.642C399.743 47.7367 399.481 46.4673 399.481 44.834ZM405.263 44.834C405.263 44.022 405.207 43.336 405.095 42.776C404.993 42.2067 404.773 41.7493 404.437 41.404C404.111 41.0587 403.635 40.886 403.009 40.886C402.375 40.886 401.889 41.0587 401.553 41.404C401.227 41.7493 401.007 42.2067 400.895 42.776C400.793 43.336 400.741 44.022 400.741 44.834C400.741 45.674 400.793 46.3787 400.895 46.948C401.007 47.5173 401.227 47.9747 401.553 48.32C401.889 48.6653 402.375 48.838 403.009 48.838C403.635 48.838 404.111 48.6653 404.437 48.32C404.773 47.9747 404.993 47.5173 405.095 46.948C405.207 46.3787 405.263 45.674 405.263 44.834ZM412.766 50L409.756 46.612V50H408.482V39.64H409.756V45.73L412.71 42.328H414.488L410.876 46.15L414.502 50H412.766Z" fill="#4A5C77"/>
<path d="M548.015 48.978C549.2 48.026 550.129 47.2467 550.801 46.64C551.473 46.024 552.038 45.3847 552.495 44.722C552.962 44.05 553.195 43.392 553.195 42.748C553.195 42.1413 553.046 41.6653 552.747 41.32C552.458 40.9653 551.986 40.788 551.333 40.788C550.698 40.788 550.204 40.9887 549.849 41.39C549.504 41.782 549.317 42.3093 549.289 42.972H548.057C548.094 41.9267 548.412 41.1193 549.009 40.55C549.606 39.9807 550.376 39.696 551.319 39.696C552.28 39.696 553.041 39.962 553.601 40.494C554.17 41.026 554.455 41.7587 554.455 42.692C554.455 43.4667 554.222 44.2227 553.755 44.96C553.298 45.688 552.775 46.332 552.187 46.892C551.599 47.4427 550.848 48.0867 549.933 48.824H554.749V49.888H548.015V48.978ZM566.33 40.312V50H565.056V42.776L561.836 50H560.94L557.706 42.762V50H556.432V40.312H557.804L561.388 48.32L564.972 40.312H566.33Z" fill="#4A5C77"/>
<path d="M662.281 50H661.007L655.883 42.23V50H654.609V40.228H655.883L661.007 47.984V40.228H662.281V50ZM667.799 50.126C667.08 50.126 666.427 49.9627 665.839 49.636C665.26 49.3093 664.803 48.8473 664.467 48.25C664.14 47.6433 663.977 46.9433 663.977 46.15C663.977 45.366 664.145 44.6753 664.481 44.078C664.826 43.4713 665.293 43.0093 665.881 42.692C666.469 42.3653 667.127 42.202 667.855 42.202C668.583 42.202 669.241 42.3653 669.829 42.692C670.417 43.0093 670.879 43.4667 671.215 44.064C671.56 44.6613 671.733 45.3567 671.733 46.15C671.733 46.9433 671.556 47.6433 671.201 48.25C670.856 48.8473 670.384 49.3093 669.787 49.636C669.19 49.9627 668.527 50.126 667.799 50.126ZM667.799 49.006C668.256 49.006 668.686 48.8987 669.087 48.684C669.488 48.4693 669.81 48.1473 670.053 47.718C670.305 47.2887 670.431 46.766 670.431 46.15C670.431 45.534 670.31 45.0113 670.067 44.582C669.824 44.1527 669.507 43.8353 669.115 43.63C668.723 43.4153 668.298 43.308 667.841 43.308C667.374 43.308 666.945 43.4153 666.553 43.63C666.17 43.8353 665.862 44.1527 665.629 44.582C665.396 45.0113 665.279 45.534 665.279 46.15C665.279 46.7753 665.391 47.3027 665.615 47.732C665.848 48.1613 666.156 48.4833 666.539 48.698C666.922 48.9033 667.342 49.006 667.799 49.006ZM678.414 48.964H681.83V50H677.14V40.242H678.414V48.964ZM683.841 41.082C683.599 41.082 683.393 40.998 683.225 40.83C683.057 40.662 682.973 40.4567 682.973 40.214C682.973 39.9713 683.057 39.766 683.225 39.598C683.393 39.43 683.599 39.346 683.841 39.346C684.075 39.346 684.271 39.43 684.429 39.598C684.597 39.766 684.681 39.9713 684.681 40.214C684.681 40.4567 684.597 40.662 684.429 40.83C684.271 40.998 684.075 41.082 683.841 41.082ZM684.457 42.328V50H683.183V42.328H684.457ZM695.855 42.188C696.452 42.188 696.984 42.314 697.451 42.566C697.917 42.8087 698.286 43.1773 698.557 43.672C698.827 44.1667 698.963 44.7687 698.963 45.478V50H697.703V45.66C697.703 44.8947 697.511 44.3113 697.129 43.91C696.755 43.4993 696.247 43.294 695.603 43.294C694.94 43.294 694.413 43.5087 694.021 43.938C693.629 44.358 693.433 44.9693 693.433 45.772V50H692.173V45.66C692.173 44.8947 691.981 44.3113 691.599 43.91C691.225 43.4993 690.717 43.294 690.073 43.294C689.41 43.294 688.883 43.5087 688.491 43.938C688.099 44.358 687.903 44.9693 687.903 45.772V50H686.629V42.328H687.903V43.434C688.155 43.0327 688.491 42.7247 688.911 42.51C689.34 42.2953 689.811 42.188 690.325 42.188C690.969 42.188 691.538 42.3327 692.033 42.622C692.527 42.9113 692.896 43.336 693.139 43.896C693.353 43.3547 693.708 42.9347 694.203 42.636C694.697 42.3373 695.248 42.188 695.855 42.188ZM701.711 41.082C701.468 41.082 701.263 40.998 701.095 40.83C700.927 40.662 700.843 40.4567 700.843 40.214C700.843 39.9713 700.927 39.766 701.095 39.598C701.263 39.43 701.468 39.346 701.711 39.346C701.944 39.346 702.14 39.43 702.299 39.598C702.467 39.766 702.551 39.9713 702.551 40.214C702.551 40.4567 702.467 40.662 702.299 40.83C702.14 40.998 701.944 41.082 701.711 41.082ZM702.327 42.328V50H701.053V42.328H702.327ZM706.052 43.378V47.9C706.052 48.2733 706.131 48.5393 706.29 48.698C706.449 48.8473 706.724 48.922 707.116 48.922H708.054V50H706.906C706.197 50 705.665 49.8367 705.31 49.51C704.955 49.1833 704.778 48.6467 704.778 47.9V43.378H703.784V42.328H704.778V40.396H706.052V42.328H708.054V43.378H706.052ZM719.406 43.056C720.022 43.056 720.531 43.2427 720.932 43.616C721.343 43.98 721.548 44.484 721.548 45.128C721.548 45.7627 721.338 46.2713 720.918 46.654C720.507 47.0273 719.994 47.214 719.378 47.214C718.911 47.214 718.501 47.0973 718.146 46.864C717.791 46.6213 717.437 46.2853 717.082 45.856C716.83 46.2573 716.513 46.584 716.13 46.836C715.747 47.088 715.318 47.214 714.842 47.214C714.217 47.214 713.703 47.032 713.302 46.668C712.91 46.2947 712.714 45.786 712.714 45.142C712.714 44.5073 712.919 44.0033 713.33 43.63C713.741 43.2473 714.254 43.056 714.87 43.056C715.337 43.056 715.747 43.182 716.102 43.434C716.457 43.6767 716.807 44.0173 717.152 44.456C717.395 44.0453 717.707 43.7093 718.09 43.448C718.482 43.1867 718.921 43.056 719.406 43.056ZM714.912 46.276C715.229 46.276 715.533 46.178 715.822 45.982C716.111 45.786 716.354 45.52 716.55 45.184C716.233 44.7827 715.953 44.484 715.71 44.288C715.477 44.0827 715.215 43.98 714.926 43.98C714.581 43.98 714.301 44.0827 714.086 44.288C713.881 44.4933 713.778 44.778 713.778 45.142C713.778 45.4967 713.881 45.7767 714.086 45.982C714.291 46.178 714.567 46.276 714.912 46.276ZM719.322 46.29C719.667 46.29 719.943 46.1873 720.148 45.982C720.363 45.7767 720.47 45.492 720.47 45.128C720.47 44.7733 720.367 44.498 720.162 44.302C719.957 44.0967 719.681 43.994 719.336 43.994C719.009 43.994 718.697 44.0967 718.398 44.302C718.109 44.5073 717.866 44.7827 717.67 45.128C717.95 45.5013 718.216 45.7907 718.468 45.996C718.729 46.192 719.014 46.29 719.322 46.29Z" fill="#0F91D2"/>
<line x1="4.22168" y1="15" x2="4.22168" y2="34" stroke="#BEBEBE"/>
<line x1="471.909" y1="15" x2="471.909" y2="34" stroke="#BEBEBE"/>
<line x1="227.521" y1="15" x2="227.521" y2="34" stroke="#BEBEBE"/>
<line x1="311.878" y1="15" x2="311.878" y2="34" stroke="#BEBEBE"/>
<line x1="394.995" y1="15" x2="394.995" y2="34" stroke="#BEBEBE"/>
<line x1="556.266" y1="15" x2="556.266" y2="34" stroke="#BEBEBE"/>
<path d="M0 12C0 9.79086 1.79086 8 4 8H716.759C718.969 8 720.759 9.79086 720.759 12C720.759 14.2091 718.969 16 716.759 16H3.99998C1.79084 16 0 14.2091 0 12Z" fill="#4A5C77"/>
<path d="M628.959 12C628.959 9.79086 630.75 8 632.959 8H716.759C718.969 8 720.759 9.79086 720.759 12C720.759 14.2091 718.969 16 716.759 16H632.959C630.75 16 628.959 14.2091 628.959 12Z" fill="#00C2E4"/>
<circle cx="178.234" cy="12" r="11" fill="url(#paint0_linear_1_4510)" stroke="#4A5C77" stroke-width="2"/>
<defs>
<linearGradient id="paint0_linear_1_4510" x1="178.234" y1="0" x2="178.234" y2="24" gradientUnits="userSpaceOnUse">
<stop stop-color="white"/>
<stop offset="1" stop-color="white"/>
</linearGradient>
</defs>
</svg>
