<svg width="28" height="28" viewBox="0 0 28 28" fill="none" xmlns="http://www.w3.org/2000/svg">
<path d="M26.708 1.29294C26.5722 1.15689 26.4001 1.06284 26.2123 1.02205C26.0245 0.98126 25.8289 0.995455 25.649 1.06294L2.49496 9.74594C2.07404 9.90218 1.70806 10.1782 1.44214 10.54C1.17623 10.9017 1.02201 11.3334 0.998514 11.7818C0.975016 12.2302 1.08326 12.6756 1.30991 13.0632C1.53655 13.4508 1.87168 13.7635 2.27396 13.9629L10.116 17.8839L14.037 25.7259C14.2247 26.1101 14.517 26.4335 14.8804 26.6589C15.2438 26.8843 15.6634 27.0025 16.091 26.9999H16.218C16.6667 26.9802 17.0996 26.828 17.4621 26.5627C17.8246 26.2974 18.1005 25.9307 18.255 25.5089L26.938 2.35094C27.0052 2.17111 27.0193 1.97573 26.9785 1.78812C26.9378 1.60051 26.8438 1.4286 26.708 1.29294V1.29294ZM16.382 24.7999C16.3636 24.8572 16.3278 24.9072 16.2796 24.9431C16.2313 24.979 16.1731 24.9988 16.113 24.9999C16.0539 25.0034 15.9951 24.9892 15.9441 24.9593C15.893 24.9294 15.8519 24.8851 15.826 24.8319L12.078 17.3319L16.708 12.7019C16.8901 12.5133 16.9909 12.2607 16.9886 11.9985C16.9864 11.7363 16.8812 11.4855 16.6958 11.3001C16.5104 11.1147 16.2596 11.0095 15.9974 11.0073C15.7352 11.005 15.4826 11.1058 15.294 11.2879L10.664 15.9179L3.16896 12.1749C3.11463 12.1498 3.06909 12.1089 3.03818 12.0576C3.00728 12.0063 2.99243 11.9469 2.99555 11.8871C2.99867 11.8273 3.01961 11.7698 3.05568 11.722C3.09176 11.6742 3.14131 11.6383 3.19796 11.6189L24.292 3.70894L16.382 24.7999Z" fill="white"/>
</svg>
