<svg width="18" height="18" viewBox="0 0 18 18" fill="none" xmlns="http://www.w3.org/2000/svg">
<path d="M5.64534 7.30212V6.59379C5.64534 4.63778 7.231 3.05212 9.18701 3.05212C11.143 3.05212 12.7287 4.63778 12.7287 6.59379V7.30212C14.2935 7.30212 15.562 8.57065 15.562 10.1355C15.562 11.1842 14.9922 12.1247 14.1453 12.6146M5.64534 7.30212C4.08054 7.30212 2.81201 8.57065 2.81201 10.1355C2.81201 11.1842 3.38179 12.1247 4.22868 12.6146M5.64534 7.30212C5.95195 7.30212 6.24718 7.35082 6.52372 7.44091M9.18701 8.71879V15.0938M9.18701 8.71879L11.312 10.8438M9.18701 8.71879L7.06201 10.8438" stroke="white" stroke-width="1.5" stroke-linecap="round" stroke-linejoin="round"/>
</svg>
