<svg width="15" height="14" viewBox="0 0 15 14" fill="none" xmlns="http://www.w3.org/2000/svg">
<g clip-path="url(#clip0_223_26)">
<path d="M3.64583 5.30176V4.59343C3.64583 2.63742 5.23149 1.05176 7.1875 1.05176C9.1435 1.05176 10.7291 2.63742 10.7291 4.59343V5.30176C12.2939 5.30176 13.5625 6.57029 13.5625 8.1351C13.5625 9.18383 12.9927 10.1243 12.1458 10.6142M3.64583 5.30176C2.08102 5.30176 0.8125 6.57029 0.8125 8.1351C0.8125 9.18383 1.38228 10.1243 2.22916 10.6142M3.64583 5.30176C3.95243 5.30176 4.24766 5.35046 4.5242 5.44055M7.1875 6.71843V13.0934M7.1875 6.71843L9.3125 8.84343M7.1875 6.71843L5.0625 8.84343" stroke="white" stroke-width="1.5" stroke-linecap="round" stroke-linejoin="round"/>
</g>
<defs>
<clipPath id="clip0_223_26">
<rect width="15" height="14" fill="white"/>
</clipPath>
</defs>
</svg>
