<svg width="28" height="28" viewBox="0 0 28 28" fill="none" xmlns="http://www.w3.org/2000/svg">
<path d="M3.49984 22.1666H1.1665V20.9999C1.1665 18.8254 2.65374 16.9983 4.6665 16.4803M6.99984 12.6341C5.64045 12.1536 4.6665 10.8572 4.6665 9.33326C4.6665 7.80934 5.64045 6.5129 6.99984 6.03242M24.4998 22.1666H26.8332V20.9999C26.8332 18.8254 25.3459 16.9983 23.3332 16.4803M20.9998 6.03242C22.3592 6.5129 23.3332 7.80934 23.3332 9.33326C23.3332 10.8572 22.3592 12.1536 20.9998 12.6341M11.6665 16.3333H16.3332C18.9105 16.3333 20.9998 18.4226 20.9998 20.9999V22.1666H6.99984V20.9999C6.99984 18.4226 9.08918 16.3333 11.6665 16.3333ZM17.4998 9.33325C17.4998 11.2662 15.9328 12.8333 13.9998 12.8333C12.0668 12.8333 10.4998 11.2662 10.4998 9.33325C10.4998 7.40026 12.0668 5.83325 13.9998 5.83325C15.9328 5.83325 17.4998 7.40026 17.4998 9.33325Z" stroke="#737373" stroke-width="1.5" stroke-linecap="round" stroke-linejoin="round"/>
</svg>
