<svg width="25" height="25" viewBox="0 0 25 25" fill="none" xmlns="http://www.w3.org/2000/svg">
<path d="M16.2187 12.1563C17.11 11.3957 17.7467 10.3802 18.0429 9.24653C18.3392 8.1129 18.2807 6.91569 17.8754 5.81631C17.4702 4.71694 16.7375 3.76826 15.7763 3.09818C14.8152 2.4281 13.6716 2.06885 12.4999 2.06885C11.3282 2.06885 10.1847 2.4281 9.2235 3.09818C8.26231 3.76826 7.52969 4.71694 7.1244 5.81631C6.71911 6.91569 6.66065 8.1129 6.95689 9.24653C7.25314 10.3802 7.88984 11.3957 8.78117 12.1563C6.8127 12.9086 5.11869 14.2402 3.92285 15.9754C2.72701 17.7106 2.08558 19.7677 2.08325 21.875C2.08325 22.1513 2.193 22.4162 2.38835 22.6116C2.5837 22.8069 2.84865 22.9167 3.12492 22.9167C3.40119 22.9167 3.66614 22.8069 3.86149 22.6116C4.05684 22.4162 4.16659 22.1513 4.16659 21.875C4.16659 19.6649 5.04456 17.5453 6.60736 15.9824C8.17017 14.4196 10.2898 13.5417 12.4999 13.5417C14.7101 13.5417 16.8297 14.4196 18.3925 15.9824C19.9553 17.5453 20.8333 19.6649 20.8333 21.875C20.8333 22.1513 20.943 22.4162 21.1384 22.6116C21.3337 22.8069 21.5987 22.9167 21.8749 22.9167C22.1512 22.9167 22.4161 22.8069 22.6115 22.6116C22.8068 22.4162 22.9166 22.1513 22.9166 21.875C22.9143 19.7677 22.2728 17.7106 21.077 15.9754C19.8811 14.2402 18.1871 12.9086 16.2187 12.1563ZM12.4999 11.4583C11.7788 11.4583 11.074 11.2445 10.4744 10.8439C9.87485 10.4433 9.40755 9.87389 9.13161 9.2077C8.85566 8.54151 8.78346 7.80846 8.92414 7.10124C9.06482 6.39401 9.41205 5.74439 9.92193 5.23451C10.4318 4.72463 11.0814 4.3774 11.7887 4.23672C12.4959 4.09605 13.2289 4.16825 13.8951 4.44419C14.5613 4.72014 15.1307 5.18743 15.5313 5.78699C15.9319 6.38654 16.1458 7.09143 16.1458 7.8125C16.1458 8.77944 15.7616 9.70677 15.0779 10.3905C14.3942 11.0742 13.4669 11.4583 12.4999 11.4583Z" fill="#464255"/>
</svg>
