<svg width="405" height="237" viewBox="0 0 405 237" fill="none" xmlns="http://www.w3.org/2000/svg">
<path d="M297.624 19.4239L296.008 24.9999H295.192L293.896 20.5119L292.552 24.9999L291.744 25.0079L290.184 19.4239H290.96L292.176 24.1519L293.52 19.4239H294.336L295.616 24.1359L296.84 19.4239H297.624ZM300.333 25.0719C299.922 25.0719 299.549 24.9785 299.213 24.7919C298.882 24.6052 298.621 24.3412 298.429 23.9999C298.242 23.6532 298.149 23.2532 298.149 22.7999C298.149 22.3519 298.245 21.9572 298.437 21.6159C298.634 21.2692 298.901 21.0052 299.237 20.8239C299.573 20.6372 299.949 20.5439 300.365 20.5439C300.781 20.5439 301.157 20.6372 301.493 20.8239C301.829 21.0052 302.093 21.2665 302.285 21.6079C302.482 21.9492 302.581 22.3465 302.581 22.7999C302.581 23.2532 302.479 23.6532 302.277 23.9999C302.079 24.3412 301.81 24.6052 301.469 24.7919C301.127 24.9785 300.749 25.0719 300.333 25.0719ZM300.333 24.4319C300.594 24.4319 300.839 24.3705 301.069 24.2479C301.298 24.1252 301.482 23.9412 301.621 23.6959C301.765 23.4505 301.837 23.1519 301.837 22.7999C301.837 22.4479 301.767 22.1492 301.629 21.9039C301.49 21.6585 301.309 21.4772 301.085 21.3599C300.861 21.2372 300.618 21.1759 300.357 21.1759C300.09 21.1759 299.845 21.2372 299.621 21.3599C299.402 21.4772 299.226 21.6585 299.093 21.9039C298.959 22.1492 298.893 22.4479 298.893 22.7999C298.893 23.1572 298.957 23.4585 299.085 23.7039C299.218 23.9492 299.394 24.1332 299.613 24.2559C299.831 24.3732 300.071 24.4319 300.333 24.4319ZM304.266 21.3279C304.394 21.0772 304.575 20.8825 304.81 20.7439C305.05 20.6052 305.341 20.5359 305.682 20.5359V21.2879H305.49C304.674 21.2879 304.266 21.7305 304.266 22.6159V24.9999H303.538V20.6159H304.266V21.3279ZM308.97 24.9999L307.25 23.0639V24.9999H306.522V19.0799H307.25V22.5599L308.938 20.6159H309.954L307.89 22.7999L309.962 24.9999H308.97ZM311.367 21.4239C311.511 21.1732 311.725 20.9652 312.007 20.7999C312.295 20.6292 312.629 20.5439 313.007 20.5439C313.397 20.5439 313.749 20.6372 314.063 20.8239C314.383 21.0105 314.634 21.2745 314.815 21.6159C314.997 21.9519 315.087 22.3439 315.087 22.7919C315.087 23.2345 314.997 23.6292 314.815 23.9759C314.634 24.3225 314.383 24.5919 314.063 24.7839C313.749 24.9759 313.397 25.0719 313.007 25.0719C312.634 25.0719 312.303 24.9892 312.015 24.8239C311.733 24.6532 311.517 24.4425 311.367 24.1919V27.0799H310.639V20.6159H311.367V21.4239ZM314.343 22.7919C314.343 22.4612 314.277 22.1732 314.143 21.9279C314.01 21.6825 313.829 21.4959 313.599 21.3679C313.375 21.2399 313.127 21.1759 312.855 21.1759C312.589 21.1759 312.341 21.2425 312.111 21.3759C311.887 21.5039 311.706 21.6932 311.567 21.9439C311.434 22.1892 311.367 22.4745 311.367 22.7999C311.367 23.1305 311.434 23.4212 311.567 23.6719C311.706 23.9172 311.887 24.1065 312.111 24.2399C312.341 24.3679 312.589 24.4319 312.855 24.4319C313.127 24.4319 313.375 24.3679 313.599 24.2399C313.829 24.1065 314.01 23.9172 314.143 23.6719C314.277 23.4212 314.343 23.1279 314.343 22.7919ZM316.774 19.0799V24.9999H316.046V19.0799H316.774ZM317.742 22.7919C317.742 22.3439 317.833 21.9519 318.014 21.6159C318.196 21.2745 318.444 21.0105 318.758 20.8239C319.078 20.6372 319.433 20.5439 319.822 20.5439C320.206 20.5439 320.54 20.6265 320.822 20.7919C321.105 20.9572 321.316 21.1652 321.454 21.4159V20.6159H322.19V24.9999H321.454V24.1839C321.31 24.4399 321.094 24.6532 320.806 24.8239C320.524 24.9892 320.193 25.0719 319.814 25.0719C319.425 25.0719 319.073 24.9759 318.758 24.7839C318.444 24.5919 318.196 24.3225 318.014 23.9759C317.833 23.6292 317.742 23.2345 317.742 22.7919ZM321.454 22.7999C321.454 22.4692 321.388 22.1812 321.254 21.9359C321.121 21.6905 320.94 21.5039 320.71 21.3759C320.486 21.2425 320.238 21.1759 319.966 21.1759C319.694 21.1759 319.446 21.2399 319.222 21.3679C318.998 21.4959 318.82 21.6825 318.686 21.9279C318.553 22.1732 318.486 22.4612 318.486 22.7919C318.486 23.1279 318.553 23.4212 318.686 23.6719C318.82 23.9172 318.998 24.1065 319.222 24.2399C319.446 24.3679 319.694 24.4319 319.966 24.4319C320.238 24.4319 320.486 24.3679 320.71 24.2399C320.94 24.1065 321.121 23.9172 321.254 23.6719C321.388 23.4212 321.454 23.1305 321.454 22.7999ZM323.149 22.7999C323.149 22.3465 323.239 21.9519 323.421 21.6159C323.602 21.2745 323.853 21.0105 324.173 20.8239C324.498 20.6372 324.869 20.5439 325.285 20.5439C325.823 20.5439 326.266 20.6745 326.613 20.9359C326.965 21.1972 327.197 21.5599 327.309 22.0239H326.525C326.45 21.7572 326.303 21.5465 326.085 21.3919C325.871 21.2372 325.605 21.1599 325.285 21.1599C324.869 21.1599 324.533 21.3039 324.277 21.5919C324.021 21.8745 323.893 22.2772 323.893 22.7999C323.893 23.3279 324.021 23.7359 324.277 24.0239C324.533 24.3119 324.869 24.4559 325.285 24.4559C325.605 24.4559 325.871 24.3812 326.085 24.2319C326.298 24.0825 326.445 23.8692 326.525 23.5919H327.309C327.191 24.0399 326.957 24.3999 326.605 24.6719C326.253 24.9385 325.813 25.0719 325.285 25.0719C324.869 25.0719 324.498 24.9785 324.173 24.7919C323.853 24.6052 323.602 24.3412 323.421 23.9999C323.239 23.6585 323.149 23.2585 323.149 22.7999ZM332.28 22.6399C332.28 22.7785 332.272 22.9252 332.256 23.0799H328.752C328.779 23.5119 328.925 23.8505 329.192 24.0959C329.464 24.3359 329.792 24.4559 330.176 24.4559C330.491 24.4559 330.752 24.3839 330.96 24.2399C331.173 24.0905 331.323 23.8932 331.408 23.6479H332.192C332.075 24.0692 331.84 24.4132 331.488 24.6799C331.136 24.9412 330.699 25.0719 330.176 25.0719C329.76 25.0719 329.387 24.9785 329.056 24.7919C328.731 24.6052 328.475 24.3412 328.288 23.9999C328.101 23.6532 328.008 23.2532 328.008 22.7999C328.008 22.3465 328.099 21.9492 328.28 21.6079C328.461 21.2665 328.715 21.0052 329.04 20.8239C329.371 20.6372 329.749 20.5439 330.176 20.5439C330.592 20.5439 330.96 20.6345 331.28 20.8159C331.6 20.9972 331.845 21.2479 332.016 21.5679C332.192 21.8825 332.28 22.2399 332.28 22.6399ZM331.528 22.4879C331.528 22.2105 331.467 21.9732 331.344 21.7759C331.221 21.5732 331.053 21.4212 330.84 21.3199C330.632 21.2132 330.4 21.1599 330.144 21.1599C329.776 21.1599 329.461 21.2772 329.2 21.5119C328.944 21.7465 328.797 22.0719 328.76 22.4879H331.528ZM338.31 24.9999L336.982 22.7199H336.102V24.9999H335.374V19.4239H337.174C337.595 19.4239 337.95 19.4959 338.238 19.6399C338.531 19.7839 338.75 19.9785 338.894 20.2239C339.038 20.4692 339.11 20.7492 339.11 21.0639C339.11 21.4479 338.998 21.7865 338.774 22.0799C338.555 22.3732 338.224 22.5679 337.782 22.6639L339.182 24.9999H338.31ZM336.102 22.1359H337.174C337.568 22.1359 337.864 22.0399 338.062 21.8479C338.259 21.6505 338.358 21.3892 338.358 21.0639C338.358 20.7332 338.259 20.4772 338.062 20.2959C337.87 20.1145 337.574 20.0239 337.174 20.0239H336.102V22.1359ZM344.241 22.6399C344.241 22.7785 344.233 22.9252 344.217 23.0799H340.713C340.74 23.5119 340.886 23.8505 341.153 24.0959C341.425 24.3359 341.753 24.4559 342.137 24.4559C342.452 24.4559 342.713 24.3839 342.921 24.2399C343.134 24.0905 343.284 23.8932 343.369 23.6479H344.153C344.036 24.0692 343.801 24.4132 343.449 24.6799C343.097 24.9412 342.66 25.0719 342.137 25.0719C341.721 25.0719 341.348 24.9785 341.017 24.7919C340.692 24.6052 340.436 24.3412 340.249 23.9999C340.062 23.6532 339.969 23.2532 339.969 22.7999C339.969 22.3465 340.06 21.9492 340.241 21.6079C340.422 21.2665 340.676 21.0052 341.001 20.8239C341.332 20.6372 341.71 20.5439 342.137 20.5439C342.553 20.5439 342.921 20.6345 343.241 20.8159C343.561 20.9972 343.806 21.2479 343.977 21.5679C344.153 21.8825 344.241 22.2399 344.241 22.6399ZM343.489 22.4879C343.489 22.2105 343.428 21.9732 343.305 21.7759C343.182 21.5732 343.014 21.4212 342.801 21.3199C342.593 21.2132 342.361 21.1599 342.105 21.1599C341.737 21.1599 341.422 21.2772 341.161 21.5119C340.905 21.7465 340.758 22.0719 340.721 22.4879H343.489ZM345.93 19.0799V24.9999H345.202V19.0799H345.93ZM346.899 22.7919C346.899 22.3439 346.989 21.9519 347.171 21.6159C347.352 21.2745 347.6 21.0105 347.915 20.8239C348.235 20.6372 348.589 20.5439 348.979 20.5439C349.363 20.5439 349.696 20.6265 349.979 20.7919C350.261 20.9572 350.472 21.1652 350.611 21.4159V20.6159H351.347V24.9999H350.611V24.1839C350.467 24.4399 350.251 24.6532 349.963 24.8239C349.68 24.9892 349.349 25.0719 348.971 25.0719C348.581 25.0719 348.229 24.9759 347.915 24.7839C347.6 24.5919 347.352 24.3225 347.171 23.9759C346.989 23.6292 346.899 23.2345 346.899 22.7919ZM350.611 22.7999C350.611 22.4692 350.544 22.1812 350.411 21.9359C350.277 21.6905 350.096 21.5039 349.867 21.3759C349.643 21.2425 349.395 21.1759 349.123 21.1759C348.851 21.1759 348.603 21.2399 348.379 21.3679C348.155 21.4959 347.976 21.6825 347.843 21.9279C347.709 22.1732 347.643 22.4612 347.643 22.7919C347.643 23.1279 347.709 23.4212 347.843 23.6719C347.976 23.9172 348.155 24.1065 348.379 24.2399C348.603 24.3679 348.851 24.4319 349.123 24.4319C349.395 24.4319 349.643 24.3679 349.867 24.2399C350.096 24.1065 350.277 23.9172 350.411 23.6719C350.544 23.4212 350.611 23.1305 350.611 22.7999ZM353.465 21.2159V23.7999C353.465 24.0132 353.51 24.1652 353.601 24.2559C353.692 24.3412 353.849 24.3839 354.073 24.3839H354.609V24.9999H353.953C353.548 24.9999 353.244 24.9065 353.041 24.7199C352.838 24.5332 352.737 24.2265 352.737 23.7999V21.2159H352.169V20.6159H352.737V19.5119H353.465V20.6159H354.609V21.2159H353.465ZM355.867 19.9039C355.728 19.9039 355.611 19.8559 355.515 19.7599C355.419 19.6639 355.371 19.5465 355.371 19.4079C355.371 19.2692 355.419 19.1519 355.515 19.0559C355.611 18.9599 355.728 18.9119 355.867 18.9119C356 18.9119 356.112 18.9599 356.203 19.0559C356.299 19.1519 356.347 19.2692 356.347 19.4079C356.347 19.5465 356.299 19.6639 356.203 19.7599C356.112 19.8559 356 19.9039 355.867 19.9039ZM356.219 20.6159V24.9999H355.491V20.6159H356.219ZM359.372 25.0719C358.961 25.0719 358.588 24.9785 358.252 24.7919C357.921 24.6052 357.66 24.3412 357.468 23.9999C357.281 23.6532 357.188 23.2532 357.188 22.7999C357.188 22.3519 357.284 21.9572 357.476 21.6159C357.673 21.2692 357.94 21.0052 358.276 20.8239C358.612 20.6372 358.988 20.5439 359.404 20.5439C359.82 20.5439 360.196 20.6372 360.532 20.8239C360.868 21.0052 361.132 21.2665 361.324 21.6079C361.521 21.9492 361.62 22.3465 361.62 22.7999C361.62 23.2532 361.518 23.6532 361.316 23.9999C361.118 24.3412 360.849 24.6052 360.508 24.7919C360.166 24.9785 359.788 25.0719 359.372 25.0719ZM359.372 24.4319C359.633 24.4319 359.878 24.3705 360.108 24.2479C360.337 24.1252 360.521 23.9412 360.66 23.6959C360.804 23.4505 360.876 23.1519 360.876 22.7999C360.876 22.4479 360.806 22.1492 360.668 21.9039C360.529 21.6585 360.348 21.4772 360.124 21.3599C359.9 21.2372 359.657 21.1759 359.396 21.1759C359.129 21.1759 358.884 21.2372 358.66 21.3599C358.441 21.4772 358.265 21.6585 358.132 21.9039C357.998 22.1492 357.932 22.4479 357.932 22.7999C357.932 23.1572 357.996 23.4585 358.124 23.7039C358.257 23.9492 358.433 24.1332 358.652 24.2559C358.87 24.3732 359.11 24.4319 359.372 24.4319ZM364.713 20.5359C365.246 20.5359 365.678 20.6985 366.009 21.0239C366.34 21.3439 366.505 21.8079 366.505 22.4159V24.9999H365.785V22.5199C365.785 22.0825 365.676 21.7492 365.457 21.5199C365.238 21.2852 364.94 21.1679 364.561 21.1679C364.177 21.1679 363.87 21.2879 363.641 21.5279C363.417 21.7679 363.305 22.1172 363.305 22.5759V24.9999H362.577V20.6159H363.305V21.2399C363.449 21.0159 363.644 20.8425 363.889 20.7199C364.14 20.5972 364.414 20.5359 364.713 20.5359ZM369.246 25.0719C368.91 25.0719 368.609 25.0159 368.342 24.9039C368.075 24.7865 367.865 24.6265 367.71 24.4239C367.555 24.2159 367.47 23.9785 367.454 23.7119H368.206C368.227 23.9305 368.329 24.1092 368.51 24.2479C368.697 24.3865 368.939 24.4559 369.238 24.4559C369.515 24.4559 369.734 24.3945 369.894 24.2719C370.054 24.1492 370.134 23.9945 370.134 23.8079C370.134 23.6159 370.049 23.4745 369.878 23.3839C369.707 23.2879 369.443 23.1945 369.086 23.1039C368.761 23.0185 368.494 22.9332 368.286 22.8479C368.083 22.7572 367.907 22.6265 367.758 22.4559C367.614 22.2799 367.542 22.0505 367.542 21.7679C367.542 21.5439 367.609 21.3385 367.742 21.1519C367.875 20.9652 368.065 20.8185 368.31 20.7119C368.555 20.5999 368.835 20.5439 369.15 20.5439C369.635 20.5439 370.027 20.6665 370.326 20.9119C370.625 21.1572 370.785 21.4932 370.806 21.9199H370.078C370.062 21.6905 369.969 21.5065 369.798 21.3679C369.633 21.2292 369.409 21.1599 369.126 21.1599C368.865 21.1599 368.657 21.2159 368.502 21.3279C368.347 21.4399 368.27 21.5865 368.27 21.7679C368.27 21.9119 368.315 22.0319 368.406 22.1279C368.502 22.2185 368.619 22.2932 368.758 22.3519C368.902 22.4052 369.099 22.4665 369.35 22.5359C369.665 22.6212 369.921 22.7065 370.118 22.7919C370.315 22.8719 370.483 22.9945 370.622 23.1599C370.766 23.3252 370.841 23.5412 370.846 23.8079C370.846 24.0479 370.779 24.2639 370.646 24.4559C370.513 24.6479 370.323 24.7999 370.078 24.9119C369.838 25.0185 369.561 25.0719 369.246 25.0719Z" fill="black"/>
<circle cx="268.629" cy="21.9428" r="8.62857" fill="#E7EBB8"/>
<path d="M294.912 60.4239V65.9999H294.184V63.4719H291.344V65.9999H290.616V60.4239H291.344V62.8719H294.184V60.4239H294.912ZM299.091 65.9999L297.763 63.7199H296.883V65.9999H296.155V60.4239H297.955C298.376 60.4239 298.731 60.4959 299.019 60.6399C299.312 60.7839 299.531 60.9785 299.675 61.2239C299.819 61.4692 299.891 61.7492 299.891 62.0639C299.891 62.4479 299.779 62.7865 299.555 63.0799C299.336 63.3732 299.006 63.5679 298.563 63.6639L299.963 65.9999H299.091ZM296.883 63.1359H297.955C298.35 63.1359 298.646 63.0399 298.843 62.8479C299.04 62.6505 299.139 62.3892 299.139 62.0639C299.139 61.7332 299.04 61.4772 298.843 61.2959C298.651 61.1145 298.355 61.0239 297.955 61.0239H296.883V63.1359Z" fill="black"/>
<circle cx="268.629" cy="62.9285" r="8.62857" fill="#AEC7E8"/>
<path d="M290.344 103.208C290.344 102.664 290.467 102.176 290.712 101.744C290.957 101.307 291.291 100.965 291.712 100.72C292.139 100.475 292.611 100.352 293.128 100.352C293.736 100.352 294.267 100.499 294.72 100.792C295.173 101.085 295.504 101.501 295.712 102.04H294.84C294.685 101.704 294.461 101.445 294.168 101.264C293.88 101.083 293.533 100.992 293.128 100.992C292.739 100.992 292.389 101.083 292.08 101.264C291.771 101.445 291.528 101.704 291.352 102.04C291.176 102.371 291.088 102.76 291.088 103.208C291.088 103.651 291.176 104.04 291.352 104.376C291.528 104.707 291.771 104.963 292.08 105.144C292.389 105.325 292.739 105.416 293.128 105.416C293.533 105.416 293.88 105.328 294.168 105.152C294.461 104.971 294.685 104.712 294.84 104.376H295.712C295.504 104.909 295.173 105.323 294.72 105.616C294.267 105.904 293.736 106.048 293.128 106.048C292.611 106.048 292.139 105.928 291.712 105.688C291.291 105.443 290.957 105.104 290.712 104.672C290.467 104.24 290.344 103.752 290.344 103.208ZM300.684 101.616V106H299.956V105.352C299.817 105.576 299.622 105.752 299.372 105.88C299.126 106.003 298.854 106.064 298.556 106.064C298.214 106.064 297.908 105.995 297.636 105.856C297.364 105.712 297.148 105.499 296.988 105.216C296.833 104.933 296.756 104.589 296.756 104.184V101.616H297.476V104.088C297.476 104.52 297.585 104.853 297.804 105.088C298.022 105.317 298.321 105.432 298.7 105.432C299.089 105.432 299.396 105.312 299.62 105.072C299.844 104.832 299.956 104.483 299.956 104.024V101.616H300.684ZM303.465 106.072C303.129 106.072 302.828 106.016 302.561 105.904C302.294 105.787 302.084 105.627 301.929 105.424C301.774 105.216 301.689 104.979 301.673 104.712H302.425C302.446 104.931 302.548 105.109 302.729 105.248C302.916 105.387 303.158 105.456 303.457 105.456C303.734 105.456 303.953 105.395 304.113 105.272C304.273 105.149 304.353 104.995 304.353 104.808C304.353 104.616 304.268 104.475 304.097 104.384C303.926 104.288 303.662 104.195 303.305 104.104C302.98 104.019 302.713 103.933 302.505 103.848C302.302 103.757 302.126 103.627 301.977 103.456C301.833 103.28 301.761 103.051 301.761 102.768C301.761 102.544 301.828 102.339 301.961 102.152C302.094 101.965 302.284 101.819 302.529 101.712C302.774 101.6 303.054 101.544 303.369 101.544C303.854 101.544 304.246 101.667 304.545 101.912C304.844 102.157 305.004 102.493 305.025 102.92H304.297C304.281 102.691 304.188 102.507 304.017 102.368C303.852 102.229 303.628 102.16 303.345 102.16C303.084 102.16 302.876 102.216 302.721 102.328C302.566 102.44 302.489 102.587 302.489 102.768C302.489 102.912 302.534 103.032 302.625 103.128C302.721 103.219 302.838 103.293 302.977 103.352C303.121 103.405 303.318 103.467 303.569 103.536C303.884 103.621 304.14 103.707 304.337 103.792C304.534 103.872 304.702 103.995 304.841 104.16C304.985 104.325 305.06 104.541 305.065 104.808C305.065 105.048 304.998 105.264 304.865 105.456C304.732 105.648 304.542 105.8 304.297 105.912C304.057 106.019 303.78 106.072 303.465 106.072ZM306.981 102.216V104.8C306.981 105.013 307.026 105.165 307.117 105.256C307.207 105.341 307.365 105.384 307.589 105.384H308.125V106H307.469C307.063 106 306.759 105.907 306.557 105.72C306.354 105.533 306.253 105.227 306.253 104.8V102.216H305.685V101.616H306.253V100.512H306.981V101.616H308.125V102.216H306.981ZM310.919 106.072C310.508 106.072 310.135 105.979 309.799 105.792C309.468 105.605 309.207 105.341 309.015 105C308.828 104.653 308.735 104.253 308.735 103.8C308.735 103.352 308.831 102.957 309.023 102.616C309.22 102.269 309.487 102.005 309.823 101.824C310.159 101.637 310.535 101.544 310.951 101.544C311.367 101.544 311.743 101.637 312.079 101.824C312.415 102.005 312.679 102.267 312.871 102.608C313.068 102.949 313.167 103.347 313.167 103.8C313.167 104.253 313.065 104.653 312.863 105C312.665 105.341 312.396 105.605 312.055 105.792C311.713 105.979 311.335 106.072 310.919 106.072ZM310.919 105.432C311.18 105.432 311.425 105.371 311.655 105.248C311.884 105.125 312.068 104.941 312.207 104.696C312.351 104.451 312.423 104.152 312.423 103.8C312.423 103.448 312.353 103.149 312.215 102.904C312.076 102.659 311.895 102.477 311.671 102.36C311.447 102.237 311.204 102.176 310.943 102.176C310.676 102.176 310.431 102.237 310.207 102.36C309.988 102.477 309.812 102.659 309.679 102.904C309.545 103.149 309.479 103.448 309.479 103.8C309.479 104.157 309.543 104.459 309.671 104.704C309.804 104.949 309.98 105.133 310.199 105.256C310.417 105.373 310.657 105.432 310.919 105.432ZM319.396 101.536C319.737 101.536 320.041 101.608 320.308 101.752C320.574 101.891 320.785 102.101 320.94 102.384C321.094 102.667 321.172 103.011 321.172 103.416V106H320.452V103.52C320.452 103.083 320.342 102.749 320.124 102.52C319.91 102.285 319.62 102.168 319.252 102.168C318.873 102.168 318.572 102.291 318.348 102.536C318.124 102.776 318.012 103.125 318.012 103.584V106H317.292V103.52C317.292 103.083 317.182 102.749 316.964 102.52C316.75 102.285 316.46 102.168 316.092 102.168C315.713 102.168 315.412 102.291 315.188 102.536C314.964 102.776 314.852 103.125 314.852 103.584V106H314.124V101.616H314.852V102.248C314.996 102.019 315.188 101.843 315.428 101.72C315.673 101.597 315.942 101.536 316.236 101.536C316.604 101.536 316.929 101.619 317.212 101.784C317.494 101.949 317.705 102.192 317.844 102.512C317.966 102.203 318.169 101.963 318.452 101.792C318.734 101.621 319.049 101.536 319.396 101.536ZM326.366 103.64C326.366 103.779 326.358 103.925 326.342 104.08H322.838C322.865 104.512 323.011 104.851 323.278 105.096C323.55 105.336 323.878 105.456 324.262 105.456C324.577 105.456 324.838 105.384 325.046 105.24C325.259 105.091 325.409 104.893 325.494 104.648H326.278C326.161 105.069 325.926 105.413 325.574 105.68C325.222 105.941 324.785 106.072 324.262 106.072C323.846 106.072 323.473 105.979 323.142 105.792C322.817 105.605 322.561 105.341 322.374 105C322.187 104.653 322.094 104.253 322.094 103.8C322.094 103.347 322.185 102.949 322.366 102.608C322.547 102.267 322.801 102.005 323.126 101.824C323.457 101.637 323.835 101.544 324.262 101.544C324.678 101.544 325.046 101.635 325.366 101.816C325.686 101.997 325.931 102.248 326.102 102.568C326.278 102.883 326.366 103.24 326.366 103.64ZM325.614 103.488C325.614 103.211 325.553 102.973 325.43 102.776C325.307 102.573 325.139 102.421 324.926 102.32C324.718 102.213 324.486 102.16 324.23 102.16C323.862 102.16 323.547 102.277 323.286 102.512C323.03 102.747 322.883 103.072 322.846 103.488H325.614ZM328.055 102.328C328.183 102.077 328.364 101.883 328.599 101.744C328.839 101.605 329.13 101.536 329.471 101.536V102.288H329.279C328.463 102.288 328.055 102.731 328.055 103.616V106H327.327V101.616H328.055V102.328ZM334.212 106.056C333.844 106.056 333.513 105.992 333.22 105.864C332.932 105.731 332.705 105.549 332.54 105.32C332.375 105.085 332.289 104.816 332.284 104.512H333.06C333.087 104.773 333.193 104.995 333.38 105.176C333.572 105.352 333.849 105.44 334.212 105.44C334.559 105.44 334.831 105.355 335.028 105.184C335.231 105.008 335.332 104.784 335.332 104.512C335.332 104.299 335.273 104.125 335.156 103.992C335.039 103.859 334.892 103.757 334.716 103.688C334.54 103.619 334.303 103.544 334.004 103.464C333.636 103.368 333.34 103.272 333.116 103.176C332.897 103.08 332.708 102.931 332.548 102.728C332.393 102.52 332.316 102.243 332.316 101.896C332.316 101.592 332.393 101.323 332.548 101.088C332.703 100.853 332.919 100.672 333.196 100.544C333.479 100.416 333.801 100.352 334.164 100.352C334.687 100.352 335.113 100.483 335.444 100.744C335.78 101.005 335.969 101.352 336.012 101.784H335.212C335.185 101.571 335.073 101.384 334.876 101.224C334.679 101.059 334.417 100.976 334.092 100.976C333.788 100.976 333.54 101.056 333.348 101.216C333.156 101.371 333.06 101.589 333.06 101.872C333.06 102.075 333.116 102.24 333.228 102.368C333.345 102.496 333.487 102.595 333.652 102.664C333.823 102.728 334.06 102.803 334.364 102.888C334.732 102.989 335.028 103.091 335.252 103.192C335.476 103.288 335.668 103.44 335.828 103.648C335.988 103.851 336.068 104.128 336.068 104.48C336.068 104.752 335.996 105.008 335.852 105.248C335.708 105.488 335.495 105.683 335.212 105.832C334.929 105.981 334.596 106.056 334.212 106.056ZM341.139 103.64C341.139 103.779 341.131 103.925 341.115 104.08H337.611C337.638 104.512 337.785 104.851 338.051 105.096C338.323 105.336 338.651 105.456 339.035 105.456C339.35 105.456 339.611 105.384 339.819 105.24C340.033 105.091 340.182 104.893 340.267 104.648H341.051C340.934 105.069 340.699 105.413 340.347 105.68C339.995 105.941 339.558 106.072 339.035 106.072C338.619 106.072 338.246 105.979 337.915 105.792C337.59 105.605 337.334 105.341 337.147 105C336.961 104.653 336.867 104.253 336.867 103.8C336.867 103.347 336.958 102.949 337.139 102.608C337.321 102.267 337.574 102.005 337.899 101.824C338.23 101.637 338.609 101.544 339.035 101.544C339.451 101.544 339.819 101.635 340.139 101.816C340.459 101.997 340.705 102.248 340.875 102.568C341.051 102.883 341.139 103.24 341.139 103.64ZM340.387 103.488C340.387 103.211 340.326 102.973 340.203 102.776C340.081 102.573 339.913 102.421 339.699 102.32C339.491 102.213 339.259 102.16 339.003 102.16C338.635 102.16 338.321 102.277 338.059 102.512C337.803 102.747 337.657 103.072 337.619 103.488H340.387ZM342.828 102.328C342.956 102.077 343.138 101.883 343.372 101.744C343.612 101.605 343.903 101.536 344.244 101.536V102.288H344.052C343.236 102.288 342.828 102.731 342.828 103.616V106H342.1V101.616H342.828V102.328ZM346.717 105.328L348.077 101.616H348.853L347.133 106H346.285L344.565 101.616H345.349L346.717 105.328ZM349.945 100.904C349.806 100.904 349.689 100.856 349.593 100.76C349.497 100.664 349.449 100.547 349.449 100.408C349.449 100.269 349.497 100.152 349.593 100.056C349.689 99.9599 349.806 99.9119 349.945 99.9119C350.078 99.9119 350.19 99.9599 350.281 100.056C350.377 100.152 350.425 100.269 350.425 100.408C350.425 100.547 350.377 100.664 350.281 100.76C350.19 100.856 350.078 100.904 349.945 100.904ZM350.297 101.616V106H349.569V101.616H350.297ZM351.266 103.8C351.266 103.347 351.357 102.952 351.538 102.616C351.719 102.275 351.97 102.011 352.29 101.824C352.615 101.637 352.986 101.544 353.402 101.544C353.941 101.544 354.383 101.675 354.73 101.936C355.082 102.197 355.314 102.56 355.426 103.024H354.642C354.567 102.757 354.421 102.547 354.202 102.392C353.989 102.237 353.722 102.16 353.402 102.16C352.986 102.16 352.65 102.304 352.394 102.592C352.138 102.875 352.01 103.277 352.01 103.8C352.01 104.328 352.138 104.736 352.394 105.024C352.65 105.312 352.986 105.456 353.402 105.456C353.722 105.456 353.989 105.381 354.202 105.232C354.415 105.083 354.562 104.869 354.642 104.592H355.426C355.309 105.04 355.074 105.4 354.722 105.672C354.37 105.939 353.93 106.072 353.402 106.072C352.986 106.072 352.615 105.979 352.29 105.792C351.97 105.605 351.719 105.341 351.538 105C351.357 104.659 351.266 104.259 351.266 103.8ZM360.397 103.64C360.397 103.779 360.389 103.925 360.373 104.08H356.869C356.896 104.512 357.043 104.851 357.309 105.096C357.581 105.336 357.909 105.456 358.293 105.456C358.608 105.456 358.869 105.384 359.077 105.24C359.291 105.091 359.44 104.893 359.525 104.648H360.309C360.192 105.069 359.957 105.413 359.605 105.68C359.253 105.941 358.816 106.072 358.293 106.072C357.877 106.072 357.504 105.979 357.173 105.792C356.848 105.605 356.592 105.341 356.405 105C356.219 104.653 356.125 104.253 356.125 103.8C356.125 103.347 356.216 102.949 356.397 102.608C356.579 102.267 356.832 102.005 357.157 101.824C357.488 101.637 357.867 101.544 358.293 101.544C358.709 101.544 359.077 101.635 359.397 101.816C359.717 101.997 359.963 102.248 360.133 102.568C360.309 102.883 360.397 103.24 360.397 103.64ZM359.645 103.488C359.645 103.211 359.584 102.973 359.461 102.776C359.339 102.573 359.171 102.421 358.957 102.32C358.749 102.213 358.517 102.16 358.261 102.16C357.893 102.16 357.579 102.277 357.317 102.512C357.061 102.747 356.915 103.072 356.877 103.488H359.645Z" fill="black"/>
<circle cx="268.629" cy="103.914" r="8.62857" fill="#CEC0EC"/>
<path d="M293.912 145.76H291.48L291.032 147H290.264L292.28 141.456H293.12L295.128 147H294.36L293.912 145.76ZM293.704 145.168L292.696 142.352L291.688 145.168H293.704ZM295.735 144.8C295.735 144.347 295.825 143.952 296.007 143.616C296.188 143.275 296.439 143.011 296.759 142.824C297.084 142.637 297.455 142.544 297.871 142.544C298.409 142.544 298.852 142.675 299.199 142.936C299.551 143.197 299.783 143.56 299.895 144.024H299.111C299.036 143.757 298.889 143.547 298.671 143.392C298.457 143.237 298.191 143.16 297.871 143.16C297.455 143.16 297.119 143.304 296.863 143.592C296.607 143.875 296.479 144.277 296.479 144.8C296.479 145.328 296.607 145.736 296.863 146.024C297.119 146.312 297.455 146.456 297.871 146.456C298.191 146.456 298.457 146.381 298.671 146.232C298.884 146.083 299.031 145.869 299.111 145.592H299.895C299.777 146.04 299.543 146.4 299.191 146.672C298.839 146.939 298.399 147.072 297.871 147.072C297.455 147.072 297.084 146.979 296.759 146.792C296.439 146.605 296.188 146.341 296.007 146C295.825 145.659 295.735 145.259 295.735 144.8ZM300.594 144.8C300.594 144.347 300.685 143.952 300.866 143.616C301.047 143.275 301.298 143.011 301.618 142.824C301.943 142.637 302.314 142.544 302.73 142.544C303.269 142.544 303.711 142.675 304.058 142.936C304.41 143.197 304.642 143.56 304.754 144.024H303.97C303.895 143.757 303.749 143.547 303.53 143.392C303.317 143.237 303.05 143.16 302.73 143.16C302.314 143.16 301.978 143.304 301.722 143.592C301.466 143.875 301.338 144.277 301.338 144.8C301.338 145.328 301.466 145.736 301.722 146.024C301.978 146.312 302.314 146.456 302.73 146.456C303.05 146.456 303.317 146.381 303.53 146.232C303.743 146.083 303.89 145.869 303.97 145.592H304.754C304.637 146.04 304.402 146.4 304.05 146.672C303.698 146.939 303.258 147.072 302.73 147.072C302.314 147.072 301.943 146.979 301.618 146.792C301.298 146.605 301.047 146.341 300.866 146C300.685 145.659 300.594 145.259 300.594 144.8ZM307.637 147.072C307.227 147.072 306.853 146.979 306.517 146.792C306.187 146.605 305.925 146.341 305.733 146C305.547 145.653 305.453 145.253 305.453 144.8C305.453 144.352 305.549 143.957 305.741 143.616C305.939 143.269 306.205 143.005 306.541 142.824C306.877 142.637 307.253 142.544 307.669 142.544C308.085 142.544 308.461 142.637 308.797 142.824C309.133 143.005 309.397 143.267 309.589 143.608C309.787 143.949 309.885 144.347 309.885 144.8C309.885 145.253 309.784 145.653 309.581 146C309.384 146.341 309.115 146.605 308.773 146.792C308.432 146.979 308.053 147.072 307.637 147.072ZM307.637 146.432C307.899 146.432 308.144 146.371 308.373 146.248C308.603 146.125 308.787 145.941 308.925 145.696C309.069 145.451 309.141 145.152 309.141 144.8C309.141 144.448 309.072 144.149 308.933 143.904C308.795 143.659 308.613 143.477 308.389 143.36C308.165 143.237 307.923 143.176 307.661 143.176C307.395 143.176 307.149 143.237 306.925 143.36C306.707 143.477 306.531 143.659 306.397 143.904C306.264 144.149 306.197 144.448 306.197 144.8C306.197 145.157 306.261 145.459 306.389 145.704C306.523 145.949 306.699 146.133 306.917 146.256C307.136 146.373 307.376 146.432 307.637 146.432ZM314.731 142.616V147H314.003V146.352C313.864 146.576 313.669 146.752 313.419 146.88C313.173 147.003 312.901 147.064 312.603 147.064C312.261 147.064 311.955 146.995 311.683 146.856C311.411 146.712 311.195 146.499 311.035 146.216C310.88 145.933 310.803 145.589 310.803 145.184V142.616H311.523V145.088C311.523 145.52 311.632 145.853 311.851 146.088C312.069 146.317 312.368 146.432 312.747 146.432C313.136 146.432 313.443 146.312 313.667 146.072C313.891 145.832 314.003 145.483 314.003 145.024V142.616H314.731ZM318.096 142.536C318.629 142.536 319.061 142.699 319.392 143.024C319.722 143.344 319.888 143.808 319.888 144.416V147H319.168V144.52C319.168 144.083 319.058 143.749 318.84 143.52C318.621 143.285 318.322 143.168 317.944 143.168C317.56 143.168 317.253 143.288 317.024 143.528C316.8 143.768 316.688 144.117 316.688 144.576V147H315.96V142.616H316.688V143.24C316.832 143.016 317.026 142.843 317.272 142.72C317.522 142.597 317.797 142.536 318.096 142.536ZM321.965 143.216V145.8C321.965 146.013 322.01 146.165 322.101 146.256C322.192 146.341 322.349 146.384 322.573 146.384H323.109V147H322.453C322.048 147 321.744 146.907 321.541 146.72C321.338 146.533 321.237 146.227 321.237 145.8V143.216H320.669V142.616H321.237V141.512H321.965V142.616H323.109V143.216H321.965ZM324.367 141.904C324.228 141.904 324.111 141.856 324.015 141.76C323.919 141.664 323.871 141.547 323.871 141.408C323.871 141.269 323.919 141.152 324.015 141.056C324.111 140.96 324.228 140.912 324.367 140.912C324.5 140.912 324.612 140.96 324.703 141.056C324.799 141.152 324.847 141.269 324.847 141.408C324.847 141.547 324.799 141.664 324.703 141.76C324.612 141.856 324.5 141.904 324.367 141.904ZM324.719 142.616V147H323.991V142.616H324.719ZM328.096 142.536C328.629 142.536 329.061 142.699 329.392 143.024C329.722 143.344 329.888 143.808 329.888 144.416V147H329.168V144.52C329.168 144.083 329.058 143.749 328.84 143.52C328.621 143.285 328.322 143.168 327.944 143.168C327.56 143.168 327.253 143.288 327.024 143.528C326.8 143.768 326.688 144.117 326.688 144.576V147H325.96V142.616H326.688V143.24C326.832 143.016 327.026 142.843 327.272 142.72C327.522 142.597 327.797 142.536 328.096 142.536ZM332.885 142.544C333.264 142.544 333.594 142.627 333.877 142.792C334.165 142.957 334.378 143.165 334.517 143.416V142.616H335.253V147.096C335.253 147.496 335.168 147.851 334.997 148.16C334.826 148.475 334.581 148.72 334.261 148.896C333.946 149.072 333.578 149.16 333.157 149.16C332.581 149.16 332.101 149.024 331.717 148.752C331.333 148.48 331.106 148.109 331.037 147.64H331.757C331.837 147.907 332.002 148.12 332.253 148.28C332.504 148.445 332.805 148.528 333.157 148.528C333.557 148.528 333.882 148.403 334.133 148.152C334.389 147.901 334.517 147.549 334.517 147.096V146.176C334.373 146.432 334.16 146.645 333.877 146.816C333.594 146.987 333.264 147.072 332.885 147.072C332.496 147.072 332.141 146.976 331.821 146.784C331.506 146.592 331.258 146.323 331.077 145.976C330.896 145.629 330.805 145.235 330.805 144.792C330.805 144.344 330.896 143.952 331.077 143.616C331.258 143.275 331.506 143.011 331.821 142.824C332.141 142.637 332.496 142.544 332.885 142.544ZM334.517 144.8C334.517 144.469 334.45 144.181 334.317 143.936C334.184 143.691 334.002 143.504 333.773 143.376C333.549 143.243 333.301 143.176 333.029 143.176C332.757 143.176 332.509 143.24 332.285 143.368C332.061 143.496 331.882 143.683 331.749 143.928C331.616 144.173 331.549 144.461 331.549 144.792C331.549 145.128 331.616 145.421 331.749 145.672C331.882 145.917 332.061 146.107 332.285 146.24C332.509 146.368 332.757 146.432 333.029 146.432C333.301 146.432 333.549 146.368 333.773 146.24C334.002 146.107 334.184 145.917 334.317 145.672C334.45 145.421 334.517 145.131 334.517 144.8Z" fill="black"/>
<circle cx="268.629" cy="144.9" r="8.62857" fill="#FFBB78"/>
<path d="M291.344 183.424V189H290.616V183.424H291.344ZM296.017 183.424V184.016H294.497V189H293.769V184.016H292.241V183.424H296.017Z" fill="black"/>
<circle cx="268.629" cy="185.886" r="8.62857" fill="#62C0BB"/>
<path d="M296.272 223.464V229H295.544V224.872L293.704 229H293.192L291.344 224.864V229H290.616V223.464H291.4L293.448 228.04L295.496 223.464H296.272ZM297.235 226.792C297.235 226.344 297.325 225.952 297.507 225.616C297.688 225.275 297.936 225.011 298.251 224.824C298.571 224.637 298.925 224.544 299.315 224.544C299.699 224.544 300.032 224.627 300.315 224.792C300.597 224.957 300.808 225.165 300.947 225.416V224.616H301.683V229H300.947V228.184C300.803 228.44 300.587 228.653 300.299 228.824C300.016 228.989 299.685 229.072 299.307 229.072C298.917 229.072 298.565 228.976 298.251 228.784C297.936 228.592 297.688 228.323 297.507 227.976C297.325 227.629 297.235 227.235 297.235 226.792ZM300.947 226.8C300.947 226.469 300.88 226.181 300.747 225.936C300.613 225.691 300.432 225.504 300.203 225.376C299.979 225.243 299.731 225.176 299.459 225.176C299.187 225.176 298.939 225.24 298.715 225.368C298.491 225.496 298.312 225.683 298.179 225.928C298.045 226.173 297.979 226.461 297.979 226.792C297.979 227.128 298.045 227.421 298.179 227.672C298.312 227.917 298.491 228.107 298.715 228.24C298.939 228.368 299.187 228.432 299.459 228.432C299.731 228.432 299.979 228.368 300.203 228.24C300.432 228.107 300.613 227.917 300.747 227.672C300.88 227.421 300.947 227.131 300.947 226.8ZM303.641 225.328C303.769 225.077 303.95 224.883 304.185 224.744C304.425 224.605 304.716 224.536 305.057 224.536V225.288H304.865C304.049 225.288 303.641 225.731 303.641 226.616V229H302.913V224.616H303.641V225.328ZM308.345 229L306.625 227.064V229H305.897V223.08H306.625V226.56L308.313 224.616H309.329L307.265 226.8L309.337 229H308.345ZM314.014 226.64C314.014 226.779 314.006 226.925 313.99 227.08H310.486C310.513 227.512 310.66 227.851 310.926 228.096C311.198 228.336 311.526 228.456 311.91 228.456C312.225 228.456 312.486 228.384 312.694 228.24C312.908 228.091 313.057 227.893 313.142 227.648H313.926C313.809 228.069 313.574 228.413 313.222 228.68C312.87 228.941 312.433 229.072 311.91 229.072C311.494 229.072 311.121 228.979 310.79 228.792C310.465 228.605 310.209 228.341 310.022 228C309.836 227.653 309.742 227.253 309.742 226.8C309.742 226.347 309.833 225.949 310.014 225.608C310.196 225.267 310.449 225.005 310.774 224.824C311.105 224.637 311.484 224.544 311.91 224.544C312.326 224.544 312.694 224.635 313.014 224.816C313.334 224.997 313.58 225.248 313.75 225.568C313.926 225.883 314.014 226.24 314.014 226.64ZM313.262 226.488C313.262 226.211 313.201 225.973 313.078 225.776C312.956 225.573 312.788 225.421 312.574 225.32C312.366 225.213 312.134 225.16 311.878 225.16C311.51 225.16 311.196 225.277 310.934 225.512C310.678 225.747 310.532 226.072 310.494 226.488H313.262ZM315.863 225.216V227.8C315.863 228.013 315.909 228.165 315.999 228.256C316.09 228.341 316.247 228.384 316.471 228.384H317.007V229H316.351C315.946 229 315.642 228.907 315.439 228.72C315.237 228.533 315.135 228.227 315.135 227.8V225.216H314.567V224.616H315.135V223.512H315.863V224.616H317.007V225.216H315.863ZM318.265 223.904C318.127 223.904 318.009 223.856 317.913 223.76C317.817 223.664 317.769 223.547 317.769 223.408C317.769 223.269 317.817 223.152 317.913 223.056C318.009 222.96 318.127 222.912 318.265 222.912C318.399 222.912 318.511 222.96 318.601 223.056C318.697 223.152 318.745 223.269 318.745 223.408C318.745 223.547 318.697 223.664 318.601 223.76C318.511 223.856 318.399 223.904 318.265 223.904ZM318.617 224.616V229H317.889V224.616H318.617ZM321.994 224.536C322.528 224.536 322.96 224.699 323.29 225.024C323.621 225.344 323.786 225.808 323.786 226.416V229H323.066V226.52C323.066 226.083 322.957 225.749 322.738 225.52C322.52 225.285 322.221 225.168 321.842 225.168C321.458 225.168 321.152 225.288 320.922 225.528C320.698 225.768 320.586 226.117 320.586 226.576V229H319.858V224.616H320.586V225.24C320.73 225.016 320.925 224.843 321.17 224.72C321.421 224.597 321.696 224.536 321.994 224.536ZM326.783 224.544C327.162 224.544 327.493 224.627 327.775 224.792C328.063 224.957 328.277 225.165 328.415 225.416V224.616H329.151V229.096C329.151 229.496 329.066 229.851 328.895 230.16C328.725 230.475 328.479 230.72 328.159 230.896C327.845 231.072 327.477 231.16 327.055 231.16C326.479 231.16 325.999 231.024 325.615 230.752C325.231 230.48 325.005 230.109 324.935 229.64H325.655C325.735 229.907 325.901 230.12 326.151 230.28C326.402 230.445 326.703 230.528 327.055 230.528C327.455 230.528 327.781 230.403 328.031 230.152C328.287 229.901 328.415 229.549 328.415 229.096V228.176C328.271 228.432 328.058 228.645 327.775 228.816C327.493 228.987 327.162 229.072 326.783 229.072C326.394 229.072 326.039 228.976 325.719 228.784C325.405 228.592 325.157 228.323 324.975 227.976C324.794 227.629 324.703 227.235 324.703 226.792C324.703 226.344 324.794 225.952 324.975 225.616C325.157 225.275 325.405 225.011 325.719 224.824C326.039 224.637 326.394 224.544 326.783 224.544ZM328.415 226.8C328.415 226.469 328.349 226.181 328.215 225.936C328.082 225.691 327.901 225.504 327.671 225.376C327.447 225.243 327.199 225.176 326.927 225.176C326.655 225.176 326.407 225.24 326.183 225.368C325.959 225.496 325.781 225.683 325.647 225.928C325.514 226.173 325.447 226.461 325.447 226.792C325.447 227.128 325.514 227.421 325.647 227.672C325.781 227.917 325.959 228.107 326.183 228.24C326.407 228.368 326.655 228.432 326.927 228.432C327.199 228.432 327.447 228.368 327.671 228.24C327.901 228.107 328.082 227.917 328.215 227.672C328.349 227.421 328.415 227.131 328.415 226.8Z" fill="black"/>
<circle cx="268.629" cy="226.871" r="8.62857" fill="#F0CECE"/>
<mask id="path-13-outside-1_15_105" maskUnits="userSpaceOnUse" x="0" y="0" width="237" height="237" fill="black">
<rect fill="white" width="237" height="237"/>
<path d="M232 118.5C232 181.184 181.184 232 118.5 232C55.8157 232 5 181.184 5 118.5C5 55.8157 55.8157 5 118.5 5C181.184 5 232 55.8157 232 118.5ZM58.9125 118.5C58.9125 151.409 85.5907 178.087 118.5 178.087C151.409 178.087 178.087 151.409 178.087 118.5C178.087 85.5907 151.409 58.9125 118.5 58.9125C85.5907 58.9125 58.9125 85.5907 58.9125 118.5Z"/>
</mask>
<path d="M232 118.5C232 181.184 181.184 232 118.5 232C55.8157 232 5 181.184 5 118.5C5 55.8157 55.8157 5 118.5 5C181.184 5 232 55.8157 232 118.5ZM58.9125 118.5C58.9125 151.409 85.5907 178.087 118.5 178.087C151.409 178.087 178.087 151.409 178.087 118.5C178.087 85.5907 151.409 58.9125 118.5 58.9125C85.5907 58.9125 58.9125 85.5907 58.9125 118.5Z" fill="#F0CECE"/>
<path d="M232 118.5C232 181.184 181.184 232 118.5 232C55.8157 232 5 181.184 5 118.5C5 55.8157 55.8157 5 118.5 5C181.184 5 232 55.8157 232 118.5ZM58.9125 118.5C58.9125 151.409 85.5907 178.087 118.5 178.087C151.409 178.087 178.087 151.409 178.087 118.5C178.087 85.5907 151.409 58.9125 118.5 58.9125C85.5907 58.9125 58.9125 85.5907 58.9125 118.5Z" stroke="white" stroke-width="10" mask="url(#path-13-outside-1_15_105)"/>
<mask id="path-14-outside-2_15_105" maskUnits="userSpaceOnUse" x="-1" y="0" width="239" height="237" fill="black">
<rect fill="white" x="-1" width="239" height="237"/>
<path d="M118.5 5C145.065 5 170.789 14.3184 191.191 31.3322C211.593 48.3461 225.381 71.9774 230.154 98.1106C234.926 124.244 230.38 151.223 217.308 174.35C204.236 197.476 183.466 215.285 158.615 224.674C133.765 234.064 106.408 234.439 81.309 225.734C56.2102 217.029 34.9601 199.796 21.2593 177.036C7.55851 154.276 2.27526 127.432 6.32965 101.178C10.384 74.9235 23.5192 50.9233 43.4475 33.3568L79.0974 73.7998C68.6351 83.0222 61.7391 95.6224 59.6106 109.406C57.482 123.189 60.2557 137.283 67.4486 149.232C74.6415 161.18 85.7979 170.228 98.9747 174.798C112.152 179.368 126.514 179.171 139.561 174.242C152.607 169.312 163.512 159.963 170.374 147.821C177.237 135.68 179.624 121.515 177.118 107.796C174.613 94.0756 167.374 81.6692 156.663 72.7369C145.952 63.8046 132.447 58.9125 118.5 58.9125L118.5 5Z"/>
</mask>
<path d="M118.5 5C145.065 5 170.789 14.3184 191.191 31.3322C211.593 48.3461 225.381 71.9774 230.154 98.1106C234.926 124.244 230.38 151.223 217.308 174.35C204.236 197.476 183.466 215.285 158.615 224.674C133.765 234.064 106.408 234.439 81.309 225.734C56.2102 217.029 34.9601 199.796 21.2593 177.036C7.55851 154.276 2.27526 127.432 6.32965 101.178C10.384 74.9235 23.5192 50.9233 43.4475 33.3568L79.0974 73.7998C68.6351 83.0222 61.7391 95.6224 59.6106 109.406C57.482 123.189 60.2557 137.283 67.4486 149.232C74.6415 161.18 85.7979 170.228 98.9747 174.798C112.152 179.368 126.514 179.171 139.561 174.242C152.607 169.312 163.512 159.963 170.374 147.821C177.237 135.68 179.624 121.515 177.118 107.796C174.613 94.0756 167.374 81.6692 156.663 72.7369C145.952 63.8046 132.447 58.9125 118.5 58.9125L118.5 5Z" fill="#62C0BB"/>
<path d="M118.5 5C145.065 5 170.789 14.3184 191.191 31.3322C211.593 48.3461 225.381 71.9774 230.154 98.1106C234.926 124.244 230.38 151.223 217.308 174.35C204.236 197.476 183.466 215.285 158.615 224.674C133.765 234.064 106.408 234.439 81.309 225.734C56.2102 217.029 34.9601 199.796 21.2593 177.036C7.55851 154.276 2.27526 127.432 6.32965 101.178C10.384 74.9235 23.5192 50.9233 43.4475 33.3568L79.0974 73.7998C68.6351 83.0222 61.7391 95.6224 59.6106 109.406C57.482 123.189 60.2557 137.283 67.4486 149.232C74.6415 161.18 85.7979 170.228 98.9747 174.798C112.152 179.368 126.514 179.171 139.561 174.242C152.607 169.312 163.512 159.963 170.374 147.821C177.237 135.68 179.624 121.515 177.118 107.796C174.613 94.0756 167.374 81.6692 156.663 72.7369C145.952 63.8046 132.447 58.9125 118.5 58.9125L118.5 5Z" stroke="white" stroke-width="10" mask="url(#path-14-outside-2_15_105)"/>
<mask id="path-15-outside-3_15_105" maskUnits="userSpaceOnUse" x="0" y="0" width="237" height="237" fill="black">
<rect fill="white" width="237" height="237"/>
<path d="M118.5 5C141.735 5 164.411 12.1312 183.464 25.4304C202.517 38.7296 217.029 57.556 225.04 79.3666C233.052 101.177 234.176 124.921 228.261 147.391C222.347 169.861 209.679 189.975 191.968 205.015C174.257 220.055 152.356 229.297 129.225 231.492C106.093 233.688 82.8455 228.731 62.6212 217.292C42.3968 205.852 26.1706 188.482 16.1343 167.526C6.0979 146.57 2.73499 123.038 6.49977 100.11L59.6999 108.845C57.7234 120.883 59.4889 133.237 64.758 144.238C70.0271 155.24 78.5458 164.36 89.1636 170.366C99.7814 176.371 111.987 178.974 124.131 177.821C136.275 176.668 147.772 171.816 157.07 163.92C166.369 156.024 173.02 145.465 176.125 133.668C179.23 121.871 178.64 109.406 174.434 97.955C170.228 86.5044 162.609 76.6206 152.606 69.6385C142.603 62.6564 130.699 58.9125 118.5 58.9125L118.5 5Z"/>
</mask>
<path d="M118.5 5C141.735 5 164.411 12.1312 183.464 25.4304C202.517 38.7296 217.029 57.556 225.04 79.3666C233.052 101.177 234.176 124.921 228.261 147.391C222.347 169.861 209.679 189.975 191.968 205.015C174.257 220.055 152.356 229.297 129.225 231.492C106.093 233.688 82.8455 228.731 62.6212 217.292C42.3968 205.852 26.1706 188.482 16.1343 167.526C6.0979 146.57 2.73499 123.038 6.49977 100.11L59.6999 108.845C57.7234 120.883 59.4889 133.237 64.758 144.238C70.0271 155.24 78.5458 164.36 89.1636 170.366C99.7814 176.371 111.987 178.974 124.131 177.821C136.275 176.668 147.772 171.816 157.07 163.92C166.369 156.024 173.02 145.465 176.125 133.668C179.23 121.871 178.64 109.406 174.434 97.955C170.228 86.5044 162.609 76.6206 152.606 69.6385C142.603 62.6564 130.699 58.9125 118.5 58.9125L118.5 5Z" fill="#FFBB78"/>
<path d="M118.5 5C141.735 5 164.411 12.1312 183.464 25.4304C202.517 38.7296 217.029 57.556 225.04 79.3666C233.052 101.177 234.176 124.921 228.261 147.391C222.347 169.861 209.679 189.975 191.968 205.015C174.257 220.055 152.356 229.297 129.225 231.492C106.093 233.688 82.8455 228.731 62.6212 217.292C42.3968 205.852 26.1706 188.482 16.1343 167.526C6.0979 146.57 2.73499 123.038 6.49977 100.11L59.6999 108.845C57.7234 120.883 59.4889 133.237 64.758 144.238C70.0271 155.24 78.5458 164.36 89.1636 170.366C99.7814 176.371 111.987 178.974 124.131 177.821C136.275 176.668 147.772 171.816 157.07 163.92C166.369 156.024 173.02 145.465 176.125 133.668C179.23 121.871 178.64 109.406 174.434 97.955C170.228 86.5044 162.609 76.6206 152.606 69.6385C142.603 62.6564 130.699 58.9125 118.5 58.9125L118.5 5Z" stroke="white" stroke-width="10" mask="url(#path-15-outside-3_15_105)"/>
<path d="M118.5 2.5H116V5V58.9125V61.4125H118.5C128.3 61.4125 137.935 63.9353 146.477 68.7381C155.02 73.5409 162.182 80.462 167.275 88.835C172.367 97.2079 175.218 106.751 175.554 116.545C175.89 126.339 173.698 136.055 169.191 144.757C164.683 153.459 158.011 160.854 149.818 166.23C141.624 171.606 132.184 174.783 122.407 175.454C112.63 176.124 102.845 174.267 93.994 170.06C85.1429 165.853 77.5238 159.439 71.8701 151.434L70.4279 149.392L68.3858 150.834L24.3493 181.936L22.3073 183.378L23.7495 185.42C35.2376 201.686 50.7194 214.72 68.7046 223.268C86.6899 231.817 106.573 235.591 126.44 234.228C146.306 232.865 165.487 226.411 182.137 215.486C198.786 204.562 212.343 189.536 221.502 171.854C230.661 154.172 235.114 134.43 234.432 114.528C233.75 94.6262 227.956 75.2352 217.609 58.2216C207.261 41.2079 192.707 27.1446 175.349 17.3855C157.991 7.62632 138.413 2.5 118.5 2.5Z" fill="#CEC0EC" stroke="white" stroke-width="5"/>
<mask id="path-17-outside-4_15_105" maskUnits="userSpaceOnUse" x="104" y="0" width="133" height="237" fill="black">
<rect fill="white" x="104" width="133" height="237"/>
<path d="M118.5 5C133.767 5 148.878 8.08023 162.927 14.0564C176.976 20.0325 189.676 28.7816 200.265 39.7802C210.854 50.7787 219.115 63.8006 224.554 78.0664C229.993 92.3321 232.497 107.549 231.918 122.805C231.339 138.062 227.688 153.044 221.183 166.857C214.679 180.669 205.454 193.027 194.062 203.192C182.67 213.356 169.344 221.117 154.882 226.011C140.42 230.905 125.12 232.831 109.896 231.673L113.983 177.916C121.975 178.524 130.008 177.513 137.601 174.943C145.193 172.374 152.189 168.299 158.17 162.963C164.151 157.627 168.994 151.139 172.409 143.887C175.824 136.636 177.741 128.77 178.045 120.76C178.349 112.751 177.034 104.762 174.178 97.2723C171.323 89.7828 166.986 82.9463 161.426 77.1721C155.867 71.3979 149.2 66.8045 141.824 63.6671C134.448 60.5296 126.515 58.9125 118.5 58.9125L118.5 5Z"/>
</mask>
<path d="M118.5 5C133.767 5 148.878 8.08023 162.927 14.0564C176.976 20.0325 189.676 28.7816 200.265 39.7802C210.854 50.7787 219.115 63.8006 224.554 78.0664C229.993 92.3321 232.497 107.549 231.918 122.805C231.339 138.062 227.688 153.044 221.183 166.857C214.679 180.669 205.454 193.027 194.062 203.192C182.67 213.356 169.344 221.117 154.882 226.011C140.42 230.905 125.12 232.831 109.896 231.673L113.983 177.916C121.975 178.524 130.008 177.513 137.601 174.943C145.193 172.374 152.189 168.299 158.17 162.963C164.151 157.627 168.994 151.139 172.409 143.887C175.824 136.636 177.741 128.77 178.045 120.76C178.349 112.751 177.034 104.762 174.178 97.2723C171.323 89.7828 166.986 82.9463 161.426 77.1721C155.867 71.3979 149.2 66.8045 141.824 63.6671C134.448 60.5296 126.515 58.9125 118.5 58.9125L118.5 5Z" fill="#AEC7E8"/>
<path d="M118.5 5C133.767 5 148.878 8.08023 162.927 14.0564C176.976 20.0325 189.676 28.7816 200.265 39.7802C210.854 50.7787 219.115 63.8006 224.554 78.0664C229.993 92.3321 232.497 107.549 231.918 122.805C231.339 138.062 227.688 153.044 221.183 166.857C214.679 180.669 205.454 193.027 194.062 203.192C182.67 213.356 169.344 221.117 154.882 226.011C140.42 230.905 125.12 232.831 109.896 231.673L113.983 177.916C121.975 178.524 130.008 177.513 137.601 174.943C145.193 172.374 152.189 168.299 158.17 162.963C164.151 157.627 168.994 151.139 172.409 143.887C175.824 136.636 177.741 128.77 178.045 120.76C178.349 112.751 177.034 104.762 174.178 97.2723C171.323 89.7828 166.986 82.9463 161.426 77.1721C155.867 71.3979 149.2 66.8045 141.824 63.6671C134.448 60.5296 126.515 58.9125 118.5 58.9125L118.5 5Z" stroke="white" stroke-width="10" mask="url(#path-17-outside-4_15_105)"/>
<mask id="path-18-outside-5_15_105" maskUnits="userSpaceOnUse" x="113" y="0" width="124" height="177" fill="black">
<rect fill="white" x="113" width="124" height="177"/>
<path d="M118.5 5C137.864 5 156.906 9.95424 173.815 19.3915C190.724 28.8287 204.937 42.4351 215.102 58.9163C225.268 75.3975 231.048 94.2055 231.892 113.551C232.736 132.897 228.617 152.137 219.926 169.441L171.749 145.244C176.311 136.159 178.474 126.058 178.031 115.902C177.588 105.745 174.553 95.8712 169.216 87.2185C163.879 78.5659 156.417 71.4226 147.54 66.468C138.663 61.5135 128.666 58.9125 118.5 58.9125L118.5 5Z"/>
</mask>
<path d="M118.5 5C137.864 5 156.906 9.95424 173.815 19.3915C190.724 28.8287 204.937 42.4351 215.102 58.9163C225.268 75.3975 231.048 94.2055 231.892 113.551C232.736 132.897 228.617 152.137 219.926 169.441L171.749 145.244C176.311 136.159 178.474 126.058 178.031 115.902C177.588 105.745 174.553 95.8712 169.216 87.2185C163.879 78.5659 156.417 71.4226 147.54 66.468C138.663 61.5135 128.666 58.9125 118.5 58.9125L118.5 5Z" fill="#E7EBB8"/>
<path d="M118.5 5C137.864 5 156.906 9.95424 173.815 19.3915C190.724 28.8287 204.937 42.4351 215.102 58.9163C225.268 75.3975 231.048 94.2055 231.892 113.551C232.736 132.897 228.617 152.137 219.926 169.441L171.749 145.244C176.311 136.159 178.474 126.058 178.031 115.902C177.588 105.745 174.553 95.8712 169.216 87.2185C163.879 78.5659 156.417 71.4226 147.54 66.468C138.663 61.5135 128.666 58.9125 118.5 58.9125L118.5 5Z" stroke="white" stroke-width="10" mask="url(#path-18-outside-5_15_105)"/>
</svg>
