<svg width="186" height="36" viewBox="0 0 186 36" fill="none" xmlns="http://www.w3.org/2000/svg">
<path d="M37.768 17.5041C37.768 15.8401 38.112 14.3601 38.8 13.0641C39.504 11.7521 40.496 10.7361 41.776 10.0161C43.056 9.28006 44.528 8.91206 46.192 8.91206C48.304 8.91206 50.08 9.48006 51.52 10.6161C52.96 11.7361 53.888 13.2641 54.304 15.2001H49.24C48.936 14.5601 48.512 14.0721 47.968 13.7361C47.44 13.4001 46.824 13.2321 46.12 13.2321C45.032 13.2321 44.16 13.6241 43.504 14.4081C42.864 15.1761 42.544 16.2081 42.544 17.5041C42.544 18.8161 42.864 19.8641 43.504 20.6481C44.16 21.4161 45.032 21.8001 46.12 21.8001C46.824 21.8001 47.44 21.6321 47.968 21.2961C48.512 20.9601 48.936 20.4721 49.24 19.8321H54.304C53.888 21.7681 52.96 23.3041 51.52 24.4401C50.08 25.5601 48.304 26.1201 46.192 26.1201C44.528 26.1201 43.056 25.7601 41.776 25.0401C40.496 24.3041 39.504 23.2881 38.8 21.9921C38.112 20.6801 37.768 19.1841 37.768 17.5041ZM62.7955 26.1681C61.4515 26.1681 60.2435 25.8881 59.1715 25.3281C58.1155 24.7681 57.2835 23.9681 56.6755 22.9281C56.0675 21.8881 55.7635 20.6641 55.7635 19.2561C55.7635 17.8641 56.0675 16.6481 56.6755 15.6081C57.2995 14.5681 58.1395 13.7681 59.1955 13.2081C60.2675 12.6481 61.4755 12.3681 62.8195 12.3681C64.1635 12.3681 65.3635 12.6481 66.4195 13.2081C67.4915 13.7681 68.3315 14.5681 68.9395 15.6081C69.5635 16.6481 69.8755 17.8641 69.8755 19.2561C69.8755 20.6481 69.5635 21.8721 68.9395 22.9281C68.3315 23.9681 67.4915 24.7681 66.4195 25.3281C65.3475 25.8881 64.1395 26.1681 62.7955 26.1681ZM62.7955 22.0881C63.4515 22.0881 63.9955 21.8481 64.4275 21.3681C64.8755 20.8721 65.0995 20.1681 65.0995 19.2561C65.0995 18.3441 64.8755 17.6481 64.4275 17.1681C63.9955 16.6881 63.4595 16.4481 62.8195 16.4481C62.1795 16.4481 61.6435 16.6881 61.2115 17.1681C60.7795 17.6481 60.5635 18.3441 60.5635 19.2561C60.5635 20.1841 60.7715 20.8881 61.1875 21.3681C61.6035 21.8481 62.1395 22.0881 62.7955 22.0881ZM89.3813 12.4161C91.0773 12.4161 92.4053 12.9281 93.3653 13.9521C94.3413 14.9761 94.8293 16.3761 94.8293 18.1521V26.0001H90.1253V18.7761C90.1253 18.0561 89.9253 17.4961 89.5253 17.0961C89.1253 16.6961 88.5813 16.4961 87.8933 16.4961C87.2053 16.4961 86.6613 16.6961 86.2613 17.0961C85.8613 17.4961 85.6613 18.0561 85.6613 18.7761V26.0001H80.9573V18.7761C80.9573 18.0561 80.7573 17.4961 80.3573 17.0961C79.9733 16.6961 79.4373 16.4961 78.7493 16.4961C78.0453 16.4961 77.4933 16.6961 77.0933 17.0961C76.6933 17.4961 76.4933 18.0561 76.4933 18.7761V26.0001H71.7893V12.5361H76.4933V14.3121C76.9093 13.7361 77.4453 13.2801 78.1013 12.9441C78.7733 12.5921 79.5413 12.4161 80.4053 12.4161C81.3973 12.4161 82.2773 12.6321 83.0453 13.0641C83.8293 13.4961 84.4453 14.1041 84.8933 14.8881C85.3733 14.1521 86.0053 13.5601 86.7893 13.1121C87.5733 12.6481 88.4373 12.4161 89.3813 12.4161ZM102.111 14.4081C102.479 13.7841 102.999 13.2881 103.671 12.9201C104.343 12.5521 105.135 12.3681 106.047 12.3681C107.119 12.3681 108.087 12.6481 108.951 13.2081C109.831 13.7681 110.519 14.5681 111.015 15.6081C111.527 16.6481 111.783 17.8641 111.783 19.2561C111.783 20.6481 111.527 21.8721 111.015 22.9281C110.519 23.9681 109.831 24.7681 108.951 25.3281C108.087 25.8881 107.119 26.1681 106.047 26.1681C105.135 26.1681 104.343 25.9841 103.671 25.6161C103.015 25.2481 102.495 24.7521 102.111 24.1281V32.4321H97.4065V12.5361H102.111V14.4081ZM107.007 19.2561C107.007 18.3761 106.767 17.6961 106.287 17.2161C105.823 16.7201 105.247 16.4721 104.559 16.4721C103.871 16.4721 103.287 16.7201 102.807 17.2161C102.343 17.7121 102.111 18.3921 102.111 19.2561C102.111 20.1361 102.343 20.8241 102.807 21.3201C103.287 21.8161 103.871 22.0641 104.559 22.0641C105.247 22.0641 105.823 21.8161 106.287 21.3201C106.767 20.8081 107.007 20.1201 107.007 19.2561ZM112.951 19.2561C112.951 17.8641 113.199 16.6481 113.695 15.6081C114.207 14.5681 114.895 13.7681 115.759 13.2081C116.639 12.6481 117.615 12.3681 118.687 12.3681C119.615 12.3681 120.415 12.5521 121.087 12.9201C121.759 13.2881 122.279 13.7841 122.647 14.4081V12.5361H127.351V26.0001H122.647V24.1281C122.279 24.7521 121.751 25.2481 121.063 25.6161C120.391 25.9841 119.599 26.1681 118.687 26.1681C117.615 26.1681 116.639 25.8881 115.759 25.3281C114.895 24.7681 114.207 23.9681 113.695 22.9281C113.199 21.8721 112.951 20.6481 112.951 19.2561ZM122.647 19.2561C122.647 18.3921 122.407 17.7121 121.927 17.2161C121.463 16.7201 120.887 16.4721 120.199 16.4721C119.495 16.4721 118.911 16.7201 118.447 17.2161C117.983 17.6961 117.751 18.3761 117.751 19.2561C117.751 20.1201 117.983 20.8081 118.447 21.3201C118.911 21.8161 119.495 22.0641 120.199 22.0641C120.887 22.0641 121.463 21.8161 121.927 21.3201C122.407 20.8241 122.647 20.1361 122.647 19.2561ZM138.84 12.4161C140.392 12.4161 141.624 12.9361 142.536 13.9761C143.448 15.0001 143.904 16.3921 143.904 18.1521V26.0001H139.2V18.7761C139.2 18.0081 139 17.4081 138.6 16.9761C138.2 16.5281 137.664 16.3041 136.992 16.3041C136.288 16.3041 135.736 16.5281 135.336 16.9761C134.936 17.4081 134.736 18.0081 134.736 18.7761V26.0001H130.032V12.5361H134.736V14.4561C135.152 13.8481 135.712 13.3601 136.416 12.9921C137.12 12.6081 137.928 12.4161 138.84 12.4161ZM160.981 12.5361L152.437 32.4081H147.325L150.541 25.4241L145.021 12.5361H150.253L153.085 20.1681L155.821 12.5361H160.981ZM177.389 26.0001L174.101 21.2241L171.293 26.0001H165.941L171.437 17.3361L165.749 9.08006H171.293L174.485 13.7361L177.221 9.08006H182.573L177.149 17.6001L182.933 26.0001H177.389Z" fill="white"/>
<ellipse cx="14.8625" cy="17.7369" rx="14.8625" ry="13.7368" fill="url(#paint0_radial_1_250)"/>
<ellipse cx="23.858" cy="27.2765" rx="5.86678" ry="5.72368" fill="url(#paint1_radial_1_250)"/>
<defs>
<radialGradient id="paint0_radial_1_250" cx="0" cy="0" r="1" gradientUnits="userSpaceOnUse" gradientTransform="translate(-2.84897e-07 8.39585) rotate(57.2179) scale(27.4496 28.4301)">
<stop stop-color="#897FFF"/>
<stop offset="1" stop-color="#5243FF"/>
</radialGradient>
<radialGradient id="paint1_radial_1_250" cx="0" cy="0" r="1" gradientUnits="userSpaceOnUse" gradientTransform="translate(17.9912 21.5528) rotate(62.8649) scale(12.8632 13.0526)">
<stop offset="0.221875" stop-color="#EF0606"/>
<stop offset="1" stop-color="#B00101"/>
</radialGradient>
</defs>
</svg>
