<svg width="19" height="18" viewBox="0 0 19 18" fill="none" xmlns="http://www.w3.org/2000/svg">
<path d="M2.75 9.74989H14.4425L10.4675 13.7174C10.3972 13.7871 10.3414 13.8701 10.3033 13.9615C10.2653 14.0529 10.2457 14.1509 10.2457 14.2499C10.2457 14.3489 10.2653 14.4469 10.3033 14.5383C10.3414 14.6297 10.3972 14.7127 10.4675 14.7824C10.5372 14.8527 10.6202 14.9085 10.7116 14.9466C10.803 14.9846 10.901 15.0042 11 15.0042C11.099 15.0042 11.197 14.9846 11.2884 14.9466C11.3798 14.9085 11.4628 14.8527 11.5325 14.7824L16.7825 9.5324C16.8528 9.46267 16.9086 9.37972 16.9467 9.28833C16.9848 9.19693 17.0044 9.0989 17.0044 8.99989C17.0044 8.90089 16.9848 8.80286 16.9467 8.71146C16.9086 8.62007 16.8528 8.53712 16.7825 8.46739L11.5325 3.21739C11.4626 3.14747 11.3796 3.092 11.2882 3.05415C11.1968 3.01631 11.0989 2.99683 11 2.99683C10.8003 2.99683 10.6087 3.07617 10.4675 3.21739C10.3976 3.28732 10.3421 3.37034 10.3043 3.46171C10.2664 3.55307 10.2469 3.651 10.2469 3.74989C10.2469 3.94962 10.3263 4.14117 10.4675 4.2824L14.4425 8.2499H2.75C2.55109 8.2499 2.36032 8.32891 2.21967 8.46956C2.07902 8.61022 2 8.80098 2 8.99989C2 9.19881 2.07902 9.38957 2.21967 9.53023C2.36032 9.67088 2.55109 9.74989 2.75 9.74989Z" fill="white"/>
</svg>
