<svg width="138" height="28" viewBox="0 0 138 28" fill="none" xmlns="http://www.w3.org/2000/svg">
<path d="M17.7861 6.95142H10.2148V20.0713H17.7861V6.95142Z" fill="#FF5F00"/>
<path d="M10.6953 13.5119C10.6941 12.2483 10.991 11.0011 11.5636 9.86454C12.1362 8.72802 12.9694 7.732 14.0002 6.95189C12.7237 5.98438 11.1907 5.3827 9.57634 5.21562C7.962 5.04854 6.33148 5.32281 4.87115 6.00706C3.41082 6.69132 2.17959 7.75796 1.3182 9.08508C0.456803 10.4122 0 11.9462 0 13.5119C0 15.0775 0.456803 16.6115 1.3182 17.9386C2.17959 19.2657 3.41082 20.3324 4.87115 21.0166C6.33148 21.7009 7.962 21.9752 9.57634 21.8081C11.1907 21.641 12.7237 21.0393 14.0002 20.0718C12.9694 19.2917 12.1362 18.2957 11.5636 17.1592C10.991 16.0226 10.6941 14.7754 10.6953 13.5119V13.5119Z" fill="#EB001B"/>
<path d="M28.0002 13.5118C28.0003 15.0774 27.5435 16.6115 26.6822 17.9386C25.8209 19.2657 24.5897 20.3324 23.1294 21.0166C21.6691 21.7009 20.0386 21.9752 18.4242 21.8081C16.8099 21.641 15.2769 21.0393 14.0005 20.0718C15.0304 19.2909 15.8629 18.2947 16.4354 17.1584C17.0079 16.022 17.3054 14.7752 17.3054 13.5118C17.3054 12.2485 17.0079 11.0017 16.4354 9.86531C15.8629 8.72897 15.0304 7.73278 14.0005 6.95189C15.2769 5.98438 16.8099 5.3827 18.4242 5.21562C20.0386 5.04854 21.6691 5.32281 23.1294 6.00708C24.5897 6.69134 25.8209 7.75799 26.6822 9.0851C27.5435 10.4122 28.0003 11.9462 28.0002 13.5118V13.5118Z" fill="#F79E1B"/>
<path d="M27.1747 18.6819V18.4133H27.287V18.3586H27.001V18.4133H27.1133V18.6819H27.1747ZM27.7301 18.6819V18.358H27.6424L27.5415 18.5808L27.4406 18.358H27.3529V18.6819H27.4148V18.4376L27.5094 18.6482H27.5736L27.6682 18.4371V18.6819H27.7301Z" fill="#F79E1B"/>
<path d="M50.8638 9.62066L48.9931 18.3662H46.7305L48.6013 9.62066H50.8638ZM60.3826 15.2678L61.5734 11.9836L62.2588 15.2678H60.3826ZM62.9079 18.3662H65L63.1722 9.62066H61.2424C60.8075 9.62066 60.4408 9.87283 60.2786 10.2617L56.8837 18.3662H59.2598L59.7315 17.0601H62.6339L62.9079 18.3662ZM57.0015 15.5111C57.0113 13.203 53.8108 13.0751 53.8322 12.0438C53.8391 11.7305 54.1381 11.3967 54.7915 11.3113C55.1155 11.2696 56.0095 11.2358 57.0229 11.7028L57.4193 9.84746C56.875 9.65056 56.1746 9.46094 55.303 9.46094C53.0663 9.46094 51.4928 10.649 51.4802 12.3517C51.4659 13.6108 52.6042 14.3128 53.4601 14.7322C54.3425 15.1608 54.6381 15.4356 54.6338 15.8186C54.6277 16.4053 53.9302 16.6652 53.2807 16.675C52.1425 16.6927 51.4828 16.3674 50.957 16.1223L50.5463 18.0395C51.0758 18.2819 52.0515 18.4927 53.0617 18.5035C55.4397 18.5035 56.9944 17.3294 57.0015 15.5111ZM47.6308 9.62066L43.9648 18.3662H41.5735L39.7694 11.3867C39.66 10.9574 39.5646 10.7997 39.232 10.6183C38.6879 10.3229 37.7898 10.0465 37 9.8746L37.0535 9.62066H40.9034C41.3937 9.62066 41.8349 9.94699 41.9473 10.5119L42.9003 15.5731L45.2538 9.62066H47.6308Z" fill="#1434CB"/>
<path fill-rule="evenodd" clip-rule="evenodd" d="M102 14.5071H100.492C100.036 14.5071 99.7056 14.6121 99.4714 14.7752V14.5071H97.2401C96.8833 14.5071 96.4645 14.5923 96.2664 14.7752V14.5071H92.2819V14.7752C91.9648 14.555 91.4298 14.5071 91.1828 14.5071H88.5546V14.7752C88.3037 14.5414 87.7459 14.5071 87.4058 14.5071H84.4644L83.7913 15.2083L83.1609 14.5071H78.7671V19.0886H83.0782L83.7718 18.3763L84.4251 19.0886L87.0825 19.0908V18.0131H87.3438C87.6964 18.0183 88.1122 18.0047 88.4791 17.852V19.0885H90.671V17.8944H90.7767C90.9117 17.8944 90.9249 17.8997 90.9249 18.0295V19.0884H97.5835C98.0062 19.0884 98.4481 18.9842 98.6928 18.7952V19.0884H100.805C101.244 19.0884 101.674 19.029 102 18.8772C102 -6.18932 102 25.0023 102 14.5071Z" fill="#006FCF"/>
<path fill-rule="evenodd" clip-rule="evenodd" d="M74.3928 13.4376L74.7068 12.7085H75.4098L75.723 13.4376H78.4632V12.8802L78.7078 13.44H80.1303L80.3749 12.8719V13.4376H87.1848L87.1817 12.2408H87.3134C87.4057 12.2439 87.4326 12.2521 87.4326 12.3987V13.4376H90.9547V13.159C91.2388 13.3056 91.6807 13.4376 92.2622 13.4376H93.7439L94.061 12.7085H94.764L95.0742 13.4376H97.9296V12.7451L98.362 13.4376H100.65V8.85938H98.3856V9.40007L98.0685 8.85938H95.7449V9.40007L95.4537 8.85938H92.315C91.7896 8.85938 91.3278 8.92997 90.9547 9.12671V8.85938H88.7888V9.12671C88.5514 8.92393 88.2279 8.85938 87.8682 8.85938H79.9552L79.4242 10.0419L78.879 8.85938H76.3866V9.40007L76.1127 8.85938H73.9871L73 11.0361V13.4376H74.3928Z" fill="#006FCF"/>
<path fill-rule="evenodd" clip-rule="evenodd" d="M87.3797 17.3375C88.0922 17.3375 88.7991 17.1492 88.7991 16.2371C88.7991 15.3278 88.0723 15.1554 87.4255 15.1554H84.8209L83.7841 16.2316L82.7813 15.1554H79.5029V18.4388H82.7316L83.7747 17.3519L84.7783 18.4388H86.3626V17.3375H87.3797ZM86.3626 16.6707H87.416C87.7292 16.6707 87.924 16.5211 87.924 16.2371C87.924 15.95 87.7197 15.8345 87.4255 15.8345H86.3626V16.6707ZM82.3189 17.7546H80.3149V17.1013H82.1044V16.4314H80.3149V15.8344H82.3584L83.25 16.7913L82.3189 17.7546ZM85.5508 18.1402L84.2993 16.8028L85.5508 15.5078V18.1402Z" fill="white"/>
<path fill-rule="evenodd" clip-rule="evenodd" d="M92.285 17.1886C92.2155 17.0929 92.0672 16.9774 91.8857 16.9129C92.1003 16.831 92.4634 16.5635 92.4635 16.0395C92.4635 15.6649 92.3017 15.46 92.0444 15.3103C91.7769 15.1729 91.4764 15.1554 91.0637 15.1554H89.1818V18.4388H90.0009V17.2396H90.872C91.1693 17.2396 91.3509 17.2677 91.47 17.3853C91.6064 17.5228 91.604 17.7735 91.6021 17.9662C91.6019 17.9876 91.6017 18.0083 91.6017 18.028V18.4388H92.4201V17.7879C92.4168 17.4985 92.4001 17.3489 92.285 17.1886ZM91.3935 16.5043C91.2844 16.5666 91.1496 16.572 90.991 16.572H90.0008V15.8345H91.0045C91.1496 15.8345 91.2948 15.8375 91.3935 15.8938C91.4991 15.947 91.5623 16.0487 91.5623 16.1892C91.5623 16.3297 91.4991 16.4429 91.3935 16.5043Z" fill="white"/>
<path d="M98.7485 16.7071C98.9072 16.8652 98.9923 17.0648 98.9923 17.4028C98.9923 18.1091 98.5339 18.4388 97.7118 18.4388H96.1242V17.7347H97.7055C97.8601 17.7347 97.9697 17.715 98.0384 17.6534C98.0945 17.6027 98.1347 17.5289 98.1347 17.4393C98.1347 17.3436 98.0912 17.2677 98.0352 17.2222C97.9729 17.1721 97.8869 17.1493 97.745 17.1493C97.695 17.1476 97.6443 17.1463 97.5931 17.145C96.8618 17.1258 96.0281 17.104 96.0281 16.133C96.0281 15.6568 96.3389 15.1555 97.1934 15.1555H98.8275V15.8543H97.3323C97.1841 15.8543 97.0877 15.8597 97.0057 15.9136C96.9165 15.9668 96.8833 16.0457 96.8833 16.1499C96.8833 16.2737 96.9591 16.358 97.0617 16.3944C97.1477 16.4232 97.24 16.4316 97.3789 16.4316L97.8177 16.443C98.2602 16.4534 98.5639 16.5271 98.7485 16.7071Z" fill="white"/>
<path d="M102 15.8541H100.514C100.366 15.8541 100.268 15.8595 100.185 15.9134C100.099 15.9666 100.065 16.0455 100.065 16.1497C100.065 16.2735 100.138 16.3578 100.244 16.3942C100.33 16.423 100.422 16.4314 100.558 16.4314L101 16.4428C101.445 16.4534 101.743 16.5272 101.924 16.7071C101.952 16.7282 101.971 16.7516 101.989 16.7752L101.995 16.7816L101.998 16.7857L102 16.7884V18.0188C101.802 18.2975 101.416 18.4388 100.894 18.4388H99.3197V17.7347H100.887C101.043 17.7347 101.152 17.715 101.217 17.6535C101.274 17.6027 101.314 17.5289 101.314 17.4393C101.314 17.3436 101.274 17.2677 101.214 17.2222C101.155 17.1721 101.069 17.1493 100.927 17.1493C100.877 17.1477 100.826 17.1463 100.775 17.145C100.041 17.1258 99.2068 17.1041 99.2068 16.133C99.2068 15.6568 99.5209 15.1555 100.376 15.1555H102L102 15.8541Z" fill="white"/>
<path d="M92.9154 15.1554H95.6359V15.8344H93.7272V16.4314H95.5893V17.1013H93.7272V17.7545L95.6359 17.7575V18.4388H92.9154V15.1554Z" fill="white"/>
<path fill-rule="evenodd" clip-rule="evenodd" d="M75.6143 11.3715L75.0564 10.0629L74.5017 11.3715H75.6143ZM87.9046 10.8505C87.7926 10.9159 87.6602 10.9181 87.5014 10.9181H86.5112V10.189H87.5149C87.657 10.189 87.8052 10.1951 87.9015 10.2482C88.0072 10.296 88.0726 10.3978 88.0726 10.5384C88.0726 10.6818 88.0104 10.7973 87.9046 10.8505ZM94.9686 11.3715L94.4046 10.0629L93.8436 11.3715H94.9686ZM81.8009 12.788H80.9653L80.9622 10.2171L79.7803 12.788H79.0646L77.8796 10.2148V12.788H76.2218L75.9086 12.0558H74.2114L73.8951 12.788H73.0098L74.4694 9.50537H75.6804L77.0667 12.6133V9.50537H78.3971L79.4638 11.7322L80.4437 9.50537H81.8008V12.788H81.8009ZM85.1313 12.788H82.4084V9.50537H85.1313V10.1889H83.2235V10.7806H85.0856V11.4535H83.2235V12.1091H85.1313V12.788ZM88.9705 10.3894C88.9705 10.9128 88.6077 11.1832 88.3962 11.2644C88.5745 11.3297 88.7269 11.4452 88.7994 11.5408C88.9145 11.7041 88.9343 11.85 88.9343 12.1431V12.788H88.1122L88.1091 12.374C88.1091 12.1765 88.1288 11.8924 87.9804 11.7345C87.8613 11.6191 87.6798 11.594 87.3863 11.594H86.5113V12.788H85.6963V9.50537H87.5711C87.9876 9.50537 88.2946 9.51597 88.5581 9.6626C88.8159 9.80924 88.9705 10.0233 88.9705 10.3894ZM90.275 12.788H89.4433V9.50537H90.275V12.788ZM99.9237 12.788H98.7687L97.2236 10.3242V12.788H95.5636L95.2464 12.0558H93.5532L93.2455 12.788H92.2917C91.8955 12.788 91.3938 12.7036 91.1098 12.4249C90.8233 12.1462 90.6743 11.7687 90.6743 11.1717C90.6743 10.6849 90.7633 10.2398 91.1137 9.88815C91.3772 9.62616 91.7898 9.50537 92.3515 9.50537H93.1407V10.2087H92.3681C92.0706 10.2087 91.9027 10.2513 91.7409 10.4032C91.6019 10.5414 91.5066 10.8027 91.5066 11.1468C91.5066 11.4985 91.5792 11.752 91.7307 11.9177C91.8562 12.0476 92.0842 12.087 92.2988 12.087H92.6648L93.8136 9.50547H95.035L96.415 12.6104V9.50547H97.6561L99.0889 11.7916V9.50547H99.9237V12.788Z" fill="white"/>
<path fill-rule="evenodd" clip-rule="evenodd" d="M110.507 14.2248C110.507 7.77184 115.738 2.54077 122.191 2.54077C128.643 2.54077 133.875 7.77184 133.875 14.2248C133.875 20.6777 128.643 25.909 122.191 25.909C115.738 25.909 110.507 20.6777 110.507 14.2248Z" fill="#FFFFFE"/>
<path fill-rule="evenodd" clip-rule="evenodd" d="M129.257 13.9947C129.252 11.0026 127.382 8.45078 124.746 7.44018V20.5487C127.382 19.5368 129.252 16.9873 129.257 13.9947ZM119.719 20.5461V7.44157C117.086 8.4553 115.219 11.0035 115.211 13.9948C115.219 16.9853 117.086 19.5332 119.719 20.5461ZM122.234 2.91496C116.115 2.91731 111.158 7.87576 111.157 13.9947C111.158 20.1128 116.115 25.0705 122.234 25.0715C128.353 25.0705 133.311 20.1128 133.313 13.9947C133.311 7.87576 128.353 2.91731 122.234 2.91496ZM122.207 26.1172C115.511 26.149 110 20.7244 110 14.1211C110 6.90436 115.511 1.91276 122.207 1.91406H125.345C131.961 1.91276 138 6.90201 138 14.1211C138 20.7221 131.961 26.1172 125.345 26.1172H122.207Z" fill="#0069AA"/>
</svg>
