<svg width="24" height="18" viewBox="0 0 24 18" fill="none" xmlns="http://www.w3.org/2000/svg">
<path d="M21 5.00095L19 17.0009H5L3 5.00095M21 5.00095L15.5 9.50095L12 4.00095M21 5.00095C21.8284 5.00095 22.5 4.32937 22.5 3.50095C22.5 2.67252 21.8284 2.00095 21 2.00095C20.1716 2.00095 19.5 2.67252 19.5 3.50095C19.5 4.32937 20.1716 5.00095 21 5.00095ZM12 4.00095L8.5 9.50095L3 5.00095M12 4.00095C12.8284 4.00095 13.5 3.32937 13.5 2.50095C13.5 1.67252 12.8284 1.00095 12 1.00095C11.1716 1.00095 10.5 1.67252 10.5 2.50095C10.5 3.32937 11.1716 4.00095 12 4.00095ZM3 5.00095C3.82843 5.00095 4.5 4.32937 4.5 3.50095C4.5 2.67252 3.82843 2.00095 3 2.00095C2.17157 2.00095 1.5 2.67252 1.5 3.50095C1.5 4.32937 2.17157 5.00095 3 5.00095Z" stroke="white" stroke-opacity="0.36" stroke-width="1.5" stroke-linecap="round" stroke-linejoin="round"/>
</svg>
