<svg width="25" height="19" viewBox="0 0 25 19" fill="none" xmlns="http://www.w3.org/2000/svg">
<path d="M21.875 5.33342L19.7917 17.8334H5.20833L3.125 5.33342M21.875 5.33342L16.1458 10.0209L12.5 4.29175M21.875 5.33342C22.7379 5.33342 23.4375 4.63386 23.4375 3.77091C23.4375 2.90797 22.7379 2.20841 21.875 2.20841C21.0121 2.20841 20.3125 2.90797 20.3125 3.77091C20.3125 4.63386 21.0121 5.33342 21.875 5.33342ZM12.5 4.29175L8.85417 10.0209L3.125 5.33342M12.5 4.29175C13.3629 4.29175 14.0625 3.59219 14.0625 2.72925C14.0625 1.8663 13.3629 1.16675 12.5 1.16675C11.6371 1.16675 10.9375 1.8663 10.9375 2.72925C10.9375 3.59219 11.6371 4.29175 12.5 4.29175ZM3.125 5.33342C3.98794 5.33342 4.6875 4.63386 4.6875 3.77091C4.6875 2.90797 3.98794 2.20841 3.125 2.20841C2.26206 2.20841 1.5625 2.90797 1.5625 3.77091C1.5625 4.63386 2.26206 5.33342 3.125 5.33342Z" stroke="#464255" stroke-width="1.5" stroke-linecap="round" stroke-linejoin="round"/>
</svg>
