<svg width="114" height="23" viewBox="0 0 114 23" fill="none" xmlns="http://www.w3.org/2000/svg">
<path d="M12.656 23L4.048 13.048V23H0.4V0.759998H4.048V10.904L12.688 0.759998H17.264L7.6 11.896L17.424 23H12.656ZM34.058 18.456H24.746L23.146 23H19.338L27.306 0.727999H31.53L39.498 23H35.658L34.058 18.456ZM33.034 15.48L29.418 5.144L25.77 15.48H33.034ZM46.6105 0.759998V23H42.9625V0.759998H46.6105ZM62.952 23L57.832 14.104H55.048V23H51.4V0.759998H59.08C60.7867 0.759998 62.2267 1.05866 63.4 1.656C64.5947 2.25333 65.48 3.05333 66.056 4.056C66.6533 5.05867 66.952 6.17867 66.952 7.416C66.952 8.86667 66.5253 10.1893 65.672 11.384C64.84 12.5573 63.5493 13.3573 61.8 13.784L67.304 23H62.952ZM55.048 11.192H59.08C60.4453 11.192 61.4693 10.8507 62.152 10.168C62.856 9.48533 63.208 8.568 63.208 7.416C63.208 6.264 62.8667 5.368 62.184 4.728C61.5013 4.06667 60.4667 3.736 59.08 3.736H55.048V11.192ZM85.0268 18.456H75.7148L74.1148 23H70.3068L78.2748 0.727999H82.4988L90.4668 23H86.6268L85.0268 18.456ZM84.0028 15.48L80.3868 5.144L76.7388 15.48H84.0028ZM113.099 0.759998L104.747 23H100.523L92.1393 0.759998H96.0433L102.635 19.256L109.259 0.759998H113.099Z" fill="#464255"/>
</svg>
