<svg width="28" height="28" viewBox="0 0 28 28" fill="none" xmlns="http://www.w3.org/2000/svg">
<path fill-rule="evenodd" clip-rule="evenodd" d="M0.506836 14.2248C0.506836 7.77184 5.7379 2.54077 12.1906 2.54077C18.6435 2.54077 23.8746 7.77184 23.8746 14.2248C23.8746 20.6777 18.6435 25.909 12.1906 25.909C5.7379 25.909 0.506836 20.6777 0.506836 14.2248Z" fill="#FFFFFE"/>
<path fill-rule="evenodd" clip-rule="evenodd" d="M19.2566 13.9947C19.2519 11.0026 17.3817 8.45078 14.7463 7.44018V20.5487C17.3817 19.5368 19.2519 16.9873 19.2566 13.9947ZM9.71891 20.5461V7.44157C7.08588 8.4553 5.2185 11.0035 5.21145 13.9948C5.2185 16.9853 7.08588 19.5332 9.71891 20.5461ZM12.234 2.91496C6.11503 2.91731 1.15763 7.87576 1.15659 13.9947C1.15763 20.1128 6.11503 25.0705 12.234 25.0715C18.3529 25.0705 23.3113 20.1128 23.3129 13.9947C23.3113 7.87576 18.3529 2.91731 12.234 2.91496ZM12.2068 26.1172C5.511 26.149 0 20.7244 0 14.1211C0 6.90436 5.511 1.91276 12.2068 1.91406H15.3446C21.9612 1.91276 28 6.90201 28 14.1211C28 20.7221 21.9612 26.1172 15.3446 26.1172H12.2068Z" fill="#0069AA"/>
</svg>
