<svg width="28" height="28" viewBox="0 0 28 28" fill="none" xmlns="http://www.w3.org/2000/svg">
<path d="M13.9868 19.217C13.7172 19.2147 13.4591 19.1077 13.267 18.9187L3.08513 8.73688C2.89966 8.54484 2.79704 8.28765 2.79935 8.02069C2.80167 7.75372 2.90876 7.49835 3.09753 7.30957C3.28631 7.12079 3.54169 7.01371 3.80865 7.01139C4.07561 7.00907 4.33281 7.1117 4.52484 7.29717L13.9868 16.7591L23.4488 7.29717C23.5427 7.19992 23.655 7.12235 23.7793 7.06899C23.9035 7.01563 24.0371 6.98754 24.1723 6.98637C24.3075 6.98519 24.4416 7.01095 24.5667 7.06215C24.6918 7.11334 24.8055 7.18895 24.9011 7.28455C24.9967 7.38015 25.0723 7.49383 25.1235 7.61896C25.1747 7.74409 25.2005 7.87816 25.1993 8.01336C25.1981 8.14855 25.17 8.28216 25.1167 8.40638C25.0633 8.5306 24.9857 8.64295 24.8885 8.73688L14.7067 18.9187C14.5145 19.1077 14.2564 19.2147 13.9868 19.217Z" fill="#4A5C77"/>
</svg>
