<svg width="854" height="379" viewBox="0 0 854 379" fill="none" xmlns="http://www.w3.org/2000/svg">
<rect width="854" height="379" rx="20" fill="white"/>
<path d="M0 20C0 8.95431 8.9543 0 20 0H298V54H0V20Z" fill="#90A0B8" fill-opacity="0.08"/>
<path d="M23.8182 31H20.8608V22.2727H23.8778C24.7443 22.2727 25.4886 22.4474 26.1108 22.7969C26.7358 23.1435 27.2159 23.642 27.5511 24.2926C27.8864 24.9432 28.054 25.7216 28.054 26.6278C28.054 27.5369 27.8849 28.3182 27.5469 28.9716C27.2116 29.625 26.7273 30.1264 26.0938 30.4759C25.4631 30.8253 24.7045 31 23.8182 31ZM22.4418 29.6321H23.7415C24.3494 29.6321 24.8565 29.5213 25.2628 29.2997C25.669 29.0753 25.9744 28.7415 26.179 28.2983C26.3835 27.8523 26.4858 27.2955 26.4858 26.6278C26.4858 25.9602 26.3835 25.4062 26.179 24.9659C25.9744 24.5227 25.6719 24.1918 25.2713 23.973C24.8736 23.7514 24.3793 23.6406 23.7884 23.6406H22.4418V29.6321ZM29.7261 31V22.2727H32.9988C33.6693 22.2727 34.2318 22.3977 34.6863 22.6477C35.1437 22.8977 35.4889 23.2415 35.7218 23.679C35.9576 24.1136 36.0755 24.608 36.0755 25.1619C36.0755 25.7216 35.9576 26.2187 35.7218 26.6534C35.4861 27.0881 35.138 27.4304 34.6778 27.6804C34.2176 27.9276 33.6508 28.0511 32.9775 28.0511H30.8085V26.7514H32.7645C33.1565 26.7514 33.4775 26.6832 33.7275 26.5469C33.9775 26.4105 34.1622 26.223 34.2815 25.9844C34.4037 25.7457 34.4647 25.4716 34.4647 25.1619C34.4647 24.8523 34.4037 24.5795 34.2815 24.3438C34.1622 24.108 33.9761 23.9247 33.7233 23.794C33.4733 23.6605 33.1508 23.5938 32.7559 23.5938H31.3071V31H29.7261ZM37.7668 31H36.0793L39.1518 22.2727H41.1035L44.1802 31H42.4927L40.1617 24.0625H40.0936L37.7668 31ZM37.8222 27.5781H42.4245V28.848H37.8222V27.5781Z" fill="#3A3541" fill-opacity="0.87"/>
<path d="M63 29L66 32L69 29M69 25L66 22L63 25" stroke="#524E59" stroke-width="1.5" stroke-linecap="round" stroke-linejoin="round"/>
<rect width="282" height="54" transform="translate(298)" fill="#90A0B8" fill-opacity="0.08"/>
<path d="M382.562 31.5H379.604V22.7727H382.622C383.488 22.7727 384.232 22.9474 384.854 23.2969C385.479 23.6435 385.96 24.142 386.295 24.7926C386.63 25.4432 386.798 26.2216 386.798 27.1278C386.798 28.0369 386.629 28.8182 386.291 29.4716C385.955 30.125 385.471 30.6264 384.837 30.9759C384.207 31.3253 383.448 31.5 382.562 31.5ZM381.185 30.1321H382.485C383.093 30.1321 383.6 30.0213 384.006 29.7997C384.413 29.5753 384.718 29.2415 384.923 28.7983C385.127 28.3523 385.229 27.7955 385.229 27.1278C385.229 26.4602 385.127 25.9062 384.923 25.4659C384.718 25.0227 384.416 24.6918 384.015 24.473C383.617 24.2514 383.123 24.1406 382.532 24.1406H381.185V30.1321ZM389.122 31.5H387.434L390.507 22.7727H392.458L395.535 31.5H393.848L391.517 24.5625H391.448L389.122 31.5ZM389.177 28.0781H393.779V29.348H389.177V28.0781ZM395.416 24.098V22.7727H402.379V24.098H399.682V31.5H398.114V24.098H395.416ZM403.958 31.5H402.27L405.343 22.7727H407.295L410.371 31.5H408.684L406.353 24.5625H406.285L403.958 31.5ZM404.013 28.0781H408.616V29.348H404.013V28.0781ZM411.691 31.5V22.7727H415.032C415.662 22.7727 416.186 22.8722 416.604 23.071C417.025 23.267 417.338 23.5355 417.546 23.8764C417.756 24.2173 417.861 24.6037 417.861 25.0355C417.861 25.3906 417.793 25.6946 417.657 25.9474C417.52 26.1974 417.337 26.4006 417.107 26.5568C416.877 26.7131 416.62 26.8253 416.336 26.8935V26.9787C416.645 26.9957 416.942 27.0909 417.226 27.2642C417.513 27.4347 417.748 27.6761 417.929 27.9886C418.111 28.3011 418.202 28.679 418.202 29.1222C418.202 29.5739 418.093 29.9801 417.874 30.3409C417.655 30.6989 417.326 30.9815 416.885 31.1889C416.445 31.3963 415.891 31.5 415.223 31.5H411.691ZM413.272 30.179H414.972C415.546 30.179 415.959 30.0696 416.212 29.8509C416.468 29.6293 416.596 29.3452 416.596 28.9986C416.596 28.7401 416.532 28.5071 416.404 28.2997C416.276 28.0895 416.094 27.9247 415.858 27.8054C415.623 27.6832 415.341 27.6222 415.015 27.6222H413.272V30.179ZM413.272 26.4844H414.836C415.108 26.4844 415.354 26.4347 415.573 26.3352C415.792 26.233 415.963 26.0895 416.088 25.9048C416.216 25.7173 416.28 25.4957 416.28 25.2401C416.28 24.902 416.161 24.6236 415.922 24.4048C415.686 24.1861 415.336 24.0767 414.87 24.0767H413.272V26.4844ZM420.868 31.5H419.181L422.253 22.7727H424.205L427.282 31.5H425.594L423.263 24.5625H423.195L420.868 31.5ZM420.924 28.0781H425.526V29.348H420.924V28.0781ZM433.203 25.1719C433.164 24.7997 432.996 24.5099 432.7 24.3026C432.408 24.0952 432.027 23.9915 431.558 23.9915C431.229 23.9915 430.946 24.0412 430.71 24.1406C430.475 24.2401 430.294 24.375 430.169 24.5455C430.044 24.7159 429.98 24.9105 429.977 25.1293C429.977 25.3111 430.019 25.4687 430.101 25.6023C430.186 25.7358 430.301 25.8494 430.446 25.9432C430.591 26.0341 430.752 26.1108 430.928 26.1733C431.104 26.2358 431.281 26.2884 431.46 26.331L432.279 26.5355C432.608 26.6122 432.925 26.7159 433.229 26.8466C433.536 26.9773 433.81 27.142 434.051 27.3409C434.296 27.5398 434.489 27.7798 434.631 28.0611C434.773 28.3423 434.844 28.6719 434.844 29.0497C434.844 29.5611 434.713 30.0114 434.452 30.4006C434.191 30.7869 433.813 31.0895 433.318 31.3082C432.827 31.5241 432.232 31.6321 431.533 31.6321C430.854 31.6321 430.264 31.527 429.764 31.3168C429.267 31.1065 428.878 30.7997 428.597 30.3963C428.318 29.9929 428.168 29.5014 428.145 28.9219H429.7C429.723 29.2259 429.817 29.4787 429.982 29.6804C430.146 29.8821 430.361 30.0327 430.625 30.1321C430.892 30.2315 431.191 30.2812 431.52 30.2812C431.864 30.2812 432.165 30.2301 432.423 30.1278C432.685 30.0227 432.889 29.8778 433.037 29.6932C433.185 29.5057 433.26 29.2869 433.263 29.0369C433.26 28.8097 433.193 28.6222 433.063 28.4744C432.932 28.3239 432.749 28.1989 432.513 28.0994C432.28 27.9972 432.007 27.9062 431.695 27.8267L430.702 27.571C429.983 27.3864 429.415 27.1065 428.997 26.7315C428.583 26.3537 428.375 25.8523 428.375 25.2273C428.375 24.7131 428.514 24.2628 428.793 23.8764C429.074 23.4901 429.456 23.1903 429.939 22.9773C430.422 22.7614 430.969 22.6534 431.58 22.6534C432.199 22.6534 432.742 22.7614 433.208 22.9773C433.676 23.1903 434.044 23.4872 434.311 23.8679C434.578 24.2457 434.716 24.6804 434.725 25.1719H433.203ZM436.423 31.5V22.7727H442.1V24.098H438.004V26.4673H441.805V27.7926H438.004V30.1747H442.134V31.5H436.423ZM452.53 22.7727H454.111V28.4744C454.111 29.0994 453.964 29.6491 453.668 30.1236C453.376 30.598 452.964 30.9687 452.432 31.2358C451.901 31.5 451.28 31.6321 450.57 31.6321C449.857 31.6321 449.235 31.5 448.704 31.2358C448.172 30.9687 447.761 30.598 447.468 30.1236C447.175 29.6491 447.029 29.0994 447.029 28.4744V22.7727H448.61V28.3423C448.61 28.706 448.69 29.0298 448.849 29.3139C449.011 29.598 449.238 29.821 449.53 29.983C449.823 30.142 450.17 30.2216 450.57 30.2216C450.971 30.2216 451.317 30.142 451.61 29.983C451.905 29.821 452.133 29.598 452.292 29.3139C452.451 29.0298 452.53 28.706 452.53 28.3423V22.7727ZM460.743 25.1719C460.703 24.7997 460.535 24.5099 460.24 24.3026C459.947 24.0952 459.567 23.9915 459.098 23.9915C458.768 23.9915 458.486 24.0412 458.25 24.1406C458.014 24.2401 457.834 24.375 457.709 24.5455C457.584 24.7159 457.52 24.9105 457.517 25.1293C457.517 25.3111 457.558 25.4687 457.64 25.6023C457.726 25.7358 457.841 25.8494 457.986 25.9432C458.13 26.0341 458.291 26.1108 458.467 26.1733C458.643 26.2358 458.821 26.2884 459 26.331L459.818 26.5355C460.147 26.6122 460.464 26.7159 460.768 26.8466C461.075 26.9773 461.349 27.142 461.591 27.3409C461.835 27.5398 462.028 27.7798 462.17 28.0611C462.312 28.3423 462.383 28.6719 462.383 29.0497C462.383 29.5611 462.253 30.0114 461.991 30.4006C461.73 30.7869 461.352 31.0895 460.858 31.3082C460.366 31.5241 459.771 31.6321 459.072 31.6321C458.393 31.6321 457.804 31.527 457.304 31.3168C456.807 31.1065 456.417 30.7997 456.136 30.3963C455.858 29.9929 455.707 29.5014 455.684 28.9219H457.24C457.263 29.2259 457.356 29.4787 457.521 29.6804C457.686 29.8821 457.9 30.0327 458.165 30.1321C458.432 30.2315 458.73 30.2812 459.059 30.2812C459.403 30.2812 459.704 30.2301 459.963 30.1278C460.224 30.0227 460.429 29.8778 460.576 29.6932C460.724 29.5057 460.799 29.2869 460.802 29.0369C460.799 28.8097 460.733 28.6222 460.602 28.4744C460.471 28.3239 460.288 28.1989 460.052 28.0994C459.819 27.9972 459.547 27.9062 459.234 27.8267L458.241 27.571C457.522 27.3864 456.954 27.1065 456.537 26.7315C456.122 26.3537 455.915 25.8523 455.915 25.2273C455.915 24.7131 456.054 24.2628 456.332 23.8764C456.613 23.4901 456.996 23.1903 457.478 22.9773C457.961 22.7614 458.508 22.6534 459.119 22.6534C459.738 22.6534 460.281 22.7614 460.747 22.9773C461.216 23.1903 461.584 23.4872 461.851 23.8679C462.118 24.2457 462.255 24.6804 462.264 25.1719H460.743ZM463.963 31.5V22.7727H469.639V24.098H465.544V26.4673H469.345V27.7926H465.544V30.1747H469.673V31.5H463.963ZM474.379 31.5H471.422V22.7727H474.439C475.305 22.7727 476.05 22.9474 476.672 23.2969C477.297 23.6435 477.777 24.142 478.112 24.7926C478.447 25.4432 478.615 26.2216 478.615 27.1278C478.615 28.0369 478.446 28.8182 478.108 29.4716C477.773 30.125 477.288 30.6264 476.655 30.9759C476.024 31.3253 475.266 31.5 474.379 31.5ZM473.003 30.1321H474.302C474.91 30.1321 475.418 30.0213 475.824 29.7997C476.23 29.5753 476.535 29.2415 476.74 28.7983C476.945 28.3523 477.047 27.7955 477.047 27.1278C477.047 26.4602 476.945 25.9062 476.74 25.4659C476.535 25.0227 476.233 24.6918 475.832 24.473C475.435 24.2514 474.94 24.1406 474.349 24.1406H473.003V30.1321Z" fill="#3A3541" fill-opacity="0.87"/>
<path d="M492.5 29L495.5 32L498.5 29M498.5 25L495.5 22L492.5 25" stroke="#524E59" stroke-width="1.5" stroke-linecap="round" stroke-linejoin="round"/>
<rect width="120" height="54" transform="translate(580)" fill="#90A0B8" fill-opacity="0.08"/>
<path d="M611.862 22.2727H613.443V27.9744C613.443 28.5994 613.295 29.1491 613 29.6236C612.707 30.098 612.295 30.4687 611.764 30.7358C611.233 31 610.612 31.1321 609.902 31.1321C609.189 31.1321 608.567 31 608.036 30.7358C607.504 30.4687 607.092 30.098 606.8 29.6236C606.507 29.1491 606.361 28.5994 606.361 27.9744V22.2727H607.942V27.8423C607.942 28.206 608.021 28.5298 608.18 28.8139C608.342 29.098 608.57 29.321 608.862 29.483C609.155 29.642 609.501 29.7216 609.902 29.7216C610.303 29.7216 610.649 29.642 610.942 29.483C611.237 29.321 611.464 29.098 611.624 28.8139C611.783 28.5298 611.862 28.206 611.862 27.8423V22.2727ZM620.074 24.6719C620.035 24.2997 619.867 24.0099 619.572 23.8026C619.279 23.5952 618.898 23.4915 618.43 23.4915C618.1 23.4915 617.817 23.5412 617.582 23.6406C617.346 23.7401 617.165 23.875 617.04 24.0455C616.915 24.2159 616.851 24.4105 616.849 24.6293C616.849 24.8111 616.89 24.9687 616.972 25.1023C617.057 25.2358 617.172 25.3494 617.317 25.4432C617.462 25.5341 617.623 25.6108 617.799 25.6733C617.975 25.7358 618.153 25.7884 618.332 25.831L619.15 26.0355C619.479 26.1122 619.796 26.2159 620.1 26.3466C620.407 26.4773 620.681 26.642 620.922 26.8409C621.167 27.0398 621.36 27.2798 621.502 27.5611C621.644 27.8423 621.715 28.1719 621.715 28.5497C621.715 29.0611 621.584 29.5114 621.323 29.9006C621.062 30.2869 620.684 30.5895 620.19 30.8082C619.698 31.0241 619.103 31.1321 618.404 31.1321C617.725 31.1321 617.136 31.027 616.636 30.8168C616.138 30.6065 615.749 30.2997 615.468 29.8963C615.19 29.4929 615.039 29.0014 615.016 28.4219H616.572C616.594 28.7259 616.688 28.9787 616.853 29.1804C617.018 29.3821 617.232 29.5327 617.496 29.6321C617.763 29.7315 618.062 29.7812 618.391 29.7812C618.735 29.7812 619.036 29.7301 619.295 29.6278C619.556 29.5227 619.761 29.3778 619.908 29.1932C620.056 29.0057 620.131 28.7869 620.134 28.5369C620.131 28.3097 620.065 28.1222 619.934 27.9744C619.803 27.8239 619.62 27.6989 619.384 27.5994C619.151 27.4972 618.878 27.4062 618.566 27.3267L617.573 27.071C616.854 26.8864 616.286 26.6065 615.869 26.2315C615.454 25.8537 615.246 25.3523 615.246 24.7273C615.246 24.2131 615.386 23.7628 615.664 23.3764C615.945 22.9901 616.327 22.6903 616.81 22.4773C617.293 22.2614 617.84 22.1534 618.451 22.1534C619.07 22.1534 619.613 22.2614 620.079 22.4773C620.547 22.6903 620.915 22.9872 621.182 23.3679C621.449 23.7457 621.587 24.1804 621.596 24.6719H620.074ZM623.295 31V22.2727H628.971V23.598H624.876V25.9673H628.677V27.2926H624.876V29.6747H629.005V31H623.295ZM630.754 31V22.2727H634.026C634.697 22.2727 635.259 22.3892 635.714 22.6222C636.171 22.8551 636.516 23.1818 636.749 23.6023C636.985 24.0199 637.103 24.5071 637.103 25.0639C637.103 25.6236 636.984 26.1094 636.745 26.5213C636.509 26.9304 636.161 27.2472 635.701 27.4716C635.241 27.6932 634.675 27.804 634.005 27.804H631.674V26.4915H633.792C634.184 26.4915 634.505 26.4375 634.755 26.3295C635.005 26.2187 635.19 26.0582 635.309 25.848C635.431 25.6349 635.492 25.3736 635.492 25.0639C635.492 24.7543 635.431 24.4901 635.309 24.2713C635.187 24.0497 635.001 23.8821 634.751 23.7685C634.501 23.652 634.178 23.5938 633.783 23.5938H632.335V31H630.754ZM635.262 27.0455L637.423 31H635.658L633.536 27.0455H635.262ZM643.471 24.6719C643.431 24.2997 643.264 24.0099 642.968 23.8026C642.676 23.5952 642.295 23.4915 641.826 23.4915C641.497 23.4915 641.214 23.5412 640.978 23.6406C640.743 23.7401 640.562 23.875 640.437 24.0455C640.312 24.2159 640.248 24.4105 640.245 24.6293C640.245 24.8111 640.287 24.9687 640.369 25.1023C640.454 25.2358 640.569 25.3494 640.714 25.4432C640.859 25.5341 641.019 25.6108 641.196 25.6733C641.372 25.7358 641.549 25.7884 641.728 25.831L642.546 26.0355C642.876 26.1122 643.193 26.2159 643.497 26.3466C643.804 26.4773 644.078 26.642 644.319 26.8409C644.564 27.0398 644.757 27.2798 644.899 27.5611C645.041 27.8423 645.112 28.1719 645.112 28.5497C645.112 29.0611 644.981 29.5114 644.72 29.9006C644.458 30.2869 644.081 30.5895 643.586 30.8082C643.095 31.0241 642.5 31.1321 641.801 31.1321C641.122 31.1321 640.532 31.027 640.032 30.8168C639.535 30.6065 639.146 30.2997 638.865 29.8963C638.586 29.4929 638.436 29.0014 638.413 28.4219H639.968C639.991 28.7259 640.085 28.9787 640.25 29.1804C640.414 29.3821 640.629 29.5327 640.893 29.6321C641.16 29.7315 641.458 29.7812 641.788 29.7812C642.132 29.7812 642.433 29.7301 642.691 29.6278C642.953 29.5227 643.157 29.3778 643.305 29.1932C643.453 29.0057 643.528 28.7869 643.531 28.5369C643.528 28.3097 643.461 28.1222 643.331 27.9744C643.2 27.8239 643.017 27.6989 642.781 27.5994C642.548 27.4972 642.275 27.4062 641.963 27.3267L640.97 27.071C640.251 26.8864 639.683 26.6065 639.265 26.2315C638.85 25.8537 638.643 25.3523 638.643 24.7273C638.643 24.2131 638.782 23.7628 639.061 23.3764C639.342 22.9901 639.724 22.6903 640.207 22.4773C640.69 22.2614 641.237 22.1534 641.848 22.1534C642.467 22.1534 643.01 22.2614 643.475 22.4773C643.944 22.6903 644.312 22.9872 644.579 23.3679C644.846 23.7457 644.984 24.1804 644.993 24.6719H643.471Z" fill="#3A3541" fill-opacity="0.87"/>
<path d="M659.5 29L662.5 32L665.5 29M665.5 25L662.5 22L659.5 25" stroke="#524E59" stroke-width="1.5" stroke-linecap="round" stroke-linejoin="round"/>
<path d="M700 0H833C844.046 0 853 8.9543 853 20V54H700V0Z" fill="#90A0B8" fill-opacity="0.08"/>
<path d="M764.982 31H763.294L766.366 22.2727H768.318L771.395 31H769.707L767.376 24.0625H767.308L764.982 31ZM765.037 27.5781H769.639V28.848H765.037V27.5781ZM779.774 25.2173H778.181C778.135 24.956 778.051 24.7244 777.929 24.5227C777.807 24.3182 777.655 24.1449 777.473 24.0028C777.291 23.8608 777.084 23.7543 776.851 23.6832C776.621 23.6094 776.372 23.5724 776.105 23.5724C775.631 23.5724 775.21 23.6918 774.844 23.9304C774.478 24.1662 774.191 24.5128 773.983 24.9702C773.776 25.4247 773.672 25.9801 773.672 26.6364C773.672 27.304 773.776 27.8665 773.983 28.3239C774.193 28.7784 774.48 29.1222 774.844 29.3551C775.21 29.5852 775.63 29.7003 776.101 29.7003C776.362 29.7003 776.607 29.6662 776.834 29.598C777.064 29.527 777.27 29.4233 777.452 29.2869C777.637 29.1506 777.791 28.983 777.916 28.7841C778.044 28.5852 778.132 28.358 778.181 28.1023L779.774 28.1108C779.715 28.5256 779.585 28.9148 779.387 29.2784C779.191 29.642 778.933 29.9631 778.615 30.2415C778.297 30.517 777.925 30.733 777.499 30.8892C777.073 31.0426 776.6 31.1193 776.08 31.1193C775.313 31.1193 774.628 30.9418 774.026 30.5866C773.424 30.2315 772.949 29.7188 772.603 29.0483C772.256 28.3778 772.083 27.5739 772.083 26.6364C772.083 25.696 772.257 24.892 772.607 24.2244C772.956 23.554 773.432 23.0412 774.034 22.6861C774.637 22.331 775.318 22.1534 776.08 22.1534C776.566 22.1534 777.017 22.2216 777.435 22.358C777.853 22.4943 778.225 22.6946 778.551 22.9588C778.878 23.2202 779.147 23.5412 779.357 23.9219C779.57 24.2997 779.709 24.7315 779.774 25.2173ZM781.009 23.598V22.2727H787.972V23.598H785.274V31H783.706V23.598H781.009ZM791.065 22.2727V31H789.484V22.2727H791.065ZM800.745 26.6364C800.745 27.5767 800.569 28.3821 800.217 29.0526C799.868 29.7202 799.39 30.2315 798.785 30.5866C798.183 30.9418 797.5 31.1193 796.735 31.1193C795.971 31.1193 795.287 30.9418 794.681 30.5866C794.079 30.2287 793.602 29.7159 793.25 29.0483C792.9 28.3778 792.725 27.5739 792.725 26.6364C792.725 25.696 792.9 24.892 793.25 24.2244C793.602 23.554 794.079 23.0412 794.681 22.6861C795.287 22.331 795.971 22.1534 796.735 22.1534C797.5 22.1534 798.183 22.331 798.785 22.6861C799.39 23.0412 799.868 23.554 800.217 24.2244C800.569 24.892 800.745 25.696 800.745 26.6364ZM799.156 26.6364C799.156 25.9744 799.052 25.4162 798.845 24.9616C798.64 24.5043 798.356 24.1591 797.993 23.9261C797.629 23.6903 797.21 23.5724 796.735 23.5724C796.261 23.5724 795.842 23.6903 795.478 23.9261C795.115 24.1591 794.829 24.5043 794.622 24.9616C794.417 25.4162 794.315 25.9744 794.315 26.6364C794.315 27.2983 794.417 27.858 794.622 28.3153C794.829 28.7699 795.115 29.1151 795.478 29.3509C795.842 29.5838 796.261 29.7003 796.735 29.7003C797.21 29.7003 797.629 29.5838 797.993 29.3509C798.356 29.1151 798.64 28.7699 798.845 28.3153C799.052 27.858 799.156 27.2983 799.156 26.6364ZM809.582 22.2727V31H808.176L804.063 25.0554H803.991V31H802.41V22.2727H803.825L807.933 28.2216H808.009V22.2727H809.582Z" fill="#3A3541" fill-opacity="0.87"/>
<rect x="21" y="70" width="34" height="34" rx="17" fill="#E7EBB8"/>
<path d="M82.248 81.348L79.016 92.5H77.384L74.792 83.524L72.104 92.5L70.488 92.516L67.368 81.348H68.92L71.352 90.804L74.04 81.348H75.672L78.232 90.772L80.68 81.348H82.248ZM87.7654 92.644C86.944 92.644 86.1974 92.4573 85.5254 92.084C84.864 91.7107 84.3414 91.1827 83.9574 90.5C83.584 89.8067 83.3974 89.0067 83.3974 88.1C83.3974 87.204 83.5894 86.4147 83.9734 85.732C84.368 85.0387 84.9014 84.5107 85.5734 84.148C86.2454 83.7747 86.9974 83.588 87.8294 83.588C88.6614 83.588 89.4134 83.7747 90.0854 84.148C90.7574 84.5107 91.2854 85.0333 91.6694 85.716C92.064 86.3987 92.2614 87.1933 92.2614 88.1C92.2614 89.0067 92.0587 89.8067 91.6534 90.5C91.2587 91.1827 90.72 91.7107 90.0374 92.084C89.3547 92.4573 88.5974 92.644 87.7654 92.644ZM87.7654 91.364C88.288 91.364 88.7787 91.2413 89.2374 90.996C89.696 90.7507 90.064 90.3827 90.3414 89.892C90.6294 89.4013 90.7734 88.804 90.7734 88.1C90.7734 87.396 90.6347 86.7987 90.3574 86.308C90.08 85.8173 89.7174 85.4547 89.2694 85.22C88.8214 84.9747 88.336 84.852 87.8134 84.852C87.28 84.852 86.7894 84.9747 86.3414 85.22C85.904 85.4547 85.552 85.8173 85.2854 86.308C85.0187 86.7987 84.8854 87.396 84.8854 88.1C84.8854 88.8147 85.0134 89.4173 85.2694 89.908C85.536 90.3987 85.888 90.7667 86.3254 91.012C86.7627 91.2467 87.2427 91.364 87.7654 91.364ZM95.7318 85.156C95.9878 84.6547 96.3504 84.2653 96.8198 83.988C97.2998 83.7107 97.8811 83.572 98.5638 83.572V85.076H98.1798C96.5478 85.076 95.7318 85.9613 95.7318 87.732V92.5H94.2758V83.732H95.7318V85.156ZM105.24 92.5L101.8 88.628V92.5H100.344V80.66H101.8V87.62L105.176 83.732H107.208L103.08 88.1L107.224 92.5H105.24ZM110.135 85.348C110.423 84.8467 110.85 84.4307 111.415 84.1C111.991 83.7587 112.658 83.588 113.415 83.588C114.194 83.588 114.898 83.7747 115.527 84.148C116.167 84.5213 116.668 85.0493 117.031 85.732C117.394 86.404 117.575 87.188 117.575 88.084C117.575 88.9693 117.394 89.7587 117.031 90.452C116.668 91.1453 116.167 91.684 115.527 92.068C114.898 92.452 114.194 92.644 113.415 92.644C112.668 92.644 112.007 92.4787 111.431 92.148C110.866 91.8067 110.434 91.3853 110.135 90.884V96.66H108.679V83.732H110.135V85.348ZM116.087 88.084C116.087 87.4227 115.954 86.8467 115.687 86.356C115.42 85.8653 115.058 85.492 114.599 85.236C114.151 84.98 113.655 84.852 113.111 84.852C112.578 84.852 112.082 84.9853 111.623 85.252C111.175 85.508 110.812 85.8867 110.535 86.388C110.268 86.8787 110.135 87.4493 110.135 88.1C110.135 88.7613 110.268 89.3427 110.535 89.844C110.812 90.3347 111.175 90.7133 111.623 90.98C112.082 91.236 112.578 91.364 113.111 91.364C113.655 91.364 114.151 91.236 114.599 90.98C115.058 90.7133 115.42 90.3347 115.687 89.844C115.954 89.3427 116.087 88.756 116.087 88.084ZM121.047 80.66V92.5H119.591V80.66H121.047ZM123.085 88.084C123.085 87.188 123.266 86.404 123.629 85.732C123.992 85.0493 124.488 84.5213 125.117 84.148C125.757 83.7747 126.466 83.588 127.245 83.588C128.013 83.588 128.68 83.7533 129.245 84.084C129.81 84.4147 130.232 84.8307 130.509 85.332V83.732H131.981V92.5H130.509V90.868C130.221 91.38 129.789 91.8067 129.213 92.148C128.648 92.4787 127.986 92.644 127.229 92.644C126.45 92.644 125.746 92.452 125.117 92.068C124.488 91.684 123.992 91.1453 123.629 90.452C123.266 89.7587 123.085 88.9693 123.085 88.084ZM130.509 88.1C130.509 87.4387 130.376 86.8627 130.109 86.372C129.842 85.8813 129.48 85.508 129.021 85.252C128.573 84.9853 128.077 84.852 127.533 84.852C126.989 84.852 126.493 84.98 126.045 85.236C125.597 85.492 125.24 85.8653 124.973 86.356C124.706 86.8467 124.573 87.4227 124.573 88.084C124.573 88.756 124.706 89.3427 124.973 89.844C125.24 90.3347 125.597 90.7133 126.045 90.98C126.493 91.236 126.989 91.364 127.533 91.364C128.077 91.364 128.573 91.236 129.021 90.98C129.48 90.7133 129.842 90.3347 130.109 89.844C130.376 89.3427 130.509 88.7613 130.509 88.1ZM133.997 88.1C133.997 87.1933 134.179 86.404 134.541 85.732C134.904 85.0493 135.405 84.5213 136.045 84.148C136.696 83.7747 137.437 83.588 138.269 83.588C139.347 83.588 140.232 83.8493 140.925 84.372C141.629 84.8947 142.093 85.62 142.317 86.548H140.749C140.6 86.0147 140.307 85.5933 139.869 85.284C139.443 84.9747 138.909 84.82 138.269 84.82C137.437 84.82 136.765 85.108 136.253 85.684C135.741 86.2493 135.485 87.0547 135.485 88.1C135.485 89.156 135.741 89.972 136.253 90.548C136.765 91.124 137.437 91.412 138.269 91.412C138.909 91.412 139.443 91.2627 139.869 90.964C140.296 90.6653 140.589 90.2387 140.749 89.684H142.317C142.083 90.58 141.613 91.3 140.909 91.844C140.205 92.3773 139.325 92.644 138.269 92.644C137.437 92.644 136.696 92.4573 136.045 92.084C135.405 91.7107 134.904 91.1827 134.541 90.5C134.179 89.8173 133.997 89.0173 133.997 88.1ZM152.36 87.78C152.36 88.0573 152.344 88.3507 152.312 88.66H145.304C145.357 89.524 145.651 90.2013 146.184 90.692C146.728 91.172 147.384 91.412 148.152 91.412C148.781 91.412 149.304 91.268 149.72 90.98C150.147 90.6813 150.445 90.2867 150.616 89.796H152.184C151.949 90.6387 151.48 91.3267 150.776 91.86C150.072 92.3827 149.197 92.644 148.152 92.644C147.32 92.644 146.573 92.4573 145.912 92.084C145.261 91.7107 144.749 91.1827 144.376 90.5C144.003 89.8067 143.816 89.0067 143.816 88.1C143.816 87.1933 143.997 86.3987 144.36 85.716C144.723 85.0333 145.229 84.5107 145.88 84.148C146.541 83.7747 147.299 83.588 148.152 83.588C148.984 83.588 149.72 83.7693 150.36 84.132C151 84.4947 151.491 84.996 151.832 85.636C152.184 86.2653 152.36 86.98 152.36 87.78ZM150.856 87.476C150.856 86.9213 150.733 86.4467 150.488 86.052C150.243 85.6467 149.907 85.3427 149.48 85.14C149.064 84.9267 148.6 84.82 148.088 84.82C147.352 84.82 146.723 85.0547 146.2 85.524C145.688 85.9933 145.395 86.644 145.32 87.476H150.856ZM164.62 92.5L161.964 87.94H160.204V92.5H158.748V81.348H162.348C163.19 81.348 163.9 81.492 164.476 81.78C165.062 82.068 165.5 82.4573 165.788 82.948C166.076 83.4387 166.22 83.9987 166.22 84.628C166.22 85.396 165.996 86.0733 165.548 86.66C165.11 87.2467 164.449 87.636 163.564 87.828L166.364 92.5H164.62ZM160.204 86.772H162.348C163.137 86.772 163.729 86.58 164.124 86.196C164.518 85.8013 164.716 85.2787 164.716 84.628C164.716 83.9667 164.518 83.4547 164.124 83.092C163.74 82.7293 163.148 82.548 162.348 82.548H160.204V86.772ZM176.582 87.78C176.582 88.0573 176.566 88.3507 176.534 88.66H169.526C169.579 89.524 169.873 90.2013 170.406 90.692C170.95 91.172 171.606 91.412 172.374 91.412C173.003 91.412 173.526 91.268 173.942 90.98C174.369 90.6813 174.667 90.2867 174.838 89.796H176.406C176.171 90.6387 175.702 91.3267 174.998 91.86C174.294 92.3827 173.419 92.644 172.374 92.644C171.542 92.644 170.795 92.4573 170.134 92.084C169.483 91.7107 168.971 91.1827 168.598 90.5C168.225 89.8067 168.038 89.0067 168.038 88.1C168.038 87.1933 168.219 86.3987 168.582 85.716C168.945 85.0333 169.451 84.5107 170.102 84.148C170.763 83.7747 171.521 83.588 172.374 83.588C173.206 83.588 173.942 83.7693 174.582 84.132C175.222 84.4947 175.713 84.996 176.054 85.636C176.406 86.2653 176.582 86.98 176.582 87.78ZM175.078 87.476C175.078 86.9213 174.955 86.4467 174.71 86.052C174.465 85.6467 174.129 85.3427 173.702 85.14C173.286 84.9267 172.822 84.82 172.31 84.82C171.574 84.82 170.945 85.0547 170.422 85.524C169.91 85.9933 169.617 86.644 169.542 87.476H175.078ZM180.06 80.66V92.5H178.604V80.66H180.06ZM182.097 88.084C182.097 87.188 182.279 86.404 182.641 85.732C183.004 85.0493 183.5 84.5213 184.129 84.148C184.769 83.7747 185.479 83.588 186.257 83.588C187.025 83.588 187.692 83.7533 188.257 84.084C188.823 84.4147 189.244 84.8307 189.521 85.332V83.732H190.993V92.5H189.521V90.868C189.233 91.38 188.801 91.8067 188.225 92.148C187.66 92.4787 186.999 92.644 186.241 92.644C185.463 92.644 184.759 92.452 184.129 92.068C183.5 91.684 183.004 91.1453 182.641 90.452C182.279 89.7587 182.097 88.9693 182.097 88.084ZM189.521 88.1C189.521 87.4387 189.388 86.8627 189.121 86.372C188.855 85.8813 188.492 85.508 188.033 85.252C187.585 84.9853 187.089 84.852 186.545 84.852C186.001 84.852 185.505 84.98 185.057 85.236C184.609 85.492 184.252 85.8653 183.985 86.356C183.719 86.8467 183.585 87.4227 183.585 88.084C183.585 88.756 183.719 89.3427 183.985 89.844C184.252 90.3347 184.609 90.7133 185.057 90.98C185.505 91.236 186.001 91.364 186.545 91.364C187.089 91.364 187.585 91.236 188.033 90.98C188.492 90.7133 188.855 90.3347 189.121 89.844C189.388 89.3427 189.521 88.7613 189.521 88.1ZM195.33 84.932V90.1C195.33 90.5267 195.421 90.8307 195.602 91.012C195.783 91.1827 196.098 91.268 196.546 91.268H197.618V92.5H196.306C195.495 92.5 194.887 92.3133 194.482 91.94C194.077 91.5667 193.874 90.9533 193.874 90.1V84.932H192.738V83.732H193.874V81.524H195.33V83.732H197.618V84.932H195.33ZM200.234 82.308C199.957 82.308 199.722 82.212 199.53 82.02C199.338 81.828 199.242 81.5933 199.242 81.316C199.242 81.0387 199.338 80.804 199.53 80.612C199.722 80.42 199.957 80.324 200.234 80.324C200.501 80.324 200.725 80.42 200.906 80.612C201.098 80.804 201.194 81.0387 201.194 81.316C201.194 81.5933 201.098 81.828 200.906 82.02C200.725 82.212 200.501 82.308 200.234 82.308ZM200.938 83.732V92.5H199.482V83.732H200.938ZM207.344 92.644C206.522 92.644 205.776 92.4573 205.104 92.084C204.442 91.7107 203.92 91.1827 203.536 90.5C203.162 89.8067 202.976 89.0067 202.976 88.1C202.976 87.204 203.168 86.4147 203.552 85.732C203.946 85.0387 204.48 84.5107 205.152 84.148C205.824 83.7747 206.576 83.588 207.408 83.588C208.24 83.588 208.992 83.7747 209.664 84.148C210.336 84.5107 210.864 85.0333 211.248 85.716C211.642 86.3987 211.84 87.1933 211.84 88.1C211.84 89.0067 211.637 89.8067 211.232 90.5C210.837 91.1827 210.298 91.7107 209.616 92.084C208.933 92.4573 208.176 92.644 207.344 92.644ZM207.344 91.364C207.866 91.364 208.357 91.2413 208.816 90.996C209.274 90.7507 209.642 90.3827 209.92 89.892C210.208 89.4013 210.352 88.804 210.352 88.1C210.352 87.396 210.213 86.7987 209.936 86.308C209.658 85.8173 209.296 85.4547 208.848 85.22C208.4 84.9747 207.914 84.852 207.392 84.852C206.858 84.852 206.368 84.9747 205.92 85.22C205.482 85.4547 205.13 85.8173 204.864 86.308C204.597 86.7987 204.464 87.396 204.464 88.1C204.464 88.8147 204.592 89.4173 204.848 89.908C205.114 90.3987 205.466 90.7667 205.904 91.012C206.341 91.2467 206.821 91.364 207.344 91.364ZM218.126 83.572C219.193 83.572 220.057 83.8973 220.718 84.548C221.379 85.188 221.71 86.116 221.71 87.332V92.5H220.27V87.54C220.27 86.6653 220.051 85.9987 219.614 85.54C219.177 85.0707 218.579 84.836 217.822 84.836C217.054 84.836 216.441 85.076 215.982 85.556C215.534 86.036 215.31 86.7347 215.31 87.652V92.5H213.854V83.732H215.31V84.98C215.598 84.532 215.987 84.1853 216.478 83.94C216.979 83.6947 217.529 83.572 218.126 83.572ZM227.292 92.644C226.62 92.644 226.018 92.532 225.484 92.308C224.951 92.0733 224.53 91.7533 224.22 91.348C223.911 90.932 223.74 90.4573 223.708 89.924H225.212C225.255 90.3613 225.458 90.7187 225.82 90.996C226.194 91.2733 226.679 91.412 227.276 91.412C227.831 91.412 228.268 91.2893 228.588 91.044C228.908 90.7987 229.068 90.4893 229.068 90.116C229.068 89.732 228.898 89.4493 228.556 89.268C228.215 89.076 227.687 88.8893 226.972 88.708C226.322 88.5373 225.788 88.3667 225.372 88.196C224.967 88.0147 224.615 87.7533 224.316 87.412C224.028 87.06 223.884 86.6013 223.884 86.036C223.884 85.588 224.018 85.1773 224.284 84.804C224.551 84.4307 224.93 84.1373 225.42 83.924C225.911 83.7 226.471 83.588 227.1 83.588C228.071 83.588 228.855 83.8333 229.452 84.324C230.05 84.8147 230.37 85.4867 230.412 86.34H228.956C228.924 85.8813 228.738 85.5133 228.396 85.236C228.066 84.9587 227.618 84.82 227.052 84.82C226.53 84.82 226.114 84.932 225.804 85.156C225.495 85.38 225.34 85.6733 225.34 86.036C225.34 86.324 225.431 86.564 225.612 86.756C225.804 86.9373 226.039 87.0867 226.316 87.204C226.604 87.3107 226.999 87.4333 227.5 87.572C228.13 87.7427 228.642 87.9133 229.036 88.084C229.431 88.244 229.767 88.4893 230.044 88.82C230.332 89.1507 230.482 89.5827 230.492 90.116C230.492 90.596 230.359 91.028 230.092 91.412C229.826 91.796 229.447 92.1 228.956 92.324C228.476 92.5373 227.922 92.644 227.292 92.644Z" fill="#3A3541" fill-opacity="0.87"/>
<rect x="367.244" y="84.5" width="98.2556" height="5" fill="#E0E0E8" stroke="#F5F6FA"/>
<rect x="366" y="84" width="54" height="6" fill="#F04343"/>
<path d="M486.84 84.426C486.905 83.5673 487.237 82.8953 487.834 82.41C488.431 81.9247 489.206 81.682 490.158 81.682C490.793 81.682 491.339 81.7987 491.796 82.032C492.263 82.256 492.613 82.564 492.846 82.956C493.089 83.348 493.21 83.7913 493.21 84.286C493.21 84.8647 493.042 85.364 492.706 85.784C492.379 86.204 491.95 86.4747 491.418 86.596V86.666C492.025 86.8153 492.505 87.1093 492.86 87.548C493.215 87.9867 493.392 88.5607 493.392 89.27C493.392 89.802 493.271 90.2827 493.028 90.712C492.785 91.132 492.421 91.4633 491.936 91.706C491.451 91.9487 490.867 92.07 490.186 92.07C489.197 92.07 488.385 91.8133 487.75 91.3C487.115 90.7773 486.761 90.04 486.686 89.088H487.918C487.983 89.648 488.212 90.1053 488.604 90.46C488.996 90.8147 489.519 90.992 490.172 90.992C490.825 90.992 491.32 90.824 491.656 90.488C492.001 90.1427 492.174 89.6993 492.174 89.158C492.174 88.458 491.941 87.954 491.474 87.646C491.007 87.338 490.303 87.184 489.36 87.184H489.038V86.12H489.374C490.233 86.1107 490.881 85.9707 491.32 85.7C491.759 85.42 491.978 84.9907 491.978 84.412C491.978 83.9173 491.815 83.5207 491.488 83.222C491.171 82.9233 490.713 82.774 490.116 82.774C489.537 82.774 489.071 82.9233 488.716 83.222C488.361 83.5207 488.151 83.922 488.086 84.426H486.84ZM495.262 86.834C495.262 85.2287 495.523 83.978 496.046 83.082C496.569 82.1767 497.483 81.724 498.79 81.724C500.087 81.724 500.997 82.1767 501.52 83.082C502.043 83.978 502.304 85.2287 502.304 86.834C502.304 88.4673 502.043 89.7367 501.52 90.642C500.997 91.5473 500.087 92 498.79 92C497.483 92 496.569 91.5473 496.046 90.642C495.523 89.7367 495.262 88.4673 495.262 86.834ZM501.044 86.834C501.044 86.022 500.988 85.336 500.876 84.776C500.773 84.2067 500.554 83.7493 500.218 83.404C499.891 83.0587 499.415 82.886 498.79 82.886C498.155 82.886 497.67 83.0587 497.334 83.404C497.007 83.7493 496.788 84.2067 496.676 84.776C496.573 85.336 496.522 86.022 496.522 86.834C496.522 87.674 496.573 88.3787 496.676 88.948C496.788 89.5173 497.007 89.9747 497.334 90.32C497.67 90.6653 498.155 90.838 498.79 90.838C499.415 90.838 499.891 90.6653 500.218 90.32C500.554 89.9747 500.773 89.5173 500.876 88.948C500.988 88.3787 501.044 87.674 501.044 86.834ZM504.203 86.834C504.203 85.2287 504.464 83.978 504.987 83.082C505.51 82.1767 506.424 81.724 507.731 81.724C509.028 81.724 509.938 82.1767 510.461 83.082C510.984 83.978 511.245 85.2287 511.245 86.834C511.245 88.4673 510.984 89.7367 510.461 90.642C509.938 91.5473 509.028 92 507.731 92C506.424 92 505.51 91.5473 504.987 90.642C504.464 89.7367 504.203 88.4673 504.203 86.834ZM509.985 86.834C509.985 86.022 509.929 85.336 509.817 84.776C509.714 84.2067 509.495 83.7493 509.159 83.404C508.832 83.0587 508.356 82.886 507.731 82.886C507.096 82.886 506.611 83.0587 506.275 83.404C505.948 83.7493 505.729 84.2067 505.617 84.776C505.514 85.336 505.463 86.022 505.463 86.834C505.463 87.674 505.514 88.3787 505.617 88.948C505.729 89.5173 505.948 89.9747 506.275 90.32C506.611 90.6653 507.096 90.838 507.731 90.838C508.356 90.838 508.832 90.6653 509.159 90.32C509.495 89.9747 509.714 89.5173 509.817 88.948C509.929 88.3787 509.985 87.674 509.985 86.834ZM517.638 92L514.628 88.612V92H513.354V81.64H514.628V87.73L517.582 84.328H519.36L515.748 88.15L519.374 92H517.638Z" fill="#3A3541" fill-opacity="0.68"/>
<path d="M627.56 89.746V88.78L632.474 81.976H634V88.64H635.4V89.746H634V92H632.74V89.746H627.56ZM632.796 83.306L629.03 88.64H632.796V83.306Z" fill="#3A3541" fill-opacity="0.68"/>
<path d="M797 79L787 89M797 79L797 85M797 79L791 79M787 79H781V95H797V89" stroke="#001A72" stroke-width="1.5" stroke-linecap="round" stroke-linejoin="round"/>
<path d="M0 56H854V54H0V56Z" fill="#3A3541" fill-opacity="0.12" mask="url(#path-11-outside-1_1_2957)"/>
<rect x="21" y="135" width="34" height="34" rx="17" fill="#9BB7C2"/>
<path d="M76.824 146.348V157.5H75.368V152.444H69.688V157.5H68.232V146.348H69.688V151.244H75.368V146.348H76.824ZM85.2821 157.5L82.6261 152.94H80.8661V157.5H79.4101V146.348H83.0101C83.8528 146.348 84.5621 146.492 85.1381 146.78C85.7248 147.068 86.1621 147.457 86.4501 147.948C86.7381 148.439 86.8821 148.999 86.8821 149.628C86.8821 150.396 86.6581 151.073 86.2101 151.66C85.7728 152.247 85.1115 152.636 84.2261 152.828L87.0261 157.5H85.2821ZM80.8661 151.772H83.0101C83.7995 151.772 84.3915 151.58 84.7861 151.196C85.1808 150.801 85.3781 150.279 85.3781 149.628C85.3781 148.967 85.1808 148.455 84.7861 148.092C84.4021 147.729 83.8101 147.548 83.0101 147.548H80.8661V151.772Z" fill="#3A3541" fill-opacity="0.87"/>
<rect x="366.998" y="149.5" width="98.5025" height="5" fill="#E0E0E8" stroke="#F5F6FA"/>
<rect x="366" y="149" width="19.9005" height="6" fill="#5BCD97"/>
<path d="M493.098 147.872L489.206 157H487.918L491.866 147.998H486.462V146.906H493.098V147.872ZM494.661 151.834C494.661 150.229 494.922 148.978 495.445 148.082C495.967 147.177 496.882 146.724 498.189 146.724C499.486 146.724 500.396 147.177 500.919 148.082C501.441 148.978 501.703 150.229 501.703 151.834C501.703 153.467 501.441 154.737 500.919 155.642C500.396 156.547 499.486 157 498.189 157C496.882 157 495.967 156.547 495.445 155.642C494.922 154.737 494.661 153.467 494.661 151.834ZM500.443 151.834C500.443 151.022 500.387 150.336 500.275 149.776C500.172 149.207 499.953 148.749 499.617 148.404C499.29 148.059 498.814 147.886 498.189 147.886C497.554 147.886 497.069 148.059 496.733 148.404C496.406 148.749 496.187 149.207 496.075 149.776C495.972 150.336 495.921 151.022 495.921 151.834C495.921 152.674 495.972 153.379 496.075 153.948C496.187 154.517 496.406 154.975 496.733 155.32C497.069 155.665 497.554 155.838 498.189 155.838C498.814 155.838 499.29 155.665 499.617 155.32C499.953 154.975 500.172 154.517 500.275 153.948C500.387 153.379 500.443 152.674 500.443 151.834ZM508.096 157L505.086 153.612V157H503.812V146.64H505.086V152.73L508.04 149.328H509.818L506.206 153.15L509.832 157H508.096Z" fill="#3A3541" fill-opacity="0.68"/>
<path d="M634.322 147.984H629.408V151.176C629.623 150.877 629.94 150.635 630.36 150.448C630.78 150.252 631.233 150.154 631.718 150.154C632.493 150.154 633.123 150.317 633.608 150.644C634.093 150.961 634.439 151.377 634.644 151.89C634.859 152.394 634.966 152.931 634.966 153.5C634.966 154.172 634.84 154.774 634.588 155.306C634.336 155.838 633.949 156.258 633.426 156.566C632.913 156.874 632.273 157.028 631.508 157.028C630.528 157.028 629.735 156.776 629.128 156.272C628.521 155.768 628.153 155.096 628.022 154.256H629.268C629.389 154.788 629.646 155.203 630.038 155.502C630.43 155.801 630.925 155.95 631.522 155.95C632.259 155.95 632.815 155.731 633.188 155.292C633.561 154.844 633.748 154.256 633.748 153.528C633.748 152.8 633.561 152.24 633.188 151.848C632.815 151.447 632.264 151.246 631.536 151.246C631.041 151.246 630.607 151.367 630.234 151.61C629.87 151.843 629.604 152.165 629.436 152.576H628.232V146.864H634.322V147.984Z" fill="#3A3541" fill-opacity="0.68"/>
<path d="M799 144L789 154M799 144L799 150M799 144L793 144M789 144H783V160H799V154" stroke="#001A72" stroke-width="1.5" stroke-linecap="round" stroke-linejoin="round"/>
<path d="M0 121H854V119H0V121Z" fill="#3A3541" fill-opacity="0.12" mask="url(#path-20-outside-2_1_2957)"/>
<rect x="21" y="200" width="34" height="34" rx="17" fill="#FFBB78"/>
<path d="M74.824 220.02H69.96L69.064 222.5H67.528L71.56 211.412H73.24L77.256 222.5H75.72L74.824 220.02ZM74.408 218.836L72.392 213.204L70.376 218.836H74.408ZM78.5693 218.1C78.5693 217.193 78.7506 216.404 79.1133 215.732C79.4759 215.049 79.9773 214.521 80.6173 214.148C81.2679 213.775 82.0093 213.588 82.8413 213.588C83.9186 213.588 84.8039 213.849 85.4973 214.372C86.2013 214.895 86.6653 215.62 86.8893 216.548H85.3213C85.1719 216.015 84.8786 215.593 84.4413 215.284C84.0146 214.975 83.4813 214.82 82.8413 214.82C82.0093 214.82 81.3373 215.108 80.8253 215.684C80.3133 216.249 80.0573 217.055 80.0573 218.1C80.0573 219.156 80.3133 219.972 80.8253 220.548C81.3373 221.124 82.0093 221.412 82.8413 221.412C83.4813 221.412 84.0146 221.263 84.4413 220.964C84.8679 220.665 85.1613 220.239 85.3213 219.684H86.8893C86.6546 220.58 86.1853 221.3 85.4813 221.844C84.7773 222.377 83.8973 222.644 82.8413 222.644C82.0093 222.644 81.2679 222.457 80.6173 222.084C79.9773 221.711 79.4759 221.183 79.1133 220.5C78.7506 219.817 78.5693 219.017 78.5693 218.1ZM88.388 218.1C88.388 217.193 88.5693 216.404 88.932 215.732C89.2947 215.049 89.796 214.521 90.436 214.148C91.0867 213.775 91.828 213.588 92.66 213.588C93.7373 213.588 94.6227 213.849 95.316 214.372C96.02 214.895 96.484 215.62 96.708 216.548H95.14C94.9907 216.015 94.6973 215.593 94.26 215.284C93.8333 214.975 93.3 214.82 92.66 214.82C91.828 214.82 91.156 215.108 90.644 215.684C90.132 216.249 89.876 217.055 89.876 218.1C89.876 219.156 90.132 219.972 90.644 220.548C91.156 221.124 91.828 221.412 92.66 221.412C93.3 221.412 93.8333 221.263 94.26 220.964C94.6867 220.665 94.98 220.239 95.14 219.684H96.708C96.4733 220.58 96.004 221.3 95.3 221.844C94.596 222.377 93.716 222.644 92.66 222.644C91.828 222.644 91.0867 222.457 90.436 222.084C89.796 221.711 89.2947 221.183 88.932 220.5C88.5693 219.817 88.388 219.017 88.388 218.1ZM102.575 222.644C101.753 222.644 101.007 222.457 100.335 222.084C99.6734 221.711 99.1507 221.183 98.7667 220.5C98.3934 219.807 98.2067 219.007 98.2067 218.1C98.2067 217.204 98.3987 216.415 98.7827 215.732C99.1774 215.039 99.7107 214.511 100.383 214.148C101.055 213.775 101.807 213.588 102.639 213.588C103.471 213.588 104.223 213.775 104.895 214.148C105.567 214.511 106.095 215.033 106.479 215.716C106.873 216.399 107.071 217.193 107.071 218.1C107.071 219.007 106.868 219.807 106.463 220.5C106.068 221.183 105.529 221.711 104.847 222.084C104.164 222.457 103.407 222.644 102.575 222.644ZM102.575 221.364C103.097 221.364 103.588 221.241 104.047 220.996C104.505 220.751 104.873 220.383 105.151 219.892C105.439 219.401 105.583 218.804 105.583 218.1C105.583 217.396 105.444 216.799 105.167 216.308C104.889 215.817 104.527 215.455 104.079 215.22C103.631 214.975 103.145 214.852 102.623 214.852C102.089 214.852 101.599 214.975 101.151 215.22C100.713 215.455 100.361 215.817 100.095 216.308C99.8281 216.799 99.6947 217.396 99.6947 218.1C99.6947 218.815 99.8227 219.417 100.079 219.908C100.345 220.399 100.697 220.767 101.135 221.012C101.572 221.247 102.052 221.364 102.575 221.364ZM116.861 213.732V222.5H115.405V221.204C115.128 221.652 114.738 222.004 114.237 222.26C113.746 222.505 113.202 222.628 112.605 222.628C111.922 222.628 111.309 222.489 110.765 222.212C110.221 221.924 109.789 221.497 109.469 220.932C109.16 220.367 109.005 219.679 109.005 218.868V213.732H110.445V218.676C110.445 219.54 110.664 220.207 111.101 220.676C111.538 221.135 112.136 221.364 112.893 221.364C113.672 221.364 114.285 221.124 114.733 220.644C115.181 220.164 115.405 219.465 115.405 218.548V213.732H116.861ZM123.692 213.572C124.758 213.572 125.622 213.897 126.284 214.548C126.945 215.188 127.276 216.116 127.276 217.332V222.5H125.836V217.54C125.836 216.665 125.617 215.999 125.18 215.54C124.742 215.071 124.145 214.836 123.388 214.836C122.62 214.836 122.006 215.076 121.548 215.556C121.1 216.036 120.876 216.735 120.876 217.652V222.5H119.42V213.732H120.876V214.98C121.164 214.532 121.553 214.185 122.044 213.94C122.545 213.695 123.094 213.572 123.692 213.572ZM131.53 214.932V220.1C131.53 220.527 131.621 220.831 131.802 221.012C131.983 221.183 132.298 221.268 132.746 221.268H133.818V222.5H132.506C131.695 222.5 131.087 222.313 130.682 221.94C130.277 221.567 130.074 220.953 130.074 220.1V214.932H128.938V213.732H130.074V211.524H131.53V213.732H133.818V214.932H131.53ZM136.434 212.308C136.157 212.308 135.922 212.212 135.73 212.02C135.538 211.828 135.442 211.593 135.442 211.316C135.442 211.039 135.538 210.804 135.73 210.612C135.922 210.42 136.157 210.324 136.434 210.324C136.701 210.324 136.925 210.42 137.106 210.612C137.298 210.804 137.394 211.039 137.394 211.316C137.394 211.593 137.298 211.828 137.106 212.02C136.925 212.212 136.701 212.308 136.434 212.308ZM137.138 213.732V222.5H135.682V213.732H137.138ZM143.992 213.572C145.058 213.572 145.922 213.897 146.584 214.548C147.245 215.188 147.576 216.116 147.576 217.332V222.5H146.136V217.54C146.136 216.665 145.917 215.999 145.48 215.54C145.042 215.071 144.445 214.836 143.688 214.836C142.92 214.836 142.306 215.076 141.848 215.556C141.4 216.036 141.176 216.735 141.176 217.652V222.5H139.72V213.732H141.176V214.98C141.464 214.532 141.853 214.185 142.344 213.94C142.845 213.695 143.394 213.572 143.992 213.572ZM153.67 213.588C154.427 213.588 155.089 213.753 155.654 214.084C156.23 214.415 156.657 214.831 156.934 215.332V213.732H158.406V222.692C158.406 223.492 158.235 224.201 157.894 224.82C157.553 225.449 157.062 225.94 156.422 226.292C155.793 226.644 155.057 226.82 154.214 226.82C153.062 226.82 152.102 226.548 151.334 226.004C150.566 225.46 150.113 224.719 149.974 223.78H151.414C151.574 224.313 151.905 224.74 152.406 225.06C152.907 225.391 153.51 225.556 154.214 225.556C155.014 225.556 155.665 225.305 156.166 224.804C156.678 224.303 156.934 223.599 156.934 222.692V220.852C156.646 221.364 156.219 221.791 155.654 222.132C155.089 222.473 154.427 222.644 153.67 222.644C152.891 222.644 152.182 222.452 151.542 222.068C150.913 221.684 150.417 221.145 150.054 220.452C149.691 219.759 149.51 218.969 149.51 218.084C149.51 217.188 149.691 216.404 150.054 215.732C150.417 215.049 150.913 214.521 151.542 214.148C152.182 213.775 152.891 213.588 153.67 213.588ZM156.934 218.1C156.934 217.439 156.801 216.863 156.534 216.372C156.267 215.881 155.905 215.508 155.446 215.252C154.998 214.985 154.502 214.852 153.958 214.852C153.414 214.852 152.918 214.98 152.47 215.236C152.022 215.492 151.665 215.865 151.398 216.356C151.131 216.847 150.998 217.423 150.998 218.084C150.998 218.756 151.131 219.343 151.398 219.844C151.665 220.335 152.022 220.713 152.47 220.98C152.918 221.236 153.414 221.364 153.958 221.364C154.502 221.364 154.998 221.236 155.446 220.98C155.905 220.713 156.267 220.335 156.534 219.844C156.801 219.343 156.934 218.761 156.934 218.1Z" fill="#3A3541" fill-opacity="0.87"/>
<rect x="367.429" y="214.5" width="98.0712" height="5" fill="#E0E0E8" stroke="#F5F6FA"/>
<rect x="366" y="214" width="38" height="6" fill="#FFCD93"/>
<path d="M486.532 213.04V211.878H489.164V222H487.876V213.04H486.532ZM491.166 213.04V211.878H493.798V222H492.51V213.04H491.166ZM496.137 216.834C496.137 215.229 496.398 213.978 496.921 213.082C497.443 212.177 498.358 211.724 499.665 211.724C500.962 211.724 501.872 212.177 502.395 213.082C502.917 213.978 503.179 215.229 503.179 216.834C503.179 218.467 502.917 219.737 502.395 220.642C501.872 221.547 500.962 222 499.665 222C498.358 222 497.443 221.547 496.921 220.642C496.398 219.737 496.137 218.467 496.137 216.834ZM501.919 216.834C501.919 216.022 501.863 215.336 501.751 214.776C501.648 214.207 501.429 213.749 501.093 213.404C500.766 213.059 500.29 212.886 499.665 212.886C499.03 212.886 498.545 213.059 498.209 213.404C497.882 213.749 497.663 214.207 497.551 214.776C497.448 215.336 497.397 216.022 497.397 216.834C497.397 217.674 497.448 218.379 497.551 218.948C497.663 219.517 497.882 219.975 498.209 220.32C498.545 220.665 499.03 220.838 499.665 220.838C500.29 220.838 500.766 220.665 501.093 220.32C501.429 219.975 501.648 219.517 501.751 218.948C501.863 218.379 501.919 217.674 501.919 216.834ZM509.572 222L506.562 218.612V222H505.288V211.64H506.562V217.73L509.516 214.328H511.294L507.682 218.15L511.308 222H509.572Z" fill="#3A3541" fill-opacity="0.68"/>
<path d="M627.714 220.978C628.899 220.026 629.828 219.247 630.5 218.64C631.172 218.024 631.737 217.385 632.194 216.722C632.661 216.05 632.894 215.392 632.894 214.748C632.894 214.141 632.745 213.665 632.446 213.32C632.157 212.965 631.685 212.788 631.032 212.788C630.397 212.788 629.903 212.989 629.548 213.39C629.203 213.782 629.016 214.309 628.988 214.972H627.756C627.793 213.927 628.111 213.119 628.708 212.55C629.305 211.981 630.075 211.696 631.018 211.696C631.979 211.696 632.74 211.962 633.3 212.494C633.869 213.026 634.154 213.759 634.154 214.692C634.154 215.467 633.921 216.223 633.454 216.96C632.997 217.688 632.474 218.332 631.886 218.892C631.298 219.443 630.547 220.087 629.632 220.824H634.448V221.888H627.714V220.978Z" fill="#3A3541" fill-opacity="0.68"/>
<path d="M799 209L789 219M799 209L799 215M799 209L793 209M789 209H783V225H799V219" stroke="#001A72" stroke-width="1.5" stroke-linecap="round" stroke-linejoin="round"/>
<path d="M0 186H854V184H0V186Z" fill="#3A3541" fill-opacity="0.12" mask="url(#path-29-outside-3_1_2957)"/>
<rect x="21" y="265" width="34" height="34" rx="17" fill="#62C0BB"/>
<path d="M69.688 276.348V287.5H68.232V276.348H69.688ZM79.1335 276.348V277.532H76.0935V287.5H74.6375V277.532H71.5815V276.348H79.1335Z" fill="#3A3541" fill-opacity="0.87"/>
<rect x="367.429" y="279.5" width="98.0712" height="5" fill="#E0E0E8" stroke="#F5F6FA"/>
<rect x="366" y="279" width="38" height="6" fill="#FFCD93"/>
<path d="M486.532 278.04V276.878H489.164V287H487.876V278.04H486.532ZM491.166 278.04V276.878H493.798V287H492.51V278.04H491.166ZM496.137 281.834C496.137 280.229 496.398 278.978 496.921 278.082C497.443 277.177 498.358 276.724 499.665 276.724C500.962 276.724 501.872 277.177 502.395 278.082C502.917 278.978 503.179 280.229 503.179 281.834C503.179 283.467 502.917 284.737 502.395 285.642C501.872 286.547 500.962 287 499.665 287C498.358 287 497.443 286.547 496.921 285.642C496.398 284.737 496.137 283.467 496.137 281.834ZM501.919 281.834C501.919 281.022 501.863 280.336 501.751 279.776C501.648 279.207 501.429 278.749 501.093 278.404C500.766 278.059 500.29 277.886 499.665 277.886C499.03 277.886 498.545 278.059 498.209 278.404C497.882 278.749 497.663 279.207 497.551 279.776C497.448 280.336 497.397 281.022 497.397 281.834C497.397 282.674 497.448 283.379 497.551 283.948C497.663 284.517 497.882 284.975 498.209 285.32C498.545 285.665 499.03 285.838 499.665 285.838C500.29 285.838 500.766 285.665 501.093 285.32C501.429 284.975 501.648 284.517 501.751 283.948C501.863 283.379 501.919 282.674 501.919 281.834ZM509.572 287L506.562 283.612V287H505.288V276.64H506.562V282.73L509.516 279.328H511.294L507.682 283.15L511.308 287H509.572Z" fill="#3A3541" fill-opacity="0.68"/>
<path d="M627.714 285.978C628.899 285.026 629.828 284.247 630.5 283.64C631.172 283.024 631.737 282.385 632.194 281.722C632.661 281.05 632.894 280.392 632.894 279.748C632.894 279.141 632.745 278.665 632.446 278.32C632.157 277.965 631.685 277.788 631.032 277.788C630.397 277.788 629.903 277.989 629.548 278.39C629.203 278.782 629.016 279.309 628.988 279.972H627.756C627.793 278.927 628.111 278.119 628.708 277.55C629.305 276.981 630.075 276.696 631.018 276.696C631.979 276.696 632.74 276.962 633.3 277.494C633.869 278.026 634.154 278.759 634.154 279.692C634.154 280.467 633.921 281.223 633.454 281.96C632.997 282.688 632.474 283.332 631.886 283.892C631.298 284.443 630.547 285.087 629.632 285.824H634.448V286.888H627.714V285.978Z" fill="#3A3541" fill-opacity="0.68"/>
<path d="M799 274L789 284M799 274L799 280M799 274L793 274M789 274H783V290H799V284" stroke="#001A72" stroke-width="1.5" stroke-linecap="round" stroke-linejoin="round"/>
<path d="M0 251H854V249H0V251Z" fill="#3A3541" fill-opacity="0.12" mask="url(#path-38-outside-4_1_2957)"/>
<rect x="21" y="330" width="34" height="34" rx="17" fill="#F0CECE"/>
<path d="M79.544 341.428V352.5H78.088V344.244L74.408 352.5H73.384L69.688 344.228V352.5H68.232V341.428H69.8L73.896 350.58L77.992 341.428H79.544ZM81.5693 348.084C81.5693 347.188 81.7506 346.404 82.1133 345.732C82.4759 345.049 82.9719 344.521 83.6013 344.148C84.2413 343.775 84.9506 343.588 85.7293 343.588C86.4973 343.588 87.1639 343.753 87.7293 344.084C88.2946 344.415 88.7159 344.831 88.9933 345.332V343.732H90.4653V352.5H88.9933V350.868C88.7053 351.38 88.2733 351.807 87.6973 352.148C87.1319 352.479 86.4706 352.644 85.7133 352.644C84.9346 352.644 84.2306 352.452 83.6013 352.068C82.9719 351.684 82.4759 351.145 82.1133 350.452C81.7506 349.759 81.5693 348.969 81.5693 348.084ZM88.9933 348.1C88.9933 347.439 88.8599 346.863 88.5933 346.372C88.3266 345.881 87.9639 345.508 87.5053 345.252C87.0573 344.985 86.5613 344.852 86.0173 344.852C85.4733 344.852 84.9773 344.98 84.5293 345.236C84.0813 345.492 83.7239 345.865 83.4573 346.356C83.1906 346.847 83.0573 347.423 83.0573 348.084C83.0573 348.756 83.1906 349.343 83.4573 349.844C83.7239 350.335 84.0813 350.713 84.5293 350.98C84.9773 351.236 85.4733 351.364 86.0173 351.364C86.5613 351.364 87.0573 351.236 87.5053 350.98C87.9639 350.713 88.3266 350.335 88.5933 349.844C88.8599 349.343 88.9933 348.761 88.9933 348.1ZM94.4818 345.156C94.7378 344.655 95.1004 344.265 95.5698 343.988C96.0498 343.711 96.6311 343.572 97.3138 343.572V345.076H96.9298C95.2978 345.076 94.4818 345.961 94.4818 347.732V352.5H93.0258V343.732H94.4818V345.156ZM103.99 352.5L100.55 348.628V352.5H99.0945V340.66H100.55V347.62L103.926 343.732H105.958L101.83 348.1L105.974 352.5H103.99ZM115.429 347.78C115.429 348.057 115.413 348.351 115.381 348.66H108.373C108.426 349.524 108.72 350.201 109.253 350.692C109.797 351.172 110.453 351.412 111.221 351.412C111.85 351.412 112.373 351.268 112.789 350.98C113.216 350.681 113.514 350.287 113.685 349.796H115.253C115.018 350.639 114.549 351.327 113.845 351.86C113.141 352.383 112.266 352.644 111.221 352.644C110.389 352.644 109.642 352.457 108.981 352.084C108.33 351.711 107.818 351.183 107.445 350.5C107.072 349.807 106.885 349.007 106.885 348.1C106.885 347.193 107.066 346.399 107.429 345.716C107.792 345.033 108.298 344.511 108.949 344.148C109.61 343.775 110.368 343.588 111.221 343.588C112.053 343.588 112.789 343.769 113.429 344.132C114.069 344.495 114.56 344.996 114.901 345.636C115.253 346.265 115.429 346.98 115.429 347.78ZM113.925 347.476C113.925 346.921 113.802 346.447 113.557 346.052C113.312 345.647 112.976 345.343 112.549 345.14C112.133 344.927 111.669 344.82 111.157 344.82C110.421 344.82 109.792 345.055 109.269 345.524C108.757 345.993 108.464 346.644 108.389 347.476H113.925ZM119.227 344.932V350.1C119.227 350.527 119.317 350.831 119.499 351.012C119.68 351.183 119.995 351.268 120.443 351.268H121.515V352.5H120.203C119.392 352.5 118.784 352.313 118.379 351.94C117.973 351.567 117.771 350.953 117.771 350.1V344.932H116.635V343.732H117.771V341.524H119.227V343.732H121.515V344.932H119.227ZM124.131 342.308C123.854 342.308 123.619 342.212 123.427 342.02C123.235 341.828 123.139 341.593 123.139 341.316C123.139 341.039 123.235 340.804 123.427 340.612C123.619 340.42 123.854 340.324 124.131 340.324C124.398 340.324 124.622 340.42 124.803 340.612C124.995 340.804 125.091 341.039 125.091 341.316C125.091 341.593 124.995 341.828 124.803 342.02C124.622 342.212 124.398 342.308 124.131 342.308ZM124.835 343.732V352.5H123.379V343.732H124.835ZM131.688 343.572C132.755 343.572 133.619 343.897 134.28 344.548C134.942 345.188 135.272 346.116 135.272 347.332V352.5H133.832V347.54C133.832 346.665 133.614 345.999 133.176 345.54C132.739 345.071 132.142 344.836 131.384 344.836C130.616 344.836 130.003 345.076 129.544 345.556C129.096 346.036 128.872 346.735 128.872 347.652V352.5H127.416V343.732H128.872V344.98C129.16 344.532 129.55 344.185 130.04 343.94C130.542 343.695 131.091 343.572 131.688 343.572ZM141.367 343.588C142.124 343.588 142.785 343.753 143.351 344.084C143.927 344.415 144.353 344.831 144.631 345.332V343.732H146.103V352.692C146.103 353.492 145.932 354.201 145.591 354.82C145.249 355.449 144.759 355.94 144.119 356.292C143.489 356.644 142.753 356.82 141.911 356.82C140.759 356.82 139.799 356.548 139.031 356.004C138.263 355.46 137.809 354.719 137.671 353.78H139.111C139.271 354.313 139.601 354.74 140.103 355.06C140.604 355.391 141.207 355.556 141.911 355.556C142.711 355.556 143.361 355.305 143.863 354.804C144.375 354.303 144.631 353.599 144.631 352.692V350.852C144.343 351.364 143.916 351.791 143.351 352.132C142.785 352.473 142.124 352.644 141.367 352.644C140.588 352.644 139.879 352.452 139.239 352.068C138.609 351.684 138.113 351.145 137.751 350.452C137.388 349.759 137.207 348.969 137.207 348.084C137.207 347.188 137.388 346.404 137.751 345.732C138.113 345.049 138.609 344.521 139.239 344.148C139.879 343.775 140.588 343.588 141.367 343.588ZM144.631 348.1C144.631 347.439 144.497 346.863 144.231 346.372C143.964 345.881 143.601 345.508 143.143 345.252C142.695 344.985 142.199 344.852 141.655 344.852C141.111 344.852 140.615 344.98 140.167 345.236C139.719 345.492 139.361 345.865 139.095 346.356C138.828 346.847 138.695 347.423 138.695 348.084C138.695 348.756 138.828 349.343 139.095 349.844C139.361 350.335 139.719 350.713 140.167 350.98C140.615 351.236 141.111 351.364 141.655 351.364C142.199 351.364 142.695 351.236 143.143 350.98C143.601 350.713 143.964 350.335 144.231 349.844C144.497 349.343 144.631 348.761 144.631 348.1Z" fill="#3A3541" fill-opacity="0.87"/>
<rect x="367.244" y="344.5" width="98.2556" height="5" fill="#E0E0E8" stroke="#F5F6FA"/>
<rect x="366" y="344" width="29" height="6" fill="#5BCD97"/>
<path d="M488.716 346.736C488.193 346.531 487.792 346.232 487.512 345.84C487.232 345.448 487.092 344.972 487.092 344.412C487.092 343.908 487.218 343.455 487.47 343.054C487.722 342.643 488.095 342.321 488.59 342.088C489.094 341.845 489.701 341.724 490.41 341.724C491.119 341.724 491.721 341.845 492.216 342.088C492.72 342.321 493.098 342.643 493.35 343.054C493.611 343.455 493.742 343.908 493.742 344.412C493.742 344.953 493.597 345.429 493.308 345.84C493.019 346.241 492.622 346.54 492.118 346.736C492.697 346.913 493.154 347.226 493.49 347.674C493.835 348.113 494.008 348.645 494.008 349.27C494.008 349.877 493.859 350.409 493.56 350.866C493.261 351.314 492.837 351.664 492.286 351.916C491.745 352.159 491.119 352.28 490.41 352.28C489.701 352.28 489.075 352.159 488.534 351.916C488.002 351.664 487.587 351.314 487.288 350.866C486.989 350.409 486.84 349.877 486.84 349.27C486.84 348.645 487.008 348.108 487.344 347.66C487.68 347.212 488.137 346.904 488.716 346.736ZM492.51 344.566C492.51 343.997 492.323 343.558 491.95 343.25C491.577 342.942 491.063 342.788 490.41 342.788C489.766 342.788 489.257 342.942 488.884 343.25C488.511 343.558 488.324 344.001 488.324 344.58C488.324 345.103 488.515 345.523 488.898 345.84C489.29 346.157 489.794 346.316 490.41 346.316C491.035 346.316 491.539 346.157 491.922 345.84C492.314 345.513 492.51 345.089 492.51 344.566ZM490.41 347.296C489.719 347.296 489.155 347.459 488.716 347.786C488.277 348.103 488.058 348.584 488.058 349.228C488.058 349.825 488.268 350.306 488.688 350.67C489.117 351.034 489.691 351.216 490.41 351.216C491.129 351.216 491.698 351.034 492.118 350.67C492.538 350.306 492.748 349.825 492.748 349.228C492.748 348.603 492.533 348.127 492.104 347.8C491.675 347.464 491.11 347.296 490.41 347.296ZM495.85 346.834C495.85 345.229 496.111 343.978 496.634 343.082C497.157 342.177 498.071 341.724 499.378 341.724C500.675 341.724 501.585 342.177 502.108 343.082C502.631 343.978 502.892 345.229 502.892 346.834C502.892 348.467 502.631 349.737 502.108 350.642C501.585 351.547 500.675 352 499.378 352C498.071 352 497.157 351.547 496.634 350.642C496.111 349.737 495.85 348.467 495.85 346.834ZM501.632 346.834C501.632 346.022 501.576 345.336 501.464 344.776C501.361 344.207 501.142 343.749 500.806 343.404C500.479 343.059 500.003 342.886 499.378 342.886C498.743 342.886 498.258 343.059 497.922 343.404C497.595 343.749 497.376 344.207 497.264 344.776C497.161 345.336 497.11 346.022 497.11 346.834C497.11 347.674 497.161 348.379 497.264 348.948C497.376 349.517 497.595 349.975 497.922 350.32C498.258 350.665 498.743 350.838 499.378 350.838C500.003 350.838 500.479 350.665 500.806 350.32C501.142 349.975 501.361 349.517 501.464 348.948C501.576 348.379 501.632 347.674 501.632 346.834ZM509.285 352L506.275 348.612V352H505.001V341.64H506.275V347.73L509.229 344.328H511.007L507.395 348.15L511.021 352H509.285Z" fill="#3A3541" fill-opacity="0.68"/>
<path d="M627.84 344.426C627.905 343.567 628.237 342.895 628.834 342.41C629.431 341.925 630.206 341.682 631.158 341.682C631.793 341.682 632.339 341.799 632.796 342.032C633.263 342.256 633.613 342.564 633.846 342.956C634.089 343.348 634.21 343.791 634.21 344.286C634.21 344.865 634.042 345.364 633.706 345.784C633.379 346.204 632.95 346.475 632.418 346.596V346.666C633.025 346.815 633.505 347.109 633.86 347.548C634.215 347.987 634.392 348.561 634.392 349.27C634.392 349.802 634.271 350.283 634.028 350.712C633.785 351.132 633.421 351.463 632.936 351.706C632.451 351.949 631.867 352.07 631.186 352.07C630.197 352.07 629.385 351.813 628.75 351.3C628.115 350.777 627.761 350.04 627.686 349.088H628.918C628.983 349.648 629.212 350.105 629.604 350.46C629.996 350.815 630.519 350.992 631.172 350.992C631.825 350.992 632.32 350.824 632.656 350.488C633.001 350.143 633.174 349.699 633.174 349.158C633.174 348.458 632.941 347.954 632.474 347.646C632.007 347.338 631.303 347.184 630.36 347.184H630.038V346.12H630.374C631.233 346.111 631.881 345.971 632.32 345.7C632.759 345.42 632.978 344.991 632.978 344.412C632.978 343.917 632.815 343.521 632.488 343.222C632.171 342.923 631.713 342.774 631.116 342.774C630.537 342.774 630.071 342.923 629.716 343.222C629.361 343.521 629.151 343.922 629.086 344.426H627.84Z" fill="#3A3541" fill-opacity="0.68"/>
<path d="M799 339L789 349M799 339L799 345M799 339L793 339M789 339H783V355H799V349" stroke="#001A72" stroke-width="1.5" stroke-linecap="round" stroke-linejoin="round"/>
<path d="M0 316H854V314H0V316Z" fill="#3A3541" fill-opacity="0.12" mask="url(#path-47-outside-5_1_2957)"/>
</svg>
