<svg width="24" height="24" viewBox="0 0 24 24" fill="none" xmlns="http://www.w3.org/2000/svg">
<circle cx="12" cy="12" r="12" fill="#9BB7C2"/>
<g clip-path="url(#clip0_1_1262)">
<path d="M14.6669 6.08203L13.4569 7.29203L16.7069 10.542L17.9169 9.33203C18.5419 8.70703 18.5419 7.69453 17.9169 7.06953L16.9319 6.08203C16.3069 5.45703 15.2944 5.45703 14.6694 6.08203H14.6669ZM12.8919 7.85703L7.06444 13.687C6.80444 13.947 6.61444 14.2695 6.50944 14.622L5.62444 17.6295C5.56194 17.842 5.61944 18.0695 5.77444 18.2245C5.92944 18.3795 6.15694 18.437 6.36694 18.377L9.37444 17.492C9.72694 17.387 10.0494 17.197 10.3094 16.937L16.1419 11.107L12.8919 7.85703Z" fill="white"/>
</g>
<defs>
<clipPath id="clip0_1_1262">
<rect width="12.8" height="12.8" fill="white" transform="translate(5.59961 5.59961)"/>
</clipPath>
</defs>
</svg>
