<svg width="29" height="28" viewBox="0 0 29 28" fill="none" xmlns="http://www.w3.org/2000/svg">
<path d="M4.10858 25.6669H8.77525C8.92879 25.6678 9.08099 25.6384 9.22314 25.5803C9.36528 25.5223 9.49457 25.4367 9.60358 25.3286L23.6036 11.3286C23.7129 11.2201 23.7997 11.0911 23.859 10.9489C23.9182 10.8068 23.9487 10.6543 23.9487 10.5003C23.9487 10.3462 23.9182 10.1938 23.859 10.0516C23.7997 9.90941 23.7129 9.78038 23.6036 9.67192L18.9369 5.00525C18.8285 4.8959 18.6994 4.80911 18.5573 4.74988C18.4151 4.69065 18.2626 4.66016 18.1086 4.66016C17.9546 4.66016 17.8021 4.69065 17.6599 4.74988C17.5177 4.80911 17.3887 4.8959 17.2802 5.00525L3.28025 19.0053C3.17212 19.1143 3.08657 19.2436 3.02851 19.3857C2.97046 19.5278 2.94103 19.6801 2.94191 19.8336V24.5003C2.94191 24.8097 3.06483 25.1064 3.28362 25.3252C3.50242 25.544 3.79916 25.6669 4.10858 25.6669ZM5.27525 20.3119L18.1086 7.47859L21.1302 10.5003L8.29691 23.3336H5.27525V20.3119Z" fill="white"/>
<path d="M21.2705 2.67172C21.1617 2.56294 21.0326 2.47665 20.8905 2.41778C20.7484 2.35891 20.596 2.32861 20.4422 2.32861C20.1315 2.32861 19.8335 2.45203 19.6139 2.67172C19.3942 2.89141 19.2708 3.18937 19.2708 3.50005C19.2708 3.81074 19.3942 4.1087 19.6139 4.32839L24.2805 8.99506C24.389 9.10441 24.518 9.1912 24.6602 9.25043C24.8024 9.30966 24.9548 9.34015 25.1089 9.34015C25.2629 9.34015 25.4154 9.30966 25.5575 9.25043C25.6997 9.1912 25.8287 9.10441 25.9372 8.99506C26.0465 8.8866 26.1333 8.75756 26.1926 8.6154C26.2518 8.47323 26.2823 8.32074 26.2823 8.16672C26.2823 8.01271 26.2518 7.86022 26.1926 7.71805C26.1333 7.57588 26.0465 7.44685 25.9372 7.33839L21.2705 2.67172Z" fill="white"/>
</svg>
