<svg width="819" height="284" viewBox="0 0 819 284" fill="none" xmlns="http://www.w3.org/2000/svg">
<path d="M70.0865 80.3566V79.3606H72.3425V88.0366H71.2385V80.3566H70.0865ZM79.7502 80.3086H75.5382V83.0446C75.7222 82.7886 75.9942 82.5806 76.3542 82.4206C76.7142 82.2526 77.1022 82.1686 77.5182 82.1686C78.1822 82.1686 78.7222 82.3086 79.1382 82.5886C79.5542 82.8606 79.8502 83.2166 80.0262 83.6566C80.2102 84.0886 80.3022 84.5486 80.3022 85.0366C80.3022 85.6126 80.1942 86.1286 79.9782 86.5846C79.7622 87.0406 79.4302 87.4006 78.9822 87.6646C78.5422 87.9286 77.9942 88.0606 77.3382 88.0606C76.4982 88.0606 75.8182 87.8446 75.2982 87.4126C74.7782 86.9806 74.4622 86.4046 74.3502 85.6846H75.4182C75.5222 86.1406 75.7422 86.4966 76.0782 86.7526C76.4142 87.0086 76.8382 87.1366 77.3502 87.1366C77.9822 87.1366 78.4582 86.9486 78.7782 86.5726C79.0982 86.1886 79.2582 85.6846 79.2582 85.0606C79.2582 84.4366 79.0982 83.9566 78.7782 83.6206C78.4582 83.2766 77.9862 83.1046 77.3622 83.1046C76.9382 83.1046 76.5662 83.2086 76.2462 83.4166C75.9342 83.6166 75.7062 83.8926 75.5622 84.2446H74.5302V79.3486H79.7502V80.3086ZM85.6054 88.0366L83.0254 85.1326V88.0366H81.9334V79.1566H83.0254V84.3766L85.5574 81.4606H87.0814L83.9854 84.7366L87.0934 88.0366H85.6054Z" fill="#A3A3A3"/>
<path d="M70.0865 134.82V133.824H72.3425V142.5H71.2385V134.82H70.0865ZM74.2182 138.072C74.2182 136.696 74.4422 135.624 74.8902 134.856C75.3382 134.08 76.1222 133.692 77.2422 133.692C78.3542 133.692 79.1342 134.08 79.5822 134.856C80.0302 135.624 80.2542 136.696 80.2542 138.072C80.2542 139.472 80.0302 140.56 79.5822 141.336C79.1342 142.112 78.3542 142.5 77.2422 142.5C76.1222 142.5 75.3382 142.112 74.8902 141.336C74.4422 140.56 74.2182 139.472 74.2182 138.072ZM79.1742 138.072C79.1742 137.376 79.1262 136.788 79.0302 136.308C78.9422 135.82 78.7542 135.428 78.4662 135.132C78.1862 134.836 77.7782 134.688 77.2422 134.688C76.6982 134.688 76.2822 134.836 75.9942 135.132C75.7142 135.428 75.5262 135.82 75.4302 136.308C75.3422 136.788 75.2982 137.376 75.2982 138.072C75.2982 138.792 75.3422 139.396 75.4302 139.884C75.5262 140.372 75.7142 140.764 75.9942 141.06C76.2822 141.356 76.6982 141.504 77.2422 141.504C77.7782 141.504 78.1862 141.356 78.4662 141.06C78.7542 140.764 78.9422 140.372 79.0302 139.884C79.1262 139.396 79.1742 138.792 79.1742 138.072ZM85.6054 142.5L83.0254 139.596V142.5H81.9334V133.62H83.0254V138.84L85.5574 135.924H87.0814L83.9854 139.2L87.0934 142.5H85.6054Z" fill="#A3A3A3"/>
<path d="M79.7502 190.191H75.5382V192.927C75.7222 192.671 75.9942 192.463 76.3542 192.303C76.7142 192.135 77.1022 192.051 77.5182 192.051C78.1822 192.051 78.7222 192.191 79.1382 192.471C79.5542 192.743 79.8502 193.099 80.0262 193.539C80.2102 193.971 80.3022 194.431 80.3022 194.919C80.3022 195.495 80.1942 196.011 79.9782 196.467C79.7622 196.923 79.4302 197.283 78.9822 197.547C78.5422 197.811 77.9942 197.943 77.3382 197.943C76.4982 197.943 75.8182 197.727 75.2982 197.295C74.7782 196.863 74.4622 196.287 74.3502 195.567H75.4182C75.5222 196.023 75.7422 196.379 76.0782 196.635C76.4142 196.891 76.8382 197.019 77.3502 197.019C77.9822 197.019 78.4582 196.831 78.7782 196.455C79.0982 196.071 79.2582 195.567 79.2582 194.943C79.2582 194.319 79.0982 193.839 78.7782 193.503C78.4582 193.159 77.9862 192.987 77.3622 192.987C76.9382 192.987 76.5662 193.091 76.2462 193.299C75.9342 193.499 75.7062 193.775 75.5622 194.127H74.5302V189.231H79.7502V190.191ZM85.6054 197.919L83.0254 195.015V197.919H81.9334V189.039H83.0254V194.259L85.5574 191.343H87.0814L83.9854 194.619L87.0934 197.919H85.6054Z" fill="#A3A3A3"/>
<path d="M718.576 279.014C718.024 279.014 717.528 278.918 717.088 278.726C716.656 278.526 716.316 278.254 716.068 277.91C715.82 277.558 715.692 277.154 715.684 276.698H716.848C716.888 277.09 717.048 277.422 717.328 277.694C717.616 277.958 718.032 278.09 718.576 278.09C719.096 278.09 719.504 277.962 719.8 277.706C720.104 277.442 720.256 277.106 720.256 276.698C720.256 276.378 720.168 276.118 719.992 275.918C719.816 275.718 719.596 275.566 719.332 275.462C719.068 275.358 718.712 275.246 718.264 275.126C717.712 274.982 717.268 274.838 716.932 274.694C716.604 274.55 716.32 274.326 716.08 274.022C715.848 273.71 715.732 273.294 715.732 272.774C715.732 272.318 715.848 271.914 716.08 271.562C716.312 271.21 716.636 270.938 717.052 270.746C717.476 270.554 717.96 270.458 718.504 270.458C719.288 270.458 719.928 270.654 720.424 271.046C720.928 271.438 721.212 271.958 721.276 272.606H720.076C720.036 272.286 719.868 272.006 719.572 271.766C719.276 271.518 718.884 271.394 718.396 271.394C717.94 271.394 717.568 271.514 717.28 271.754C716.992 271.986 716.848 272.314 716.848 272.738C716.848 273.042 716.932 273.29 717.1 273.482C717.276 273.674 717.488 273.822 717.736 273.926C717.992 274.022 718.348 274.134 718.804 274.262C719.356 274.414 719.8 274.566 720.136 274.718C720.472 274.862 720.76 275.09 721 275.402C721.24 275.706 721.36 276.122 721.36 276.65C721.36 277.058 721.252 277.442 721.036 277.802C720.82 278.162 720.5 278.454 720.076 278.678C719.652 278.902 719.152 279.014 718.576 279.014ZM728.799 272.354V278.93H727.707V277.958C727.499 278.294 727.207 278.558 726.831 278.75C726.463 278.934 726.055 279.026 725.607 279.026C725.095 279.026 724.635 278.922 724.227 278.714C723.819 278.498 723.495 278.178 723.255 277.754C723.023 277.33 722.907 276.814 722.907 276.206V272.354H723.987V276.062C723.987 276.71 724.151 277.21 724.479 277.562C724.807 277.906 725.255 278.078 725.823 278.078C726.407 278.078 726.867 277.898 727.203 277.538C727.539 277.178 727.707 276.654 727.707 275.966V272.354H728.799ZM733.847 272.234C734.647 272.234 735.295 272.478 735.791 272.966C736.287 273.446 736.535 274.142 736.535 275.054V278.93H735.455V275.21C735.455 274.554 735.291 274.054 734.963 273.71C734.635 273.358 734.187 273.182 733.619 273.182C733.043 273.182 732.583 273.362 732.239 273.722C731.903 274.082 731.735 274.606 731.735 275.294V278.93H730.643V272.354H731.735V273.29C731.951 272.954 732.243 272.694 732.611 272.51C732.987 272.326 733.399 272.234 733.847 272.234Z" fill="#A3A3A3"/>
<path d="M125.408 270.626V278.93H124.316V272.738L121.556 278.93H120.788L118.016 272.726V278.93H116.924V270.626H118.1L121.172 277.49L124.244 270.626H125.408ZM130.128 279.038C129.512 279.038 128.952 278.898 128.448 278.618C127.952 278.338 127.56 277.942 127.272 277.43C126.992 276.91 126.852 276.31 126.852 275.63C126.852 274.958 126.996 274.366 127.284 273.854C127.58 273.334 127.98 272.938 128.484 272.666C128.988 272.386 129.552 272.246 130.176 272.246C130.8 272.246 131.364 272.386 131.868 272.666C132.372 272.938 132.768 273.33 133.056 273.842C133.352 274.354 133.5 274.95 133.5 275.63C133.5 276.31 133.348 276.91 133.044 277.43C132.748 277.942 132.344 278.338 131.832 278.618C131.32 278.898 130.752 279.038 130.128 279.038ZM130.128 278.078C130.52 278.078 130.888 277.986 131.232 277.802C131.576 277.618 131.852 277.342 132.06 276.974C132.276 276.606 132.384 276.158 132.384 275.63C132.384 275.102 132.28 274.654 132.072 274.286C131.864 273.918 131.592 273.646 131.256 273.47C130.92 273.286 130.556 273.194 130.164 273.194C129.764 273.194 129.396 273.286 129.06 273.47C128.732 273.646 128.468 273.918 128.268 274.286C128.068 274.654 127.968 275.102 127.968 275.63C127.968 276.166 128.064 276.618 128.256 276.986C128.456 277.354 128.72 277.63 129.048 277.814C129.376 277.99 129.736 278.078 130.128 278.078ZM138.14 272.234C138.94 272.234 139.588 272.478 140.084 272.966C140.58 273.446 140.828 274.142 140.828 275.054V278.93H139.748V275.21C139.748 274.554 139.584 274.054 139.256 273.71C138.928 273.358 138.48 273.182 137.912 273.182C137.336 273.182 136.876 273.362 136.532 273.722C136.196 274.082 136.028 274.606 136.028 275.294V278.93H134.936V272.354H136.028V273.29C136.244 272.954 136.536 272.694 136.904 272.51C137.28 272.326 137.692 272.234 138.14 272.234Z" fill="#A3A3A3"/>
<path d="M224.072 270.566V271.454H221.792V278.93H220.7V271.454H218.408V270.566H224.072ZM231.248 272.354V278.93H230.156V277.958C229.948 278.294 229.656 278.558 229.28 278.75C228.912 278.934 228.504 279.026 228.056 279.026C227.544 279.026 227.084 278.922 226.676 278.714C226.268 278.498 225.944 278.178 225.704 277.754C225.472 277.33 225.356 276.814 225.356 276.206V272.354H226.436V276.062C226.436 276.71 226.6 277.21 226.928 277.562C227.256 277.906 227.704 278.078 228.272 278.078C228.856 278.078 229.316 277.898 229.652 277.538C229.988 277.178 230.156 276.654 230.156 275.966V272.354H231.248ZM239.092 275.39C239.092 275.598 239.08 275.818 239.056 276.05H233.8C233.84 276.698 234.06 277.206 234.46 277.574C234.868 277.934 235.36 278.114 235.936 278.114C236.408 278.114 236.8 278.006 237.112 277.79C237.432 277.566 237.656 277.27 237.784 276.902H238.96C238.784 277.534 238.432 278.05 237.904 278.45C237.376 278.842 236.72 279.038 235.936 279.038C235.312 279.038 234.752 278.898 234.256 278.618C233.768 278.338 233.384 277.942 233.104 277.43C232.824 276.91 232.684 276.31 232.684 275.63C232.684 274.95 232.82 274.354 233.092 273.842C233.364 273.33 233.744 272.938 234.232 272.666C234.728 272.386 235.296 272.246 235.936 272.246C236.56 272.246 237.112 272.382 237.592 272.654C238.072 272.926 238.44 273.302 238.696 273.782C238.96 274.254 239.092 274.79 239.092 275.39ZM237.964 275.162C237.964 274.746 237.872 274.39 237.688 274.094C237.504 273.79 237.252 273.562 236.932 273.41C236.62 273.25 236.272 273.17 235.888 273.17C235.336 273.17 234.864 273.346 234.472 273.698C234.088 274.05 233.868 274.538 233.812 275.162H237.964Z" fill="#A3A3A3"/>
<path d="M327.436 270.566L325.012 278.93H323.788L321.844 272.198L319.828 278.93L318.616 278.942L316.276 270.566H317.44L319.264 277.658L321.28 270.566H322.504L324.424 277.634L326.26 270.566H327.436ZM334.631 275.39C334.631 275.598 334.619 275.818 334.595 276.05H329.339C329.379 276.698 329.599 277.206 329.999 277.574C330.407 277.934 330.899 278.114 331.475 278.114C331.947 278.114 332.339 278.006 332.651 277.79C332.971 277.566 333.195 277.27 333.323 276.902H334.499C334.323 277.534 333.971 278.05 333.443 278.45C332.915 278.842 332.259 279.038 331.475 279.038C330.851 279.038 330.291 278.898 329.795 278.618C329.307 278.338 328.923 277.942 328.643 277.43C328.363 276.91 328.223 276.31 328.223 275.63C328.223 274.95 328.359 274.354 328.631 273.842C328.903 273.33 329.283 272.938 329.771 272.666C330.267 272.386 330.835 272.246 331.475 272.246C332.099 272.246 332.651 272.382 333.131 272.654C333.611 272.926 333.979 273.302 334.235 273.782C334.499 274.254 334.631 274.79 334.631 275.39ZM333.503 275.162C333.503 274.746 333.411 274.39 333.227 274.094C333.043 273.79 332.791 273.562 332.471 273.41C332.159 273.25 331.811 273.17 331.427 273.17C330.875 273.17 330.403 273.346 330.011 273.698C329.627 274.05 329.407 274.538 329.351 275.162H333.503ZM335.664 275.618C335.664 274.946 335.8 274.358 336.072 273.854C336.344 273.342 336.716 272.946 337.188 272.666C337.668 272.386 338.204 272.246 338.796 272.246C339.308 272.246 339.784 272.366 340.224 272.606C340.664 272.838 341 273.146 341.232 273.53V270.05H342.336V278.93H341.232V277.694C341.016 278.086 340.696 278.41 340.272 278.666C339.848 278.914 339.352 279.038 338.784 279.038C338.2 279.038 337.668 278.894 337.188 278.606C336.716 278.318 336.344 277.914 336.072 277.394C335.8 276.874 335.664 276.282 335.664 275.618ZM341.232 275.63C341.232 275.134 341.132 274.702 340.932 274.334C340.732 273.966 340.46 273.686 340.116 273.494C339.78 273.294 339.408 273.194 339 273.194C338.592 273.194 338.22 273.29 337.884 273.482C337.548 273.674 337.28 273.954 337.08 274.322C336.88 274.69 336.78 275.122 336.78 275.618C336.78 276.122 336.88 276.562 337.08 276.938C337.28 277.306 337.548 277.59 337.884 277.79C338.22 277.982 338.592 278.078 339 278.078C339.408 278.078 339.78 277.982 340.116 277.79C340.46 277.59 340.732 277.306 340.932 276.938C341.132 276.562 341.232 276.126 341.232 275.63Z" fill="#A3A3A3"/>
<path d="M423.072 270.566V271.454H420.792V278.93H419.7V271.454H417.408V270.566H423.072ZM427.68 272.234C428.176 272.234 428.624 272.342 429.024 272.558C429.424 272.766 429.736 273.082 429.96 273.506C430.192 273.93 430.308 274.446 430.308 275.054V278.93H429.228V275.21C429.228 274.554 429.064 274.054 428.736 273.71C428.408 273.358 427.96 273.182 427.392 273.182C426.816 273.182 426.356 273.362 426.012 273.722C425.676 274.082 425.508 274.606 425.508 275.294V278.93H424.416V270.05H425.508V273.29C425.724 272.954 426.02 272.694 426.396 272.51C426.78 272.326 427.208 272.234 427.68 272.234ZM437.924 272.354V278.93H436.832V277.958C436.624 278.294 436.332 278.558 435.956 278.75C435.588 278.934 435.18 279.026 434.732 279.026C434.22 279.026 433.76 278.922 433.352 278.714C432.944 278.498 432.62 278.178 432.38 277.754C432.148 277.33 432.032 276.814 432.032 276.206V272.354H433.112V276.062C433.112 276.71 433.276 277.21 433.604 277.562C433.932 277.906 434.38 278.078 434.948 278.078C435.532 278.078 435.992 277.898 436.328 277.538C436.664 277.178 436.832 276.654 436.832 275.966V272.354H437.924Z" fill="#A3A3A3"/>
<path d="M527.652 270.566V271.454H524.016V274.274H526.968V275.162H524.016V278.93H522.924V270.566H527.652ZM530.063 273.422C530.255 273.046 530.527 272.754 530.879 272.546C531.239 272.338 531.675 272.234 532.187 272.234V273.362H531.899C530.675 273.362 530.063 274.026 530.063 275.354V278.93H528.971V272.354H530.063V273.422ZM534.011 271.286C533.803 271.286 533.627 271.214 533.483 271.07C533.339 270.926 533.267 270.75 533.267 270.542C533.267 270.334 533.339 270.158 533.483 270.014C533.627 269.87 533.803 269.798 534.011 269.798C534.211 269.798 534.379 269.87 534.515 270.014C534.659 270.158 534.731 270.334 534.731 270.542C534.731 270.75 534.659 270.926 534.515 271.07C534.379 271.214 534.211 271.286 534.011 271.286ZM534.539 272.354V278.93H533.447V272.354H534.539Z" fill="#A3A3A3"/>
<path d="M620.576 279.014C620.024 279.014 619.528 278.918 619.088 278.726C618.656 278.526 618.316 278.254 618.068 277.91C617.82 277.558 617.692 277.154 617.684 276.698H618.848C618.888 277.09 619.048 277.422 619.328 277.694C619.616 277.958 620.032 278.09 620.576 278.09C621.096 278.09 621.504 277.962 621.8 277.706C622.104 277.442 622.256 277.106 622.256 276.698C622.256 276.378 622.168 276.118 621.992 275.918C621.816 275.718 621.596 275.566 621.332 275.462C621.068 275.358 620.712 275.246 620.264 275.126C619.712 274.982 619.268 274.838 618.932 274.694C618.604 274.55 618.32 274.326 618.08 274.022C617.848 273.71 617.732 273.294 617.732 272.774C617.732 272.318 617.848 271.914 618.08 271.562C618.312 271.21 618.636 270.938 619.052 270.746C619.476 270.554 619.96 270.458 620.504 270.458C621.288 270.458 621.928 270.654 622.424 271.046C622.928 271.438 623.212 271.958 623.276 272.606H622.076C622.036 272.286 621.868 272.006 621.572 271.766C621.276 271.518 620.884 271.394 620.396 271.394C619.94 271.394 619.568 271.514 619.28 271.754C618.992 271.986 618.848 272.314 618.848 272.738C618.848 273.042 618.932 273.29 619.1 273.482C619.276 273.674 619.488 273.822 619.736 273.926C619.992 274.022 620.348 274.134 620.804 274.262C621.356 274.414 621.8 274.566 622.136 274.718C622.472 274.862 622.76 275.09 623 275.402C623.24 275.706 623.36 276.122 623.36 276.65C623.36 277.058 623.252 277.442 623.036 277.802C622.82 278.162 622.5 278.454 622.076 278.678C621.652 278.902 621.152 279.014 620.576 279.014ZM624.559 275.618C624.559 274.946 624.695 274.358 624.967 273.854C625.239 273.342 625.611 272.946 626.083 272.666C626.563 272.386 627.095 272.246 627.679 272.246C628.255 272.246 628.755 272.37 629.179 272.618C629.603 272.866 629.919 273.178 630.127 273.554V272.354H631.231V278.93H630.127V277.706C629.911 278.09 629.587 278.41 629.155 278.666C628.731 278.914 628.235 279.038 627.667 279.038C627.083 279.038 626.555 278.894 626.083 278.606C625.611 278.318 625.239 277.914 624.967 277.394C624.695 276.874 624.559 276.282 624.559 275.618ZM630.127 275.63C630.127 275.134 630.027 274.702 629.827 274.334C629.627 273.966 629.355 273.686 629.011 273.494C628.675 273.294 628.303 273.194 627.895 273.194C627.487 273.194 627.115 273.29 626.779 273.482C626.443 273.674 626.175 273.954 625.975 274.322C625.775 274.69 625.675 275.122 625.675 275.618C625.675 276.122 625.775 276.562 625.975 276.938C626.175 277.306 626.443 277.59 626.779 277.79C627.115 277.982 627.487 278.078 627.895 278.078C628.303 278.078 628.675 277.982 629.011 277.79C629.355 277.59 629.627 277.306 629.827 276.938C630.027 276.562 630.127 276.126 630.127 275.63ZM634.408 273.254V277.13C634.408 277.45 634.476 277.678 634.612 277.814C634.748 277.942 634.984 278.006 635.32 278.006H636.124V278.93H635.14C634.532 278.93 634.076 278.79 633.772 278.51C633.468 278.23 633.316 277.77 633.316 277.13V273.254H632.464V272.354H633.316V270.698H634.408V272.354H636.124V273.254H634.408Z" fill="#A3A3A3"/>
<rect x="104.364" y="246.818" width="656.216" height="1.16409" fill="#ECEAF3"/>
<rect x="104.364" y="192.105" width="656.216" height="1.16409" fill="#ECEAF3"/>
<rect x="104.364" y="137.393" width="656.216" height="1.16409" fill="#ECEAF3"/>
<rect x="104.364" y="82.6807" width="656.216" height="1.16409" fill="#ECEAF3"/>
<path d="M118.106 121.648C118.106 119.439 119.897 117.648 122.106 117.648H134.72C136.93 117.648 138.72 119.439 138.72 121.648V247.026H118.106V121.648Z" fill="url(#paint0_linear_10_1990)"/>
<path d="M217.741 196.244C217.741 194.035 219.532 192.244 221.741 192.244H234.355C236.564 192.244 238.355 194.035 238.355 196.244V247.026H217.741V196.244Z" fill="url(#paint1_linear_10_1990)"/>
<path d="M317.376 158.946C317.376 156.737 319.167 154.946 321.376 154.946H333.99C336.199 154.946 337.99 156.737 337.99 158.946V247.026H317.376V158.946Z" fill="url(#paint2_linear_10_1990)"/>
<path d="M417.011 226.549C417.011 224.34 418.802 222.549 421.011 222.549H433.625C435.834 222.549 437.625 224.34 437.625 226.549V247.026H417.011V226.549Z" fill="url(#paint3_linear_10_1990)"/>
<path d="M516.646 174.098C516.646 171.889 518.437 170.098 520.646 170.098H533.26C535.469 170.098 537.26 171.889 537.26 174.098V247.026H516.646V174.098Z" fill="url(#paint4_linear_10_1990)"/>
<path d="M616.281 197.41C616.281 195.201 618.071 193.41 620.281 193.41H632.895C635.104 193.41 636.895 195.201 636.895 197.41V247.026H616.281V197.41Z" fill="url(#paint5_linear_10_1990)"/>
<path d="M715.915 86.6807C715.915 84.4715 717.706 82.6807 719.915 82.6807H732.53C734.739 82.6807 736.53 84.4715 736.53 86.6807V247.026H715.915V86.6807Z" fill="url(#paint6_linear_10_1990)"/>
<path d="M64.4095 20.7892H60.7615L60.0895 22.6492H58.9375L61.9615 14.3332H63.2215L66.2335 22.6492H65.0815L64.4095 20.7892ZM64.0975 19.9012L62.5855 15.6772L61.0735 19.9012H64.0975ZM68.6434 13.7692V22.6492H67.5514V13.7692H68.6434ZM71.5966 13.7692V22.6492H70.5046V13.7692H71.5966ZM84.5649 15.9532C85.0769 15.9532 85.5329 16.0612 85.9329 16.2772C86.3329 16.4852 86.6489 16.8012 86.8809 17.2252C87.1129 17.6492 87.2289 18.1652 87.2289 18.7732V22.6492H86.1489V18.9292C86.1489 18.2732 85.9849 17.7732 85.6569 17.4292C85.3369 17.0772 84.9009 16.9012 84.3489 16.9012C83.7809 16.9012 83.3289 17.0852 82.9929 17.4532C82.6569 17.8132 82.4889 18.3372 82.4889 19.0252V22.6492H81.4089V18.9292C81.4089 18.2732 81.2449 17.7732 80.9169 17.4292C80.5969 17.0772 80.1609 16.9012 79.6089 16.9012C79.0409 16.9012 78.5889 17.0852 78.2529 17.4532C77.9169 17.8132 77.7489 18.3372 77.7489 19.0252V22.6492H76.6569V16.0732H77.7489V17.0212C77.9649 16.6772 78.2529 16.4132 78.6129 16.2292C78.9809 16.0452 79.3849 15.9532 79.8249 15.9532C80.3769 15.9532 80.8649 16.0772 81.2889 16.3252C81.7129 16.5732 82.0289 16.9372 82.2369 17.4172C82.4209 16.9532 82.7249 16.5932 83.1489 16.3372C83.5729 16.0812 84.0449 15.9532 84.5649 15.9532ZM91.8882 22.7572C91.2722 22.7572 90.7122 22.6172 90.2082 22.3372C89.7122 22.0572 89.3202 21.6612 89.0322 21.1492C88.7522 20.6292 88.6122 20.0292 88.6122 19.3492C88.6122 18.6772 88.7562 18.0852 89.0442 17.5732C89.3402 17.0532 89.7402 16.6572 90.2442 16.3852C90.7482 16.1052 91.3122 15.9652 91.9362 15.9652C92.5602 15.9652 93.1242 16.1052 93.6282 16.3852C94.1322 16.6572 94.5282 17.0492 94.8162 17.5612C95.1122 18.0732 95.2602 18.6692 95.2602 19.3492C95.2602 20.0292 95.1082 20.6292 94.8042 21.1492C94.5082 21.6612 94.1042 22.0572 93.5922 22.3372C93.0802 22.6172 92.5122 22.7572 91.8882 22.7572ZM91.8882 21.7972C92.2802 21.7972 92.6482 21.7052 92.9922 21.5212C93.3362 21.3372 93.6122 21.0612 93.8202 20.6932C94.0362 20.3252 94.1442 19.8772 94.1442 19.3492C94.1442 18.8212 94.0402 18.3732 93.8322 18.0052C93.6242 17.6372 93.3522 17.3652 93.0162 17.1892C92.6802 17.0052 92.3162 16.9132 91.9242 16.9132C91.5242 16.9132 91.1562 17.0052 90.8202 17.1892C90.4922 17.3652 90.2282 17.6372 90.0282 18.0052C89.8282 18.3732 89.7282 18.8212 89.7282 19.3492C89.7282 19.8852 89.8242 20.3372 90.0162 20.7052C90.2162 21.0732 90.4802 21.3492 90.8082 21.5332C91.1362 21.7092 91.4962 21.7972 91.8882 21.7972ZM96.288 19.3372C96.288 18.6652 96.424 18.0772 96.696 17.5732C96.968 17.0612 97.34 16.6652 97.812 16.3852C98.292 16.1052 98.828 15.9652 99.42 15.9652C99.932 15.9652 100.408 16.0852 100.848 16.3252C101.288 16.5572 101.624 16.8652 101.856 17.2492V13.7692H102.96V22.6492H101.856V21.4132C101.64 21.8052 101.32 22.1292 100.896 22.3852C100.472 22.6332 99.976 22.7572 99.408 22.7572C98.824 22.7572 98.292 22.6132 97.812 22.3252C97.34 22.0372 96.968 21.6332 96.696 21.1132C96.424 20.5932 96.288 20.0012 96.288 19.3372ZM101.856 19.3492C101.856 18.8532 101.756 18.4212 101.556 18.0532C101.356 17.6852 101.084 17.4052 100.74 17.2132C100.404 17.0132 100.032 16.9132 99.624 16.9132C99.216 16.9132 98.844 17.0092 98.508 17.2012C98.172 17.3932 97.904 17.6732 97.704 18.0412C97.504 18.4092 97.404 18.8412 97.404 19.3372C97.404 19.8412 97.504 20.2812 97.704 20.6572C97.904 21.0252 98.172 21.3092 98.508 21.5092C98.844 21.7012 99.216 21.7972 99.624 21.7972C100.032 21.7972 100.404 21.7012 100.74 21.5092C101.084 21.3092 101.356 21.0252 101.556 20.6572C101.756 20.2812 101.856 19.8452 101.856 19.3492ZM110.805 19.1092C110.805 19.3172 110.793 19.5372 110.769 19.7692H105.513C105.553 20.4172 105.773 20.9252 106.173 21.2932C106.581 21.6532 107.073 21.8332 107.649 21.8332C108.121 21.8332 108.513 21.7252 108.825 21.5092C109.145 21.2852 109.369 20.9892 109.497 20.6212H110.673C110.497 21.2532 110.145 21.7692 109.617 22.1692C109.089 22.5612 108.433 22.7572 107.649 22.7572C107.025 22.7572 106.465 22.6172 105.969 22.3372C105.481 22.0572 105.097 21.6612 104.817 21.1492C104.537 20.6292 104.397 20.0292 104.397 19.3492C104.397 18.6692 104.533 18.0732 104.805 17.5612C105.077 17.0492 105.457 16.6572 105.945 16.3852C106.441 16.1052 107.009 15.9652 107.649 15.9652C108.273 15.9652 108.825 16.1012 109.305 16.3732C109.785 16.6452 110.153 17.0212 110.409 17.5012C110.673 17.9732 110.805 18.5092 110.805 19.1092ZM109.677 18.8812C109.677 18.4652 109.585 18.1092 109.401 17.8132C109.217 17.5092 108.965 17.2812 108.645 17.1292C108.333 16.9692 107.985 16.8892 107.601 16.8892C107.049 16.8892 106.577 17.0652 106.185 17.4172C105.801 17.7692 105.581 18.2572 105.525 18.8812H109.677ZM113.339 13.7692V22.6492H112.247V13.7692H113.339ZM124.231 16.0732V22.6492H123.139V21.6772C122.931 22.0132 122.639 22.2772 122.263 22.4692C121.895 22.6532 121.487 22.7452 121.039 22.7452C120.527 22.7452 120.067 22.6412 119.659 22.4332C119.251 22.2172 118.927 21.8972 118.687 21.4732C118.455 21.0492 118.339 20.5332 118.339 19.9252V16.0732H119.419V19.7812C119.419 20.4292 119.583 20.9292 119.911 21.2812C120.239 21.6252 120.687 21.7972 121.255 21.7972C121.839 21.7972 122.299 21.6172 122.635 21.2572C122.971 20.8972 123.139 20.3732 123.139 19.6852V16.0732H124.231ZM128.403 22.7572C127.899 22.7572 127.447 22.6732 127.047 22.5052C126.647 22.3292 126.331 22.0892 126.099 21.7852C125.867 21.4732 125.739 21.1172 125.715 20.7172H126.843C126.875 21.0452 127.027 21.3132 127.299 21.5212C127.579 21.7292 127.943 21.8332 128.391 21.8332C128.807 21.8332 129.135 21.7412 129.375 21.5572C129.615 21.3732 129.735 21.1412 129.735 20.8612C129.735 20.5732 129.607 20.3612 129.351 20.2252C129.095 20.0812 128.699 19.9412 128.163 19.8052C127.675 19.6772 127.275 19.5492 126.963 19.4212C126.659 19.2852 126.395 19.0892 126.171 18.8332C125.955 18.5692 125.847 18.2252 125.847 17.8012C125.847 17.4652 125.947 17.1572 126.147 16.8772C126.347 16.5972 126.631 16.3772 126.999 16.2172C127.367 16.0492 127.787 15.9652 128.259 15.9652C128.987 15.9652 129.575 16.1492 130.023 16.5172C130.471 16.8852 130.711 17.3892 130.743 18.0292H129.651C129.627 17.6852 129.487 17.4092 129.231 17.2012C128.983 16.9932 128.647 16.8892 128.223 16.8892C127.831 16.8892 127.519 16.9732 127.287 17.1412C127.055 17.3092 126.939 17.5292 126.939 17.8012C126.939 18.0172 127.007 18.1972 127.143 18.3412C127.287 18.4772 127.463 18.5892 127.671 18.6772C127.887 18.7572 128.183 18.8492 128.559 18.9532C129.031 19.0812 129.415 19.2092 129.711 19.3372C130.007 19.4572 130.259 19.6412 130.467 19.8892C130.683 20.1372 130.795 20.4612 130.803 20.8612C130.803 21.2212 130.703 21.5452 130.503 21.8332C130.303 22.1212 130.019 22.3492 129.651 22.5172C129.291 22.6772 128.875 22.7572 128.403 22.7572ZM131.936 19.3372C131.936 18.6652 132.072 18.0772 132.344 17.5732C132.616 17.0612 132.988 16.6652 133.46 16.3852C133.94 16.1052 134.472 15.9652 135.056 15.9652C135.632 15.9652 136.132 16.0892 136.556 16.3372C136.98 16.5852 137.296 16.8972 137.504 17.2732V16.0732H138.608V22.6492H137.504V21.4252C137.288 21.8092 136.964 22.1292 136.532 22.3852C136.108 22.6332 135.612 22.7572 135.044 22.7572C134.46 22.7572 133.932 22.6132 133.46 22.3252C132.988 22.0372 132.616 21.6332 132.344 21.1132C132.072 20.5932 131.936 20.0012 131.936 19.3372ZM137.504 19.3492C137.504 18.8532 137.404 18.4212 137.204 18.0532C137.004 17.6852 136.732 17.4052 136.388 17.2132C136.052 17.0132 135.68 16.9132 135.272 16.9132C134.864 16.9132 134.492 17.0092 134.156 17.2012C133.82 17.3932 133.552 17.6732 133.352 18.0412C133.152 18.4092 133.052 18.8412 133.052 19.3372C133.052 19.8412 133.152 20.2812 133.352 20.6572C133.552 21.0252 133.82 21.3092 134.156 21.5092C134.492 21.7012 134.864 21.7972 135.272 21.7972C135.68 21.7972 136.052 21.7012 136.388 21.5092C136.732 21.3092 137.004 21.0252 137.204 20.6572C137.404 20.2812 137.504 19.8452 137.504 19.3492ZM143.166 15.9652C143.734 15.9652 144.23 16.0892 144.654 16.3372C145.086 16.5852 145.406 16.8972 145.614 17.2732V16.0732H146.718V22.7932C146.718 23.3932 146.59 23.9252 146.334 24.3892C146.078 24.8612 145.71 25.2292 145.23 25.4932C144.758 25.7572 144.206 25.8892 143.574 25.8892C142.71 25.8892 141.99 25.6852 141.414 25.2772C140.838 24.8692 140.498 24.3132 140.394 23.6092H141.474C141.594 24.0092 141.842 24.3292 142.218 24.5692C142.594 24.8172 143.046 24.9412 143.574 24.9412C144.174 24.9412 144.662 24.7532 145.038 24.3772C145.422 24.0012 145.614 23.4732 145.614 22.7932V21.4132C145.398 21.7972 145.078 22.1172 144.654 22.3732C144.23 22.6292 143.734 22.7572 143.166 22.7572C142.582 22.7572 142.05 22.6132 141.57 22.3252C141.098 22.0372 140.726 21.6332 140.454 21.1132C140.182 20.5932 140.046 20.0012 140.046 19.3372C140.046 18.6652 140.182 18.0772 140.454 17.5732C140.726 17.0612 141.098 16.6652 141.57 16.3852C142.05 16.1052 142.582 15.9652 143.166 15.9652ZM145.614 19.3492C145.614 18.8532 145.514 18.4212 145.314 18.0532C145.114 17.6852 144.842 17.4052 144.498 17.2132C144.162 17.0132 143.79 16.9132 143.382 16.9132C142.974 16.9132 142.602 17.0092 142.266 17.2012C141.93 17.3932 141.662 17.6732 141.462 18.0412C141.262 18.4092 141.162 18.8412 141.162 19.3372C141.162 19.8412 141.262 20.2812 141.462 20.6572C141.662 21.0252 141.93 21.3092 142.266 21.5092C142.602 21.7012 142.974 21.7972 143.382 21.7972C143.79 21.7972 144.162 21.7012 144.498 21.5092C144.842 21.3092 145.114 21.0252 145.314 20.6572C145.514 20.2812 145.614 19.8452 145.614 19.3492ZM154.563 19.1092C154.563 19.3172 154.551 19.5372 154.527 19.7692H149.271C149.311 20.4172 149.531 20.9252 149.931 21.2932C150.339 21.6532 150.831 21.8332 151.407 21.8332C151.879 21.8332 152.271 21.7252 152.583 21.5092C152.903 21.2852 153.127 20.9892 153.255 20.6212H154.431C154.255 21.2532 153.903 21.7692 153.375 22.1692C152.847 22.5612 152.191 22.7572 151.407 22.7572C150.783 22.7572 150.223 22.6172 149.727 22.3372C149.239 22.0572 148.855 21.6612 148.575 21.1492C148.295 20.6292 148.155 20.0292 148.155 19.3492C148.155 18.6692 148.291 18.0732 148.563 17.5612C148.835 17.0492 149.215 16.6572 149.703 16.3852C150.199 16.1052 150.767 15.9652 151.407 15.9652C152.031 15.9652 152.583 16.1012 153.063 16.3732C153.543 16.6452 153.911 17.0212 154.167 17.5012C154.431 17.9732 154.563 18.5092 154.563 19.1092ZM153.435 18.8812C153.435 18.4652 153.343 18.1092 153.159 17.8132C152.975 17.5092 152.723 17.2812 152.403 17.1292C152.091 16.9692 151.743 16.8892 151.359 16.8892C150.807 16.8892 150.335 17.0652 149.943 17.4172C149.559 17.7692 149.339 18.2572 149.283 18.8812H153.435ZM162.072 22.7572C161.456 22.7572 160.896 22.6172 160.392 22.3372C159.896 22.0572 159.504 21.6612 159.216 21.1492C158.936 20.6292 158.796 20.0292 158.796 19.3492C158.796 18.6772 158.94 18.0852 159.228 17.5732C159.524 17.0532 159.924 16.6572 160.428 16.3852C160.932 16.1052 161.496 15.9652 162.12 15.9652C162.744 15.9652 163.308 16.1052 163.812 16.3852C164.316 16.6572 164.712 17.0492 165 17.5612C165.296 18.0732 165.444 18.6692 165.444 19.3492C165.444 20.0292 165.292 20.6292 164.988 21.1492C164.692 21.6612 164.288 22.0572 163.776 22.3372C163.264 22.6172 162.696 22.7572 162.072 22.7572ZM162.072 21.7972C162.464 21.7972 162.832 21.7052 163.176 21.5212C163.52 21.3372 163.796 21.0612 164.004 20.6932C164.22 20.3252 164.328 19.8772 164.328 19.3492C164.328 18.8212 164.224 18.3732 164.016 18.0052C163.808 17.6372 163.536 17.3652 163.2 17.1892C162.864 17.0052 162.5 16.9132 162.108 16.9132C161.708 16.9132 161.34 17.0052 161.004 17.1892C160.676 17.3652 160.412 17.6372 160.212 18.0052C160.012 18.3732 159.912 18.8212 159.912 19.3492C159.912 19.8852 160.008 20.3372 160.2 20.7052C160.4 21.0732 160.664 21.3492 160.992 21.5332C161.32 21.7092 161.68 21.7972 162.072 21.7972ZM169.556 16.9732H168.176V22.6492H167.084V16.9732H166.232V16.0732H167.084V15.6052C167.084 14.8692 167.272 14.3332 167.648 13.9972C168.032 13.6532 168.644 13.4812 169.484 13.4812V14.3932C169.004 14.3932 168.664 14.4892 168.464 14.6812C168.272 14.8652 168.176 15.1732 168.176 15.6052V16.0732H169.556V16.9732ZM173.62 19.3372C173.62 18.6652 173.756 18.0772 174.028 17.5732C174.3 17.0612 174.672 16.6652 175.144 16.3852C175.624 16.1052 176.156 15.9652 176.74 15.9652C177.316 15.9652 177.816 16.0892 178.24 16.3372C178.664 16.5852 178.98 16.8972 179.188 17.2732V16.0732H180.292V22.6492H179.188V21.4252C178.972 21.8092 178.648 22.1292 178.216 22.3852C177.792 22.6332 177.296 22.7572 176.728 22.7572C176.144 22.7572 175.616 22.6132 175.144 22.3252C174.672 22.0372 174.3 21.6332 174.028 21.1132C173.756 20.5932 173.62 20.0012 173.62 19.3372ZM179.188 19.3492C179.188 18.8532 179.088 18.4212 178.888 18.0532C178.688 17.6852 178.416 17.4052 178.072 17.2132C177.736 17.0132 177.364 16.9132 176.956 16.9132C176.548 16.9132 176.176 17.0092 175.84 17.2012C175.504 17.3932 175.236 17.6732 175.036 18.0412C174.836 18.4092 174.736 18.8412 174.736 19.3372C174.736 19.8412 174.836 20.2812 175.036 20.6572C175.236 21.0252 175.504 21.3092 175.84 21.5092C176.176 21.7012 176.548 21.7972 176.956 21.7972C177.364 21.7972 177.736 21.7012 178.072 21.5092C178.416 21.3092 178.688 21.0252 178.888 20.6572C179.088 20.2812 179.188 19.8452 179.188 19.3492ZM183.229 13.7692V22.6492H182.137V13.7692H183.229ZM186.183 13.7692V22.6492H185.091V13.7692H186.183ZM190.835 19.3492C190.835 18.6692 190.971 18.0772 191.243 17.5732C191.515 17.0612 191.891 16.6652 192.371 16.3852C192.859 16.1052 193.415 15.9652 194.039 15.9652C194.847 15.9652 195.511 16.1612 196.031 16.5532C196.559 16.9452 196.907 17.4892 197.075 18.1852H195.899C195.787 17.7852 195.567 17.4692 195.239 17.2372C194.919 17.0052 194.519 16.8892 194.039 16.8892C193.415 16.8892 192.911 17.1052 192.527 17.5372C192.143 17.9612 191.951 18.5652 191.951 19.3492C191.951 20.1412 192.143 20.7532 192.527 21.1852C192.911 21.6172 193.415 21.8332 194.039 21.8332C194.519 21.8332 194.919 21.7212 195.239 21.4972C195.559 21.2732 195.779 20.9532 195.899 20.5372H197.075C196.899 21.2092 196.547 21.7492 196.019 22.1572C195.491 22.5572 194.831 22.7572 194.039 22.7572C193.415 22.7572 192.859 22.6172 192.371 22.3372C191.891 22.0572 191.515 21.6612 191.243 21.1492C190.971 20.6372 190.835 20.0372 190.835 19.3492ZM199.624 13.7692V22.6492H198.532V13.7692H199.624ZM202.049 15.0052C201.841 15.0052 201.665 14.9332 201.521 14.7892C201.377 14.6452 201.305 14.4692 201.305 14.2612C201.305 14.0532 201.377 13.8772 201.521 13.7332C201.665 13.5892 201.841 13.5172 202.049 13.5172C202.249 13.5172 202.417 13.5892 202.553 13.7332C202.697 13.8772 202.769 14.0532 202.769 14.2612C202.769 14.4692 202.697 14.6452 202.553 14.7892C202.417 14.9332 202.249 15.0052 202.049 15.0052ZM202.577 16.0732V22.6492H201.485V16.0732H202.577ZM210.438 19.1092C210.438 19.3172 210.426 19.5372 210.402 19.7692H205.146C205.186 20.4172 205.406 20.9252 205.806 21.2932C206.214 21.6532 206.706 21.8332 207.282 21.8332C207.754 21.8332 208.146 21.7252 208.458 21.5092C208.778 21.2852 209.002 20.9892 209.13 20.6212H210.306C210.13 21.2532 209.778 21.7692 209.25 22.1692C208.722 22.5612 208.066 22.7572 207.282 22.7572C206.658 22.7572 206.098 22.6172 205.602 22.3372C205.114 22.0572 204.73 21.6612 204.45 21.1492C204.17 20.6292 204.03 20.0292 204.03 19.3492C204.03 18.6692 204.166 18.0732 204.438 17.5612C204.71 17.0492 205.09 16.6572 205.578 16.3852C206.074 16.1052 206.642 15.9652 207.282 15.9652C207.906 15.9652 208.458 16.1012 208.938 16.3732C209.418 16.6452 209.786 17.0212 210.042 17.5012C210.306 17.9732 210.438 18.5092 210.438 19.1092ZM209.31 18.8812C209.31 18.4652 209.218 18.1092 209.034 17.8132C208.85 17.5092 208.598 17.2812 208.278 17.1292C207.966 16.9692 207.618 16.8892 207.234 16.8892C206.682 16.8892 206.21 17.0652 205.818 17.4172C205.434 17.7692 205.214 18.2572 205.158 18.8812H209.31ZM215.084 15.9532C215.884 15.9532 216.532 16.1972 217.028 16.6852C217.524 17.1652 217.772 17.8612 217.772 18.7732V22.6492H216.692V18.9292C216.692 18.2732 216.528 17.7732 216.2 17.4292C215.872 17.0772 215.424 16.9012 214.856 16.9012C214.28 16.9012 213.82 17.0812 213.476 17.4412C213.14 17.8012 212.972 18.3252 212.972 19.0132V22.6492H211.88V16.0732H212.972V17.0092C213.188 16.6732 213.48 16.4132 213.848 16.2292C214.224 16.0452 214.636 15.9532 215.084 15.9532ZM220.887 16.9732V20.8492C220.887 21.1692 220.955 21.3972 221.091 21.5332C221.227 21.6612 221.463 21.7252 221.799 21.7252H222.603V22.6492H221.619C221.011 22.6492 220.555 22.5092 220.251 22.2292C219.947 21.9492 219.795 21.4892 219.795 20.8492V16.9732H218.943V16.0732H219.795V14.4172H220.887V16.0732H222.603V16.9732H220.887ZM226.254 22.7572C225.75 22.7572 225.298 22.6732 224.898 22.5052C224.498 22.3292 224.182 22.0892 223.95 21.7852C223.718 21.4732 223.59 21.1172 223.566 20.7172H224.694C224.726 21.0452 224.878 21.3132 225.15 21.5212C225.43 21.7292 225.794 21.8332 226.242 21.8332C226.658 21.8332 226.986 21.7412 227.226 21.5572C227.466 21.3732 227.586 21.1412 227.586 20.8612C227.586 20.5732 227.458 20.3612 227.202 20.2252C226.946 20.0812 226.55 19.9412 226.014 19.8052C225.526 19.6772 225.126 19.5492 224.814 19.4212C224.51 19.2852 224.246 19.0892 224.022 18.8332C223.806 18.5692 223.698 18.2252 223.698 17.8012C223.698 17.4652 223.798 17.1572 223.998 16.8772C224.198 16.5972 224.482 16.3772 224.85 16.2172C225.218 16.0492 225.638 15.9652 226.11 15.9652C226.838 15.9652 227.426 16.1492 227.874 16.5172C228.322 16.8852 228.562 17.3892 228.594 18.0292H227.502C227.478 17.6852 227.338 17.4092 227.082 17.2012C226.834 16.9932 226.498 16.8892 226.074 16.8892C225.682 16.8892 225.37 16.9732 225.138 17.1412C224.906 17.3092 224.79 17.5292 224.79 17.8012C224.79 18.0172 224.858 18.1972 224.994 18.3412C225.138 18.4772 225.314 18.5892 225.522 18.6772C225.738 18.7572 226.034 18.8492 226.41 18.9532C226.882 19.0812 227.266 19.2092 227.562 19.3372C227.858 19.4572 228.11 19.6412 228.318 19.8892C228.534 20.1372 228.646 20.4612 228.654 20.8612C228.654 21.2212 228.554 21.5452 228.354 21.8332C228.154 22.1212 227.87 22.3492 227.502 22.5172C227.142 22.6772 226.726 22.7572 226.254 22.7572Z" fill="#464255"/>
<path d="M696.016 42.6442H698.944V43.5322H694.924V35.1682H696.016V42.6442ZM699.696 40.2202C699.696 39.5482 699.832 38.9602 700.104 38.4562C700.376 37.9442 700.748 37.5482 701.22 37.2682C701.7 36.9882 702.232 36.8482 702.816 36.8482C703.392 36.8482 703.892 36.9722 704.316 37.2202C704.74 37.4682 705.056 37.7802 705.264 38.1562V36.9562H706.368V43.5322H705.264V42.3082C705.048 42.6922 704.724 43.0122 704.292 43.2682C703.868 43.5162 703.372 43.6402 702.804 43.6402C702.22 43.6402 701.692 43.4962 701.22 43.2082C700.748 42.9202 700.376 42.5162 700.104 41.9962C699.832 41.4762 699.696 40.8842 699.696 40.2202ZM705.264 40.2322C705.264 39.7362 705.164 39.3042 704.964 38.9362C704.764 38.5682 704.492 38.2882 704.148 38.0962C703.812 37.8962 703.44 37.7962 703.032 37.7962C702.624 37.7962 702.252 37.8922 701.916 38.0842C701.58 38.2762 701.312 38.5562 701.112 38.9242C700.912 39.2922 700.812 39.7242 700.812 40.2202C700.812 40.7242 700.912 41.1642 701.112 41.5402C701.312 41.9082 701.58 42.1922 701.916 42.3922C702.252 42.5842 702.624 42.6802 703.032 42.6802C703.44 42.6802 703.812 42.5842 704.148 42.3922C704.492 42.1922 704.764 41.9082 704.964 41.5402C705.164 41.1642 705.264 40.7282 705.264 40.2322ZM710.541 43.6402C710.037 43.6402 709.585 43.5562 709.185 43.3882C708.785 43.2122 708.469 42.9722 708.237 42.6682C708.005 42.3562 707.877 42.0002 707.853 41.6002H708.981C709.013 41.9282 709.165 42.1962 709.437 42.4042C709.717 42.6122 710.081 42.7162 710.529 42.7162C710.945 42.7162 711.273 42.6242 711.513 42.4402C711.753 42.2562 711.873 42.0242 711.873 41.7442C711.873 41.4562 711.745 41.2442 711.489 41.1082C711.233 40.9642 710.837 40.8242 710.301 40.6882C709.813 40.5602 709.413 40.4322 709.101 40.3042C708.797 40.1682 708.533 39.9722 708.309 39.7162C708.093 39.4522 707.985 39.1082 707.985 38.6842C707.985 38.3482 708.085 38.0402 708.285 37.7602C708.485 37.4802 708.769 37.2602 709.137 37.1002C709.505 36.9322 709.925 36.8482 710.397 36.8482C711.125 36.8482 711.713 37.0322 712.161 37.4002C712.609 37.7682 712.849 38.2722 712.881 38.9122H711.789C711.765 38.5682 711.625 38.2922 711.369 38.0842C711.121 37.8762 710.785 37.7722 710.361 37.7722C709.969 37.7722 709.657 37.8562 709.425 38.0242C709.193 38.1922 709.077 38.4122 709.077 38.6842C709.077 38.9002 709.145 39.0802 709.281 39.2242C709.425 39.3602 709.601 39.4722 709.809 39.5602C710.025 39.6402 710.321 39.7322 710.697 39.8362C711.169 39.9642 711.553 40.0922 711.849 40.2202C712.145 40.3402 712.397 40.5242 712.605 40.7722C712.821 41.0202 712.933 41.3442 712.941 41.7442C712.941 42.1042 712.841 42.4282 712.641 42.7162C712.441 43.0042 712.157 43.2322 711.789 43.4002C711.429 43.5602 711.013 43.6402 710.541 43.6402ZM715.815 37.8562V41.7322C715.815 42.0522 715.883 42.2802 716.019 42.4162C716.155 42.5442 716.391 42.6082 716.727 42.6082H717.531V43.5322H716.547C715.939 43.5322 715.483 43.3922 715.179 43.1122C714.875 42.8322 714.723 42.3722 714.723 41.7322V37.8562H713.871V36.9562H714.723V35.3002H715.815V36.9562H717.531V37.8562H715.815ZM727.213 35.7082L723.877 43.5322H722.773L726.157 35.8162H721.525V34.8802H727.213V35.7082ZM731.395 40.2202C731.395 39.5482 731.531 38.9602 731.803 38.4562C732.075 37.9442 732.447 37.5482 732.919 37.2682C733.399 36.9882 733.935 36.8482 734.527 36.8482C735.039 36.8482 735.515 36.9682 735.955 37.2082C736.395 37.4402 736.731 37.7482 736.963 38.1322V34.6522H738.067V43.5322H736.963V42.2962C736.747 42.6882 736.427 43.0122 736.003 43.2682C735.579 43.5162 735.083 43.6402 734.515 43.6402C733.931 43.6402 733.399 43.4962 732.919 43.2082C732.447 42.9202 732.075 42.5162 731.803 41.9962C731.531 41.4762 731.395 40.8842 731.395 40.2202ZM736.963 40.2322C736.963 39.7362 736.863 39.3042 736.663 38.9362C736.463 38.5682 736.191 38.2882 735.847 38.0962C735.511 37.8962 735.139 37.7962 734.731 37.7962C734.323 37.7962 733.951 37.8922 733.615 38.0842C733.279 38.2762 733.011 38.5562 732.811 38.9242C732.611 39.2922 732.511 39.7242 732.511 40.2202C732.511 40.7242 732.611 41.1642 732.811 41.5402C733.011 41.9082 733.279 42.1922 733.615 42.3922C733.951 42.5842 734.323 42.6802 734.731 42.6802C735.139 42.6802 735.511 42.5842 735.847 42.3922C736.191 42.1922 736.463 41.9082 736.663 41.5402C736.863 41.1642 736.963 40.7282 736.963 40.2322ZM739.504 40.2202C739.504 39.5482 739.64 38.9602 739.912 38.4562C740.184 37.9442 740.556 37.5482 741.028 37.2682C741.508 36.9882 742.04 36.8482 742.624 36.8482C743.2 36.8482 743.7 36.9722 744.124 37.2202C744.548 37.4682 744.864 37.7802 745.072 38.1562V36.9562H746.176V43.5322H745.072V42.3082C744.856 42.6922 744.532 43.0122 744.1 43.2682C743.676 43.5162 743.18 43.6402 742.612 43.6402C742.028 43.6402 741.5 43.4962 741.028 43.2082C740.556 42.9202 740.184 42.5162 739.912 41.9962C739.64 41.4762 739.504 40.8842 739.504 40.2202ZM745.072 40.2322C745.072 39.7362 744.972 39.3042 744.772 38.9362C744.572 38.5682 744.3 38.2882 743.956 38.0962C743.62 37.8962 743.248 37.7962 742.84 37.7962C742.432 37.7962 742.06 37.8922 741.724 38.0842C741.388 38.2762 741.12 38.5562 740.92 38.9242C740.72 39.2922 740.62 39.7242 740.62 40.2202C740.62 40.7242 740.72 41.1642 740.92 41.5402C741.12 41.9082 741.388 42.1922 741.724 42.3922C742.06 42.5842 742.432 42.6802 742.84 42.6802C743.248 42.6802 743.62 42.5842 743.956 42.3922C744.3 42.1922 744.572 41.9082 744.772 41.5402C744.972 41.1642 745.072 40.7282 745.072 40.2322ZM753.686 36.9562L749.726 46.6282H748.598L749.894 43.4602L747.242 36.9562H748.454L750.518 42.2842L752.558 36.9562H753.686ZM757.111 43.6402C756.607 43.6402 756.155 43.5562 755.755 43.3882C755.355 43.2122 755.039 42.9722 754.807 42.6682C754.575 42.3562 754.447 42.0002 754.423 41.6002H755.551C755.583 41.9282 755.735 42.1962 756.007 42.4042C756.287 42.6122 756.651 42.7162 757.099 42.7162C757.515 42.7162 757.843 42.6242 758.083 42.4402C758.323 42.2562 758.443 42.0242 758.443 41.7442C758.443 41.4562 758.315 41.2442 758.059 41.1082C757.803 40.9642 757.407 40.8242 756.871 40.6882C756.383 40.5602 755.983 40.4322 755.671 40.3042C755.367 40.1682 755.103 39.9722 754.879 39.7162C754.663 39.4522 754.555 39.1082 754.555 38.6842C754.555 38.3482 754.655 38.0402 754.855 37.7602C755.055 37.4802 755.339 37.2602 755.707 37.1002C756.075 36.9322 756.495 36.8482 756.967 36.8482C757.695 36.8482 758.283 37.0322 758.731 37.4002C759.179 37.7682 759.419 38.2722 759.451 38.9122H758.359C758.335 38.5682 758.195 38.2922 757.939 38.0842C757.691 37.8762 757.355 37.7722 756.931 37.7722C756.539 37.7722 756.227 37.8562 755.995 38.0242C755.763 38.1922 755.647 38.4122 755.647 38.6842C755.647 38.9002 755.715 39.0802 755.851 39.2242C755.995 39.3602 756.171 39.4722 756.379 39.5602C756.595 39.6402 756.891 39.7322 757.267 39.8362C757.739 39.9642 758.123 40.0922 758.419 40.2202C758.715 40.3402 758.967 40.5242 759.175 40.7722C759.391 41.0202 759.503 41.3442 759.511 41.7442C759.511 42.1042 759.411 42.4282 759.211 42.7162C759.011 43.0042 758.727 43.2322 758.359 43.4002C757.999 43.5602 757.583 43.6402 757.111 43.6402Z" fill="#464255"/>
<path d="M611.471 22.9216V20.8576L619.535 9.28958H622.847V20.5456H625.079V22.9216H622.847V26.5696H620.159V22.9216H611.471ZM620.279 12.0736L614.615 20.5456H620.279V12.0736ZM628.858 22.8496C630.394 21.5216 631.602 20.4336 632.482 19.5856C633.378 18.7216 634.122 17.8256 634.714 16.8976C635.306 15.9696 635.602 15.0416 635.602 14.1136C635.602 13.1536 635.37 12.4016 634.906 11.8576C634.458 11.3136 633.746 11.0416 632.77 11.0416C631.826 11.0416 631.09 11.3456 630.562 11.9536C630.05 12.5456 629.778 13.3456 629.746 14.3536H627.106C627.154 12.5296 627.698 11.1376 628.738 10.1776C629.794 9.20158 631.13 8.71358 632.746 8.71358C634.49 8.71358 635.85 9.19358 636.826 10.1536C637.818 11.1136 638.314 12.3936 638.314 13.9936C638.314 15.1456 638.018 16.2576 637.426 17.3296C636.85 18.3856 636.154 19.3376 635.338 20.1856C634.538 21.0176 633.514 21.9856 632.266 23.0896L631.186 24.0496H638.794V26.3296H627.13V24.3376L628.858 22.8496ZM641.198 17.5936C641.198 14.8256 641.662 12.6656 642.59 11.1136C643.534 9.54558 645.15 8.76158 647.438 8.76158C649.726 8.76158 651.334 9.54558 652.262 11.1136C653.206 12.6656 653.678 14.8256 653.678 17.5936C653.678 20.3936 653.206 22.5856 652.262 24.1696C651.334 25.7376 649.726 26.5216 647.438 26.5216C645.15 26.5216 643.534 25.7376 642.59 24.1696C641.662 22.5856 641.198 20.3936 641.198 17.5936ZM650.99 17.5936C650.99 16.2976 650.902 15.2016 650.726 14.3056C650.566 13.4096 650.23 12.6816 649.718 12.1216C649.206 11.5456 648.446 11.2576 647.438 11.2576C646.43 11.2576 645.67 11.5456 645.158 12.1216C644.646 12.6816 644.302 13.4096 644.126 14.3056C643.966 15.2016 643.886 16.2976 643.886 17.5936C643.886 18.9376 643.966 20.0656 644.126 20.9776C644.286 21.8896 644.622 22.6256 645.134 23.1856C645.662 23.7456 646.43 24.0256 647.438 24.0256C648.446 24.0256 649.206 23.7456 649.718 23.1856C650.246 22.6256 650.59 21.8896 650.75 20.9776C650.91 20.0656 650.99 18.9376 650.99 17.5936ZM662.165 19.9696L668.261 26.5696H664.565L659.669 20.8816V26.5696H656.933V8.80958H659.669V19.1296L664.469 13.3456H668.261L662.165 19.9696ZM687.232 9.88958V12.1216H682.792V26.5696H680.056V12.1216H675.592V9.88958H687.232ZM695.739 26.7856C694.491 26.7856 693.363 26.5056 692.355 25.9456C691.347 25.3696 690.555 24.5696 689.979 23.5456C689.403 22.5056 689.115 21.3056 689.115 19.9456C689.115 18.6016 689.411 17.4096 690.003 16.3696C690.595 15.3296 691.403 14.5296 692.427 13.9696C693.451 13.4096 694.595 13.1296 695.859 13.1296C697.123 13.1296 698.267 13.4096 699.291 13.9696C700.315 14.5296 701.123 15.3296 701.715 16.3696C702.307 17.4096 702.603 18.6016 702.603 19.9456C702.603 21.2896 702.299 22.4816 701.691 23.5216C701.083 24.5616 700.251 25.3696 699.195 25.9456C698.155 26.5056 697.003 26.7856 695.739 26.7856ZM695.739 24.4096C696.443 24.4096 697.099 24.2416 697.707 23.9056C698.331 23.5696 698.835 23.0656 699.219 22.3936C699.603 21.7216 699.795 20.9056 699.795 19.9456C699.795 18.9856 699.611 18.1776 699.243 17.5216C698.875 16.8496 698.387 16.3456 697.779 16.0096C697.171 15.6736 696.515 15.5056 695.811 15.5056C695.107 15.5056 694.451 15.6736 693.843 16.0096C693.251 16.3456 692.779 16.8496 692.427 17.5216C692.075 18.1776 691.899 18.9856 691.899 19.9456C691.899 21.3696 692.259 22.4736 692.979 23.2576C693.715 24.0256 694.635 24.4096 695.739 24.4096ZM710.54 19.9696L716.636 26.5696H712.94L708.044 20.8816V26.5696H705.308V8.80958H708.044V19.1296L712.844 13.3456H716.636L710.54 19.9696ZM730.717 19.6336C730.717 20.1296 730.685 20.5776 730.621 20.9776H720.517C720.597 22.0336 720.989 22.8816 721.693 23.5216C722.397 24.1616 723.261 24.4816 724.285 24.4816C725.757 24.4816 726.797 23.8656 727.405 22.6336H730.357C729.957 23.8496 729.229 24.8496 728.173 25.6336C727.133 26.4016 725.837 26.7856 724.285 26.7856C723.021 26.7856 721.885 26.5056 720.877 25.9456C719.885 25.3696 719.101 24.5696 718.525 23.5456C717.965 22.5056 717.685 21.3056 717.685 19.9456C717.685 18.5856 717.957 17.3936 718.501 16.3696C719.061 15.3296 719.837 14.5296 720.829 13.9696C721.837 13.4096 722.989 13.1296 724.285 13.1296C725.533 13.1296 726.645 13.4016 727.621 13.9456C728.597 14.4896 729.357 15.2576 729.901 16.2496C730.445 17.2256 730.717 18.3536 730.717 19.6336ZM727.861 18.7696C727.845 17.7616 727.485 16.9536 726.781 16.3456C726.077 15.7376 725.205 15.4336 724.165 15.4336C723.221 15.4336 722.413 15.7376 721.741 16.3456C721.069 16.9376 720.669 17.7456 720.541 18.7696H727.861ZM740.081 13.1296C741.121 13.1296 742.049 13.3456 742.865 13.7776C743.697 14.2096 744.345 14.8496 744.809 15.6976C745.273 16.5456 745.505 17.5696 745.505 18.7696V26.5696H742.793V19.1776C742.793 17.9936 742.497 17.0896 741.905 16.4656C741.313 15.8256 740.505 15.5056 739.481 15.5056C738.457 15.5056 737.641 15.8256 737.033 16.4656C736.441 17.0896 736.145 17.9936 736.145 19.1776V26.5696H733.409V13.3456H736.145V14.8576C736.593 14.3136 737.161 13.8896 737.849 13.5856C738.553 13.2816 739.297 13.1296 740.081 13.1296ZM753.795 26.7856C752.755 26.7856 751.819 26.6016 750.987 26.2336C750.171 25.8496 749.523 25.3376 749.043 24.6976C748.563 24.0416 748.307 23.3136 748.275 22.5136H751.107C751.155 23.0736 751.419 23.5456 751.899 23.9296C752.395 24.2976 753.011 24.4816 753.747 24.4816C754.515 24.4816 755.107 24.3376 755.523 24.0496C755.955 23.7456 756.171 23.3616 756.171 22.8976C756.171 22.4016 755.931 22.0336 755.451 21.7936C754.987 21.5536 754.243 21.2896 753.219 21.0016C752.227 20.7296 751.419 20.4656 750.795 20.2096C750.171 19.9536 749.627 19.5616 749.163 19.0336C748.715 18.5056 748.491 17.8096 748.491 16.9456C748.491 16.2416 748.699 15.6016 749.115 15.0256C749.531 14.4336 750.123 13.9696 750.891 13.6336C751.675 13.2976 752.571 13.1296 753.579 13.1296C755.083 13.1296 756.291 13.5136 757.203 14.2816C758.131 15.0336 758.627 16.0656 758.691 17.3776H755.955C755.907 16.7856 755.667 16.3136 755.235 15.9616C754.803 15.6096 754.219 15.4336 753.483 15.4336C752.763 15.4336 752.211 15.5696 751.827 15.8416C751.443 16.1136 751.251 16.4736 751.251 16.9216C751.251 17.2736 751.379 17.5696 751.635 17.8096C751.891 18.0496 752.203 18.2416 752.571 18.3856C752.939 18.5136 753.483 18.6816 754.203 18.8896C755.163 19.1456 755.947 19.4096 756.555 19.6816C757.179 19.9376 757.715 20.3216 758.163 20.8336C758.611 21.3456 758.843 22.0256 758.859 22.8736C758.859 23.6256 758.651 24.2976 758.235 24.8896C757.819 25.4816 757.227 25.9456 756.459 26.2816C755.707 26.6176 754.819 26.7856 753.795 26.7856Z" fill="#464255"/>
<defs>
<linearGradient id="paint0_linear_10_1990" x1="128.413" y1="117.648" x2="128.413" y2="247.026" gradientUnits="userSpaceOnUse">
<stop stop-color="#C3DEDC"/>
<stop offset="1" stop-color="#9BB7C2"/>
</linearGradient>
<linearGradient id="paint1_linear_10_1990" x1="228.048" y1="192.244" x2="228.048" y2="247.026" gradientUnits="userSpaceOnUse">
<stop stop-color="#C3DEDC"/>
<stop offset="1" stop-color="#9BB7C2"/>
</linearGradient>
<linearGradient id="paint2_linear_10_1990" x1="327.683" y1="154.946" x2="327.683" y2="247.026" gradientUnits="userSpaceOnUse">
<stop stop-color="#C3DEDC"/>
<stop offset="1" stop-color="#9BB7C2"/>
</linearGradient>
<linearGradient id="paint3_linear_10_1990" x1="427.318" y1="222.549" x2="427.318" y2="247.026" gradientUnits="userSpaceOnUse">
<stop stop-color="#C3DEDC"/>
<stop offset="1" stop-color="#9BB7C2"/>
</linearGradient>
<linearGradient id="paint4_linear_10_1990" x1="526.953" y1="170.098" x2="526.953" y2="247.026" gradientUnits="userSpaceOnUse">
<stop stop-color="#C3DEDC"/>
<stop offset="1" stop-color="#9BB7C2"/>
</linearGradient>
<linearGradient id="paint5_linear_10_1990" x1="626.588" y1="193.41" x2="626.588" y2="247.026" gradientUnits="userSpaceOnUse">
<stop stop-color="#C3DEDC"/>
<stop offset="1" stop-color="#9BB7C2"/>
</linearGradient>
<linearGradient id="paint6_linear_10_1990" x1="726.223" y1="82.6807" x2="726.223" y2="247.026" gradientUnits="userSpaceOnUse">
<stop stop-color="#C3DEDC"/>
<stop offset="1" stop-color="#9BB7C2"/>
</linearGradient>
</defs>
</svg>
