<svg width="20" height="10" viewBox="0 0 20 10" fill="none" xmlns="http://www.w3.org/2000/svg">
<path d="M14.83 0.119999C16.15 0.119999 17.24 0.519999 18.1 1.32C18.98 2.1 19.42 3.18 19.42 4.56C19.42 5.92 18.97 7.01 18.07 7.83C17.19 8.63 16.09 9.03 14.77 9.03C13.77 9.03 12.89 8.78 12.13 8.28C11.37 7.76 10.61 7.04 9.85 6.12C9.31 6.98 8.63 7.68 7.81 8.22C6.99 8.76 6.07 9.03 5.05 9.03C3.71 9.03 2.61 8.64 1.75 7.86C0.91 7.06 0.49 5.97 0.49 4.59C0.49 3.23 0.93 2.15 1.81 1.35C2.69 0.529999 3.79 0.119999 5.11 0.119999C6.11 0.119999 6.99 0.389999 7.75 0.93C8.51 1.45 9.26 2.18 10 3.12C10.52 2.24 11.19 1.52 12.01 0.959999C12.85 0.399999 13.79 0.119999 14.83 0.119999ZM5.2 7.02C5.88 7.02 6.53 6.81 7.15 6.39C7.77 5.97 8.29 5.4 8.71 4.68C8.03 3.82 7.43 3.18 6.91 2.76C6.41 2.32 5.85 2.1 5.23 2.1C4.49 2.1 3.89 2.32 3.43 2.76C2.99 3.2 2.77 3.81 2.77 4.59C2.77 5.35 2.99 5.95 3.43 6.39C3.87 6.81 4.46 7.02 5.2 7.02ZM14.65 7.05C15.39 7.05 15.98 6.83 16.42 6.39C16.88 5.95 17.11 5.34 17.11 4.56C17.11 3.8 16.89 3.21 16.45 2.79C16.01 2.35 15.42 2.13 14.68 2.13C13.98 2.13 13.31 2.35 12.67 2.79C12.05 3.23 11.53 3.82 11.11 4.56C11.71 5.36 12.28 5.98 12.82 6.42C13.38 6.84 13.99 7.05 14.65 7.05Z" fill="#00C2E4"/>
</svg>
