<svg width="14" height="14" viewBox="0 0 14 14" fill="none" xmlns="http://www.w3.org/2000/svg">
<g clip-path="url(#clip0_1_5371)">
<path d="M9.66694 1.08203L8.45694 2.29203L11.7069 5.54203L12.9169 4.33203C13.5419 3.70703 13.5419 2.69453 12.9169 2.06953L11.9319 1.08203C11.3069 0.457031 10.2944 0.457031 9.66944 1.08203H9.66694ZM7.89194 2.85703L2.06444 8.68703C1.80444 8.94703 1.61444 9.26953 1.50944 9.62203L0.624436 12.6295C0.561936 12.842 0.619436 13.0695 0.774436 13.2245C0.929436 13.3795 1.15694 13.437 1.36694 13.377L4.37444 12.492C4.72694 12.387 5.04944 12.197 5.30944 11.937L11.1419 6.10703L7.89194 2.85703Z" fill="white"/>
</g>
<defs>
<clipPath id="clip0_1_5371">
<rect width="12.8" height="12.8" fill="white" transform="translate(0.599609 0.599609)"/>
</clipPath>
</defs>
</svg>
