<svg width="105" height="23" viewBox="0 0 105 23" fill="none" xmlns="http://www.w3.org/2000/svg">
<rect width="105" height="23" rx="11.5" fill="#F04343" fill-opacity="0.21"/>
<path d="M22.104 16L19.864 12.108H18.646V16H17.05V6.27H20.41C21.1567 6.27 21.7867 6.40067 22.3 6.662C22.8227 6.92333 23.21 7.27333 23.462 7.712C23.7233 8.15067 23.854 8.64067 23.854 9.182C23.854 9.81667 23.6673 10.3953 23.294 10.918C22.93 11.4313 22.3653 11.7813 21.6 11.968L24.008 16H22.104ZM18.646 10.834H20.41C21.0073 10.834 21.4553 10.6847 21.754 10.386C22.062 10.0873 22.216 9.686 22.216 9.182C22.216 8.678 22.0667 8.286 21.768 8.006C21.4693 7.71667 21.0167 7.572 20.41 7.572H18.646V10.834ZM33.3657 11.954C33.3657 12.2433 33.347 12.5047 33.3097 12.738H27.4157C27.4624 13.354 27.691 13.8487 28.1017 14.222C28.5124 14.5953 29.0164 14.782 29.6137 14.782C30.4724 14.782 31.079 14.4227 31.4337 13.704H33.1557C32.9224 14.4133 32.4977 14.9967 31.8817 15.454C31.275 15.902 30.519 16.126 29.6137 16.126C28.8764 16.126 28.2137 15.9627 27.6257 15.636C27.047 15.3 26.5897 14.8333 26.2537 14.236C25.927 13.6293 25.7637 12.9293 25.7637 12.136C25.7637 11.3427 25.9224 10.6473 26.2397 10.05C26.5664 9.44333 27.019 8.97667 27.5977 8.65C28.1857 8.32333 28.8577 8.16 29.6137 8.16C30.3417 8.16 30.9904 8.31867 31.5597 8.636C32.129 8.95333 32.5724 9.40133 32.8897 9.98C33.207 10.5493 33.3657 11.2073 33.3657 11.954ZM31.6997 11.45C31.6904 10.862 31.4804 10.3907 31.0697 10.036C30.659 9.68133 30.1504 9.504 29.5437 9.504C28.993 9.504 28.5217 9.68133 28.1297 10.036C27.7377 10.3813 27.5044 10.8527 27.4297 11.45H31.6997ZM38.5703 9.588H37.1423V16H35.5323V9.588H34.6223V8.286H35.5323V7.74C35.5323 6.85333 35.7657 6.20933 36.2323 5.808C36.7083 5.39733 37.4503 5.192 38.4583 5.192V6.522C37.973 6.522 37.6323 6.61533 37.4363 6.802C37.2403 6.97933 37.1423 7.292 37.1423 7.74V8.286H38.5703V9.588ZM47.3708 8.286V16H45.7748V15.09C45.5228 15.4073 45.1914 15.6593 44.7808 15.846C44.3794 16.0233 43.9501 16.112 43.4928 16.112C42.8861 16.112 42.3401 15.986 41.8548 15.734C41.3788 15.482 41.0008 15.1087 40.7208 14.614C40.4501 14.1193 40.3148 13.522 40.3148 12.822V8.286H41.8968V12.584C41.8968 13.2747 42.0694 13.8067 42.4148 14.18C42.7601 14.544 43.2314 14.726 43.8288 14.726C44.4261 14.726 44.8974 14.544 45.2428 14.18C45.5974 13.8067 45.7748 13.2747 45.7748 12.584V8.286H47.3708ZM53.7686 8.16C54.3752 8.16 54.9166 8.286 55.3926 8.538C55.8779 8.79 56.2559 9.16333 56.5266 9.658C56.7972 10.1527 56.9326 10.75 56.9326 11.45V16H55.3506V11.688C55.3506 10.9973 55.1779 10.47 54.8326 10.106C54.4872 9.73267 54.0159 9.546 53.4186 9.546C52.8212 9.546 52.3452 9.73267 51.9906 10.106C51.6452 10.47 51.4726 10.9973 51.4726 11.688V16H49.8766V8.286H51.4726V9.168C51.7339 8.85067 52.0652 8.60333 52.4666 8.426C52.8772 8.24867 53.3112 8.16 53.7686 8.16ZM58.8364 12.108C58.8364 11.3333 58.995 10.6473 59.3124 10.05C59.639 9.45267 60.0777 8.99067 60.6284 8.664C61.1884 8.328 61.809 8.16 62.4904 8.16C62.9944 8.16 63.489 8.272 63.9744 8.496C64.469 8.71067 64.861 9 65.1504 9.364V5.64H66.7604V16H65.1504V14.838C64.889 15.2113 64.525 15.5193 64.0584 15.762C63.601 16.0047 63.0737 16.126 62.4764 16.126C61.8044 16.126 61.1884 15.958 60.6284 15.622C60.0777 15.2767 59.639 14.8007 59.3124 14.194C58.995 13.578 58.8364 12.8827 58.8364 12.108ZM65.1504 12.136C65.1504 11.604 65.0384 11.142 64.8144 10.75C64.5997 10.358 64.315 10.0593 63.9604 9.854C63.6057 9.64867 63.223 9.546 62.8124 9.546C62.4017 9.546 62.019 9.64867 61.6644 9.854C61.3097 10.05 61.0204 10.344 60.7964 10.736C60.5817 11.1187 60.4744 11.576 60.4744 12.108C60.4744 12.64 60.5817 13.1067 60.7964 13.508C61.0204 13.9093 61.3097 14.2173 61.6644 14.432C62.0284 14.6373 62.411 14.74 62.8124 14.74C63.223 14.74 63.6057 14.6373 63.9604 14.432C64.315 14.2267 64.5997 13.928 64.8144 13.536C65.0384 13.1347 65.1504 12.668 65.1504 12.136ZM76.3266 11.954C76.3266 12.2433 76.308 12.5047 76.2706 12.738H70.3766C70.4233 13.354 70.652 13.8487 71.0626 14.222C71.4733 14.5953 71.9773 14.782 72.5746 14.782C73.4333 14.782 74.04 14.4227 74.3946 13.704H76.1166C75.8833 14.4133 75.4586 14.9967 74.8426 15.454C74.236 15.902 73.48 16.126 72.5746 16.126C71.8373 16.126 71.1746 15.9627 70.5866 15.636C70.008 15.3 69.5506 14.8333 69.2146 14.236C68.888 13.6293 68.7246 12.9293 68.7246 12.136C68.7246 11.3427 68.8833 10.6473 69.2006 10.05C69.5273 9.44333 69.98 8.97667 70.5586 8.65C71.1466 8.32333 71.8186 8.16 72.5746 8.16C73.3026 8.16 73.9513 8.31867 74.5206 8.636C75.09 8.95333 75.5333 9.40133 75.8506 9.98C76.168 10.5493 76.3266 11.2073 76.3266 11.954ZM74.6606 11.45C74.6513 10.862 74.4413 10.3907 74.0306 10.036C73.62 9.68133 73.1113 9.504 72.5046 9.504C71.954 9.504 71.4826 9.68133 71.0906 10.036C70.6986 10.3813 70.4653 10.8527 70.3906 11.45H74.6606ZM77.7653 12.108C77.7653 11.3333 77.9239 10.6473 78.2413 10.05C78.5679 9.45267 79.0066 8.99067 79.5573 8.664C80.1173 8.328 80.7379 8.16 81.4193 8.16C81.9233 8.16 82.4179 8.272 82.9033 8.496C83.3979 8.71067 83.7899 9 84.0793 9.364V5.64H85.6893V16H84.0793V14.838C83.8179 15.2113 83.4539 15.5193 82.9873 15.762C82.5299 16.0047 82.0026 16.126 81.4053 16.126C80.7333 16.126 80.1173 15.958 79.5573 15.622C79.0066 15.2767 78.5679 14.8007 78.2413 14.194C77.9239 13.578 77.7653 12.8827 77.7653 12.108ZM84.0793 12.136C84.0793 11.604 83.9673 11.142 83.7433 10.75C83.5286 10.358 83.2439 10.0593 82.8893 9.854C82.5346 9.64867 82.1519 9.546 81.7413 9.546C81.3306 9.546 80.9479 9.64867 80.5933 9.854C80.2386 10.05 79.9493 10.344 79.7253 10.736C79.5106 11.1187 79.4033 11.576 79.4033 12.108C79.4033 12.64 79.5106 13.1067 79.7253 13.508C79.9493 13.9093 80.2386 14.2173 80.5933 14.432C80.9573 14.6373 81.3399 14.74 81.7413 14.74C82.1519 14.74 82.5346 14.6373 82.8893 14.432C83.2439 14.2267 83.5286 13.928 83.7433 13.536C83.9673 13.1347 84.0793 12.668 84.0793 12.136Z" fill="#F04343"/>
</svg>
