<svg width="242" height="242" viewBox="0 0 242 242" fill="none" xmlns="http://www.w3.org/2000/svg">
<path d="M74.3526 123.242V124.278H71.6926V133H70.4186V124.278H67.7446V123.242H74.3526ZM77.1948 126.574C77.4188 126.135 77.7361 125.795 78.1468 125.552C78.5668 125.309 79.0754 125.188 79.6728 125.188V126.504H79.3368C77.9088 126.504 77.1948 127.279 77.1948 128.828V133H75.9208V125.328H77.1948V126.574ZM80.6674 129.136C80.6674 128.352 80.8261 127.666 81.1434 127.078C81.4608 126.481 81.8948 126.019 82.4454 125.692C83.0054 125.365 83.6261 125.202 84.3074 125.202C84.9794 125.202 85.5628 125.347 86.0574 125.636C86.5521 125.925 86.9208 126.289 87.1634 126.728V125.328H88.4514V133H87.1634V131.572C86.9114 132.02 86.5334 132.393 86.0294 132.692C85.5348 132.981 84.9561 133.126 84.2934 133.126C83.6121 133.126 82.9961 132.958 82.4454 132.622C81.8948 132.286 81.4608 131.815 81.1434 131.208C80.8261 130.601 80.6674 129.911 80.6674 129.136ZM87.1634 129.15C87.1634 128.571 87.0468 128.067 86.8134 127.638C86.5801 127.209 86.2628 126.882 85.8614 126.658C85.4694 126.425 85.0354 126.308 84.5594 126.308C84.0834 126.308 83.6494 126.42 83.2574 126.644C82.8654 126.868 82.5528 127.195 82.3194 127.624C82.0861 128.053 81.9694 128.557 81.9694 129.136C81.9694 129.724 82.0861 130.237 82.3194 130.676C82.5528 131.105 82.8654 131.437 83.2574 131.67C83.6494 131.894 84.0834 132.006 84.5594 132.006C85.0354 132.006 85.4694 131.894 85.8614 131.67C86.2628 131.437 86.5801 131.105 86.8134 130.676C87.0468 130.237 87.1634 129.729 87.1634 129.15ZM91.2624 124.082C91.0197 124.082 90.8144 123.998 90.6464 123.83C90.4784 123.662 90.3944 123.457 90.3944 123.214C90.3944 122.971 90.4784 122.766 90.6464 122.598C90.8144 122.43 91.0197 122.346 91.2624 122.346C91.4957 122.346 91.6917 122.43 91.8504 122.598C92.0184 122.766 92.1024 122.971 92.1024 123.214C92.1024 123.457 92.0184 123.662 91.8504 123.83C91.6917 123.998 91.4957 124.082 91.2624 124.082ZM91.8784 125.328V133H90.6044V125.328H91.8784ZM97.7877 125.188C98.721 125.188 99.477 125.473 100.056 126.042C100.634 126.602 100.924 127.414 100.924 128.478V133H99.6637V128.66C99.6637 127.895 99.4723 127.311 99.0897 126.91C98.707 126.499 98.1843 126.294 97.5217 126.294C96.8497 126.294 96.313 126.504 95.9117 126.924C95.5197 127.344 95.3237 127.955 95.3237 128.758V133H94.0497V125.328H95.3237V126.42C95.5757 126.028 95.9163 125.725 96.3457 125.51C96.7843 125.295 97.265 125.188 97.7877 125.188ZM103.663 124.082C103.42 124.082 103.215 123.998 103.047 123.83C102.879 123.662 102.795 123.457 102.795 123.214C102.795 122.971 102.879 122.766 103.047 122.598C103.215 122.43 103.42 122.346 103.663 122.346C103.896 122.346 104.092 122.43 104.251 122.598C104.419 122.766 104.503 122.971 104.503 123.214C104.503 123.457 104.419 123.662 104.251 123.83C104.092 123.998 103.896 124.082 103.663 124.082ZM104.279 125.328V133H103.005V125.328H104.279ZM110.188 125.188C111.121 125.188 111.877 125.473 112.456 126.042C113.035 126.602 113.324 127.414 113.324 128.478V133H112.064V128.66C112.064 127.895 111.873 127.311 111.49 126.91C111.107 126.499 110.585 126.294 109.922 126.294C109.25 126.294 108.713 126.504 108.312 126.924C107.92 127.344 107.724 127.955 107.724 128.758V133H106.45V125.328H107.724V126.42C107.976 126.028 108.317 125.725 108.746 125.51C109.185 125.295 109.665 125.188 110.188 125.188ZM118.569 125.202C119.232 125.202 119.81 125.347 120.305 125.636C120.809 125.925 121.182 126.289 121.425 126.728V125.328H122.713V133.168C122.713 133.868 122.564 134.489 122.265 135.03C121.966 135.581 121.537 136.01 120.977 136.318C120.426 136.626 119.782 136.78 119.045 136.78C118.037 136.78 117.197 136.542 116.525 136.066C115.853 135.59 115.456 134.941 115.335 134.12H116.595C116.735 134.587 117.024 134.96 117.463 135.24C117.902 135.529 118.429 135.674 119.045 135.674C119.745 135.674 120.314 135.455 120.753 135.016C121.201 134.577 121.425 133.961 121.425 133.168V131.558C121.173 132.006 120.8 132.379 120.305 132.678C119.81 132.977 119.232 133.126 118.569 133.126C117.888 133.126 117.267 132.958 116.707 132.622C116.156 132.286 115.722 131.815 115.405 131.208C115.088 130.601 114.929 129.911 114.929 129.136C114.929 128.352 115.088 127.666 115.405 127.078C115.722 126.481 116.156 126.019 116.707 125.692C117.267 125.365 117.888 125.202 118.569 125.202ZM121.425 129.15C121.425 128.571 121.308 128.067 121.075 127.638C120.842 127.209 120.524 126.882 120.123 126.658C119.731 126.425 119.297 126.308 118.821 126.308C118.345 126.308 117.911 126.42 117.519 126.644C117.127 126.868 116.814 127.195 116.581 127.624C116.348 128.053 116.231 128.557 116.231 129.136C116.231 129.724 116.348 130.237 116.581 130.676C116.814 131.105 117.127 131.437 117.519 131.67C117.911 131.894 118.345 132.006 118.821 132.006C119.297 132.006 119.731 131.894 120.123 131.67C120.524 131.437 120.842 131.105 121.075 130.676C121.308 130.237 121.425 129.729 121.425 129.15ZM130.153 126.378V130.9C130.153 131.273 130.232 131.539 130.391 131.698C130.549 131.847 130.825 131.922 131.217 131.922H132.155V133H131.007C130.297 133 129.765 132.837 129.411 132.51C129.056 132.183 128.879 131.647 128.879 130.9V126.378H127.885V125.328H128.879V123.396H130.153V125.328H132.155V126.378H130.153ZM137.044 133.126C136.325 133.126 135.672 132.963 135.084 132.636C134.505 132.309 134.048 131.847 133.712 131.25C133.385 130.643 133.222 129.943 133.222 129.15C133.222 128.366 133.39 127.675 133.726 127.078C134.071 126.471 134.538 126.009 135.126 125.692C135.714 125.365 136.372 125.202 137.1 125.202C137.828 125.202 138.486 125.365 139.074 125.692C139.662 126.009 140.124 126.467 140.46 127.064C140.805 127.661 140.978 128.357 140.978 129.15C140.978 129.943 140.801 130.643 140.446 131.25C140.101 131.847 139.629 132.309 139.032 132.636C138.435 132.963 137.772 133.126 137.044 133.126ZM137.044 132.006C137.501 132.006 137.931 131.899 138.332 131.684C138.733 131.469 139.055 131.147 139.298 130.718C139.55 130.289 139.676 129.766 139.676 129.15C139.676 128.534 139.555 128.011 139.312 127.582C139.069 127.153 138.752 126.835 138.36 126.63C137.968 126.415 137.543 126.308 137.086 126.308C136.619 126.308 136.19 126.415 135.798 126.63C135.415 126.835 135.107 127.153 134.874 127.582C134.641 128.011 134.524 128.534 134.524 129.15C134.524 129.775 134.636 130.303 134.86 130.732C135.093 131.161 135.401 131.483 135.784 131.698C136.167 131.903 136.587 132.006 137.044 132.006ZM146.937 133L143.927 129.612V133H142.653V122.64H143.927V128.73L146.881 125.328H148.659L145.047 129.15L148.673 133H146.937ZM156.858 128.87C156.858 129.113 156.844 129.369 156.816 129.64H150.684C150.731 130.396 150.988 130.989 151.454 131.418C151.93 131.838 152.504 132.048 153.176 132.048C153.727 132.048 154.184 131.922 154.548 131.67C154.922 131.409 155.183 131.063 155.332 130.634H156.704C156.499 131.371 156.088 131.973 155.472 132.44C154.856 132.897 154.091 133.126 153.176 133.126C152.448 133.126 151.795 132.963 151.216 132.636C150.647 132.309 150.199 131.847 149.872 131.25C149.546 130.643 149.382 129.943 149.382 129.15C149.382 128.357 149.541 127.661 149.858 127.064C150.176 126.467 150.619 126.009 151.188 125.692C151.767 125.365 152.43 125.202 153.176 125.202C153.904 125.202 154.548 125.361 155.108 125.678C155.668 125.995 156.098 126.434 156.396 126.994C156.704 127.545 156.858 128.17 156.858 128.87ZM155.542 128.604C155.542 128.119 155.435 127.703 155.22 127.358C155.006 127.003 154.712 126.737 154.338 126.56C153.974 126.373 153.568 126.28 153.12 126.28C152.476 126.28 151.926 126.485 151.468 126.896C151.02 127.307 150.764 127.876 150.698 128.604H155.542ZM162.278 125.188C163.211 125.188 163.967 125.473 164.546 126.042C165.125 126.602 165.414 127.414 165.414 128.478V133H164.154V128.66C164.154 127.895 163.963 127.311 163.58 126.91C163.197 126.499 162.675 126.294 162.012 126.294C161.34 126.294 160.803 126.504 160.402 126.924C160.01 127.344 159.814 127.955 159.814 128.758V133H158.54V125.328H159.814V126.42C160.066 126.028 160.407 125.725 160.836 125.51C161.275 125.295 161.755 125.188 162.278 125.188ZM170.211 133.126C169.623 133.126 169.096 133.028 168.629 132.832C168.162 132.627 167.794 132.347 167.523 131.992C167.252 131.628 167.103 131.213 167.075 130.746H168.391C168.428 131.129 168.606 131.441 168.923 131.684C169.25 131.927 169.674 132.048 170.197 132.048C170.682 132.048 171.065 131.941 171.345 131.726C171.625 131.511 171.765 131.241 171.765 130.914C171.765 130.578 171.616 130.331 171.317 130.172C171.018 130.004 170.556 129.841 169.931 129.682C169.362 129.533 168.895 129.383 168.531 129.234C168.176 129.075 167.868 128.847 167.607 128.548C167.355 128.24 167.229 127.839 167.229 127.344C167.229 126.952 167.346 126.593 167.579 126.266C167.812 125.939 168.144 125.683 168.573 125.496C169.002 125.3 169.492 125.202 170.043 125.202C170.892 125.202 171.578 125.417 172.101 125.846C172.624 126.275 172.904 126.863 172.941 127.61H171.667C171.639 127.209 171.476 126.887 171.177 126.644C170.888 126.401 170.496 126.28 170.001 126.28C169.544 126.28 169.18 126.378 168.909 126.574C168.638 126.77 168.503 127.027 168.503 127.344C168.503 127.596 168.582 127.806 168.741 127.974C168.909 128.133 169.114 128.263 169.357 128.366C169.609 128.459 169.954 128.567 170.393 128.688C170.944 128.837 171.392 128.987 171.737 129.136C172.082 129.276 172.376 129.491 172.619 129.78C172.871 130.069 173.002 130.447 173.011 130.914C173.011 131.334 172.894 131.712 172.661 132.048C172.428 132.384 172.096 132.65 171.667 132.846C171.247 133.033 170.762 133.126 170.211 133.126ZM111.176 145.328V153H109.902V151.866C109.659 152.258 109.319 152.566 108.88 152.79C108.451 153.005 107.975 153.112 107.452 153.112C106.855 153.112 106.318 152.991 105.842 152.748C105.366 152.496 104.988 152.123 104.708 151.628C104.437 151.133 104.302 150.531 104.302 149.822V145.328H105.562V149.654C105.562 150.41 105.753 150.993 106.136 151.404C106.519 151.805 107.041 152.006 107.704 152.006C108.385 152.006 108.922 151.796 109.314 151.376C109.706 150.956 109.902 150.345 109.902 149.542V145.328H111.176ZM116.043 153.126C115.455 153.126 114.928 153.028 114.461 152.832C113.994 152.627 113.626 152.347 113.355 151.992C113.084 151.628 112.935 151.213 112.907 150.746H114.223C114.26 151.129 114.438 151.441 114.755 151.684C115.082 151.927 115.506 152.048 116.029 152.048C116.514 152.048 116.897 151.941 117.177 151.726C117.457 151.511 117.597 151.241 117.597 150.914C117.597 150.578 117.448 150.331 117.149 150.172C116.85 150.004 116.388 149.841 115.763 149.682C115.194 149.533 114.727 149.383 114.363 149.234C114.008 149.075 113.7 148.847 113.439 148.548C113.187 148.24 113.061 147.839 113.061 147.344C113.061 146.952 113.178 146.593 113.411 146.266C113.644 145.939 113.976 145.683 114.405 145.496C114.834 145.3 115.324 145.202 115.875 145.202C116.724 145.202 117.41 145.417 117.933 145.846C118.456 146.275 118.736 146.863 118.773 147.61H117.499C117.471 147.209 117.308 146.887 117.009 146.644C116.72 146.401 116.328 146.28 115.833 146.28C115.376 146.28 115.012 146.378 114.741 146.574C114.47 146.77 114.335 147.027 114.335 147.344C114.335 147.596 114.414 147.806 114.573 147.974C114.741 148.133 114.946 148.263 115.189 148.366C115.441 148.459 115.786 148.567 116.225 148.688C116.776 148.837 117.224 148.987 117.569 149.136C117.914 149.276 118.208 149.491 118.451 149.78C118.703 150.069 118.834 150.447 118.843 150.914C118.843 151.334 118.726 151.712 118.493 152.048C118.26 152.384 117.928 152.65 117.499 152.846C117.079 153.033 116.594 153.126 116.043 153.126ZM127.641 148.87C127.641 149.113 127.627 149.369 127.599 149.64H121.467C121.514 150.396 121.771 150.989 122.237 151.418C122.713 151.838 123.287 152.048 123.959 152.048C124.51 152.048 124.967 151.922 125.331 151.67C125.705 151.409 125.966 151.063 126.115 150.634H127.487C127.282 151.371 126.871 151.973 126.255 152.44C125.639 152.897 124.874 153.126 123.959 153.126C123.231 153.126 122.578 152.963 121.999 152.636C121.43 152.309 120.982 151.847 120.655 151.25C120.329 150.643 120.165 149.943 120.165 149.15C120.165 148.357 120.324 147.661 120.641 147.064C120.959 146.467 121.402 146.009 121.971 145.692C122.55 145.365 123.213 145.202 123.959 145.202C124.687 145.202 125.331 145.361 125.891 145.678C126.451 145.995 126.881 146.434 127.179 146.994C127.487 147.545 127.641 148.17 127.641 148.87ZM126.325 148.604C126.325 148.119 126.218 147.703 126.003 147.358C125.789 147.003 125.495 146.737 125.121 146.56C124.757 146.373 124.351 146.28 123.903 146.28C123.259 146.28 122.709 146.485 122.251 146.896C121.803 147.307 121.547 147.876 121.481 148.604H126.325ZM128.847 149.136C128.847 148.352 129.006 147.666 129.323 147.078C129.64 146.481 130.074 146.019 130.625 145.692C131.185 145.365 131.81 145.202 132.501 145.202C133.098 145.202 133.654 145.342 134.167 145.622C134.68 145.893 135.072 146.252 135.343 146.7V142.64H136.631V153H135.343V151.558C135.091 152.015 134.718 152.393 134.223 152.692C133.728 152.981 133.15 153.126 132.487 153.126C131.806 153.126 131.185 152.958 130.625 152.622C130.074 152.286 129.64 151.815 129.323 151.208C129.006 150.601 128.847 149.911 128.847 149.136ZM135.343 149.15C135.343 148.571 135.226 148.067 134.993 147.638C134.76 147.209 134.442 146.882 134.041 146.658C133.649 146.425 133.215 146.308 132.739 146.308C132.263 146.308 131.829 146.42 131.437 146.644C131.045 146.868 130.732 147.195 130.499 147.624C130.266 148.053 130.149 148.557 130.149 149.136C130.149 149.724 130.266 150.237 130.499 150.676C130.732 151.105 131.045 151.437 131.437 151.67C131.829 151.894 132.263 152.006 132.739 152.006C133.215 152.006 133.649 151.894 134.041 151.67C134.442 151.437 134.76 151.105 134.993 150.676C135.226 150.237 135.343 149.729 135.343 149.15Z" fill="#9BB7C2"/>
<path d="M121 17C134.657 17 148.181 19.69 160.799 24.9165C173.417 30.143 184.882 37.8036 194.539 47.4609C204.196 57.1182 211.857 68.5831 217.083 81.2009C222.31 93.8188 225 107.343 225 121C225 134.657 222.31 148.181 217.083 160.799C211.857 173.417 204.196 184.882 194.539 194.539C184.882 204.196 173.417 211.857 160.799 217.083C148.181 222.31 134.657 225 121 225C107.342 225 93.8187 222.31 81.2009 217.083C68.583 211.857 57.1182 204.196 47.4609 194.539C37.8036 184.882 30.143 173.417 24.9165 160.799C19.69 148.181 17 134.657 17 121C17 107.342 19.6901 93.8187 24.9166 81.2009C30.143 68.583 37.8036 57.1181 47.4609 47.4609C57.1182 37.8036 68.5831 30.143 81.201 24.9165C93.8188 19.69 107.343 17 121 17L121 17Z" stroke="#C5C5C5" stroke-width="34" stroke-linecap="round"/>
<path d="M121 17C137.189 17 153.155 20.7796 167.627 28.0378C182.098 35.296 194.675 45.8325 204.356 58.8083C214.037 71.7841 220.555 86.8409 223.392 102.78C226.228 118.719 225.304 135.1 220.693 150.619C216.082 166.138 207.912 180.366 196.833 192.171C185.754 203.976 172.072 213.031 156.877 218.616C141.681 224.201 125.391 226.161 109.305 224.34C93.2179 222.52 77.7783 216.969 64.2151 208.129" stroke="#9BB7C2" stroke-width="34" stroke-linecap="round"/>
<circle cx="65" cy="208" r="9" fill="white"/>
<path d="M109.99 96.778C109.817 96.05 109.514 95.504 109.08 95.14C108.664 94.776 108.058 94.594 107.26 94.594C106.064 94.594 105.18 95.0793 104.608 96.05C104.054 97.0033 103.768 98.5633 103.75 100.73C104.166 100.037 104.773 99.4993 105.57 99.118C106.368 98.7193 107.234 98.52 108.17 98.52C109.297 98.52 110.294 98.7627 111.16 99.248C112.027 99.7333 112.703 100.444 113.188 101.38C113.674 102.299 113.916 103.408 113.916 104.708C113.916 105.939 113.665 107.039 113.162 108.01C112.677 108.963 111.958 109.709 111.004 110.246C110.051 110.783 108.916 111.052 107.598 111.052C105.796 111.052 104.374 110.653 103.334 109.856C102.312 109.059 101.592 107.949 101.176 106.528C100.778 105.089 100.578 103.321 100.578 101.224C100.578 98.052 101.124 95.66 102.216 94.048C103.308 92.4187 105.033 91.604 107.39 91.604C109.21 91.604 110.623 92.098 111.628 93.086C112.634 94.074 113.214 95.3047 113.37 96.778H109.99ZM107.338 101.51C106.42 101.51 105.648 101.779 105.024 102.316C104.4 102.853 104.088 103.633 104.088 104.656C104.088 105.679 104.374 106.485 104.946 107.074C105.536 107.663 106.359 107.958 107.416 107.958C108.352 107.958 109.089 107.672 109.626 107.1C110.181 106.528 110.458 105.757 110.458 104.786C110.458 103.781 110.19 102.983 109.652 102.394C109.132 101.805 108.361 101.51 107.338 101.51ZM128.857 94.802L121.941 111H118.249L125.217 95.218H116.325V92.098H128.857V94.802ZM130.621 96.7C130.621 95.3827 131.003 94.3513 131.765 93.606C132.545 92.8607 133.542 92.488 134.755 92.488C135.969 92.488 136.957 92.8607 137.719 93.606C138.499 94.3513 138.889 95.3827 138.889 96.7C138.889 98.0347 138.499 99.0747 137.719 99.82C136.957 100.565 135.969 100.938 134.755 100.938C133.542 100.938 132.545 100.565 131.765 99.82C131.003 99.0747 130.621 98.0347 130.621 96.7ZM147.313 92.8L137.095 111H133.559L143.751 92.8H147.313ZM134.729 94.672C133.776 94.672 133.299 95.348 133.299 96.7C133.299 98.0693 133.776 98.754 134.729 98.754C135.197 98.754 135.561 98.5893 135.821 98.26C136.081 97.9133 136.211 97.3933 136.211 96.7C136.211 95.348 135.717 94.672 134.729 94.672ZM142.035 107.074C142.035 105.739 142.417 104.708 143.179 103.98C143.959 103.235 144.956 102.862 146.169 102.862C147.383 102.862 148.362 103.235 149.107 103.98C149.87 104.708 150.251 105.739 150.251 107.074C150.251 108.409 149.87 109.449 149.107 110.194C148.362 110.939 147.383 111.312 146.169 111.312C144.939 111.312 143.942 110.939 143.179 110.194C142.417 109.449 142.035 108.409 142.035 107.074ZM146.143 105.046C145.155 105.046 144.661 105.722 144.661 107.074C144.661 108.443 145.155 109.128 146.143 109.128C147.114 109.128 147.599 108.443 147.599 107.074C147.599 105.722 147.114 105.046 146.143 105.046Z" fill="#9BB7C2"/>
</svg>
