<svg width="18" height="18" viewBox="0 0 18 18" fill="none" xmlns="http://www.w3.org/2000/svg">
<path d="M2.25 9.75002H13.9425L9.9675 13.7175C9.89721 13.7872 9.84141 13.8702 9.80333 13.9616C9.76526 14.053 9.74565 14.151 9.74565 14.25C9.74565 14.349 9.76526 14.4471 9.80333 14.5384C9.84141 14.6298 9.89721 14.7128 9.9675 14.7825C10.0372 14.8528 10.1202 14.9086 10.2116 14.9467C10.303 14.9848 10.401 15.0044 10.5 15.0044C10.599 15.0044 10.697 14.9848 10.7884 14.9467C10.8798 14.9086 10.9628 14.8528 11.0325 14.7825L16.2825 9.53252C16.3528 9.4628 16.4086 9.37984 16.4467 9.28845C16.4848 9.19705 16.5044 9.09903 16.5044 9.00002C16.5044 8.90101 16.4848 8.80298 16.4467 8.71158C16.4086 8.62019 16.3528 8.53724 16.2825 8.46752L11.0325 3.21752C10.9626 3.14759 10.8796 3.09212 10.7882 3.05427C10.6968 3.01643 10.5989 2.99695 10.5 2.99695C10.3003 2.99695 10.1087 3.07629 9.9675 3.21752C9.89757 3.28745 9.8421 3.37046 9.80426 3.46183C9.76641 3.5532 9.74693 3.65112 9.74693 3.75002C9.74693 3.94974 9.82627 4.14129 9.9675 4.28252L13.9425 8.25002H2.25C2.05109 8.25002 1.86032 8.32903 1.71967 8.46969C1.57902 8.61034 1.5 8.8011 1.5 9.00002C1.5 9.19893 1.57902 9.3897 1.71967 9.53035C1.86032 9.671 2.05109 9.75002 2.25 9.75002Z" fill="white"/>
</svg>
