<svg width="25" height="25" viewBox="0 0 25 25" fill="none" xmlns="http://www.w3.org/2000/svg">
<path fill-rule="evenodd" clip-rule="evenodd" d="M17.3779 9.80256C17.3779 13.5677 14.3368 16.6051 10.6038 16.6051C6.87069 16.6051 3.82959 13.5677 3.82959 9.80256C3.82959 6.0374 6.87069 3 10.6038 3C14.3368 3 17.3779 6.0374 17.3779 9.80256ZM15.8435 18.079C14.3292 19.0453 12.5316 19.6051 10.6038 19.6051C5.20563 19.6051 0.82959 15.2164 0.82959 9.80256C0.82959 4.38876 5.20563 0 10.6038 0C16.0019 0 20.3779 4.38876 20.3779 9.80256C20.3779 12.1971 19.5218 14.3912 18.0998 16.0936L24.3139 22.3511L22.2 24.4797L15.8435 18.079Z" fill="black"/>
</svg>
