<svg width="854" height="379" viewBox="0 0 854 379" fill="none" xmlns="http://www.w3.org/2000/svg">
<rect width="854" height="379" rx="20" fill="white"/>
<path d="M0 20C0 8.95431 8.95431 0 20 0H357V54H0V20Z" fill="#90A0B8" fill-opacity="0.08"/>
<path d="M23.8182 31H20.8608V22.2727H23.8778C24.7443 22.2727 25.4886 22.4474 26.1108 22.7969C26.7358 23.1435 27.2159 23.642 27.5511 24.2926C27.8864 24.9432 28.054 25.7216 28.054 26.6278C28.054 27.5369 27.8849 28.3182 27.5469 28.9716C27.2116 29.625 26.7273 30.1264 26.0938 30.4759C25.4631 30.8253 24.7045 31 23.8182 31ZM22.4418 29.6321H23.7415C24.3494 29.6321 24.8565 29.5213 25.2628 29.2997C25.669 29.0753 25.9744 28.7415 26.179 28.2983C26.3835 27.8523 26.4858 27.2955 26.4858 26.6278C26.4858 25.9602 26.3835 25.4062 26.179 24.9659C25.9744 24.5227 25.6719 24.1918 25.2713 23.973C24.8736 23.7514 24.3793 23.6406 23.7884 23.6406H22.4418V29.6321ZM29.7261 31V22.2727H32.9988C33.6693 22.2727 34.2318 22.3977 34.6863 22.6477C35.1437 22.8977 35.4889 23.2415 35.7218 23.679C35.9576 24.1136 36.0755 24.608 36.0755 25.1619C36.0755 25.7216 35.9576 26.2187 35.7218 26.6534C35.4861 27.0881 35.138 27.4304 34.6778 27.6804C34.2176 27.9276 33.6508 28.0511 32.9775 28.0511H30.8085V26.7514H32.7645C33.1565 26.7514 33.4775 26.6832 33.7275 26.5469C33.9775 26.4105 34.1622 26.223 34.2815 25.9844C34.4037 25.7457 34.4647 25.4716 34.4647 25.1619C34.4647 24.8523 34.4037 24.5795 34.2815 24.3438C34.1622 24.108 33.9761 23.9247 33.7233 23.794C33.4733 23.6605 33.1508 23.5938 32.7559 23.5938H31.3071V31H29.7261ZM37.7668 31H36.0793L39.1518 22.2727H41.1035L44.1802 31H42.4927L40.1617 24.0625H40.0936L37.7668 31ZM37.8222 27.5781H42.4245V28.848H37.8222V27.5781Z" fill="#3A3541" fill-opacity="0.87"/>
<path d="M63 29L66 32L69 29M69 25L66 22L63 25" stroke="#524E59" stroke-width="1.5" stroke-linecap="round" stroke-linejoin="round"/>
<rect width="290" height="54" transform="translate(357)" fill="#90A0B8" fill-opacity="0.08"/>
<path d="M473.362 22.2727H474.943V27.9744C474.943 28.5994 474.795 29.1491 474.5 29.6236C474.207 30.098 473.795 30.4687 473.264 30.7358C472.733 31 472.112 31.1321 471.402 31.1321C470.689 31.1321 470.067 31 469.536 30.7358C469.004 30.4687 468.592 30.098 468.3 29.6236C468.007 29.1491 467.861 28.5994 467.861 27.9744V22.2727H469.442V27.8423C469.442 28.206 469.521 28.5298 469.68 28.8139C469.842 29.098 470.07 29.321 470.362 29.483C470.655 29.642 471.001 29.7216 471.402 29.7216C471.803 29.7216 472.149 29.642 472.442 29.483C472.737 29.321 472.964 29.098 473.124 28.8139C473.283 28.5298 473.362 28.206 473.362 27.8423V22.2727ZM481.574 24.6719C481.535 24.2997 481.367 24.0099 481.072 23.8026C480.779 23.5952 480.398 23.4915 479.93 23.4915C479.6 23.4915 479.317 23.5412 479.082 23.6406C478.846 23.7401 478.665 23.875 478.54 24.0455C478.415 24.2159 478.351 24.4105 478.349 24.6293C478.349 24.8111 478.39 24.9687 478.472 25.1023C478.557 25.2358 478.672 25.3494 478.817 25.4432C478.962 25.5341 479.123 25.6108 479.299 25.6733C479.475 25.7358 479.653 25.7884 479.832 25.831L480.65 26.0355C480.979 26.1122 481.296 26.2159 481.6 26.3466C481.907 26.4773 482.181 26.642 482.422 26.8409C482.667 27.0398 482.86 27.2798 483.002 27.5611C483.144 27.8423 483.215 28.1719 483.215 28.5497C483.215 29.0611 483.084 29.5114 482.823 29.9006C482.562 30.2869 482.184 30.5895 481.69 30.8082C481.198 31.0241 480.603 31.1321 479.904 31.1321C479.225 31.1321 478.636 31.027 478.136 30.8168C477.638 30.6065 477.249 30.2997 476.968 29.8963C476.69 29.4929 476.539 29.0014 476.516 28.4219H478.072C478.094 28.7259 478.188 28.9787 478.353 29.1804C478.518 29.3821 478.732 29.5327 478.996 29.6321C479.263 29.7315 479.562 29.7812 479.891 29.7812C480.235 29.7812 480.536 29.7301 480.795 29.6278C481.056 29.5227 481.261 29.3778 481.408 29.1932C481.556 29.0057 481.631 28.7869 481.634 28.5369C481.631 28.3097 481.565 28.1222 481.434 27.9744C481.303 27.8239 481.12 27.6989 480.884 27.5994C480.651 27.4972 480.378 27.4062 480.066 27.3267L479.073 27.071C478.354 26.8864 477.786 26.6065 477.369 26.2315C476.954 25.8537 476.746 25.3523 476.746 24.7273C476.746 24.2131 476.886 23.7628 477.164 23.3764C477.445 22.9901 477.827 22.6903 478.31 22.4773C478.793 22.2614 479.34 22.1534 479.951 22.1534C480.57 22.1534 481.113 22.2614 481.579 22.4773C482.047 22.6903 482.415 22.9872 482.682 23.3679C482.949 23.7457 483.087 24.1804 483.096 24.6719H481.574ZM485.775 31H484.087L487.16 22.2727H489.111L492.188 31H490.501L488.17 24.0625H488.101L485.775 31ZM485.83 27.5781H490.432V28.848H485.83V27.5781ZM498.944 25.0597C498.873 24.8295 498.775 24.6236 498.65 24.4418C498.528 24.2571 498.38 24.0994 498.207 23.9688C498.036 23.8381 497.84 23.7401 497.619 23.6747C497.397 23.6065 497.156 23.5724 496.894 23.5724C496.425 23.5724 496.008 23.6903 495.641 23.9261C495.275 24.1619 494.987 24.5085 494.776 24.9659C494.569 25.4205 494.465 25.9744 494.465 26.6278C494.465 27.2869 494.569 27.8452 494.776 28.3026C494.984 28.7599 495.272 29.108 495.641 29.3466C496.011 29.5824 496.44 29.7003 496.928 29.7003C497.372 29.7003 497.755 29.6151 498.079 29.4446C498.406 29.2741 498.657 29.0327 498.833 28.7202C499.009 28.4048 499.097 28.0355 499.097 27.6122L499.455 27.6676H497.086V26.4318H500.627V27.4801C500.627 28.2273 500.468 28.8736 500.15 29.419C499.832 29.9645 499.394 30.3849 498.837 30.6804C498.281 30.973 497.641 31.1193 496.92 31.1193C496.116 31.1193 495.41 30.9389 494.802 30.5781C494.197 30.2145 493.724 29.6989 493.383 29.0312C493.045 28.3608 492.876 27.5653 492.876 26.6449C492.876 25.9403 492.975 25.3111 493.174 24.7571C493.376 24.2031 493.657 23.733 494.018 23.3466C494.379 22.9574 494.802 22.6619 495.288 22.4602C495.773 22.2557 496.302 22.1534 496.873 22.1534C497.356 22.1534 497.806 22.2244 498.224 22.3665C498.641 22.5057 499.012 22.7045 499.336 22.9631C499.663 23.2216 499.931 23.5284 500.141 23.8835C500.352 24.2386 500.489 24.6307 500.555 25.0597H498.944ZM502.326 31V22.2727H508.002V23.598H503.907V25.9673H507.708V27.2926H503.907V29.6747H508.036V31H502.326Z" fill="#3A3541" fill-opacity="0.87"/>
<path d="M522 29L525 32L528 29M528 25L525 22L522 25" stroke="#524E59" stroke-width="1.5" stroke-linecap="round" stroke-linejoin="round"/>
<path d="M647 0H834C845.046 0 854 8.9543 854 20V54H647V0Z" fill="#90A0B8" fill-opacity="0.08"/>
<path d="M738.982 31H737.294L740.366 22.2727H742.318L745.395 31H743.707L741.376 24.0625H741.308L738.982 31ZM739.037 27.5781H743.639V28.848H739.037V27.5781ZM753.774 25.2173H752.181C752.135 24.956 752.051 24.7244 751.929 24.5227C751.807 24.3182 751.655 24.1449 751.473 24.0028C751.291 23.8608 751.084 23.7543 750.851 23.6832C750.621 23.6094 750.372 23.5724 750.105 23.5724C749.631 23.5724 749.21 23.6918 748.844 23.9304C748.478 24.1662 748.191 24.5128 747.983 24.9702C747.776 25.4247 747.672 25.9801 747.672 26.6364C747.672 27.304 747.776 27.8665 747.983 28.3239C748.193 28.7784 748.48 29.1222 748.844 29.3551C749.21 29.5852 749.63 29.7003 750.101 29.7003C750.362 29.7003 750.607 29.6662 750.834 29.598C751.064 29.527 751.27 29.4233 751.452 29.2869C751.637 29.1506 751.791 28.983 751.916 28.7841C752.044 28.5852 752.132 28.358 752.181 28.1023L753.774 28.1108C753.715 28.5256 753.585 28.9148 753.387 29.2784C753.191 29.642 752.933 29.9631 752.615 30.2415C752.297 30.517 751.925 30.733 751.499 30.8892C751.073 31.0426 750.6 31.1193 750.08 31.1193C749.313 31.1193 748.628 30.9418 748.026 30.5866C747.424 30.2315 746.949 29.7188 746.603 29.0483C746.256 28.3778 746.083 27.5739 746.083 26.6364C746.083 25.696 746.257 24.892 746.607 24.2244C746.956 23.554 747.432 23.0412 748.034 22.6861C748.637 22.331 749.318 22.1534 750.08 22.1534C750.566 22.1534 751.017 22.2216 751.435 22.358C751.853 22.4943 752.225 22.6946 752.551 22.9588C752.878 23.2202 753.147 23.5412 753.357 23.9219C753.57 24.2997 753.709 24.7315 753.774 25.2173ZM755.009 23.598V22.2727H761.972V23.598H759.274V31H757.706V23.598H755.009ZM765.065 22.2727V31H763.484V22.2727H765.065ZM774.745 26.6364C774.745 27.5767 774.569 28.3821 774.217 29.0526C773.868 29.7202 773.39 30.2315 772.785 30.5866C772.183 30.9418 771.5 31.1193 770.735 31.1193C769.971 31.1193 769.287 30.9418 768.681 30.5866C768.079 30.2287 767.602 29.7159 767.25 29.0483C766.9 28.3778 766.725 27.5739 766.725 26.6364C766.725 25.696 766.9 24.892 767.25 24.2244C767.602 23.554 768.079 23.0412 768.681 22.6861C769.287 22.331 769.971 22.1534 770.735 22.1534C771.5 22.1534 772.183 22.331 772.785 22.6861C773.39 23.0412 773.868 23.554 774.217 24.2244C774.569 24.892 774.745 25.696 774.745 26.6364ZM773.156 26.6364C773.156 25.9744 773.052 25.4162 772.845 24.9616C772.64 24.5043 772.356 24.1591 771.993 23.9261C771.629 23.6903 771.21 23.5724 770.735 23.5724C770.261 23.5724 769.842 23.6903 769.478 23.9261C769.115 24.1591 768.829 24.5043 768.622 24.9616C768.417 25.4162 768.315 25.9744 768.315 26.6364C768.315 27.2983 768.417 27.858 768.622 28.3153C768.829 28.7699 769.115 29.1151 769.478 29.3509C769.842 29.5838 770.261 29.7003 770.735 29.7003C771.21 29.7003 771.629 29.5838 771.993 29.3509C772.356 29.1151 772.64 28.7699 772.845 28.3153C773.052 27.858 773.156 27.2983 773.156 26.6364ZM783.582 22.2727V31H782.176L778.063 25.0554H777.991V31H776.41V22.2727H777.825L781.933 28.2216H782.009V22.2727H783.582Z" fill="#3A3541" fill-opacity="0.87"/>
<rect x="21" y="70" width="34" height="34" rx="17" fill="#E7EBB8"/>
<path d="M82.248 81.348L79.016 92.5H77.384L74.792 83.524L72.104 92.5L70.488 92.516L67.368 81.348H68.92L71.352 90.804L74.04 81.348H75.672L78.232 90.772L80.68 81.348H82.248ZM87.7654 92.644C86.944 92.644 86.1974 92.4573 85.5254 92.084C84.864 91.7107 84.3414 91.1827 83.9574 90.5C83.584 89.8067 83.3974 89.0067 83.3974 88.1C83.3974 87.204 83.5894 86.4147 83.9734 85.732C84.368 85.0387 84.9014 84.5107 85.5734 84.148C86.2454 83.7747 86.9974 83.588 87.8294 83.588C88.6614 83.588 89.4134 83.7747 90.0854 84.148C90.7574 84.5107 91.2854 85.0333 91.6694 85.716C92.064 86.3987 92.2614 87.1933 92.2614 88.1C92.2614 89.0067 92.0587 89.8067 91.6534 90.5C91.2587 91.1827 90.72 91.7107 90.0374 92.084C89.3547 92.4573 88.5974 92.644 87.7654 92.644ZM87.7654 91.364C88.288 91.364 88.7787 91.2413 89.2374 90.996C89.696 90.7507 90.064 90.3827 90.3414 89.892C90.6294 89.4013 90.7734 88.804 90.7734 88.1C90.7734 87.396 90.6347 86.7987 90.3574 86.308C90.08 85.8173 89.7174 85.4547 89.2694 85.22C88.8214 84.9747 88.336 84.852 87.8134 84.852C87.28 84.852 86.7894 84.9747 86.3414 85.22C85.904 85.4547 85.552 85.8173 85.2854 86.308C85.0187 86.7987 84.8854 87.396 84.8854 88.1C84.8854 88.8147 85.0134 89.4173 85.2694 89.908C85.536 90.3987 85.888 90.7667 86.3254 91.012C86.7627 91.2467 87.2427 91.364 87.7654 91.364ZM95.7318 85.156C95.9878 84.6547 96.3504 84.2653 96.8198 83.988C97.2998 83.7107 97.8811 83.572 98.5638 83.572V85.076H98.1798C96.5478 85.076 95.7318 85.9613 95.7318 87.732V92.5H94.2758V83.732H95.7318V85.156ZM105.24 92.5L101.8 88.628V92.5H100.344V80.66H101.8V87.62L105.176 83.732H107.208L103.08 88.1L107.224 92.5H105.24ZM110.135 85.348C110.423 84.8467 110.85 84.4307 111.415 84.1C111.991 83.7587 112.658 83.588 113.415 83.588C114.194 83.588 114.898 83.7747 115.527 84.148C116.167 84.5213 116.668 85.0493 117.031 85.732C117.394 86.404 117.575 87.188 117.575 88.084C117.575 88.9693 117.394 89.7587 117.031 90.452C116.668 91.1453 116.167 91.684 115.527 92.068C114.898 92.452 114.194 92.644 113.415 92.644C112.668 92.644 112.007 92.4787 111.431 92.148C110.866 91.8067 110.434 91.3853 110.135 90.884V96.66H108.679V83.732H110.135V85.348ZM116.087 88.084C116.087 87.4227 115.954 86.8467 115.687 86.356C115.42 85.8653 115.058 85.492 114.599 85.236C114.151 84.98 113.655 84.852 113.111 84.852C112.578 84.852 112.082 84.9853 111.623 85.252C111.175 85.508 110.812 85.8867 110.535 86.388C110.268 86.8787 110.135 87.4493 110.135 88.1C110.135 88.7613 110.268 89.3427 110.535 89.844C110.812 90.3347 111.175 90.7133 111.623 90.98C112.082 91.236 112.578 91.364 113.111 91.364C113.655 91.364 114.151 91.236 114.599 90.98C115.058 90.7133 115.42 90.3347 115.687 89.844C115.954 89.3427 116.087 88.756 116.087 88.084ZM121.047 80.66V92.5H119.591V80.66H121.047ZM123.085 88.084C123.085 87.188 123.266 86.404 123.629 85.732C123.992 85.0493 124.488 84.5213 125.117 84.148C125.757 83.7747 126.466 83.588 127.245 83.588C128.013 83.588 128.68 83.7533 129.245 84.084C129.81 84.4147 130.232 84.8307 130.509 85.332V83.732H131.981V92.5H130.509V90.868C130.221 91.38 129.789 91.8067 129.213 92.148C128.648 92.4787 127.986 92.644 127.229 92.644C126.45 92.644 125.746 92.452 125.117 92.068C124.488 91.684 123.992 91.1453 123.629 90.452C123.266 89.7587 123.085 88.9693 123.085 88.084ZM130.509 88.1C130.509 87.4387 130.376 86.8627 130.109 86.372C129.842 85.8813 129.48 85.508 129.021 85.252C128.573 84.9853 128.077 84.852 127.533 84.852C126.989 84.852 126.493 84.98 126.045 85.236C125.597 85.492 125.24 85.8653 124.973 86.356C124.706 86.8467 124.573 87.4227 124.573 88.084C124.573 88.756 124.706 89.3427 124.973 89.844C125.24 90.3347 125.597 90.7133 126.045 90.98C126.493 91.236 126.989 91.364 127.533 91.364C128.077 91.364 128.573 91.236 129.021 90.98C129.48 90.7133 129.842 90.3347 130.109 89.844C130.376 89.3427 130.509 88.7613 130.509 88.1ZM133.997 88.1C133.997 87.1933 134.179 86.404 134.541 85.732C134.904 85.0493 135.405 84.5213 136.045 84.148C136.696 83.7747 137.437 83.588 138.269 83.588C139.347 83.588 140.232 83.8493 140.925 84.372C141.629 84.8947 142.093 85.62 142.317 86.548H140.749C140.6 86.0147 140.307 85.5933 139.869 85.284C139.443 84.9747 138.909 84.82 138.269 84.82C137.437 84.82 136.765 85.108 136.253 85.684C135.741 86.2493 135.485 87.0547 135.485 88.1C135.485 89.156 135.741 89.972 136.253 90.548C136.765 91.124 137.437 91.412 138.269 91.412C138.909 91.412 139.443 91.2627 139.869 90.964C140.296 90.6653 140.589 90.2387 140.749 89.684H142.317C142.083 90.58 141.613 91.3 140.909 91.844C140.205 92.3773 139.325 92.644 138.269 92.644C137.437 92.644 136.696 92.4573 136.045 92.084C135.405 91.7107 134.904 91.1827 134.541 90.5C134.179 89.8173 133.997 89.0173 133.997 88.1ZM152.36 87.78C152.36 88.0573 152.344 88.3507 152.312 88.66H145.304C145.357 89.524 145.651 90.2013 146.184 90.692C146.728 91.172 147.384 91.412 148.152 91.412C148.781 91.412 149.304 91.268 149.72 90.98C150.147 90.6813 150.445 90.2867 150.616 89.796H152.184C151.949 90.6387 151.48 91.3267 150.776 91.86C150.072 92.3827 149.197 92.644 148.152 92.644C147.32 92.644 146.573 92.4573 145.912 92.084C145.261 91.7107 144.749 91.1827 144.376 90.5C144.003 89.8067 143.816 89.0067 143.816 88.1C143.816 87.1933 143.997 86.3987 144.36 85.716C144.723 85.0333 145.229 84.5107 145.88 84.148C146.541 83.7747 147.299 83.588 148.152 83.588C148.984 83.588 149.72 83.7693 150.36 84.132C151 84.4947 151.491 84.996 151.832 85.636C152.184 86.2653 152.36 86.98 152.36 87.78ZM150.856 87.476C150.856 86.9213 150.733 86.4467 150.488 86.052C150.243 85.6467 149.907 85.3427 149.48 85.14C149.064 84.9267 148.6 84.82 148.088 84.82C147.352 84.82 146.723 85.0547 146.2 85.524C145.688 85.9933 145.395 86.644 145.32 87.476H150.856ZM164.62 92.5L161.964 87.94H160.204V92.5H158.748V81.348H162.348C163.19 81.348 163.9 81.492 164.476 81.78C165.062 82.068 165.5 82.4573 165.788 82.948C166.076 83.4387 166.22 83.9987 166.22 84.628C166.22 85.396 165.996 86.0733 165.548 86.66C165.11 87.2467 164.449 87.636 163.564 87.828L166.364 92.5H164.62ZM160.204 86.772H162.348C163.137 86.772 163.729 86.58 164.124 86.196C164.518 85.8013 164.716 85.2787 164.716 84.628C164.716 83.9667 164.518 83.4547 164.124 83.092C163.74 82.7293 163.148 82.548 162.348 82.548H160.204V86.772ZM176.582 87.78C176.582 88.0573 176.566 88.3507 176.534 88.66H169.526C169.579 89.524 169.873 90.2013 170.406 90.692C170.95 91.172 171.606 91.412 172.374 91.412C173.003 91.412 173.526 91.268 173.942 90.98C174.369 90.6813 174.667 90.2867 174.838 89.796H176.406C176.171 90.6387 175.702 91.3267 174.998 91.86C174.294 92.3827 173.419 92.644 172.374 92.644C171.542 92.644 170.795 92.4573 170.134 92.084C169.483 91.7107 168.971 91.1827 168.598 90.5C168.225 89.8067 168.038 89.0067 168.038 88.1C168.038 87.1933 168.219 86.3987 168.582 85.716C168.945 85.0333 169.451 84.5107 170.102 84.148C170.763 83.7747 171.521 83.588 172.374 83.588C173.206 83.588 173.942 83.7693 174.582 84.132C175.222 84.4947 175.713 84.996 176.054 85.636C176.406 86.2653 176.582 86.98 176.582 87.78ZM175.078 87.476C175.078 86.9213 174.955 86.4467 174.71 86.052C174.465 85.6467 174.129 85.3427 173.702 85.14C173.286 84.9267 172.822 84.82 172.31 84.82C171.574 84.82 170.945 85.0547 170.422 85.524C169.91 85.9933 169.617 86.644 169.542 87.476H175.078ZM180.06 80.66V92.5H178.604V80.66H180.06ZM182.097 88.084C182.097 87.188 182.279 86.404 182.641 85.732C183.004 85.0493 183.5 84.5213 184.129 84.148C184.769 83.7747 185.479 83.588 186.257 83.588C187.025 83.588 187.692 83.7533 188.257 84.084C188.823 84.4147 189.244 84.8307 189.521 85.332V83.732H190.993V92.5H189.521V90.868C189.233 91.38 188.801 91.8067 188.225 92.148C187.66 92.4787 186.999 92.644 186.241 92.644C185.463 92.644 184.759 92.452 184.129 92.068C183.5 91.684 183.004 91.1453 182.641 90.452C182.279 89.7587 182.097 88.9693 182.097 88.084ZM189.521 88.1C189.521 87.4387 189.388 86.8627 189.121 86.372C188.855 85.8813 188.492 85.508 188.033 85.252C187.585 84.9853 187.089 84.852 186.545 84.852C186.001 84.852 185.505 84.98 185.057 85.236C184.609 85.492 184.252 85.8653 183.985 86.356C183.719 86.8467 183.585 87.4227 183.585 88.084C183.585 88.756 183.719 89.3427 183.985 89.844C184.252 90.3347 184.609 90.7133 185.057 90.98C185.505 91.236 186.001 91.364 186.545 91.364C187.089 91.364 187.585 91.236 188.033 90.98C188.492 90.7133 188.855 90.3347 189.121 89.844C189.388 89.3427 189.521 88.7613 189.521 88.1ZM195.33 84.932V90.1C195.33 90.5267 195.421 90.8307 195.602 91.012C195.783 91.1827 196.098 91.268 196.546 91.268H197.618V92.5H196.306C195.495 92.5 194.887 92.3133 194.482 91.94C194.077 91.5667 193.874 90.9533 193.874 90.1V84.932H192.738V83.732H193.874V81.524H195.33V83.732H197.618V84.932H195.33ZM200.234 82.308C199.957 82.308 199.722 82.212 199.53 82.02C199.338 81.828 199.242 81.5933 199.242 81.316C199.242 81.0387 199.338 80.804 199.53 80.612C199.722 80.42 199.957 80.324 200.234 80.324C200.501 80.324 200.725 80.42 200.906 80.612C201.098 80.804 201.194 81.0387 201.194 81.316C201.194 81.5933 201.098 81.828 200.906 82.02C200.725 82.212 200.501 82.308 200.234 82.308ZM200.938 83.732V92.5H199.482V83.732H200.938ZM207.344 92.644C206.522 92.644 205.776 92.4573 205.104 92.084C204.442 91.7107 203.92 91.1827 203.536 90.5C203.162 89.8067 202.976 89.0067 202.976 88.1C202.976 87.204 203.168 86.4147 203.552 85.732C203.946 85.0387 204.48 84.5107 205.152 84.148C205.824 83.7747 206.576 83.588 207.408 83.588C208.24 83.588 208.992 83.7747 209.664 84.148C210.336 84.5107 210.864 85.0333 211.248 85.716C211.642 86.3987 211.84 87.1933 211.84 88.1C211.84 89.0067 211.637 89.8067 211.232 90.5C210.837 91.1827 210.298 91.7107 209.616 92.084C208.933 92.4573 208.176 92.644 207.344 92.644ZM207.344 91.364C207.866 91.364 208.357 91.2413 208.816 90.996C209.274 90.7507 209.642 90.3827 209.92 89.892C210.208 89.4013 210.352 88.804 210.352 88.1C210.352 87.396 210.213 86.7987 209.936 86.308C209.658 85.8173 209.296 85.4547 208.848 85.22C208.4 84.9747 207.914 84.852 207.392 84.852C206.858 84.852 206.368 84.9747 205.92 85.22C205.482 85.4547 205.13 85.8173 204.864 86.308C204.597 86.7987 204.464 87.396 204.464 88.1C204.464 88.8147 204.592 89.4173 204.848 89.908C205.114 90.3987 205.466 90.7667 205.904 91.012C206.341 91.2467 206.821 91.364 207.344 91.364ZM218.126 83.572C219.193 83.572 220.057 83.8973 220.718 84.548C221.379 85.188 221.71 86.116 221.71 87.332V92.5H220.27V87.54C220.27 86.6653 220.051 85.9987 219.614 85.54C219.177 85.0707 218.579 84.836 217.822 84.836C217.054 84.836 216.441 85.076 215.982 85.556C215.534 86.036 215.31 86.7347 215.31 87.652V92.5H213.854V83.732H215.31V84.98C215.598 84.532 215.987 84.1853 216.478 83.94C216.979 83.6947 217.529 83.572 218.126 83.572ZM227.292 92.644C226.62 92.644 226.018 92.532 225.484 92.308C224.951 92.0733 224.53 91.7533 224.22 91.348C223.911 90.932 223.74 90.4573 223.708 89.924H225.212C225.255 90.3613 225.458 90.7187 225.82 90.996C226.194 91.2733 226.679 91.412 227.276 91.412C227.831 91.412 228.268 91.2893 228.588 91.044C228.908 90.7987 229.068 90.4893 229.068 90.116C229.068 89.732 228.898 89.4493 228.556 89.268C228.215 89.076 227.687 88.8893 226.972 88.708C226.322 88.5373 225.788 88.3667 225.372 88.196C224.967 88.0147 224.615 87.7533 224.316 87.412C224.028 87.06 223.884 86.6013 223.884 86.036C223.884 85.588 224.018 85.1773 224.284 84.804C224.551 84.4307 224.93 84.1373 225.42 83.924C225.911 83.7 226.471 83.588 227.1 83.588C228.071 83.588 228.855 83.8333 229.452 84.324C230.05 84.8147 230.37 85.4867 230.412 86.34H228.956C228.924 85.8813 228.738 85.5133 228.396 85.236C228.066 84.9587 227.618 84.82 227.052 84.82C226.53 84.82 226.114 84.932 225.804 85.156C225.495 85.38 225.34 85.6733 225.34 86.036C225.34 86.324 225.431 86.564 225.612 86.756C225.804 86.9373 226.039 87.0867 226.316 87.204C226.604 87.3107 226.999 87.4333 227.5 87.572C228.13 87.7427 228.642 87.9133 229.036 88.084C229.431 88.244 229.767 88.4893 230.044 88.82C230.332 89.1507 230.482 89.5827 230.492 90.116C230.492 90.596 230.359 91.028 230.092 91.412C229.826 91.796 229.447 92.1 228.956 92.324C228.476 92.5373 227.922 92.644 227.292 92.644Z" fill="#3A3541" fill-opacity="0.87"/>
<rect x="395.245" y="84.5" width="98.2556" height="5" fill="#E0E0E8" stroke="#F5F6FA"/>
<rect x="394" y="84" width="88.3375" height="6" fill="#F04343"/>
<path d="M516.716 86.736C516.193 86.5307 515.792 86.232 515.512 85.84C515.232 85.448 515.092 84.972 515.092 84.412C515.092 83.908 515.218 83.4553 515.47 83.054C515.722 82.6433 516.095 82.3213 516.59 82.088C517.094 81.8453 517.701 81.724 518.41 81.724C519.119 81.724 519.721 81.8453 520.216 82.088C520.72 82.3213 521.098 82.6433 521.35 83.054C521.611 83.4553 521.742 83.908 521.742 84.412C521.742 84.9533 521.597 85.4293 521.308 85.84C521.019 86.2413 520.622 86.54 520.118 86.736C520.697 86.9133 521.154 87.226 521.49 87.674C521.835 88.1127 522.008 88.6447 522.008 89.27C522.008 89.8767 521.859 90.4087 521.56 90.866C521.261 91.314 520.837 91.664 520.286 91.916C519.745 92.1587 519.119 92.28 518.41 92.28C517.701 92.28 517.075 92.1587 516.534 91.916C516.002 91.664 515.587 91.314 515.288 90.866C514.989 90.4087 514.84 89.8767 514.84 89.27C514.84 88.6447 515.008 88.108 515.344 87.66C515.68 87.212 516.137 86.904 516.716 86.736ZM520.51 84.566C520.51 83.9967 520.323 83.558 519.95 83.25C519.577 82.942 519.063 82.788 518.41 82.788C517.766 82.788 517.257 82.942 516.884 83.25C516.511 83.558 516.324 84.0013 516.324 84.58C516.324 85.1027 516.515 85.5227 516.898 85.84C517.29 86.1573 517.794 86.316 518.41 86.316C519.035 86.316 519.539 86.1573 519.922 85.84C520.314 85.5133 520.51 85.0887 520.51 84.566ZM518.41 87.296C517.719 87.296 517.155 87.4593 516.716 87.786C516.277 88.1033 516.058 88.584 516.058 89.228C516.058 89.8253 516.268 90.306 516.688 90.67C517.117 91.034 517.691 91.216 518.41 91.216C519.129 91.216 519.698 91.034 520.118 90.67C520.538 90.306 520.748 89.8253 520.748 89.228C520.748 88.6027 520.533 88.1267 520.104 87.8C519.675 87.464 519.11 87.296 518.41 87.296ZM528.344 92L525.334 88.612V92H524.06V81.64H525.334V87.73L528.288 84.328H530.066L526.454 88.15L530.08 92H528.344ZM541.304 82.242V83.278H538.644V92H537.37V83.278H534.696V82.242H541.304ZM546.368 92.126C545.649 92.126 544.996 91.9627 544.408 91.636C543.829 91.3093 543.372 90.8473 543.036 90.25C542.709 89.6433 542.546 88.9433 542.546 88.15C542.546 87.366 542.714 86.6753 543.05 86.078C543.395 85.4713 543.862 85.0093 544.45 84.692C545.038 84.3653 545.696 84.202 546.424 84.202C547.152 84.202 547.81 84.3653 548.398 84.692C548.986 85.0093 549.448 85.4667 549.784 86.064C550.129 86.6613 550.302 87.3567 550.302 88.15C550.302 88.9433 550.124 89.6433 549.77 90.25C549.424 90.8473 548.953 91.3093 548.356 91.636C547.758 91.9627 547.096 92.126 546.368 92.126ZM546.368 91.006C546.825 91.006 547.254 90.8987 547.656 90.684C548.057 90.4693 548.379 90.1473 548.622 89.718C548.874 89.2887 549 88.766 549 88.15C549 87.534 548.878 87.0113 548.636 86.582C548.393 86.1527 548.076 85.8353 547.684 85.63C547.292 85.4153 546.867 85.308 546.41 85.308C545.943 85.308 545.514 85.4153 545.122 85.63C544.739 85.8353 544.431 86.1527 544.198 86.582C543.964 87.0113 543.848 87.534 543.848 88.15C543.848 88.7753 543.96 89.3027 544.184 89.732C544.417 90.1613 544.725 90.4833 545.108 90.698C545.49 90.9033 545.91 91.006 546.368 91.006ZM556.411 92L553.401 88.612V92H552.127V81.64H553.401V87.73L556.355 84.328H558.133L554.521 88.15L558.147 92H556.411ZM566.482 87.87C566.482 88.1127 566.468 88.3693 566.44 88.64H560.308C560.355 89.396 560.611 89.9887 561.078 90.418C561.554 90.838 562.128 91.048 562.8 91.048C563.351 91.048 563.808 90.922 564.172 90.67C564.545 90.4087 564.807 90.0633 564.956 89.634H566.328C566.123 90.3713 565.712 90.9733 565.096 91.44C564.48 91.8973 563.715 92.126 562.8 92.126C562.072 92.126 561.419 91.9627 560.84 91.636C560.271 91.3093 559.823 90.8473 559.496 90.25C559.169 89.6433 559.006 88.9433 559.006 88.15C559.006 87.3567 559.165 86.6613 559.482 86.064C559.799 85.4667 560.243 85.0093 560.812 84.692C561.391 84.3653 562.053 84.202 562.8 84.202C563.528 84.202 564.172 84.3607 564.732 84.678C565.292 84.9953 565.721 85.434 566.02 85.994C566.328 86.5447 566.482 87.17 566.482 87.87ZM565.166 87.604C565.166 87.1187 565.059 86.7033 564.844 86.358C564.629 86.0033 564.335 85.7373 563.962 85.56C563.598 85.3733 563.192 85.28 562.744 85.28C562.1 85.28 561.549 85.4853 561.092 85.896C560.644 86.3067 560.387 86.876 560.322 87.604H565.166ZM572.052 84.188C572.985 84.188 573.741 84.4727 574.32 85.042C574.898 85.602 575.188 86.414 575.188 87.478V92H573.928V87.66C573.928 86.8947 573.736 86.3113 573.354 85.91C572.971 85.4993 572.448 85.294 571.786 85.294C571.114 85.294 570.577 85.504 570.176 85.924C569.784 86.344 569.588 86.9553 569.588 87.758V92H568.314V84.328H569.588V85.42C569.84 85.028 570.18 84.7247 570.61 84.51C571.048 84.2953 571.529 84.188 572.052 84.188ZM580.135 92.126C579.547 92.126 579.019 92.028 578.553 91.832C578.086 91.6267 577.717 91.3467 577.447 90.992C577.176 90.628 577.027 90.2127 576.999 89.746H578.315C578.352 90.1287 578.529 90.4413 578.847 90.684C579.173 90.9267 579.598 91.048 580.121 91.048C580.606 91.048 580.989 90.9407 581.269 90.726C581.549 90.5113 581.689 90.2407 581.689 89.914C581.689 89.578 581.539 89.3307 581.241 89.172C580.942 89.004 580.48 88.8407 579.855 88.682C579.285 88.5327 578.819 88.3833 578.455 88.234C578.1 88.0753 577.792 87.8467 577.531 87.548C577.279 87.24 577.153 86.8387 577.153 86.344C577.153 85.952 577.269 85.5927 577.503 85.266C577.736 84.9393 578.067 84.6827 578.497 84.496C578.926 84.3 579.416 84.202 579.967 84.202C580.816 84.202 581.502 84.4167 582.025 84.846C582.547 85.2753 582.827 85.8633 582.865 86.61H581.591C581.563 86.2087 581.399 85.8867 581.101 85.644C580.811 85.4013 580.419 85.28 579.925 85.28C579.467 85.28 579.103 85.378 578.833 85.574C578.562 85.77 578.427 86.0267 578.427 86.344C578.427 86.596 578.506 86.806 578.665 86.974C578.833 87.1327 579.038 87.2633 579.281 87.366C579.533 87.4593 579.878 87.5667 580.317 87.688C580.867 87.8373 581.315 87.9867 581.661 88.136C582.006 88.276 582.3 88.4907 582.543 88.78C582.795 89.0693 582.925 89.4473 582.935 89.914C582.935 90.334 582.818 90.712 582.585 91.048C582.351 91.384 582.02 91.65 581.591 91.846C581.171 92.0327 580.685 92.126 580.135 92.126Z" fill="#3A3541" fill-opacity="0.68"/>
<path d="M745 80C738.106 80 734.167 87 734.167 87C734.167 87 738.106 94 745 94C751.894 94 755.833 87 755.833 87C755.833 87 751.894 80 745 80Z" stroke="#959298" stroke-width="1.5" stroke-linecap="round" stroke-linejoin="round"/>
<path d="M745 90C746.795 90 748.25 88.6569 748.25 87C748.25 85.3431 746.795 84 745 84C743.205 84 741.75 85.3431 741.75 87C741.75 88.6569 743.205 90 745 90Z" stroke="#959298" stroke-width="1.5" stroke-linecap="round" stroke-linejoin="round"/>
<path d="M785 78H787C787.552 78 788 78.4477 788 79V79.5688C788 79.9966 788.287 80.3682 788.682 80.5323C789.077 80.6964 789.538 80.6338 789.84 80.3312L790.243 79.9289C790.633 79.5384 791.266 79.5384 791.657 79.9289L793.071 81.3431C793.462 81.7336 793.462 82.3668 793.071 82.7573L792.669 83.1596C792.366 83.4622 792.304 83.9225 792.468 84.3177C792.632 84.7129 793.003 85 793.431 85L794 85C794.552 85 795 85.4477 795 86V88C795 88.5523 794.552 89 794 89H793.431C793.003 89 792.632 89.2871 792.468 89.6822C792.304 90.0775 792.366 90.5377 792.669 90.8403L793.071 91.2426C793.462 91.6331 793.462 92.2663 793.071 92.6568L791.657 94.071C791.266 94.4616 790.633 94.4616 790.243 94.071L789.84 93.6688C789.538 93.3661 789.077 93.3036 788.682 93.4677C788.287 93.6318 788 94.0034 788 94.4312V95C788 95.5523 787.552 96 787 96H785C784.448 96 784 95.5523 784 95V94.4313C784 94.0034 783.713 93.6317 783.318 93.4677C782.922 93.3036 782.462 93.3661 782.16 93.6688L781.757 94.071C781.367 94.4616 780.734 94.4616 780.343 94.071L778.929 92.6568C778.538 92.2663 778.538 91.6331 778.929 91.2426L779.331 90.8403C779.634 90.5377 779.696 90.0775 779.532 89.6822C779.368 89.2871 778.997 89 778.569 89H778C777.448 89 777 88.5523 777 88V86C777 85.4477 777.448 85 778 85L778.569 85C778.997 85 779.368 84.7129 779.532 84.3178C779.696 83.9225 779.634 83.4623 779.331 83.1597L778.929 82.7573C778.538 82.3668 778.538 81.7336 778.929 81.3431L780.343 79.9289C780.734 79.5384 781.367 79.5384 781.757 79.9289L782.16 80.3312C782.462 80.6339 782.922 80.6964 783.318 80.5323C783.713 80.3683 784 79.9966 784 79.5688V79C784 78.4477 784.448 78 785 78Z" stroke="#A3A3A3" stroke-width="1.5"/>
<path d="M788 87C788 88.1046 787.105 89 786 89C784.895 89 784 88.1046 784 87C784 85.8954 784.895 85 786 85C787.105 85 788 85.8954 788 87Z" stroke="#A3A3A3" stroke-width="1.5"/>
<path d="M0 56H854V54H0V56Z" fill="#3A3541" fill-opacity="0.12" mask="url(#path-9-outside-1_1_3591)"/>
<rect x="21" y="135" width="34" height="34" rx="17" fill="#9BB7C2"/>
<path d="M76.824 146.348V157.5H75.368V152.444H69.688V157.5H68.232V146.348H69.688V151.244H75.368V146.348H76.824ZM85.2821 157.5L82.6261 152.94H80.8661V157.5H79.4101V146.348H83.0101C83.8528 146.348 84.5621 146.492 85.1381 146.78C85.7248 147.068 86.1621 147.457 86.4501 147.948C86.7381 148.439 86.8821 148.999 86.8821 149.628C86.8821 150.396 86.6581 151.073 86.2101 151.66C85.7728 152.247 85.1115 152.636 84.2261 152.828L87.0261 157.5H85.2821ZM80.8661 151.772H83.0101C83.7995 151.772 84.3915 151.58 84.7861 151.196C85.1808 150.801 85.3781 150.279 85.3781 149.628C85.3781 148.967 85.1808 148.455 84.7861 148.092C84.4021 147.729 83.8101 147.548 83.0101 147.548H80.8661V151.772Z" fill="#3A3541" fill-opacity="0.87"/>
<rect x="394.997" y="149.5" width="98.5025" height="5" fill="#E0E0E8" stroke="#F5F6FA"/>
<rect x="394" y="149" width="19.9005" height="6" fill="#5BCD97"/>
<path d="M514.532 148.04V146.878H517.164V157H515.876V148.04H514.532ZM523.996 157L520.986 153.612V157H519.712V146.64H520.986V152.73L523.94 149.328H525.718L522.106 153.15L525.732 157H523.996ZM536.956 147.242V148.278H534.296V157H533.022V148.278H530.348V147.242H536.956ZM542.02 157.126C541.301 157.126 540.648 156.963 540.06 156.636C539.481 156.309 539.024 155.847 538.688 155.25C538.361 154.643 538.198 153.943 538.198 153.15C538.198 152.366 538.366 151.675 538.702 151.078C539.047 150.471 539.514 150.009 540.102 149.692C540.69 149.365 541.348 149.202 542.076 149.202C542.804 149.202 543.462 149.365 544.05 149.692C544.638 150.009 545.1 150.467 545.436 151.064C545.781 151.661 545.954 152.357 545.954 153.15C545.954 153.943 545.777 154.643 545.422 155.25C545.077 155.847 544.605 156.309 544.008 156.636C543.411 156.963 542.748 157.126 542.02 157.126ZM542.02 156.006C542.477 156.006 542.907 155.899 543.308 155.684C543.709 155.469 544.031 155.147 544.274 154.718C544.526 154.289 544.652 153.766 544.652 153.15C544.652 152.534 544.531 152.011 544.288 151.582C544.045 151.153 543.728 150.835 543.336 150.63C542.944 150.415 542.519 150.308 542.062 150.308C541.595 150.308 541.166 150.415 540.774 150.63C540.391 150.835 540.083 151.153 539.85 151.582C539.617 152.011 539.5 152.534 539.5 153.15C539.5 153.775 539.612 154.303 539.836 154.732C540.069 155.161 540.377 155.483 540.76 155.698C541.143 155.903 541.563 156.006 542.02 156.006ZM552.063 157L549.053 153.612V157H547.779V146.64H549.053V152.73L552.007 149.328H553.785L550.173 153.15L553.799 157H552.063ZM562.134 152.87C562.134 153.113 562.12 153.369 562.092 153.64H555.96C556.007 154.396 556.264 154.989 556.73 155.418C557.206 155.838 557.78 156.048 558.452 156.048C559.003 156.048 559.46 155.922 559.824 155.67C560.198 155.409 560.459 155.063 560.608 154.634H561.98C561.775 155.371 561.364 155.973 560.748 156.44C560.132 156.897 559.367 157.126 558.452 157.126C557.724 157.126 557.071 156.963 556.492 156.636C555.923 156.309 555.475 155.847 555.148 155.25C554.822 154.643 554.658 153.943 554.658 153.15C554.658 152.357 554.817 151.661 555.134 151.064C555.452 150.467 555.895 150.009 556.464 149.692C557.043 149.365 557.706 149.202 558.452 149.202C559.18 149.202 559.824 149.361 560.384 149.678C560.944 149.995 561.374 150.434 561.672 150.994C561.98 151.545 562.134 152.17 562.134 152.87ZM560.818 152.604C560.818 152.119 560.711 151.703 560.496 151.358C560.282 151.003 559.988 150.737 559.614 150.56C559.25 150.373 558.844 150.28 558.396 150.28C557.752 150.28 557.202 150.485 556.744 150.896C556.296 151.307 556.04 151.876 555.974 152.604H560.818ZM567.704 149.188C568.637 149.188 569.393 149.473 569.972 150.042C570.551 150.602 570.84 151.414 570.84 152.478V157H569.58V152.66C569.58 151.895 569.389 151.311 569.006 150.91C568.623 150.499 568.101 150.294 567.438 150.294C566.766 150.294 566.229 150.504 565.828 150.924C565.436 151.344 565.24 151.955 565.24 152.758V157H563.966V149.328H565.24V150.42C565.492 150.028 565.833 149.725 566.262 149.51C566.701 149.295 567.181 149.188 567.704 149.188ZM575.787 157.126C575.199 157.126 574.672 157.028 574.205 156.832C573.738 156.627 573.37 156.347 573.099 155.992C572.828 155.628 572.679 155.213 572.651 154.746H573.967C574.004 155.129 574.182 155.441 574.499 155.684C574.826 155.927 575.25 156.048 575.773 156.048C576.258 156.048 576.641 155.941 576.921 155.726C577.201 155.511 577.341 155.241 577.341 154.914C577.341 154.578 577.192 154.331 576.893 154.172C576.594 154.004 576.132 153.841 575.507 153.682C574.938 153.533 574.471 153.383 574.107 153.234C573.752 153.075 573.444 152.847 573.183 152.548C572.931 152.24 572.805 151.839 572.805 151.344C572.805 150.952 572.922 150.593 573.155 150.266C573.388 149.939 573.72 149.683 574.149 149.496C574.578 149.3 575.068 149.202 575.619 149.202C576.468 149.202 577.154 149.417 577.677 149.846C578.2 150.275 578.48 150.863 578.517 151.61H577.243C577.215 151.209 577.052 150.887 576.753 150.644C576.464 150.401 576.072 150.28 575.577 150.28C575.12 150.28 574.756 150.378 574.485 150.574C574.214 150.77 574.079 151.027 574.079 151.344C574.079 151.596 574.158 151.806 574.317 151.974C574.485 152.133 574.69 152.263 574.933 152.366C575.185 152.459 575.53 152.567 575.969 152.688C576.52 152.837 576.968 152.987 577.313 153.136C577.658 153.276 577.952 153.491 578.195 153.78C578.447 154.069 578.578 154.447 578.587 154.914C578.587 155.334 578.47 155.712 578.237 156.048C578.004 156.384 577.672 156.65 577.243 156.846C576.823 157.033 576.338 157.126 575.787 157.126Z" fill="#3A3541" fill-opacity="0.68"/>
<path d="M745 145C738.106 145 734.167 152 734.167 152C734.167 152 738.106 159 745 159C751.894 159 755.833 152 755.833 152C755.833 152 751.894 145 745 145Z" stroke="#959298" stroke-width="1.5" stroke-linecap="round" stroke-linejoin="round"/>
<path d="M745 155C746.795 155 748.25 153.657 748.25 152C748.25 150.343 746.795 149 745 149C743.205 149 741.75 150.343 741.75 152C741.75 153.657 743.205 155 745 155Z" stroke="#959298" stroke-width="1.5" stroke-linecap="round" stroke-linejoin="round"/>
<path d="M785 143H787C787.552 143 788 143.448 788 144V144.569C788 144.997 788.287 145.368 788.682 145.532C789.077 145.696 789.538 145.634 789.84 145.331L790.243 144.929C790.633 144.538 791.266 144.538 791.657 144.929L793.071 146.343C793.462 146.734 793.462 147.367 793.071 147.757L792.669 148.16C792.366 148.462 792.304 148.922 792.468 149.318C792.632 149.713 793.003 150 793.431 150L794 150C794.552 150 795 150.448 795 151V153C795 153.552 794.552 154 794 154H793.431C793.003 154 792.632 154.287 792.468 154.682C792.304 155.078 792.366 155.538 792.669 155.84L793.071 156.243C793.462 156.633 793.462 157.266 793.071 157.657L791.657 159.071C791.266 159.462 790.633 159.462 790.243 159.071L789.84 158.669C789.538 158.366 789.077 158.304 788.682 158.468C788.287 158.632 788 159.003 788 159.431V160C788 160.552 787.552 161 787 161H785C784.448 161 784 160.552 784 160V159.431C784 159.003 783.713 158.632 783.318 158.468C782.922 158.304 782.462 158.366 782.16 158.669L781.757 159.071C781.367 159.462 780.734 159.462 780.343 159.071L778.929 157.657C778.538 157.266 778.538 156.633 778.929 156.243L779.331 155.84C779.634 155.538 779.696 155.077 779.532 154.682C779.368 154.287 778.997 154 778.569 154H778C777.448 154 777 153.552 777 153V151C777 150.448 777.448 150 778 150L778.569 150C778.997 150 779.368 149.713 779.532 149.318C779.696 148.923 779.634 148.462 779.331 148.16L778.929 147.757C778.538 147.367 778.538 146.734 778.929 146.343L780.343 144.929C780.734 144.538 781.367 144.538 781.757 144.929L782.16 145.331C782.462 145.634 782.922 145.696 783.318 145.532C783.713 145.368 784 144.997 784 144.569V144C784 143.448 784.448 143 785 143Z" stroke="#A3A3A3" stroke-width="1.5"/>
<path d="M788 152C788 153.105 787.105 154 786 154C784.895 154 784 153.105 784 152C784 150.895 784.895 150 786 150C787.105 150 788 150.895 788 152Z" stroke="#A3A3A3" stroke-width="1.5"/>
<path d="M0 121H854V119H0V121Z" fill="#3A3541" fill-opacity="0.12" mask="url(#path-18-outside-2_1_3591)"/>
<rect x="21" y="200" width="34" height="34" rx="17" fill="#FFBB78"/>
<path d="M74.824 220.02H69.96L69.064 222.5H67.528L71.56 211.412H73.24L77.256 222.5H75.72L74.824 220.02ZM74.408 218.836L72.392 213.204L70.376 218.836H74.408ZM78.5693 218.1C78.5693 217.193 78.7506 216.404 79.1133 215.732C79.4759 215.049 79.9773 214.521 80.6173 214.148C81.2679 213.775 82.0093 213.588 82.8413 213.588C83.9186 213.588 84.8039 213.849 85.4973 214.372C86.2013 214.895 86.6653 215.62 86.8893 216.548H85.3213C85.1719 216.015 84.8786 215.593 84.4413 215.284C84.0146 214.975 83.4813 214.82 82.8413 214.82C82.0093 214.82 81.3373 215.108 80.8253 215.684C80.3133 216.249 80.0573 217.055 80.0573 218.1C80.0573 219.156 80.3133 219.972 80.8253 220.548C81.3373 221.124 82.0093 221.412 82.8413 221.412C83.4813 221.412 84.0146 221.263 84.4413 220.964C84.8679 220.665 85.1613 220.239 85.3213 219.684H86.8893C86.6546 220.58 86.1853 221.3 85.4813 221.844C84.7773 222.377 83.8973 222.644 82.8413 222.644C82.0093 222.644 81.2679 222.457 80.6173 222.084C79.9773 221.711 79.4759 221.183 79.1133 220.5C78.7506 219.817 78.5693 219.017 78.5693 218.1ZM88.388 218.1C88.388 217.193 88.5693 216.404 88.932 215.732C89.2947 215.049 89.796 214.521 90.436 214.148C91.0867 213.775 91.828 213.588 92.66 213.588C93.7373 213.588 94.6227 213.849 95.316 214.372C96.02 214.895 96.484 215.62 96.708 216.548H95.14C94.9907 216.015 94.6973 215.593 94.26 215.284C93.8333 214.975 93.3 214.82 92.66 214.82C91.828 214.82 91.156 215.108 90.644 215.684C90.132 216.249 89.876 217.055 89.876 218.1C89.876 219.156 90.132 219.972 90.644 220.548C91.156 221.124 91.828 221.412 92.66 221.412C93.3 221.412 93.8333 221.263 94.26 220.964C94.6867 220.665 94.98 220.239 95.14 219.684H96.708C96.4733 220.58 96.004 221.3 95.3 221.844C94.596 222.377 93.716 222.644 92.66 222.644C91.828 222.644 91.0867 222.457 90.436 222.084C89.796 221.711 89.2947 221.183 88.932 220.5C88.5693 219.817 88.388 219.017 88.388 218.1ZM102.575 222.644C101.753 222.644 101.007 222.457 100.335 222.084C99.6734 221.711 99.1507 221.183 98.7667 220.5C98.3934 219.807 98.2067 219.007 98.2067 218.1C98.2067 217.204 98.3987 216.415 98.7827 215.732C99.1774 215.039 99.7107 214.511 100.383 214.148C101.055 213.775 101.807 213.588 102.639 213.588C103.471 213.588 104.223 213.775 104.895 214.148C105.567 214.511 106.095 215.033 106.479 215.716C106.873 216.399 107.071 217.193 107.071 218.1C107.071 219.007 106.868 219.807 106.463 220.5C106.068 221.183 105.529 221.711 104.847 222.084C104.164 222.457 103.407 222.644 102.575 222.644ZM102.575 221.364C103.097 221.364 103.588 221.241 104.047 220.996C104.505 220.751 104.873 220.383 105.151 219.892C105.439 219.401 105.583 218.804 105.583 218.1C105.583 217.396 105.444 216.799 105.167 216.308C104.889 215.817 104.527 215.455 104.079 215.22C103.631 214.975 103.145 214.852 102.623 214.852C102.089 214.852 101.599 214.975 101.151 215.22C100.713 215.455 100.361 215.817 100.095 216.308C99.8281 216.799 99.6947 217.396 99.6947 218.1C99.6947 218.815 99.8227 219.417 100.079 219.908C100.345 220.399 100.697 220.767 101.135 221.012C101.572 221.247 102.052 221.364 102.575 221.364ZM116.861 213.732V222.5H115.405V221.204C115.128 221.652 114.738 222.004 114.237 222.26C113.746 222.505 113.202 222.628 112.605 222.628C111.922 222.628 111.309 222.489 110.765 222.212C110.221 221.924 109.789 221.497 109.469 220.932C109.16 220.367 109.005 219.679 109.005 218.868V213.732H110.445V218.676C110.445 219.54 110.664 220.207 111.101 220.676C111.538 221.135 112.136 221.364 112.893 221.364C113.672 221.364 114.285 221.124 114.733 220.644C115.181 220.164 115.405 219.465 115.405 218.548V213.732H116.861ZM123.692 213.572C124.758 213.572 125.622 213.897 126.284 214.548C126.945 215.188 127.276 216.116 127.276 217.332V222.5H125.836V217.54C125.836 216.665 125.617 215.999 125.18 215.54C124.742 215.071 124.145 214.836 123.388 214.836C122.62 214.836 122.006 215.076 121.548 215.556C121.1 216.036 120.876 216.735 120.876 217.652V222.5H119.42V213.732H120.876V214.98C121.164 214.532 121.553 214.185 122.044 213.94C122.545 213.695 123.094 213.572 123.692 213.572ZM131.53 214.932V220.1C131.53 220.527 131.621 220.831 131.802 221.012C131.983 221.183 132.298 221.268 132.746 221.268H133.818V222.5H132.506C131.695 222.5 131.087 222.313 130.682 221.94C130.277 221.567 130.074 220.953 130.074 220.1V214.932H128.938V213.732H130.074V211.524H131.53V213.732H133.818V214.932H131.53ZM136.434 212.308C136.157 212.308 135.922 212.212 135.73 212.02C135.538 211.828 135.442 211.593 135.442 211.316C135.442 211.039 135.538 210.804 135.73 210.612C135.922 210.42 136.157 210.324 136.434 210.324C136.701 210.324 136.925 210.42 137.106 210.612C137.298 210.804 137.394 211.039 137.394 211.316C137.394 211.593 137.298 211.828 137.106 212.02C136.925 212.212 136.701 212.308 136.434 212.308ZM137.138 213.732V222.5H135.682V213.732H137.138ZM143.992 213.572C145.058 213.572 145.922 213.897 146.584 214.548C147.245 215.188 147.576 216.116 147.576 217.332V222.5H146.136V217.54C146.136 216.665 145.917 215.999 145.48 215.54C145.042 215.071 144.445 214.836 143.688 214.836C142.92 214.836 142.306 215.076 141.848 215.556C141.4 216.036 141.176 216.735 141.176 217.652V222.5H139.72V213.732H141.176V214.98C141.464 214.532 141.853 214.185 142.344 213.94C142.845 213.695 143.394 213.572 143.992 213.572ZM153.67 213.588C154.427 213.588 155.089 213.753 155.654 214.084C156.23 214.415 156.657 214.831 156.934 215.332V213.732H158.406V222.692C158.406 223.492 158.235 224.201 157.894 224.82C157.553 225.449 157.062 225.94 156.422 226.292C155.793 226.644 155.057 226.82 154.214 226.82C153.062 226.82 152.102 226.548 151.334 226.004C150.566 225.46 150.113 224.719 149.974 223.78H151.414C151.574 224.313 151.905 224.74 152.406 225.06C152.907 225.391 153.51 225.556 154.214 225.556C155.014 225.556 155.665 225.305 156.166 224.804C156.678 224.303 156.934 223.599 156.934 222.692V220.852C156.646 221.364 156.219 221.791 155.654 222.132C155.089 222.473 154.427 222.644 153.67 222.644C152.891 222.644 152.182 222.452 151.542 222.068C150.913 221.684 150.417 221.145 150.054 220.452C149.691 219.759 149.51 218.969 149.51 218.084C149.51 217.188 149.691 216.404 150.054 215.732C150.417 215.049 150.913 214.521 151.542 214.148C152.182 213.775 152.891 213.588 153.67 213.588ZM156.934 218.1C156.934 217.439 156.801 216.863 156.534 216.372C156.267 215.881 155.905 215.508 155.446 215.252C154.998 214.985 154.502 214.852 153.958 214.852C153.414 214.852 152.918 214.98 152.47 215.236C152.022 215.492 151.665 215.865 151.398 216.356C151.131 216.847 150.998 217.423 150.998 218.084C150.998 218.756 151.131 219.343 151.398 219.844C151.665 220.335 152.022 220.713 152.47 220.98C152.918 221.236 153.414 221.364 153.958 221.364C154.502 221.364 154.998 221.236 155.446 220.98C155.905 220.713 156.267 220.335 156.534 219.844C156.801 219.343 156.934 218.761 156.934 218.1Z" fill="#3A3541" fill-opacity="0.87"/>
<rect x="395.429" y="214.5" width="98.0712" height="5" fill="#E0E0E8" stroke="#F5F6FA"/>
<rect x="394" y="214" width="66.3777" height="6" fill="#FFCD93"/>
<path d="M521.322 212.984H516.408V216.176C516.623 215.877 516.94 215.635 517.36 215.448C517.78 215.252 518.233 215.154 518.718 215.154C519.493 215.154 520.123 215.317 520.608 215.644C521.093 215.961 521.439 216.377 521.644 216.89C521.859 217.394 521.966 217.931 521.966 218.5C521.966 219.172 521.84 219.774 521.588 220.306C521.336 220.838 520.949 221.258 520.426 221.566C519.913 221.874 519.273 222.028 518.508 222.028C517.528 222.028 516.735 221.776 516.128 221.272C515.521 220.768 515.153 220.096 515.022 219.256H516.268C516.389 219.788 516.646 220.203 517.038 220.502C517.43 220.801 517.925 220.95 518.522 220.95C519.259 220.95 519.815 220.731 520.188 220.292C520.561 219.844 520.748 219.256 520.748 218.528C520.748 217.8 520.561 217.24 520.188 216.848C519.815 216.447 519.264 216.246 518.536 216.246C518.041 216.246 517.607 216.367 517.234 216.61C516.87 216.843 516.604 217.165 516.436 217.576H515.232V211.864H521.322V212.984ZM528.303 222L525.293 218.612V222H524.019V211.64H525.293V217.73L528.247 214.328H530.025L526.413 218.15L530.039 222H528.303ZM541.263 212.242V213.278H538.603V222H537.329V213.278H534.655V212.242H541.263ZM546.327 222.126C545.608 222.126 544.955 221.963 544.367 221.636C543.788 221.309 543.331 220.847 542.995 220.25C542.668 219.643 542.505 218.943 542.505 218.15C542.505 217.366 542.673 216.675 543.009 216.078C543.354 215.471 543.821 215.009 544.409 214.692C544.997 214.365 545.655 214.202 546.383 214.202C547.111 214.202 547.769 214.365 548.357 214.692C548.945 215.009 549.407 215.467 549.743 216.064C550.088 216.661 550.261 217.357 550.261 218.15C550.261 218.943 550.083 219.643 549.729 220.25C549.383 220.847 548.912 221.309 548.315 221.636C547.717 221.963 547.055 222.126 546.327 222.126ZM546.327 221.006C546.784 221.006 547.213 220.899 547.615 220.684C548.016 220.469 548.338 220.147 548.581 219.718C548.833 219.289 548.959 218.766 548.959 218.15C548.959 217.534 548.837 217.011 548.595 216.582C548.352 216.153 548.035 215.835 547.643 215.63C547.251 215.415 546.826 215.308 546.369 215.308C545.902 215.308 545.473 215.415 545.081 215.63C544.698 215.835 544.39 216.153 544.157 216.582C543.923 217.011 543.807 217.534 543.807 218.15C543.807 218.775 543.919 219.303 544.143 219.732C544.376 220.161 544.684 220.483 545.067 220.698C545.449 220.903 545.869 221.006 546.327 221.006ZM556.37 222L553.36 218.612V222H552.086V211.64H553.36V217.73L556.314 214.328H558.092L554.48 218.15L558.106 222H556.37ZM566.441 217.87C566.441 218.113 566.427 218.369 566.399 218.64H560.267C560.314 219.396 560.57 219.989 561.037 220.418C561.513 220.838 562.087 221.048 562.759 221.048C563.31 221.048 563.767 220.922 564.131 220.67C564.504 220.409 564.766 220.063 564.915 219.634H566.287C566.082 220.371 565.671 220.973 565.055 221.44C564.439 221.897 563.674 222.126 562.759 222.126C562.031 222.126 561.378 221.963 560.799 221.636C560.23 221.309 559.782 220.847 559.455 220.25C559.128 219.643 558.965 218.943 558.965 218.15C558.965 217.357 559.124 216.661 559.441 216.064C559.758 215.467 560.202 215.009 560.771 214.692C561.35 214.365 562.012 214.202 562.759 214.202C563.487 214.202 564.131 214.361 564.691 214.678C565.251 214.995 565.68 215.434 565.979 215.994C566.287 216.545 566.441 217.17 566.441 217.87ZM565.125 217.604C565.125 217.119 565.018 216.703 564.803 216.358C564.588 216.003 564.294 215.737 563.921 215.56C563.557 215.373 563.151 215.28 562.703 215.28C562.059 215.28 561.508 215.485 561.051 215.896C560.603 216.307 560.346 216.876 560.281 217.604H565.125ZM572.011 214.188C572.944 214.188 573.7 214.473 574.279 215.042C574.857 215.602 575.147 216.414 575.147 217.478V222H573.887V217.66C573.887 216.895 573.695 216.311 573.313 215.91C572.93 215.499 572.407 215.294 571.745 215.294C571.073 215.294 570.536 215.504 570.135 215.924C569.743 216.344 569.547 216.955 569.547 217.758V222H568.273V214.328H569.547V215.42C569.799 215.028 570.139 214.725 570.569 214.51C571.007 214.295 571.488 214.188 572.011 214.188ZM580.094 222.126C579.506 222.126 578.978 222.028 578.512 221.832C578.045 221.627 577.676 221.347 577.406 220.992C577.135 220.628 576.986 220.213 576.958 219.746H578.274C578.311 220.129 578.488 220.441 578.806 220.684C579.132 220.927 579.557 221.048 580.08 221.048C580.565 221.048 580.948 220.941 581.228 220.726C581.508 220.511 581.648 220.241 581.648 219.914C581.648 219.578 581.498 219.331 581.2 219.172C580.901 219.004 580.439 218.841 579.814 218.682C579.244 218.533 578.778 218.383 578.414 218.234C578.059 218.075 577.751 217.847 577.49 217.548C577.238 217.24 577.112 216.839 577.112 216.344C577.112 215.952 577.228 215.593 577.462 215.266C577.695 214.939 578.026 214.683 578.456 214.496C578.885 214.3 579.375 214.202 579.926 214.202C580.775 214.202 581.461 214.417 581.984 214.846C582.506 215.275 582.786 215.863 582.824 216.61H581.55C581.522 216.209 581.358 215.887 581.06 215.644C580.77 215.401 580.378 215.28 579.884 215.28C579.426 215.28 579.062 215.378 578.792 215.574C578.521 215.77 578.386 216.027 578.386 216.344C578.386 216.596 578.465 216.806 578.624 216.974C578.792 217.133 578.997 217.263 579.24 217.366C579.492 217.459 579.837 217.567 580.276 217.688C580.826 217.837 581.274 217.987 581.62 218.136C581.965 218.276 582.259 218.491 582.502 218.78C582.754 219.069 582.884 219.447 582.894 219.914C582.894 220.334 582.777 220.712 582.544 221.048C582.31 221.384 581.979 221.65 581.55 221.846C581.13 222.033 580.644 222.126 580.094 222.126Z" fill="#3A3541" fill-opacity="0.68"/>
<path d="M745 210C738.106 210 734.167 217 734.167 217C734.167 217 738.106 224 745 224C751.894 224 755.833 217 755.833 217C755.833 217 751.894 210 745 210Z" stroke="#959298" stroke-width="1.5" stroke-linecap="round" stroke-linejoin="round"/>
<path d="M745 220C746.795 220 748.25 218.657 748.25 217C748.25 215.343 746.795 214 745 214C743.205 214 741.75 215.343 741.75 217C741.75 218.657 743.205 220 745 220Z" stroke="#959298" stroke-width="1.5" stroke-linecap="round" stroke-linejoin="round"/>
<path d="M785 208H787C787.552 208 788 208.448 788 209V209.569C788 209.997 788.287 210.368 788.682 210.532C789.077 210.696 789.538 210.634 789.84 210.331L790.243 209.929C790.633 209.538 791.266 209.538 791.657 209.929L793.071 211.343C793.462 211.734 793.462 212.367 793.071 212.757L792.669 213.16C792.366 213.462 792.304 213.922 792.468 214.318C792.632 214.713 793.003 215 793.431 215L794 215C794.552 215 795 215.448 795 216V218C795 218.552 794.552 219 794 219H793.431C793.003 219 792.632 219.287 792.468 219.682C792.304 220.078 792.366 220.538 792.669 220.84L793.071 221.243C793.462 221.633 793.462 222.266 793.071 222.657L791.657 224.071C791.266 224.462 790.633 224.462 790.243 224.071L789.84 223.669C789.538 223.366 789.077 223.304 788.682 223.468C788.287 223.632 788 224.003 788 224.431V225C788 225.552 787.552 226 787 226H785C784.448 226 784 225.552 784 225V224.431C784 224.003 783.713 223.632 783.318 223.468C782.922 223.304 782.462 223.366 782.16 223.669L781.757 224.071C781.367 224.462 780.734 224.462 780.343 224.071L778.929 222.657C778.538 222.266 778.538 221.633 778.929 221.243L779.331 220.84C779.634 220.538 779.696 220.077 779.532 219.682C779.368 219.287 778.997 219 778.569 219H778C777.448 219 777 218.552 777 218V216C777 215.448 777.448 215 778 215L778.569 215C778.997 215 779.368 214.713 779.532 214.318C779.696 213.923 779.634 213.462 779.331 213.16L778.929 212.757C778.538 212.367 778.538 211.734 778.929 211.343L780.343 209.929C780.734 209.538 781.367 209.538 781.757 209.929L782.16 210.331C782.462 210.634 782.922 210.696 783.318 210.532C783.713 210.368 784 209.997 784 209.569V209C784 208.448 784.448 208 785 208Z" stroke="#A3A3A3" stroke-width="1.5"/>
<path d="M788 217C788 218.105 787.105 219 786 219C784.895 219 784 218.105 784 217C784 215.895 784.895 215 786 215C787.105 215 788 215.895 788 217Z" stroke="#A3A3A3" stroke-width="1.5"/>
<path d="M0 186H854V184H0V186Z" fill="#3A3541" fill-opacity="0.12" mask="url(#path-27-outside-3_1_3591)"/>
<rect x="21" y="265" width="34" height="34" rx="17" fill="#62C0BB"/>
<path d="M69.688 276.348V287.5H68.232V276.348H69.688ZM79.1335 276.348V277.532H76.0935V287.5H74.6375V277.532H71.5815V276.348H79.1335Z" fill="#3A3541" fill-opacity="0.87"/>
<rect x="395.429" y="279.5" width="98.0712" height="5" fill="#E0E0E8" stroke="#F5F6FA"/>
<rect x="394" y="279" width="50" height="6" fill="#FFCD93"/>
<path d="M514.56 284.746V283.78L519.474 276.976H521V283.64H522.4V284.746H521V287H519.74V284.746H514.56ZM519.796 278.306L516.03 283.64H519.796V278.306ZM528.317 287L525.307 283.612V287H524.033V276.64H525.307V282.73L528.261 279.328H530.039L526.427 283.15L530.053 287H528.317ZM541.276 277.242V278.278H538.616V287H537.342V278.278H534.668V277.242H541.276ZM546.34 287.126C545.622 287.126 544.968 286.963 544.38 286.636C543.802 286.309 543.344 285.847 543.008 285.25C542.682 284.643 542.518 283.943 542.518 283.15C542.518 282.366 542.686 281.675 543.022 281.078C543.368 280.471 543.834 280.009 544.422 279.692C545.01 279.365 545.668 279.202 546.396 279.202C547.124 279.202 547.782 279.365 548.37 279.692C548.958 280.009 549.42 280.467 549.756 281.064C550.102 281.661 550.274 282.357 550.274 283.15C550.274 283.943 550.097 284.643 549.742 285.25C549.397 285.847 548.926 286.309 548.328 286.636C547.731 286.963 547.068 287.126 546.34 287.126ZM546.34 286.006C546.798 286.006 547.227 285.899 547.628 285.684C548.03 285.469 548.352 285.147 548.594 284.718C548.846 284.289 548.972 283.766 548.972 283.15C548.972 282.534 548.851 282.011 548.608 281.582C548.366 281.153 548.048 280.835 547.656 280.63C547.264 280.415 546.84 280.308 546.382 280.308C545.916 280.308 545.486 280.415 545.094 280.63C544.712 280.835 544.404 281.153 544.17 281.582C543.937 282.011 543.82 282.534 543.82 283.15C543.82 283.775 543.932 284.303 544.156 284.732C544.39 285.161 544.698 285.483 545.08 285.698C545.463 285.903 545.883 286.006 546.34 286.006ZM556.383 287L553.373 283.612V287H552.099V276.64H553.373V282.73L556.327 279.328H558.105L554.493 283.15L558.119 287H556.383ZM566.455 282.87C566.455 283.113 566.441 283.369 566.413 283.64H560.281C560.327 284.396 560.584 284.989 561.051 285.418C561.527 285.838 562.101 286.048 562.773 286.048C563.323 286.048 563.781 285.922 564.145 285.67C564.518 285.409 564.779 285.063 564.929 284.634H566.301C566.095 285.371 565.685 285.973 565.069 286.44C564.453 286.897 563.687 287.126 562.773 287.126C562.045 287.126 561.391 286.963 560.813 286.636C560.243 286.309 559.795 285.847 559.469 285.25C559.142 284.643 558.979 283.943 558.979 283.15C558.979 282.357 559.137 281.661 559.455 281.064C559.772 280.467 560.215 280.009 560.785 279.692C561.363 279.365 562.026 279.202 562.773 279.202C563.501 279.202 564.145 279.361 564.705 279.678C565.265 279.995 565.694 280.434 565.993 280.994C566.301 281.545 566.455 282.17 566.455 282.87ZM565.139 282.604C565.139 282.119 565.031 281.703 564.817 281.358C564.602 281.003 564.308 280.737 563.935 280.56C563.571 280.373 563.165 280.28 562.717 280.28C562.073 280.28 561.522 280.485 561.065 280.896C560.617 281.307 560.36 281.876 560.295 282.604H565.139ZM572.024 279.188C572.958 279.188 573.714 279.473 574.292 280.042C574.871 280.602 575.16 281.414 575.16 282.478V287H573.9V282.66C573.9 281.895 573.709 281.311 573.326 280.91C572.944 280.499 572.421 280.294 571.758 280.294C571.086 280.294 570.55 280.504 570.148 280.924C569.756 281.344 569.56 281.955 569.56 282.758V287H568.286V279.328H569.56V280.42C569.812 280.028 570.153 279.725 570.582 279.51C571.021 279.295 571.502 279.188 572.024 279.188ZM580.107 287.126C579.519 287.126 578.992 287.028 578.525 286.832C578.059 286.627 577.69 286.347 577.419 285.992C577.149 285.628 576.999 285.213 576.971 284.746H578.287C578.325 285.129 578.502 285.441 578.819 285.684C579.146 285.927 579.571 286.048 580.093 286.048C580.579 286.048 580.961 285.941 581.241 285.726C581.521 285.511 581.661 285.241 581.661 284.914C581.661 284.578 581.512 284.331 581.213 284.172C580.915 284.004 580.453 283.841 579.827 283.682C579.258 283.533 578.791 283.383 578.427 283.234C578.073 283.075 577.765 282.847 577.503 282.548C577.251 282.24 577.125 281.839 577.125 281.344C577.125 280.952 577.242 280.593 577.475 280.266C577.709 279.939 578.04 279.683 578.469 279.496C578.899 279.3 579.389 279.202 579.939 279.202C580.789 279.202 581.475 279.417 581.997 279.846C582.52 280.275 582.8 280.863 582.837 281.61H581.563C581.535 281.209 581.372 280.887 581.073 280.644C580.784 280.401 580.392 280.28 579.897 280.28C579.44 280.28 579.076 280.378 578.805 280.574C578.535 280.77 578.399 281.027 578.399 281.344C578.399 281.596 578.479 281.806 578.637 281.974C578.805 282.133 579.011 282.263 579.253 282.366C579.505 282.459 579.851 282.567 580.289 282.688C580.84 282.837 581.288 282.987 581.633 283.136C581.979 283.276 582.273 283.491 582.515 283.78C582.767 284.069 582.898 284.447 582.907 284.914C582.907 285.334 582.791 285.712 582.557 286.048C582.324 286.384 581.993 286.65 581.563 286.846C581.143 287.033 580.658 287.126 580.107 287.126Z" fill="#3A3541" fill-opacity="0.68"/>
<path d="M745 275C738.106 275 734.167 282 734.167 282C734.167 282 738.106 289 745 289C751.894 289 755.833 282 755.833 282C755.833 282 751.894 275 745 275Z" stroke="#959298" stroke-width="1.5" stroke-linecap="round" stroke-linejoin="round"/>
<path d="M745 285C746.795 285 748.25 283.657 748.25 282C748.25 280.343 746.795 279 745 279C743.205 279 741.75 280.343 741.75 282C741.75 283.657 743.205 285 745 285Z" stroke="#959298" stroke-width="1.5" stroke-linecap="round" stroke-linejoin="round"/>
<path d="M785 273H787C787.552 273 788 273.448 788 274V274.569C788 274.997 788.287 275.368 788.682 275.532C789.077 275.696 789.538 275.634 789.84 275.331L790.243 274.929C790.633 274.538 791.266 274.538 791.657 274.929L793.071 276.343C793.462 276.734 793.462 277.367 793.071 277.757L792.669 278.16C792.366 278.462 792.304 278.922 792.468 279.318C792.632 279.713 793.003 280 793.431 280L794 280C794.552 280 795 280.448 795 281V283C795 283.552 794.552 284 794 284H793.431C793.003 284 792.632 284.287 792.468 284.682C792.304 285.078 792.366 285.538 792.669 285.84L793.071 286.243C793.462 286.633 793.462 287.266 793.071 287.657L791.657 289.071C791.266 289.462 790.633 289.462 790.243 289.071L789.84 288.669C789.538 288.366 789.077 288.304 788.682 288.468C788.287 288.632 788 289.003 788 289.431V290C788 290.552 787.552 291 787 291H785C784.448 291 784 290.552 784 290V289.431C784 289.003 783.713 288.632 783.318 288.468C782.922 288.304 782.462 288.366 782.16 288.669L781.757 289.071C781.367 289.462 780.734 289.462 780.343 289.071L778.929 287.657C778.538 287.266 778.538 286.633 778.929 286.243L779.331 285.84C779.634 285.538 779.696 285.077 779.532 284.682C779.368 284.287 778.997 284 778.569 284H778C777.448 284 777 283.552 777 283V281C777 280.448 777.448 280 778 280L778.569 280C778.997 280 779.368 279.713 779.532 279.318C779.696 278.923 779.634 278.462 779.331 278.16L778.929 277.757C778.538 277.367 778.538 276.734 778.929 276.343L780.343 274.929C780.734 274.538 781.367 274.538 781.757 274.929L782.16 275.331C782.462 275.634 782.922 275.696 783.318 275.532C783.713 275.368 784 274.997 784 274.569V274C784 273.448 784.448 273 785 273Z" stroke="#A3A3A3" stroke-width="1.5"/>
<path d="M788 282C788 283.105 787.105 284 786 284C784.895 284 784 283.105 784 282C784 280.895 784.895 280 786 280C787.105 280 788 280.895 788 282Z" stroke="#A3A3A3" stroke-width="1.5"/>
<path d="M0 251H854V249H0V251Z" fill="#3A3541" fill-opacity="0.12" mask="url(#path-36-outside-4_1_3591)"/>
<rect x="21" y="330" width="34" height="34" rx="17" fill="#F0CECE"/>
<path d="M79.544 341.428V352.5H78.088V344.244L74.408 352.5H73.384L69.688 344.228V352.5H68.232V341.428H69.8L73.896 350.58L77.992 341.428H79.544ZM81.5693 348.084C81.5693 347.188 81.7506 346.404 82.1133 345.732C82.4759 345.049 82.9719 344.521 83.6013 344.148C84.2413 343.775 84.9506 343.588 85.7293 343.588C86.4973 343.588 87.1639 343.753 87.7293 344.084C88.2946 344.415 88.7159 344.831 88.9933 345.332V343.732H90.4653V352.5H88.9933V350.868C88.7053 351.38 88.2733 351.807 87.6973 352.148C87.1319 352.479 86.4706 352.644 85.7133 352.644C84.9346 352.644 84.2306 352.452 83.6013 352.068C82.9719 351.684 82.4759 351.145 82.1133 350.452C81.7506 349.759 81.5693 348.969 81.5693 348.084ZM88.9933 348.1C88.9933 347.439 88.8599 346.863 88.5933 346.372C88.3266 345.881 87.9639 345.508 87.5053 345.252C87.0573 344.985 86.5613 344.852 86.0173 344.852C85.4733 344.852 84.9773 344.98 84.5293 345.236C84.0813 345.492 83.7239 345.865 83.4573 346.356C83.1906 346.847 83.0573 347.423 83.0573 348.084C83.0573 348.756 83.1906 349.343 83.4573 349.844C83.7239 350.335 84.0813 350.713 84.5293 350.98C84.9773 351.236 85.4733 351.364 86.0173 351.364C86.5613 351.364 87.0573 351.236 87.5053 350.98C87.9639 350.713 88.3266 350.335 88.5933 349.844C88.8599 349.343 88.9933 348.761 88.9933 348.1ZM94.4818 345.156C94.7378 344.655 95.1004 344.265 95.5698 343.988C96.0498 343.711 96.6311 343.572 97.3138 343.572V345.076H96.9298C95.2978 345.076 94.4818 345.961 94.4818 347.732V352.5H93.0258V343.732H94.4818V345.156ZM103.99 352.5L100.55 348.628V352.5H99.0945V340.66H100.55V347.62L103.926 343.732H105.958L101.83 348.1L105.974 352.5H103.99ZM115.429 347.78C115.429 348.057 115.413 348.351 115.381 348.66H108.373C108.426 349.524 108.72 350.201 109.253 350.692C109.797 351.172 110.453 351.412 111.221 351.412C111.85 351.412 112.373 351.268 112.789 350.98C113.216 350.681 113.514 350.287 113.685 349.796H115.253C115.018 350.639 114.549 351.327 113.845 351.86C113.141 352.383 112.266 352.644 111.221 352.644C110.389 352.644 109.642 352.457 108.981 352.084C108.33 351.711 107.818 351.183 107.445 350.5C107.072 349.807 106.885 349.007 106.885 348.1C106.885 347.193 107.066 346.399 107.429 345.716C107.792 345.033 108.298 344.511 108.949 344.148C109.61 343.775 110.368 343.588 111.221 343.588C112.053 343.588 112.789 343.769 113.429 344.132C114.069 344.495 114.56 344.996 114.901 345.636C115.253 346.265 115.429 346.98 115.429 347.78ZM113.925 347.476C113.925 346.921 113.802 346.447 113.557 346.052C113.312 345.647 112.976 345.343 112.549 345.14C112.133 344.927 111.669 344.82 111.157 344.82C110.421 344.82 109.792 345.055 109.269 345.524C108.757 345.993 108.464 346.644 108.389 347.476H113.925ZM119.227 344.932V350.1C119.227 350.527 119.317 350.831 119.499 351.012C119.68 351.183 119.995 351.268 120.443 351.268H121.515V352.5H120.203C119.392 352.5 118.784 352.313 118.379 351.94C117.973 351.567 117.771 350.953 117.771 350.1V344.932H116.635V343.732H117.771V341.524H119.227V343.732H121.515V344.932H119.227ZM124.131 342.308C123.854 342.308 123.619 342.212 123.427 342.02C123.235 341.828 123.139 341.593 123.139 341.316C123.139 341.039 123.235 340.804 123.427 340.612C123.619 340.42 123.854 340.324 124.131 340.324C124.398 340.324 124.622 340.42 124.803 340.612C124.995 340.804 125.091 341.039 125.091 341.316C125.091 341.593 124.995 341.828 124.803 342.02C124.622 342.212 124.398 342.308 124.131 342.308ZM124.835 343.732V352.5H123.379V343.732H124.835ZM131.688 343.572C132.755 343.572 133.619 343.897 134.28 344.548C134.942 345.188 135.272 346.116 135.272 347.332V352.5H133.832V347.54C133.832 346.665 133.614 345.999 133.176 345.54C132.739 345.071 132.142 344.836 131.384 344.836C130.616 344.836 130.003 345.076 129.544 345.556C129.096 346.036 128.872 346.735 128.872 347.652V352.5H127.416V343.732H128.872V344.98C129.16 344.532 129.55 344.185 130.04 343.94C130.542 343.695 131.091 343.572 131.688 343.572ZM141.367 343.588C142.124 343.588 142.785 343.753 143.351 344.084C143.927 344.415 144.353 344.831 144.631 345.332V343.732H146.103V352.692C146.103 353.492 145.932 354.201 145.591 354.82C145.249 355.449 144.759 355.94 144.119 356.292C143.489 356.644 142.753 356.82 141.911 356.82C140.759 356.82 139.799 356.548 139.031 356.004C138.263 355.46 137.809 354.719 137.671 353.78H139.111C139.271 354.313 139.601 354.74 140.103 355.06C140.604 355.391 141.207 355.556 141.911 355.556C142.711 355.556 143.361 355.305 143.863 354.804C144.375 354.303 144.631 353.599 144.631 352.692V350.852C144.343 351.364 143.916 351.791 143.351 352.132C142.785 352.473 142.124 352.644 141.367 352.644C140.588 352.644 139.879 352.452 139.239 352.068C138.609 351.684 138.113 351.145 137.751 350.452C137.388 349.759 137.207 348.969 137.207 348.084C137.207 347.188 137.388 346.404 137.751 345.732C138.113 345.049 138.609 344.521 139.239 344.148C139.879 343.775 140.588 343.588 141.367 343.588ZM144.631 348.1C144.631 347.439 144.497 346.863 144.231 346.372C143.964 345.881 143.601 345.508 143.143 345.252C142.695 344.985 142.199 344.852 141.655 344.852C141.111 344.852 140.615 344.98 140.167 345.236C139.719 345.492 139.361 345.865 139.095 346.356C138.828 346.847 138.695 347.423 138.695 348.084C138.695 348.756 138.828 349.343 139.095 349.844C139.361 350.335 139.719 350.713 140.167 350.98C140.615 351.236 141.111 351.364 141.655 351.364C142.199 351.364 142.695 351.236 143.143 350.98C143.601 350.713 143.964 350.335 144.231 349.844C144.497 349.343 144.631 348.761 144.631 348.1Z" fill="#3A3541" fill-opacity="0.87"/>
<rect x="395.244" y="344.5" width="98.2556" height="5" fill="#E0E0E8" stroke="#F5F6FA"/>
<rect x="394" y="344" width="29" height="6" fill="#5BCD97"/>
<path d="M514.714 350.978C515.899 350.026 516.828 349.247 517.5 348.64C518.172 348.024 518.737 347.385 519.194 346.722C519.661 346.05 519.894 345.392 519.894 344.748C519.894 344.141 519.745 343.665 519.446 343.32C519.157 342.965 518.685 342.788 518.032 342.788C517.397 342.788 516.903 342.989 516.548 343.39C516.203 343.782 516.016 344.309 515.988 344.972H514.756C514.793 343.927 515.111 343.119 515.708 342.55C516.305 341.981 517.075 341.696 518.018 341.696C518.979 341.696 519.74 341.962 520.3 342.494C520.869 343.026 521.154 343.759 521.154 344.692C521.154 345.467 520.921 346.223 520.454 346.96C519.997 347.688 519.474 348.332 518.886 348.892C518.298 349.443 517.547 350.087 516.632 350.824H521.448V351.888H514.714V350.978ZM527.565 352L524.555 348.612V352H523.281V341.64H524.555V347.73L527.509 344.328H529.287L525.675 348.15L529.301 352H527.565ZM540.524 342.242V343.278H537.864V352H536.59V343.278H533.916V342.242H540.524ZM545.588 352.126C544.87 352.126 544.216 351.963 543.628 351.636C543.05 351.309 542.592 350.847 542.256 350.25C541.93 349.643 541.766 348.943 541.766 348.15C541.766 347.366 541.934 346.675 542.27 346.078C542.616 345.471 543.082 345.009 543.67 344.692C544.258 344.365 544.916 344.202 545.644 344.202C546.372 344.202 547.03 344.365 547.618 344.692C548.206 345.009 548.668 345.467 549.004 346.064C549.35 346.661 549.522 347.357 549.522 348.15C549.522 348.943 549.345 349.643 548.99 350.25C548.645 350.847 548.174 351.309 547.576 351.636C546.979 351.963 546.316 352.126 545.588 352.126ZM545.588 351.006C546.046 351.006 546.475 350.899 546.876 350.684C547.278 350.469 547.6 350.147 547.842 349.718C548.094 349.289 548.22 348.766 548.22 348.15C548.22 347.534 548.099 347.011 547.856 346.582C547.614 346.153 547.296 345.835 546.904 345.63C546.512 345.415 546.088 345.308 545.63 345.308C545.164 345.308 544.734 345.415 544.342 345.63C543.96 345.835 543.652 346.153 543.418 346.582C543.185 347.011 543.068 347.534 543.068 348.15C543.068 348.775 543.18 349.303 543.404 349.732C543.638 350.161 543.946 350.483 544.328 350.698C544.711 350.903 545.131 351.006 545.588 351.006ZM555.632 352L552.622 348.612V352H551.348V341.64H552.622V347.73L555.576 344.328H557.354L553.742 348.15L557.368 352H555.632ZM565.703 347.87C565.703 348.113 565.689 348.369 565.661 348.64H559.529C559.575 349.396 559.832 349.989 560.299 350.418C560.775 350.838 561.349 351.048 562.021 351.048C562.571 351.048 563.029 350.922 563.393 350.67C563.766 350.409 564.027 350.063 564.177 349.634H565.549C565.343 350.371 564.933 350.973 564.317 351.44C563.701 351.897 562.935 352.126 562.021 352.126C561.293 352.126 560.639 351.963 560.061 351.636C559.491 351.309 559.043 350.847 558.717 350.25C558.39 349.643 558.227 348.943 558.227 348.15C558.227 347.357 558.385 346.661 558.703 346.064C559.02 345.467 559.463 345.009 560.033 344.692C560.611 344.365 561.274 344.202 562.021 344.202C562.749 344.202 563.393 344.361 563.953 344.678C564.513 344.995 564.942 345.434 565.241 345.994C565.549 346.545 565.703 347.17 565.703 347.87ZM564.387 347.604C564.387 347.119 564.279 346.703 564.065 346.358C563.85 346.003 563.556 345.737 563.183 345.56C562.819 345.373 562.413 345.28 561.965 345.28C561.321 345.28 560.77 345.485 560.313 345.896C559.865 346.307 559.608 346.876 559.543 347.604H564.387ZM571.272 344.188C572.206 344.188 572.962 344.473 573.54 345.042C574.119 345.602 574.408 346.414 574.408 347.478V352H573.148V347.66C573.148 346.895 572.957 346.311 572.574 345.91C572.192 345.499 571.669 345.294 571.006 345.294C570.334 345.294 569.798 345.504 569.396 345.924C569.004 346.344 568.808 346.955 568.808 347.758V352H567.534V344.328H568.808V345.42C569.06 345.028 569.401 344.725 569.83 344.51C570.269 344.295 570.75 344.188 571.272 344.188ZM579.355 352.126C578.767 352.126 578.24 352.028 577.773 351.832C577.307 351.627 576.938 351.347 576.667 350.992C576.397 350.628 576.247 350.213 576.219 349.746H577.535C577.573 350.129 577.75 350.441 578.067 350.684C578.394 350.927 578.819 351.048 579.341 351.048C579.827 351.048 580.209 350.941 580.489 350.726C580.769 350.511 580.909 350.241 580.909 349.914C580.909 349.578 580.76 349.331 580.461 349.172C580.163 349.004 579.701 348.841 579.075 348.682C578.506 348.533 578.039 348.383 577.675 348.234C577.321 348.075 577.013 347.847 576.751 347.548C576.499 347.24 576.373 346.839 576.373 346.344C576.373 345.952 576.49 345.593 576.723 345.266C576.957 344.939 577.288 344.683 577.717 344.496C578.147 344.3 578.637 344.202 579.187 344.202C580.037 344.202 580.723 344.417 581.245 344.846C581.768 345.275 582.048 345.863 582.085 346.61H580.811C580.783 346.209 580.62 345.887 580.321 345.644C580.032 345.401 579.64 345.28 579.145 345.28C578.688 345.28 578.324 345.378 578.053 345.574C577.783 345.77 577.647 346.027 577.647 346.344C577.647 346.596 577.727 346.806 577.885 346.974C578.053 347.133 578.259 347.263 578.501 347.366C578.753 347.459 579.099 347.567 579.537 347.688C580.088 347.837 580.536 347.987 580.881 348.136C581.227 348.276 581.521 348.491 581.763 348.78C582.015 349.069 582.146 349.447 582.155 349.914C582.155 350.334 582.039 350.712 581.805 351.048C581.572 351.384 581.241 351.65 580.811 351.846C580.391 352.033 579.906 352.126 579.355 352.126Z" fill="#3A3541" fill-opacity="0.68"/>
<path d="M745 340C738.106 340 734.167 347 734.167 347C734.167 347 738.106 354 745 354C751.894 354 755.833 347 755.833 347C755.833 347 751.894 340 745 340Z" stroke="#959298" stroke-width="1.5" stroke-linecap="round" stroke-linejoin="round"/>
<path d="M745 350C746.795 350 748.25 348.657 748.25 347C748.25 345.343 746.795 344 745 344C743.205 344 741.75 345.343 741.75 347C741.75 348.657 743.205 350 745 350Z" stroke="#959298" stroke-width="1.5" stroke-linecap="round" stroke-linejoin="round"/>
<path d="M785 338H787C787.552 338 788 338.448 788 339V339.569C788 339.997 788.287 340.368 788.682 340.532C789.077 340.696 789.538 340.634 789.84 340.331L790.243 339.929C790.633 339.538 791.266 339.538 791.657 339.929L793.071 341.343C793.462 341.734 793.462 342.367 793.071 342.757L792.669 343.16C792.366 343.462 792.304 343.922 792.468 344.318C792.632 344.713 793.003 345 793.431 345L794 345C794.552 345 795 345.448 795 346V348C795 348.552 794.552 349 794 349H793.431C793.003 349 792.632 349.287 792.468 349.682C792.304 350.078 792.366 350.538 792.669 350.84L793.071 351.243C793.462 351.633 793.462 352.266 793.071 352.657L791.657 354.071C791.266 354.462 790.633 354.462 790.243 354.071L789.84 353.669C789.538 353.366 789.077 353.304 788.682 353.468C788.287 353.632 788 354.003 788 354.431V355C788 355.552 787.552 356 787 356H785C784.448 356 784 355.552 784 355V354.431C784 354.003 783.713 353.632 783.318 353.468C782.922 353.304 782.462 353.366 782.16 353.669L781.757 354.071C781.367 354.462 780.734 354.462 780.343 354.071L778.929 352.657C778.538 352.266 778.538 351.633 778.929 351.243L779.331 350.84C779.634 350.538 779.696 350.077 779.532 349.682C779.368 349.287 778.997 349 778.569 349H778C777.448 349 777 348.552 777 348V346C777 345.448 777.448 345 778 345L778.569 345C778.997 345 779.368 344.713 779.532 344.318C779.696 343.923 779.634 343.462 779.331 343.16L778.929 342.757C778.538 342.367 778.538 341.734 778.929 341.343L780.343 339.929C780.734 339.538 781.367 339.538 781.757 339.929L782.16 340.331C782.462 340.634 782.922 340.696 783.318 340.532C783.713 340.368 784 339.997 784 339.569V339C784 338.448 784.448 338 785 338Z" stroke="#A3A3A3" stroke-width="1.5"/>
<path d="M788 347C788 348.105 787.105 349 786 349C784.895 349 784 348.105 784 347C784 345.895 784.895 345 786 345C787.105 345 788 345.895 788 347Z" stroke="#A3A3A3" stroke-width="1.5"/>
<path d="M0 316H854V314H0V316Z" fill="#3A3541" fill-opacity="0.12" mask="url(#path-45-outside-5_1_3591)"/>
</svg>
