<svg version="1.2" xmlns="http://www.w3.org/2000/svg" viewBox="0 0 706 316" width="706" height="316">
	<title>tokenChart-svg</title>
	<style>
		.s0 { fill: #a3a3a3 } 
		.s1 { fill: #eceaf3 } 
		.s2 { fill: #4a5c77 } 
		.s3 { fill: #464255 } 
	</style>
	<path id="Layer" class="s0" d="m12.9 81v-1h2.2v8.7h-1.1v-7.7zm9.7 0h-4.2v2.7q0.3-0.4 0.8-0.6 0.5-0.3 1.2-0.3 1 0 1.6 0.4 0.6 0.4 0.9 1.1 0.2 0.6 0.2 1.4 0 0.8-0.3 1.5-0.3 0.7-1 1.1-0.6 0.4-1.6 0.4-1.3 0-2.1-0.6-0.7-0.7-0.9-1.8h1.1q0.1 0.7 0.6 1.1 0.5 0.4 1.3 0.4 0.9 0 1.4-0.6 0.5-0.6 0.5-1.5 0-0.9-0.5-1.4-0.5-0.6-1.4-0.6-0.6 0-1.1 0.4-0.5 0.3-0.7 0.8h-1v-4.9h5.2zm5.8 7.7l-2.5-2.9v2.9h-1.1v-8.9h1.1v5.3l2.5-3h1.5l-3.1 3.3 3.1 3.3z"/>
	<path id="Layer" fill-rule="evenodd" class="s0" d="m12.9 143.8v-1h2.2v8.7h-1.1v-7.7zm4.2 3.3q0-2.1 0.6-3.2 0.7-1.2 2.4-1.2 1.6 0 2.3 1.2 0.7 1.1 0.7 3.2 0 2.1-0.7 3.2-0.7 1.2-2.3 1.2-1.7 0-2.4-1.2-0.6-1.1-0.6-3.2zm4.9 0q0-1.1-0.1-1.8-0.2-0.7-0.6-1.2-0.4-0.4-1.2-0.4-0.8 0-1.3 0.4-0.4 0.5-0.5 1.2-0.2 0.7-0.2 1.8 0 1.1 0.2 1.8 0.1 0.7 0.5 1.2 0.5 0.4 1.3 0.4 0.8 0 1.2-0.4 0.4-0.5 0.6-1.2 0.1-0.7 0.1-1.8zm6.4 4.4l-2.5-2.9v2.9h-1.1v-8.9h1.1v5.2l2.5-2.9h1.5l-3.1 3.3 3.1 3.3z"/>
	<path id="Layer" class="s0" d="m22.5 207.7h-4.2v2.7q0.3-0.4 0.8-0.6 0.6-0.2 1.2-0.2 1 0 1.6 0.4 0.6 0.4 0.9 1 0.3 0.7 0.3 1.4 0 0.9-0.3 1.6-0.4 0.7-1 1.1-0.7 0.3-1.7 0.3-1.2 0-2-0.6-0.8-0.6-1-1.7h1.1q0.2 0.7 0.7 1 0.5 0.4 1.2 0.4 1 0 1.5-0.5 0.4-0.6 0.4-1.6 0-0.9-0.4-1.4-0.5-0.5-1.5-0.5-0.6 0-1.1 0.3-0.4 0.3-0.7 0.8h-1v-4.9h5.2zm5.9 7.8l-2.6-2.9v2.9h-1.1v-8.9h1.1v5.2l2.5-2.9h1.6l-3.1 3.3 3.1 3.3z"/>
	<path id="Layer" class="s0" d="m659.8 308.9q-0.8 0-1.4-0.2-0.7-0.3-1.1-0.9-0.3-0.5-0.3-1.2h1.1q0.1 0.6 0.5 1 0.4 0.4 1.2 0.4 0.8 0 1.3-0.4 0.4-0.4 0.4-1 0-0.4-0.2-0.7-0.3-0.4-0.7-0.5-0.4-0.2-1.1-0.3-0.8-0.3-1.3-0.5-0.5-0.2-0.8-0.6-0.4-0.5-0.4-1.3 0-0.7 0.4-1.2 0.3-0.5 0.9-0.8 0.7-0.3 1.5-0.3 1.2 0 1.9 0.6 0.8 0.6 0.8 1.5h-1.2q0-0.4-0.5-0.8-0.4-0.4-1.1-0.4-0.7 0-1.1 0.4-0.5 0.3-0.5 1 0 0.4 0.3 0.7 0.2 0.3 0.6 0.5 0.4 0.1 1.1 0.3 0.8 0.2 1.3 0.5 0.5 0.2 0.9 0.6 0.3 0.5 0.3 1.3 0 0.6-0.3 1.1-0.3 0.6-1 0.9-0.6 0.3-1.5 0.3zm10.3-6.6v6.6h-1.1v-1q-0.3 0.5-0.9 0.8-0.6 0.3-1.2 0.3-0.8 0-1.4-0.4-0.6-0.3-1-0.9-0.3-0.6-0.3-1.6v-3.8h1.1v3.7q0 1 0.4 1.5 0.5 0.5 1.4 0.5 0.9 0 1.4-0.5 0.5-0.6 0.5-1.6v-3.6zm5-0.1q1.2 0 2 0.7 0.7 0.7 0.7 2.1v3.9h-1.1v-3.8q0-0.9-0.5-1.5-0.5-0.5-1.3-0.5-0.9 0-1.4 0.6-0.5 0.5-0.5 1.5v3.7h-1.1v-6.6h1.1v0.9q0.3-0.5 0.9-0.8 0.6-0.2 1.2-0.2z"/>
	<path id="Layer" fill-rule="evenodd" class="s0" d="m68.1 300.6v8.3h-1.1v-6.2l-2.7 6.2h-0.8l-2.8-6.2v6.2h-1.1v-8.3h1.2l3.1 6.8 3.1-6.8zm4.7 8.4q-0.9 0-1.7-0.5-0.7-0.4-1.2-1.1-0.4-0.8-0.4-1.8 0-1 0.4-1.8 0.5-0.8 1.2-1.2 0.8-0.4 1.7-0.4 1 0 1.7 0.4 0.8 0.4 1.2 1.2 0.5 0.7 0.5 1.8 0 1-0.5 1.8-0.4 0.7-1.2 1.1-0.8 0.5-1.7 0.5zm0-1q0.6 0 1.1-0.3 0.5-0.2 0.8-0.8 0.3-0.5 0.3-1.3 0-0.8-0.3-1.4-0.3-0.5-0.8-0.8-0.5-0.3-1.1-0.3-0.6 0-1.1 0.3-0.5 0.3-0.8 0.8-0.3 0.6-0.3 1.4 0 0.8 0.3 1.3 0.3 0.6 0.8 0.8 0.5 0.3 1.1 0.3zm8-5.8q1.2 0 1.9 0.7 0.8 0.7 0.8 2.1v3.9h-1.1v-3.8q0-0.9-0.5-1.5-0.5-0.5-1.3-0.5-0.9 0-1.4 0.6-0.5 0.5-0.5 1.5v3.7h-1.1v-6.6h1.1v0.9q0.3-0.5 0.9-0.8 0.5-0.2 1.2-0.2z"/>
	<path id="Layer" fill-rule="evenodd" class="s0" d="m166.5 300.5v0.9h-2.2v7.5h-1.1v-7.5h-2.3v-0.9zm7.2 1.8v6.6h-1.1v-1q-0.3 0.5-0.9 0.8-0.6 0.3-1.2 0.3-0.8 0-1.4-0.4-0.6-0.3-1-0.9-0.3-0.6-0.3-1.6v-3.8h1v3.7q0 1 0.5 1.5 0.5 0.5 1.4 0.5 0.9 0 1.4-0.5 0.5-0.6 0.5-1.6v-3.6zm7.8 3q0 0.3 0 0.7h-5.3q0.1 1 0.7 1.5 0.6 0.5 1.5 0.5 0.7 0 1.1-0.3 0.5-0.3 0.7-0.9h1.2q-0.3 1-1.1 1.6-0.8 0.6-1.9 0.6-1 0-1.7-0.4-0.8-0.5-1.2-1.2-0.4-0.8-0.4-1.8 0-1.1 0.4-1.8 0.4-0.8 1.1-1.2 0.8-0.4 1.8-0.4 0.9 0 1.6 0.4 0.7 0.4 1.1 1.1 0.4 0.7 0.4 1.6zm-1.1-0.2q0-0.6-0.3-1.1-0.3-0.4-0.8-0.7-0.4-0.2-1-0.2-0.8 0-1.4 0.5-0.6 0.6-0.7 1.5z"/>
	<path id="Layer" fill-rule="evenodd" class="s0" d="m269.7 300.5l-2.5 8.4h-1.2l-1.9-6.8-2 6.8h-1.2l-2.4-8.4h1.2l1.8 7.1 2-7.1h1.2l2 7.1 1.8-7.1zm7.2 4.8q0 0.3 0 0.7h-5.3q0.1 1 0.7 1.5 0.6 0.5 1.4 0.5 0.7 0 1.2-0.3 0.5-0.3 0.7-0.9h1.2q-0.3 1-1.1 1.6-0.8 0.6-2 0.6-0.9 0-1.6-0.4-0.8-0.5-1.2-1.2-0.4-0.8-0.4-1.8 0-1.1 0.4-1.8 0.4-0.8 1.1-1.2 0.8-0.4 1.7-0.4 1 0 1.7 0.4 0.7 0.4 1.1 1.1 0.4 0.7 0.4 1.6zm-1.1-0.2q0-0.6-0.3-1.1-0.3-0.4-0.8-0.7-0.4-0.2-1-0.2-0.8 0-1.4 0.5-0.6 0.6-0.7 1.5zm2.2 0.5q0-1.1 0.4-1.8 0.4-0.8 1.1-1.2 0.7-0.4 1.6-0.4 0.8 0 1.4 0.3 0.7 0.4 1 1v-3.5h1.1v8.9h-1.1v-1.3q-0.3 0.6-0.9 1-0.7 0.4-1.5 0.4-0.9 0-1.6-0.5-0.7-0.4-1.1-1.2-0.4-0.8-0.4-1.7zm5.5 0q0-0.8-0.3-1.3-0.3-0.6-0.8-0.9-0.5-0.3-1.1-0.3-0.6 0-1.1 0.3-0.5 0.3-0.8 0.9-0.3 0.5-0.3 1.3 0 0.7 0.3 1.3 0.3 0.5 0.8 0.8 0.5 0.3 1.1 0.3 0.6 0 1.1-0.3 0.5-0.3 0.8-0.8 0.3-0.6 0.3-1.3z"/>
	<path id="Layer" class="s0" d="m365.1 300.5v0.9h-2.3v7.5h-1.1v-7.5h-2.3v-0.9zm4.6 1.7q0.7 0 1.4 0.3 0.5 0.3 0.9 0.9 0.3 0.7 0.3 1.6v3.9h-1v-3.8q0-0.9-0.5-1.5-0.5-0.5-1.4-0.5-0.8 0-1.4 0.6-0.5 0.5-0.5 1.5v3.7h-1.1v-8.9h1.1v3.2q0.4-0.5 0.9-0.8 0.6-0.2 1.3-0.2zm10.2 0.1v6.6h-1v-1q-0.4 0.5-0.9 0.8-0.6 0.3-1.2 0.3-0.8 0-1.4-0.4-0.6-0.3-1-0.9-0.3-0.6-0.3-1.6v-3.8h1v3.7q0 1 0.5 1.5 0.5 0.5 1.4 0.5 0.9 0 1.4-0.5 0.5-0.6 0.5-1.6v-3.6z"/>
	<path id="Layer" class="s0" d="m469.4 300.5v0.9h-3.6v2.8h2.9v0.9h-2.9v3.8h-1.1v-8.4zm2.4 2.9q0.3-0.6 0.8-0.9 0.5-0.3 1.3-0.3v1.1h-0.3q-1.8 0-1.8 2v3.6h-1.1v-6.6h1.1zm3.9-2.1q-0.3 0-0.5-0.3-0.2-0.2-0.2-0.5 0-0.3 0.2-0.5 0.2-0.2 0.5-0.2 0.3 0 0.5 0.2 0.2 0.2 0.2 0.5 0 0.3-0.2 0.5-0.2 0.3-0.5 0.3zm0.5 1v6.6h-1v-6.6z"/>
	<path id="Layer" fill-rule="evenodd" class="s0" d="m562.1 308.9q-0.8 0-1.5-0.2-0.7-0.3-1-0.9-0.4-0.5-0.4-1.2h1.2q0 0.6 0.4 1 0.5 0.4 1.3 0.4 0.8 0 1.2-0.4 0.5-0.4 0.5-1 0-0.4-0.3-0.7-0.3-0.4-0.7-0.5-0.4-0.2-1-0.3-0.9-0.3-1.4-0.5-0.5-0.2-0.8-0.6-0.4-0.5-0.4-1.3 0-0.7 0.4-1.2 0.3-0.5 1-0.8 0.6-0.3 1.4-0.3 1.2 0 1.9 0.6 0.8 0.6 0.9 1.5h-1.2q-0.1-0.4-0.5-0.8-0.5-0.4-1.2-0.4-0.7 0-1.1 0.4-0.4 0.3-0.4 1 0 0.4 0.2 0.7 0.3 0.3 0.6 0.5 0.4 0.1 1.1 0.3 0.8 0.2 1.3 0.5 0.5 0.2 0.9 0.6 0.4 0.5 0.4 1.3 0 0.6-0.4 1.1-0.3 0.6-0.9 0.9-0.7 0.3-1.5 0.3zm4-3.3q0-1.1 0.4-1.8 0.4-0.8 1.1-1.2 0.7-0.4 1.6-0.4 0.8 0 1.5 0.4 0.6 0.3 0.9 0.9v-1.2h1.1v6.6h-1.1v-1.3q-0.3 0.6-0.9 1-0.7 0.4-1.5 0.4-0.9 0-1.6-0.5-0.7-0.4-1.1-1.2-0.4-0.8-0.4-1.7zm5.5 0q0-0.8-0.3-1.3-0.3-0.6-0.8-0.9-0.5-0.3-1.1-0.3-0.6 0-1.1 0.3-0.5 0.3-0.8 0.9-0.3 0.5-0.3 1.3 0 0.7 0.3 1.3 0.3 0.5 0.8 0.8 0.5 0.3 1.1 0.3 0.6 0 1.1-0.3 0.5-0.3 0.8-0.8 0.3-0.6 0.3-1.3zm4.3-2.4v3.9q0 0.4 0.2 0.6 0.2 0.2 0.7 0.2h0.8v1h-1q-0.9 0-1.3-0.5-0.5-0.4-0.5-1.3v-3.9h-0.8v-0.9h0.8v-1.7h1.1v1.7h1.7v0.9z"/>
	<path id="Layer" class="s1" d="m47.1 273.8h654.6v1.4h-654.6z"/>
	<path id="Layer" class="s1" d="m47.1 210.7h654.6v1.4h-654.6z"/>
	<path id="Layer" class="s1" d="m47.1 147.6h654.6v1.3h-654.6z"/>
	<path id="Layer" class="s1" d="m47.1 84.5h654.6v1.3h-654.6z"/>
	<path id="Layer" class="s2" d="m60.8 128.8c0-2.2 1.8-4 4-4h12.6c2.2 0 4 1.8 4 4v145.3h-20.6z"/>
	<path id="Layer" class="s2" d="m160.2 214.9c0-2.2 1.8-4 4-4h12.6c2.2 0 4 1.8 4 4v59.2h-20.6z"/>
	<path id="Layer" class="s2" d="m259.6 171.8c0-2.2 1.8-4 4-4h12.6c2.2 0 4 1.8 4 4v102.3h-20.6z"/>
	<path id="Layer" class="s2" d="m359 249.8c0-2.2 1.8-4 4-4h12.6c2.2 0 4 1.8 4 4v24.3h-20.6z"/>
	<path id="Layer" class="s2" d="m458.4 189.3c0-2.2 1.8-4 4-4h12.6c2.2 0 4 1.8 4 4v84.8h-20.6z"/>
	<path id="Layer" class="s2" d="m557.8 216.2c0-2.2 1.8-4 4-4h12.6c2.2 0 4 1.8 4 4v57.9h-20.6z"/>
	<path id="Layer" class="s2" d="m657.2 88.5c0-2.2 1.8-4 4-4h12.5c2.3 0 4 1.8 4 4v185.6h-20.5z"/>
	<path id="Layer" fill-rule="evenodd" class="s3" d="m7.3 11.4h-3.7l-0.7 1.9h-1.1l3-8.4h1.3l3 8.4h-1.2zm-0.3-0.9l-1.5-4.3-1.5 4.3zm4.5-6.2v8.9h-1v-8.9zm2.9 0v8.9h-1.1v-8.9zm7.7 0.6q1.3 0 2.3 0.5 1.1 0.5 1.6 1.4 0.5 1 0.5 2.3 0 1.2-0.5 2.2-0.5 0.9-1.6 1.4-1 0.5-2.3 0.5h-2.6v-8.3zm0 7.4q1.6 0 2.4-0.8 0.9-0.9 0.9-2.4 0-1.6-0.9-2.5-0.8-0.9-2.4-0.9h-1.5v6.6zm11.4-5q0 1-0.7 1.7-0.7 0.7-2.2 0.7h-1.6v3.5h-1.1v-8.3h2.7q1.5 0 2.2 0.6 0.7 0.7 0.7 1.8zm-2.9 1.5q1 0 1.4-0.4 0.4-0.4 0.4-1.1 0-1.5-1.8-1.5h-1.6v3zm9.2 2.6h-3.6l-0.7 1.8h-1.1l3-8.3h1.2l3.1 8.3h-1.2zm-0.3-0.9l-1.5-4.2-1.5 4.2zm5.7 2.9q-0.7 0-1.3-0.3-0.6-0.2-1-0.7-0.3-0.5-0.3-1.1h1.1q0 0.5 0.4 0.9 0.5 0.3 1.1 0.3 0.7 0 1-0.3 0.4-0.3 0.4-0.7 0-0.4-0.4-0.6-0.4-0.3-1.2-0.5-0.7-0.2-1.2-0.3-0.4-0.3-0.8-0.6-0.3-0.4-0.3-1.1 0-0.5 0.3-0.9 0.3-0.4 0.8-0.7 0.6-0.2 1.3-0.2 1.1 0 1.8 0.5 0.6 0.6 0.7 1.6h-1.1q0-0.6-0.4-0.9-0.4-0.3-1-0.3-0.6 0-1 0.3-0.3 0.2-0.3 0.6 0 0.4 0.2 0.6 0.2 0.2 0.5 0.3 0.3 0.1 0.9 0.3 0.7 0.2 1.2 0.4 0.4 0.1 0.7 0.5 0.3 0.4 0.3 1 0 0.5-0.3 1-0.3 0.4-0.8 0.6-0.5 0.3-1.3 0.3zm6.8-3.4q0-1 0.4-1.8 0.4-0.8 1.1-1.2 0.7-0.4 1.7-0.4 1.2 0 2 0.6 0.8 0.6 1 1.6h-1.2q-0.1-0.6-0.6-0.9-0.5-0.4-1.2-0.4-1 0-1.5 0.7-0.6 0.6-0.6 1.8 0 1.2 0.6 1.8 0.5 0.7 1.5 0.7 0.7 0 1.2-0.4 0.5-0.3 0.6-0.9h1.2q-0.2 1-1 1.6-0.8 0.6-2 0.6-1 0-1.7-0.4-0.7-0.5-1.1-1.2-0.4-0.8-0.4-1.8zm10.5 3.4q-0.9 0-1.6-0.4-0.8-0.5-1.2-1.2-0.4-0.8-0.4-1.8 0-1 0.4-1.8 0.4-0.8 1.2-1.2 0.8-0.4 1.7-0.4 0.9 0 1.7 0.4 0.7 0.4 1.2 1.2 0.4 0.8 0.4 1.8 0 1-0.4 1.8-0.5 0.7-1.2 1.2-0.8 0.4-1.8 0.4zm0-1q0.6 0 1.2-0.2 0.5-0.3 0.8-0.9 0.3-0.5 0.3-1.3 0-0.8-0.3-1.4-0.3-0.5-0.8-0.8-0.5-0.3-1.1-0.3-0.6 0-1.1 0.3-0.5 0.3-0.8 0.8-0.3 0.6-0.3 1.4 0 0.8 0.3 1.3 0.3 0.6 0.8 0.9 0.5 0.2 1 0.2zm5.9-8v8.9h-1v-8.9zm2.9 0v8.9h-1.1v-8.9zm7.9 5.3q0 0.4-0.1 0.7h-5.2q0 1 0.6 1.5 0.7 0.6 1.5 0.6 0.7 0 1.2-0.4 0.5-0.3 0.7-0.8h1.1q-0.2 0.9-1 1.5-0.8 0.6-2 0.6-0.9 0-1.7-0.4-0.7-0.5-1.1-1.2-0.4-0.8-0.4-1.8 0-1 0.4-1.8 0.4-0.8 1.1-1.2 0.8-0.4 1.7-0.4 1 0 1.7 0.4 0.7 0.4 1.1 1.1 0.4 0.7 0.4 1.6zm-1.2-0.2q0-0.6-0.2-1.1-0.3-0.4-0.8-0.6-0.5-0.3-1-0.3-0.9 0-1.4 0.5-0.6 0.6-0.7 1.5zm2.2 0.5q0-1 0.4-1.8 0.4-0.8 1.1-1.2 0.7-0.4 1.7-0.4 1.2 0 2 0.6 0.7 0.6 1 1.6h-1.2q-0.1-0.6-0.6-0.9-0.5-0.4-1.2-0.4-1 0-1.5 0.7-0.6 0.6-0.6 1.8 0 1.2 0.6 1.8 0.5 0.7 1.5 0.7 0.7 0 1.2-0.4 0.4-0.3 0.6-0.9h1.2q-0.3 1-1.1 1.6-0.7 0.6-1.9 0.6-1 0-1.7-0.4-0.7-0.5-1.1-1.2-0.4-0.8-0.4-1.8zm9-2.4v3.9q0 0.5 0.2 0.7 0.2 0.2 0.7 0.2h0.8v0.9h-1q-0.9 0-1.3-0.4-0.5-0.5-0.5-1.4v-3.9h-0.9v-0.9h0.9v-1.7h1.1v1.7h1.7v0.9zm3.6-2q-0.3 0-0.5-0.2-0.2-0.2-0.2-0.5 0-0.3 0.2-0.5 0.2-0.3 0.5-0.3 0.3 0 0.5 0.3 0.2 0.2 0.2 0.5 0 0.3-0.2 0.5-0.2 0.2-0.5 0.2zm0.5 1.1v6.6h-1.1v-6.6zm4.4 5.6l2-5.6h1.2l-2.6 6.6h-1.3l-2.6-6.6h1.2zm10.3-2.5q0 0.3-0.1 0.6h-5.2q0 1 0.6 1.6 0.7 0.5 1.5 0.5 0.7 0 1.2-0.3 0.5-0.4 0.7-0.9h1.1q-0.2 0.9-1 1.5-0.8 0.6-2 0.6-0.9 0-1.7-0.4-0.7-0.4-1.1-1.2-0.4-0.8-0.4-1.8 0-1 0.4-1.8 0.4-0.7 1.1-1.2 0.8-0.4 1.7-0.4 1 0 1.7 0.4 0.7 0.4 1.1 1.2 0.4 0.7 0.4 1.6zm-1.1-0.3q0-0.6-0.3-1-0.3-0.5-0.8-0.7-0.4-0.2-1-0.2-0.9 0-1.4 0.5-0.6 0.5-0.7 1.4z"/>
	<path id="Layer" fill-rule="evenodd" class="s3" d="m637 53.1h2.9v0.9h-4v-8.4h1.1zm3.7-2.4q0-1 0.4-1.8 0.4-0.7 1.1-1.1 0.7-0.5 1.6-0.5 0.9 0 1.5 0.4 0.7 0.4 1 0.9v-1.2h1.1v6.6h-1.1v-1.2q-0.4 0.6-1 1-0.6 0.3-1.5 0.3-0.9 0-1.6-0.4-0.7-0.4-1.1-1.2-0.4-0.8-0.4-1.8zm5.6 0q0-0.7-0.3-1.3-0.3-0.5-0.9-0.8-0.5-0.3-1.1-0.3-0.6 0-1.1 0.3-0.5 0.3-0.8 0.8-0.3 0.6-0.3 1.3 0 0.8 0.3 1.3 0.3 0.6 0.8 0.9 0.5 0.3 1.1 0.3 0.6 0 1.1-0.3 0.6-0.3 0.9-0.9 0.3-0.5 0.3-1.3zm5.2 3.4q-0.7 0-1.3-0.2-0.6-0.3-1-0.7-0.3-0.5-0.3-1.1h1.1q0 0.5 0.4 0.8 0.5 0.3 1.1 0.3 0.7 0 1-0.3 0.4-0.2 0.4-0.7 0-0.4-0.4-0.6-0.4-0.2-1.2-0.4-0.7-0.2-1.2-0.4-0.5-0.2-0.8-0.6-0.3-0.4-0.3-1 0-0.5 0.3-0.9 0.3-0.5 0.8-0.7 0.6-0.3 1.3-0.3 1.1 0 1.8 0.6 0.6 0.5 0.7 1.5h-1.1q0-0.5-0.4-0.8-0.4-0.3-1-0.3-0.6 0-1 0.2-0.3 0.3-0.3 0.7 0 0.3 0.2 0.5 0.2 0.2 0.5 0.4 0.3 0.1 0.9 0.2 0.7 0.2 1.1 0.4 0.5 0.2 0.8 0.6 0.3 0.3 0.3 0.9 0 0.6-0.3 1-0.3 0.4-0.8 0.7-0.6 0.2-1.3 0.2zm5.3-5.8v3.9q0 0.5 0.2 0.7 0.2 0.2 0.7 0.2h0.8v0.9h-1q-0.9 0-1.3-0.4-0.5-0.4-0.5-1.4v-3.9h-0.8v-0.9h0.8v-1.6h1.1v1.6h1.7v0.9zm11.4-2.1l-3.3 7.8h-1.1l3.4-7.7h-4.7v-0.9h5.7zm4.2 4.5q0-1 0.4-1.8 0.4-0.7 1.1-1.2 0.8-0.4 1.6-0.4 0.8 0 1.5 0.4 0.6 0.3 1 0.9v-3.5h1.1v8.9h-1.1v-1.2q-0.3 0.5-1 0.9-0.6 0.4-1.5 0.4-0.8 0-1.6-0.4-0.7-0.5-1.1-1.2-0.4-0.8-0.4-1.8zm5.6 0q0-0.7-0.3-1.3-0.3-0.6-0.8-0.8-0.5-0.3-1.2-0.3-0.6 0-1.1 0.2-0.5 0.3-0.8 0.9-0.3 0.5-0.3 1.3 0 0.7 0.3 1.3 0.3 0.6 0.8 0.9 0.5 0.2 1.1 0.2 0.7 0 1.2-0.2 0.5-0.3 0.8-0.9 0.3-0.6 0.3-1.3zm2.5 0q0-1 0.4-1.8 0.4-0.7 1.1-1.2 0.8-0.4 1.6-0.4 0.9 0 1.5 0.4 0.7 0.4 1 0.9v-1.2h1.1v6.6h-1.1v-1.2q-0.3 0.5-1 0.9-0.6 0.4-1.5 0.4-0.8 0-1.6-0.4-0.7-0.5-1.1-1.2-0.4-0.8-0.4-1.8zm5.6 0q0-0.7-0.3-1.3-0.3-0.6-0.8-0.8-0.5-0.3-1.1-0.3-0.7 0-1.2 0.2-0.5 0.3-0.8 0.9-0.3 0.5-0.3 1.3 0 0.7 0.3 1.3 0.3 0.6 0.8 0.9 0.5 0.2 1.2 0.2 0.6 0 1.1-0.2 0.5-0.3 0.8-0.9 0.3-0.6 0.3-1.3zm8.6-3.3l-4 9.7h-1.1l1.3-3.2-2.6-6.5h1.2l2 5.3 2.1-5.3zm3.4 6.7q-0.8 0-1.4-0.2-0.6-0.3-0.9-0.8-0.4-0.4-0.4-1h1.1q0.1 0.5 0.5 0.8 0.4 0.3 1.1 0.3 0.6 0 1-0.3 0.3-0.3 0.3-0.7 0-0.4-0.4-0.6-0.3-0.2-1.1-0.4-0.8-0.2-1.2-0.4-0.5-0.2-0.8-0.6-0.4-0.4-0.4-1.1 0-0.5 0.3-0.9 0.3-0.4 0.9-0.6 0.5-0.3 1.3-0.3 1 0 1.7 0.6 0.7 0.5 0.7 1.5h-1.1q0-0.5-0.4-0.9-0.3-0.3-1-0.3-0.6 0-0.9 0.3-0.4 0.2-0.4 0.6 0 0.4 0.2 0.6 0.3 0.2 0.6 0.3 0.3 0.1 0.9 0.3 0.7 0.2 1.1 0.4 0.5 0.2 0.8 0.5 0.3 0.4 0.3 1 0 0.5-0.3 1-0.3 0.4-0.9 0.7-0.5 0.2-1.2 0.2z"/>
	<path id="Layer" fill-rule="evenodd" class="s3" d="m568 33.4v-2.1l8.1-11.6h3.3v11.3h2.2v2.4h-2.2v3.6h-2.7v-3.6zm8.8-10.9l-5.7 8.5h5.7zm8.6 10.8q2.3-2 3.6-3.3 1.4-1.3 2.2-2.7 0.9-1.4 0.9-2.8 0-1.4-0.7-2.2-0.6-0.9-2.1-0.9-1.4 0-2.2 1-0.8 0.8-0.8 2.4h-2.7q0.1-2.8 1.7-4.2 1.5-1.5 4-1.5 2.6 0 4.1 1.5 1.4 1.4 1.4 3.8 0 1.7-0.8 3.3-0.9 1.6-2.1 2.9-1.2 1.2-3.1 2.9l-1.1 1h7.6v2.2h-11.6v-2zm17.9-2.8l6.1 6.6h-3.7l-4.9-5.7v5.7h-2.7v-17.8h2.7v10.3l4.8-5.8h3.8zm25.1-10v2.2h-4.5v14.4h-2.7v-14.4h-4.5v-2.2zm8.5 16.9q-1.9 0-3.4-0.9-1.5-0.9-2.3-2.4-0.9-1.5-0.9-3.6 0-2 0.9-3.6 0.9-1.5 2.4-2.4 1.5-0.8 3.4-0.8 1.9 0 3.5 0.8 1.5 0.9 2.4 2.4 0.9 1.6 0.9 3.6 0 2-0.9 3.6-0.9 1.5-2.5 2.4-1.6 0.9-3.5 0.9zm0-2.4q1.1 0 2-0.5 0.9-0.5 1.5-1.5 0.6-1 0.6-2.5 0-1.4-0.6-2.4-0.5-1-1.4-1.5-1-0.5-2-0.5-1.1 0-2 0.5-0.9 0.5-1.4 1.5-0.5 1-0.5 2.4 0 2.1 1.1 3.3 1.1 1.2 2.7 1.2zm14.8-4.5l6.1 6.6h-3.7l-4.9-5.7v5.7h-2.7v-17.7h2.7v10.3l4.8-5.8h3.8zm20.2-0.3q0 0.7-0.1 1.3h-10.1q0.1 1.6 1.2 2.6 1 0.9 2.6 0.9 2.2 0 3.1-1.8h2.9q-0.6 1.8-2.2 3-1.5 1.1-3.8 1.1-1.9 0-3.4-0.8-1.5-0.9-2.4-2.4-0.8-1.6-0.8-3.6 0-2.1 0.8-3.6 0.8-1.5 2.3-2.4 1.5-0.8 3.5-0.8 1.8 0 3.3 0.8 1.5 0.8 2.3 2.3 0.8 1.5 0.8 3.4zm-2.9-0.9q0-1.5-1-2.4-1.1-0.9-2.7-0.9-1.4 0-2.4 0.9-1 0.9-1.2 2.4zm12.2-5.6q1.6 0 2.8 0.6 1.3 0.7 2 1.9 0.7 1.3 0.7 3.1v7.8h-2.8v-7.4q0-1.8-0.8-2.7-0.9-1-2.5-1-1.5 0-2.4 1-0.9 0.9-0.9 2.7v7.4h-2.7v-13.2h2.7v1.5q0.7-0.8 1.7-1.3 1.1-0.4 2.2-0.4zm13.7 13.6q-1.5 0-2.8-0.5-1.2-0.6-1.9-1.6-0.7-0.9-0.8-2.1h2.9q0 0.8 0.8 1.4 0.7 0.5 1.8 0.5 1.2 0 1.8-0.4 0.6-0.5 0.6-1.2 0-0.7-0.7-1.1-0.7-0.3-2.2-0.8-1.5-0.4-2.5-0.7-0.9-0.4-1.6-1.2-0.7-0.8-0.7-2.1 0-1.1 0.7-1.9 0.6-0.9 1.7-1.4 1.2-0.5 2.7-0.5 2.3 0 3.7 1.1 1.3 1.2 1.4 3.1h-2.7q-0.1-0.9-0.7-1.4-0.7-0.5-1.8-0.5-1 0-1.6 0.4-0.6 0.4-0.6 1.1 0 0.5 0.4 0.9 0.4 0.3 0.9 0.5 0.6 0.2 1.7 0.5 1.4 0.4 2.3 0.8 0.9 0.4 1.6 1.2 0.7 0.7 0.7 2 0 1.1-0.6 2-0.6 0.9-1.8 1.4-1.1 0.5-2.7 0.5z"/>
</svg>