<svg width="15" height="16" viewBox="0 0 15 16" fill="none" xmlns="http://www.w3.org/2000/svg">
<path d="M1.25 6.75C1.25 8.07608 1.77678 9.34785 2.71447 10.2855C3.65215 11.2232 4.92392 11.75 6.25 11.75C7.36041 11.7514 8.43903 11.3794 9.3125 10.6937L12.0562 13.4437C12.1144 13.5023 12.1835 13.5488 12.2596 13.5806C12.3358 13.6123 12.4175 13.6286 12.5 13.6286C12.5825 13.6286 12.6642 13.6123 12.7404 13.5806C12.8165 13.5488 12.8856 13.5023 12.9437 13.4437C13.0023 13.3856 13.0488 13.3165 13.0806 13.2404C13.1123 13.1642 13.1286 13.0825 13.1286 13C13.1286 12.9175 13.1123 12.8358 13.0806 12.7596C13.0488 12.6835 13.0023 12.6144 12.9437 12.5562L10.1937 9.8125C10.8794 8.93903 11.2514 7.86041 11.25 6.75C11.25 5.42392 10.7232 4.15215 9.78553 3.21447C8.84785 2.27678 7.57608 1.75 6.25 1.75C4.92392 1.75 3.65215 2.27678 2.71447 3.21447C1.77678 4.15215 1.25 5.42392 1.25 6.75ZM6.25 3C6.99168 3 7.7167 3.21993 8.33339 3.63199C8.95007 4.04404 9.43072 4.62971 9.71455 5.31494C9.99837 6.00016 10.0726 6.75416 9.92794 7.48159C9.78325 8.20902 9.4261 8.8772 8.90165 9.40165C8.3772 9.9261 7.70902 10.2832 6.98159 10.4279C6.25416 10.5726 5.50016 10.4984 4.81494 10.2145C4.12971 9.93072 3.54404 9.45007 3.13199 8.83339C2.71993 8.2167 2.5 7.49168 2.5 6.75C2.5 5.75544 2.89509 4.80161 3.59835 4.09835C4.30161 3.39509 5.25544 3 6.25 3Z" fill="#4A5C77"/>
</svg>
