<svg width="338" height="430" viewBox="0 0 338 430" fill="none" xmlns="http://www.w3.org/2000/svg">
<rect width="338" height="430" rx="24" fill="white" fill-opacity="0.8"/>
<path d="M60.3073 267.855L58.2873 274.825H57.2673L55.6473 269.215L53.9673 274.825L52.9573 274.835L51.0073 267.855H51.9773L53.4973 273.765L55.1773 267.855H56.1973L57.7973 273.745L59.3273 267.855H60.3073ZM63.6932 274.915C63.1799 274.915 62.7132 274.798 62.2932 274.565C61.8799 274.331 61.5532 274.001 61.3132 273.575C61.0799 273.141 60.9632 272.641 60.9632 272.075C60.9632 271.515 61.0832 271.021 61.3232 270.595C61.5699 270.161 61.9032 269.831 62.3232 269.605C62.7432 269.371 63.2132 269.255 63.7332 269.255C64.2532 269.255 64.7232 269.371 65.1432 269.605C65.5632 269.831 65.8932 270.158 66.1332 270.585C66.3799 271.011 66.5032 271.508 66.5032 272.075C66.5032 272.641 66.3765 273.141 66.1232 273.575C65.8765 274.001 65.5399 274.331 65.1132 274.565C64.6865 274.798 64.2132 274.915 63.6932 274.915ZM63.6932 274.115C64.0199 274.115 64.3265 274.038 64.6132 273.885C64.8999 273.731 65.1299 273.501 65.3032 273.195C65.4832 272.888 65.5732 272.515 65.5732 272.075C65.5732 271.635 65.4865 271.261 65.3132 270.955C65.1399 270.648 64.9132 270.421 64.6332 270.275C64.3532 270.121 64.0499 270.045 63.7232 270.045C63.3899 270.045 63.0832 270.121 62.8032 270.275C62.5299 270.421 62.3099 270.648 62.1432 270.955C61.9765 271.261 61.8932 271.635 61.8932 272.075C61.8932 272.521 61.9732 272.898 62.1332 273.205C62.2999 273.511 62.5199 273.741 62.7932 273.895C63.0665 274.041 63.3665 274.115 63.6932 274.115ZM68.6097 270.235C68.7697 269.921 68.9964 269.678 69.2897 269.505C69.5897 269.331 69.953 269.245 70.3797 269.245V270.185H70.1397C69.1197 270.185 68.6097 270.738 68.6097 271.845V274.825H67.6997V269.345H68.6097V270.235ZM74.4902 274.825L72.3402 272.405V274.825H71.4302V267.425H72.3402V271.775L74.4502 269.345H75.7202L73.1402 272.075L75.7302 274.825H74.4902ZM77.4866 270.355C77.6666 270.041 77.9333 269.781 78.2866 269.575C78.6466 269.361 79.0633 269.255 79.5366 269.255C80.0233 269.255 80.4633 269.371 80.8566 269.605C81.2566 269.838 81.57 270.168 81.7966 270.595C82.0233 271.015 82.1366 271.505 82.1366 272.065C82.1366 272.618 82.0233 273.111 81.7966 273.545C81.57 273.978 81.2566 274.315 80.8566 274.555C80.4633 274.795 80.0233 274.915 79.5366 274.915C79.07 274.915 78.6566 274.811 78.2966 274.605C77.9433 274.391 77.6733 274.128 77.4866 273.815V277.425H76.5766V269.345H77.4866V270.355ZM81.2066 272.065C81.2066 271.651 81.1233 271.291 80.9566 270.985C80.79 270.678 80.5633 270.445 80.2766 270.285C79.9966 270.125 79.6866 270.045 79.3466 270.045C79.0133 270.045 78.7033 270.128 78.4166 270.295C78.1366 270.455 77.91 270.691 77.7366 271.005C77.57 271.311 77.4866 271.668 77.4866 272.075C77.4866 272.488 77.57 272.851 77.7366 273.165C77.91 273.471 78.1366 273.708 78.4166 273.875C78.7033 274.035 79.0133 274.115 79.3466 274.115C79.6866 274.115 79.9966 274.035 80.2766 273.875C80.5633 273.708 80.79 273.471 80.9566 273.165C81.1233 272.851 81.2066 272.485 81.2066 272.065ZM84.2445 267.425V274.825H83.3345V267.425H84.2445ZM85.4554 272.065C85.4554 271.505 85.5687 271.015 85.7954 270.595C86.0221 270.168 86.3321 269.838 86.7254 269.605C87.1254 269.371 87.5687 269.255 88.0554 269.255C88.5354 269.255 88.9521 269.358 89.3054 269.565C89.6587 269.771 89.9221 270.031 90.0954 270.345V269.345H91.0154V274.825H90.0954V273.805C89.9154 274.125 89.6454 274.391 89.2854 274.605C88.9321 274.811 88.5187 274.915 88.0454 274.915C87.5587 274.915 87.1187 274.795 86.7254 274.555C86.3321 274.315 86.0221 273.978 85.7954 273.545C85.5687 273.111 85.4554 272.618 85.4554 272.065ZM90.0954 272.075C90.0954 271.661 90.0121 271.301 89.8454 270.995C89.6787 270.688 89.4521 270.455 89.1654 270.295C88.8854 270.128 88.5754 270.045 88.2354 270.045C87.8954 270.045 87.5854 270.125 87.3054 270.285C87.0254 270.445 86.8021 270.678 86.6354 270.985C86.4687 271.291 86.3854 271.651 86.3854 272.065C86.3854 272.485 86.4687 272.851 86.6354 273.165C86.8021 273.471 87.0254 273.708 87.3054 273.875C87.5854 274.035 87.8954 274.115 88.2354 274.115C88.5754 274.115 88.8854 274.035 89.1654 273.875C89.4521 273.708 89.6787 273.471 89.8454 273.165C90.0121 272.851 90.0954 272.488 90.0954 272.075ZM92.2132 272.075C92.2132 271.508 92.3265 271.015 92.5532 270.595C92.7799 270.168 93.0932 269.838 93.4932 269.605C93.8999 269.371 94.3632 269.255 94.8832 269.255C95.5565 269.255 96.1099 269.418 96.5432 269.745C96.9832 270.071 97.2732 270.525 97.4132 271.105H96.4332C96.3399 270.771 96.1565 270.508 95.8832 270.315C95.6165 270.121 95.2832 270.025 94.8832 270.025C94.3632 270.025 93.9432 270.205 93.6232 270.565C93.3032 270.918 93.1432 271.421 93.1432 272.075C93.1432 272.735 93.3032 273.245 93.6232 273.605C93.9432 273.965 94.3632 274.145 94.8832 274.145C95.2832 274.145 95.6165 274.051 95.8832 273.865C96.1499 273.678 96.3332 273.411 96.4332 273.065H97.4132C97.2665 273.625 96.9732 274.075 96.5332 274.415C96.0932 274.748 95.5432 274.915 94.8832 274.915C94.3632 274.915 93.8999 274.798 93.4932 274.565C93.0932 274.331 92.7799 274.001 92.5532 273.575C92.3265 273.148 92.2132 272.648 92.2132 272.075ZM103.627 271.875C103.627 272.048 103.617 272.231 103.597 272.425H99.2174C99.2508 272.965 99.4341 273.388 99.7674 273.695C100.107 273.995 100.517 274.145 100.997 274.145C101.391 274.145 101.717 274.055 101.977 273.875C102.244 273.688 102.431 273.441 102.537 273.135H103.517C103.371 273.661 103.077 274.091 102.637 274.425C102.197 274.751 101.651 274.915 100.997 274.915C100.477 274.915 100.011 274.798 99.5974 274.565C99.1908 274.331 98.8708 274.001 98.6374 273.575C98.4041 273.141 98.2874 272.641 98.2874 272.075C98.2874 271.508 98.4008 271.011 98.6274 270.585C98.8541 270.158 99.1708 269.831 99.5774 269.605C99.9908 269.371 100.464 269.255 100.997 269.255C101.517 269.255 101.977 269.368 102.377 269.595C102.777 269.821 103.084 270.135 103.297 270.535C103.517 270.928 103.627 271.375 103.627 271.875ZM102.687 271.685C102.687 271.338 102.611 271.041 102.457 270.795C102.304 270.541 102.094 270.351 101.827 270.225C101.567 270.091 101.277 270.025 100.957 270.025C100.497 270.025 100.104 270.171 99.7774 270.465C99.4574 270.758 99.2741 271.165 99.2274 271.685H102.687ZM111.165 274.825L109.505 271.975H108.405V274.825H107.495V267.855H109.745C110.271 267.855 110.715 267.945 111.075 268.125C111.441 268.305 111.715 268.548 111.895 268.855C112.075 269.161 112.165 269.511 112.165 269.905C112.165 270.385 112.025 270.808 111.745 271.175C111.471 271.541 111.058 271.785 110.505 271.905L112.255 274.825H111.165ZM108.405 271.245H109.745C110.238 271.245 110.608 271.125 110.855 270.885C111.101 270.638 111.225 270.311 111.225 269.905C111.225 269.491 111.101 269.171 110.855 268.945C110.615 268.718 110.245 268.605 109.745 268.605H108.405V271.245ZM118.579 271.875C118.579 272.048 118.569 272.231 118.549 272.425H114.169C114.202 272.965 114.385 273.388 114.719 273.695C115.059 273.995 115.469 274.145 115.949 274.145C116.342 274.145 116.669 274.055 116.929 273.875C117.195 273.688 117.382 273.441 117.489 273.135H118.469C118.322 273.661 118.029 274.091 117.589 274.425C117.149 274.751 116.602 274.915 115.949 274.915C115.429 274.915 114.962 274.798 114.549 274.565C114.142 274.331 113.822 274.001 113.589 273.575C113.355 273.141 113.239 272.641 113.239 272.075C113.239 271.508 113.352 271.011 113.579 270.585C113.805 270.158 114.122 269.831 114.529 269.605C114.942 269.371 115.415 269.255 115.949 269.255C116.469 269.255 116.929 269.368 117.329 269.595C117.729 269.821 118.035 270.135 118.249 270.535C118.469 270.928 118.579 271.375 118.579 271.875ZM117.639 271.685C117.639 271.338 117.562 271.041 117.409 270.795C117.255 270.541 117.045 270.351 116.779 270.225C116.519 270.091 116.229 270.025 115.909 270.025C115.449 270.025 115.055 270.171 114.729 270.465C114.409 270.758 114.225 271.165 114.179 271.685H117.639ZM120.69 267.425V274.825H119.78V267.425H120.69ZM121.901 272.065C121.901 271.505 122.014 271.015 122.241 270.595C122.467 270.168 122.777 269.838 123.171 269.605C123.571 269.371 124.014 269.255 124.501 269.255C124.981 269.255 125.397 269.358 125.751 269.565C126.104 269.771 126.367 270.031 126.541 270.345V269.345H127.461V274.825H126.541V273.805C126.361 274.125 126.091 274.391 125.731 274.605C125.377 274.811 124.964 274.915 124.491 274.915C124.004 274.915 123.564 274.795 123.171 274.555C122.777 274.315 122.467 273.978 122.241 273.545C122.014 273.111 121.901 272.618 121.901 272.065ZM126.541 272.075C126.541 271.661 126.457 271.301 126.291 270.995C126.124 270.688 125.897 270.455 125.611 270.295C125.331 270.128 125.021 270.045 124.681 270.045C124.341 270.045 124.031 270.125 123.751 270.285C123.471 270.445 123.247 270.678 123.081 270.985C122.914 271.291 122.831 271.651 122.831 272.065C122.831 272.485 122.914 272.851 123.081 273.165C123.247 273.471 123.471 273.708 123.751 273.875C124.031 274.035 124.341 274.115 124.681 274.115C125.021 274.115 125.331 274.035 125.611 273.875C125.897 273.708 126.124 273.471 126.291 273.165C126.457 272.851 126.541 272.488 126.541 272.075ZM130.109 270.095V273.325C130.109 273.591 130.165 273.781 130.279 273.895C130.392 274.001 130.589 274.055 130.869 274.055H131.539V274.825H130.719C130.212 274.825 129.832 274.708 129.579 274.475C129.325 274.241 129.199 273.858 129.199 273.325V270.095H128.489V269.345H129.199V267.965H130.109V269.345H131.539V270.095H130.109ZM133.111 268.455C132.938 268.455 132.791 268.395 132.671 268.275C132.551 268.155 132.491 268.008 132.491 267.835C132.491 267.661 132.551 267.515 132.671 267.395C132.791 267.275 132.938 267.215 133.111 267.215C133.278 267.215 133.418 267.275 133.531 267.395C133.651 267.515 133.711 267.661 133.711 267.835C133.711 268.008 133.651 268.155 133.531 268.275C133.418 268.395 133.278 268.455 133.111 268.455ZM133.551 269.345V274.825H132.641V269.345H133.551ZM137.492 274.915C136.979 274.915 136.512 274.798 136.092 274.565C135.679 274.331 135.352 274.001 135.112 273.575C134.879 273.141 134.762 272.641 134.762 272.075C134.762 271.515 134.882 271.021 135.122 270.595C135.369 270.161 135.702 269.831 136.122 269.605C136.542 269.371 137.012 269.255 137.532 269.255C138.052 269.255 138.522 269.371 138.942 269.605C139.362 269.831 139.692 270.158 139.932 270.585C140.179 271.011 140.302 271.508 140.302 272.075C140.302 272.641 140.175 273.141 139.922 273.575C139.675 274.001 139.339 274.331 138.912 274.565C138.485 274.798 138.012 274.915 137.492 274.915ZM137.492 274.115C137.819 274.115 138.125 274.038 138.412 273.885C138.699 273.731 138.929 273.501 139.102 273.195C139.282 272.888 139.372 272.515 139.372 272.075C139.372 271.635 139.285 271.261 139.112 270.955C138.939 270.648 138.712 270.421 138.432 270.275C138.152 270.121 137.849 270.045 137.522 270.045C137.189 270.045 136.882 270.121 136.602 270.275C136.329 270.421 136.109 270.648 135.942 270.955C135.775 271.261 135.692 271.635 135.692 272.075C135.692 272.521 135.772 272.898 135.932 273.205C136.099 273.511 136.319 273.741 136.592 273.895C136.865 274.041 137.165 274.115 137.492 274.115ZM144.169 269.245C144.835 269.245 145.375 269.448 145.789 269.855C146.202 270.255 146.409 270.835 146.409 271.595V274.825H145.509V271.725C145.509 271.178 145.372 270.761 145.099 270.475C144.825 270.181 144.452 270.035 143.979 270.035C143.499 270.035 143.115 270.185 142.829 270.485C142.549 270.785 142.409 271.221 142.409 271.795V274.825H141.499V269.345H142.409V270.125C142.589 269.845 142.832 269.628 143.139 269.475C143.452 269.321 143.795 269.245 144.169 269.245ZM149.835 274.915C149.415 274.915 149.038 274.845 148.705 274.705C148.372 274.558 148.108 274.358 147.915 274.105C147.722 273.845 147.615 273.548 147.595 273.215H148.535C148.562 273.488 148.688 273.711 148.915 273.885C149.148 274.058 149.452 274.145 149.825 274.145C150.172 274.145 150.445 274.068 150.645 273.915C150.845 273.761 150.945 273.568 150.945 273.335C150.945 273.095 150.838 272.918 150.625 272.805C150.412 272.685 150.082 272.568 149.635 272.455C149.228 272.348 148.895 272.241 148.635 272.135C148.382 272.021 148.162 271.858 147.975 271.645C147.795 271.425 147.705 271.138 147.705 270.785C147.705 270.505 147.788 270.248 147.955 270.015C148.122 269.781 148.358 269.598 148.665 269.465C148.972 269.325 149.322 269.255 149.715 269.255C150.322 269.255 150.812 269.408 151.185 269.715C151.558 270.021 151.758 270.441 151.785 270.975H150.875C150.855 270.688 150.738 270.458 150.525 270.285C150.318 270.111 150.038 270.025 149.685 270.025C149.358 270.025 149.098 270.095 148.905 270.235C148.712 270.375 148.615 270.558 148.615 270.785C148.615 270.965 148.672 271.115 148.785 271.235C148.905 271.348 149.052 271.441 149.225 271.515C149.405 271.581 149.652 271.658 149.965 271.745C150.358 271.851 150.678 271.958 150.925 272.065C151.172 272.165 151.382 272.318 151.555 272.525C151.735 272.731 151.828 273.001 151.835 273.335C151.835 273.635 151.752 273.905 151.585 274.145C151.418 274.385 151.182 274.575 150.875 274.715C150.575 274.848 150.228 274.915 149.835 274.915Z" fill="black"/>
<circle cx="36.4519" cy="270.116" r="7.1155" fill="#E7EBB8"/>
<path d="M56.9173 301.665V308.635H56.0073V305.475H52.4573V308.635H51.5473V301.665H52.4573V304.725H56.0073V301.665H56.9173ZM62.1412 308.635L60.4812 305.785H59.3812V308.635H58.4712V301.665H60.7212C61.2478 301.665 61.6912 301.755 62.0512 301.935C62.4178 302.115 62.6912 302.358 62.8712 302.665C63.0512 302.971 63.1412 303.321 63.1412 303.715C63.1412 304.195 63.0012 304.618 62.7212 304.985C62.4478 305.351 62.0345 305.595 61.4812 305.715L63.2312 308.635H62.1412ZM59.3812 305.055H60.7212C61.2145 305.055 61.5845 304.935 61.8312 304.695C62.0778 304.448 62.2012 304.121 62.2012 303.715C62.2012 303.301 62.0778 302.981 61.8312 302.755C61.5912 302.528 61.2212 302.415 60.7212 302.415H59.3812V305.055Z" fill="black"/>
<circle cx="36.4519" cy="303.914" r="7.1155" fill="#AEC7E8"/>
<path d="M55.6673 340.931H52.6273L52.0673 342.481H51.1073L53.6273 335.551H54.6773L57.1873 342.481H56.2273L55.6673 340.931ZM55.4073 340.191L54.1473 336.671L52.8873 340.191H55.4073ZM57.9456 339.731C57.9456 339.164 58.059 338.671 58.2856 338.251C58.5123 337.824 58.8256 337.494 59.2256 337.261C59.6323 337.027 60.0956 336.911 60.6156 336.911C61.289 336.911 61.8423 337.074 62.2756 337.401C62.7156 337.727 63.0056 338.181 63.1456 338.761H62.1656C62.0723 338.427 61.889 338.164 61.6156 337.971C61.349 337.777 61.0156 337.681 60.6156 337.681C60.0956 337.681 59.6756 337.861 59.3556 338.221C59.0356 338.574 58.8756 339.077 58.8756 339.731C58.8756 340.391 59.0356 340.901 59.3556 341.261C59.6756 341.621 60.0956 341.801 60.6156 341.801C61.0156 341.801 61.349 341.707 61.6156 341.521C61.8823 341.334 62.0656 341.067 62.1656 340.721H63.1456C62.999 341.281 62.7056 341.731 62.2656 342.071C61.8256 342.404 61.2756 342.571 60.6156 342.571C60.0956 342.571 59.6323 342.454 59.2256 342.221C58.8256 341.987 58.5123 341.657 58.2856 341.231C58.059 340.804 57.9456 340.304 57.9456 339.731ZM64.0198 339.731C64.0198 339.164 64.1332 338.671 64.3598 338.251C64.5865 337.824 64.8998 337.494 65.2998 337.261C65.7065 337.027 66.1698 336.911 66.6898 336.911C67.3632 336.911 67.9165 337.074 68.3498 337.401C68.7898 337.727 69.0798 338.181 69.2198 338.761H68.2398C68.1465 338.427 67.9632 338.164 67.6898 337.971C67.4232 337.777 67.0898 337.681 66.6898 337.681C66.1698 337.681 65.7498 337.861 65.4298 338.221C65.1098 338.574 64.9498 339.077 64.9498 339.731C64.9498 340.391 65.1098 340.901 65.4298 341.261C65.7498 341.621 66.1698 341.801 66.6898 341.801C67.0898 341.801 67.4232 341.707 67.6898 341.521C67.9565 341.334 68.1398 341.067 68.2398 340.721H69.2198C69.0732 341.281 68.7798 341.731 68.3398 342.071C67.8998 342.404 67.3498 342.571 66.6898 342.571C66.1698 342.571 65.7065 342.454 65.2998 342.221C64.8998 341.987 64.5865 341.657 64.3598 341.231C64.1332 340.804 64.0198 340.304 64.0198 339.731ZM72.8241 342.571C72.3107 342.571 71.8441 342.454 71.4241 342.221C71.0107 341.987 70.6841 341.657 70.4441 341.231C70.2107 340.797 70.0941 340.297 70.0941 339.731C70.0941 339.171 70.2141 338.677 70.4541 338.251C70.7007 337.817 71.0341 337.487 71.4541 337.261C71.8741 337.027 72.3441 336.911 72.8641 336.911C73.3841 336.911 73.8541 337.027 74.2741 337.261C74.6941 337.487 75.0241 337.814 75.2641 338.241C75.5107 338.667 75.6341 339.164 75.6341 339.731C75.6341 340.297 75.5074 340.797 75.2541 341.231C75.0074 341.657 74.6707 341.987 74.2441 342.221C73.8174 342.454 73.3441 342.571 72.8241 342.571ZM72.8241 341.771C73.1507 341.771 73.4574 341.694 73.7441 341.541C74.0307 341.387 74.2607 341.157 74.4341 340.851C74.6141 340.544 74.7041 340.171 74.7041 339.731C74.7041 339.291 74.6174 338.917 74.4441 338.611C74.2707 338.304 74.0441 338.077 73.7641 337.931C73.4841 337.777 73.1807 337.701 72.8541 337.701C72.5207 337.701 72.2141 337.777 71.9341 337.931C71.6607 338.077 71.4407 338.304 71.2741 338.611C71.1074 338.917 71.0241 339.291 71.0241 339.731C71.0241 340.177 71.1041 340.554 71.2641 340.861C71.4307 341.167 71.6507 341.397 71.9241 341.551C72.1974 341.697 72.4974 341.771 72.8241 341.771ZM81.6905 337.001V342.481H80.7805V341.671C80.6072 341.951 80.3639 342.171 80.0505 342.331C79.7439 342.484 79.4039 342.561 79.0305 342.561C78.6039 342.561 78.2205 342.474 77.8805 342.301C77.5405 342.121 77.2705 341.854 77.0705 341.501C76.8772 341.147 76.7805 340.717 76.7805 340.211V337.001H77.6805V340.091C77.6805 340.631 77.8172 341.047 78.0905 341.341C78.3639 341.627 78.7372 341.771 79.2105 341.771C79.6972 341.771 80.0805 341.621 80.3605 341.321C80.6405 341.021 80.7805 340.584 80.7805 340.011V337.001H81.6905ZM85.897 336.901C86.5637 336.901 87.1037 337.104 87.517 337.511C87.9304 337.911 88.137 338.491 88.137 339.251V342.481H87.237V339.381C87.237 338.834 87.1004 338.417 86.827 338.131C86.5537 337.837 86.1804 337.691 85.707 337.691C85.227 337.691 84.8437 337.841 84.557 338.141C84.277 338.441 84.137 338.877 84.137 339.451V342.481H83.227V337.001H84.137V337.781C84.317 337.501 84.5604 337.284 84.867 337.131C85.1804 336.977 85.5237 336.901 85.897 336.901ZM90.7335 337.751V340.981C90.7335 341.247 90.7902 341.437 90.9035 341.551C91.0168 341.657 91.2135 341.711 91.4935 341.711H92.1635V342.481H91.3435C90.8368 342.481 90.4568 342.364 90.2035 342.131C89.9502 341.897 89.8235 341.514 89.8235 340.981V337.751H89.1135V337.001H89.8235V335.621H90.7335V337.001H92.1635V337.751H90.7335ZM93.7361 336.111C93.5628 336.111 93.4161 336.051 93.2961 335.931C93.1761 335.811 93.1161 335.664 93.1161 335.491C93.1161 335.317 93.1761 335.171 93.2961 335.051C93.4161 334.931 93.5628 334.871 93.7361 334.871C93.9028 334.871 94.0428 334.931 94.1561 335.051C94.2761 335.171 94.3361 335.317 94.3361 335.491C94.3361 335.664 94.2761 335.811 94.1561 335.931C94.0428 336.051 93.9028 336.111 93.7361 336.111ZM94.1761 337.001V342.481H93.2661V337.001H94.1761ZM98.397 336.901C99.0637 336.901 99.6037 337.104 100.017 337.511C100.43 337.911 100.637 338.491 100.637 339.251V342.481H99.737V339.381C99.737 338.834 99.6004 338.417 99.327 338.131C99.0537 337.837 98.6804 337.691 98.207 337.691C97.727 337.691 97.3437 337.841 97.057 338.141C96.777 338.441 96.637 338.877 96.637 339.451V342.481H95.727V337.001H96.637V337.781C96.817 337.501 97.0604 337.284 97.367 337.131C97.6804 336.977 98.0237 336.901 98.397 336.901ZM104.384 336.911C104.857 336.911 105.27 337.014 105.624 337.221C105.984 337.427 106.25 337.687 106.424 338.001V337.001H107.344V342.601C107.344 343.101 107.237 343.544 107.024 343.931C106.81 344.324 106.504 344.631 106.104 344.851C105.71 345.071 105.25 345.181 104.724 345.181C104.004 345.181 103.404 345.011 102.924 344.671C102.444 344.331 102.16 343.867 102.074 343.281H102.974C103.074 343.614 103.28 343.881 103.594 344.081C103.907 344.287 104.284 344.391 104.724 344.391C105.224 344.391 105.63 344.234 105.944 343.921C106.264 343.607 106.424 343.167 106.424 342.601V341.451C106.244 341.771 105.977 342.037 105.624 342.251C105.27 342.464 104.857 342.571 104.384 342.571C103.897 342.571 103.454 342.451 103.054 342.211C102.66 341.971 102.35 341.634 102.124 341.201C101.897 340.767 101.784 340.274 101.784 339.721C101.784 339.161 101.897 338.671 102.124 338.251C102.35 337.824 102.66 337.494 103.054 337.261C103.454 337.027 103.897 336.911 104.384 336.911ZM106.424 339.731C106.424 339.317 106.34 338.957 106.174 338.651C106.007 338.344 105.78 338.111 105.494 337.951C105.214 337.784 104.904 337.701 104.564 337.701C104.224 337.701 103.914 337.781 103.634 337.941C103.354 338.101 103.13 338.334 102.964 338.641C102.797 338.947 102.714 339.307 102.714 339.721C102.714 340.141 102.797 340.507 102.964 340.821C103.13 341.127 103.354 341.364 103.634 341.531C103.914 341.691 104.224 341.771 104.564 341.771C104.904 341.771 105.214 341.691 105.494 341.531C105.78 341.364 106.007 341.127 106.174 340.821C106.34 340.507 106.424 340.144 106.424 339.731Z" fill="black"/>
<circle cx="36.4519" cy="338.561" r="7.1155" fill="#FFBB78"/>
<path d="M52.4573 370.146V377.116H51.5473V370.146H52.4573ZM58.2983 370.146V370.886H56.3983V377.116H55.4883V370.886H53.5783V370.146H58.2983Z" fill="black"/>
<circle cx="36.4519" cy="372.359" r="7.1155" fill="#62C0BB"/>
<path d="M58.6173 402.357V409.277H57.7073V404.117L55.4073 409.277H54.7673L52.4573 404.107V409.277H51.5473V402.357H52.5273L55.0873 408.077L57.6473 402.357H58.6173ZM59.8206 406.517C59.8206 405.957 59.934 405.467 60.1606 405.047C60.3873 404.62 60.6973 404.29 61.0906 404.057C61.4906 403.824 61.934 403.707 62.4206 403.707C62.9006 403.707 63.3173 403.81 63.6706 404.017C64.024 404.224 64.2873 404.484 64.4606 404.797V403.797H65.3806V409.277H64.4606V408.257C64.2806 408.577 64.0106 408.844 63.6506 409.057C63.2973 409.264 62.884 409.367 62.4106 409.367C61.924 409.367 61.484 409.247 61.0906 409.007C60.6973 408.767 60.3873 408.43 60.1606 407.997C59.934 407.564 59.8206 407.07 59.8206 406.517ZM64.4606 406.527C64.4606 406.114 64.3773 405.754 64.2106 405.447C64.044 405.14 63.8173 404.907 63.5306 404.747C63.2506 404.58 62.9406 404.497 62.6006 404.497C62.2606 404.497 61.9506 404.577 61.6706 404.737C61.3906 404.897 61.1673 405.13 61.0006 405.437C60.834 405.744 60.7506 406.104 60.7506 406.517C60.7506 406.937 60.834 407.304 61.0006 407.617C61.1673 407.924 61.3906 408.16 61.6706 408.327C61.9506 408.487 62.2606 408.567 62.6006 408.567C62.9406 408.567 63.2506 408.487 63.5306 408.327C63.8173 408.16 64.044 407.924 64.2106 407.617C64.3773 407.304 64.4606 406.94 64.4606 406.527ZM67.8284 404.687C67.9884 404.374 68.2151 404.13 68.5084 403.957C68.8084 403.784 69.1718 403.697 69.5984 403.697V404.637H69.3584C68.3384 404.637 67.8284 405.19 67.8284 406.297V409.277H66.9184V403.797H67.8284V404.687ZM73.7089 409.277L71.5589 406.857V409.277H70.6489V401.877H71.5589V406.227L73.6689 403.797H74.9389L72.3589 406.527L74.9489 409.277H73.7089ZM80.7954 406.327C80.7954 406.5 80.7854 406.684 80.7654 406.877H76.3854C76.4187 407.417 76.6021 407.84 76.9354 408.147C77.2754 408.447 77.6854 408.597 78.1654 408.597C78.5587 408.597 78.8854 408.507 79.1454 408.327C79.4121 408.14 79.5987 407.894 79.7054 407.587H80.6854C80.5387 408.114 80.2454 408.544 79.8054 408.877C79.3654 409.204 78.8187 409.367 78.1654 409.367C77.6454 409.367 77.1787 409.25 76.7654 409.017C76.3587 408.784 76.0387 408.454 75.8054 408.027C75.5721 407.594 75.4554 407.094 75.4554 406.527C75.4554 405.96 75.5687 405.464 75.7954 405.037C76.0221 404.61 76.3387 404.284 76.7454 404.057C77.1587 403.824 77.6321 403.707 78.1654 403.707C78.6854 403.707 79.1454 403.82 79.5454 404.047C79.9454 404.274 80.2521 404.587 80.4654 404.987C80.6854 405.38 80.7954 405.827 80.7954 406.327ZM79.8554 406.137C79.8554 405.79 79.7787 405.494 79.6254 405.247C79.4721 404.994 79.2621 404.804 78.9954 404.677C78.7354 404.544 78.4454 404.477 78.1254 404.477C77.6654 404.477 77.2721 404.624 76.9454 404.917C76.6254 405.21 76.4421 405.617 76.3954 406.137H79.8554ZM83.1066 404.547V407.777C83.1066 408.044 83.1632 408.234 83.2766 408.347C83.3899 408.454 83.5866 408.507 83.8666 408.507H84.5366V409.277H83.7166C83.2099 409.277 82.8299 409.16 82.5766 408.927C82.3232 408.694 82.1966 408.31 82.1966 407.777V404.547H81.4866V403.797H82.1966V402.417H83.1066V403.797H84.5366V404.547H83.1066ZM86.1091 402.907C85.9358 402.907 85.7891 402.847 85.6691 402.727C85.5491 402.607 85.4891 402.46 85.4891 402.287C85.4891 402.114 85.5491 401.967 85.6691 401.847C85.7891 401.727 85.9358 401.667 86.1091 401.667C86.2758 401.667 86.4158 401.727 86.5291 401.847C86.6491 401.967 86.7091 402.114 86.7091 402.287C86.7091 402.46 86.6491 402.607 86.5291 402.727C86.4158 402.847 86.2758 402.907 86.1091 402.907ZM86.5491 403.797V409.277H85.6391V403.797H86.5491ZM90.7701 403.697C91.4367 403.697 91.9767 403.9 92.3901 404.307C92.8034 404.707 93.0101 405.287 93.0101 406.047V409.277H92.1101V406.177C92.1101 405.63 91.9734 405.214 91.7001 404.927C91.4267 404.634 91.0534 404.487 90.5801 404.487C90.1001 404.487 89.7167 404.637 89.4301 404.937C89.1501 405.237 89.0101 405.674 89.0101 406.247V409.277H88.1001V403.797H89.0101V404.577C89.1901 404.297 89.4334 404.08 89.7401 403.927C90.0534 403.774 90.3967 403.697 90.7701 403.697ZM96.7566 403.707C97.2299 403.707 97.6432 403.81 97.9966 404.017C98.3566 404.224 98.6232 404.484 98.7966 404.797V403.797H99.7166V409.397C99.7166 409.897 99.6099 410.34 99.3966 410.727C99.1832 411.12 98.8766 411.427 98.4766 411.647C98.0832 411.867 97.6232 411.977 97.0966 411.977C96.3766 411.977 95.7766 411.807 95.2966 411.467C94.8166 411.127 94.5332 410.664 94.4466 410.077H95.3466C95.4466 410.41 95.6532 410.677 95.9666 410.877C96.2799 411.084 96.6566 411.187 97.0966 411.187C97.5966 411.187 98.0032 411.03 98.3166 410.717C98.6366 410.404 98.7966 409.964 98.7966 409.397V408.247C98.6166 408.567 98.3499 408.834 97.9966 409.047C97.6432 409.26 97.2299 409.367 96.7566 409.367C96.2699 409.367 95.8266 409.247 95.4266 409.007C95.0332 408.767 94.7232 408.43 94.4966 407.997C94.2699 407.564 94.1566 407.07 94.1566 406.517C94.1566 405.957 94.2699 405.467 94.4966 405.047C94.7232 404.62 95.0332 404.29 95.4266 404.057C95.8266 403.824 96.2699 403.707 96.7566 403.707ZM98.7966 406.527C98.7966 406.114 98.7132 405.754 98.5466 405.447C98.3799 405.14 98.1532 404.907 97.8666 404.747C97.5866 404.58 97.2766 404.497 96.9366 404.497C96.5966 404.497 96.2866 404.577 96.0066 404.737C95.7266 404.897 95.5032 405.13 95.3366 405.437C95.1699 405.744 95.0866 406.104 95.0866 406.517C95.0866 406.937 95.1699 407.304 95.3366 407.617C95.5032 407.924 95.7266 408.16 96.0066 408.327C96.2866 408.487 96.5966 408.567 96.9366 408.567C97.2766 408.567 97.5866 408.487 97.8666 408.327C98.1532 408.16 98.3799 407.924 98.5466 407.617C98.7132 407.304 98.7966 406.94 98.7966 406.527Z" fill="black"/>
<circle cx="36.4519" cy="406.159" r="7.1155" fill="#F0CECE"/>
<path d="M231.263 271.789C230.596 271.443 230.263 270.906 230.263 270.179C230.263 269.819 230.353 269.493 230.533 269.199C230.719 268.899 230.996 268.663 231.363 268.489C231.736 268.309 232.189 268.219 232.723 268.219C233.256 268.219 233.706 268.309 234.073 268.489C234.446 268.663 234.723 268.899 234.903 269.199C235.089 269.493 235.183 269.819 235.183 270.179C235.183 270.546 235.093 270.869 234.913 271.149C234.733 271.423 234.493 271.636 234.193 271.789C234.559 271.949 234.846 272.183 235.053 272.489C235.259 272.796 235.363 273.159 235.363 273.579C235.363 274.033 235.246 274.429 235.013 274.769C234.786 275.103 234.473 275.359 234.073 275.539C233.673 275.719 233.223 275.809 232.723 275.809C232.223 275.809 231.773 275.719 231.373 275.539C230.979 275.359 230.666 275.103 230.433 274.769C230.206 274.429 230.093 274.033 230.093 273.579C230.093 273.159 230.196 272.796 230.403 272.489C230.609 272.176 230.896 271.943 231.263 271.789ZM233.823 270.379C233.823 270.053 233.723 269.799 233.523 269.619C233.329 269.439 233.063 269.349 232.723 269.349C232.389 269.349 232.123 269.439 231.923 269.619C231.729 269.799 231.633 270.056 231.633 270.389C231.633 270.689 231.733 270.929 231.933 271.109C232.139 271.289 232.403 271.379 232.723 271.379C233.043 271.379 233.306 271.289 233.513 271.109C233.719 270.923 233.823 270.679 233.823 270.379ZM232.723 272.399C232.343 272.399 232.033 272.496 231.793 272.689C231.559 272.883 231.443 273.159 231.443 273.519C231.443 273.853 231.556 274.126 231.783 274.339C232.016 274.546 232.329 274.649 232.723 274.649C233.116 274.649 233.426 274.543 233.653 274.329C233.879 274.116 233.993 273.846 233.993 273.519C233.993 273.166 233.876 272.893 233.643 272.699C233.409 272.499 233.103 272.399 232.723 272.399ZM239.908 275.649L238.028 273.289V275.649H236.628V268.249H238.028V272.459L239.888 270.109H241.708L239.268 272.889L241.728 275.649H239.908ZM249.601 268.669V269.799H247.741V275.649H246.341V269.799H244.481V268.669H249.601ZM253.083 275.739C252.549 275.739 252.069 275.623 251.643 275.389C251.216 275.149 250.879 274.813 250.633 274.379C250.393 273.946 250.273 273.446 250.273 272.879C250.273 272.313 250.396 271.813 250.643 271.379C250.896 270.946 251.239 270.613 251.673 270.379C252.106 270.139 252.589 270.019 253.123 270.019C253.656 270.019 254.139 270.139 254.573 270.379C255.006 270.613 255.346 270.946 255.593 271.379C255.846 271.813 255.973 272.313 255.973 272.879C255.973 273.446 255.843 273.946 255.583 274.379C255.329 274.813 254.983 275.149 254.543 275.389C254.109 275.623 253.623 275.739 253.083 275.739ZM253.083 274.519C253.336 274.519 253.573 274.459 253.793 274.339C254.019 274.213 254.199 274.026 254.333 273.779C254.466 273.533 254.533 273.233 254.533 272.879C254.533 272.353 254.393 271.949 254.113 271.669C253.839 271.383 253.503 271.239 253.103 271.239C252.703 271.239 252.366 271.383 252.093 271.669C251.826 271.949 251.693 272.353 251.693 272.879C251.693 273.406 251.823 273.813 252.083 274.099C252.349 274.379 252.683 274.519 253.083 274.519ZM260.28 275.649L258.4 273.289V275.649H257V268.249H258.4V272.459L260.26 270.109H262.08L259.64 272.889L262.1 275.649H260.28ZM267.989 272.759C267.989 272.959 267.976 273.139 267.949 273.299H263.899C263.933 273.699 264.073 274.013 264.319 274.239C264.566 274.466 264.869 274.579 265.229 274.579C265.749 274.579 266.119 274.356 266.339 273.909H267.849C267.689 274.443 267.383 274.883 266.929 275.229C266.476 275.569 265.919 275.739 265.259 275.739C264.726 275.739 264.246 275.623 263.819 275.389C263.399 275.149 263.069 274.813 262.829 274.379C262.596 273.946 262.479 273.446 262.479 272.879C262.479 272.306 262.596 271.803 262.829 271.369C263.063 270.936 263.389 270.603 263.809 270.369C264.229 270.136 264.713 270.019 265.259 270.019C265.786 270.019 266.256 270.133 266.669 270.359C267.089 270.586 267.413 270.909 267.639 271.329C267.873 271.743 267.989 272.219 267.989 272.759ZM266.539 272.359C266.533 271.999 266.403 271.713 266.149 271.499C265.896 271.279 265.586 271.169 265.219 271.169C264.873 271.169 264.579 271.276 264.339 271.489C264.106 271.696 263.963 271.986 263.909 272.359H266.539ZM272.081 270.029C272.741 270.029 273.275 270.239 273.681 270.659C274.088 271.073 274.291 271.653 274.291 272.399V275.649H272.891V272.589C272.891 272.149 272.781 271.813 272.561 271.579C272.341 271.339 272.041 271.219 271.661 271.219C271.275 271.219 270.968 271.339 270.741 271.579C270.521 271.813 270.411 272.149 270.411 272.589V275.649H269.011V270.109H270.411V270.799C270.598 270.559 270.835 270.373 271.121 270.239C271.415 270.099 271.735 270.029 272.081 270.029ZM277.743 275.739C277.289 275.739 276.883 275.659 276.523 275.499C276.163 275.333 275.876 275.109 275.663 274.829C275.456 274.549 275.343 274.239 275.323 273.899H276.733C276.759 274.113 276.863 274.289 277.043 274.429C277.229 274.569 277.459 274.639 277.733 274.639C277.999 274.639 278.206 274.586 278.353 274.479C278.506 274.373 278.583 274.236 278.583 274.069C278.583 273.889 278.489 273.756 278.303 273.669C278.123 273.576 277.833 273.476 277.433 273.369C277.019 273.269 276.679 273.166 276.413 273.059C276.153 272.953 275.926 272.789 275.733 272.569C275.546 272.349 275.453 272.053 275.453 271.679C275.453 271.373 275.539 271.093 275.713 270.839C275.893 270.586 276.146 270.386 276.473 270.239C276.806 270.093 277.196 270.019 277.643 270.019C278.303 270.019 278.829 270.186 279.223 270.519C279.616 270.846 279.833 271.289 279.873 271.849H278.533C278.513 271.629 278.419 271.456 278.253 271.329C278.093 271.196 277.876 271.129 277.603 271.129C277.349 271.129 277.153 271.176 277.013 271.269C276.879 271.363 276.813 271.493 276.813 271.659C276.813 271.846 276.906 271.989 277.093 272.089C277.279 272.183 277.569 272.279 277.963 272.379C278.363 272.479 278.693 272.583 278.953 272.689C279.213 272.796 279.436 272.963 279.623 273.189C279.816 273.409 279.916 273.703 279.923 274.069C279.923 274.389 279.833 274.676 279.653 274.929C279.479 275.183 279.226 275.383 278.893 275.529C278.566 275.669 278.183 275.739 277.743 275.739ZM285.875 277.619C285.228 276.993 284.725 276.193 284.365 275.219C284.011 274.246 283.835 273.203 283.835 272.089C283.835 270.949 284.021 269.879 284.395 268.879C284.768 267.873 285.311 267.049 286.025 266.409H287.435V266.539C286.701 267.239 286.141 268.079 285.755 269.059C285.375 270.039 285.185 271.049 285.185 272.089C285.185 273.103 285.365 274.083 285.725 275.029C286.091 275.969 286.611 276.786 287.285 277.479V277.619H285.875ZM288.088 274.229V273.129L291.358 268.449H292.988V273.009H293.868V274.229H292.988V275.649H291.588V274.229H288.088ZM291.678 269.949L289.628 273.009H291.678V269.949ZM294.759 271.909C294.759 270.756 294.966 269.853 295.379 269.199C295.799 268.546 296.493 268.219 297.459 268.219C298.426 268.219 299.116 268.546 299.529 269.199C299.949 269.853 300.159 270.756 300.159 271.909C300.159 273.069 299.949 273.979 299.529 274.639C299.116 275.299 298.426 275.629 297.459 275.629C296.493 275.629 295.799 275.299 295.379 274.639C294.966 273.979 294.759 273.069 294.759 271.909ZM298.779 271.909C298.779 271.416 298.746 271.003 298.679 270.669C298.619 270.329 298.493 270.053 298.299 269.839C298.113 269.626 297.833 269.519 297.459 269.519C297.086 269.519 296.803 269.626 296.609 269.839C296.423 270.053 296.296 270.329 296.229 270.669C296.169 271.003 296.139 271.416 296.139 271.909C296.139 272.416 296.169 272.843 296.229 273.189C296.289 273.529 296.416 273.806 296.609 274.019C296.803 274.226 297.086 274.329 297.459 274.329C297.833 274.329 298.116 274.226 298.309 274.019C298.503 273.806 298.629 273.529 298.689 273.189C298.749 272.843 298.779 272.416 298.779 271.909ZM301.064 270.149C301.064 269.643 301.211 269.246 301.504 268.959C301.804 268.673 302.188 268.529 302.654 268.529C303.121 268.529 303.501 268.673 303.794 268.959C304.094 269.246 304.244 269.643 304.244 270.149C304.244 270.663 304.094 271.063 303.794 271.349C303.501 271.636 303.121 271.779 302.654 271.779C302.188 271.779 301.804 271.636 301.504 271.349C301.211 271.063 301.064 270.663 301.064 270.149ZM307.484 268.649L303.554 275.649H302.194L306.114 268.649H307.484ZM302.644 269.369C302.278 269.369 302.094 269.629 302.094 270.149C302.094 270.676 302.278 270.939 302.644 270.939C302.824 270.939 302.964 270.876 303.064 270.749C303.164 270.616 303.214 270.416 303.214 270.149C303.214 269.629 303.024 269.369 302.644 269.369ZM305.454 274.139C305.454 273.626 305.601 273.229 305.894 272.949C306.194 272.663 306.578 272.519 307.044 272.519C307.511 272.519 307.888 272.663 308.174 272.949C308.468 273.229 308.614 273.626 308.614 274.139C308.614 274.653 308.468 275.053 308.174 275.339C307.888 275.626 307.511 275.769 307.044 275.769C306.571 275.769 306.188 275.626 305.894 275.339C305.601 275.053 305.454 274.653 305.454 274.139ZM307.034 273.359C306.654 273.359 306.464 273.619 306.464 274.139C306.464 274.666 306.654 274.929 307.034 274.929C307.408 274.929 307.594 274.666 307.594 274.139C307.594 273.619 307.408 273.359 307.034 273.359ZM309.315 277.619V277.479C309.989 276.786 310.505 275.969 310.865 275.029C311.232 274.083 311.415 273.103 311.415 272.089C311.415 271.049 311.222 270.039 310.835 269.059C310.455 268.079 309.899 267.239 309.165 266.539V266.409H310.575C311.289 267.049 311.832 267.873 312.205 268.879C312.579 269.879 312.765 270.949 312.765 272.089C312.765 273.203 312.585 274.246 312.225 275.219C311.872 276.193 311.372 276.993 310.725 277.619H309.315Z" fill="black"/>
<path d="M239.316 300.985V299.695H241.726V306.985H240.286V300.985H239.316ZM246.549 306.985L244.669 304.625V306.985H243.269V299.585H244.669V303.795L246.529 301.445H248.349L245.909 304.225L248.369 306.985H246.549ZM256.242 300.005V301.135H254.382V306.985H252.982V301.135H251.122V300.005H256.242ZM259.723 307.075C259.19 307.075 258.71 306.959 258.283 306.725C257.857 306.485 257.52 306.149 257.273 305.715C257.033 305.282 256.913 304.782 256.913 304.215C256.913 303.649 257.037 303.149 257.283 302.715C257.537 302.282 257.88 301.949 258.313 301.715C258.747 301.475 259.23 301.355 259.763 301.355C260.297 301.355 260.78 301.475 261.213 301.715C261.647 301.949 261.987 302.282 262.233 302.715C262.487 303.149 262.613 303.649 262.613 304.215C262.613 304.782 262.483 305.282 262.223 305.715C261.97 306.149 261.623 306.485 261.183 306.725C260.75 306.959 260.263 307.075 259.723 307.075ZM259.723 305.855C259.977 305.855 260.213 305.795 260.433 305.675C260.66 305.549 260.84 305.362 260.973 305.115C261.107 304.869 261.173 304.569 261.173 304.215C261.173 303.689 261.033 303.285 260.753 303.005C260.48 302.719 260.143 302.575 259.743 302.575C259.343 302.575 259.007 302.719 258.733 303.005C258.467 303.285 258.333 303.689 258.333 304.215C258.333 304.742 258.463 305.149 258.723 305.435C258.99 305.715 259.323 305.855 259.723 305.855ZM266.92 306.985L265.04 304.625V306.985H263.64V299.585H265.04V303.795L266.9 301.445H268.72L266.28 304.225L268.74 306.985H266.92ZM274.63 304.095C274.63 304.295 274.617 304.475 274.59 304.635H270.54C270.573 305.035 270.713 305.349 270.96 305.575C271.207 305.802 271.51 305.915 271.87 305.915C272.39 305.915 272.76 305.692 272.98 305.245H274.49C274.33 305.779 274.023 306.219 273.57 306.565C273.117 306.905 272.56 307.075 271.9 307.075C271.367 307.075 270.887 306.959 270.46 306.725C270.04 306.485 269.71 306.149 269.47 305.715C269.237 305.282 269.12 304.782 269.12 304.215C269.12 303.642 269.237 303.139 269.47 302.705C269.703 302.272 270.03 301.939 270.45 301.705C270.87 301.472 271.353 301.355 271.9 301.355C272.427 301.355 272.897 301.469 273.31 301.695C273.73 301.922 274.053 302.245 274.28 302.665C274.513 303.079 274.63 303.555 274.63 304.095ZM273.18 303.695C273.173 303.335 273.043 303.049 272.79 302.835C272.537 302.615 272.227 302.505 271.86 302.505C271.513 302.505 271.22 302.612 270.98 302.825C270.747 303.032 270.603 303.322 270.55 303.695H273.18ZM278.722 301.365C279.382 301.365 279.915 301.575 280.322 301.995C280.729 302.409 280.932 302.989 280.932 303.735V306.985H279.532V303.925C279.532 303.485 279.422 303.149 279.202 302.915C278.982 302.675 278.682 302.555 278.302 302.555C277.915 302.555 277.609 302.675 277.382 302.915C277.162 303.149 277.052 303.485 277.052 303.925V306.985H275.652V301.445H277.052V302.135C277.239 301.895 277.475 301.709 277.762 301.575C278.055 301.435 278.375 301.365 278.722 301.365ZM284.383 307.075C283.93 307.075 283.523 306.995 283.163 306.835C282.803 306.669 282.517 306.445 282.303 306.165C282.097 305.885 281.983 305.575 281.963 305.235H283.373C283.4 305.449 283.503 305.625 283.683 305.765C283.87 305.905 284.1 305.975 284.373 305.975C284.64 305.975 284.847 305.922 284.993 305.815C285.147 305.709 285.223 305.572 285.223 305.405C285.223 305.225 285.13 305.092 284.943 305.005C284.763 304.912 284.473 304.812 284.073 304.705C283.66 304.605 283.32 304.502 283.053 304.395C282.793 304.289 282.567 304.125 282.373 303.905C282.187 303.685 282.093 303.389 282.093 303.015C282.093 302.709 282.18 302.429 282.353 302.175C282.533 301.922 282.787 301.722 283.113 301.575C283.447 301.429 283.837 301.355 284.283 301.355C284.943 301.355 285.47 301.522 285.863 301.855C286.257 302.182 286.473 302.625 286.513 303.185H285.173C285.153 302.965 285.06 302.792 284.893 302.665C284.733 302.532 284.517 302.465 284.243 302.465C283.99 302.465 283.793 302.512 283.653 302.605C283.52 302.699 283.453 302.829 283.453 302.995C283.453 303.182 283.547 303.325 283.733 303.425C283.92 303.519 284.21 303.615 284.603 303.715C285.003 303.815 285.333 303.919 285.593 304.025C285.853 304.132 286.077 304.299 286.263 304.525C286.457 304.745 286.557 305.039 286.563 305.405C286.563 305.725 286.473 306.012 286.293 306.265C286.12 306.519 285.867 306.719 285.533 306.865C285.207 307.005 284.823 307.075 284.383 307.075ZM292.515 308.955C291.869 308.329 291.365 307.529 291.005 306.555C290.652 305.582 290.475 304.539 290.475 303.425C290.475 302.285 290.662 301.215 291.035 300.215C291.409 299.209 291.952 298.385 292.665 297.745H294.075V297.875C293.342 298.575 292.782 299.415 292.395 300.395C292.015 301.375 291.825 302.385 291.825 303.425C291.825 304.439 292.005 305.419 292.365 306.365C292.732 307.305 293.252 308.122 293.925 308.815V308.955H292.515ZM299.689 300.905H296.449V302.615C296.589 302.442 296.789 302.302 297.049 302.195C297.309 302.082 297.585 302.025 297.879 302.025C298.412 302.025 298.849 302.142 299.189 302.375C299.529 302.609 299.775 302.909 299.929 303.275C300.082 303.635 300.159 304.022 300.159 304.435C300.159 305.202 299.939 305.819 299.499 306.285C299.065 306.752 298.445 306.985 297.639 306.985C296.879 306.985 296.272 306.795 295.819 306.415C295.365 306.035 295.109 305.539 295.049 304.925H296.409C296.469 305.192 296.602 305.405 296.809 305.565C297.022 305.725 297.292 305.805 297.619 305.805C298.012 305.805 298.309 305.682 298.509 305.435C298.709 305.189 298.809 304.862 298.809 304.455C298.809 304.042 298.705 303.729 298.499 303.515C298.299 303.295 298.002 303.185 297.609 303.185C297.329 303.185 297.095 303.255 296.909 303.395C296.722 303.535 296.589 303.722 296.509 303.955H295.169V299.675H299.689V300.905ZM301.064 301.485C301.064 300.979 301.211 300.582 301.504 300.295C301.804 300.009 302.188 299.865 302.654 299.865C303.121 299.865 303.501 300.009 303.794 300.295C304.094 300.582 304.244 300.979 304.244 301.485C304.244 301.999 304.094 302.399 303.794 302.685C303.501 302.972 303.121 303.115 302.654 303.115C302.188 303.115 301.804 302.972 301.504 302.685C301.211 302.399 301.064 301.999 301.064 301.485ZM307.484 299.985L303.554 306.985H302.194L306.114 299.985H307.484ZM302.644 300.705C302.278 300.705 302.094 300.965 302.094 301.485C302.094 302.012 302.278 302.275 302.644 302.275C302.824 302.275 302.964 302.212 303.064 302.085C303.164 301.952 303.214 301.752 303.214 301.485C303.214 300.965 303.024 300.705 302.644 300.705ZM305.454 305.475C305.454 304.962 305.601 304.565 305.894 304.285C306.194 303.999 306.578 303.855 307.044 303.855C307.511 303.855 307.888 303.999 308.174 304.285C308.468 304.565 308.614 304.962 308.614 305.475C308.614 305.989 308.468 306.389 308.174 306.675C307.888 306.962 307.511 307.105 307.044 307.105C306.571 307.105 306.188 306.962 305.894 306.675C305.601 306.389 305.454 305.989 305.454 305.475ZM307.034 304.695C306.654 304.695 306.464 304.955 306.464 305.475C306.464 306.002 306.654 306.265 307.034 306.265C307.408 306.265 307.594 306.002 307.594 305.475C307.594 304.955 307.408 304.695 307.034 304.695ZM309.315 308.955V308.815C309.989 308.122 310.505 307.305 310.865 306.365C311.232 305.419 311.415 304.439 311.415 303.425C311.415 302.385 311.222 301.375 310.835 300.395C310.455 299.415 309.899 298.575 309.165 297.875V297.745H310.575C311.289 298.385 311.832 299.209 312.205 300.215C312.579 301.215 312.765 302.285 312.765 303.425C312.765 304.539 312.585 305.582 312.225 306.555C311.872 307.529 311.372 308.329 310.725 308.955H309.315Z" fill="black"/>
<path d="M235.831 336.365H232.591V338.075C232.731 337.902 232.931 337.762 233.191 337.655C233.451 337.542 233.728 337.485 234.021 337.485C234.555 337.485 234.991 337.602 235.331 337.835C235.671 338.069 235.918 338.369 236.071 338.735C236.225 339.095 236.301 339.482 236.301 339.895C236.301 340.662 236.081 341.279 235.641 341.745C235.208 342.212 234.588 342.445 233.781 342.445C233.021 342.445 232.415 342.255 231.961 341.875C231.508 341.495 231.251 340.999 231.191 340.385H232.551C232.611 340.652 232.745 340.865 232.951 341.025C233.165 341.185 233.435 341.265 233.761 341.265C234.155 341.265 234.451 341.142 234.651 340.895C234.851 340.649 234.951 340.322 234.951 339.915C234.951 339.502 234.848 339.189 234.641 338.975C234.441 338.755 234.145 338.645 233.751 338.645C233.471 338.645 233.238 338.715 233.051 338.855C232.865 338.995 232.731 339.182 232.651 339.415H231.311V335.135H235.831V336.365ZM240.807 342.445L238.927 340.085V342.445H237.527V335.045H238.927V339.255L240.787 336.905H242.607L240.167 339.685L242.627 342.445H240.807ZM250.5 335.465V336.595H248.64V342.445H247.24V336.595H245.38V335.465H250.5ZM253.981 342.535C253.448 342.535 252.968 342.419 252.541 342.185C252.114 341.945 251.778 341.609 251.531 341.175C251.291 340.742 251.171 340.242 251.171 339.675C251.171 339.109 251.294 338.609 251.541 338.175C251.794 337.742 252.138 337.409 252.571 337.175C253.004 336.935 253.488 336.815 254.021 336.815C254.554 336.815 255.038 336.935 255.471 337.175C255.904 337.409 256.244 337.742 256.491 338.175C256.744 338.609 256.871 339.109 256.871 339.675C256.871 340.242 256.741 340.742 256.481 341.175C256.228 341.609 255.881 341.945 255.441 342.185C255.008 342.419 254.521 342.535 253.981 342.535ZM253.981 341.315C254.234 341.315 254.471 341.255 254.691 341.135C254.918 341.009 255.098 340.822 255.231 340.575C255.364 340.329 255.431 340.029 255.431 339.675C255.431 339.149 255.291 338.745 255.011 338.465C254.738 338.179 254.401 338.035 254.001 338.035C253.601 338.035 253.264 338.179 252.991 338.465C252.724 338.745 252.591 339.149 252.591 339.675C252.591 340.202 252.721 340.609 252.981 340.895C253.248 341.175 253.581 341.315 253.981 341.315ZM261.178 342.445L259.298 340.085V342.445H257.898V335.045H259.298V339.255L261.158 336.905H262.978L260.538 339.685L262.998 342.445H261.178ZM268.888 339.555C268.888 339.755 268.875 339.935 268.848 340.095H264.798C264.831 340.495 264.971 340.809 265.218 341.035C265.465 341.262 265.768 341.375 266.128 341.375C266.648 341.375 267.018 341.152 267.238 340.705H268.748C268.588 341.239 268.281 341.679 267.828 342.025C267.375 342.365 266.818 342.535 266.158 342.535C265.625 342.535 265.145 342.419 264.718 342.185C264.298 341.945 263.968 341.609 263.728 341.175C263.495 340.742 263.378 340.242 263.378 339.675C263.378 339.102 263.495 338.599 263.728 338.165C263.961 337.732 264.288 337.399 264.708 337.165C265.128 336.932 265.611 336.815 266.158 336.815C266.685 336.815 267.155 336.929 267.568 337.155C267.988 337.382 268.311 337.705 268.538 338.125C268.771 338.539 268.888 339.015 268.888 339.555ZM267.438 339.155C267.431 338.795 267.301 338.509 267.048 338.295C266.795 338.075 266.485 337.965 266.118 337.965C265.771 337.965 265.478 338.072 265.238 338.285C265.005 338.492 264.861 338.782 264.808 339.155H267.438ZM272.98 336.825C273.64 336.825 274.173 337.035 274.58 337.455C274.986 337.869 275.19 338.449 275.19 339.195V342.445H273.79V339.385C273.79 338.945 273.68 338.609 273.46 338.375C273.24 338.135 272.94 338.015 272.56 338.015C272.173 338.015 271.866 338.135 271.64 338.375C271.42 338.609 271.31 338.945 271.31 339.385V342.445H269.91V336.905H271.31V337.595C271.496 337.355 271.733 337.169 272.02 337.035C272.313 336.895 272.633 336.825 272.98 336.825ZM278.641 342.535C278.188 342.535 277.781 342.455 277.421 342.295C277.061 342.129 276.774 341.905 276.561 341.625C276.354 341.345 276.241 341.035 276.221 340.695H277.631C277.658 340.909 277.761 341.085 277.941 341.225C278.128 341.365 278.358 341.435 278.631 341.435C278.898 341.435 279.104 341.382 279.251 341.275C279.404 341.169 279.481 341.032 279.481 340.865C279.481 340.685 279.388 340.552 279.201 340.465C279.021 340.372 278.731 340.272 278.331 340.165C277.918 340.065 277.578 339.962 277.311 339.855C277.051 339.749 276.824 339.585 276.631 339.365C276.444 339.145 276.351 338.849 276.351 338.475C276.351 338.169 276.438 337.889 276.611 337.635C276.791 337.382 277.044 337.182 277.371 337.035C277.704 336.889 278.094 336.815 278.541 336.815C279.201 336.815 279.728 336.982 280.121 337.315C280.514 337.642 280.731 338.085 280.771 338.645H279.431C279.411 338.425 279.318 338.252 279.151 338.125C278.991 337.992 278.774 337.925 278.501 337.925C278.248 337.925 278.051 337.972 277.911 338.065C277.778 338.159 277.711 338.289 277.711 338.455C277.711 338.642 277.804 338.785 277.991 338.885C278.178 338.979 278.468 339.075 278.861 339.175C279.261 339.275 279.591 339.379 279.851 339.485C280.111 339.592 280.334 339.759 280.521 339.985C280.714 340.205 280.814 340.499 280.821 340.865C280.821 341.185 280.731 341.472 280.551 341.725C280.378 341.979 280.124 342.179 279.791 342.325C279.464 342.465 279.081 342.535 278.641 342.535ZM286.773 344.415C286.126 343.789 285.623 342.989 285.263 342.015C284.91 341.042 284.733 339.999 284.733 338.885C284.733 337.745 284.92 336.675 285.293 335.675C285.666 334.669 286.21 333.845 286.923 333.205H288.333V333.335C287.6 334.035 287.04 334.875 286.653 335.855C286.273 336.835 286.083 337.845 286.083 338.885C286.083 339.899 286.263 340.879 286.623 341.825C286.99 342.765 287.51 343.582 288.183 344.275V344.415H286.773ZM289.487 340.865C290.127 340.332 290.637 339.889 291.017 339.535C291.397 339.175 291.713 338.802 291.967 338.415C292.22 338.029 292.347 337.649 292.347 337.275C292.347 336.935 292.267 336.669 292.107 336.475C291.947 336.282 291.7 336.185 291.367 336.185C291.033 336.185 290.777 336.299 290.597 336.525C290.417 336.745 290.323 337.049 290.317 337.435H288.957C288.983 336.635 289.22 336.029 289.667 335.615C290.12 335.202 290.693 334.995 291.387 334.995C292.147 334.995 292.73 335.199 293.137 335.605C293.543 336.005 293.747 336.535 293.747 337.195C293.747 337.715 293.607 338.212 293.327 338.685C293.047 339.159 292.727 339.572 292.367 339.925C292.007 340.272 291.537 340.692 290.957 341.185H293.907V342.345H288.967V341.305L289.487 340.865ZM299.689 336.365H296.449V338.075C296.589 337.902 296.789 337.762 297.049 337.655C297.309 337.542 297.585 337.485 297.879 337.485C298.412 337.485 298.849 337.602 299.189 337.835C299.529 338.069 299.775 338.369 299.929 338.735C300.082 339.095 300.159 339.482 300.159 339.895C300.159 340.662 299.939 341.279 299.499 341.745C299.065 342.212 298.445 342.445 297.639 342.445C296.879 342.445 296.272 342.255 295.819 341.875C295.365 341.495 295.109 340.999 295.049 340.385H296.409C296.469 340.652 296.602 340.865 296.809 341.025C297.022 341.185 297.292 341.265 297.619 341.265C298.012 341.265 298.309 341.142 298.509 340.895C298.709 340.649 298.809 340.322 298.809 339.915C298.809 339.502 298.705 339.189 298.499 338.975C298.299 338.755 298.002 338.645 297.609 338.645C297.329 338.645 297.095 338.715 296.909 338.855C296.722 338.995 296.589 339.182 296.509 339.415H295.169V335.135H299.689V336.365ZM301.064 336.945C301.064 336.439 301.211 336.042 301.504 335.755C301.804 335.469 302.188 335.325 302.654 335.325C303.121 335.325 303.501 335.469 303.794 335.755C304.094 336.042 304.244 336.439 304.244 336.945C304.244 337.459 304.094 337.859 303.794 338.145C303.501 338.432 303.121 338.575 302.654 338.575C302.188 338.575 301.804 338.432 301.504 338.145C301.211 337.859 301.064 337.459 301.064 336.945ZM307.484 335.445L303.554 342.445H302.194L306.114 335.445H307.484ZM302.644 336.165C302.278 336.165 302.094 336.425 302.094 336.945C302.094 337.472 302.278 337.735 302.644 337.735C302.824 337.735 302.964 337.672 303.064 337.545C303.164 337.412 303.214 337.212 303.214 336.945C303.214 336.425 303.024 336.165 302.644 336.165ZM305.454 340.935C305.454 340.422 305.601 340.025 305.894 339.745C306.194 339.459 306.578 339.315 307.044 339.315C307.511 339.315 307.888 339.459 308.174 339.745C308.468 340.025 308.614 340.422 308.614 340.935C308.614 341.449 308.468 341.849 308.174 342.135C307.888 342.422 307.511 342.565 307.044 342.565C306.571 342.565 306.188 342.422 305.894 342.135C305.601 341.849 305.454 341.449 305.454 340.935ZM307.034 340.155C306.654 340.155 306.464 340.415 306.464 340.935C306.464 341.462 306.654 341.725 307.034 341.725C307.408 341.725 307.594 341.462 307.594 340.935C307.594 340.415 307.408 340.155 307.034 340.155ZM309.315 344.415V344.275C309.989 343.582 310.505 342.765 310.865 341.825C311.232 340.879 311.415 339.899 311.415 338.885C311.415 337.845 311.222 336.835 310.835 335.855C310.455 334.875 309.899 334.035 309.165 333.335V333.205H310.575C311.289 333.845 311.832 334.669 312.205 335.675C312.579 336.675 312.765 337.745 312.765 338.885C312.765 339.999 312.585 341.042 312.225 342.015C311.872 342.989 311.372 343.789 310.725 344.415H309.315Z" fill="black"/>
<path d="M230.666 374.011V372.911L233.936 368.231H235.566V372.791H236.446V374.011H235.566V375.431H234.166V374.011H230.666ZM234.256 369.731L232.206 372.791H234.256V369.731ZM240.778 375.431L238.898 373.071V375.431H237.498V368.031H238.898V372.241L240.758 369.891H242.578L240.138 372.671L242.598 375.431H240.778ZM250.47 368.451V369.581H248.61V375.431H247.21V369.581H245.35V368.451H250.47ZM253.952 375.521C253.418 375.521 252.938 375.404 252.512 375.171C252.085 374.931 251.748 374.594 251.502 374.161C251.262 373.728 251.142 373.228 251.142 372.661C251.142 372.094 251.265 371.594 251.512 371.161C251.765 370.728 252.108 370.394 252.542 370.161C252.975 369.921 253.458 369.801 253.992 369.801C254.525 369.801 255.008 369.921 255.442 370.161C255.875 370.394 256.215 370.728 256.462 371.161C256.715 371.594 256.842 372.094 256.842 372.661C256.842 373.228 256.712 373.728 256.452 374.161C256.198 374.594 255.852 374.931 255.412 375.171C254.978 375.404 254.492 375.521 253.952 375.521ZM253.952 374.301C254.205 374.301 254.442 374.241 254.662 374.121C254.888 373.994 255.068 373.808 255.202 373.561C255.335 373.314 255.402 373.014 255.402 372.661C255.402 372.134 255.262 371.731 254.982 371.451C254.708 371.164 254.372 371.021 253.972 371.021C253.572 371.021 253.235 371.164 252.962 371.451C252.695 371.731 252.562 372.134 252.562 372.661C252.562 373.188 252.692 373.594 252.952 373.881C253.218 374.161 253.552 374.301 253.952 374.301ZM261.149 375.431L259.269 373.071V375.431H257.869V368.031H259.269V372.241L261.129 369.891H262.949L260.509 372.671L262.969 375.431H261.149ZM268.859 372.541C268.859 372.741 268.845 372.921 268.819 373.081H264.769C264.802 373.481 264.942 373.794 265.189 374.021C265.435 374.248 265.739 374.361 266.099 374.361C266.619 374.361 266.989 374.138 267.209 373.691H268.719C268.559 374.224 268.252 374.664 267.799 375.011C267.345 375.351 266.789 375.521 266.129 375.521C265.595 375.521 265.115 375.404 264.689 375.171C264.269 374.931 263.939 374.594 263.699 374.161C263.465 373.728 263.349 373.228 263.349 372.661C263.349 372.088 263.465 371.584 263.699 371.151C263.932 370.718 264.259 370.384 264.679 370.151C265.099 369.918 265.582 369.801 266.129 369.801C266.655 369.801 267.125 369.914 267.539 370.141C267.959 370.368 268.282 370.691 268.509 371.111C268.742 371.524 268.859 372.001 268.859 372.541ZM267.409 372.141C267.402 371.781 267.272 371.494 267.019 371.281C266.765 371.061 266.455 370.951 266.089 370.951C265.742 370.951 265.449 371.058 265.209 371.271C264.975 371.478 264.832 371.768 264.779 372.141H267.409ZM272.95 369.811C273.61 369.811 274.144 370.021 274.55 370.441C274.957 370.854 275.16 371.434 275.16 372.181V375.431H273.76V372.371C273.76 371.931 273.65 371.594 273.43 371.361C273.21 371.121 272.91 371.001 272.53 371.001C272.144 371.001 271.837 371.121 271.61 371.361C271.39 371.594 271.28 371.931 271.28 372.371V375.431H269.88V369.891H271.28V370.581C271.467 370.341 271.704 370.154 271.99 370.021C272.284 369.881 272.604 369.811 272.95 369.811ZM278.612 375.521C278.158 375.521 277.752 375.441 277.392 375.281C277.032 375.114 276.745 374.891 276.532 374.611C276.325 374.331 276.212 374.021 276.192 373.681H277.602C277.628 373.894 277.732 374.071 277.912 374.211C278.098 374.351 278.328 374.421 278.602 374.421C278.868 374.421 279.075 374.368 279.222 374.261C279.375 374.154 279.452 374.018 279.452 373.851C279.452 373.671 279.358 373.538 279.172 373.451C278.992 373.358 278.702 373.258 278.302 373.151C277.888 373.051 277.548 372.948 277.282 372.841C277.022 372.734 276.795 372.571 276.602 372.351C276.415 372.131 276.322 371.834 276.322 371.461C276.322 371.154 276.408 370.874 276.582 370.621C276.762 370.368 277.015 370.168 277.342 370.021C277.675 369.874 278.065 369.801 278.512 369.801C279.172 369.801 279.698 369.968 280.092 370.301C280.485 370.628 280.702 371.071 280.742 371.631H279.402C279.382 371.411 279.288 371.238 279.122 371.111C278.962 370.978 278.745 370.911 278.472 370.911C278.218 370.911 278.022 370.958 277.882 371.051C277.748 371.144 277.682 371.274 277.682 371.441C277.682 371.628 277.775 371.771 277.962 371.871C278.148 371.964 278.438 372.061 278.832 372.161C279.232 372.261 279.562 372.364 279.822 372.471C280.082 372.578 280.305 372.744 280.492 372.971C280.685 373.191 280.785 373.484 280.792 373.851C280.792 374.171 280.702 374.458 280.522 374.711C280.348 374.964 280.095 375.164 279.762 375.311C279.435 375.451 279.052 375.521 278.612 375.521ZM286.744 377.401C286.097 376.774 285.594 375.974 285.234 375.001C284.88 374.028 284.704 372.984 284.704 371.871C284.704 370.731 284.89 369.661 285.264 368.661C285.637 367.654 286.18 366.831 286.894 366.191H288.304V366.321C287.57 367.021 287.01 367.861 286.624 368.841C286.244 369.821 286.054 370.831 286.054 371.871C286.054 372.884 286.234 373.864 286.594 374.811C286.96 375.751 287.48 376.568 288.154 377.261V377.401H286.744ZM289.457 373.851C290.097 373.318 290.607 372.874 290.987 372.521C291.367 372.161 291.684 371.788 291.937 371.401C292.191 371.014 292.317 370.634 292.317 370.261C292.317 369.921 292.237 369.654 292.077 369.461C291.917 369.268 291.671 369.171 291.337 369.171C291.004 369.171 290.747 369.284 290.567 369.511C290.387 369.731 290.294 370.034 290.287 370.421H288.927C288.954 369.621 289.191 369.014 289.637 368.601C290.091 368.188 290.664 367.981 291.357 367.981C292.117 367.981 292.701 368.184 293.107 368.591C293.514 368.991 293.717 369.521 293.717 370.181C293.717 370.701 293.577 371.198 293.297 371.671C293.017 372.144 292.697 372.558 292.337 372.911C291.977 373.258 291.507 373.678 290.927 374.171H293.877V375.331H288.937V374.291L289.457 373.851ZM294.759 371.691C294.759 370.538 294.966 369.634 295.379 368.981C295.799 368.328 296.493 368.001 297.459 368.001C298.426 368.001 299.116 368.328 299.529 368.981C299.949 369.634 300.159 370.538 300.159 371.691C300.159 372.851 299.949 373.761 299.529 374.421C299.116 375.081 298.426 375.411 297.459 375.411C296.493 375.411 295.799 375.081 295.379 374.421C294.966 373.761 294.759 372.851 294.759 371.691ZM298.779 371.691C298.779 371.198 298.746 370.784 298.679 370.451C298.619 370.111 298.493 369.834 298.299 369.621C298.113 369.408 297.833 369.301 297.459 369.301C297.086 369.301 296.803 369.408 296.609 369.621C296.423 369.834 296.296 370.111 296.229 370.451C296.169 370.784 296.139 371.198 296.139 371.691C296.139 372.198 296.169 372.624 296.229 372.971C296.289 373.311 296.416 373.588 296.609 373.801C296.803 374.008 297.086 374.111 297.459 374.111C297.833 374.111 298.116 374.008 298.309 373.801C298.503 373.588 298.629 373.311 298.689 372.971C298.749 372.624 298.779 372.198 298.779 371.691ZM301.064 369.931C301.064 369.424 301.211 369.028 301.504 368.741C301.804 368.454 302.188 368.311 302.654 368.311C303.121 368.311 303.501 368.454 303.794 368.741C304.094 369.028 304.244 369.424 304.244 369.931C304.244 370.444 304.094 370.844 303.794 371.131C303.501 371.418 303.121 371.561 302.654 371.561C302.188 371.561 301.804 371.418 301.504 371.131C301.211 370.844 301.064 370.444 301.064 369.931ZM307.484 368.431L303.554 375.431H302.194L306.114 368.431H307.484ZM302.644 369.151C302.278 369.151 302.094 369.411 302.094 369.931C302.094 370.458 302.278 370.721 302.644 370.721C302.824 370.721 302.964 370.658 303.064 370.531C303.164 370.398 303.214 370.198 303.214 369.931C303.214 369.411 303.024 369.151 302.644 369.151ZM305.454 373.921C305.454 373.408 305.601 373.011 305.894 372.731C306.194 372.444 306.578 372.301 307.044 372.301C307.511 372.301 307.888 372.444 308.174 372.731C308.468 373.011 308.614 373.408 308.614 373.921C308.614 374.434 308.468 374.834 308.174 375.121C307.888 375.408 307.511 375.551 307.044 375.551C306.571 375.551 306.188 375.408 305.894 375.121C305.601 374.834 305.454 374.434 305.454 373.921ZM307.034 373.141C306.654 373.141 306.464 373.401 306.464 373.921C306.464 374.448 306.654 374.711 307.034 374.711C307.408 374.711 307.594 374.448 307.594 373.921C307.594 373.401 307.408 373.141 307.034 373.141ZM309.315 377.401V377.261C309.989 376.568 310.505 375.751 310.865 374.811C311.232 373.864 311.415 372.884 311.415 371.871C311.415 370.831 311.222 369.821 310.835 368.841C310.455 367.861 309.899 367.021 309.165 366.321V366.191H310.575C311.289 366.831 311.832 367.654 312.205 368.661C312.579 369.661 312.765 370.731 312.765 371.871C312.765 372.984 312.585 374.028 312.225 375.001C311.872 375.974 311.372 376.774 310.725 377.401H309.315Z" fill="black"/>
<path d="M234.155 408.486C234.795 407.953 235.305 407.51 235.685 407.156C236.065 406.796 236.381 406.423 236.635 406.036C236.888 405.65 237.015 405.27 237.015 404.896C237.015 404.556 236.935 404.29 236.775 404.096C236.615 403.903 236.368 403.806 236.035 403.806C235.701 403.806 235.445 403.92 235.265 404.146C235.085 404.366 234.991 404.67 234.985 405.056H233.625C233.651 404.256 233.888 403.65 234.335 403.236C234.788 402.823 235.361 402.616 236.055 402.616C236.815 402.616 237.398 402.82 237.805 403.226C238.211 403.626 238.415 404.156 238.415 404.816C238.415 405.336 238.275 405.833 237.995 406.306C237.715 406.78 237.395 407.193 237.035 407.546C236.675 407.893 236.205 408.313 235.625 408.806H238.575V409.966H233.635V408.926L234.155 408.486ZM242.897 410.066L241.017 407.706V410.066H239.617V402.666H241.017V406.876L242.877 404.526H244.697L242.257 407.306L244.717 410.066H242.897ZM252.589 403.086V404.216H250.729V410.066H249.329V404.216H247.469V403.086H252.589ZM256.071 410.156C255.538 410.156 255.058 410.04 254.631 409.806C254.204 409.566 253.868 409.23 253.621 408.796C253.381 408.363 253.261 407.863 253.261 407.296C253.261 406.73 253.384 406.23 253.631 405.796C253.884 405.363 254.228 405.03 254.661 404.796C255.094 404.556 255.578 404.436 256.111 404.436C256.644 404.436 257.128 404.556 257.561 404.796C257.994 405.03 258.334 405.363 258.581 405.796C258.834 406.23 258.961 406.73 258.961 407.296C258.961 407.863 258.831 408.363 258.571 408.796C258.318 409.23 257.971 409.566 257.531 409.806C257.098 410.04 256.611 410.156 256.071 410.156ZM256.071 408.936C256.324 408.936 256.561 408.876 256.781 408.756C257.008 408.63 257.188 408.443 257.321 408.196C257.454 407.95 257.521 407.65 257.521 407.296C257.521 406.77 257.381 406.366 257.101 406.086C256.828 405.8 256.491 405.656 256.091 405.656C255.691 405.656 255.354 405.8 255.081 406.086C254.814 406.366 254.681 406.77 254.681 407.296C254.681 407.823 254.811 408.23 255.071 408.516C255.338 408.796 255.671 408.936 256.071 408.936ZM263.268 410.066L261.388 407.706V410.066H259.988V402.666H261.388V406.876L263.248 404.526H265.068L262.628 407.306L265.088 410.066H263.268ZM270.978 407.176C270.978 407.376 270.964 407.556 270.938 407.716H266.888C266.921 408.116 267.061 408.43 267.308 408.656C267.554 408.883 267.858 408.996 268.218 408.996C268.738 408.996 269.108 408.773 269.328 408.326H270.838C270.678 408.86 270.371 409.3 269.918 409.646C269.464 409.986 268.908 410.156 268.248 410.156C267.714 410.156 267.234 410.04 266.808 409.806C266.388 409.566 266.058 409.23 265.818 408.796C265.584 408.363 265.468 407.863 265.468 407.296C265.468 406.723 265.584 406.22 265.818 405.786C266.051 405.353 266.378 405.02 266.798 404.786C267.218 404.553 267.701 404.436 268.248 404.436C268.774 404.436 269.244 404.55 269.658 404.776C270.078 405.003 270.401 405.326 270.628 405.746C270.861 406.16 270.978 406.636 270.978 407.176ZM269.528 406.776C269.521 406.416 269.391 406.13 269.138 405.916C268.884 405.696 268.574 405.586 268.208 405.586C267.861 405.586 267.568 405.693 267.328 405.906C267.094 406.113 266.951 406.403 266.898 406.776H269.528ZM275.07 404.446C275.73 404.446 276.263 404.656 276.67 405.076C277.076 405.49 277.28 406.07 277.28 406.816V410.066H275.88V407.006C275.88 406.566 275.77 406.23 275.55 405.996C275.33 405.756 275.03 405.636 274.65 405.636C274.263 405.636 273.956 405.756 273.73 405.996C273.51 406.23 273.4 406.566 273.4 407.006V410.066H272V404.526H273.4V405.216C273.586 404.976 273.823 404.79 274.11 404.656C274.403 404.516 274.723 404.446 275.07 404.446ZM280.731 410.156C280.278 410.156 279.871 410.076 279.511 409.916C279.151 409.75 278.864 409.526 278.651 409.246C278.444 408.966 278.331 408.656 278.311 408.316H279.721C279.748 408.53 279.851 408.706 280.031 408.846C280.218 408.986 280.448 409.056 280.721 409.056C280.988 409.056 281.194 409.003 281.341 408.896C281.494 408.79 281.571 408.653 281.571 408.486C281.571 408.306 281.478 408.173 281.291 408.086C281.111 407.993 280.821 407.893 280.421 407.786C280.008 407.686 279.668 407.583 279.401 407.476C279.141 407.37 278.914 407.206 278.721 406.986C278.534 406.766 278.441 406.47 278.441 406.096C278.441 405.79 278.528 405.51 278.701 405.256C278.881 405.003 279.134 404.803 279.461 404.656C279.794 404.51 280.184 404.436 280.631 404.436C281.291 404.436 281.818 404.603 282.211 404.936C282.604 405.263 282.821 405.706 282.861 406.266H281.521C281.501 406.046 281.408 405.873 281.241 405.746C281.081 405.613 280.864 405.546 280.591 405.546C280.338 405.546 280.141 405.593 280.001 405.686C279.868 405.78 279.801 405.91 279.801 406.076C279.801 406.263 279.894 406.406 280.081 406.506C280.268 406.6 280.558 406.696 280.951 406.796C281.351 406.896 281.681 407 281.941 407.106C282.201 407.213 282.424 407.38 282.611 407.606C282.804 407.826 282.904 408.12 282.911 408.486C282.911 408.806 282.821 409.093 282.641 409.346C282.468 409.6 282.214 409.8 281.881 409.946C281.554 410.086 281.171 410.156 280.731 410.156ZM288.863 412.036C288.216 411.41 287.713 410.61 287.353 409.636C287 408.663 286.823 407.62 286.823 406.506C286.823 405.366 287.01 404.296 287.383 403.296C287.756 402.29 288.3 401.466 289.013 400.826H290.423V400.956C289.69 401.656 289.13 402.496 288.743 403.476C288.363 404.456 288.173 405.466 288.173 406.506C288.173 407.52 288.353 408.5 288.713 409.446C289.08 410.386 289.6 411.203 290.273 411.896V412.036H288.863ZM290.966 404.066V402.776H293.376V410.066H291.936V404.066H290.966ZM294.759 406.326C294.759 405.173 294.966 404.27 295.379 403.616C295.799 402.963 296.493 402.636 297.459 402.636C298.426 402.636 299.116 402.963 299.529 403.616C299.949 404.27 300.159 405.173 300.159 406.326C300.159 407.486 299.949 408.396 299.529 409.056C299.116 409.716 298.426 410.046 297.459 410.046C296.493 410.046 295.799 409.716 295.379 409.056C294.966 408.396 294.759 407.486 294.759 406.326ZM298.779 406.326C298.779 405.833 298.746 405.42 298.679 405.086C298.619 404.746 298.493 404.47 298.299 404.256C298.113 404.043 297.833 403.936 297.459 403.936C297.086 403.936 296.803 404.043 296.609 404.256C296.423 404.47 296.296 404.746 296.229 405.086C296.169 405.42 296.139 405.833 296.139 406.326C296.139 406.833 296.169 407.26 296.229 407.606C296.289 407.946 296.416 408.223 296.609 408.436C296.803 408.643 297.086 408.746 297.459 408.746C297.833 408.746 298.116 408.643 298.309 408.436C298.503 408.223 298.629 407.946 298.689 407.606C298.749 407.26 298.779 406.833 298.779 406.326ZM301.064 404.566C301.064 404.06 301.211 403.663 301.504 403.376C301.804 403.09 302.188 402.946 302.654 402.946C303.121 402.946 303.501 403.09 303.794 403.376C304.094 403.663 304.244 404.06 304.244 404.566C304.244 405.08 304.094 405.48 303.794 405.766C303.501 406.053 303.121 406.196 302.654 406.196C302.188 406.196 301.804 406.053 301.504 405.766C301.211 405.48 301.064 405.08 301.064 404.566ZM307.484 403.066L303.554 410.066H302.194L306.114 403.066H307.484ZM302.644 403.786C302.278 403.786 302.094 404.046 302.094 404.566C302.094 405.093 302.278 405.356 302.644 405.356C302.824 405.356 302.964 405.293 303.064 405.166C303.164 405.033 303.214 404.833 303.214 404.566C303.214 404.046 303.024 403.786 302.644 403.786ZM305.454 408.556C305.454 408.043 305.601 407.646 305.894 407.366C306.194 407.08 306.578 406.936 307.044 406.936C307.511 406.936 307.888 407.08 308.174 407.366C308.468 407.646 308.614 408.043 308.614 408.556C308.614 409.07 308.468 409.47 308.174 409.756C307.888 410.043 307.511 410.186 307.044 410.186C306.571 410.186 306.188 410.043 305.894 409.756C305.601 409.47 305.454 409.07 305.454 408.556ZM307.034 407.776C306.654 407.776 306.464 408.036 306.464 408.556C306.464 409.083 306.654 409.346 307.034 409.346C307.408 409.346 307.594 409.083 307.594 408.556C307.594 408.036 307.408 407.776 307.034 407.776ZM309.315 412.036V411.896C309.989 411.203 310.505 410.386 310.865 409.446C311.232 408.5 311.415 407.52 311.415 406.506C311.415 405.466 311.222 404.456 310.835 403.476C310.455 402.496 309.899 401.656 309.165 400.956V400.826H310.575C311.289 401.466 311.832 402.29 312.205 403.296C312.579 404.296 312.765 405.366 312.765 406.506C312.765 407.62 312.585 408.663 312.225 409.636C311.872 410.61 311.372 411.41 310.725 412.036H309.315Z" fill="black"/>
<mask id="path-17-outside-1_0_435" maskUnits="userSpaceOnUse" x="67" y="44" width="204" height="204" fill="black">
<rect fill="white" x="67" y="44" width="204" height="204"/>
<path d="M266 146C266 199.572 222.572 243 169 243C115.428 243 72 199.572 72 146C72 92.4284 115.428 49 169 49C222.572 49 266 92.4284 266 146ZM118.075 146C118.075 174.125 140.875 196.925 169 196.925C197.125 196.925 219.925 174.125 219.925 146C219.925 117.875 197.125 95.075 169 95.075C140.875 95.075 118.075 117.875 118.075 146Z"/>
</mask>
<path d="M266 146C266 199.572 222.572 243 169 243C115.428 243 72 199.572 72 146C72 92.4284 115.428 49 169 49C222.572 49 266 92.4284 266 146ZM118.075 146C118.075 174.125 140.875 196.925 169 196.925C197.125 196.925 219.925 174.125 219.925 146C219.925 117.875 197.125 95.075 169 95.075C140.875 95.075 118.075 117.875 118.075 146Z" fill="#F0CECE"/>
<path d="M266 146C266 199.572 222.572 243 169 243C115.428 243 72 199.572 72 146C72 92.4284 115.428 49 169 49C222.572 49 266 92.4284 266 146ZM118.075 146C118.075 174.125 140.875 196.925 169 196.925C197.125 196.925 219.925 174.125 219.925 146C219.925 117.875 197.125 95.075 169 95.075C140.875 95.075 118.075 117.875 118.075 146Z" stroke="white" stroke-width="10" mask="url(#path-17-outside-1_0_435)"/>
<path d="M169 46.5H166.5V49V95.075V97.575H169C180.53 97.575 191.682 101.689 200.45 109.177C209.217 116.666 215.025 127.036 216.829 138.425C218.633 149.813 216.314 161.471 210.289 171.302C204.265 181.133 194.93 188.492 183.964 192.055C172.998 195.618 161.121 195.151 150.469 190.739C139.816 186.326 131.088 178.258 125.853 167.984C120.619 157.711 119.221 145.907 121.913 134.695C124.605 123.484 131.209 113.601 140.537 106.823L142.559 105.354L141.09 103.331L114.008 66.0559L112.538 64.0333L110.516 65.5028C91.3489 79.4281 77.78 99.7355 72.2493 122.772C66.7187 145.809 69.5894 170.063 80.345 191.172C91.1006 212.281 109.035 228.86 130.923 237.926C152.811 246.992 177.216 247.951 199.747 240.63C222.279 233.309 241.459 218.189 253.838 197.989C266.216 177.788 270.981 153.834 267.275 130.435C263.569 107.035 251.635 85.7259 233.62 70.3396C215.605 54.9534 192.691 46.5 169 46.5Z" fill="#62C0BB" stroke="white" stroke-width="5"/>
<mask id="path-19-outside-2_0_435" maskUnits="userSpaceOnUse" x="70" y="44" width="201" height="204" fill="black">
<rect fill="white" x="70" y="44" width="201" height="204"/>
<path d="M169 49C186.889 49 204.43 53.9469 219.682 63.2939C234.935 72.6409 247.306 86.0237 255.428 101.963C263.549 117.902 267.105 135.777 265.701 153.611C264.297 171.444 257.99 188.543 247.475 203.015C236.96 217.488 222.648 228.77 206.12 235.616C189.593 242.462 171.495 244.604 153.826 241.806C136.157 239.007 119.606 231.377 106.004 219.759C92.4007 208.141 82.2755 192.988 76.7475 175.975L120.567 161.737C123.47 170.669 128.785 178.624 135.927 184.724C143.068 190.823 151.757 194.829 161.034 196.298C170.31 197.767 179.811 196.643 188.488 193.049C197.165 189.454 204.679 183.531 210.199 175.933C215.719 168.335 219.031 159.358 219.768 149.996C220.505 140.633 218.638 131.249 214.374 122.881C210.111 114.512 203.616 107.486 195.608 102.579C187.6 97.6721 178.392 95.075 169 95.075V49Z"/>
</mask>
<path d="M169 49C186.889 49 204.43 53.9469 219.682 63.2939C234.935 72.6409 247.306 86.0237 255.428 101.963C263.549 117.902 267.105 135.777 265.701 153.611C264.297 171.444 257.99 188.543 247.475 203.015C236.96 217.488 222.648 228.77 206.12 235.616C189.593 242.462 171.495 244.604 153.826 241.806C136.157 239.007 119.606 231.377 106.004 219.759C92.4007 208.141 82.2755 192.988 76.7475 175.975L120.567 161.737C123.47 170.669 128.785 178.624 135.927 184.724C143.068 190.823 151.757 194.829 161.034 196.298C170.31 197.767 179.811 196.643 188.488 193.049C197.165 189.454 204.679 183.531 210.199 175.933C215.719 168.335 219.031 159.358 219.768 149.996C220.505 140.633 218.638 131.249 214.374 122.881C210.111 114.512 203.616 107.486 195.608 102.579C187.6 97.6721 178.392 95.075 169 95.075V49Z" fill="#FFBB78"/>
<path d="M169 49C186.889 49 204.43 53.9469 219.682 63.2939C234.935 72.6409 247.306 86.0237 255.428 101.963C263.549 117.902 267.105 135.777 265.701 153.611C264.297 171.444 257.99 188.543 247.475 203.015C236.96 217.488 222.648 228.77 206.12 235.616C189.593 242.462 171.495 244.604 153.826 241.806C136.157 239.007 119.606 231.377 106.004 219.759C92.4007 208.141 82.2755 192.988 76.7475 175.975L120.567 161.737C123.47 170.669 128.785 178.624 135.927 184.724C143.068 190.823 151.757 194.829 161.034 196.298C170.31 197.767 179.811 196.643 188.488 193.049C197.165 189.454 204.679 183.531 210.199 175.933C215.719 168.335 219.031 159.358 219.768 149.996C220.505 140.633 218.638 131.249 214.374 122.881C210.111 114.512 203.616 107.486 195.608 102.579C187.6 97.6721 178.392 95.075 169 95.075V49Z" stroke="white" stroke-width="10" mask="url(#path-19-outside-2_0_435)"/>
<mask id="path-20-outside-3_0_435" maskUnits="userSpaceOnUse" x="164" y="44" width="108" height="201" fill="black">
<rect fill="white" x="164" y="44" width="108" height="201"/>
<path d="M169 49C192.143 49 214.523 57.2742 232.1 72.3288C249.676 87.3833 261.291 108.226 264.848 131.094C268.404 153.962 263.667 177.347 251.493 197.029C239.318 216.71 220.508 231.39 198.458 238.419L184.466 194.52C196.042 190.83 205.917 183.123 212.309 172.79C218.7 162.457 221.187 150.18 219.32 138.174C217.453 126.169 211.355 115.226 202.127 107.323C192.899 99.419 181.15 95.075 169 95.075V49Z"/>
</mask>
<path d="M169 49C192.143 49 214.523 57.2742 232.1 72.3288C249.676 87.3833 261.291 108.226 264.848 131.094C268.404 153.962 263.667 177.347 251.493 197.029C239.318 216.71 220.508 231.39 198.458 238.419L184.466 194.52C196.042 190.83 205.917 183.123 212.309 172.79C218.7 162.457 221.187 150.18 219.32 138.174C217.453 126.169 211.355 115.226 202.127 107.323C192.899 99.419 181.15 95.075 169 95.075V49Z" fill="#AEC7E8"/>
<path d="M169 49C192.143 49 214.523 57.2742 232.1 72.3288C249.676 87.3833 261.291 108.226 264.848 131.094C268.404 153.962 263.667 177.347 251.493 197.029C239.318 216.71 220.508 231.39 198.458 238.419L184.466 194.52C196.042 190.83 205.917 183.123 212.309 172.79C218.7 162.457 221.187 150.18 219.32 138.174C217.453 126.169 211.355 115.226 202.127 107.323C192.899 99.419 181.15 95.075 169 95.075V49Z" stroke="white" stroke-width="10" mask="url(#path-20-outside-3_0_435)"/>
<mask id="path-21-outside-4_0_435" maskUnits="userSpaceOnUse" x="164" y="44" width="107" height="188" fill="black">
<rect fill="white" x="164" y="44" width="107" height="188"/>
<path d="M169 49C189.481 49 209.437 55.4828 226.007 67.5196C242.578 79.5564 254.914 96.5295 261.246 116.007C267.579 135.484 267.585 156.466 261.261 175.947C254.938 195.427 242.611 212.407 226.047 224.452L198.949 187.187C207.646 180.863 214.118 171.949 217.437 161.722C220.757 151.495 220.754 140.479 217.429 130.254C214.105 120.028 207.628 111.117 198.929 104.798C190.229 98.4785 179.753 95.075 169 95.075V49Z"/>
</mask>
<path d="M169 49C189.481 49 209.437 55.4828 226.007 67.5196C242.578 79.5564 254.914 96.5295 261.246 116.007C267.579 135.484 267.585 156.466 261.261 175.947C254.938 195.427 242.611 212.407 226.047 224.452L198.949 187.187C207.646 180.863 214.118 171.949 217.437 161.722C220.757 151.495 220.754 140.479 217.429 130.254C214.105 120.028 207.628 111.117 198.929 104.798C190.229 98.4785 179.753 95.075 169 95.075V49Z" fill="#E7EBB8"/>
<path d="M169 49C189.481 49 209.437 55.4828 226.007 67.5196C242.578 79.5564 254.914 96.5295 261.246 116.007C267.579 135.484 267.585 156.466 261.261 175.947C254.938 195.427 242.611 212.407 226.047 224.452L198.949 187.187C207.646 180.863 214.118 171.949 217.437 161.722C220.757 151.495 220.754 140.479 217.429 130.254C214.105 120.028 207.628 111.117 198.929 104.798C190.229 98.4785 179.753 95.075 169 95.075V49Z" stroke="white" stroke-width="10" mask="url(#path-21-outside-4_0_435)"/>
<path d="M151.454 153.227V153.967H149.554V160.197H148.644V153.967H146.734V153.227H151.454ZM154.964 160.287C154.451 160.287 153.984 160.17 153.564 159.937C153.151 159.704 152.824 159.374 152.584 158.947C152.351 158.514 152.234 158.014 152.234 157.447C152.234 156.887 152.354 156.394 152.594 155.967C152.841 155.534 153.174 155.204 153.594 154.977C154.014 154.744 154.484 154.627 155.004 154.627C155.524 154.627 155.994 154.744 156.414 154.977C156.834 155.204 157.164 155.53 157.404 155.957C157.651 156.384 157.774 156.88 157.774 157.447C157.774 158.014 157.647 158.514 157.394 158.947C157.147 159.374 156.811 159.704 156.384 159.937C155.957 160.17 155.484 160.287 154.964 160.287ZM154.964 159.487C155.291 159.487 155.597 159.41 155.884 159.257C156.171 159.104 156.401 158.874 156.574 158.567C156.754 158.26 156.844 157.887 156.844 157.447C156.844 157.007 156.757 156.634 156.584 156.327C156.411 156.02 156.184 155.794 155.904 155.647C155.624 155.494 155.321 155.417 154.994 155.417C154.661 155.417 154.354 155.494 154.074 155.647C153.801 155.794 153.581 156.02 153.414 156.327C153.247 156.634 153.164 157.007 153.164 157.447C153.164 157.894 153.244 158.27 153.404 158.577C153.571 158.884 153.791 159.114 154.064 159.267C154.337 159.414 154.637 159.487 154.964 159.487ZM162.03 160.197L159.88 157.777V160.197H158.97V152.797H159.88V157.147L161.99 154.717H163.26L160.68 157.447L163.27 160.197H162.03ZM169.117 157.247C169.117 157.42 169.107 157.604 169.087 157.797H164.707C164.74 158.337 164.924 158.76 165.257 159.067C165.597 159.367 166.007 159.517 166.487 159.517C166.88 159.517 167.207 159.427 167.467 159.247C167.734 159.06 167.92 158.814 168.027 158.507H169.007C168.86 159.034 168.567 159.464 168.127 159.797C167.687 160.124 167.14 160.287 166.487 160.287C165.967 160.287 165.5 160.17 165.087 159.937C164.68 159.704 164.36 159.374 164.127 158.947C163.894 158.514 163.777 158.014 163.777 157.447C163.777 156.88 163.89 156.384 164.117 155.957C164.344 155.53 164.66 155.204 165.067 154.977C165.48 154.744 165.954 154.627 166.487 154.627C167.007 154.627 167.467 154.74 167.867 154.967C168.267 155.194 168.574 155.507 168.787 155.907C169.007 156.3 169.117 156.747 169.117 157.247ZM168.177 157.057C168.177 156.71 168.1 156.414 167.947 156.167C167.794 155.914 167.584 155.724 167.317 155.597C167.057 155.464 166.767 155.397 166.447 155.397C165.987 155.397 165.594 155.544 165.267 155.837C164.947 156.13 164.764 156.537 164.717 157.057H168.177ZM172.988 154.617C173.655 154.617 174.195 154.82 174.608 155.227C175.021 155.627 175.228 156.207 175.228 156.967V160.197H174.328V157.097C174.328 156.55 174.191 156.134 173.918 155.847C173.645 155.554 173.271 155.407 172.798 155.407C172.318 155.407 171.935 155.557 171.648 155.857C171.368 156.157 171.228 156.594 171.228 157.167V160.197H170.318V154.717H171.228V155.497C171.408 155.217 171.651 155 171.958 154.847C172.271 154.694 172.615 154.617 172.988 154.617ZM178.655 160.287C178.235 160.287 177.858 160.217 177.525 160.077C177.191 159.93 176.928 159.73 176.735 159.477C176.541 159.217 176.435 158.92 176.415 158.587H177.355C177.381 158.86 177.508 159.084 177.735 159.257C177.968 159.43 178.271 159.517 178.645 159.517C178.991 159.517 179.265 159.44 179.465 159.287C179.665 159.134 179.765 158.94 179.765 158.707C179.765 158.467 179.658 158.29 179.445 158.177C179.231 158.057 178.901 157.94 178.455 157.827C178.048 157.72 177.715 157.614 177.455 157.507C177.201 157.394 176.981 157.23 176.795 157.017C176.615 156.797 176.525 156.51 176.525 156.157C176.525 155.877 176.608 155.62 176.775 155.387C176.941 155.154 177.178 154.97 177.485 154.837C177.791 154.697 178.141 154.627 178.535 154.627C179.141 154.627 179.631 154.78 180.005 155.087C180.378 155.394 180.578 155.814 180.605 156.347H179.695C179.675 156.06 179.558 155.83 179.345 155.657C179.138 155.484 178.858 155.397 178.505 155.397C178.178 155.397 177.918 155.467 177.725 155.607C177.531 155.747 177.435 155.93 177.435 156.157C177.435 156.337 177.491 156.487 177.605 156.607C177.725 156.72 177.871 156.814 178.045 156.887C178.225 156.954 178.471 157.03 178.785 157.117C179.178 157.224 179.498 157.33 179.745 157.437C179.991 157.537 180.201 157.69 180.375 157.897C180.555 158.104 180.648 158.374 180.655 158.707C180.655 159.007 180.571 159.277 180.405 159.517C180.238 159.757 180.001 159.947 179.695 160.087C179.395 160.22 179.048 160.287 178.655 160.287ZM189.465 154.717V160.197H188.555V159.387C188.382 159.667 188.139 159.887 187.825 160.047C187.519 160.2 187.179 160.277 186.805 160.277C186.379 160.277 185.995 160.19 185.655 160.017C185.315 159.837 185.045 159.57 184.845 159.217C184.652 158.864 184.555 158.434 184.555 157.927V154.717H185.455V157.807C185.455 158.347 185.592 158.764 185.865 159.057C186.139 159.344 186.512 159.487 186.985 159.487C187.472 159.487 187.855 159.337 188.135 159.037C188.415 158.737 188.555 158.3 188.555 157.727V154.717H189.465ZM192.942 160.287C192.522 160.287 192.145 160.217 191.812 160.077C191.478 159.93 191.215 159.73 191.022 159.477C190.828 159.217 190.722 158.92 190.702 158.587H191.642C191.668 158.86 191.795 159.084 192.022 159.257C192.255 159.43 192.558 159.517 192.932 159.517C193.278 159.517 193.552 159.44 193.752 159.287C193.952 159.134 194.052 158.94 194.052 158.707C194.052 158.467 193.945 158.29 193.732 158.177C193.518 158.057 193.188 157.94 192.742 157.827C192.335 157.72 192.002 157.614 191.742 157.507C191.488 157.394 191.268 157.23 191.082 157.017C190.902 156.797 190.812 156.51 190.812 156.157C190.812 155.877 190.895 155.62 191.062 155.387C191.228 155.154 191.465 154.97 191.772 154.837C192.078 154.697 192.428 154.627 192.822 154.627C193.428 154.627 193.918 154.78 194.292 155.087C194.665 155.394 194.865 155.814 194.892 156.347H193.982C193.962 156.06 193.845 155.83 193.632 155.657C193.425 155.484 193.145 155.397 192.792 155.397C192.465 155.397 192.205 155.467 192.012 155.607C191.818 155.747 191.722 155.93 191.722 156.157C191.722 156.337 191.778 156.487 191.892 156.607C192.012 156.72 192.158 156.814 192.332 156.887C192.512 156.954 192.758 157.03 193.072 157.117C193.465 157.224 193.785 157.33 194.032 157.437C194.278 157.537 194.488 157.69 194.662 157.897C194.842 158.104 194.935 158.374 194.942 158.707C194.942 159.007 194.858 159.277 194.692 159.517C194.525 159.757 194.288 159.947 193.982 160.087C193.682 160.22 193.335 160.287 192.942 160.287ZM201.226 157.247C201.226 157.42 201.216 157.604 201.196 157.797H196.816C196.85 158.337 197.033 158.76 197.366 159.067C197.706 159.367 198.116 159.517 198.596 159.517C198.99 159.517 199.316 159.427 199.576 159.247C199.843 159.06 200.03 158.814 200.136 158.507H201.116C200.97 159.034 200.676 159.464 200.236 159.797C199.796 160.124 199.25 160.287 198.596 160.287C198.076 160.287 197.61 160.17 197.196 159.937C196.79 159.704 196.47 159.374 196.236 158.947C196.003 158.514 195.886 158.014 195.886 157.447C195.886 156.88 196 156.384 196.226 155.957C196.453 155.53 196.77 155.204 197.176 154.977C197.59 154.744 198.063 154.627 198.596 154.627C199.116 154.627 199.576 154.74 199.976 154.967C200.376 155.194 200.683 155.507 200.896 155.907C201.116 156.3 201.226 156.747 201.226 157.247ZM200.286 157.057C200.286 156.71 200.21 156.414 200.056 156.167C199.903 155.914 199.693 155.724 199.426 155.597C199.166 155.464 198.876 155.397 198.556 155.397C198.096 155.397 197.703 155.544 197.376 155.837C197.056 156.13 196.873 156.537 196.826 157.057H200.286ZM202.087 157.437C202.087 156.877 202.201 156.387 202.427 155.967C202.654 155.54 202.964 155.21 203.357 154.977C203.757 154.744 204.204 154.627 204.697 154.627C205.124 154.627 205.521 154.727 205.887 154.927C206.254 155.12 206.534 155.377 206.727 155.697V152.797H207.647V160.197H206.727V159.167C206.547 159.494 206.281 159.764 205.927 159.977C205.574 160.184 205.161 160.287 204.687 160.287C204.201 160.287 203.757 160.167 203.357 159.927C202.964 159.687 202.654 159.35 202.427 158.917C202.201 158.484 202.087 157.99 202.087 157.437ZM206.727 157.447C206.727 157.034 206.644 156.674 206.477 156.367C206.311 156.06 206.084 155.827 205.797 155.667C205.517 155.5 205.207 155.417 204.867 155.417C204.527 155.417 204.217 155.497 203.937 155.657C203.657 155.817 203.434 156.05 203.267 156.357C203.101 156.664 203.017 157.024 203.017 157.437C203.017 157.857 203.101 158.224 203.267 158.537C203.434 158.844 203.657 159.08 203.937 159.247C204.217 159.407 204.527 159.487 204.867 159.487C205.207 159.487 205.517 159.407 205.797 159.247C206.084 159.08 206.311 158.844 206.477 158.537C206.644 158.224 206.727 157.86 206.727 157.447Z" fill="#464255"/>
<path d="M150.372 147.91C151.652 146.844 152.672 145.957 153.432 145.25C154.192 144.53 154.825 143.784 155.332 143.01C155.839 142.237 156.092 141.477 156.092 140.73C156.092 140.05 155.932 139.517 155.612 139.13C155.292 138.744 154.799 138.55 154.132 138.55C153.465 138.55 152.952 138.777 152.592 139.23C152.232 139.67 152.045 140.277 152.032 141.05H149.312C149.365 139.45 149.839 138.237 150.732 137.41C151.639 136.584 152.785 136.17 154.172 136.17C155.692 136.17 156.859 136.577 157.672 137.39C158.485 138.19 158.892 139.25 158.892 140.57C158.892 141.61 158.612 142.604 158.052 143.55C157.492 144.497 156.852 145.324 156.132 146.03C155.412 146.724 154.472 147.564 153.312 148.55H159.212V150.87H149.332V148.79L150.372 147.91ZM160.977 143.59C160.977 141.284 161.39 139.477 162.217 138.17C163.057 136.864 164.443 136.21 166.377 136.21C168.31 136.21 169.69 136.864 170.517 138.17C171.357 139.477 171.777 141.284 171.777 143.59C171.777 145.91 171.357 147.73 170.517 149.05C169.69 150.37 168.31 151.03 166.377 151.03C164.443 151.03 163.057 150.37 162.217 149.05C161.39 147.73 160.977 145.91 160.977 143.59ZM169.017 143.59C169.017 142.604 168.95 141.777 168.817 141.11C168.697 140.43 168.443 139.877 168.057 139.45C167.683 139.024 167.123 138.81 166.377 138.81C165.63 138.81 165.063 139.024 164.677 139.45C164.303 139.877 164.05 140.43 163.917 141.11C163.797 141.777 163.737 142.604 163.737 143.59C163.737 144.604 163.797 145.457 163.917 146.15C164.037 146.83 164.29 147.384 164.677 147.81C165.063 148.224 165.63 148.43 166.377 148.43C167.123 148.43 167.69 148.224 168.077 147.81C168.463 147.384 168.717 146.83 168.837 146.15C168.957 145.457 169.017 144.604 169.017 143.59ZM180.786 151.07L177.026 146.35V151.07H174.226V136.27H177.026V144.69L180.746 139.99H184.386L179.506 145.55L184.426 151.07H180.786Z" fill="#464255"/>
<path d="M76.14 17.04V25.68C76.14 26.6267 76.3867 27.3533 76.88 27.86C77.3733 28.3533 78.0667 28.6 78.96 28.6C79.8667 28.6 80.5667 28.3533 81.06 27.86C81.5533 27.3533 81.8 26.6267 81.8 25.68V17.04H84.62V25.66C84.62 26.8467 84.36 27.8533 83.84 28.68C83.3333 29.4933 82.6467 30.1067 81.78 30.52C80.9267 30.9333 79.9733 31.14 78.92 31.14C77.88 31.14 76.9333 30.9333 76.08 30.52C75.24 30.1067 74.5733 29.4933 74.08 28.68C73.5867 27.8533 73.34 26.8467 73.34 25.66V17.04H76.14ZM91.5653 31.18C90.6586 31.18 89.8453 31.02 89.1253 30.7C88.4053 30.3667 87.832 29.92 87.4053 29.36C86.992 28.8 86.7653 28.18 86.7253 27.5H89.5453C89.5986 27.9267 89.8053 28.28 90.1653 28.56C90.5386 28.84 90.9986 28.98 91.5453 28.98C92.0786 28.98 92.492 28.8733 92.7853 28.66C93.092 28.4467 93.2453 28.1733 93.2453 27.84C93.2453 27.48 93.0586 27.2133 92.6853 27.04C92.3253 26.8533 91.7453 26.6533 90.9453 26.44C90.1186 26.24 89.4386 26.0333 88.9053 25.82C88.3853 25.6067 87.932 25.28 87.5453 24.84C87.172 24.4 86.9853 23.8067 86.9853 23.06C86.9853 22.4467 87.1586 21.8867 87.5053 21.38C87.8653 20.8733 88.372 20.4733 89.0253 20.18C89.692 19.8867 90.472 19.74 91.3653 19.74C92.6853 19.74 93.7386 20.0733 94.5253 20.74C95.312 21.3933 95.7453 22.28 95.8253 23.4H93.1453C93.1053 22.96 92.9186 22.6133 92.5853 22.36C92.2653 22.0933 91.832 21.96 91.2853 21.96C90.7786 21.96 90.3853 22.0533 90.1053 22.24C89.8386 22.4267 89.7053 22.6867 89.7053 23.02C89.7053 23.3933 89.892 23.68 90.2653 23.88C90.6386 24.0667 91.2186 24.26 92.0053 24.46C92.8053 24.66 93.4653 24.8667 93.9853 25.08C94.5053 25.2933 94.952 25.6267 95.3253 26.08C95.712 26.52 95.912 27.1067 95.9253 27.84C95.9253 28.48 95.7453 29.0533 95.3853 29.56C95.0386 30.0667 94.532 30.4667 93.8653 30.76C93.212 31.04 92.4453 31.18 91.5653 31.18ZM97.5037 25.42C97.5037 24.3 97.7237 23.3067 98.1637 22.44C98.6171 21.5733 99.2238 20.9067 99.9838 20.44C100.757 19.9733 101.617 19.74 102.564 19.74C103.39 19.74 104.11 19.9067 104.724 20.24C105.35 20.5733 105.85 20.9933 106.224 21.5V19.92H109.044V31H106.224V29.38C105.864 29.9 105.364 30.3333 104.724 30.68C104.097 31.0133 103.37 31.18 102.544 31.18C101.61 31.18 100.757 30.94 99.9838 30.46C99.2238 29.98 98.6171 29.3067 98.1637 28.44C97.7237 27.56 97.5037 26.5533 97.5037 25.42ZM106.224 25.46C106.224 24.78 106.09 24.2 105.824 23.72C105.557 23.2267 105.197 22.8533 104.744 22.6C104.29 22.3333 103.804 22.2 103.284 22.2C102.764 22.2 102.284 22.3267 101.844 22.58C101.404 22.8333 101.044 23.2067 100.764 23.7C100.497 24.18 100.364 24.7533 100.364 25.42C100.364 26.0867 100.497 26.6733 100.764 27.18C101.044 27.6733 101.404 28.0533 101.844 28.32C102.297 28.5867 102.777 28.72 103.284 28.72C103.804 28.72 104.29 28.5933 104.744 28.34C105.197 28.0733 105.557 27.7 105.824 27.22C106.09 26.7267 106.224 26.14 106.224 25.46ZM116.118 19.74C116.945 19.74 117.672 19.9067 118.298 20.24C118.925 20.56 119.418 20.98 119.778 21.5V19.92H122.598V31.08C122.598 32.1067 122.392 33.02 121.978 33.82C121.565 34.6333 120.945 35.2733 120.118 35.74C119.292 36.22 118.292 36.46 117.118 36.46C115.545 36.46 114.252 36.0933 113.238 35.36C112.238 34.6267 111.672 33.6267 111.538 32.36H114.318C114.465 32.8667 114.778 33.2667 115.258 33.56C115.752 33.8667 116.345 34.02 117.038 34.02C117.852 34.02 118.512 33.7733 119.018 33.28C119.525 32.8 119.778 32.0667 119.778 31.08V29.36C119.418 29.88 118.918 30.3133 118.278 30.66C117.652 31.0067 116.932 31.18 116.118 31.18C115.185 31.18 114.332 30.94 113.558 30.46C112.785 29.98 112.172 29.3067 111.718 28.44C111.278 27.56 111.058 26.5533 111.058 25.42C111.058 24.3 111.278 23.3067 111.718 22.44C112.172 21.5733 112.778 20.9067 113.538 20.44C114.312 19.9733 115.172 19.74 116.118 19.74ZM119.778 25.46C119.778 24.78 119.645 24.2 119.378 23.72C119.112 23.2267 118.752 22.8533 118.298 22.6C117.845 22.3333 117.358 22.2 116.838 22.2C116.318 22.2 115.838 22.3267 115.398 22.58C114.958 22.8333 114.598 23.2067 114.318 23.7C114.052 24.18 113.918 24.7533 113.918 25.42C113.918 26.0867 114.052 26.6733 114.318 27.18C114.598 27.6733 114.958 28.0533 115.398 28.32C115.852 28.5867 116.332 28.72 116.838 28.72C117.358 28.72 117.845 28.5933 118.298 28.34C118.752 28.0733 119.112 27.7 119.378 27.22C119.645 26.7267 119.778 26.14 119.778 25.46ZM135.633 25.22C135.633 25.62 135.606 25.98 135.553 26.3H127.453C127.52 27.1 127.8 27.7267 128.293 28.18C128.786 28.6333 129.393 28.86 130.113 28.86C131.153 28.86 131.893 28.4133 132.333 27.52H135.353C135.033 28.5867 134.42 29.4667 133.513 30.16C132.606 30.84 131.493 31.18 130.173 31.18C129.106 31.18 128.146 30.9467 127.293 30.48C126.453 30 125.793 29.3267 125.313 28.46C124.846 27.5933 124.613 26.5933 124.613 25.46C124.613 24.3133 124.846 23.3067 125.313 22.44C125.78 21.5733 126.433 20.9067 127.273 20.44C128.113 19.9733 129.08 19.74 130.173 19.74C131.226 19.74 132.166 19.9667 132.993 20.42C133.833 20.8733 134.48 21.52 134.933 22.36C135.4 23.1867 135.633 24.14 135.633 25.22ZM132.733 24.42C132.72 23.7 132.46 23.1267 131.953 22.7C131.446 22.26 130.826 22.04 130.093 22.04C129.4 22.04 128.813 22.2533 128.333 22.68C127.866 23.0933 127.58 23.6733 127.473 24.42H132.733ZM147.323 17.04C148.789 17.04 150.076 17.3267 151.183 17.9C152.303 18.4733 153.163 19.2933 153.763 20.36C154.376 21.4133 154.683 22.64 154.683 24.04C154.683 25.44 154.376 26.6667 153.763 27.72C153.163 28.76 152.303 29.5667 151.183 30.14C150.076 30.7133 148.789 31 147.323 31H142.443V17.04H147.323ZM147.223 28.62C148.689 28.62 149.823 28.22 150.623 27.42C151.423 26.62 151.823 25.4933 151.823 24.04C151.823 22.5867 151.423 21.4533 150.623 20.64C149.823 19.8133 148.689 19.4 147.223 19.4H145.243V28.62H147.223ZM158.198 18.6C157.705 18.6 157.292 18.4467 156.958 18.14C156.638 17.82 156.478 17.4267 156.478 16.96C156.478 16.4933 156.638 16.1067 156.958 15.8C157.292 15.48 157.705 15.32 158.198 15.32C158.692 15.32 159.098 15.48 159.418 15.8C159.752 16.1067 159.918 16.4933 159.918 16.96C159.918 17.4267 159.752 17.82 159.418 18.14C159.098 18.4467 158.692 18.6 158.198 18.6ZM159.578 19.92V31H156.778V19.92H159.578ZM166.585 31.18C165.678 31.18 164.865 31.02 164.145 30.7C163.425 30.3667 162.852 29.92 162.425 29.36C162.012 28.8 161.785 28.18 161.745 27.5H164.565C164.618 27.9267 164.825 28.28 165.185 28.56C165.558 28.84 166.018 28.98 166.565 28.98C167.098 28.98 167.512 28.8733 167.805 28.66C168.112 28.4467 168.265 28.1733 168.265 27.84C168.265 27.48 168.078 27.2133 167.705 27.04C167.345 26.8533 166.765 26.6533 165.965 26.44C165.138 26.24 164.458 26.0333 163.925 25.82C163.405 25.6067 162.952 25.28 162.565 24.84C162.192 24.4 162.005 23.8067 162.005 23.06C162.005 22.4467 162.178 21.8867 162.525 21.38C162.885 20.8733 163.392 20.4733 164.045 20.18C164.712 19.8867 165.492 19.74 166.385 19.74C167.705 19.74 168.758 20.0733 169.545 20.74C170.332 21.3933 170.765 22.28 170.845 23.4H168.165C168.125 22.96 167.938 22.6133 167.605 22.36C167.285 22.0933 166.852 21.96 166.305 21.96C165.798 21.96 165.405 22.0533 165.125 22.24C164.858 22.4267 164.725 22.6867 164.725 23.02C164.725 23.3933 164.912 23.68 165.285 23.88C165.658 24.0667 166.238 24.26 167.025 24.46C167.825 24.66 168.485 24.8667 169.005 25.08C169.525 25.2933 169.972 25.6267 170.345 26.08C170.732 26.52 170.932 27.1067 170.945 27.84C170.945 28.48 170.765 29.0533 170.405 29.56C170.058 30.0667 169.552 30.4667 168.885 30.76C168.232 31.04 167.465 31.18 166.585 31.18ZM176.503 22.22V27.58C176.503 27.9533 176.59 28.2267 176.763 28.4C176.95 28.56 177.257 28.64 177.683 28.64H178.983V31H177.223C174.863 31 173.683 29.8533 173.683 27.56V22.22H172.363V19.92H173.683V17.18H176.503V19.92H178.983V22.22H176.503ZM183.797 21.64C184.157 21.0533 184.624 20.5933 185.197 20.26C185.784 19.9267 186.451 19.76 187.197 19.76V22.7H186.457C185.577 22.7 184.911 22.9067 184.457 23.32C184.017 23.7333 183.797 24.4533 183.797 25.48V31H180.997V19.92H183.797V21.64ZM190.503 18.6C190.01 18.6 189.596 18.4467 189.263 18.14C188.943 17.82 188.783 17.4267 188.783 16.96C188.783 16.4933 188.943 16.1067 189.263 15.8C189.596 15.48 190.01 15.32 190.503 15.32C190.996 15.32 191.403 15.48 191.723 15.8C192.056 16.1067 192.223 16.4933 192.223 16.96C192.223 17.4267 192.056 17.82 191.723 18.14C191.403 18.4467 190.996 18.6 190.503 18.6ZM191.883 19.92V31H189.083V19.92H191.883ZM197.45 21.54C197.81 21.0067 198.303 20.5733 198.93 20.24C199.57 19.9067 200.296 19.74 201.11 19.74C202.056 19.74 202.91 19.9733 203.67 20.44C204.443 20.9067 205.05 21.5733 205.49 22.44C205.943 23.2933 206.17 24.2867 206.17 25.42C206.17 26.5533 205.943 27.56 205.49 28.44C205.05 29.3067 204.443 29.98 203.67 30.46C202.91 30.94 202.056 31.18 201.11 31.18C200.283 31.18 199.556 31.02 198.93 30.7C198.316 30.3667 197.823 29.94 197.45 29.42V31H194.65V16.2H197.45V21.54ZM203.31 25.42C203.31 24.7533 203.17 24.18 202.89 23.7C202.623 23.2067 202.263 22.8333 201.81 22.58C201.37 22.3267 200.89 22.2 200.37 22.2C199.863 22.2 199.383 22.3333 198.93 22.6C198.49 22.8533 198.13 23.2267 197.85 23.72C197.583 24.2133 197.45 24.7933 197.45 25.46C197.45 26.1267 197.583 26.7067 197.85 27.2C198.13 27.6933 198.49 28.0733 198.93 28.34C199.383 28.5933 199.863 28.72 200.37 28.72C200.89 28.72 201.37 28.5867 201.81 28.32C202.263 28.0533 202.623 27.6733 202.89 27.18C203.17 26.6867 203.31 26.1 203.31 25.42ZM218.664 19.92V31H215.844V29.6C215.484 30.08 215.011 30.46 214.424 30.74C213.851 31.0067 213.224 31.14 212.544 31.14C211.678 31.14 210.911 30.96 210.244 30.6C209.578 30.2267 209.051 29.6867 208.664 28.98C208.291 28.26 208.104 27.4067 208.104 26.42V19.92H210.904V26.02C210.904 26.9 211.124 27.58 211.564 28.06C212.004 28.5267 212.604 28.76 213.364 28.76C214.138 28.76 214.744 28.5267 215.184 28.06C215.624 27.58 215.844 26.9 215.844 26.02V19.92H218.664ZM224.687 22.22V27.58C224.687 27.9533 224.774 28.2267 224.947 28.4C225.134 28.56 225.44 28.64 225.867 28.64H227.167V31H225.407C223.047 31 221.867 29.8533 221.867 27.56V22.22H220.547V19.92H221.867V17.18H224.687V19.92H227.167V22.22H224.687ZM230.601 18.6C230.107 18.6 229.694 18.4467 229.361 18.14C229.041 17.82 228.881 17.4267 228.881 16.96C228.881 16.4933 229.041 16.1067 229.361 15.8C229.694 15.48 230.107 15.32 230.601 15.32C231.094 15.32 231.501 15.48 231.821 15.8C232.154 16.1067 232.321 16.4933 232.321 16.96C232.321 17.4267 232.154 17.82 231.821 18.14C231.501 18.4467 231.094 18.6 230.601 18.6ZM231.981 19.92V31H229.181V19.92H231.981ZM239.667 31.18C238.601 31.18 237.641 30.9467 236.787 30.48C235.934 30 235.261 29.3267 234.767 28.46C234.287 27.5933 234.047 26.5933 234.047 25.46C234.047 24.3267 234.294 23.3267 234.787 22.46C235.294 21.5933 235.981 20.9267 236.847 20.46C237.714 19.98 238.681 19.74 239.747 19.74C240.814 19.74 241.781 19.98 242.647 20.46C243.514 20.9267 244.194 21.5933 244.687 22.46C245.194 23.3267 245.447 24.3267 245.447 25.46C245.447 26.5933 245.187 27.5933 244.667 28.46C244.161 29.3267 243.467 30 242.587 30.48C241.721 30.9467 240.747 31.18 239.667 31.18ZM239.667 28.74C240.174 28.74 240.647 28.62 241.087 28.38C241.541 28.1267 241.901 27.7533 242.167 27.26C242.434 26.7667 242.567 26.1667 242.567 25.46C242.567 24.4067 242.287 23.6 241.727 23.04C241.181 22.4667 240.507 22.18 239.707 22.18C238.907 22.18 238.234 22.4667 237.687 23.04C237.154 23.6 236.887 24.4067 236.887 25.46C236.887 26.5133 237.147 27.3267 237.667 27.9C238.201 28.46 238.867 28.74 239.667 28.74ZM253.641 19.76C254.961 19.76 256.028 20.18 256.841 21.02C257.654 21.8467 258.061 23.0067 258.061 24.5V31H255.261V24.88C255.261 24 255.041 23.3267 254.601 22.86C254.161 22.38 253.561 22.14 252.801 22.14C252.028 22.14 251.414 22.38 250.961 22.86C250.521 23.3267 250.301 24 250.301 24.88V31H247.501V19.92H250.301V21.3C250.674 20.82 251.148 20.4467 251.721 20.18C252.308 19.9 252.948 19.76 253.641 19.76Z" fill="#464255"/>
</svg>
