<svg width="48" height="53" viewBox="0 0 48 53" fill="none" xmlns="http://www.w3.org/2000/svg">
<path d="M23.7665 18.452L20.5597 34.6438H16.6808L19.888 18.452H23.7665ZM40.0845 28.9072L42.1259 22.8269L43.3007 28.9072H40.0845ZM44.4135 34.6438H48L44.8667 18.452H41.5584C40.8128 18.452 40.1843 18.9188 39.9061 19.6388L34.0863 34.6438H38.1597L38.9683 32.2256H43.9438L44.4135 34.6438ZM34.2883 29.3577C34.3051 25.0844 28.8185 24.8477 28.8552 22.9383C28.867 22.3582 29.3796 21.7402 30.4998 21.5821C31.0552 21.5049 32.5877 21.4423 34.325 22.3068L35.0045 18.8719C34.0714 18.5073 32.8707 18.1562 31.3765 18.1562C27.5422 18.1562 24.8449 20.3559 24.8233 23.5082C24.7987 25.8394 26.7501 27.1391 28.2172 27.9156C29.7299 28.7091 30.2368 29.2179 30.2293 29.9269C30.2189 31.0133 29.0232 31.4944 27.9097 31.5126C25.9587 31.5453 24.8277 30.943 23.9263 30.4892L23.2222 34.0389C24.13 34.4876 25.8025 34.878 27.5344 34.898C31.6109 34.898 34.2761 32.7242 34.2883 29.3577ZM18.2242 18.452L11.9397 34.6438H7.84033L4.7475 21.7216C4.56001 20.9269 4.39647 20.6349 3.82626 20.2991C2.89355 19.7521 1.35387 19.2404 0 18.9221L0.0917206 18.452H6.69148C7.53213 18.452 8.28848 19.0561 8.48102 20.1021L10.1148 29.4724L14.1494 18.452H18.2242Z" fill="#1434CB"/>
</svg>
