<svg version="1.2" xmlns="http://www.w3.org/2000/svg" viewBox="0 0 206 41" width="206" height="41">
	<title>Logo-svg</title>
	<defs>
		<radialGradient id="g1" cx="0" cy="5.5" r="34.2" gradientUnits="userSpaceOnUse">
			<stop offset="0" stop-color="#897fff"/>
			<stop offset="1" stop-color="#5243ff"/>
		</radialGradient>
		<radialGradient id="g2" cx="22.4" cy="21.8" r="16" gradientUnits="userSpaceOnUse">
			<stop offset=".222" stop-color="#ef0606"/>
			<stop offset="1" stop-color="#b00101"/>
		</radialGradient>
	</defs>
	<style>
		.s0 { fill: #6659ff } 
		.s1 { fill: url(#g1) } 
		.s2 { fill: url(#g2) } 
	</style>
	<path id="Layer" fill-rule="evenodd" class="s0" d="m49.8 17.5q0-2.5 1-4.4 1.1-2 3-3.1 1.9-1.1 4.4-1.1 3.2 0 5.3 1.7 2.2 1.7 2.8 4.6h-5.1q-0.4-1-1.2-1.5-0.8-0.5-1.9-0.5-1.6 0-2.6 1.2-1 1.2-1 3.1 0 2 1 3.1 1 1.2 2.6 1.2 1.1 0 1.9-0.5 0.8-0.5 1.2-1.5h5.1q-0.6 2.9-2.8 4.6-2.1 1.7-5.3 1.7-2.5 0-4.4-1.1-1.9-1.1-3-3-1-2-1-4.5zm25 8.7q-2 0-3.6-0.9-1.6-0.8-2.5-2.4-0.9-1.5-0.9-3.6 0-2.1 0.9-3.7 0.9-1.6 2.5-2.4 1.6-0.8 3.6-0.8 2 0 3.6 0.8 1.6 0.8 2.5 2.4 1 1.6 1 3.7 0 2-1 3.6-0.9 1.6-2.5 2.4-1.6 0.9-3.6 0.9zm0-4.1q1 0 1.6-0.7 0.7-0.8 0.7-2.1 0-1.4-0.7-2.1-0.6-0.8-1.6-0.8-0.9 0-1.6 0.8-0.6 0.7-0.6 2.1 0 1.3 0.6 2.1 0.6 0.7 1.6 0.7zm26.6-9.7q2.5 0 4 1.6 1.4 1.5 1.4 4.2v7.8h-4.7v-7.2q0-1.1-0.6-1.7-0.6-0.6-1.6-0.6-1 0-1.6 0.6-0.6 0.6-0.6 1.7v7.2h-4.7v-7.2q0-1.1-0.6-1.7-0.6-0.6-1.7-0.6-1 0-1.6 0.6-0.6 0.6-0.6 1.7v7.2h-4.7v-13.5h4.7v1.8q0.6-0.9 1.6-1.4 1-0.5 2.3-0.5 1.5 0 2.6 0.7 1.2 0.6 1.9 1.8 0.7-1.1 1.9-1.8 1.2-0.7 2.6-0.7zm12.7 2q0.6-0.9 1.6-1.5 1-0.5 2.3-0.5 1.7 0 3 0.8 1.3 0.8 2 2.4 0.8 1.6 0.8 3.7 0 2-0.8 3.6-0.7 1.6-2 2.4-1.3 0.9-3 0.9-1.3 0-2.3-0.6-1-0.5-1.6-1.5v8.3h-4.7v-19.9h4.7zm4.9 4.9q0-1.3-0.7-2.1-0.7-0.7-1.7-0.7-1.1 0-1.8 0.7-0.7 0.8-0.7 2.1 0 1.3 0.7 2 0.7 0.8 1.8 0.8 1 0 1.7-0.8 0.7-0.7 0.7-2zm6 0q0-2.1 0.7-3.7 0.8-1.5 2.1-2.4 1.3-0.8 2.9-0.8 1.4 0 2.4 0.5 1 0.6 1.5 1.5v-1.8h4.8v13.4h-4.8v-1.8q-0.5 0.9-1.5 1.4-1 0.6-2.4 0.6-1.6 0-2.9-0.8-1.3-0.9-2.1-2.4-0.7-1.6-0.7-3.7zm9.6 0q0-1.3-0.7-2.1-0.7-0.7-1.7-0.7-1.1 0-1.8 0.7-0.6 0.8-0.6 2.1 0 1.3 0.6 2 0.7 0.8 1.8 0.8 1 0 1.7-0.8 0.7-0.7 0.7-2zm16.2-6.9q2.4 0 3.7 1.6 1.4 1.5 1.4 4.2v7.8h-4.7v-7.2q0-1.1-0.6-1.8-0.6-0.7-1.6-0.7-1.1 0-1.7 0.7-0.6 0.7-0.6 1.8v7.2h-4.7v-13.4h4.7v1.9q0.7-0.9 1.7-1.5 1.1-0.6 2.4-0.6zm22.2 0.2l-8.6 19.8h-5.1l3.2-6.9-5.5-12.9h5.3l2.8 7.6 2.7-7.6zm16.4 13.4l-3.3-4.7-2.8 4.7h-5.3l5.5-8.6-5.7-8.3h5.5l3.2 4.7 2.8-4.7h5.3l-5.4 8.5 5.8 8.4z"/>
	<path id="Layer" class="s1" d="m18.5 34.2c-10.2 0-18.5-7.6-18.5-17.1 0-9.5 8.3-17.1 18.5-17.1 10.2 0 18.5 7.6 18.5 17.1 0 9.5-8.3 17.1-18.5 17.1z"/>
	<path id="Layer" class="s2" d="m29.7 36.1c-4 0-7.3-3.2-7.3-7.1 0-4 3.3-7.2 7.3-7.2 4 0 7.3 3.2 7.3 7.2 0 3.9-3.3 7.1-7.3 7.1z"/>
</svg>